<?xml version="1.0" encoding="utf-8" standalone="no"?>
<!DOCTYPE svg PUBLIC "-//W3C//DTD SVG 1.1//EN"
  "http://www.w3.org/Graphics/SVG/1.1/DTD/svg11.dtd">
<svg xmlns:xlink="http://www.w3.org/1999/xlink" width="360pt" height="216pt" viewBox="0 0 360 216" xmlns="http://www.w3.org/2000/svg" version="1.1">
 <metadata>
  <rdf:RDF xmlns:dc="http://purl.org/dc/elements/1.1/" xmlns:cc="http://creativecommons.org/ns#" xmlns:rdf="http://www.w3.org/1999/02/22-rdf-syntax-ns#">
   <cc:Work>
    <dc:type rdf:resource="http://purl.org/dc/dcmitype/StillImage"/>
    <dc:date>2023-03-24T15:59:36.117652</dc:date>
    <dc:format>image/svg+xml</dc:format>
    <dc:creator>
     <cc:Agent>
      <dc:title>Matplotlib v3.6.3, https://matplotlib.org/</dc:title>
     </cc:Agent>
    </dc:creator>
   </cc:Work>
  </rdf:RDF>
 </metadata>
 <defs>
  <style type="text/css">*{stroke-linejoin: round; stroke-linecap: butt}</style>
 </defs>
 <g id="figure_1">
  <g id="patch_1">
   <path d="M 0 216 
L 360 216 
L 360 0 
L 0 0 
z
" style="fill: #ffffff"/>
  </g>
  <g id="axes_1">
   <g id="patch_2">
    <path d="M 39.94 168.671221 
L 342.594421 168.671221 
L 342.594421 26.88 
L 39.94 26.88 
z
" style="fill: #ffffff"/>
   </g>
   <g id="matplotlib.axis_1">
    <g id="xtick_1">
     <g id="line2d_1">
      <defs>
       <path id="md6370d9abc" d="M 0 0 
L 0 3.5 
" style="stroke: #000000; stroke-width: 0.8"/>
      </defs>
      <g>
       <use xlink:href="#md6370d9abc" x="57.848657" y="168.671221" style="stroke: #000000; stroke-width: 0.8"/>
      </g>
     </g>
     <g id="text_1">
      <!-- '07-10 -->
      <g transform="translate(48.554623 203.534543) rotate(-45) scale(0.1 -0.1)">
       <defs>
        <path id="DejaVuSans-27" d="M 1147 4666 
L 1147 2931 
L 616 2931 
L 616 4666 
L 1147 4666 
z
" transform="scale(0.015625)"/>
        <path id="DejaVuSans-30" d="M 2034 4250 
Q 1547 4250 1301 3770 
Q 1056 3291 1056 2328 
Q 1056 1369 1301 889 
Q 1547 409 2034 409 
Q 2525 409 2770 889 
Q 3016 1369 3016 2328 
Q 3016 3291 2770 3770 
Q 2525 4250 2034 4250 
z
M 2034 4750 
Q 2819 4750 3233 4129 
Q 3647 3509 3647 2328 
Q 3647 1150 3233 529 
Q 2819 -91 2034 -91 
Q 1250 -91 836 529 
Q 422 1150 422 2328 
Q 422 3509 836 4129 
Q 1250 4750 2034 4750 
z
" transform="scale(0.015625)"/>
        <path id="DejaVuSans-37" d="M 525 4666 
L 3525 4666 
L 3525 4397 
L 1831 0 
L 1172 0 
L 2766 4134 
L 525 4134 
L 525 4666 
z
" transform="scale(0.015625)"/>
        <path id="DejaVuSans-2d" d="M 313 2009 
L 1997 2009 
L 1997 1497 
L 313 1497 
L 313 2009 
z
" transform="scale(0.015625)"/>
        <path id="DejaVuSans-31" d="M 794 531 
L 1825 531 
L 1825 4091 
L 703 3866 
L 703 4441 
L 1819 4666 
L 2450 4666 
L 2450 531 
L 3481 531 
L 3481 0 
L 794 0 
L 794 531 
z
" transform="scale(0.015625)"/>
       </defs>
       <use xlink:href="#DejaVuSans-27"/>
       <use xlink:href="#DejaVuSans-30" x="27.490234"/>
       <use xlink:href="#DejaVuSans-37" x="91.113281"/>
       <use xlink:href="#DejaVuSans-2d" x="154.736328"/>
       <use xlink:href="#DejaVuSans-31" x="190.820312"/>
       <use xlink:href="#DejaVuSans-30" x="254.443359"/>
      </g>
     </g>
    </g>
    <g id="xtick_2">
     <g id="line2d_2">
      <g>
       <use xlink:href="#md6370d9abc" x="92.571449" y="168.671221" style="stroke: #000000; stroke-width: 0.8"/>
      </g>
     </g>
     <g id="text_2">
      <!-- '08-01 -->
      <g transform="translate(83.277414 203.534543) rotate(-45) scale(0.1 -0.1)">
       <defs>
        <path id="DejaVuSans-38" d="M 2034 2216 
Q 1584 2216 1326 1975 
Q 1069 1734 1069 1313 
Q 1069 891 1326 650 
Q 1584 409 2034 409 
Q 2484 409 2743 651 
Q 3003 894 3003 1313 
Q 3003 1734 2745 1975 
Q 2488 2216 2034 2216 
z
M 1403 2484 
Q 997 2584 770 2862 
Q 544 3141 544 3541 
Q 544 4100 942 4425 
Q 1341 4750 2034 4750 
Q 2731 4750 3128 4425 
Q 3525 4100 3525 3541 
Q 3525 3141 3298 2862 
Q 3072 2584 2669 2484 
Q 3125 2378 3379 2068 
Q 3634 1759 3634 1313 
Q 3634 634 3220 271 
Q 2806 -91 2034 -91 
Q 1263 -91 848 271 
Q 434 634 434 1313 
Q 434 1759 690 2068 
Q 947 2378 1403 2484 
z
M 1172 3481 
Q 1172 3119 1398 2916 
Q 1625 2713 2034 2713 
Q 2441 2713 2670 2916 
Q 2900 3119 2900 3481 
Q 2900 3844 2670 4047 
Q 2441 4250 2034 4250 
Q 1625 4250 1398 4047 
Q 1172 3844 1172 3481 
z
" transform="scale(0.015625)"/>
       </defs>
       <use xlink:href="#DejaVuSans-27"/>
       <use xlink:href="#DejaVuSans-30" x="27.490234"/>
       <use xlink:href="#DejaVuSans-38" x="91.113281"/>
       <use xlink:href="#DejaVuSans-2d" x="154.736328"/>
       <use xlink:href="#DejaVuSans-30" x="190.820312"/>
       <use xlink:href="#DejaVuSans-31" x="254.443359"/>
      </g>
     </g>
    </g>
    <g id="xtick_3">
     <g id="line2d_3">
      <g>
       <use xlink:href="#md6370d9abc" x="126.916819" y="168.671221" style="stroke: #000000; stroke-width: 0.8"/>
      </g>
     </g>
     <g id="text_3">
      <!-- '08-04 -->
      <g transform="translate(117.622784 203.534543) rotate(-45) scale(0.1 -0.1)">
       <defs>
        <path id="DejaVuSans-34" d="M 2419 4116 
L 825 1625 
L 2419 1625 
L 2419 4116 
z
M 2253 4666 
L 3047 4666 
L 3047 1625 
L 3713 1625 
L 3713 1100 
L 3047 1100 
L 3047 0 
L 2419 0 
L 2419 1100 
L 313 1100 
L 313 1709 
L 2253 4666 
z
" transform="scale(0.015625)"/>
       </defs>
       <use xlink:href="#DejaVuSans-27"/>
       <use xlink:href="#DejaVuSans-30" x="27.490234"/>
       <use xlink:href="#DejaVuSans-38" x="91.113281"/>
       <use xlink:href="#DejaVuSans-2d" x="154.736328"/>
       <use xlink:href="#DejaVuSans-30" x="190.820312"/>
       <use xlink:href="#DejaVuSans-34" x="254.443359"/>
      </g>
     </g>
    </g>
    <g id="xtick_4">
     <g id="line2d_4">
      <g>
       <use xlink:href="#md6370d9abc" x="161.262189" y="168.671221" style="stroke: #000000; stroke-width: 0.8"/>
      </g>
     </g>
     <g id="text_4">
      <!-- '08-07 -->
      <g transform="translate(151.968154 203.534543) rotate(-45) scale(0.1 -0.1)">
       <use xlink:href="#DejaVuSans-27"/>
       <use xlink:href="#DejaVuSans-30" x="27.490234"/>
       <use xlink:href="#DejaVuSans-38" x="91.113281"/>
       <use xlink:href="#DejaVuSans-2d" x="154.736328"/>
       <use xlink:href="#DejaVuSans-30" x="190.820312"/>
       <use xlink:href="#DejaVuSans-37" x="254.443359"/>
      </g>
     </g>
    </g>
    <g id="xtick_5">
     <g id="line2d_5">
      <g>
       <use xlink:href="#md6370d9abc" x="195.984981" y="168.671221" style="stroke: #000000; stroke-width: 0.8"/>
      </g>
     </g>
     <g id="text_5">
      <!-- '08-10 -->
      <g transform="translate(186.690946 203.534543) rotate(-45) scale(0.1 -0.1)">
       <use xlink:href="#DejaVuSans-27"/>
       <use xlink:href="#DejaVuSans-30" x="27.490234"/>
       <use xlink:href="#DejaVuSans-38" x="91.113281"/>
       <use xlink:href="#DejaVuSans-2d" x="154.736328"/>
       <use xlink:href="#DejaVuSans-31" x="190.820312"/>
       <use xlink:href="#DejaVuSans-30" x="254.443359"/>
      </g>
     </g>
    </g>
    <g id="xtick_6">
     <g id="line2d_6">
      <g>
       <use xlink:href="#md6370d9abc" x="230.707773" y="168.671221" style="stroke: #000000; stroke-width: 0.8"/>
      </g>
     </g>
     <g id="text_6">
      <!-- '09-01 -->
      <g transform="translate(221.413738 203.534543) rotate(-45) scale(0.1 -0.1)">
       <defs>
        <path id="DejaVuSans-39" d="M 703 97 
L 703 672 
Q 941 559 1184 500 
Q 1428 441 1663 441 
Q 2288 441 2617 861 
Q 2947 1281 2994 2138 
Q 2813 1869 2534 1725 
Q 2256 1581 1919 1581 
Q 1219 1581 811 2004 
Q 403 2428 403 3163 
Q 403 3881 828 4315 
Q 1253 4750 1959 4750 
Q 2769 4750 3195 4129 
Q 3622 3509 3622 2328 
Q 3622 1225 3098 567 
Q 2575 -91 1691 -91 
Q 1453 -91 1209 -44 
Q 966 3 703 97 
z
M 1959 2075 
Q 2384 2075 2632 2365 
Q 2881 2656 2881 3163 
Q 2881 3666 2632 3958 
Q 2384 4250 1959 4250 
Q 1534 4250 1286 3958 
Q 1038 3666 1038 3163 
Q 1038 2656 1286 2365 
Q 1534 2075 1959 2075 
z
" transform="scale(0.015625)"/>
       </defs>
       <use xlink:href="#DejaVuSans-27"/>
       <use xlink:href="#DejaVuSans-30" x="27.490234"/>
       <use xlink:href="#DejaVuSans-39" x="91.113281"/>
       <use xlink:href="#DejaVuSans-2d" x="154.736328"/>
       <use xlink:href="#DejaVuSans-30" x="190.820312"/>
       <use xlink:href="#DejaVuSans-31" x="254.443359"/>
      </g>
     </g>
    </g>
    <g id="xtick_7">
     <g id="line2d_7">
      <g>
       <use xlink:href="#md6370d9abc" x="264.675721" y="168.671221" style="stroke: #000000; stroke-width: 0.8"/>
      </g>
     </g>
     <g id="text_7">
      <!-- '09-04 -->
      <g transform="translate(255.381686 203.534543) rotate(-45) scale(0.1 -0.1)">
       <use xlink:href="#DejaVuSans-27"/>
       <use xlink:href="#DejaVuSans-30" x="27.490234"/>
       <use xlink:href="#DejaVuSans-39" x="91.113281"/>
       <use xlink:href="#DejaVuSans-2d" x="154.736328"/>
       <use xlink:href="#DejaVuSans-30" x="190.820312"/>
       <use xlink:href="#DejaVuSans-34" x="254.443359"/>
      </g>
     </g>
    </g>
    <g id="xtick_8">
     <g id="line2d_8">
      <g>
       <use xlink:href="#md6370d9abc" x="299.021091" y="168.671221" style="stroke: #000000; stroke-width: 0.8"/>
      </g>
     </g>
     <g id="text_8">
      <!-- '09-07 -->
      <g transform="translate(289.727057 203.534543) rotate(-45) scale(0.1 -0.1)">
       <use xlink:href="#DejaVuSans-27"/>
       <use xlink:href="#DejaVuSans-30" x="27.490234"/>
       <use xlink:href="#DejaVuSans-39" x="91.113281"/>
       <use xlink:href="#DejaVuSans-2d" x="154.736328"/>
       <use xlink:href="#DejaVuSans-30" x="190.820312"/>
       <use xlink:href="#DejaVuSans-37" x="254.443359"/>
      </g>
     </g>
    </g>
    <g id="xtick_9">
     <g id="line2d_9">
      <g>
       <use xlink:href="#md6370d9abc" x="333.743883" y="168.671221" style="stroke: #000000; stroke-width: 0.8"/>
      </g>
     </g>
     <g id="text_9">
      <!-- '09-10 -->
      <g transform="translate(324.449848 203.534543) rotate(-45) scale(0.1 -0.1)">
       <use xlink:href="#DejaVuSans-27"/>
       <use xlink:href="#DejaVuSans-30" x="27.490234"/>
       <use xlink:href="#DejaVuSans-39" x="91.113281"/>
       <use xlink:href="#DejaVuSans-2d" x="154.736328"/>
       <use xlink:href="#DejaVuSans-31" x="190.820312"/>
       <use xlink:href="#DejaVuSans-30" x="254.443359"/>
      </g>
     </g>
    </g>
   </g>
   <g id="matplotlib.axis_2">
    <g id="ytick_1">
     <g id="line2d_10">
      <defs>
       <path id="m28bb7e9a48" d="M 0 0 
L -3.5 0 
" style="stroke: #000000; stroke-width: 0.8"/>
      </defs>
      <g>
       <use xlink:href="#m28bb7e9a48" x="39.94" y="135.619481" style="stroke: #000000; stroke-width: 0.8"/>
      </g>
     </g>
     <g id="text_10">
      <!-- 75 -->
      <g transform="translate(20.215 139.4187) scale(0.1 -0.1)">
       <defs>
        <path id="DejaVuSans-35" d="M 691 4666 
L 3169 4666 
L 3169 4134 
L 1269 4134 
L 1269 2991 
Q 1406 3038 1543 3061 
Q 1681 3084 1819 3084 
Q 2600 3084 3056 2656 
Q 3513 2228 3513 1497 
Q 3513 744 3044 326 
Q 2575 -91 1722 -91 
Q 1428 -91 1123 -41 
Q 819 9 494 109 
L 494 744 
Q 775 591 1075 516 
Q 1375 441 1709 441 
Q 2250 441 2565 725 
Q 2881 1009 2881 1497 
Q 2881 1984 2565 2268 
Q 2250 2553 1709 2553 
Q 1456 2553 1204 2497 
Q 953 2441 691 2322 
L 691 4666 
z
" transform="scale(0.015625)"/>
       </defs>
       <use xlink:href="#DejaVuSans-37"/>
       <use xlink:href="#DejaVuSans-35" x="63.623047"/>
      </g>
     </g>
    </g>
    <g id="ytick_2">
     <g id="line2d_11">
      <g>
       <use xlink:href="#m28bb7e9a48" x="39.94" y="99.370573" style="stroke: #000000; stroke-width: 0.8"/>
      </g>
     </g>
     <g id="text_11">
      <!-- 80 -->
      <g transform="translate(20.215 103.169792) scale(0.1 -0.1)">
       <use xlink:href="#DejaVuSans-38"/>
       <use xlink:href="#DejaVuSans-30" x="63.623047"/>
      </g>
     </g>
    </g>
    <g id="ytick_3">
     <g id="line2d_12">
      <g>
       <use xlink:href="#m28bb7e9a48" x="39.94" y="63.121665" style="stroke: #000000; stroke-width: 0.8"/>
      </g>
     </g>
     <g id="text_12">
      <!-- 85 -->
      <g transform="translate(20.215 66.920884) scale(0.1 -0.1)">
       <use xlink:href="#DejaVuSans-38"/>
       <use xlink:href="#DejaVuSans-35" x="63.623047"/>
      </g>
     </g>
    </g>
   </g>
   <g id="line2d_13">
    <path d="M 192.588186 127.282218 
L 193.343029 122.642365 
L 193.720451 121.19243 
L 194.097873 121.482429 
M 195.230138 117.712513 
L 195.607559 103.357975 
L 195.984981 103.285463 
L 196.362403 96.180655 
L 196.739824 97.123155 
M 197.872089 87.19094 
L 198.249511 92.338278 
L 198.626933 92.773243 
L 199.004354 90.960798 
L 199.381776 77.621228 
M 200.514041 85.741006 
L 200.891462 89.510863 
L 201.268884 84.508499 
L 201.646306 81.536118 
L 202.023727 81.898571 
M 203.155992 76.896265 
L 203.533414 70.443959 
L 203.910836 60.439224 
L 204.288257 60.511737 
L 204.665679 52.681965 
M 205.797944 49.129587 
L 206.175366 48.404616 
L 206.552787 62.61418 
L 206.930209 66.311584 
L 207.30763 58.554325 
M 208.439895 53.334474 
L 208.817317 64.716624 
L 209.194739 65.949073 
L 209.57216 56.669367 
L 209.949582 56.524335 
M 211.081847 56.524335 
L 211.459269 48.114617 
L 211.83669 45.214697 
L 212.591534 53.261955 
M 213.723799 49.999575 
L 214.10122 45.939661 
L 214.478642 46.374684 
L 214.856063 41.589807 
L 215.233485 39.994847 
M 216.36575 55.291887 
L 216.743172 63.121665 
L 217.120593 58.264326 
L 217.875437 52.102019 
M 219.007702 50.652034 
L 219.385123 50.797058 
L 219.762545 48.404616 
L 220.139967 52.681965 
L 220.517388 47.752106 
M 221.649653 59.061802 
L 222.027075 57.031878 
L 222.404496 59.641748 
L 222.781918 71.603895 
L 223.15934 72.981375 
M 224.291605 82.913591 
L 225.046448 107.272806 
L 225.42387 103.21295 
L 225.801291 89.945835 
M 226.933556 91.46834 
L 227.310978 90.380859 
L 227.6884 90.598345 
L 228.443243 92.918275 
M 229.575508 94.440722 
L 229.952929 92.845755 
L 230.330351 89.873374 
L 231.085194 86.031004 
M 232.217459 80.231157 
L 232.594881 78.70871 
L 232.972303 82.841078 
L 233.349724 88.205902 
L 233.727146 80.086125 
M 234.859411 77.476255 
L 235.236833 68.414027 
L 235.614254 67.326553 
L 235.991676 67.181528 
L 236.369097 68.849 
M 237.878784 54.276924 
L 238.633627 59.3518 
L 239.011049 58.699291 
M 240.143314 65.079084 
L 240.520736 67.254041 
L 240.898157 65.514108 
L 241.653001 55.871884 
M 242.785266 55.364399 
L 243.162687 62.759154 
L 243.540109 58.04684 
L 243.91753 55.436911 
L 244.294952 60.584256 
M 245.427217 64.644112 
L 245.804639 57.249357 
L 246.18206 57.466843 
L 246.559482 51.884482 
L 246.936904 55.581885 
M 248.44659 44.417214 
L 248.824012 41.299808 
L 249.201434 45.432184 
L 249.578855 52.319505 
M 250.71112 46.882169 
L 251.088542 49.419585 
L 251.465963 42.024772 
L 251.843385 43.32974 
L 252.220807 41.299808 
M 253.353072 34.557511 
L 253.730493 34.77499 
L 254.107915 37.167432 
L 254.485337 33.325055 
L 254.862758 37.674917 
M 255.995023 34.050026 
L 256.372445 34.630023 
L 256.749867 42.31477 
L 257.50471 45.504696 
M 258.636975 48.984613 
L 259.014396 49.129587 
L 259.391818 66.021592 
L 259.76924 76.678779 
L 260.146661 71.531441 
M 261.278926 74.503822 
L 261.656348 71.386409 
L 262.03377 71.74892 
L 262.411191 69.138998 
L 262.788613 62.324182 
M 263.920878 56.814333 
L 264.2983 60.004259 
L 264.675721 59.496774 
L 265.053143 67.109067 
L 265.430564 69.138998 
M 266.562829 66.239071 
L 266.940251 61.019221 
L 267.317673 60.511737 
L 267.695094 57.39433 
M 269.204781 65.731594 
L 269.582203 65.731594 
L 269.959624 62.541668 
L 270.337046 61.454194 
L 270.714468 56.016857 
M 271.846733 51.232031 
L 272.224154 51.666996 
L 272.601576 54.494411 
L 273.356419 65.224109 
M 274.488684 58.04684 
L 275.243527 66.964042 
L 275.620949 65.949073 
L 275.998371 66.384045 
M 277.130636 70.588933 
L 277.508057 69.211453 
L 277.885479 71.821381 
L 278.262901 70.806419 
L 278.640322 81.028633 
M 279.772587 79.941159 
L 280.150009 82.623592 
L 280.52743 81.246119 
L 280.904852 82.841078 
L 281.282274 77.476255 
M 282.414539 80.013671 
L 282.79196 85.015984 
L 283.169382 92.193304 
L 283.546804 95.31071 
L 283.924225 99.660572 
M 285.433912 98.428123 
L 285.811334 96.978131 
L 286.188755 96.253167 
L 286.566177 96.253167 
M 287.698442 105.387906 
L 288.075863 110.970209 
L 288.453285 102.995464 
L 288.830707 103.647915 
L 289.208128 94.513234 
M 290.340393 92.773243 
L 290.717815 100.89302 
L 291.095237 96.978131 
L 291.472658 103.647915 
L 291.85008 98.355611 
M 292.982345 91.105829 
L 293.737188 98.138125 
L 294.11461 94.948199 
L 294.492032 97.485616 
M 295.624296 93.715751 
L 296.001718 100.530567 
L 296.37914 95.31071 
L 296.756561 96.470646 
L 297.133983 100.240569 
M 298.266248 100.530567 
L 298.64367 98.428123 
L 299.021091 102.053014 
L 299.398513 98.283091 
M 300.9082 96.108193 
L 301.663043 93.788263 
L 302.040464 100.385535 
L 302.417886 97.703102 
M 303.550151 98.428123 
L 303.927573 98.065613 
L 304.304994 104.300425 
L 304.682416 105.025396 
L 305.059838 104.082946 
M 306.192103 107.272806 
L 306.569524 107.12784 
L 306.946946 108.722799 
L 307.324368 108.070289 
L 307.701789 108.4328 
M 308.834054 109.302796 
L 309.211476 107.707837 
L 309.588897 102.053014 
L 309.966319 104.517911 
L 310.343741 111.332727 
M 311.476006 116.480065 
L 311.853427 115.537608 
L 312.230849 117.350053 
L 312.608271 113.362652 
L 312.985692 106.837841 
M 314.117957 104.735397 
L 314.495379 105.315394 
L 315.250222 110.317758 
L 315.627644 107.417838 
M 316.759909 104.517911 
L 317.13733 107.055327 
L 317.514752 110.462732 
L 317.892174 111.115241 
L 318.269595 113.580138 
M 319.40186 111.912717 
L 319.779282 112.130203 
L 320.156704 109.085252 
L 320.534125 113.797624 
L 320.911547 111.187696 
M 322.043812 112.637688 
L 322.421234 108.360288 
L 322.798655 111.115241 
L 323.176077 110.535244 
L 323.553499 112.855174 
M 325.063185 118.799988 
L 326.19545 123.947326 
M 327.327715 123.294874 
L 327.705137 124.45481 
L 328.082558 126.629767 
L 328.45998 126.992227 
L 328.837402 125.252294 
L 328.837402 125.252294 
" clip-path="url(#pc650c5ef71)" style="fill: none; stroke: #d3d3d3; stroke-linecap: square"/>
   </g>
   <g id="line2d_14">
    <path d="M 53.697019 109.665249 
L 54.074441 109.520282 
M 55.206706 110.027759 
L 55.584127 111.622719 
L 55.961549 110.317758 
L 56.338971 111.40524 
L 56.716392 115.900068 
M 57.848657 114.5951 
L 58.226079 111.69518 
L 58.603501 109.737761 
L 58.980922 110.39022 
L 59.358344 111.622719 
M 60.490609 109.012797 
L 61.245452 111.115241 
L 61.622874 113.290139 
L 62.000295 112.275177 
M 63.13256 113.217685 
L 63.509982 112.057691 
L 63.887404 113.000141 
L 64.264825 116.842576 
L 64.642247 118.147479 
M 65.774512 113.435164 
L 66.151934 116.842576 
L 66.529355 117.132516 
L 67.284199 120.902432 
M 68.416463 122.279912 
L 68.793885 122.78739 
L 69.171307 124.889783 
L 69.548728 124.092358 
L 69.92615 125.904803 
M 71.058415 125.252294 
L 71.435837 128.079701 
L 71.813258 132.647042 
L 72.19068 132.284589 
L 72.568102 132.719554 
M 73.700367 129.094663 
L 74.077788 129.239695 
L 74.45521 129.747173 
L 74.832631 127.862215 
L 75.210053 129.602148 
M 76.342318 129.964659 
L 76.71974 134.097034 
L 77.097161 135.111997 
L 77.852005 135.25697 
M 78.98427 136.634443 
L 79.361691 134.894518 
L 79.739113 135.039484 
L 80.493956 127.282218 
M 81.626221 128.877184 
L 82.003643 130.617117 
L 82.381064 125.39726 
L 82.758486 125.614804 
L 83.135908 126.267256 
M 84.268173 127.934727 
L 84.645594 126.77474 
L 85.023016 127.354738 
L 85.400438 124.309836 
L 85.777859 117.93 
M 86.910124 118.219991 
L 87.287546 118.147479 
L 88.042389 115.392583 
L 88.419811 115.900068 
M 89.552076 116.987543 
L 90.306919 120.032436 
L 91.061762 126.77474 
M 92.194027 123.294874 
L 92.948871 128.587186 
L 93.703714 129.892147 
M 94.835979 127.137251 
L 95.213401 127.572216 
L 95.590822 125.324806 
L 95.968244 128.877184 
L 96.345666 128.514674 
M 97.47793 131.197107 
L 97.855352 131.487106 
L 98.232774 126.484742 
L 98.610195 127.137251 
L 98.987617 125.614804 
M 100.497304 125.832291 
L 100.874725 125.469773 
L 101.252147 130.617117 
L 101.629569 128.587186 
M 102.761834 131.414593 
L 103.139255 131.704592 
L 103.516677 135.401995 
L 103.894099 134.314521 
L 104.27152 132.357101 
M 105.403785 132.93704 
L 105.781207 127.499704 
L 106.158628 127.354738 
L 106.53605 121.55489 
L 106.913472 123.512361 
M 108.045737 124.164812 
L 108.423158 126.04977 
L 108.80058 125.469773 
L 109.178002 127.282218 
L 109.555423 127.644736 
M 111.06511 128.3697 
L 111.442531 127.499704 
L 111.819953 131.269627 
L 112.197375 131.849617 
M 113.32964 131.777104 
L 114.084483 141.346816 
L 114.461905 144.899195 
L 114.839326 144.971707 
M 115.971591 145.044219 
L 116.349013 145.33416 
L 116.726435 146.639128 
L 117.103856 150.119045 
L 117.481278 149.901558 
M 118.613543 150.191557 
L 118.990964 148.089113 
L 119.368386 154.468899 
L 120.123229 159.833723 
M 121.255494 161.283715 
L 121.632916 160.486232 
L 122.387759 151.93149 
M 123.897446 150.481555 
L 124.652289 160.921205 
L 125.029711 159.833723 
L 125.407133 159.688756 
M 126.539397 158.818761 
L 126.916819 153.308963 
L 127.294241 155.483868 
L 127.671662 155.773867 
L 128.049084 157.223852 
M 129.181349 155.918892 
L 129.558771 155.701355 
L 129.936192 158.601275 
L 130.313614 156.498831 
L 130.691036 158.746299 
M 131.823301 158.238822 
L 132.200722 157.223852 
L 132.578144 161.646168 
L 133.332987 157.296314 
M 134.465252 159.906235 
L 134.842674 162.226165 
L 135.220095 158.673787 
L 135.597517 153.453937 
L 135.974939 151.641491 
M 137.107204 151.641491 
L 137.484625 150.916528 
L 137.862047 153.671423 
L 138.239469 148.089113 
L 138.61689 146.494154 
M 139.749155 148.741572 
L 140.126577 150.119045 
L 140.503999 146.421641 
L 140.88142 146.639128 
L 141.258842 149.756534 
M 142.391107 150.481555 
L 142.768528 148.161625 
L 143.14595 147.219117 
L 143.523372 147.581635 
L 143.900793 151.279039 
M 145.033058 149.829046 
L 145.787902 157.803799 
L 146.165323 155.338895 
L 146.542745 158.166309 
M 148.052431 154.903929 
L 148.429853 153.381425 
L 148.807275 149.974071 
L 149.184696 150.98904 
M 150.316961 150.626529 
L 150.694383 148.379111 
L 151.071805 147.074151 
L 151.449226 149.829046 
L 151.826648 154.541419 
M 152.958913 151.206526 
L 153.336335 145.044219 
L 153.713756 148.596598 
L 154.091178 143.884225 
L 154.4686 141.781781 
M 155.600864 145.69667 
L 156.355708 146.929126 
L 156.733129 146.639128 
L 157.110551 149.901558 
M 158.242816 147.001638 
L 158.620238 148.379111 
L 158.997659 150.626529 
L 159.375081 153.816448 
L 159.752503 154.758898 
M 160.884768 154.033934 
L 161.262189 154.686385 
L 161.639611 157.15134 
L 162.017033 152.004002 
M 163.526719 152.511487 
L 163.904141 150.046532 
L 164.281562 153.163938 
L 164.658984 153.816448 
L 165.036406 156.643862 
M 166.168671 157.948823 
L 166.546092 158.311276 
L 167.300936 155.628893 
L 167.678357 155.991353 
M 168.810622 157.441338 
L 169.565466 151.496518 
L 169.942887 150.626529 
L 170.320309 151.134007 
M 171.452574 152.656454 
L 171.829995 147.871627 
L 172.207417 147.799114 
L 172.584839 148.451573 
L 172.96226 147.074151 
M 174.094525 146.784152 
L 174.849369 141.12933 
L 175.22679 138.881861 
L 175.604212 129.457181 
M 176.736477 127.42725 
L 177.113899 127.282218 
L 177.49132 126.847253 
L 178.246163 119.814957 
M 179.378428 120.249923 
L 179.75585 122.279912 
L 180.133272 121.409917 
L 180.510693 126.919765 
L 180.888115 122.497391 
M 182.02038 122.642365 
L 182.397802 119.307473 
L 182.775223 120.757407 
L 183.152645 120.032436 
L 183.530067 118.365023 
M 185.039753 113.435164 
L 185.417175 113.217685 
L 185.794596 109.447762 
L 186.172018 107.12784 
M 187.304283 102.343013 
L 187.681705 104.807909 
L 188.059126 100.458055 
L 188.436548 98.283091 
L 188.81397 106.837841 
M 189.946235 107.272806 
L 190.323656 106.11287 
L 190.701078 113.145173 
L 191.0785 113.725163 
L 191.455921 116.190067 
L 191.455921 116.190067 
" clip-path="url(#pc650c5ef71)" style="fill: none; stroke: #000000; stroke-linecap: square"/>
   </g>
   <g id="patch_3">
    <path d="M 39.94 168.671221 
L 39.94 26.88 
" style="fill: none; stroke: #000000; stroke-width: 0.8; stroke-linejoin: miter; stroke-linecap: square"/>
   </g>
   <g id="patch_4">
    <path d="M 342.594421 168.671221 
L 342.594421 26.88 
" style="fill: none; stroke: #000000; stroke-width: 0.8; stroke-linejoin: miter; stroke-linecap: square"/>
   </g>
   <g id="patch_5">
    <path d="M 39.94 168.671221 
L 342.594421 168.671221 
" style="fill: none; stroke: #000000; stroke-width: 0.8; stroke-linejoin: miter; stroke-linecap: square"/>
   </g>
   <g id="patch_6">
    <path d="M 39.94 26.88 
L 342.594421 26.88 
" style="fill: none; stroke: #000000; stroke-width: 0.8; stroke-linejoin: miter; stroke-linecap: square"/>
   </g>
   <g id="text_13">
    <!-- Dollar -->
    <g transform="translate(173.498773 20.88) scale(0.12 -0.12)">
     <defs>
      <path id="DejaVuSans-44" d="M 1259 4147 
L 1259 519 
L 2022 519 
Q 2988 519 3436 956 
Q 3884 1394 3884 2338 
Q 3884 3275 3436 3711 
Q 2988 4147 2022 4147 
L 1259 4147 
z
M 628 4666 
L 1925 4666 
Q 3281 4666 3915 4102 
Q 4550 3538 4550 2338 
Q 4550 1131 3912 565 
Q 3275 0 1925 0 
L 628 0 
L 628 4666 
z
" transform="scale(0.015625)"/>
      <path id="DejaVuSans-6f" d="M 1959 3097 
Q 1497 3097 1228 2736 
Q 959 2375 959 1747 
Q 959 1119 1226 758 
Q 1494 397 1959 397 
Q 2419 397 2687 759 
Q 2956 1122 2956 1747 
Q 2956 2369 2687 2733 
Q 2419 3097 1959 3097 
z
M 1959 3584 
Q 2709 3584 3137 3096 
Q 3566 2609 3566 1747 
Q 3566 888 3137 398 
Q 2709 -91 1959 -91 
Q 1206 -91 779 398 
Q 353 888 353 1747 
Q 353 2609 779 3096 
Q 1206 3584 1959 3584 
z
" transform="scale(0.015625)"/>
      <path id="DejaVuSans-6c" d="M 603 4863 
L 1178 4863 
L 1178 0 
L 603 0 
L 603 4863 
z
" transform="scale(0.015625)"/>
      <path id="DejaVuSans-61" d="M 2194 1759 
Q 1497 1759 1228 1600 
Q 959 1441 959 1056 
Q 959 750 1161 570 
Q 1363 391 1709 391 
Q 2188 391 2477 730 
Q 2766 1069 2766 1631 
L 2766 1759 
L 2194 1759 
z
M 3341 1997 
L 3341 0 
L 2766 0 
L 2766 531 
Q 2569 213 2275 61 
Q 1981 -91 1556 -91 
Q 1019 -91 701 211 
Q 384 513 384 1019 
Q 384 1609 779 1909 
Q 1175 2209 1959 2209 
L 2766 2209 
L 2766 2266 
Q 2766 2663 2505 2880 
Q 2244 3097 1772 3097 
Q 1472 3097 1187 3025 
Q 903 2953 641 2809 
L 641 3341 
Q 956 3463 1253 3523 
Q 1550 3584 1831 3584 
Q 2591 3584 2966 3190 
Q 3341 2797 3341 1997 
z
" transform="scale(0.015625)"/>
      <path id="DejaVuSans-72" d="M 2631 2963 
Q 2534 3019 2420 3045 
Q 2306 3072 2169 3072 
Q 1681 3072 1420 2755 
Q 1159 2438 1159 1844 
L 1159 0 
L 581 0 
L 581 3500 
L 1159 3500 
L 1159 2956 
Q 1341 3275 1631 3429 
Q 1922 3584 2338 3584 
Q 2397 3584 2469 3576 
Q 2541 3569 2628 3553 
L 2631 2963 
z
" transform="scale(0.015625)"/>
     </defs>
     <use xlink:href="#DejaVuSans-44"/>
     <use xlink:href="#DejaVuSans-6f" x="77.001953"/>
     <use xlink:href="#DejaVuSans-6c" x="138.183594"/>
     <use xlink:href="#DejaVuSans-6c" x="165.966797"/>
     <use xlink:href="#DejaVuSans-61" x="193.75"/>
     <use xlink:href="#DejaVuSans-72" x="255.029297"/>
    </g>
   </g>
  </g>
 </g>
 <defs>
  <clipPath id="pc650c5ef71">
   <rect x="39.94" y="26.88" width="302.654421" height="141.791221"/>
  </clipPath>
 </defs>
</svg>
