<?xml version="1.0" encoding="utf-8" standalone="no"?>
<!DOCTYPE svg PUBLIC "-//W3C//DTD SVG 1.1//EN"
  "http://www.w3.org/Graphics/SVG/1.1/DTD/svg11.dtd">
<svg xmlns:xlink="http://www.w3.org/1999/xlink" width="360pt" height="216pt" viewBox="0 0 360 216" xmlns="http://www.w3.org/2000/svg" version="1.1">
 <metadata>
  <rdf:RDF xmlns:dc="http://purl.org/dc/elements/1.1/" xmlns:cc="http://creativecommons.org/ns#" xmlns:rdf="http://www.w3.org/1999/02/22-rdf-syntax-ns#">
   <cc:Work>
    <dc:type rdf:resource="http://purl.org/dc/dcmitype/StillImage"/>
    <dc:date>2023-03-24T15:59:36.483499</dc:date>
    <dc:format>image/svg+xml</dc:format>
    <dc:creator>
     <cc:Agent>
      <dc:title>Matplotlib v3.6.3, https://matplotlib.org/</dc:title>
     </cc:Agent>
    </dc:creator>
   </cc:Work>
  </rdf:RDF>
 </metadata>
 <defs>
  <style type="text/css">*{stroke-linejoin: round; stroke-linecap: butt}</style>
 </defs>
 <g id="figure_1">
  <g id="patch_1">
   <path d="M 0 216 
L 360 216 
L 360 0 
L 0 0 
z
" style="fill: #ffffff"/>
  </g>
  <g id="axes_1">
   <g id="patch_2">
    <path d="M 39.94 168.671221 
L 349.2 168.671221 
L 349.2 26.88 
L 39.94 26.88 
z
" style="fill: #ffffff"/>
   </g>
   <g id="matplotlib.axis_1">
    <g id="xtick_1">
     <g id="line2d_1">
      <defs>
       <path id="mc48bb64c4e" d="M 0 0 
L 0 3.5 
" style="stroke: #000000; stroke-width: 0.8"/>
      </defs>
      <g>
       <use xlink:href="#mc48bb64c4e" x="50.140682" y="168.671221" style="stroke: #000000; stroke-width: 0.8"/>
      </g>
     </g>
     <g id="text_1">
      <!-- '07-10 -->
      <g transform="translate(40.846647 203.534543) rotate(-45) scale(0.1 -0.1)">
       <defs>
        <path id="DejaVuSans-27" d="M 1147 4666 
L 1147 2931 
L 616 2931 
L 616 4666 
L 1147 4666 
z
" transform="scale(0.015625)"/>
        <path id="DejaVuSans-30" d="M 2034 4250 
Q 1547 4250 1301 3770 
Q 1056 3291 1056 2328 
Q 1056 1369 1301 889 
Q 1547 409 2034 409 
Q 2525 409 2770 889 
Q 3016 1369 3016 2328 
Q 3016 3291 2770 3770 
Q 2525 4250 2034 4250 
z
M 2034 4750 
Q 2819 4750 3233 4129 
Q 3647 3509 3647 2328 
Q 3647 1150 3233 529 
Q 2819 -91 2034 -91 
Q 1250 -91 836 529 
Q 422 1150 422 2328 
Q 422 3509 836 4129 
Q 1250 4750 2034 4750 
z
" transform="scale(0.015625)"/>
        <path id="DejaVuSans-37" d="M 525 4666 
L 3525 4666 
L 3525 4397 
L 1831 0 
L 1172 0 
L 2766 4134 
L 525 4134 
L 525 4666 
z
" transform="scale(0.015625)"/>
        <path id="DejaVuSans-2d" d="M 313 2009 
L 1997 2009 
L 1997 1497 
L 313 1497 
L 313 2009 
z
" transform="scale(0.015625)"/>
        <path id="DejaVuSans-31" d="M 794 531 
L 1825 531 
L 1825 4091 
L 703 3866 
L 703 4441 
L 1819 4666 
L 2450 4666 
L 2450 531 
L 3481 531 
L 3481 0 
L 794 0 
L 794 531 
z
" transform="scale(0.015625)"/>
       </defs>
       <use xlink:href="#DejaVuSans-27"/>
       <use xlink:href="#DejaVuSans-30" x="27.490234"/>
       <use xlink:href="#DejaVuSans-37" x="91.113281"/>
       <use xlink:href="#DejaVuSans-2d" x="154.736328"/>
       <use xlink:href="#DejaVuSans-31" x="190.820312"/>
       <use xlink:href="#DejaVuSans-30" x="254.443359"/>
      </g>
     </g>
    </g>
    <g id="xtick_2">
     <g id="line2d_2">
      <g>
       <use xlink:href="#mc48bb64c4e" x="85.621316" y="168.671221" style="stroke: #000000; stroke-width: 0.8"/>
      </g>
     </g>
     <g id="text_2">
      <!-- '08-01 -->
      <g transform="translate(76.327281 203.534543) rotate(-45) scale(0.1 -0.1)">
       <defs>
        <path id="DejaVuSans-38" d="M 2034 2216 
Q 1584 2216 1326 1975 
Q 1069 1734 1069 1313 
Q 1069 891 1326 650 
Q 1584 409 2034 409 
Q 2484 409 2743 651 
Q 3003 894 3003 1313 
Q 3003 1734 2745 1975 
Q 2488 2216 2034 2216 
z
M 1403 2484 
Q 997 2584 770 2862 
Q 544 3141 544 3541 
Q 544 4100 942 4425 
Q 1341 4750 2034 4750 
Q 2731 4750 3128 4425 
Q 3525 4100 3525 3541 
Q 3525 3141 3298 2862 
Q 3072 2584 2669 2484 
Q 3125 2378 3379 2068 
Q 3634 1759 3634 1313 
Q 3634 634 3220 271 
Q 2806 -91 2034 -91 
Q 1263 -91 848 271 
Q 434 634 434 1313 
Q 434 1759 690 2068 
Q 947 2378 1403 2484 
z
M 1172 3481 
Q 1172 3119 1398 2916 
Q 1625 2713 2034 2713 
Q 2441 2713 2670 2916 
Q 2900 3119 2900 3481 
Q 2900 3844 2670 4047 
Q 2441 4250 2034 4250 
Q 1625 4250 1398 4047 
Q 1172 3844 1172 3481 
z
" transform="scale(0.015625)"/>
       </defs>
       <use xlink:href="#DejaVuSans-27"/>
       <use xlink:href="#DejaVuSans-30" x="27.490234"/>
       <use xlink:href="#DejaVuSans-38" x="91.113281"/>
       <use xlink:href="#DejaVuSans-2d" x="154.736328"/>
       <use xlink:href="#DejaVuSans-30" x="190.820312"/>
       <use xlink:href="#DejaVuSans-31" x="254.443359"/>
      </g>
     </g>
    </g>
    <g id="xtick_3">
     <g id="line2d_3">
      <g>
       <use xlink:href="#mc48bb64c4e" x="120.71629" y="168.671221" style="stroke: #000000; stroke-width: 0.8"/>
      </g>
     </g>
     <g id="text_3">
      <!-- '08-04 -->
      <g transform="translate(111.422255 203.534543) rotate(-45) scale(0.1 -0.1)">
       <defs>
        <path id="DejaVuSans-34" d="M 2419 4116 
L 825 1625 
L 2419 1625 
L 2419 4116 
z
M 2253 4666 
L 3047 4666 
L 3047 1625 
L 3713 1625 
L 3713 1100 
L 3047 1100 
L 3047 0 
L 2419 0 
L 2419 1100 
L 313 1100 
L 313 1709 
L 2253 4666 
z
" transform="scale(0.015625)"/>
       </defs>
       <use xlink:href="#DejaVuSans-27"/>
       <use xlink:href="#DejaVuSans-30" x="27.490234"/>
       <use xlink:href="#DejaVuSans-38" x="91.113281"/>
       <use xlink:href="#DejaVuSans-2d" x="154.736328"/>
       <use xlink:href="#DejaVuSans-30" x="190.820312"/>
       <use xlink:href="#DejaVuSans-34" x="254.443359"/>
      </g>
     </g>
    </g>
    <g id="xtick_4">
     <g id="line2d_4">
      <g>
       <use xlink:href="#mc48bb64c4e" x="155.811264" y="168.671221" style="stroke: #000000; stroke-width: 0.8"/>
      </g>
     </g>
     <g id="text_4">
      <!-- '08-07 -->
      <g transform="translate(146.51723 203.534543) rotate(-45) scale(0.1 -0.1)">
       <use xlink:href="#DejaVuSans-27"/>
       <use xlink:href="#DejaVuSans-30" x="27.490234"/>
       <use xlink:href="#DejaVuSans-38" x="91.113281"/>
       <use xlink:href="#DejaVuSans-2d" x="154.736328"/>
       <use xlink:href="#DejaVuSans-30" x="190.820312"/>
       <use xlink:href="#DejaVuSans-37" x="254.443359"/>
      </g>
     </g>
    </g>
    <g id="xtick_5">
     <g id="line2d_5">
      <g>
       <use xlink:href="#mc48bb64c4e" x="191.291898" y="168.671221" style="stroke: #000000; stroke-width: 0.8"/>
      </g>
     </g>
     <g id="text_5">
      <!-- '08-10 -->
      <g transform="translate(181.997863 203.534543) rotate(-45) scale(0.1 -0.1)">
       <use xlink:href="#DejaVuSans-27"/>
       <use xlink:href="#DejaVuSans-30" x="27.490234"/>
       <use xlink:href="#DejaVuSans-38" x="91.113281"/>
       <use xlink:href="#DejaVuSans-2d" x="154.736328"/>
       <use xlink:href="#DejaVuSans-31" x="190.820312"/>
       <use xlink:href="#DejaVuSans-30" x="254.443359"/>
      </g>
     </g>
    </g>
    <g id="xtick_6">
     <g id="line2d_6">
      <g>
       <use xlink:href="#mc48bb64c4e" x="226.772531" y="168.671221" style="stroke: #000000; stroke-width: 0.8"/>
      </g>
     </g>
     <g id="text_6">
      <!-- '09-01 -->
      <g transform="translate(217.478497 203.534543) rotate(-45) scale(0.1 -0.1)">
       <defs>
        <path id="DejaVuSans-39" d="M 703 97 
L 703 672 
Q 941 559 1184 500 
Q 1428 441 1663 441 
Q 2288 441 2617 861 
Q 2947 1281 2994 2138 
Q 2813 1869 2534 1725 
Q 2256 1581 1919 1581 
Q 1219 1581 811 2004 
Q 403 2428 403 3163 
Q 403 3881 828 4315 
Q 1253 4750 1959 4750 
Q 2769 4750 3195 4129 
Q 3622 3509 3622 2328 
Q 3622 1225 3098 567 
Q 2575 -91 1691 -91 
Q 1453 -91 1209 -44 
Q 966 3 703 97 
z
M 1959 2075 
Q 2384 2075 2632 2365 
Q 2881 2656 2881 3163 
Q 2881 3666 2632 3958 
Q 2384 4250 1959 4250 
Q 1534 4250 1286 3958 
Q 1038 3666 1038 3163 
Q 1038 2656 1286 2365 
Q 1534 2075 1959 2075 
z
" transform="scale(0.015625)"/>
       </defs>
       <use xlink:href="#DejaVuSans-27"/>
       <use xlink:href="#DejaVuSans-30" x="27.490234"/>
       <use xlink:href="#DejaVuSans-39" x="91.113281"/>
       <use xlink:href="#DejaVuSans-2d" x="154.736328"/>
       <use xlink:href="#DejaVuSans-30" x="190.820312"/>
       <use xlink:href="#DejaVuSans-31" x="254.443359"/>
      </g>
     </g>
    </g>
    <g id="xtick_7">
     <g id="line2d_7">
      <g>
       <use xlink:href="#mc48bb64c4e" x="261.481847" y="168.671221" style="stroke: #000000; stroke-width: 0.8"/>
      </g>
     </g>
     <g id="text_7">
      <!-- '09-04 -->
      <g transform="translate(252.187812 203.534543) rotate(-45) scale(0.1 -0.1)">
       <use xlink:href="#DejaVuSans-27"/>
       <use xlink:href="#DejaVuSans-30" x="27.490234"/>
       <use xlink:href="#DejaVuSans-39" x="91.113281"/>
       <use xlink:href="#DejaVuSans-2d" x="154.736328"/>
       <use xlink:href="#DejaVuSans-30" x="190.820312"/>
       <use xlink:href="#DejaVuSans-34" x="254.443359"/>
      </g>
     </g>
    </g>
    <g id="xtick_8">
     <g id="line2d_8">
      <g>
       <use xlink:href="#mc48bb64c4e" x="296.576821" y="168.671221" style="stroke: #000000; stroke-width: 0.8"/>
      </g>
     </g>
     <g id="text_8">
      <!-- '09-07 -->
      <g transform="translate(287.282787 203.534543) rotate(-45) scale(0.1 -0.1)">
       <use xlink:href="#DejaVuSans-27"/>
       <use xlink:href="#DejaVuSans-30" x="27.490234"/>
       <use xlink:href="#DejaVuSans-39" x="91.113281"/>
       <use xlink:href="#DejaVuSans-2d" x="154.736328"/>
       <use xlink:href="#DejaVuSans-30" x="190.820312"/>
       <use xlink:href="#DejaVuSans-37" x="254.443359"/>
      </g>
     </g>
    </g>
    <g id="xtick_9">
     <g id="line2d_9">
      <g>
       <use xlink:href="#mc48bb64c4e" x="332.057455" y="168.671221" style="stroke: #000000; stroke-width: 0.8"/>
      </g>
     </g>
     <g id="text_9">
      <!-- '09-10 -->
      <g transform="translate(322.76342 203.534543) rotate(-45) scale(0.1 -0.1)">
       <use xlink:href="#DejaVuSans-27"/>
       <use xlink:href="#DejaVuSans-30" x="27.490234"/>
       <use xlink:href="#DejaVuSans-39" x="91.113281"/>
       <use xlink:href="#DejaVuSans-2d" x="154.736328"/>
       <use xlink:href="#DejaVuSans-31" x="190.820312"/>
       <use xlink:href="#DejaVuSans-30" x="254.443359"/>
      </g>
     </g>
    </g>
   </g>
   <g id="matplotlib.axis_2">
    <g id="ytick_1">
     <g id="line2d_10">
      <defs>
       <path id="m55300f79c1" d="M 0 0 
L -3.5 0 
" style="stroke: #000000; stroke-width: 0.8"/>
      </defs>
      <g>
       <use xlink:href="#m55300f79c1" x="39.94" y="135.619481" style="stroke: #000000; stroke-width: 0.8"/>
      </g>
     </g>
     <g id="text_10">
      <!-- 75 -->
      <g transform="translate(20.215 139.4187) scale(0.1 -0.1)">
       <defs>
        <path id="DejaVuSans-35" d="M 691 4666 
L 3169 4666 
L 3169 4134 
L 1269 4134 
L 1269 2991 
Q 1406 3038 1543 3061 
Q 1681 3084 1819 3084 
Q 2600 3084 3056 2656 
Q 3513 2228 3513 1497 
Q 3513 744 3044 326 
Q 2575 -91 1722 -91 
Q 1428 -91 1123 -41 
Q 819 9 494 109 
L 494 744 
Q 775 591 1075 516 
Q 1375 441 1709 441 
Q 2250 441 2565 725 
Q 2881 1009 2881 1497 
Q 2881 1984 2565 2268 
Q 2250 2553 1709 2553 
Q 1456 2553 1204 2497 
Q 953 2441 691 2322 
L 691 4666 
z
" transform="scale(0.015625)"/>
       </defs>
       <use xlink:href="#DejaVuSans-37"/>
       <use xlink:href="#DejaVuSans-35" x="63.623047"/>
      </g>
     </g>
    </g>
    <g id="ytick_2">
     <g id="line2d_11">
      <g>
       <use xlink:href="#m55300f79c1" x="39.94" y="99.370573" style="stroke: #000000; stroke-width: 0.8"/>
      </g>
     </g>
     <g id="text_11">
      <!-- 80 -->
      <g transform="translate(20.215 103.169792) scale(0.1 -0.1)">
       <use xlink:href="#DejaVuSans-38"/>
       <use xlink:href="#DejaVuSans-30" x="63.623047"/>
      </g>
     </g>
    </g>
    <g id="ytick_3">
     <g id="line2d_12">
      <g>
       <use xlink:href="#m55300f79c1" x="39.94" y="63.121665" style="stroke: #000000; stroke-width: 0.8"/>
      </g>
     </g>
     <g id="text_12">
      <!-- 85 -->
      <g transform="translate(20.215 66.920884) scale(0.1 -0.1)">
       <use xlink:href="#DejaVuSans-38"/>
       <use xlink:href="#DejaVuSans-35" x="63.623047"/>
      </g>
     </g>
    </g>
   </g>
   <g id="line2d_13">
    <path d="M 195.919807 85.741006 
L 196.305466 89.510863 
L 196.691125 84.508499 
L 197.076784 81.536118 
L 197.462443 81.898571 
M 198.61942 76.896265 
L 199.005079 70.443959 
L 199.390738 60.439224 
L 199.776397 60.511737 
L 200.162056 52.681965 
M 201.319034 49.129587 
L 201.704693 48.404616 
L 202.090352 62.61418 
L 202.476011 66.311584 
L 202.86167 58.554325 
M 204.018647 53.334474 
L 204.404306 64.716624 
L 204.789965 65.949073 
L 205.175624 56.669367 
L 205.561283 56.524335 
M 206.71826 56.524335 
L 207.103919 48.114617 
L 207.489579 45.214697 
L 208.260897 53.261955 
M 209.417874 49.999575 
L 209.803533 45.939661 
L 210.189192 46.374684 
L 210.574851 41.589807 
L 210.96051 39.994847 
M 212.117487 55.291887 
L 212.503146 63.121665 
L 212.888805 58.264326 
L 213.660123 52.102019 
M 214.817101 50.652034 
L 215.20276 50.797058 
L 215.588419 48.404616 
L 215.974078 52.681965 
L 216.359737 47.752106 
M 217.516714 59.061802 
L 217.902373 57.031878 
L 218.288032 59.641748 
L 218.673691 71.603895 
L 219.05935 72.981375 
M 220.216327 82.913591 
L 220.987646 107.272806 
L 221.373305 103.21295 
L 221.758964 89.945835 
M 222.915941 91.46834 
L 223.3016 90.380859 
L 223.687259 90.598345 
L 224.458577 92.918275 
M 225.615554 94.440722 
L 226.001213 92.845755 
L 226.386872 89.873374 
L 227.158191 86.031004 
M 228.315168 80.231157 
L 228.700827 78.70871 
L 229.086486 82.841078 
L 229.472145 88.205902 
L 229.857804 80.086125 
M 231.014781 77.476255 
L 231.40044 68.414027 
L 231.786099 67.326553 
L 232.171758 67.181528 
L 232.557417 68.849 
M 234.100054 54.276924 
L 234.871372 59.3518 
L 235.257031 58.699291 
M 236.414008 65.079084 
L 236.799667 67.254041 
L 237.185326 65.514108 
L 237.956644 55.871884 
M 239.113621 55.364399 
L 239.49928 62.759154 
L 239.88494 58.04684 
L 240.270599 55.436911 
L 240.656258 60.584256 
M 241.813235 64.644112 
L 242.198894 57.249357 
L 242.584553 57.466843 
L 242.970212 51.884482 
L 243.355871 55.581885 
M 244.898507 44.417214 
L 245.284166 41.299808 
L 245.669825 45.432184 
L 246.055484 52.319505 
M 247.212462 46.882169 
L 247.598121 49.419585 
L 247.98378 42.024772 
L 248.369439 43.32974 
L 248.755098 41.299808 
M 249.912075 34.557511 
L 250.297734 34.77499 
L 250.683393 37.167432 
L 251.069052 33.325055 
L 251.454711 37.674917 
M 252.611688 34.050026 
L 252.997348 34.630023 
L 253.383007 42.31477 
L 254.154325 45.504696 
M 255.311302 48.984613 
L 255.696961 49.129587 
L 256.08262 66.021592 
L 256.468279 76.678779 
L 256.853938 71.531441 
M 258.010915 74.503822 
L 258.396574 71.386409 
L 258.782233 71.74892 
L 259.167893 69.138998 
L 259.553552 62.324182 
M 260.710529 56.814333 
L 261.096188 60.004259 
L 261.481847 59.496774 
L 261.867506 67.109067 
L 262.253165 69.138998 
M 263.410142 66.239071 
L 263.795801 61.019221 
L 264.18146 60.511737 
L 264.567119 57.39433 
M 266.109756 65.731594 
L 266.495415 65.731594 
L 266.881074 62.541668 
L 267.266733 61.454194 
L 267.652392 56.016857 
M 268.809369 51.232031 
L 269.195028 51.666996 
L 269.580687 54.494411 
L 270.352005 65.224109 
M 271.508982 58.04684 
L 272.280301 66.964042 
L 272.66596 65.949073 
L 273.051619 66.384045 
M 274.208596 70.588933 
L 274.594255 69.211453 
L 274.979914 71.821381 
L 275.365573 70.806419 
L 275.751232 81.028633 
M 276.908209 79.941159 
L 277.293868 82.623592 
L 277.679527 81.246119 
L 278.065186 82.841078 
L 278.450845 77.476255 
M 279.607823 80.013671 
L 279.993482 85.015984 
L 280.379141 92.193304 
L 280.7648 95.31071 
L 281.150459 99.660572 
M 282.693095 98.428123 
L 283.078754 96.978131 
L 283.464413 96.253167 
L 283.850072 96.253167 
M 285.00705 105.387906 
L 285.392709 110.970209 
L 285.778368 102.995464 
L 286.164027 103.647915 
L 286.549686 94.513234 
M 287.706663 92.773243 
L 288.092322 100.89302 
L 288.477981 96.978131 
L 288.86364 103.647915 
L 289.249299 98.355611 
M 290.406276 91.105829 
L 291.177594 98.138125 
L 291.563254 94.948199 
L 291.948913 97.485616 
M 293.10589 93.715751 
L 293.491549 100.530567 
L 293.877208 95.31071 
L 294.262867 96.470646 
L 294.648526 100.240569 
M 295.805503 100.530567 
L 296.191162 98.428123 
L 296.576821 102.053014 
L 296.96248 98.283091 
M 298.505117 96.108193 
L 299.276435 93.788263 
L 299.662094 100.385535 
L 300.047753 97.703102 
M 301.20473 98.428123 
L 301.590389 98.065613 
L 301.976048 104.300425 
L 302.361707 105.025396 
L 302.747366 104.082946 
M 303.904343 107.272806 
L 304.290002 107.12784 
L 304.675662 108.722799 
L 305.061321 108.070289 
L 305.44698 108.4328 
M 306.603957 109.302796 
L 306.989616 107.707837 
L 307.375275 102.053014 
L 307.760934 104.517911 
L 308.146593 111.332727 
M 309.30357 116.480065 
L 309.689229 115.537608 
L 310.074888 117.350053 
L 310.460547 113.362652 
L 310.846207 106.837841 
M 312.003184 104.735397 
L 312.388843 105.315394 
L 313.160161 110.317758 
L 313.54582 107.417838 
M 314.702797 104.517911 
L 315.088456 107.055327 
L 315.474115 110.462732 
L 315.859774 111.115241 
L 316.245433 113.580138 
M 317.402411 111.912717 
L 317.78807 112.130203 
L 318.173729 109.085252 
L 318.559388 113.797624 
L 318.945047 111.187696 
M 320.102024 112.637688 
L 320.487683 108.360288 
L 320.873342 111.115241 
L 321.259001 110.535244 
L 321.64466 112.855174 
M 323.187296 118.799988 
L 324.344274 123.947326 
M 325.501251 123.294874 
L 325.88691 124.45481 
L 326.272569 126.629767 
L 326.658228 126.992227 
L 327.043887 125.252294 
M 328.200864 122.714877 
L 328.586523 127.499704 
L 328.972182 128.007189 
L 329.357841 121.844882 
L 329.7435 122.497391 
M 330.900478 120.757407 
L 331.286137 120.249923 
L 331.671796 123.657327 
L 332.057455 119.742445 
L 332.443114 121.119918 
M 333.600091 123.729847 
L 333.98575 125.904803 
L 334.371409 124.817321 
L 334.757068 128.587186 
L 335.142727 125.252294 
L 335.142727 125.252294 
" clip-path="url(#p945770dca4)" style="fill: none; stroke: #d3d3d3; stroke-linecap: square"/>
   </g>
   <g id="line2d_14">
    <path d="M 53.997273 113.290139 
L 54.382932 112.275177 
M 55.539909 113.217685 
L 55.925568 112.057691 
L 56.311227 113.000141 
L 56.696886 116.842576 
L 57.082545 118.147479 
M 58.239522 113.435164 
L 58.625181 116.842576 
L 59.010841 117.132516 
L 59.782159 120.902432 
M 60.939136 122.279912 
L 61.324795 122.78739 
L 61.710454 124.889783 
L 62.096113 124.092358 
L 62.481772 125.904803 
M 63.638749 125.252294 
L 64.024408 128.079701 
L 64.410067 132.647042 
L 64.795726 132.284589 
L 65.181385 132.719554 
M 66.338363 129.094663 
L 66.724022 129.239695 
L 67.109681 129.747173 
L 67.49534 127.862215 
L 67.880999 129.602148 
M 69.037976 129.964659 
L 69.423635 134.097034 
L 69.809294 135.111997 
L 70.580612 135.25697 
M 71.737589 136.634443 
L 72.123249 134.894518 
L 72.508908 135.039484 
L 73.280226 127.282218 
M 74.437203 128.877184 
L 74.822862 130.617117 
L 75.208521 125.39726 
L 75.59418 125.614804 
L 75.979839 126.267256 
M 77.136816 127.934727 
L 77.522475 126.77474 
L 77.908134 127.354738 
L 78.293793 124.309836 
L 78.679453 117.93 
M 79.83643 118.219991 
L 80.222089 118.147479 
L 80.993407 115.392583 
L 81.379066 115.900068 
M 82.536043 116.987543 
L 83.307361 120.032436 
L 84.078679 126.77474 
M 85.235657 123.294874 
L 86.006975 128.587186 
L 86.778293 129.892147 
M 87.93527 127.137251 
L 88.320929 127.572216 
L 88.706588 125.324806 
L 89.092247 128.877184 
L 89.477906 128.514674 
M 90.634883 131.197107 
L 91.020542 131.487106 
L 91.406202 126.484742 
L 91.791861 127.137251 
L 92.17752 125.614804 
M 93.720156 125.832291 
L 94.105815 125.469773 
L 94.491474 130.617117 
L 94.877133 128.587186 
M 96.03411 131.414593 
L 96.419769 131.704592 
L 96.805428 135.401995 
L 97.191087 134.314521 
L 97.576746 132.357101 
M 98.733724 132.93704 
L 99.119383 127.499704 
L 99.505042 127.354738 
L 99.890701 121.55489 
L 100.27636 123.512361 
M 101.433337 124.164812 
L 101.818996 126.04977 
L 102.204655 125.469773 
L 102.590314 127.282218 
L 102.975973 127.644736 
M 104.51861 128.3697 
L 104.904269 127.499704 
L 105.289928 131.269627 
L 105.675587 131.849617 
M 106.832564 131.777104 
L 107.603882 141.346816 
L 107.989541 144.899195 
L 108.3752 144.971707 
M 109.532177 145.044219 
L 109.917836 145.33416 
L 110.303495 146.639128 
L 110.689155 150.119045 
L 111.074814 149.901558 
M 112.231791 150.191557 
L 112.61745 148.089113 
L 113.003109 154.468899 
L 113.774427 159.833723 
M 114.931404 161.283715 
L 115.317063 160.486232 
L 116.088381 151.93149 
M 117.631018 150.481555 
L 118.402336 160.921205 
L 118.787995 159.833723 
L 119.173654 159.688756 
M 120.330631 158.818761 
L 120.71629 153.308963 
L 121.101949 155.483868 
L 121.487608 155.773867 
L 121.873267 157.223852 
M 123.030244 155.918892 
L 123.415903 155.701355 
L 123.801563 158.601275 
L 124.187222 156.498831 
L 124.572881 158.746299 
M 125.729858 158.238822 
L 126.115517 157.223852 
L 126.501176 161.646168 
L 127.272494 157.296314 
M 128.429471 159.906235 
L 128.81513 162.226165 
L 129.200789 158.673787 
L 129.586448 153.453937 
L 129.972107 151.641491 
M 131.129085 151.641491 
L 131.514744 150.916528 
L 131.900403 153.671423 
L 132.286062 148.089113 
L 132.671721 146.494154 
M 133.828698 148.741572 
L 134.214357 150.119045 
L 134.600016 146.421641 
L 134.985675 146.639128 
L 135.371334 149.756534 
M 136.528312 150.481555 
L 136.913971 148.161625 
L 137.29963 147.219117 
L 137.685289 147.581635 
L 138.070948 151.279039 
M 139.227925 149.829046 
L 139.999243 157.803799 
L 140.384902 155.338895 
L 140.770561 158.166309 
M 142.313197 154.903929 
L 142.698856 153.381425 
L 143.084516 149.974071 
L 143.470175 150.98904 
M 144.627152 150.626529 
L 145.012811 148.379111 
L 145.39847 147.074151 
L 145.784129 149.829046 
L 146.169788 154.541419 
M 147.326765 151.206526 
L 147.712424 145.044219 
L 148.098083 148.596598 
L 148.483742 143.884225 
L 148.869401 141.781781 
M 150.026379 145.69667 
L 150.797697 146.929126 
L 151.183356 146.639128 
L 151.569015 149.901558 
M 152.725992 147.001638 
L 153.111651 148.379111 
L 153.49731 150.626529 
L 153.882969 153.816448 
L 154.268628 154.758898 
M 155.425605 154.033934 
L 155.811264 154.686385 
L 156.196924 157.15134 
L 156.582583 152.004002 
M 158.125219 152.511487 
L 158.510878 150.046532 
L 158.896537 153.163938 
L 159.282196 153.816448 
L 159.667855 156.643862 
M 160.824832 157.948823 
L 161.210491 158.311276 
L 161.981809 155.628893 
L 162.367469 155.991353 
M 163.524446 157.441338 
L 164.295764 151.496518 
L 164.681423 150.626529 
L 165.067082 151.134007 
M 166.224059 152.656454 
L 166.609718 147.871627 
L 166.995377 147.799114 
L 167.381036 148.451573 
L 167.766695 147.074151 
M 168.923673 146.784152 
L 169.694991 141.12933 
L 170.08065 138.881861 
L 170.466309 129.457181 
M 171.623286 127.42725 
L 172.008945 127.282218 
L 172.394604 126.847253 
L 173.165922 119.814957 
M 174.322899 120.249923 
L 174.708558 122.279912 
L 175.094217 121.409917 
L 175.479877 126.919765 
L 175.865536 122.497391 
M 177.022513 122.642365 
L 177.408172 119.307473 
L 177.793831 120.757407 
L 178.17949 120.032436 
L 178.565149 118.365023 
M 180.107785 113.435164 
L 180.493444 113.217685 
L 180.879103 109.447762 
L 181.264762 107.12784 
M 182.42174 102.343013 
L 182.807399 104.807909 
L 183.193058 100.458055 
L 183.578717 98.283091 
L 183.964376 106.837841 
M 185.121353 107.272806 
L 185.507012 106.11287 
L 185.892671 113.145173 
L 186.27833 113.725163 
L 186.663989 116.190067 
M 187.820966 127.282218 
L 188.592285 122.642365 
L 188.977944 121.19243 
L 189.363603 121.482429 
M 190.52058 117.712513 
L 190.906239 103.357975 
L 191.291898 103.285463 
L 191.677557 96.180655 
L 192.063216 97.123155 
M 193.220193 87.19094 
L 193.605852 92.338278 
L 193.991511 92.773243 
L 194.37717 90.960798 
L 194.76283 77.621228 
L 194.76283 77.621228 
" clip-path="url(#p945770dca4)" style="fill: none; stroke: #000000; stroke-linecap: square"/>
   </g>
   <g id="patch_3">
    <path d="M 39.94 168.671221 
L 39.94 26.88 
" style="fill: none; stroke: #000000; stroke-width: 0.8; stroke-linejoin: miter; stroke-linecap: square"/>
   </g>
   <g id="patch_4">
    <path d="M 349.2 168.671221 
L 349.2 26.88 
" style="fill: none; stroke: #000000; stroke-width: 0.8; stroke-linejoin: miter; stroke-linecap: square"/>
   </g>
   <g id="patch_5">
    <path d="M 39.94 168.671221 
L 349.2 168.671221 
" style="fill: none; stroke: #000000; stroke-width: 0.8; stroke-linejoin: miter; stroke-linecap: square"/>
   </g>
   <g id="patch_6">
    <path d="M 39.94 26.88 
L 349.2 26.88 
" style="fill: none; stroke: #000000; stroke-width: 0.8; stroke-linejoin: miter; stroke-linecap: square"/>
   </g>
   <g id="text_13">
    <!-- Dollar -->
    <g transform="translate(176.801562 20.88) scale(0.12 -0.12)">
     <defs>
      <path id="DejaVuSans-44" d="M 1259 4147 
L 1259 519 
L 2022 519 
Q 2988 519 3436 956 
Q 3884 1394 3884 2338 
Q 3884 3275 3436 3711 
Q 2988 4147 2022 4147 
L 1259 4147 
z
M 628 4666 
L 1925 4666 
Q 3281 4666 3915 4102 
Q 4550 3538 4550 2338 
Q 4550 1131 3912 565 
Q 3275 0 1925 0 
L 628 0 
L 628 4666 
z
" transform="scale(0.015625)"/>
      <path id="DejaVuSans-6f" d="M 1959 3097 
Q 1497 3097 1228 2736 
Q 959 2375 959 1747 
Q 959 1119 1226 758 
Q 1494 397 1959 397 
Q 2419 397 2687 759 
Q 2956 1122 2956 1747 
Q 2956 2369 2687 2733 
Q 2419 3097 1959 3097 
z
M 1959 3584 
Q 2709 3584 3137 3096 
Q 3566 2609 3566 1747 
Q 3566 888 3137 398 
Q 2709 -91 1959 -91 
Q 1206 -91 779 398 
Q 353 888 353 1747 
Q 353 2609 779 3096 
Q 1206 3584 1959 3584 
z
" transform="scale(0.015625)"/>
      <path id="DejaVuSans-6c" d="M 603 4863 
L 1178 4863 
L 1178 0 
L 603 0 
L 603 4863 
z
" transform="scale(0.015625)"/>
      <path id="DejaVuSans-61" d="M 2194 1759 
Q 1497 1759 1228 1600 
Q 959 1441 959 1056 
Q 959 750 1161 570 
Q 1363 391 1709 391 
Q 2188 391 2477 730 
Q 2766 1069 2766 1631 
L 2766 1759 
L 2194 1759 
z
M 3341 1997 
L 3341 0 
L 2766 0 
L 2766 531 
Q 2569 213 2275 61 
Q 1981 -91 1556 -91 
Q 1019 -91 701 211 
Q 384 513 384 1019 
Q 384 1609 779 1909 
Q 1175 2209 1959 2209 
L 2766 2209 
L 2766 2266 
Q 2766 2663 2505 2880 
Q 2244 3097 1772 3097 
Q 1472 3097 1187 3025 
Q 903 2953 641 2809 
L 641 3341 
Q 956 3463 1253 3523 
Q 1550 3584 1831 3584 
Q 2591 3584 2966 3190 
Q 3341 2797 3341 1997 
z
" transform="scale(0.015625)"/>
      <path id="DejaVuSans-72" d="M 2631 2963 
Q 2534 3019 2420 3045 
Q 2306 3072 2169 3072 
Q 1681 3072 1420 2755 
Q 1159 2438 1159 1844 
L 1159 0 
L 581 0 
L 581 3500 
L 1159 3500 
L 1159 2956 
Q 1341 3275 1631 3429 
Q 1922 3584 2338 3584 
Q 2397 3584 2469 3576 
Q 2541 3569 2628 3553 
L 2631 2963 
z
" transform="scale(0.015625)"/>
     </defs>
     <use xlink:href="#DejaVuSans-44"/>
     <use xlink:href="#DejaVuSans-6f" x="77.001953"/>
     <use xlink:href="#DejaVuSans-6c" x="138.183594"/>
     <use xlink:href="#DejaVuSans-6c" x="165.966797"/>
     <use xlink:href="#DejaVuSans-61" x="193.75"/>
     <use xlink:href="#DejaVuSans-72" x="255.029297"/>
    </g>
   </g>
  </g>
 </g>
 <defs>
  <clipPath id="p945770dca4">
   <rect x="39.94" y="26.88" width="309.26" height="141.791221"/>
  </clipPath>
 </defs>
</svg>
