<?xml version="1.0" encoding="utf-8" standalone="no"?>
<!DOCTYPE svg PUBLIC "-//W3C//DTD SVG 1.1//EN"
  "http://www.w3.org/Graphics/SVG/1.1/DTD/svg11.dtd">
<svg xmlns:xlink="http://www.w3.org/1999/xlink" width="360pt" height="216pt" viewBox="0 0 360 216" xmlns="http://www.w3.org/2000/svg" version="1.1">
 <metadata>
  <rdf:RDF xmlns:dc="http://purl.org/dc/elements/1.1/" xmlns:cc="http://creativecommons.org/ns#" xmlns:rdf="http://www.w3.org/1999/02/22-rdf-syntax-ns#">
   <cc:Work>
    <dc:type rdf:resource="http://purl.org/dc/dcmitype/StillImage"/>
    <dc:date>2023-03-24T15:03:34.840947</dc:date>
    <dc:format>image/svg+xml</dc:format>
    <dc:creator>
     <cc:Agent>
      <dc:title>Matplotlib v3.6.3, https://matplotlib.org/</dc:title>
     </cc:Agent>
    </dc:creator>
   </cc:Work>
  </rdf:RDF>
 </metadata>
 <defs>
  <style type="text/css">*{stroke-linejoin: round; stroke-linecap: butt}</style>
 </defs>
 <g id="figure_1">
  <g id="patch_1">
   <path d="M 0 216 
L 360 216 
L 360 0 
L 0 0 
z
" style="fill: #ffffff"/>
  </g>
  <g id="axes_1">
   <g id="patch_2">
    <path d="M 36.88 168.671221 
L 347.496695 168.671221 
L 347.496695 26.88 
L 36.88 26.88 
z
" style="fill: #ffffff"/>
   </g>
   <g id="matplotlib.axis_1">
    <g id="xtick_1">
     <g id="line2d_1">
      <defs>
       <path id="m796e17db90" d="M 0 0 
L 0 3.5 
" style="stroke: #000000; stroke-width: 0.8"/>
      </defs>
      <g>
       <use xlink:href="#m796e17db90" x="50.2253" y="168.671221" style="stroke: #000000; stroke-width: 0.8"/>
      </g>
     </g>
     <g id="text_1">
      <!-- '00-01 -->
      <g transform="translate(40.931265 203.534543) rotate(-45) scale(0.1 -0.1)">
       <defs>
        <path id="DejaVuSans-27" d="M 1147 4666 
L 1147 2931 
L 616 2931 
L 616 4666 
L 1147 4666 
z
" transform="scale(0.015625)"/>
        <path id="DejaVuSans-30" d="M 2034 4250 
Q 1547 4250 1301 3770 
Q 1056 3291 1056 2328 
Q 1056 1369 1301 889 
Q 1547 409 2034 409 
Q 2525 409 2770 889 
Q 3016 1369 3016 2328 
Q 3016 3291 2770 3770 
Q 2525 4250 2034 4250 
z
M 2034 4750 
Q 2819 4750 3233 4129 
Q 3647 3509 3647 2328 
Q 3647 1150 3233 529 
Q 2819 -91 2034 -91 
Q 1250 -91 836 529 
Q 422 1150 422 2328 
Q 422 3509 836 4129 
Q 1250 4750 2034 4750 
z
" transform="scale(0.015625)"/>
        <path id="DejaVuSans-2d" d="M 313 2009 
L 1997 2009 
L 1997 1497 
L 313 1497 
L 313 2009 
z
" transform="scale(0.015625)"/>
        <path id="DejaVuSans-31" d="M 794 531 
L 1825 531 
L 1825 4091 
L 703 3866 
L 703 4441 
L 1819 4666 
L 2450 4666 
L 2450 531 
L 3481 531 
L 3481 0 
L 794 0 
L 794 531 
z
" transform="scale(0.015625)"/>
       </defs>
       <use xlink:href="#DejaVuSans-27"/>
       <use xlink:href="#DejaVuSans-30" x="27.490234"/>
       <use xlink:href="#DejaVuSans-30" x="91.113281"/>
       <use xlink:href="#DejaVuSans-2d" x="154.736328"/>
       <use xlink:href="#DejaVuSans-30" x="190.820312"/>
       <use xlink:href="#DejaVuSans-31" x="254.443359"/>
      </g>
     </g>
    </g>
    <g id="xtick_2">
     <g id="line2d_2">
      <g>
       <use xlink:href="#m796e17db90" x="85.425947" y="168.671221" style="stroke: #000000; stroke-width: 0.8"/>
      </g>
     </g>
     <g id="text_2">
      <!-- '00-04 -->
      <g transform="translate(76.131912 203.534543) rotate(-45) scale(0.1 -0.1)">
       <defs>
        <path id="DejaVuSans-34" d="M 2419 4116 
L 825 1625 
L 2419 1625 
L 2419 4116 
z
M 2253 4666 
L 3047 4666 
L 3047 1625 
L 3713 1625 
L 3713 1100 
L 3047 1100 
L 3047 0 
L 2419 0 
L 2419 1100 
L 313 1100 
L 313 1709 
L 2253 4666 
z
" transform="scale(0.015625)"/>
       </defs>
       <use xlink:href="#DejaVuSans-27"/>
       <use xlink:href="#DejaVuSans-30" x="27.490234"/>
       <use xlink:href="#DejaVuSans-30" x="91.113281"/>
       <use xlink:href="#DejaVuSans-2d" x="154.736328"/>
       <use xlink:href="#DejaVuSans-30" x="190.820312"/>
       <use xlink:href="#DejaVuSans-34" x="254.443359"/>
      </g>
     </g>
    </g>
    <g id="xtick_3">
     <g id="line2d_3">
      <g>
       <use xlink:href="#m796e17db90" x="120.626593" y="168.671221" style="stroke: #000000; stroke-width: 0.8"/>
      </g>
     </g>
     <g id="text_3">
      <!-- '00-07 -->
      <g transform="translate(111.332559 203.534543) rotate(-45) scale(0.1 -0.1)">
       <defs>
        <path id="DejaVuSans-37" d="M 525 4666 
L 3525 4666 
L 3525 4397 
L 1831 0 
L 1172 0 
L 2766 4134 
L 525 4134 
L 525 4666 
z
" transform="scale(0.015625)"/>
       </defs>
       <use xlink:href="#DejaVuSans-27"/>
       <use xlink:href="#DejaVuSans-30" x="27.490234"/>
       <use xlink:href="#DejaVuSans-30" x="91.113281"/>
       <use xlink:href="#DejaVuSans-2d" x="154.736328"/>
       <use xlink:href="#DejaVuSans-30" x="190.820312"/>
       <use xlink:href="#DejaVuSans-37" x="254.443359"/>
      </g>
     </g>
    </g>
    <g id="xtick_4">
     <g id="line2d_4">
      <g>
       <use xlink:href="#m796e17db90" x="156.21406" y="168.671221" style="stroke: #000000; stroke-width: 0.8"/>
      </g>
     </g>
     <g id="text_4">
      <!-- '00-10 -->
      <g transform="translate(146.920026 203.534543) rotate(-45) scale(0.1 -0.1)">
       <use xlink:href="#DejaVuSans-27"/>
       <use xlink:href="#DejaVuSans-30" x="27.490234"/>
       <use xlink:href="#DejaVuSans-30" x="91.113281"/>
       <use xlink:href="#DejaVuSans-2d" x="154.736328"/>
       <use xlink:href="#DejaVuSans-31" x="190.820312"/>
       <use xlink:href="#DejaVuSans-30" x="254.443359"/>
      </g>
     </g>
    </g>
    <g id="xtick_5">
     <g id="line2d_5">
      <g>
       <use xlink:href="#m796e17db90" x="191.801527" y="168.671221" style="stroke: #000000; stroke-width: 0.8"/>
      </g>
     </g>
     <g id="text_5">
      <!-- '01-01 -->
      <g transform="translate(182.507493 203.534543) rotate(-45) scale(0.1 -0.1)">
       <use xlink:href="#DejaVuSans-27"/>
       <use xlink:href="#DejaVuSans-30" x="27.490234"/>
       <use xlink:href="#DejaVuSans-31" x="91.113281"/>
       <use xlink:href="#DejaVuSans-2d" x="154.736328"/>
       <use xlink:href="#DejaVuSans-30" x="190.820312"/>
       <use xlink:href="#DejaVuSans-31" x="254.443359"/>
      </g>
     </g>
    </g>
    <g id="xtick_6">
     <g id="line2d_6">
      <g>
       <use xlink:href="#m796e17db90" x="226.615354" y="168.671221" style="stroke: #000000; stroke-width: 0.8"/>
      </g>
     </g>
     <g id="text_6">
      <!-- '01-04 -->
      <g transform="translate(217.321319 203.534543) rotate(-45) scale(0.1 -0.1)">
       <use xlink:href="#DejaVuSans-27"/>
       <use xlink:href="#DejaVuSans-30" x="27.490234"/>
       <use xlink:href="#DejaVuSans-31" x="91.113281"/>
       <use xlink:href="#DejaVuSans-2d" x="154.736328"/>
       <use xlink:href="#DejaVuSans-30" x="190.820312"/>
       <use xlink:href="#DejaVuSans-34" x="254.443359"/>
      </g>
     </g>
    </g>
    <g id="xtick_7">
     <g id="line2d_7">
      <g>
       <use xlink:href="#m796e17db90" x="261.816001" y="168.671221" style="stroke: #000000; stroke-width: 0.8"/>
      </g>
     </g>
     <g id="text_7">
      <!-- '01-07 -->
      <g transform="translate(252.521966 203.534543) rotate(-45) scale(0.1 -0.1)">
       <use xlink:href="#DejaVuSans-27"/>
       <use xlink:href="#DejaVuSans-30" x="27.490234"/>
       <use xlink:href="#DejaVuSans-31" x="91.113281"/>
       <use xlink:href="#DejaVuSans-2d" x="154.736328"/>
       <use xlink:href="#DejaVuSans-30" x="190.820312"/>
       <use xlink:href="#DejaVuSans-37" x="254.443359"/>
      </g>
     </g>
    </g>
    <g id="xtick_8">
     <g id="line2d_8">
      <g>
       <use xlink:href="#m796e17db90" x="297.403467" y="168.671221" style="stroke: #000000; stroke-width: 0.8"/>
      </g>
     </g>
     <g id="text_8">
      <!-- '01-10 -->
      <g transform="translate(288.109433 203.534543) rotate(-45) scale(0.1 -0.1)">
       <use xlink:href="#DejaVuSans-27"/>
       <use xlink:href="#DejaVuSans-30" x="27.490234"/>
       <use xlink:href="#DejaVuSans-31" x="91.113281"/>
       <use xlink:href="#DejaVuSans-2d" x="154.736328"/>
       <use xlink:href="#DejaVuSans-31" x="190.820312"/>
       <use xlink:href="#DejaVuSans-30" x="254.443359"/>
      </g>
     </g>
    </g>
    <g id="xtick_9">
     <g id="line2d_9">
      <g>
       <use xlink:href="#m796e17db90" x="332.990934" y="168.671221" style="stroke: #000000; stroke-width: 0.8"/>
      </g>
     </g>
     <g id="text_9">
      <!-- '02-01 -->
      <g transform="translate(323.6969 203.534543) rotate(-45) scale(0.1 -0.1)">
       <defs>
        <path id="DejaVuSans-32" d="M 1228 531 
L 3431 531 
L 3431 0 
L 469 0 
L 469 531 
Q 828 903 1448 1529 
Q 2069 2156 2228 2338 
Q 2531 2678 2651 2914 
Q 2772 3150 2772 3378 
Q 2772 3750 2511 3984 
Q 2250 4219 1831 4219 
Q 1534 4219 1204 4116 
Q 875 4013 500 3803 
L 500 4441 
Q 881 4594 1212 4672 
Q 1544 4750 1819 4750 
Q 2544 4750 2975 4387 
Q 3406 4025 3406 3419 
Q 3406 3131 3298 2873 
Q 3191 2616 2906 2266 
Q 2828 2175 2409 1742 
Q 1991 1309 1228 531 
z
" transform="scale(0.015625)"/>
       </defs>
       <use xlink:href="#DejaVuSans-27"/>
       <use xlink:href="#DejaVuSans-30" x="27.490234"/>
       <use xlink:href="#DejaVuSans-32" x="91.113281"/>
       <use xlink:href="#DejaVuSans-2d" x="154.736328"/>
       <use xlink:href="#DejaVuSans-30" x="190.820312"/>
       <use xlink:href="#DejaVuSans-31" x="254.443359"/>
      </g>
     </g>
    </g>
   </g>
   <g id="matplotlib.axis_2">
    <g id="ytick_1">
     <g id="line2d_10">
      <defs>
       <path id="m2584f01ddc" d="M 0 0 
L -3.5 0 
" style="stroke: #000000; stroke-width: 0.8"/>
      </defs>
      <g>
       <use xlink:href="#m2584f01ddc" x="36.88" y="163.597461" style="stroke: #000000; stroke-width: 0.8"/>
      </g>
     </g>
     <g id="text_10">
      <!-- 100 -->
      <g transform="translate(10.7925 167.39668) scale(0.1 -0.1)">
       <use xlink:href="#DejaVuSans-31"/>
       <use xlink:href="#DejaVuSans-30" x="63.623047"/>
       <use xlink:href="#DejaVuSans-30" x="127.246094"/>
      </g>
     </g>
    </g>
    <g id="ytick_2">
     <g id="line2d_11">
      <g>
       <use xlink:href="#m2584f01ddc" x="36.88" y="132.431816" style="stroke: #000000; stroke-width: 0.8"/>
      </g>
     </g>
     <g id="text_11">
      <!-- 105 -->
      <g transform="translate(10.7925 136.231035) scale(0.1 -0.1)">
       <defs>
        <path id="DejaVuSans-35" d="M 691 4666 
L 3169 4666 
L 3169 4134 
L 1269 4134 
L 1269 2991 
Q 1406 3038 1543 3061 
Q 1681 3084 1819 3084 
Q 2600 3084 3056 2656 
Q 3513 2228 3513 1497 
Q 3513 744 3044 326 
Q 2575 -91 1722 -91 
Q 1428 -91 1123 -41 
Q 819 9 494 109 
L 494 744 
Q 775 591 1075 516 
Q 1375 441 1709 441 
Q 2250 441 2565 725 
Q 2881 1009 2881 1497 
Q 2881 1984 2565 2268 
Q 2250 2553 1709 2553 
Q 1456 2553 1204 2497 
Q 953 2441 691 2322 
L 691 4666 
z
" transform="scale(0.015625)"/>
       </defs>
       <use xlink:href="#DejaVuSans-31"/>
       <use xlink:href="#DejaVuSans-30" x="63.623047"/>
       <use xlink:href="#DejaVuSans-35" x="127.246094"/>
      </g>
     </g>
    </g>
    <g id="ytick_3">
     <g id="line2d_12">
      <g>
       <use xlink:href="#m2584f01ddc" x="36.88" y="101.266171" style="stroke: #000000; stroke-width: 0.8"/>
      </g>
     </g>
     <g id="text_12">
      <!-- 110 -->
      <g transform="translate(10.7925 105.06539) scale(0.1 -0.1)">
       <use xlink:href="#DejaVuSans-31"/>
       <use xlink:href="#DejaVuSans-31" x="63.623047"/>
       <use xlink:href="#DejaVuSans-30" x="127.246094"/>
      </g>
     </g>
    </g>
    <g id="ytick_4">
     <g id="line2d_13">
      <g>
       <use xlink:href="#m2584f01ddc" x="36.88" y="70.100526" style="stroke: #000000; stroke-width: 0.8"/>
      </g>
     </g>
     <g id="text_13">
      <!-- 115 -->
      <g transform="translate(10.7925 73.899745) scale(0.1 -0.1)">
       <use xlink:href="#DejaVuSans-31"/>
       <use xlink:href="#DejaVuSans-31" x="63.623047"/>
       <use xlink:href="#DejaVuSans-35" x="127.246094"/>
      </g>
     </g>
    </g>
    <g id="ytick_5">
     <g id="line2d_14">
      <g>
       <use xlink:href="#m2584f01ddc" x="36.88" y="38.934881" style="stroke: #000000; stroke-width: 0.8"/>
      </g>
     </g>
     <g id="text_14">
      <!-- 120 -->
      <g transform="translate(10.7925 42.7341) scale(0.1 -0.1)">
       <use xlink:href="#DejaVuSans-31"/>
       <use xlink:href="#DejaVuSans-32" x="63.623047"/>
       <use xlink:href="#DejaVuSans-30" x="127.246094"/>
      </g>
     </g>
    </g>
   </g>
   <g id="line2d_15">
    <path d="M 50.998941 162.226165 
L 51.385761 161.041856 
L 51.772581 161.228889 
L 52.159402 159.545918 
L 52.546222 158.610939 
L 53.706683 157.426677 
L 54.093503 160.106924 
L 54.480323 159.732904 
L 54.867144 157.364332 
L 55.253964 152.876472 
L 56.414425 150.819528 
L 56.801245 152.003838 
L 57.188065 152.627141 
L 57.574886 155.120402 
L 57.961706 152.627141 
L 59.122167 149.884597 
L 59.508987 148.575598 
L 59.895807 148.388611 
L 60.282628 143.838454 
L 60.669448 135.673022 
L 61.829909 131.621527 
L 62.216729 132.930478 
L 62.60355 133.740768 
L 62.99037 139.911552 
L 63.37719 136.857332 
L 64.537651 134.675747 
L 65.311292 140.659545 
L 65.698112 137.854656 
L 66.084932 137.480636 
L 67.245393 134.177085 
L 67.632213 134.364071 
L 68.019034 136.919677 
L 68.405854 136.982021 
L 68.792674 134.738091 
L 69.953135 135.049719 
L 70.339955 143.152806 
L 70.726776 141.594524 
L 71.113596 138.602601 
L 71.500416 130.811189 
L 72.660877 130.748892 
L 73.047697 126.697349 
L 73.434518 133.117464 
L 73.821338 128.380273 
L 74.208158 126.198687 
L 75.368619 125.201364 
L 75.755439 125.637728 
L 76.14226 126.635004 
L 76.52908 130.125541 
L 76.9159 128.0063 
L 78.076361 129.315252 
L 78.463182 130.561859 
L 78.850002 130.063244 
L 79.236822 131.309851 
L 79.623642 131.185209 
L 80.784103 131.496837 
L 81.170924 127.382997 
L 81.557744 125.949356 
L 81.944564 130.998176 
L 82.331384 133.865457 
L 83.491845 129.626927 
L 83.878666 129.128265 
L 84.265486 124.640405 
L 84.652306 129.502238 
L 85.039127 129.689224 
L 86.199587 129.065921 
L 86.586408 131.372196 
L 86.973228 130.624203 
L 87.360048 129.19061 
L 87.746869 126.385674 
L 88.907329 128.193287 
L 89.29415 126.57266 
L 89.68097 126.448018 
L 90.06779 125.326053 
L 90.454611 127.75697 
L 91.615071 125.388398 
L 92.388712 119.155269 
L 92.775532 117.160669 
L 94.322814 118.22029 
L 94.709634 109.431555 
L 95.096454 110.304189 
L 95.483274 103.946419 
L 95.870095 100.393537 
L 97.030556 103.572446 
L 97.417376 99.645544 
L 97.804196 93.412415 
L 98.191016 90.04652 
L 98.577837 93.100787 
L 99.738298 92.228153 
L 100.125118 96.591324 
L 100.511938 96.279649 
L 100.898759 91.791836 
L 101.285579 101.889475 
L 102.44604 97.775634 
L 103.21968 88.17661 
L 103.606501 87.490962 
L 103.993321 92.103464 
L 105.153782 94.65907 
L 105.927422 93.661746 
L 106.314243 96.591324 
L 106.701063 106.751308 
L 108.248344 107.935617 
L 108.635164 109.119927 
L 109.021985 107.187625 
L 109.408805 112.984437 
L 110.569266 117.098325 
L 110.956086 122.521164 
L 111.342906 125.076722 
L 111.729727 121.773171 
L 112.116547 120.027903 
L 113.277008 120.152545 
L 113.663828 123.705426 
L 114.050649 123.331454 
L 114.437469 120.713551 
L 114.824289 126.448018 
L 115.98475 124.141743 
L 116.37157 124.141743 
L 116.758391 117.285311 
L 117.532031 113.670085 
L 118.692492 113.046781 
L 119.079312 117.721628 
L 119.466133 116.22569 
L 119.852953 120.962882 
L 120.239773 120.962882 
L 121.400234 119.591586 
L 121.787054 118.157945 
L 122.173875 119.217566 
L 122.947515 115.914015 
L 124.107976 119.903214 
L 124.494796 119.092924 
L 124.881617 112.984437 
L 125.268437 110.366534 
L 125.655257 110.92754 
L 126.815718 109.369258 
L 127.202538 105.130728 
L 127.589359 103.821777 
L 127.976179 109.930217 
L 128.362999 111.114526 
L 129.52346 109.431555 
L 130.297101 113.046781 
L 131.070741 102.886798 
L 132.231202 103.946419 
L 132.618023 100.954496 
L 133.004843 97.089986 
L 133.391663 95.157684 
L 133.778483 95.968021 
L 134.938944 96.279649 
L 135.325765 93.038443 
L 135.712585 92.29045 
L 136.099405 95.656346 
L 136.486226 93.724091 
L 137.646686 94.53438 
L 138.033507 98.087262 
L 138.420327 99.645544 
L 138.807147 100.580523 
L 139.193968 94.970698 
L 140.354428 92.165809 
L 140.741249 90.108865 
L 141.128069 92.415139 
L 141.514889 93.599402 
L 141.90171 92.851457 
L 143.06217 92.165809 
L 143.448991 87.553306 
L 143.835811 87.927279 
L 144.222631 85.060045 
L 144.609452 92.415139 
L 146.156733 86.244307 
L 146.543553 75.585663 
L 146.930373 78.515241 
L 147.317194 74.214414 
L 148.477655 67.794251 
L 148.864475 69.040906 
L 149.251295 67.981285 
L 149.638115 69.103203 
L 150.024936 64.24137 
L 151.185397 63.867397 
L 151.572217 63.181749 
L 151.959037 61.311791 
L 152.345858 68.417602 
L 152.732678 79.076247 
L 153.893139 75.959683 
L 154.279959 81.569461 
L 154.666779 81.881136 
L 155.0536 80.634529 
L 155.44042 81.008502 
L 156.600881 77.642607 
L 156.987701 74.962359 
L 157.374521 75.274035 
L 157.761342 71.721153 
L 158.148162 71.035505 
L 159.308623 71.284836 
L 159.695443 74.089725 
L 160.082263 73.279435 
L 160.469084 70.786174 
L 160.855904 64.740031 
L 162.016365 61.436481 
L 162.403185 64.553045 
L 162.790005 55.577324 
L 163.176826 58.008241 
L 163.563646 56.636945 
L 164.724107 54.268373 
L 165.110927 55.016365 
L 165.497748 48.346919 
L 165.884568 48.284575 
L 166.271388 55.203352 
L 167.431849 56.075986 
L 167.818669 59.815854 
L 168.20549 66.609989 
L 168.59231 66.298314 
L 168.97913 70.287512 
L 170.139591 65.799652 
L 170.526411 66.85932 
L 170.913232 62.433757 
L 171.300052 67.981285 
L 171.686872 65.176349 
L 172.847333 65.737355 
L 173.234153 62.496101 
L 173.620974 61.685812 
L 174.007794 58.070585 
L 174.394614 55.702013 
L 175.555075 55.452683 
L 175.941895 51.712815 
L 176.328716 52.336118 
L 176.715536 50.84018 
L 177.102356 48.409216 
L 178.649637 60.252171 
L 179.036458 60.065185 
L 179.423278 68.604589 
L 179.810098 71.78345 
L 180.970559 78.141268 
L 181.35738 73.404077 
L 181.7442 80.634529 
L 182.13102 79.200889 
L 182.51784 76.02198 
L 183.678301 74.526042 
L 184.065122 74.713028 
L 184.451942 71.908139 
L 184.838762 80.198212 
L 185.225582 83.190088 
L 186.386043 82.130467 
L 186.772864 81.257833 
L 187.159684 88.986899 
L 187.546504 91.854133 
L 187.933325 96.155007 
L 189.480606 99.333916 
L 189.867426 99.271572 
L 190.254246 98.897599 
L 190.641067 104.008763 
L 192.188348 108.932941 
L 192.575168 100.206551 
L 192.961988 108.68361 
L 193.348809 111.114526 
L 194.509269 108.371934 
L 194.89609 104.258094 
L 195.28291 102.138805 
L 195.66973 107.436956 
L 196.056551 105.25537 
L 197.217012 101.453157 
L 197.603832 100.580523 
L 197.990652 96.217352 
L 198.377472 101.640144 
L 198.764293 97.152283 
L 199.924754 99.770234 
L 200.311574 99.770234 
L 200.698394 90.794513 
L 201.085214 91.23083 
L 201.472035 92.165809 
L 202.632496 90.233554 
L 203.019316 95.157684 
L 203.406136 98.024965 
L 203.792957 103.385412 
L 204.179777 99.271572 
L 205.340238 101.951819 
L 205.727058 96.466683 
L 206.113878 95.71869 
L 206.500699 88.425941 
L 206.887519 91.791836 
L 208.04798 93.848732 
L 208.4348 89.049244 
L 208.82162 88.550582 
L 209.208441 81.320177 
L 209.595261 87.179286 
L 210.755722 89.298575 
L 211.142542 83.688749 
L 211.916183 80.447543 
L 212.303003 88.612927 
L 213.463464 84.000425 
L 214.237104 88.737569 
L 214.623925 93.287774 
L 215.010745 93.973422 
L 216.171206 91.667147 
L 216.558026 93.786435 
L 216.944847 89.859534 
L 217.331667 91.978822 
L 217.718487 92.29045 
L 218.878948 88.737569 
L 219.265768 81.881136 
L 219.652589 78.203613 
L 220.039409 71.908139 
L 220.426229 68.105927 
L 221.58669 68.853919 
L 221.97351 75.648007 
L 222.360331 66.796975 
L 222.747151 61.997439 
L 223.133971 64.24137 
L 224.294432 68.791575 
L 224.681252 67.420279 
L 225.454893 60.127529 
L 225.841713 55.327993 
L 227.002174 55.515027 
L 227.388994 66.173672 
L 227.775815 69.601864 
L 228.162635 67.170948 
L 228.549455 71.658808 
L 229.709916 68.791575 
L 230.096736 63.742755 
L 230.483557 63.057108 
L 230.870377 66.734631 
L 232.417658 62.745432 
L 232.804479 61.000164 
L 233.191299 63.057108 
L 233.578119 69.975885 
L 233.964939 74.339056 
L 235.1254 71.534167 
L 235.512221 68.853919 
L 235.899041 70.225168 
L 236.285861 73.466422 
L 236.672681 66.235969 
L 237.833142 64.802376 
L 238.219963 68.230568 
L 238.606783 69.103203 
L 238.993603 67.731954 
L 239.380424 70.536843 
L 240.540884 68.105927 
L 240.927705 63.368735 
L 241.314525 63.555722 
L 241.701345 61.561122 
L 242.088166 58.631592 
L 243.248626 56.761634 
L 243.635447 58.94322 
L 244.022267 62.994763 
L 244.409087 63.119405 
L 244.795908 61.311791 
L 245.956368 60.626191 
L 246.343189 53.333394 
L 246.730009 49.593526 
L 247.116829 49.157209 
L 247.50365 50.279174 
L 249.437751 50.029843 
L 249.824571 44.731693 
L 250.211392 45.853658 
L 251.371853 43.9837 
L 251.758673 47.037968 
L 252.145493 42.92408 
L 252.532313 44.607051 
L 252.919134 43.859059 
L 254.079595 38.623206 
L 254.466415 41.365798 
L 254.853235 44.981024 
L 255.240056 51.463484 
L 255.626876 49.593526 
L 256.787337 49.157209 
L 257.174157 44.918679 
L 257.560977 44.35772 
L 257.947798 45.853658 
L 258.334618 45.728969 
L 259.881899 50.964822 
L 260.268719 49.032567 
L 260.65554 38.872537 
L 261.04236 42.487763 
L 262.202821 40.991825 
L 262.589641 41.428142 
L 262.976461 39.49584 
L 263.363282 33.325055 
L 263.750102 39.558185 
L 264.910563 39.620529 
L 265.297383 44.35772 
L 265.684203 47.41194 
L 266.071024 44.607051 
L 266.457844 43.111066 
L 267.618305 43.298052 
L 268.005125 45.791314 
L 268.391946 55.265696 
L 268.778766 55.577324 
L 269.165586 56.325317 
L 270.326047 52.336118 
L 270.712867 56.886276 
L 271.099688 59.878198 
L 271.486508 59.254895 
L 271.873328 58.008241 
L 273.033789 56.387661 
L 273.420609 56.512303 
L 273.80743 60.37686 
L 274.19425 62.122129 
L 274.58107 62.994763 
L 275.741531 61.249494 
L 276.128351 58.693889 
L 276.515172 60.501502 
L 276.901992 68.542244 
L 277.288812 68.292913 
L 278.449273 70.038182 
L 278.836093 73.902739 
L 279.222914 81.382474 
L 279.996554 82.629129 
L 281.157015 80.073523 
L 281.543835 80.759171 
L 281.930656 80.88386 
L 282.317476 82.005825 
L 282.704296 80.50984 
L 283.864757 80.135868 
L 284.251578 79.886537 
L 284.638398 79.200889 
L 285.025218 83.564108 
L 285.412038 79.948881 
L 286.572499 78.390599 
L 286.95932 65.861997 
L 287.34614 66.360658 
L 287.73296 70.287512 
L 288.11978 76.02198 
L 289.280241 72.780774 
L 291.987983 88.737569 
L 292.374804 89.298575 
L 292.761624 91.23083 
L 293.148444 89.610203 
L 293.535265 82.317453 
L 294.695725 83.564108 
L 295.082546 87.054645 
L 295.469366 86.9923 
L 296.243007 79.574861 
L 297.403467 82.566784 
L 297.790288 82.50444 
L 298.177108 80.073523 
L 298.950749 83.127743 
L 300.11121 85.12239 
L 300.49803 80.385199 
L 300.88485 78.203613 
L 301.27167 73.591063 
L 301.658491 77.019303 
L 302.818952 77.45562 
L 303.205772 76.832317 
L 303.592592 73.965083 
L 303.979412 74.15207 
L 304.366233 70.97316 
L 305.526694 65.425679 
L 305.913514 64.802376 
L 306.300334 66.360658 
L 306.687155 66.672286 
L 307.073975 66.048983 
L 308.234436 73.591063 
L 308.621256 74.15207 
L 309.008076 70.97316 
L 309.394897 73.466422 
L 309.781717 72.96776 
L 310.942178 72.96776 
L 311.328998 71.284836 
L 312.102639 69.290237 
L 312.489459 69.539567 
L 313.64992 67.981285 
L 314.03674 61.374136 
L 314.42356 62.62079 
L 314.810381 60.688488 
L 315.197201 61.311791 
L 316.357662 58.070585 
L 316.744482 60.00284 
L 317.131302 56.699289 
L 317.518123 55.76431 
L 317.904943 55.577324 
L 319.065404 56.94862 
L 319.452224 58.319916 
L 319.839045 62.807777 
L 320.225865 63.057108 
L 320.612685 63.057108 
L 321.773146 64.116728 
L 322.159966 63.368735 
L 322.546787 61.311791 
L 322.933607 66.173672 
L 323.320427 62.932418 
L 324.480888 62.24677 
L 324.867708 63.555722 
L 325.254529 68.043582 
L 325.641349 65.114004 
L 326.028169 70.536843 
L 327.18863 70.536843 
L 327.57545 69.165547 
L 327.962271 67.108603 
L 328.349091 66.423003 
L 328.735911 57.75891 
L 329.896372 51.775112 
L 330.670013 52.336118 
L 331.443653 56.013641 
L 332.604114 59.19255 
L 333.377755 65.176349 
L 333.377755 65.176349 
" clip-path="url(#p1b53d6ac05)" style="fill: none; stroke: #d3d3d3; stroke-linecap: square"/>
   </g>
   <g id="line2d_16">
    <path d="M 50.998941 162.226165 
L 51.385761 161.041856 
L 51.772581 161.228889 
L 52.159402 159.545918 
L 52.546222 158.610939 
L 53.706683 157.426677 
L 54.093503 160.106924 
L 54.480323 159.732904 
L 54.867144 157.364332 
L 55.253964 152.876472 
L 56.414425 150.819528 
L 56.801245 152.003838 
L 57.188065 152.627141 
L 57.574886 155.120402 
L 57.961706 152.627141 
L 59.122167 149.884597 
L 59.508987 148.575598 
L 59.895807 148.388611 
L 60.282628 143.838454 
L 60.669448 135.673022 
L 61.829909 131.621527 
L 62.216729 132.930478 
L 62.60355 133.740768 
L 62.99037 139.911552 
L 63.37719 136.857332 
L 64.537651 134.675747 
L 65.311292 140.659545 
L 65.698112 137.854656 
L 66.084932 137.480636 
L 67.245393 134.177085 
L 67.632213 134.364071 
L 68.019034 136.919677 
L 68.405854 136.982021 
L 68.792674 134.738091 
L 69.953135 135.049719 
L 70.339955 143.152806 
L 70.726776 141.594524 
L 71.113596 138.602601 
L 71.500416 130.811189 
L 72.660877 130.748892 
L 73.047697 126.697349 
L 73.434518 133.117464 
L 73.821338 128.380273 
L 74.208158 126.198687 
L 75.368619 125.201364 
L 75.755439 125.637728 
L 76.14226 126.635004 
L 76.52908 130.125541 
L 76.9159 128.0063 
L 78.076361 129.315252 
L 78.463182 130.561859 
L 78.850002 130.063244 
L 79.236822 131.309851 
L 79.623642 131.185209 
L 80.784103 131.496837 
L 81.170924 127.382997 
L 81.557744 125.949356 
L 81.944564 130.998176 
L 82.331384 133.865457 
L 83.491845 129.626927 
L 83.878666 129.128265 
L 84.265486 124.640405 
L 84.652306 129.502238 
L 85.039127 129.689224 
L 86.199587 129.065921 
L 86.586408 131.372196 
L 86.973228 130.624203 
L 87.360048 129.19061 
L 87.746869 126.385674 
L 88.907329 128.193287 
L 89.29415 126.57266 
L 89.68097 126.448018 
L 90.06779 125.326053 
L 90.454611 127.75697 
L 91.615071 125.388398 
L 92.388712 119.155269 
L 92.775532 117.160669 
L 94.322814 118.22029 
L 94.709634 109.431555 
L 95.096454 110.304189 
L 95.483274 103.946419 
L 95.870095 100.393537 
L 97.030556 103.572446 
L 97.417376 99.645544 
L 97.804196 93.412415 
L 98.191016 90.04652 
L 98.577837 93.100787 
L 99.738298 92.228153 
L 100.125118 96.591324 
L 100.511938 96.279649 
L 100.898759 91.791836 
L 101.285579 101.889475 
L 102.44604 97.775634 
L 103.21968 88.17661 
L 103.606501 87.490962 
L 103.993321 92.103464 
L 105.153782 94.65907 
L 105.927422 93.661746 
L 106.314243 96.591324 
L 106.701063 106.751308 
L 108.248344 107.935617 
L 108.635164 109.119927 
L 109.021985 107.187625 
L 109.408805 112.984437 
L 110.569266 117.098325 
L 110.956086 122.521164 
L 111.342906 125.076722 
L 111.729727 121.773171 
L 112.116547 120.027903 
L 113.277008 120.152545 
L 113.663828 123.705426 
L 114.050649 123.331454 
L 114.437469 120.713551 
L 114.824289 126.448018 
L 115.98475 124.141743 
L 116.37157 124.141743 
L 116.758391 117.285311 
L 117.532031 113.670085 
L 118.692492 113.046781 
L 119.079312 117.721628 
L 119.466133 116.22569 
L 119.852953 120.962882 
L 120.239773 120.962882 
L 121.400234 119.591586 
L 121.787054 118.157945 
L 122.173875 119.217566 
L 122.947515 115.914015 
L 124.107976 119.903214 
L 124.494796 119.092924 
L 124.881617 112.984437 
L 125.268437 110.366534 
L 125.655257 110.92754 
L 126.815718 109.369258 
L 127.202538 105.130728 
L 127.589359 103.821777 
L 127.976179 109.930217 
L 128.362999 111.114526 
L 129.52346 109.431555 
L 130.297101 113.046781 
L 131.070741 102.886798 
L 132.231202 103.946419 
L 132.618023 100.954496 
L 133.004843 97.089986 
L 133.391663 95.157684 
L 133.778483 95.968021 
L 134.938944 96.279649 
L 135.325765 93.038443 
L 135.712585 92.29045 
L 136.099405 95.656346 
L 136.486226 93.724091 
L 137.646686 94.53438 
L 138.033507 98.087262 
L 138.420327 99.645544 
L 138.807147 100.580523 
L 139.193968 94.970698 
L 140.354428 92.165809 
L 140.741249 90.108865 
L 141.128069 92.415139 
L 141.514889 93.599402 
L 141.90171 92.851457 
L 143.06217 92.165809 
L 143.448991 87.553306 
L 143.835811 87.927279 
L 144.222631 85.060045 
L 144.609452 92.415139 
L 146.156733 86.244307 
L 146.543553 75.585663 
L 146.930373 78.515241 
L 147.317194 74.214414 
L 148.477655 67.794251 
L 148.864475 69.040906 
L 149.251295 67.981285 
L 149.638115 69.103203 
L 150.024936 64.24137 
L 151.185397 63.867397 
L 151.572217 63.181749 
L 151.959037 61.311791 
L 152.345858 68.417602 
L 152.732678 79.076247 
L 153.893139 75.959683 
L 154.279959 81.569461 
L 154.666779 81.881136 
L 155.0536 80.634529 
L 155.44042 81.008502 
L 156.600881 77.642607 
L 156.987701 74.962359 
L 157.374521 75.274035 
L 157.761342 71.721153 
L 158.148162 71.035505 
L 159.308623 71.284836 
L 159.695443 74.089725 
L 160.082263 73.279435 
L 160.469084 70.786174 
L 160.855904 64.740031 
L 162.016365 61.436481 
L 162.403185 64.553045 
L 162.790005 55.577324 
L 163.176826 58.008241 
L 163.563646 56.636945 
L 164.724107 54.268373 
L 165.110927 55.016365 
L 165.497748 48.346919 
L 165.884568 48.284575 
L 166.271388 55.203352 
L 167.431849 56.075986 
L 167.818669 59.815854 
L 168.20549 66.609989 
L 168.59231 66.298314 
L 168.97913 70.287512 
L 170.139591 65.799652 
L 170.526411 66.85932 
L 170.913232 62.433757 
L 171.300052 67.981285 
L 171.686872 65.176349 
L 172.847333 65.737355 
L 173.234153 62.496101 
L 173.620974 61.685812 
L 174.007794 58.070585 
L 174.394614 55.702013 
L 175.555075 55.452683 
L 175.941895 51.712815 
L 176.328716 52.336118 
L 176.715536 50.84018 
L 177.102356 48.409216 
L 178.649637 60.252171 
L 179.036458 60.065185 
L 179.423278 68.604589 
L 179.810098 71.78345 
L 180.970559 78.141268 
L 181.35738 73.404077 
L 181.7442 80.634529 
L 182.13102 79.200889 
L 182.51784 76.02198 
L 183.678301 74.526042 
L 184.065122 74.713028 
L 184.451942 71.908139 
L 184.838762 80.198212 
L 185.225582 83.190088 
L 186.386043 82.130467 
L 186.772864 81.257833 
L 187.159684 88.986899 
L 187.546504 91.854133 
L 187.933325 96.155007 
L 189.480606 99.333916 
L 189.867426 99.271572 
L 190.254246 98.897599 
L 190.641067 104.008763 
L 192.188348 108.932941 
L 192.188348 108.932941 
" clip-path="url(#p1b53d6ac05)" style="fill: none; stroke: #000000; stroke-linecap: square"/>
   </g>
   <g id="patch_3">
    <path d="M 36.88 168.671221 
L 36.88 26.88 
" style="fill: none; stroke: #000000; stroke-width: 0.8; stroke-linejoin: miter; stroke-linecap: square"/>
   </g>
   <g id="patch_4">
    <path d="M 347.496695 168.671221 
L 347.496695 26.88 
" style="fill: none; stroke: #000000; stroke-width: 0.8; stroke-linejoin: miter; stroke-linecap: square"/>
   </g>
   <g id="patch_5">
    <path d="M 36.88 168.671221 
L 347.496695 168.671221 
" style="fill: none; stroke: #000000; stroke-width: 0.8; stroke-linejoin: miter; stroke-linecap: square"/>
   </g>
   <g id="patch_6">
    <path d="M 36.88 26.88 
L 347.496695 26.88 
" style="fill: none; stroke: #000000; stroke-width: 0.8; stroke-linejoin: miter; stroke-linecap: square"/>
   </g>
   <g id="text_15">
    <!-- DXY -->
    <g transform="translate(179.79366 20.88) scale(0.12 -0.12)">
     <defs>
      <path id="DejaVuSans-44" d="M 1259 4147 
L 1259 519 
L 2022 519 
Q 2988 519 3436 956 
Q 3884 1394 3884 2338 
Q 3884 3275 3436 3711 
Q 2988 4147 2022 4147 
L 1259 4147 
z
M 628 4666 
L 1925 4666 
Q 3281 4666 3915 4102 
Q 4550 3538 4550 2338 
Q 4550 1131 3912 565 
Q 3275 0 1925 0 
L 628 0 
L 628 4666 
z
" transform="scale(0.015625)"/>
      <path id="DejaVuSans-58" d="M 403 4666 
L 1081 4666 
L 2241 2931 
L 3406 4666 
L 4084 4666 
L 2584 2425 
L 4184 0 
L 3506 0 
L 2194 1984 
L 872 0 
L 191 0 
L 1856 2491 
L 403 4666 
z
" transform="scale(0.015625)"/>
      <path id="DejaVuSans-59" d="M -13 4666 
L 666 4666 
L 1959 2747 
L 3244 4666 
L 3922 4666 
L 2272 2222 
L 2272 0 
L 1638 0 
L 1638 2222 
L -13 4666 
z
" transform="scale(0.015625)"/>
     </defs>
     <use xlink:href="#DejaVuSans-44"/>
     <use xlink:href="#DejaVuSans-58" x="77.001953"/>
     <use xlink:href="#DejaVuSans-59" x="145.507812"/>
    </g>
   </g>
  </g>
 </g>
 <defs>
  <clipPath id="p1b53d6ac05">
   <rect x="36.88" y="26.88" width="310.616695" height="141.791221"/>
  </clipPath>
 </defs>
</svg>
