<?xml version="1.0" encoding="utf-8" standalone="no"?>
<!DOCTYPE svg PUBLIC "-//W3C//DTD SVG 1.1//EN"
  "http://www.w3.org/Graphics/SVG/1.1/DTD/svg11.dtd">
<svg xmlns:xlink="http://www.w3.org/1999/xlink" width="360pt" height="216pt" viewBox="0 0 360 216" xmlns="http://www.w3.org/2000/svg" version="1.1">
 <metadata>
  <rdf:RDF xmlns:dc="http://purl.org/dc/elements/1.1/" xmlns:cc="http://creativecommons.org/ns#" xmlns:rdf="http://www.w3.org/1999/02/22-rdf-syntax-ns#">
   <cc:Work>
    <dc:type rdf:resource="http://purl.org/dc/dcmitype/StillImage"/>
    <dc:date>2023-01-10T15:58:11.899054</dc:date>
    <dc:format>image/svg+xml</dc:format>
    <dc:creator>
     <cc:Agent>
      <dc:title>Matplotlib v3.6.1, https://matplotlib.org/</dc:title>
     </cc:Agent>
    </dc:creator>
   </cc:Work>
  </rdf:RDF>
 </metadata>
 <defs>
  <style type="text/css">*{stroke-linejoin: round; stroke-linecap: butt}</style>
 </defs>
 <g id="figure_1">
  <g id="patch_1">
   <path d="M 0 216 
L 360 216 
L 360 0 
L 0 0 
z
" style="fill: #ffffff"/>
  </g>
  <g id="axes_1">
   <g id="patch_2">
    <path d="M 36.88 168.607581 
L 349.2 168.607581 
L 349.2 26.88 
L 36.88 26.88 
z
" style="fill: #ffffff"/>
   </g>
   <g id="matplotlib.axis_1">
    <g id="xtick_1">
     <g id="line2d_1">
      <defs>
       <path id="m2954e85deb" d="M 0 0 
L 0 3.5 
" style="stroke: #000000; stroke-width: 0.8"/>
      </defs>
      <g>
       <use xlink:href="#m2954e85deb" x="39.019178" y="168.607581" style="stroke: #000000; stroke-width: 0.8"/>
      </g>
     </g>
     <g id="text_1">
      <!-- '99-10 -->
      <g transform="translate(29.725143 203.470903) rotate(-45) scale(0.1 -0.1)">
       <defs>
        <path id="DejaVuSans-27" d="M 1147 4666 
L 1147 2931 
L 616 2931 
L 616 4666 
L 1147 4666 
z
" transform="scale(0.015625)"/>
        <path id="DejaVuSans-39" d="M 703 97 
L 703 672 
Q 941 559 1184 500 
Q 1428 441 1663 441 
Q 2288 441 2617 861 
Q 2947 1281 2994 2138 
Q 2813 1869 2534 1725 
Q 2256 1581 1919 1581 
Q 1219 1581 811 2004 
Q 403 2428 403 3163 
Q 403 3881 828 4315 
Q 1253 4750 1959 4750 
Q 2769 4750 3195 4129 
Q 3622 3509 3622 2328 
Q 3622 1225 3098 567 
Q 2575 -91 1691 -91 
Q 1453 -91 1209 -44 
Q 966 3 703 97 
z
M 1959 2075 
Q 2384 2075 2632 2365 
Q 2881 2656 2881 3163 
Q 2881 3666 2632 3958 
Q 2384 4250 1959 4250 
Q 1534 4250 1286 3958 
Q 1038 3666 1038 3163 
Q 1038 2656 1286 2365 
Q 1534 2075 1959 2075 
z
" transform="scale(0.015625)"/>
        <path id="DejaVuSans-2d" d="M 313 2009 
L 1997 2009 
L 1997 1497 
L 313 1497 
L 313 2009 
z
" transform="scale(0.015625)"/>
        <path id="DejaVuSans-31" d="M 794 531 
L 1825 531 
L 1825 4091 
L 703 3866 
L 703 4441 
L 1819 4666 
L 2450 4666 
L 2450 531 
L 3481 531 
L 3481 0 
L 794 0 
L 794 531 
z
" transform="scale(0.015625)"/>
        <path id="DejaVuSans-30" d="M 2034 4250 
Q 1547 4250 1301 3770 
Q 1056 3291 1056 2328 
Q 1056 1369 1301 889 
Q 1547 409 2034 409 
Q 2525 409 2770 889 
Q 3016 1369 3016 2328 
Q 3016 3291 2770 3770 
Q 2525 4250 2034 4250 
z
M 2034 4750 
Q 2819 4750 3233 4129 
Q 3647 3509 3647 2328 
Q 3647 1150 3233 529 
Q 2819 -91 2034 -91 
Q 1250 -91 836 529 
Q 422 1150 422 2328 
Q 422 3509 836 4129 
Q 1250 4750 2034 4750 
z
" transform="scale(0.015625)"/>
       </defs>
       <use xlink:href="#DejaVuSans-27"/>
       <use xlink:href="#DejaVuSans-39" x="27.490234"/>
       <use xlink:href="#DejaVuSans-39" x="91.113281"/>
       <use xlink:href="#DejaVuSans-2d" x="154.736328"/>
       <use xlink:href="#DejaVuSans-31" x="190.820312"/>
       <use xlink:href="#DejaVuSans-30" x="254.443359"/>
      </g>
     </g>
    </g>
    <g id="xtick_2">
     <g id="line2d_2">
      <g>
       <use xlink:href="#m2954e85deb" x="74.801793" y="168.607581" style="stroke: #000000; stroke-width: 0.8"/>
      </g>
     </g>
     <g id="text_2">
      <!-- '00-01 -->
      <g transform="translate(65.507759 203.470903) rotate(-45) scale(0.1 -0.1)">
       <use xlink:href="#DejaVuSans-27"/>
       <use xlink:href="#DejaVuSans-30" x="27.490234"/>
       <use xlink:href="#DejaVuSans-30" x="91.113281"/>
       <use xlink:href="#DejaVuSans-2d" x="154.736328"/>
       <use xlink:href="#DejaVuSans-30" x="190.820312"/>
       <use xlink:href="#DejaVuSans-31" x="254.443359"/>
      </g>
     </g>
    </g>
    <g id="xtick_3">
     <g id="line2d_3">
      <g>
       <use xlink:href="#m2954e85deb" x="110.195467" y="168.607581" style="stroke: #000000; stroke-width: 0.8"/>
      </g>
     </g>
     <g id="text_3">
      <!-- '00-04 -->
      <g transform="translate(100.901432 203.470903) rotate(-45) scale(0.1 -0.1)">
       <defs>
        <path id="DejaVuSans-34" d="M 2419 4116 
L 825 1625 
L 2419 1625 
L 2419 4116 
z
M 2253 4666 
L 3047 4666 
L 3047 1625 
L 3713 1625 
L 3713 1100 
L 3047 1100 
L 3047 0 
L 2419 0 
L 2419 1100 
L 313 1100 
L 313 1709 
L 2253 4666 
z
" transform="scale(0.015625)"/>
       </defs>
       <use xlink:href="#DejaVuSans-27"/>
       <use xlink:href="#DejaVuSans-30" x="27.490234"/>
       <use xlink:href="#DejaVuSans-30" x="91.113281"/>
       <use xlink:href="#DejaVuSans-2d" x="154.736328"/>
       <use xlink:href="#DejaVuSans-30" x="190.820312"/>
       <use xlink:href="#DejaVuSans-34" x="254.443359"/>
      </g>
     </g>
    </g>
    <g id="xtick_4">
     <g id="line2d_4">
      <g>
       <use xlink:href="#m2954e85deb" x="145.589141" y="168.607581" style="stroke: #000000; stroke-width: 0.8"/>
      </g>
     </g>
     <g id="text_4">
      <!-- '00-07 -->
      <g transform="translate(136.295106 203.470903) rotate(-45) scale(0.1 -0.1)">
       <defs>
        <path id="DejaVuSans-37" d="M 525 4666 
L 3525 4666 
L 3525 4397 
L 1831 0 
L 1172 0 
L 2766 4134 
L 525 4134 
L 525 4666 
z
" transform="scale(0.015625)"/>
       </defs>
       <use xlink:href="#DejaVuSans-27"/>
       <use xlink:href="#DejaVuSans-30" x="27.490234"/>
       <use xlink:href="#DejaVuSans-30" x="91.113281"/>
       <use xlink:href="#DejaVuSans-2d" x="154.736328"/>
       <use xlink:href="#DejaVuSans-30" x="190.820312"/>
       <use xlink:href="#DejaVuSans-37" x="254.443359"/>
      </g>
     </g>
    </g>
    <g id="xtick_5">
     <g id="line2d_5">
      <g>
       <use xlink:href="#m2954e85deb" x="181.371756" y="168.607581" style="stroke: #000000; stroke-width: 0.8"/>
      </g>
     </g>
     <g id="text_5">
      <!-- '00-10 -->
      <g transform="translate(172.077721 203.470903) rotate(-45) scale(0.1 -0.1)">
       <use xlink:href="#DejaVuSans-27"/>
       <use xlink:href="#DejaVuSans-30" x="27.490234"/>
       <use xlink:href="#DejaVuSans-30" x="91.113281"/>
       <use xlink:href="#DejaVuSans-2d" x="154.736328"/>
       <use xlink:href="#DejaVuSans-31" x="190.820312"/>
       <use xlink:href="#DejaVuSans-30" x="254.443359"/>
      </g>
     </g>
    </g>
    <g id="xtick_6">
     <g id="line2d_6">
      <g>
       <use xlink:href="#m2954e85deb" x="217.154371" y="168.607581" style="stroke: #000000; stroke-width: 0.8"/>
      </g>
     </g>
     <g id="text_6">
      <!-- '01-01 -->
      <g transform="translate(207.860336 203.470903) rotate(-45) scale(0.1 -0.1)">
       <use xlink:href="#DejaVuSans-27"/>
       <use xlink:href="#DejaVuSans-30" x="27.490234"/>
       <use xlink:href="#DejaVuSans-31" x="91.113281"/>
       <use xlink:href="#DejaVuSans-2d" x="154.736328"/>
       <use xlink:href="#DejaVuSans-30" x="190.820312"/>
       <use xlink:href="#DejaVuSans-31" x="254.443359"/>
      </g>
     </g>
    </g>
    <g id="xtick_7">
     <g id="line2d_7">
      <g>
       <use xlink:href="#m2954e85deb" x="252.159103" y="168.607581" style="stroke: #000000; stroke-width: 0.8"/>
      </g>
     </g>
     <g id="text_7">
      <!-- '01-04 -->
      <g transform="translate(242.865069 203.470903) rotate(-45) scale(0.1 -0.1)">
       <use xlink:href="#DejaVuSans-27"/>
       <use xlink:href="#DejaVuSans-30" x="27.490234"/>
       <use xlink:href="#DejaVuSans-31" x="91.113281"/>
       <use xlink:href="#DejaVuSans-2d" x="154.736328"/>
       <use xlink:href="#DejaVuSans-30" x="190.820312"/>
       <use xlink:href="#DejaVuSans-34" x="254.443359"/>
      </g>
     </g>
    </g>
    <g id="xtick_8">
     <g id="line2d_8">
      <g>
       <use xlink:href="#m2954e85deb" x="287.552777" y="168.607581" style="stroke: #000000; stroke-width: 0.8"/>
      </g>
     </g>
     <g id="text_8">
      <!-- '01-07 -->
      <g transform="translate(278.258742 203.470903) rotate(-45) scale(0.1 -0.1)">
       <use xlink:href="#DejaVuSans-27"/>
       <use xlink:href="#DejaVuSans-30" x="27.490234"/>
       <use xlink:href="#DejaVuSans-31" x="91.113281"/>
       <use xlink:href="#DejaVuSans-2d" x="154.736328"/>
       <use xlink:href="#DejaVuSans-30" x="190.820312"/>
       <use xlink:href="#DejaVuSans-37" x="254.443359"/>
      </g>
     </g>
    </g>
    <g id="xtick_9">
     <g id="line2d_9">
      <g>
       <use xlink:href="#m2954e85deb" x="323.335392" y="168.607581" style="stroke: #000000; stroke-width: 0.8"/>
      </g>
     </g>
     <g id="text_9">
      <!-- '01-10 -->
      <g transform="translate(314.041358 203.470903) rotate(-45) scale(0.1 -0.1)">
       <use xlink:href="#DejaVuSans-27"/>
       <use xlink:href="#DejaVuSans-30" x="27.490234"/>
       <use xlink:href="#DejaVuSans-31" x="91.113281"/>
       <use xlink:href="#DejaVuSans-2d" x="154.736328"/>
       <use xlink:href="#DejaVuSans-31" x="190.820312"/>
       <use xlink:href="#DejaVuSans-30" x="254.443359"/>
      </g>
     </g>
    </g>
   </g>
   <g id="matplotlib.axis_2">
    <g id="ytick_1">
     <g id="line2d_10">
      <defs>
       <path id="mc304ad4031" d="M 0 0 
L -3.5 0 
" style="stroke: #000000; stroke-width: 0.8"/>
      </defs>
      <g>
       <use xlink:href="#mc304ad4031" x="36.88" y="157.301172" style="stroke: #000000; stroke-width: 0.8"/>
      </g>
     </g>
     <g id="text_10">
      <!-- 100 -->
      <g transform="translate(10.7925 161.100391) scale(0.1 -0.1)">
       <use xlink:href="#DejaVuSans-31"/>
       <use xlink:href="#DejaVuSans-30" x="63.623047"/>
       <use xlink:href="#DejaVuSans-30" x="127.246094"/>
      </g>
     </g>
    </g>
    <g id="ytick_2">
     <g id="line2d_11">
      <g>
       <use xlink:href="#mc304ad4031" x="36.88" y="127.641124" style="stroke: #000000; stroke-width: 0.8"/>
      </g>
     </g>
     <g id="text_11">
      <!-- 105 -->
      <g transform="translate(10.7925 131.440343) scale(0.1 -0.1)">
       <defs>
        <path id="DejaVuSans-35" d="M 691 4666 
L 3169 4666 
L 3169 4134 
L 1269 4134 
L 1269 2991 
Q 1406 3038 1543 3061 
Q 1681 3084 1819 3084 
Q 2600 3084 3056 2656 
Q 3513 2228 3513 1497 
Q 3513 744 3044 326 
Q 2575 -91 1722 -91 
Q 1428 -91 1123 -41 
Q 819 9 494 109 
L 494 744 
Q 775 591 1075 516 
Q 1375 441 1709 441 
Q 2250 441 2565 725 
Q 2881 1009 2881 1497 
Q 2881 1984 2565 2268 
Q 2250 2553 1709 2553 
Q 1456 2553 1204 2497 
Q 953 2441 691 2322 
L 691 4666 
z
" transform="scale(0.015625)"/>
       </defs>
       <use xlink:href="#DejaVuSans-31"/>
       <use xlink:href="#DejaVuSans-30" x="63.623047"/>
       <use xlink:href="#DejaVuSans-35" x="127.246094"/>
      </g>
     </g>
    </g>
    <g id="ytick_3">
     <g id="line2d_12">
      <g>
       <use xlink:href="#mc304ad4031" x="36.88" y="97.981076" style="stroke: #000000; stroke-width: 0.8"/>
      </g>
     </g>
     <g id="text_12">
      <!-- 110 -->
      <g transform="translate(10.7925 101.780295) scale(0.1 -0.1)">
       <use xlink:href="#DejaVuSans-31"/>
       <use xlink:href="#DejaVuSans-31" x="63.623047"/>
       <use xlink:href="#DejaVuSans-30" x="127.246094"/>
      </g>
     </g>
    </g>
    <g id="ytick_4">
     <g id="line2d_13">
      <g>
       <use xlink:href="#mc304ad4031" x="36.88" y="68.321028" style="stroke: #000000; stroke-width: 0.8"/>
      </g>
     </g>
     <g id="text_13">
      <!-- 115 -->
      <g transform="translate(10.7925 72.120247) scale(0.1 -0.1)">
       <use xlink:href="#DejaVuSans-31"/>
       <use xlink:href="#DejaVuSans-31" x="63.623047"/>
       <use xlink:href="#DejaVuSans-35" x="127.246094"/>
      </g>
     </g>
    </g>
    <g id="ytick_5">
     <g id="line2d_14">
      <g>
       <use xlink:href="#mc304ad4031" x="36.88" y="38.66098" style="stroke: #000000; stroke-width: 0.8"/>
      </g>
     </g>
     <g id="text_14">
      <!-- 120 -->
      <g transform="translate(10.7925 42.460199) scale(0.1 -0.1)">
       <defs>
        <path id="DejaVuSans-32" d="M 1228 531 
L 3431 531 
L 3431 0 
L 469 0 
L 469 531 
Q 828 903 1448 1529 
Q 2069 2156 2228 2338 
Q 2531 2678 2651 2914 
Q 2772 3150 2772 3378 
Q 2772 3750 2511 3984 
Q 2250 4219 1831 4219 
Q 1534 4219 1204 4116 
Q 875 4013 500 3803 
L 500 4441 
Q 881 4594 1212 4672 
Q 1544 4750 1819 4750 
Q 2544 4750 2975 4387 
Q 3406 4025 3406 3419 
Q 3406 3131 3298 2873 
Q 3191 2616 2906 2266 
Q 2828 2175 2409 1742 
Q 1991 1309 1228 531 
z
" transform="scale(0.015625)"/>
       </defs>
       <use xlink:href="#DejaVuSans-31"/>
       <use xlink:href="#DejaVuSans-32" x="63.623047"/>
       <use xlink:href="#DejaVuSans-30" x="127.246094"/>
      </g>
     </g>
    </g>
   </g>
   <g id="line2d_15">
    <path d="M 51.076364 161.394273 
L 51.465305 162.165418 
L 51.854247 159.970559 
L 52.243188 154.750406 
L 52.63213 155.640217 
L 53.798954 155.224978 
L 54.187895 155.69955 
L 54.576837 158.546889 
L 54.965778 156.470695 
L 55.35472 152.852165 
L 56.521544 153.208071 
L 56.910486 152.614879 
L 57.299427 156.114789 
L 57.688369 151.369163 
L 58.07731 152.021687 
L 59.244134 153.386024 
L 59.633076 152.377594 
L 60.022017 147.098109 
L 60.7999 149.233636 
L 62.355666 145.496486 
L 62.744608 144.903294 
L 63.133549 142.352528 
L 63.522491 142.411816 
L 64.689315 150.598018 
L 65.078257 152.436926 
L 65.467198 153.089451 
L 65.856139 151.250542 
L 66.245081 147.454015 
L 67.411905 147.394727 
L 67.800847 143.360959 
L 68.189788 143.06434 
L 68.57873 147.809966 
L 68.967671 144.36939 
L 70.134496 146.326964 
L 70.523437 145.852392 
L 70.912379 146.208298 
L 71.30132 148.759064 
L 71.690262 147.928586 
L 72.857086 148.462491 
L 73.246027 145.793059 
L 73.634969 145.555773 
L 74.02391 146.504917 
L 74.412852 146.208298 
L 75.579676 155.996123 
L 75.968618 154.869027 
L 76.357559 155.047025 
L 76.746501 153.445357 
L 77.135442 152.555547 
L 78.302267 151.428496 
L 78.691208 153.979261 
L 79.080149 153.62331 
L 79.469091 151.369163 
L 79.858032 147.098109 
L 81.024857 145.140535 
L 81.413798 146.267631 
L 81.80274 146.860823 
L 82.191681 149.233636 
L 82.580623 146.860823 
L 83.747447 144.250769 
L 84.136389 143.005008 
L 84.52533 142.827054 
L 84.914271 138.496713 
L 85.303213 130.725749 
L 86.470037 126.869979 
L 86.858979 128.115696 
L 87.24792 128.886841 
L 87.636862 134.759518 
L 88.025803 131.852846 
L 89.192628 129.776651 
L 89.970511 135.471375 
L 90.359452 132.801989 
L 90.748394 132.446038 
L 91.915218 129.30208 
L 92.304159 129.480033 
L 92.693101 131.912179 
L 93.082042 131.971511 
L 93.470984 129.835984 
L 94.637808 130.132558 
L 95.02675 137.844188 
L 95.415691 136.361186 
L 95.804633 133.513801 
L 96.193574 126.098789 
L 97.360399 126.039502 
L 97.74934 122.183686 
L 98.138281 128.293649 
L 98.527223 123.785309 
L 98.916164 121.709115 
L 100.082989 120.759972 
L 100.47193 121.175256 
L 100.860872 122.124354 
L 101.249813 125.446265 
L 101.638755 123.429403 
L 102.805579 124.67512 
L 103.194521 125.861503 
L 103.583462 125.386977 
L 103.972403 126.573361 
L 104.361345 126.454741 
L 105.528169 126.751314 
L 105.917111 122.836211 
L 106.306052 121.471829 
L 106.694994 126.276742 
L 107.083935 129.005507 
L 108.25076 124.971738 
L 108.639701 124.497167 
L 109.028643 120.226112 
L 109.417584 124.853073 
L 109.806526 125.031026 
L 110.97335 124.437834 
L 111.362291 126.632694 
L 111.751233 125.920836 
L 112.140174 124.556499 
L 112.529116 121.887068 
L 113.69594 123.607356 
L 114.084882 122.065021 
L 114.473823 121.946401 
L 114.862765 120.878637 
L 115.251706 123.192117 
L 116.418531 120.93797 
L 117.196413 115.00596 
L 117.585355 113.107719 
L 119.141121 114.11615 
L 119.530062 105.751995 
L 119.919004 106.582472 
L 120.307945 100.531842 
L 120.696887 97.150599 
L 121.863711 100.175936 
L 122.252653 96.438741 
L 122.641594 90.506732 
L 123.030535 87.303441 
L 123.419477 90.210158 
L 124.586301 89.379681 
L 124.975243 93.532069 
L 125.364184 93.235451 
L 125.753126 88.964442 
L 126.142067 98.574268 
L 127.308892 94.659166 
L 128.086775 85.523865 
L 128.475716 84.871341 
L 128.864658 89.261015 
L 130.031482 91.693161 
L 130.809365 90.744017 
L 131.198306 93.532069 
L 131.587248 103.201229 
L 133.143014 104.328325 
L 133.531955 105.455421 
L 133.920897 103.616467 
L 134.309838 109.133238 
L 135.476663 113.048386 
L 135.865604 118.209251 
L 136.254545 120.641351 
L 136.643487 117.497393 
L 137.032428 115.836438 
L 138.199253 115.955058 
L 138.588194 119.336302 
L 138.977136 118.980396 
L 139.366077 116.488963 
L 139.755019 121.946401 
L 140.921843 119.751541 
L 141.310785 119.751541 
L 141.699726 113.226339 
L 142.477609 109.785763 
L 143.644433 109.192571 
L 144.033375 113.641578 
L 144.422316 112.217908 
L 144.811258 116.726248 
L 145.200199 116.726248 
L 146.367024 115.421199 
L 146.755965 114.056817 
L 147.144907 115.065248 
L 147.92279 111.92129 
L 149.089614 115.717772 
L 149.478555 114.946627 
L 149.867497 109.133238 
L 150.256438 106.641805 
L 150.64538 107.175709 
L 151.812204 105.692707 
L 152.201146 101.658939 
L 152.590087 100.413222 
L 152.979029 106.226566 
L 153.36797 107.353662 
L 154.534795 105.751995 
L 155.312677 109.192571 
L 156.09056 99.523412 
L 157.257385 100.531842 
L 157.646326 97.684458 
L 158.035268 94.006641 
L 158.424209 92.167687 
L 158.813151 92.938877 
L 159.979975 93.235451 
L 160.368917 90.150826 
L 160.757858 89.438968 
L 161.1468 92.642259 
L 161.535741 90.80335 
L 162.702565 91.574495 
L 163.091507 94.955739 
L 163.480448 96.438741 
L 163.86939 97.328552 
L 164.258331 91.989734 
L 165.425156 89.320348 
L 165.814097 87.362774 
L 166.203039 89.557634 
L 166.59198 90.684685 
L 166.980922 89.972873 
L 168.147746 89.320348 
L 168.536687 84.930673 
L 168.925629 85.28658 
L 169.31457 82.557861 
L 169.703512 89.557634 
L 171.259278 83.684912 
L 171.648219 73.541181 
L 172.037161 76.329232 
L 172.426102 72.236177 
L 173.592927 66.126169 
L 173.981868 67.312598 
L 174.370809 66.304167 
L 174.759751 67.371885 
L 175.148692 62.744925 
L 176.315517 62.389019 
L 176.704458 61.736494 
L 177.0934 59.956873 
L 177.482341 66.719406 
L 177.871283 76.863137 
L 179.038107 73.897132 
L 179.427049 79.235904 
L 179.81599 79.532523 
L 180.204932 78.346139 
L 180.593873 78.702045 
L 181.760697 75.498755 
L 182.149639 72.947989 
L 182.53858 73.244607 
L 182.927522 69.863364 
L 183.316463 69.210839 
L 184.483288 69.448125 
L 184.872229 72.117511 
L 185.261171 71.346366 
L 185.650112 68.973553 
L 186.039054 63.219497 
L 187.205878 60.075539 
L 187.594819 63.041544 
L 187.983761 54.499435 
L 188.372702 56.812915 
L 188.761644 55.507866 
L 189.928468 53.253719 
L 190.31741 53.965576 
L 190.706351 47.618328 
L 191.095293 47.558995 
L 191.484234 54.143529 
L 192.651059 54.974007 
L 193.04 58.533204 
L 193.428941 64.999118 
L 193.817883 64.702499 
L 194.206824 68.498981 
L 195.373649 64.227927 
L 195.76259 65.236403 
L 196.151532 61.024637 
L 196.540473 66.304167 
L 196.929415 63.634735 
L 198.096239 64.16864 
L 198.485181 61.083969 
L 198.874122 60.312825 
L 199.263064 56.872248 
L 199.652005 54.618101 
L 200.818829 54.380815 
L 201.207771 50.821618 
L 201.596712 51.41481 
L 201.985654 49.991141 
L 202.374595 47.677615 
L 203.930361 58.948442 
L 204.319303 58.770489 
L 204.708244 66.897359 
L 205.097186 69.922651 
L 206.26401 75.973326 
L 206.652951 71.464986 
L 207.041893 78.346139 
L 207.430834 76.981757 
L 207.819776 73.956419 
L 208.9866 72.53275 
L 209.375542 72.710703 
L 209.764483 70.041317 
L 210.153425 77.9309 
L 210.542366 80.77824 
L 211.709191 79.769809 
L 212.098132 78.939331 
L 212.487073 86.29501 
L 212.876015 89.023729 
L 213.264956 93.11683 
L 214.820722 96.142168 
L 215.209664 96.082835 
L 215.598605 95.726929 
L 215.987547 100.591175 
L 217.543313 105.277468 
L 217.932254 96.972646 
L 218.321196 105.040182 
L 218.710137 107.353662 
L 219.876961 104.743564 
L 220.265903 100.828461 
L 220.654844 98.811554 
L 221.043786 103.853753 
L 221.432727 101.777559 
L 222.599552 98.159029 
L 222.988493 97.328552 
L 223.377435 93.176163 
L 223.766376 98.336983 
L 224.155318 94.065928 
L 225.322142 96.557407 
L 225.711083 96.557407 
L 226.100025 88.015298 
L 226.488966 88.430537 
L 226.877908 89.320348 
L 228.044732 87.481439 
L 228.433674 92.167687 
L 228.822615 94.896451 
L 229.211557 99.997938 
L 229.600498 96.082835 
L 230.767323 98.633601 
L 231.156264 93.413449 
L 231.545205 92.701591 
L 231.934147 85.761151 
L 232.323088 88.964442 
L 233.489913 90.921971 
L 233.878854 86.354343 
L 234.267796 85.879771 
L 234.656737 78.998664 
L 235.045679 84.574722 
L 236.212503 86.591629 
L 236.601445 81.252811 
L 237.379328 78.168186 
L 237.768269 85.939104 
L 238.935093 81.54943 
L 239.712976 86.057724 
L 240.101918 90.388111 
L 240.490859 91.040636 
L 241.657684 88.845776 
L 242.046625 90.862683 
L 242.435567 87.125488 
L 242.824508 89.142395 
L 243.21345 89.438968 
L 244.380274 86.057724 
L 244.769215 79.532523 
L 245.158157 76.032659 
L 245.547098 70.041317 
L 245.93604 66.422787 
L 247.102864 67.134645 
L 247.491806 73.600513 
L 247.880747 65.177071 
L 248.269689 60.609398 
L 248.65863 62.744925 
L 249.825455 67.075312 
L 250.214396 65.770263 
L 250.992279 58.829822 
L 251.38122 54.262149 
L 252.548045 54.440148 
L 252.936986 64.583879 
L 253.325928 67.846457 
L 253.714869 65.532977 
L 254.103811 69.804031 
L 255.270635 67.075312 
L 255.659577 62.270399 
L 256.048518 61.617874 
L 256.43746 65.117738 
L 257.993225 61.321255 
L 258.382167 59.6603 
L 258.771108 61.617874 
L 259.16005 68.202408 
L 259.548991 72.354797 
L 260.715816 69.685411 
L 261.104757 67.134645 
L 261.493699 68.439649 
L 261.88264 71.524319 
L 262.271582 64.643166 
L 263.438406 63.278829 
L 263.827347 66.541407 
L 264.216289 67.371885 
L 264.60523 66.066881 
L 264.994172 68.736267 
L 266.160996 66.422787 
L 266.549938 61.914447 
L 266.938879 62.0924 
L 267.327821 60.194159 
L 267.716762 57.406153 
L 268.883587 55.626532 
L 269.272528 57.702726 
L 269.661469 61.558541 
L 270.050411 61.677161 
L 270.439352 59.956873 
L 271.606177 59.304394 
L 271.995118 52.363908 
L 272.38406 48.804711 
L 272.773001 48.389473 
L 273.161943 49.457236 
L 275.10665 49.21995 
L 275.495592 44.177751 
L 275.884533 45.245515 
L 277.051357 43.465894 
L 277.440299 46.372611 
L 277.82924 42.457463 
L 278.218182 44.059131 
L 278.607123 43.347273 
L 279.773948 38.364362 
L 280.162889 40.974461 
L 280.551831 44.415037 
L 280.940772 50.584332 
L 281.329714 48.804711 
L 282.496538 48.389473 
L 282.885479 44.355704 
L 283.274421 43.821845 
L 283.663362 45.245515 
L 284.052304 45.126849 
L 285.60807 50.109761 
L 285.997011 48.270852 
L 286.385953 38.601648 
L 286.774894 42.042224 
L 287.941719 40.618554 
L 288.33066 41.033793 
L 288.719601 39.19484 
L 289.108543 33.322163 
L 289.497484 39.254172 
L 290.664309 39.313505 
L 291.05325 43.821845 
L 291.442192 46.728517 
L 291.831133 44.059131 
L 292.220075 42.635416 
L 293.386899 42.813369 
L 293.775841 45.186182 
L 294.164782 54.202862 
L 294.553724 54.499435 
L 294.942665 55.211293 
L 296.109489 51.41481 
L 296.498431 55.745152 
L 296.887372 58.592536 
L 297.276314 57.999344 
L 297.665255 56.812915 
L 298.83208 55.270625 
L 299.221021 55.389246 
L 299.609963 59.067108 
L 299.998904 60.728063 
L 300.387846 61.558541 
L 301.55467 59.897586 
L 301.943611 57.46544 
L 302.332553 59.185728 
L 302.721494 66.838026 
L 303.110436 66.60074 
L 304.27726 68.261696 
L 304.666202 71.939558 
L 305.055143 79.057951 
L 305.833026 80.24438 
L 306.999851 77.812235 
L 307.388792 78.464759 
L 307.777733 78.583425 
L 308.166675 79.651188 
L 308.555616 78.227474 
L 309.722441 77.871568 
L 310.111382 77.634282 
L 310.500324 76.981757 
L 310.889265 81.134191 
L 311.278207 77.693614 
L 312.445031 76.210612 
L 312.833973 64.28726 
L 313.222914 64.761832 
L 313.611856 68.498981 
L 314.000797 73.956419 
L 315.167621 70.871794 
L 317.890212 86.057724 
L 318.279153 86.591629 
L 318.668095 88.430537 
L 319.057036 86.888202 
L 319.445978 79.947762 
L 320.612802 81.134191 
L 321.001743 84.456102 
L 321.390685 84.396769 
L 322.168568 77.337663 
L 323.335392 80.185048 
L 323.724334 80.125715 
L 324.113275 77.812235 
L 324.891158 80.718907 
L 326.057983 82.617193 
L 326.446924 78.108853 
L 326.835866 76.032659 
L 327.224807 71.642939 
L 327.613748 74.905563 
L 328.780573 75.320802 
L 329.169514 74.72761 
L 329.558456 71.998891 
L 329.947397 72.176844 
L 330.336339 69.151506 
L 331.503163 63.872021 
L 331.892105 63.278829 
L 332.281046 64.761832 
L 332.669988 65.058405 
L 333.058929 64.465213 
L 334.225753 71.642939 
L 334.614695 72.176844 
L 335.003636 69.151506 
L 335.003636 69.151506 
" clip-path="url(#p0604b6ecc6)" style="fill: none; stroke: #d3d3d3; stroke-linecap: square"/>
   </g>
   <g id="line2d_16">
    <path d="M 51.076364 161.394273 
L 51.465305 162.165418 
L 51.854247 159.970559 
L 52.243188 154.750406 
L 52.63213 155.640217 
L 53.798954 155.224978 
L 54.187895 155.69955 
L 54.576837 158.546889 
L 54.965778 156.470695 
L 55.35472 152.852165 
L 56.521544 153.208071 
L 56.910486 152.614879 
L 57.299427 156.114789 
L 57.688369 151.369163 
L 58.07731 152.021687 
L 59.244134 153.386024 
L 59.633076 152.377594 
L 60.022017 147.098109 
L 60.7999 149.233636 
L 62.355666 145.496486 
L 62.744608 144.903294 
L 63.133549 142.352528 
L 63.522491 142.411816 
L 64.689315 150.598018 
L 65.078257 152.436926 
L 65.467198 153.089451 
L 65.856139 151.250542 
L 66.245081 147.454015 
L 67.411905 147.394727 
L 67.800847 143.360959 
L 68.189788 143.06434 
L 68.57873 147.809966 
L 68.967671 144.36939 
L 70.134496 146.326964 
L 70.523437 145.852392 
L 70.912379 146.208298 
L 71.30132 148.759064 
L 71.690262 147.928586 
L 72.857086 148.462491 
L 73.246027 145.793059 
L 73.634969 145.555773 
L 74.02391 146.504917 
L 74.412852 146.208298 
L 75.579676 155.996123 
L 75.968618 154.869027 
L 76.357559 155.047025 
L 76.746501 153.445357 
L 77.135442 152.555547 
L 78.302267 151.428496 
L 78.691208 153.979261 
L 79.080149 153.62331 
L 79.469091 151.369163 
L 79.858032 147.098109 
L 81.024857 145.140535 
L 81.413798 146.267631 
L 81.80274 146.860823 
L 82.191681 149.233636 
L 82.580623 146.860823 
L 83.747447 144.250769 
L 84.136389 143.005008 
L 84.52533 142.827054 
L 84.914271 138.496713 
L 85.303213 130.725749 
L 86.470037 126.869979 
L 86.858979 128.115696 
L 87.24792 128.886841 
L 87.636862 134.759518 
L 88.025803 131.852846 
L 89.192628 129.776651 
L 89.970511 135.471375 
L 90.359452 132.801989 
L 90.748394 132.446038 
L 91.915218 129.30208 
L 92.304159 129.480033 
L 92.693101 131.912179 
L 93.082042 131.971511 
L 93.470984 129.835984 
L 94.637808 130.132558 
L 95.02675 137.844188 
L 95.415691 136.361186 
L 95.804633 133.513801 
L 96.193574 126.098789 
L 97.360399 126.039502 
L 97.74934 122.183686 
L 98.138281 128.293649 
L 98.527223 123.785309 
L 98.916164 121.709115 
L 100.082989 120.759972 
L 100.47193 121.175256 
L 100.860872 122.124354 
L 101.249813 125.446265 
L 101.638755 123.429403 
L 102.805579 124.67512 
L 103.194521 125.861503 
L 103.583462 125.386977 
L 103.972403 126.573361 
L 104.361345 126.454741 
L 105.528169 126.751314 
L 105.917111 122.836211 
L 106.306052 121.471829 
L 106.694994 126.276742 
L 107.083935 129.005507 
L 108.25076 124.971738 
L 108.639701 124.497167 
L 109.028643 120.226112 
L 109.417584 124.853073 
L 109.806526 125.031026 
L 110.97335 124.437834 
L 111.362291 126.632694 
L 111.751233 125.920836 
L 112.140174 124.556499 
L 112.529116 121.887068 
L 113.69594 123.607356 
L 114.084882 122.065021 
L 114.473823 121.946401 
L 114.862765 120.878637 
L 115.251706 123.192117 
L 116.418531 120.93797 
L 117.196413 115.00596 
L 117.585355 113.107719 
L 119.141121 114.11615 
L 119.530062 105.751995 
L 119.919004 106.582472 
L 120.307945 100.531842 
L 120.696887 97.150599 
L 121.863711 100.175936 
L 122.252653 96.438741 
L 122.641594 90.506732 
L 123.030535 87.303441 
L 123.419477 90.210158 
L 124.586301 89.379681 
L 124.975243 93.532069 
L 125.364184 93.235451 
L 125.753126 88.964442 
L 126.142067 98.574268 
L 127.308892 94.659166 
L 128.086775 85.523865 
L 128.475716 84.871341 
L 128.864658 89.261015 
L 130.031482 91.693161 
L 130.809365 90.744017 
L 131.198306 93.532069 
L 131.587248 103.201229 
L 133.143014 104.328325 
L 133.531955 105.455421 
L 133.920897 103.616467 
L 134.309838 109.133238 
L 135.476663 113.048386 
L 135.865604 118.209251 
L 136.254545 120.641351 
L 136.643487 117.497393 
L 137.032428 115.836438 
L 138.199253 115.955058 
L 138.588194 119.336302 
L 138.977136 118.980396 
L 139.366077 116.488963 
L 139.755019 121.946401 
L 140.921843 119.751541 
L 141.310785 119.751541 
L 141.699726 113.226339 
L 142.477609 109.785763 
L 143.644433 109.192571 
L 144.033375 113.641578 
L 144.422316 112.217908 
L 144.811258 116.726248 
L 145.200199 116.726248 
L 146.367024 115.421199 
L 146.755965 114.056817 
L 147.144907 115.065248 
L 147.92279 111.92129 
L 149.089614 115.717772 
L 149.478555 114.946627 
L 149.867497 109.133238 
L 150.256438 106.641805 
L 150.64538 107.175709 
L 151.812204 105.692707 
L 152.201146 101.658939 
L 152.590087 100.413222 
L 152.979029 106.226566 
L 153.36797 107.353662 
L 154.534795 105.751995 
L 155.312677 109.192571 
L 156.09056 99.523412 
L 157.257385 100.531842 
L 157.646326 97.684458 
L 158.035268 94.006641 
L 158.424209 92.167687 
L 158.813151 92.938877 
L 159.979975 93.235451 
L 160.368917 90.150826 
L 160.757858 89.438968 
L 161.1468 92.642259 
L 161.535741 90.80335 
L 162.702565 91.574495 
L 163.091507 94.955739 
L 163.480448 96.438741 
L 163.86939 97.328552 
L 164.258331 91.989734 
L 165.425156 89.320348 
L 165.814097 87.362774 
L 166.203039 89.557634 
L 166.59198 90.684685 
L 166.980922 89.972873 
L 168.147746 89.320348 
L 168.536687 84.930673 
L 168.925629 85.28658 
L 169.31457 82.557861 
L 169.703512 89.557634 
L 171.259278 83.684912 
L 171.648219 73.541181 
L 172.037161 76.329232 
L 172.426102 72.236177 
L 173.592927 66.126169 
L 173.981868 67.312598 
L 174.370809 66.304167 
L 174.759751 67.371885 
L 175.148692 62.744925 
L 176.315517 62.389019 
L 176.704458 61.736494 
L 177.0934 59.956873 
L 177.482341 66.719406 
L 177.871283 76.863137 
L 179.038107 73.897132 
L 179.427049 79.235904 
L 179.81599 79.532523 
L 180.204932 78.346139 
L 180.593873 78.702045 
L 181.760697 75.498755 
L 182.149639 72.947989 
L 182.53858 73.244607 
L 182.927522 69.863364 
L 183.316463 69.210839 
L 184.483288 69.448125 
L 184.872229 72.117511 
L 185.261171 71.346366 
L 185.650112 68.973553 
L 186.039054 63.219497 
L 187.205878 60.075539 
L 187.594819 63.041544 
L 187.983761 54.499435 
L 188.372702 56.812915 
L 188.761644 55.507866 
L 189.928468 53.253719 
L 190.31741 53.965576 
L 190.706351 47.618328 
L 191.095293 47.558995 
L 191.484234 54.143529 
L 192.651059 54.974007 
L 193.04 58.533204 
L 193.04 58.533204 
" clip-path="url(#p0604b6ecc6)" style="fill: none; stroke: #000000; stroke-linecap: square"/>
   </g>
   <g id="patch_3">
    <path d="M 36.88 168.607581 
L 36.88 26.88 
" style="fill: none; stroke: #000000; stroke-width: 0.8; stroke-linejoin: miter; stroke-linecap: square"/>
   </g>
   <g id="patch_4">
    <path d="M 349.2 168.607581 
L 349.2 26.88 
" style="fill: none; stroke: #000000; stroke-width: 0.8; stroke-linejoin: miter; stroke-linecap: square"/>
   </g>
   <g id="patch_5">
    <path d="M 36.88 168.607581 
L 349.2 168.607581 
" style="fill: none; stroke: #000000; stroke-width: 0.8; stroke-linejoin: miter; stroke-linecap: square"/>
   </g>
   <g id="patch_6">
    <path d="M 36.88 26.88 
L 349.2 26.88 
" style="fill: none; stroke: #000000; stroke-width: 0.8; stroke-linejoin: miter; stroke-linecap: square"/>
   </g>
   <g id="text_15">
    <!-- DXY -->
    <g transform="translate(180.645312 20.88) scale(0.12 -0.12)">
     <defs>
      <path id="DejaVuSans-44" d="M 1259 4147 
L 1259 519 
L 2022 519 
Q 2988 519 3436 956 
Q 3884 1394 3884 2338 
Q 3884 3275 3436 3711 
Q 2988 4147 2022 4147 
L 1259 4147 
z
M 628 4666 
L 1925 4666 
Q 3281 4666 3915 4102 
Q 4550 3538 4550 2338 
Q 4550 1131 3912 565 
Q 3275 0 1925 0 
L 628 0 
L 628 4666 
z
" transform="scale(0.015625)"/>
      <path id="DejaVuSans-58" d="M 403 4666 
L 1081 4666 
L 2241 2931 
L 3406 4666 
L 4084 4666 
L 2584 2425 
L 4184 0 
L 3506 0 
L 2194 1984 
L 872 0 
L 191 0 
L 1856 2491 
L 403 4666 
z
" transform="scale(0.015625)"/>
      <path id="DejaVuSans-59" d="M -13 4666 
L 666 4666 
L 1959 2747 
L 3244 4666 
L 3922 4666 
L 2272 2222 
L 2272 0 
L 1638 0 
L 1638 2222 
L -13 4666 
z
" transform="scale(0.015625)"/>
     </defs>
     <use xlink:href="#DejaVuSans-44"/>
     <use xlink:href="#DejaVuSans-58" x="77.001953"/>
     <use xlink:href="#DejaVuSans-59" x="145.507812"/>
    </g>
   </g>
  </g>
 </g>
 <defs>
  <clipPath id="p0604b6ecc6">
   <rect x="36.88" y="26.88" width="312.32" height="141.727581"/>
  </clipPath>
 </defs>
</svg>
