<?xml version="1.0" encoding="utf-8" standalone="no"?>
<!DOCTYPE svg PUBLIC "-//W3C//DTD SVG 1.1//EN"
  "http://www.w3.org/Graphics/SVG/1.1/DTD/svg11.dtd">
<svg xmlns:xlink="http://www.w3.org/1999/xlink" width="360pt" height="216pt" viewBox="0 0 360 216" xmlns="http://www.w3.org/2000/svg" version="1.1">
 <metadata>
  <rdf:RDF xmlns:dc="http://purl.org/dc/elements/1.1/" xmlns:cc="http://creativecommons.org/ns#" xmlns:rdf="http://www.w3.org/1999/02/22-rdf-syntax-ns#">
   <cc:Work>
    <dc:type rdf:resource="http://purl.org/dc/dcmitype/StillImage"/>
    <dc:date>2023-01-10T15:58:11.720570</dc:date>
    <dc:format>image/svg+xml</dc:format>
    <dc:creator>
     <cc:Agent>
      <dc:title>Matplotlib v3.6.1, https://matplotlib.org/</dc:title>
     </cc:Agent>
    </dc:creator>
   </cc:Work>
  </rdf:RDF>
 </metadata>
 <defs>
  <style type="text/css">*{stroke-linejoin: round; stroke-linecap: butt}</style>
 </defs>
 <g id="figure_1">
  <g id="patch_1">
   <path d="M 0 216 
L 360 216 
L 360 0 
L 0 0 
z
" style="fill: #ffffff"/>
  </g>
  <g id="axes_1">
   <g id="patch_2">
    <path d="M 36.88 168.607581 
L 349.2 168.607581 
L 349.2 26.88 
L 36.88 26.88 
z
" style="fill: #ffffff"/>
   </g>
   <g id="matplotlib.axis_1">
    <g id="xtick_1">
     <g id="line2d_1">
      <defs>
       <path id="m736441cafb" d="M 0 0 
L 0 3.5 
" style="stroke: #000000; stroke-width: 0.8"/>
      </defs>
      <g>
       <use xlink:href="#m736441cafb" x="43.286864" y="168.607581" style="stroke: #000000; stroke-width: 0.8"/>
      </g>
     </g>
     <g id="text_1">
      <!-- '99-10 -->
      <g transform="translate(33.992829 203.470903) rotate(-45) scale(0.1 -0.1)">
       <defs>
        <path id="DejaVuSans-27" d="M 1147 4666 
L 1147 2931 
L 616 2931 
L 616 4666 
L 1147 4666 
z
" transform="scale(0.015625)"/>
        <path id="DejaVuSans-39" d="M 703 97 
L 703 672 
Q 941 559 1184 500 
Q 1428 441 1663 441 
Q 2288 441 2617 861 
Q 2947 1281 2994 2138 
Q 2813 1869 2534 1725 
Q 2256 1581 1919 1581 
Q 1219 1581 811 2004 
Q 403 2428 403 3163 
Q 403 3881 828 4315 
Q 1253 4750 1959 4750 
Q 2769 4750 3195 4129 
Q 3622 3509 3622 2328 
Q 3622 1225 3098 567 
Q 2575 -91 1691 -91 
Q 1453 -91 1209 -44 
Q 966 3 703 97 
z
M 1959 2075 
Q 2384 2075 2632 2365 
Q 2881 2656 2881 3163 
Q 2881 3666 2632 3958 
Q 2384 4250 1959 4250 
Q 1534 4250 1286 3958 
Q 1038 3666 1038 3163 
Q 1038 2656 1286 2365 
Q 1534 2075 1959 2075 
z
" transform="scale(0.015625)"/>
        <path id="DejaVuSans-2d" d="M 313 2009 
L 1997 2009 
L 1997 1497 
L 313 1497 
L 313 2009 
z
" transform="scale(0.015625)"/>
        <path id="DejaVuSans-31" d="M 794 531 
L 1825 531 
L 1825 4091 
L 703 3866 
L 703 4441 
L 1819 4666 
L 2450 4666 
L 2450 531 
L 3481 531 
L 3481 0 
L 794 0 
L 794 531 
z
" transform="scale(0.015625)"/>
        <path id="DejaVuSans-30" d="M 2034 4250 
Q 1547 4250 1301 3770 
Q 1056 3291 1056 2328 
Q 1056 1369 1301 889 
Q 1547 409 2034 409 
Q 2525 409 2770 889 
Q 3016 1369 3016 2328 
Q 3016 3291 2770 3770 
Q 2525 4250 2034 4250 
z
M 2034 4750 
Q 2819 4750 3233 4129 
Q 3647 3509 3647 2328 
Q 3647 1150 3233 529 
Q 2819 -91 2034 -91 
Q 1250 -91 836 529 
Q 422 1150 422 2328 
Q 422 3509 836 4129 
Q 1250 4750 2034 4750 
z
" transform="scale(0.015625)"/>
       </defs>
       <use xlink:href="#DejaVuSans-27"/>
       <use xlink:href="#DejaVuSans-39" x="27.490234"/>
       <use xlink:href="#DejaVuSans-39" x="91.113281"/>
       <use xlink:href="#DejaVuSans-2d" x="154.736328"/>
       <use xlink:href="#DejaVuSans-31" x="190.820312"/>
       <use xlink:href="#DejaVuSans-30" x="254.443359"/>
      </g>
     </g>
    </g>
    <g id="xtick_2">
     <g id="line2d_2">
      <g>
       <use xlink:href="#m736441cafb" x="79.118563" y="168.607581" style="stroke: #000000; stroke-width: 0.8"/>
      </g>
     </g>
     <g id="text_2">
      <!-- '00-01 -->
      <g transform="translate(69.824529 203.470903) rotate(-45) scale(0.1 -0.1)">
       <use xlink:href="#DejaVuSans-27"/>
       <use xlink:href="#DejaVuSans-30" x="27.490234"/>
       <use xlink:href="#DejaVuSans-30" x="91.113281"/>
       <use xlink:href="#DejaVuSans-2d" x="154.736328"/>
       <use xlink:href="#DejaVuSans-30" x="190.820312"/>
       <use xlink:href="#DejaVuSans-31" x="254.443359"/>
      </g>
     </g>
    </g>
    <g id="xtick_3">
     <g id="line2d_3">
      <g>
       <use xlink:href="#m736441cafb" x="114.560788" y="168.607581" style="stroke: #000000; stroke-width: 0.8"/>
      </g>
     </g>
     <g id="text_3">
      <!-- '00-04 -->
      <g transform="translate(105.266753 203.470903) rotate(-45) scale(0.1 -0.1)">
       <defs>
        <path id="DejaVuSans-34" d="M 2419 4116 
L 825 1625 
L 2419 1625 
L 2419 4116 
z
M 2253 4666 
L 3047 4666 
L 3047 1625 
L 3713 1625 
L 3713 1100 
L 3047 1100 
L 3047 0 
L 2419 0 
L 2419 1100 
L 313 1100 
L 313 1709 
L 2253 4666 
z
" transform="scale(0.015625)"/>
       </defs>
       <use xlink:href="#DejaVuSans-27"/>
       <use xlink:href="#DejaVuSans-30" x="27.490234"/>
       <use xlink:href="#DejaVuSans-30" x="91.113281"/>
       <use xlink:href="#DejaVuSans-2d" x="154.736328"/>
       <use xlink:href="#DejaVuSans-30" x="190.820312"/>
       <use xlink:href="#DejaVuSans-34" x="254.443359"/>
      </g>
     </g>
    </g>
    <g id="xtick_4">
     <g id="line2d_4">
      <g>
       <use xlink:href="#m736441cafb" x="150.003013" y="168.607581" style="stroke: #000000; stroke-width: 0.8"/>
      </g>
     </g>
     <g id="text_4">
      <!-- '00-07 -->
      <g transform="translate(140.708978 203.470903) rotate(-45) scale(0.1 -0.1)">
       <defs>
        <path id="DejaVuSans-37" d="M 525 4666 
L 3525 4666 
L 3525 4397 
L 1831 0 
L 1172 0 
L 2766 4134 
L 525 4134 
L 525 4666 
z
" transform="scale(0.015625)"/>
       </defs>
       <use xlink:href="#DejaVuSans-27"/>
       <use xlink:href="#DejaVuSans-30" x="27.490234"/>
       <use xlink:href="#DejaVuSans-30" x="91.113281"/>
       <use xlink:href="#DejaVuSans-2d" x="154.736328"/>
       <use xlink:href="#DejaVuSans-30" x="190.820312"/>
       <use xlink:href="#DejaVuSans-37" x="254.443359"/>
      </g>
     </g>
    </g>
    <g id="xtick_5">
     <g id="line2d_5">
      <g>
       <use xlink:href="#m736441cafb" x="185.834713" y="168.607581" style="stroke: #000000; stroke-width: 0.8"/>
      </g>
     </g>
     <g id="text_5">
      <!-- '00-10 -->
      <g transform="translate(176.540678 203.470903) rotate(-45) scale(0.1 -0.1)">
       <use xlink:href="#DejaVuSans-27"/>
       <use xlink:href="#DejaVuSans-30" x="27.490234"/>
       <use xlink:href="#DejaVuSans-30" x="91.113281"/>
       <use xlink:href="#DejaVuSans-2d" x="154.736328"/>
       <use xlink:href="#DejaVuSans-31" x="190.820312"/>
       <use xlink:href="#DejaVuSans-30" x="254.443359"/>
      </g>
     </g>
    </g>
    <g id="xtick_6">
     <g id="line2d_6">
      <g>
       <use xlink:href="#m736441cafb" x="221.666412" y="168.607581" style="stroke: #000000; stroke-width: 0.8"/>
      </g>
     </g>
     <g id="text_6">
      <!-- '01-01 -->
      <g transform="translate(212.372378 203.470903) rotate(-45) scale(0.1 -0.1)">
       <use xlink:href="#DejaVuSans-27"/>
       <use xlink:href="#DejaVuSans-30" x="27.490234"/>
       <use xlink:href="#DejaVuSans-31" x="91.113281"/>
       <use xlink:href="#DejaVuSans-2d" x="154.736328"/>
       <use xlink:href="#DejaVuSans-30" x="190.820312"/>
       <use xlink:href="#DejaVuSans-31" x="254.443359"/>
      </g>
     </g>
    </g>
    <g id="xtick_7">
     <g id="line2d_7">
      <g>
       <use xlink:href="#m736441cafb" x="256.719162" y="168.607581" style="stroke: #000000; stroke-width: 0.8"/>
      </g>
     </g>
     <g id="text_7">
      <!-- '01-04 -->
      <g transform="translate(247.425127 203.470903) rotate(-45) scale(0.1 -0.1)">
       <use xlink:href="#DejaVuSans-27"/>
       <use xlink:href="#DejaVuSans-30" x="27.490234"/>
       <use xlink:href="#DejaVuSans-31" x="91.113281"/>
       <use xlink:href="#DejaVuSans-2d" x="154.736328"/>
       <use xlink:href="#DejaVuSans-30" x="190.820312"/>
       <use xlink:href="#DejaVuSans-34" x="254.443359"/>
      </g>
     </g>
    </g>
    <g id="xtick_8">
     <g id="line2d_8">
      <g>
       <use xlink:href="#m736441cafb" x="292.161387" y="168.607581" style="stroke: #000000; stroke-width: 0.8"/>
      </g>
     </g>
     <g id="text_8">
      <!-- '01-07 -->
      <g transform="translate(282.867352 203.470903) rotate(-45) scale(0.1 -0.1)">
       <use xlink:href="#DejaVuSans-27"/>
       <use xlink:href="#DejaVuSans-30" x="27.490234"/>
       <use xlink:href="#DejaVuSans-31" x="91.113281"/>
       <use xlink:href="#DejaVuSans-2d" x="154.736328"/>
       <use xlink:href="#DejaVuSans-30" x="190.820312"/>
       <use xlink:href="#DejaVuSans-37" x="254.443359"/>
      </g>
     </g>
    </g>
    <g id="xtick_9">
     <g id="line2d_9">
      <g>
       <use xlink:href="#m736441cafb" x="327.993086" y="168.607581" style="stroke: #000000; stroke-width: 0.8"/>
      </g>
     </g>
     <g id="text_9">
      <!-- '01-10 -->
      <g transform="translate(318.699052 203.470903) rotate(-45) scale(0.1 -0.1)">
       <use xlink:href="#DejaVuSans-27"/>
       <use xlink:href="#DejaVuSans-30" x="27.490234"/>
       <use xlink:href="#DejaVuSans-31" x="91.113281"/>
       <use xlink:href="#DejaVuSans-2d" x="154.736328"/>
       <use xlink:href="#DejaVuSans-31" x="190.820312"/>
       <use xlink:href="#DejaVuSans-30" x="254.443359"/>
      </g>
     </g>
    </g>
   </g>
   <g id="matplotlib.axis_2">
    <g id="ytick_1">
     <g id="line2d_10">
      <defs>
       <path id="m72ff64f89b" d="M 0 0 
L -3.5 0 
" style="stroke: #000000; stroke-width: 0.8"/>
      </defs>
      <g>
       <use xlink:href="#m72ff64f89b" x="36.88" y="148.301857" style="stroke: #000000; stroke-width: 0.8"/>
      </g>
     </g>
     <g id="text_10">
      <!-- 100 -->
      <g transform="translate(10.7925 152.101076) scale(0.1 -0.1)">
       <use xlink:href="#DejaVuSans-31"/>
       <use xlink:href="#DejaVuSans-30" x="63.623047"/>
       <use xlink:href="#DejaVuSans-30" x="127.246094"/>
      </g>
     </g>
    </g>
    <g id="ytick_2">
     <g id="line2d_11">
      <g>
       <use xlink:href="#m72ff64f89b" x="36.88" y="120.794756" style="stroke: #000000; stroke-width: 0.8"/>
      </g>
     </g>
     <g id="text_11">
      <!-- 105 -->
      <g transform="translate(10.7925 124.593974) scale(0.1 -0.1)">
       <defs>
        <path id="DejaVuSans-35" d="M 691 4666 
L 3169 4666 
L 3169 4134 
L 1269 4134 
L 1269 2991 
Q 1406 3038 1543 3061 
Q 1681 3084 1819 3084 
Q 2600 3084 3056 2656 
Q 3513 2228 3513 1497 
Q 3513 744 3044 326 
Q 2575 -91 1722 -91 
Q 1428 -91 1123 -41 
Q 819 9 494 109 
L 494 744 
Q 775 591 1075 516 
Q 1375 441 1709 441 
Q 2250 441 2565 725 
Q 2881 1009 2881 1497 
Q 2881 1984 2565 2268 
Q 2250 2553 1709 2553 
Q 1456 2553 1204 2497 
Q 953 2441 691 2322 
L 691 4666 
z
" transform="scale(0.015625)"/>
       </defs>
       <use xlink:href="#DejaVuSans-31"/>
       <use xlink:href="#DejaVuSans-30" x="63.623047"/>
       <use xlink:href="#DejaVuSans-35" x="127.246094"/>
      </g>
     </g>
    </g>
    <g id="ytick_3">
     <g id="line2d_12">
      <g>
       <use xlink:href="#m72ff64f89b" x="36.88" y="93.287654" style="stroke: #000000; stroke-width: 0.8"/>
      </g>
     </g>
     <g id="text_12">
      <!-- 110 -->
      <g transform="translate(10.7925 97.086872) scale(0.1 -0.1)">
       <use xlink:href="#DejaVuSans-31"/>
       <use xlink:href="#DejaVuSans-31" x="63.623047"/>
       <use xlink:href="#DejaVuSans-30" x="127.246094"/>
      </g>
     </g>
    </g>
    <g id="ytick_4">
     <g id="line2d_13">
      <g>
       <use xlink:href="#m72ff64f89b" x="36.88" y="65.780552" style="stroke: #000000; stroke-width: 0.8"/>
      </g>
     </g>
     <g id="text_13">
      <!-- 115 -->
      <g transform="translate(10.7925 69.57977) scale(0.1 -0.1)">
       <use xlink:href="#DejaVuSans-31"/>
       <use xlink:href="#DejaVuSans-31" x="63.623047"/>
       <use xlink:href="#DejaVuSans-35" x="127.246094"/>
      </g>
     </g>
    </g>
    <g id="ytick_5">
     <g id="line2d_14">
      <g>
       <use xlink:href="#m72ff64f89b" x="36.88" y="38.27345" style="stroke: #000000; stroke-width: 0.8"/>
      </g>
     </g>
     <g id="text_14">
      <!-- 120 -->
      <g transform="translate(10.7925 42.072668) scale(0.1 -0.1)">
       <defs>
        <path id="DejaVuSans-32" d="M 1228 531 
L 3431 531 
L 3431 0 
L 469 0 
L 469 531 
Q 828 903 1448 1529 
Q 2069 2156 2228 2338 
Q 2531 2678 2651 2914 
Q 2772 3150 2772 3378 
Q 2772 3750 2511 3984 
Q 2250 4219 1831 4219 
Q 1534 4219 1204 4116 
Q 875 4013 500 3803 
L 500 4441 
Q 881 4594 1212 4672 
Q 1544 4750 1819 4750 
Q 2544 4750 2975 4387 
Q 3406 4025 3406 3419 
Q 3406 3131 3298 2873 
Q 3191 2616 2906 2266 
Q 2828 2175 2409 1742 
Q 1991 1309 1228 531 
z
" transform="scale(0.015625)"/>
       </defs>
       <use xlink:href="#DejaVuSans-31"/>
       <use xlink:href="#DejaVuSans-32" x="63.623047"/>
       <use xlink:href="#DejaVuSans-30" x="127.246094"/>
      </g>
     </g>
    </g>
   </g>
   <g id="line2d_15">
    <path d="M 51.076364 162.165418 
L 51.465839 156.663998 
L 52.634264 157.434235 
L 53.413214 152.152835 
L 53.802689 151.767737 
L 54.192164 153.473206 
L 55.360589 152.097851 
L 55.750064 152.813021 
L 56.139539 150.77748 
L 56.529014 145.936245 
L 56.918489 146.761466 
L 58.086914 146.376369 
L 58.476389 146.816492 
L 58.865864 149.457151 
L 59.255339 147.531662 
L 59.644814 144.175792 
L 60.813239 144.505864 
L 61.202714 143.95573 
L 61.592189 147.20159 
L 61.981664 142.800437 
L 62.371139 143.405597 
L 63.539564 144.6709 
L 63.929039 143.735668 
L 64.318514 138.839408 
L 65.097464 140.819922 
L 66.655364 137.354043 
L 67.044839 136.803909 
L 67.434314 134.438297 
L 67.823789 134.493281 
L 68.992213 142.085268 
L 69.381688 143.790694 
L 69.771163 144.395854 
L 70.160638 142.690427 
L 70.550113 139.169479 
L 71.718538 139.114495 
L 72.108013 135.373528 
L 72.497488 135.09844 
L 72.886963 139.499593 
L 73.276438 136.308759 
L 74.444863 138.124238 
L 74.834338 137.684114 
L 75.223813 138.014186 
L 75.613288 140.379799 
L 76.002763 139.609603 
L 77.171188 140.104753 
L 77.560663 137.629088 
L 77.950138 137.409027 
L 78.339613 138.289274 
L 78.729088 138.014186 
L 79.897513 147.091538 
L 80.286988 146.046255 
L 80.676463 146.211333 
L 81.065938 144.725926 
L 81.455413 143.900704 
L 82.623838 142.855463 
L 83.013313 145.221075 
L 83.402788 144.890962 
L 83.792263 142.800437 
L 84.181738 138.839408 
L 85.350163 137.023929 
L 85.739638 138.069212 
L 86.129113 138.619346 
L 86.518588 140.819922 
L 86.908063 138.619346 
L 88.076488 136.198749 
L 88.465963 135.043414 
L 88.855438 134.878378 
L 89.244913 130.862365 
L 89.634388 123.655476 
L 90.802813 120.079586 
L 91.192288 121.234879 
L 91.581763 121.950049 
L 91.971238 127.396443 
L 92.360713 124.700759 
L 93.529138 122.77527 
L 94.308088 128.056629 
L 94.697563 125.581006 
L 95.087038 125.250893 
L 96.255463 122.335146 
L 96.644938 122.500182 
L 97.034413 124.755785 
L 97.423888 124.810811 
L 97.813363 122.830296 
L 98.981788 123.105342 
L 99.371263 130.257205 
L 99.760738 128.88185 
L 100.150213 126.24115 
L 100.539688 119.364374 
L 101.708113 119.30939 
L 102.097588 115.733459 
L 102.487063 121.399915 
L 102.876538 117.218824 
L 103.266013 115.293335 
L 104.434438 114.413088 
L 104.823913 114.798227 
L 105.213388 115.678433 
L 105.602863 118.759215 
L 105.992338 116.888752 
L 107.160763 118.044045 
L 107.550238 119.144313 
L 107.939713 118.704231 
L 108.329188 119.804498 
L 108.718663 119.694488 
L 109.887088 119.969534 
L 110.276563 116.338618 
L 110.666038 115.073273 
L 111.055513 119.52941 
L 111.444988 122.060101 
L 112.613413 118.319133 
L 113.002888 117.879009 
L 113.392363 113.91798 
L 113.781838 118.209081 
L 114.171313 118.374117 
L 115.339738 117.823983 
L 115.729213 119.859524 
L 116.118688 119.199339 
L 116.508163 117.934035 
L 116.897638 115.458371 
L 118.066063 117.053788 
L 118.455538 115.623407 
L 118.845013 115.513397 
L 119.234488 114.52314 
L 119.623963 116.66869 
L 120.792388 114.578166 
L 121.571338 109.076745 
L 121.960813 107.316292 
L 123.518713 108.251524 
L 123.908188 100.494501 
L 124.297663 101.264696 
L 124.687138 95.653266 
L 125.076613 92.517458 
L 126.245038 95.323194 
L 126.634513 91.857272 
L 127.023988 86.355852 
L 127.413463 83.38508 
L 127.802938 86.080806 
L 128.971363 85.310611 
L 129.360838 89.161588 
L 129.750313 88.8865 
L 130.139788 84.925513 
L 130.529263 93.837787 
L 131.697688 90.206872 
L 132.476638 81.734679 
L 132.866113 81.129519 
L 133.255588 85.200559 
L 134.424013 87.456161 
L 135.202963 86.575914 
L 135.592438 89.161588 
L 135.981913 98.128888 
L 137.539813 99.174172 
L 137.929288 100.219455 
L 138.318763 98.513986 
L 138.708238 103.630309 
L 139.876663 107.261266 
L 140.266138 112.047517 
L 140.655613 114.303078 
L 141.045088 111.387332 
L 141.434563 109.846941 
L 142.602988 109.956951 
L 142.992463 113.092759 
L 143.381938 112.762687 
L 143.771413 110.4521 
L 144.160888 115.513397 
L 145.329313 113.477856 
L 145.718788 113.477856 
L 146.108263 107.426302 
L 146.887213 104.235468 
L 148.055638 103.685335 
L 148.445113 107.8114 
L 148.834588 106.491071 
L 149.224063 110.672162 
L 149.613538 110.672162 
L 150.781963 109.461843 
L 151.171438 108.196498 
L 151.560913 109.131729 
L 152.339863 106.215983 
L 153.508288 109.736889 
L 153.897763 109.021719 
L 154.287238 103.630309 
L 154.676713 101.319722 
L 155.066188 101.814872 
L 156.234613 100.439517 
L 156.624088 96.698549 
L 157.013563 95.543256 
L 157.403038 100.934625 
L 157.792513 101.979908 
L 158.960938 100.494501 
L 159.739888 103.685335 
L 160.518838 94.718035 
L 161.687263 95.653266 
L 162.076738 93.012566 
L 162.466213 89.601712 
L 162.855688 87.896243 
L 163.245163 88.611455 
L 164.413588 88.8865 
L 164.803063 86.02578 
L 165.192538 85.365595 
L 165.582013 88.336367 
L 165.971488 86.63094 
L 167.139913 87.346109 
L 167.529388 90.481917 
L 167.918863 91.857272 
L 168.308338 92.682494 
L 168.697813 87.731207 
L 169.866238 85.255585 
L 170.255713 83.440106 
L 170.645188 85.475647 
L 171.034663 86.520888 
L 171.424138 85.860744 
L 172.592563 85.255585 
L 172.982038 81.184545 
L 173.371513 81.514617 
L 173.760988 78.983969 
L 174.150463 85.475647 
L 175.708363 80.02921 
L 176.097838 70.621786 
L 176.487313 73.207461 
L 176.876788 69.411509 
L 178.045213 63.745011 
L 178.434688 64.84532 
L 178.824163 63.910089 
L 179.213638 64.900304 
L 179.603113 60.609203 
L 180.771538 60.279131 
L 181.161013 59.673972 
L 181.550488 58.023529 
L 181.939963 64.295186 
L 182.329438 73.70261 
L 183.497863 70.9519 
L 183.887338 75.903145 
L 184.276813 76.178233 
L 184.666288 75.077965 
L 185.055763 75.408037 
L 186.224188 72.437265 
L 186.613663 70.071653 
L 187.003138 70.346741 
L 187.392613 67.210933 
L 187.782088 66.605773 
L 188.950513 66.825835 
L 189.339988 69.301457 
L 189.729463 68.586288 
L 190.118938 66.385711 
L 190.508413 61.049327 
L 191.676838 58.133581 
L 192.066313 60.884291 
L 192.455788 52.962232 
L 192.845263 55.107783 
L 193.234737 53.897463 
L 194.403162 51.806939 
L 194.792637 52.467124 
L 195.182112 46.580606 
L 195.571587 46.52558 
L 195.961062 52.63216 
L 197.129487 53.402356 
L 197.518962 56.703199 
L 197.908437 62.69977 
L 198.297912 62.424682 
L 198.687387 65.945587 
L 199.855812 61.984558 
L 200.245287 62.919831 
L 200.634762 59.013786 
L 201.024237 63.910089 
L 201.413712 61.434424 
L 202.582137 61.929574 
L 202.971612 59.068812 
L 203.361087 58.353642 
L 203.750562 55.162808 
L 204.140037 53.072284 
L 205.308462 52.852222 
L 205.697937 49.551378 
L 206.087412 50.101512 
L 206.476887 48.781183 
L 206.866362 46.63559 
L 208.424262 57.088297 
L 208.813737 56.923261 
L 209.203212 64.460222 
L 209.592687 67.265917 
L 210.761112 72.877389 
L 211.150587 68.696298 
L 211.540062 75.077965 
L 211.929537 73.81262 
L 212.319012 71.006884 
L 213.487437 69.686555 
L 213.876912 69.851591 
L 214.266387 67.375968 
L 214.655862 74.692868 
L 215.045337 77.333526 
L 216.213762 76.398295 
L 216.603237 75.628099 
L 216.992712 82.449849 
L 217.382187 84.980497 
L 217.771662 88.77649 
L 219.329562 91.582227 
L 219.719037 91.527201 
L 220.108512 91.197129 
L 220.497987 95.708292 
L 222.055887 100.054419 
L 222.445362 92.352422 
L 222.834837 99.834357 
L 223.224312 101.979908 
L 224.392737 99.559269 
L 224.782212 95.928354 
L 225.171687 94.057849 
L 225.561162 98.734048 
L 225.950637 96.808559 
L 227.119062 93.452689 
L 227.508537 92.682494 
L 227.898012 88.831516 
L 228.287487 93.617725 
L 228.676962 89.656696 
L 229.845387 91.967324 
L 230.234862 91.967324 
L 230.624337 84.045266 
L 231.013812 84.430363 
L 231.403287 85.255585 
L 232.571712 83.550158 
L 232.961187 87.896243 
L 233.350662 90.426933 
L 233.740137 95.158116 
L 234.129612 91.527201 
L 235.298037 93.892813 
L 235.687512 89.051578 
L 236.076987 88.391393 
L 236.466462 81.954741 
L 236.855937 84.925513 
L 238.024362 86.74095 
L 238.413837 82.504875 
L 238.803312 82.064751 
L 239.192787 75.683125 
L 239.582262 80.854432 
L 240.750687 82.724936 
L 241.140162 77.77365 
L 241.919112 74.91293 
L 242.308587 82.119777 
L 243.477012 78.048737 
L 244.255962 82.229787 
L 244.645437 86.245842 
L 245.034912 86.851002 
L 246.203337 84.815461 
L 246.592812 86.685966 
L 246.982287 83.220044 
L 247.371762 85.090549 
L 247.761237 85.365595 
L 248.929662 82.229787 
L 249.319137 76.178233 
L 249.708612 72.932415 
L 250.098087 67.375968 
L 250.487562 64.020099 
L 251.655987 64.680284 
L 252.045462 70.676812 
L 252.434937 62.864805 
L 252.824412 58.628688 
L 253.213887 60.609203 
L 254.382312 64.625258 
L 254.771787 63.414939 
L 255.550737 56.978287 
L 255.940212 52.74217 
L 257.108637 52.907248 
L 257.498112 62.314672 
L 257.887587 65.340428 
L 258.277062 63.194877 
L 258.666537 67.155907 
L 259.834962 64.625258 
L 260.224437 60.169121 
L 260.613912 59.563962 
L 261.003387 62.809779 
L 262.561287 59.288874 
L 262.950762 57.748483 
L 263.340237 59.563962 
L 263.729712 65.670542 
L 264.119187 69.521519 
L 265.287612 67.045897 
L 265.677087 64.680284 
L 266.066562 65.890561 
L 266.456037 68.751324 
L 266.845512 62.369656 
L 268.013937 61.104353 
L 268.403412 64.130109 
L 268.792887 64.900304 
L 269.182362 63.690027 
L 269.571837 66.165649 
L 270.740262 64.020099 
L 271.129737 59.839007 
L 271.519212 60.004043 
L 271.908687 58.24359 
L 272.298162 55.657958 
L 273.466587 54.007515 
L 273.856062 55.933004 
L 274.245537 59.508936 
L 274.635012 59.618946 
L 275.024487 58.023529 
L 276.192912 57.418411 
L 276.582387 50.981717 
L 276.971862 47.680873 
L 277.361337 47.295776 
L 277.750812 48.286033 
L 279.698187 48.065971 
L 280.087662 43.389772 
L 280.477137 44.38003 
L 281.645562 42.729587 
L 282.035037 45.425313 
L 282.424512 41.794355 
L 282.813987 43.279762 
L 283.203462 42.619577 
L 284.371887 37.998362 
L 284.761362 40.419 
L 285.150837 43.609834 
L 285.540312 49.331316 
L 285.929787 47.680873 
L 287.098212 47.295776 
L 287.487687 43.554808 
L 287.877162 43.0597 
L 288.266637 44.38003 
L 288.656112 44.269978 
L 290.214012 48.891193 
L 290.603487 47.185766 
L 290.992962 38.218424 
L 291.382437 41.409257 
L 292.550862 40.088928 
L 292.940337 40.474026 
L 293.329812 38.768557 
L 293.719287 33.322163 
L 294.108762 38.823583 
L 295.277187 38.878609 
L 295.666662 43.0597 
L 296.056137 45.755385 
L 296.445612 43.279762 
L 296.835087 41.959391 
L 298.003512 42.124427 
L 298.392987 44.325004 
L 298.782462 52.687186 
L 299.171937 52.962232 
L 299.561412 53.622417 
L 300.729837 50.101512 
L 301.119312 54.117525 
L 301.508787 56.758225 
L 301.898262 56.208092 
L 302.287737 55.107783 
L 303.456162 53.677443 
L 303.845637 53.787453 
L 304.235112 57.198349 
L 304.624587 58.73874 
L 305.014062 59.508936 
L 306.182487 57.968545 
L 306.571962 55.712942 
L 306.961437 57.308359 
L 307.350912 64.405196 
L 307.740387 64.185135 
L 308.908812 65.725526 
L 309.298287 69.136421 
L 309.687762 75.738109 
L 310.466712 76.838418 
L 311.635137 74.582816 
L 312.024612 75.187975 
L 312.414087 75.298027 
L 312.803562 76.288285 
L 313.193037 74.967914 
L 314.750937 74.41778 
L 315.140412 73.81262 
L 315.529887 77.66364 
L 315.919362 74.472806 
L 317.087787 73.097451 
L 317.477262 62.039584 
L 317.866737 62.479708 
L 318.256211 65.945587 
L 318.645686 71.006884 
L 319.814111 68.146164 
L 322.540436 82.229787 
L 322.929911 82.724936 
L 323.319386 84.430363 
L 323.708861 82.999982 
L 324.098336 76.56333 
L 325.266761 77.66364 
L 325.656236 80.744422 
L 326.045711 80.689396 
L 326.824661 74.142692 
L 327.993086 76.783392 
L 328.382561 76.728366 
L 328.772036 74.582816 
L 329.550986 77.2785 
L 330.719411 79.038995 
L 331.108886 74.857904 
L 331.498361 72.932415 
L 331.887836 68.861334 
L 332.277311 71.887132 
L 333.445736 72.272229 
L 333.835211 71.722096 
L 334.224686 69.191447 
L 334.614161 69.356483 
L 335.003636 66.550747 
L 335.003636 66.550747 
" clip-path="url(#pdff1de9e73)" style="fill: none; stroke: #d3d3d3; stroke-linecap: square"/>
   </g>
   <g id="line2d_16">
    <path d="M 51.076364 162.165418 
L 51.465839 156.663998 
L 52.634264 157.434235 
L 53.413214 152.152835 
L 53.802689 151.767737 
L 54.192164 153.473206 
L 55.360589 152.097851 
L 55.750064 152.813021 
L 56.139539 150.77748 
L 56.529014 145.936245 
L 56.918489 146.761466 
L 58.086914 146.376369 
L 58.476389 146.816492 
L 58.865864 149.457151 
L 59.255339 147.531662 
L 59.644814 144.175792 
L 60.813239 144.505864 
L 61.202714 143.95573 
L 61.592189 147.20159 
L 61.981664 142.800437 
L 62.371139 143.405597 
L 63.539564 144.6709 
L 63.929039 143.735668 
L 64.318514 138.839408 
L 65.097464 140.819922 
L 66.655364 137.354043 
L 67.044839 136.803909 
L 67.434314 134.438297 
L 67.823789 134.493281 
L 68.992213 142.085268 
L 69.381688 143.790694 
L 69.771163 144.395854 
L 70.160638 142.690427 
L 70.550113 139.169479 
L 71.718538 139.114495 
L 72.108013 135.373528 
L 72.497488 135.09844 
L 72.886963 139.499593 
L 73.276438 136.308759 
L 74.444863 138.124238 
L 74.834338 137.684114 
L 75.223813 138.014186 
L 75.613288 140.379799 
L 76.002763 139.609603 
L 77.171188 140.104753 
L 77.560663 137.629088 
L 77.950138 137.409027 
L 78.339613 138.289274 
L 78.729088 138.014186 
L 79.897513 147.091538 
L 80.286988 146.046255 
L 80.676463 146.211333 
L 81.065938 144.725926 
L 81.455413 143.900704 
L 82.623838 142.855463 
L 83.013313 145.221075 
L 83.402788 144.890962 
L 83.792263 142.800437 
L 84.181738 138.839408 
L 85.350163 137.023929 
L 85.739638 138.069212 
L 86.129113 138.619346 
L 86.518588 140.819922 
L 86.908063 138.619346 
L 88.076488 136.198749 
L 88.465963 135.043414 
L 88.855438 134.878378 
L 89.244913 130.862365 
L 89.634388 123.655476 
L 90.802813 120.079586 
L 91.192288 121.234879 
L 91.581763 121.950049 
L 91.971238 127.396443 
L 92.360713 124.700759 
L 93.529138 122.77527 
L 94.308088 128.056629 
L 94.697563 125.581006 
L 95.087038 125.250893 
L 96.255463 122.335146 
L 96.644938 122.500182 
L 97.034413 124.755785 
L 97.423888 124.810811 
L 97.813363 122.830296 
L 98.981788 123.105342 
L 99.371263 130.257205 
L 99.760738 128.88185 
L 100.150213 126.24115 
L 100.539688 119.364374 
L 101.708113 119.30939 
L 102.097588 115.733459 
L 102.487063 121.399915 
L 102.876538 117.218824 
L 103.266013 115.293335 
L 104.434438 114.413088 
L 104.823913 114.798227 
L 105.213388 115.678433 
L 105.602863 118.759215 
L 105.992338 116.888752 
L 107.160763 118.044045 
L 107.550238 119.144313 
L 107.939713 118.704231 
L 108.329188 119.804498 
L 108.718663 119.694488 
L 109.887088 119.969534 
L 110.276563 116.338618 
L 110.666038 115.073273 
L 111.055513 119.52941 
L 111.444988 122.060101 
L 112.613413 118.319133 
L 113.002888 117.879009 
L 113.392363 113.91798 
L 113.781838 118.209081 
L 114.171313 118.374117 
L 115.339738 117.823983 
L 115.729213 119.859524 
L 116.118688 119.199339 
L 116.508163 117.934035 
L 116.897638 115.458371 
L 118.066063 117.053788 
L 118.455538 115.623407 
L 118.845013 115.513397 
L 119.234488 114.52314 
L 119.623963 116.66869 
L 120.792388 114.578166 
L 121.571338 109.076745 
L 121.960813 107.316292 
L 123.518713 108.251524 
L 123.908188 100.494501 
L 124.297663 101.264696 
L 124.687138 95.653266 
L 125.076613 92.517458 
L 126.245038 95.323194 
L 126.634513 91.857272 
L 127.023988 86.355852 
L 127.413463 83.38508 
L 127.802938 86.080806 
L 128.971363 85.310611 
L 129.360838 89.161588 
L 129.750313 88.8865 
L 130.139788 84.925513 
L 130.529263 93.837787 
L 131.697688 90.206872 
L 132.476638 81.734679 
L 132.866113 81.129519 
L 133.255588 85.200559 
L 134.424013 87.456161 
L 135.202963 86.575914 
L 135.592438 89.161588 
L 135.981913 98.128888 
L 137.539813 99.174172 
L 137.929288 100.219455 
L 138.318763 98.513986 
L 138.708238 103.630309 
L 139.876663 107.261266 
L 140.266138 112.047517 
L 140.655613 114.303078 
L 141.045088 111.387332 
L 141.434563 109.846941 
L 142.602988 109.956951 
L 142.992463 113.092759 
L 143.381938 112.762687 
L 143.771413 110.4521 
L 144.160888 115.513397 
L 145.329313 113.477856 
L 145.718788 113.477856 
L 146.108263 107.426302 
L 146.887213 104.235468 
L 148.055638 103.685335 
L 148.445113 107.8114 
L 148.834588 106.491071 
L 149.224063 110.672162 
L 149.613538 110.672162 
L 150.781963 109.461843 
L 151.171438 108.196498 
L 151.560913 109.131729 
L 152.339863 106.215983 
L 153.508288 109.736889 
L 153.897763 109.021719 
L 154.287238 103.630309 
L 154.676713 101.319722 
L 155.066188 101.814872 
L 156.234613 100.439517 
L 156.624088 96.698549 
L 157.013563 95.543256 
L 157.403038 100.934625 
L 157.792513 101.979908 
L 158.960938 100.494501 
L 159.739888 103.685335 
L 160.518838 94.718035 
L 161.687263 95.653266 
L 162.076738 93.012566 
L 162.466213 89.601712 
L 162.855688 87.896243 
L 163.245163 88.611455 
L 164.413588 88.8865 
L 164.803063 86.02578 
L 165.192538 85.365595 
L 165.582013 88.336367 
L 165.971488 86.63094 
L 167.139913 87.346109 
L 167.529388 90.481917 
L 167.918863 91.857272 
L 168.308338 92.682494 
L 168.697813 87.731207 
L 169.866238 85.255585 
L 170.255713 83.440106 
L 170.645188 85.475647 
L 171.034663 86.520888 
L 171.424138 85.860744 
L 172.592563 85.255585 
L 172.982038 81.184545 
L 173.371513 81.514617 
L 173.760988 78.983969 
L 174.150463 85.475647 
L 175.708363 80.02921 
L 176.097838 70.621786 
L 176.487313 73.207461 
L 176.876788 69.411509 
L 178.045213 63.745011 
L 178.434688 64.84532 
L 178.824163 63.910089 
L 179.213638 64.900304 
L 179.603113 60.609203 
L 180.771538 60.279131 
L 181.161013 59.673972 
L 181.550488 58.023529 
L 181.939963 64.295186 
L 182.329438 73.70261 
L 183.497863 70.9519 
L 183.887338 75.903145 
L 184.276813 76.178233 
L 184.666288 75.077965 
L 185.055763 75.408037 
L 186.224188 72.437265 
L 186.613663 70.071653 
L 187.003138 70.346741 
L 187.392613 67.210933 
L 187.782088 66.605773 
L 188.950513 66.825835 
L 189.339988 69.301457 
L 189.729463 68.586288 
L 190.118938 66.385711 
L 190.508413 61.049327 
L 191.676838 58.133581 
L 192.066313 60.884291 
L 192.455788 52.962232 
L 192.845263 55.107783 
L 193.234737 53.897463 
L 193.234737 53.897463 
" clip-path="url(#pdff1de9e73)" style="fill: none; stroke: #000000; stroke-linecap: square"/>
   </g>
   <g id="patch_3">
    <path d="M 36.88 168.607581 
L 36.88 26.88 
" style="fill: none; stroke: #000000; stroke-width: 0.8; stroke-linejoin: miter; stroke-linecap: square"/>
   </g>
   <g id="patch_4">
    <path d="M 349.2 168.607581 
L 349.2 26.88 
" style="fill: none; stroke: #000000; stroke-width: 0.8; stroke-linejoin: miter; stroke-linecap: square"/>
   </g>
   <g id="patch_5">
    <path d="M 36.88 168.607581 
L 349.2 168.607581 
" style="fill: none; stroke: #000000; stroke-width: 0.8; stroke-linejoin: miter; stroke-linecap: square"/>
   </g>
   <g id="patch_6">
    <path d="M 36.88 26.88 
L 349.2 26.88 
" style="fill: none; stroke: #000000; stroke-width: 0.8; stroke-linejoin: miter; stroke-linecap: square"/>
   </g>
   <g id="text_15">
    <!-- DXY -->
    <g transform="translate(180.645312 20.88) scale(0.12 -0.12)">
     <defs>
      <path id="DejaVuSans-44" d="M 1259 4147 
L 1259 519 
L 2022 519 
Q 2988 519 3436 956 
Q 3884 1394 3884 2338 
Q 3884 3275 3436 3711 
Q 2988 4147 2022 4147 
L 1259 4147 
z
M 628 4666 
L 1925 4666 
Q 3281 4666 3915 4102 
Q 4550 3538 4550 2338 
Q 4550 1131 3912 565 
Q 3275 0 1925 0 
L 628 0 
L 628 4666 
z
" transform="scale(0.015625)"/>
      <path id="DejaVuSans-58" d="M 403 4666 
L 1081 4666 
L 2241 2931 
L 3406 4666 
L 4084 4666 
L 2584 2425 
L 4184 0 
L 3506 0 
L 2194 1984 
L 872 0 
L 191 0 
L 1856 2491 
L 403 4666 
z
" transform="scale(0.015625)"/>
      <path id="DejaVuSans-59" d="M -13 4666 
L 666 4666 
L 1959 2747 
L 3244 4666 
L 3922 4666 
L 2272 2222 
L 2272 0 
L 1638 0 
L 1638 2222 
L -13 4666 
z
" transform="scale(0.015625)"/>
     </defs>
     <use xlink:href="#DejaVuSans-44"/>
     <use xlink:href="#DejaVuSans-58" x="77.001953"/>
     <use xlink:href="#DejaVuSans-59" x="145.507812"/>
    </g>
   </g>
  </g>
 </g>
 <defs>
  <clipPath id="pdff1de9e73">
   <rect x="36.88" y="26.88" width="312.32" height="141.727581"/>
  </clipPath>
 </defs>
</svg>
