<?xml version="1.0" encoding="utf-8" standalone="no"?>
<!DOCTYPE svg PUBLIC "-//W3C//DTD SVG 1.1//EN"
  "http://www.w3.org/Graphics/SVG/1.1/DTD/svg11.dtd">
<svg xmlns:xlink="http://www.w3.org/1999/xlink" width="360pt" height="216pt" viewBox="0 0 360 216" xmlns="http://www.w3.org/2000/svg" version="1.1">
 <metadata>
  <rdf:RDF xmlns:dc="http://purl.org/dc/elements/1.1/" xmlns:cc="http://creativecommons.org/ns#" xmlns:rdf="http://www.w3.org/1999/02/22-rdf-syntax-ns#">
   <cc:Work>
    <dc:type rdf:resource="http://purl.org/dc/dcmitype/StillImage"/>
    <dc:date>2023-03-24T15:59:36.299752</dc:date>
    <dc:format>image/svg+xml</dc:format>
    <dc:creator>
     <cc:Agent>
      <dc:title>Matplotlib v3.6.3, https://matplotlib.org/</dc:title>
     </cc:Agent>
    </dc:creator>
   </cc:Work>
  </rdf:RDF>
 </metadata>
 <defs>
  <style type="text/css">*{stroke-linejoin: round; stroke-linecap: butt}</style>
 </defs>
 <g id="figure_1">
  <g id="patch_1">
   <path d="M 0 216 
L 360 216 
L 360 0 
L 0 0 
z
" style="fill: #ffffff"/>
  </g>
  <g id="axes_1">
   <g id="patch_2">
    <path d="M 39.94 168.671221 
L 349.2 168.671221 
L 349.2 26.88 
L 39.94 26.88 
z
" style="fill: #ffffff"/>
   </g>
   <g id="matplotlib.axis_1">
    <g id="xtick_1">
     <g id="line2d_1">
      <defs>
       <path id="mbaa999a7a9" d="M 0 0 
L 0 3.5 
" style="stroke: #000000; stroke-width: 0.8"/>
      </defs>
      <g>
       <use xlink:href="#mbaa999a7a9" x="50.531096" y="168.671221" style="stroke: #000000; stroke-width: 0.8"/>
      </g>
     </g>
     <g id="text_1">
      <!-- '07-10 -->
      <g transform="translate(41.237061 203.534543) rotate(-45) scale(0.1 -0.1)">
       <defs>
        <path id="DejaVuSans-27" d="M 1147 4666 
L 1147 2931 
L 616 2931 
L 616 4666 
L 1147 4666 
z
" transform="scale(0.015625)"/>
        <path id="DejaVuSans-30" d="M 2034 4250 
Q 1547 4250 1301 3770 
Q 1056 3291 1056 2328 
Q 1056 1369 1301 889 
Q 1547 409 2034 409 
Q 2525 409 2770 889 
Q 3016 1369 3016 2328 
Q 3016 3291 2770 3770 
Q 2525 4250 2034 4250 
z
M 2034 4750 
Q 2819 4750 3233 4129 
Q 3647 3509 3647 2328 
Q 3647 1150 3233 529 
Q 2819 -91 2034 -91 
Q 1250 -91 836 529 
Q 422 1150 422 2328 
Q 422 3509 836 4129 
Q 1250 4750 2034 4750 
z
" transform="scale(0.015625)"/>
        <path id="DejaVuSans-37" d="M 525 4666 
L 3525 4666 
L 3525 4397 
L 1831 0 
L 1172 0 
L 2766 4134 
L 525 4134 
L 525 4666 
z
" transform="scale(0.015625)"/>
        <path id="DejaVuSans-2d" d="M 313 2009 
L 1997 2009 
L 1997 1497 
L 313 1497 
L 313 2009 
z
" transform="scale(0.015625)"/>
        <path id="DejaVuSans-31" d="M 794 531 
L 1825 531 
L 1825 4091 
L 703 3866 
L 703 4441 
L 1819 4666 
L 2450 4666 
L 2450 531 
L 3481 531 
L 3481 0 
L 794 0 
L 794 531 
z
" transform="scale(0.015625)"/>
       </defs>
       <use xlink:href="#DejaVuSans-27"/>
       <use xlink:href="#DejaVuSans-30" x="27.490234"/>
       <use xlink:href="#DejaVuSans-37" x="91.113281"/>
       <use xlink:href="#DejaVuSans-2d" x="154.736328"/>
       <use xlink:href="#DejaVuSans-31" x="190.820312"/>
       <use xlink:href="#DejaVuSans-30" x="254.443359"/>
      </g>
     </g>
    </g>
    <g id="xtick_2">
     <g id="line2d_2">
      <g>
       <use xlink:href="#mbaa999a7a9" x="85.963126" y="168.671221" style="stroke: #000000; stroke-width: 0.8"/>
      </g>
     </g>
     <g id="text_2">
      <!-- '08-01 -->
      <g transform="translate(76.669091 203.534543) rotate(-45) scale(0.1 -0.1)">
       <defs>
        <path id="DejaVuSans-38" d="M 2034 2216 
Q 1584 2216 1326 1975 
Q 1069 1734 1069 1313 
Q 1069 891 1326 650 
Q 1584 409 2034 409 
Q 2484 409 2743 651 
Q 3003 894 3003 1313 
Q 3003 1734 2745 1975 
Q 2488 2216 2034 2216 
z
M 1403 2484 
Q 997 2584 770 2862 
Q 544 3141 544 3541 
Q 544 4100 942 4425 
Q 1341 4750 2034 4750 
Q 2731 4750 3128 4425 
Q 3525 4100 3525 3541 
Q 3525 3141 3298 2862 
Q 3072 2584 2669 2484 
Q 3125 2378 3379 2068 
Q 3634 1759 3634 1313 
Q 3634 634 3220 271 
Q 2806 -91 2034 -91 
Q 1263 -91 848 271 
Q 434 634 434 1313 
Q 434 1759 690 2068 
Q 947 2378 1403 2484 
z
M 1172 3481 
Q 1172 3119 1398 2916 
Q 1625 2713 2034 2713 
Q 2441 2713 2670 2916 
Q 2900 3119 2900 3481 
Q 2900 3844 2670 4047 
Q 2441 4250 2034 4250 
Q 1625 4250 1398 4047 
Q 1172 3844 1172 3481 
z
" transform="scale(0.015625)"/>
       </defs>
       <use xlink:href="#DejaVuSans-27"/>
       <use xlink:href="#DejaVuSans-30" x="27.490234"/>
       <use xlink:href="#DejaVuSans-38" x="91.113281"/>
       <use xlink:href="#DejaVuSans-2d" x="154.736328"/>
       <use xlink:href="#DejaVuSans-30" x="190.820312"/>
       <use xlink:href="#DejaVuSans-31" x="254.443359"/>
      </g>
     </g>
    </g>
    <g id="xtick_3">
     <g id="line2d_3">
      <g>
       <use xlink:href="#mbaa999a7a9" x="121.010025" y="168.671221" style="stroke: #000000; stroke-width: 0.8"/>
      </g>
     </g>
     <g id="text_3">
      <!-- '08-04 -->
      <g transform="translate(111.71599 203.534543) rotate(-45) scale(0.1 -0.1)">
       <defs>
        <path id="DejaVuSans-34" d="M 2419 4116 
L 825 1625 
L 2419 1625 
L 2419 4116 
z
M 2253 4666 
L 3047 4666 
L 3047 1625 
L 3713 1625 
L 3713 1100 
L 3047 1100 
L 3047 0 
L 2419 0 
L 2419 1100 
L 313 1100 
L 313 1709 
L 2253 4666 
z
" transform="scale(0.015625)"/>
       </defs>
       <use xlink:href="#DejaVuSans-27"/>
       <use xlink:href="#DejaVuSans-30" x="27.490234"/>
       <use xlink:href="#DejaVuSans-38" x="91.113281"/>
       <use xlink:href="#DejaVuSans-2d" x="154.736328"/>
       <use xlink:href="#DejaVuSans-30" x="190.820312"/>
       <use xlink:href="#DejaVuSans-34" x="254.443359"/>
      </g>
     </g>
    </g>
    <g id="xtick_4">
     <g id="line2d_4">
      <g>
       <use xlink:href="#mbaa999a7a9" x="156.056924" y="168.671221" style="stroke: #000000; stroke-width: 0.8"/>
      </g>
     </g>
     <g id="text_4">
      <!-- '08-07 -->
      <g transform="translate(146.762889 203.534543) rotate(-45) scale(0.1 -0.1)">
       <use xlink:href="#DejaVuSans-27"/>
       <use xlink:href="#DejaVuSans-30" x="27.490234"/>
       <use xlink:href="#DejaVuSans-38" x="91.113281"/>
       <use xlink:href="#DejaVuSans-2d" x="154.736328"/>
       <use xlink:href="#DejaVuSans-30" x="190.820312"/>
       <use xlink:href="#DejaVuSans-37" x="254.443359"/>
      </g>
     </g>
    </g>
    <g id="xtick_5">
     <g id="line2d_5">
      <g>
       <use xlink:href="#mbaa999a7a9" x="191.488954" y="168.671221" style="stroke: #000000; stroke-width: 0.8"/>
      </g>
     </g>
     <g id="text_5">
      <!-- '08-10 -->
      <g transform="translate(182.194919 203.534543) rotate(-45) scale(0.1 -0.1)">
       <use xlink:href="#DejaVuSans-27"/>
       <use xlink:href="#DejaVuSans-30" x="27.490234"/>
       <use xlink:href="#DejaVuSans-38" x="91.113281"/>
       <use xlink:href="#DejaVuSans-2d" x="154.736328"/>
       <use xlink:href="#DejaVuSans-31" x="190.820312"/>
       <use xlink:href="#DejaVuSans-30" x="254.443359"/>
      </g>
     </g>
    </g>
    <g id="xtick_6">
     <g id="line2d_6">
      <g>
       <use xlink:href="#mbaa999a7a9" x="226.920984" y="168.671221" style="stroke: #000000; stroke-width: 0.8"/>
      </g>
     </g>
     <g id="text_6">
      <!-- '09-01 -->
      <g transform="translate(217.626949 203.534543) rotate(-45) scale(0.1 -0.1)">
       <defs>
        <path id="DejaVuSans-39" d="M 703 97 
L 703 672 
Q 941 559 1184 500 
Q 1428 441 1663 441 
Q 2288 441 2617 861 
Q 2947 1281 2994 2138 
Q 2813 1869 2534 1725 
Q 2256 1581 1919 1581 
Q 1219 1581 811 2004 
Q 403 2428 403 3163 
Q 403 3881 828 4315 
Q 1253 4750 1959 4750 
Q 2769 4750 3195 4129 
Q 3622 3509 3622 2328 
Q 3622 1225 3098 567 
Q 2575 -91 1691 -91 
Q 1453 -91 1209 -44 
Q 966 3 703 97 
z
M 1959 2075 
Q 2384 2075 2632 2365 
Q 2881 2656 2881 3163 
Q 2881 3666 2632 3958 
Q 2384 4250 1959 4250 
Q 1534 4250 1286 3958 
Q 1038 3666 1038 3163 
Q 1038 2656 1286 2365 
Q 1534 2075 1959 2075 
z
" transform="scale(0.015625)"/>
       </defs>
       <use xlink:href="#DejaVuSans-27"/>
       <use xlink:href="#DejaVuSans-30" x="27.490234"/>
       <use xlink:href="#DejaVuSans-39" x="91.113281"/>
       <use xlink:href="#DejaVuSans-2d" x="154.736328"/>
       <use xlink:href="#DejaVuSans-30" x="190.820312"/>
       <use xlink:href="#DejaVuSans-31" x="254.443359"/>
      </g>
     </g>
    </g>
    <g id="xtick_7">
     <g id="line2d_7">
      <g>
       <use xlink:href="#mbaa999a7a9" x="261.582752" y="168.671221" style="stroke: #000000; stroke-width: 0.8"/>
      </g>
     </g>
     <g id="text_7">
      <!-- '09-04 -->
      <g transform="translate(252.288717 203.534543) rotate(-45) scale(0.1 -0.1)">
       <use xlink:href="#DejaVuSans-27"/>
       <use xlink:href="#DejaVuSans-30" x="27.490234"/>
       <use xlink:href="#DejaVuSans-39" x="91.113281"/>
       <use xlink:href="#DejaVuSans-2d" x="154.736328"/>
       <use xlink:href="#DejaVuSans-30" x="190.820312"/>
       <use xlink:href="#DejaVuSans-34" x="254.443359"/>
      </g>
     </g>
    </g>
    <g id="xtick_8">
     <g id="line2d_8">
      <g>
       <use xlink:href="#mbaa999a7a9" x="296.629651" y="168.671221" style="stroke: #000000; stroke-width: 0.8"/>
      </g>
     </g>
     <g id="text_8">
      <!-- '09-07 -->
      <g transform="translate(287.335617 203.534543) rotate(-45) scale(0.1 -0.1)">
       <use xlink:href="#DejaVuSans-27"/>
       <use xlink:href="#DejaVuSans-30" x="27.490234"/>
       <use xlink:href="#DejaVuSans-39" x="91.113281"/>
       <use xlink:href="#DejaVuSans-2d" x="154.736328"/>
       <use xlink:href="#DejaVuSans-30" x="190.820312"/>
       <use xlink:href="#DejaVuSans-37" x="254.443359"/>
      </g>
     </g>
    </g>
    <g id="xtick_9">
     <g id="line2d_9">
      <g>
       <use xlink:href="#mbaa999a7a9" x="332.061681" y="168.671221" style="stroke: #000000; stroke-width: 0.8"/>
      </g>
     </g>
     <g id="text_9">
      <!-- '09-10 -->
      <g transform="translate(322.767646 203.534543) rotate(-45) scale(0.1 -0.1)">
       <use xlink:href="#DejaVuSans-27"/>
       <use xlink:href="#DejaVuSans-30" x="27.490234"/>
       <use xlink:href="#DejaVuSans-39" x="91.113281"/>
       <use xlink:href="#DejaVuSans-2d" x="154.736328"/>
       <use xlink:href="#DejaVuSans-31" x="190.820312"/>
       <use xlink:href="#DejaVuSans-30" x="254.443359"/>
      </g>
     </g>
    </g>
   </g>
   <g id="matplotlib.axis_2">
    <g id="ytick_1">
     <g id="line2d_10">
      <defs>
       <path id="mac0e00c7c6" d="M 0 0 
L -3.5 0 
" style="stroke: #000000; stroke-width: 0.8"/>
      </defs>
      <g>
       <use xlink:href="#mac0e00c7c6" x="39.94" y="135.619481" style="stroke: #000000; stroke-width: 0.8"/>
      </g>
     </g>
     <g id="text_10">
      <!-- 75 -->
      <g transform="translate(20.215 139.4187) scale(0.1 -0.1)">
       <defs>
        <path id="DejaVuSans-35" d="M 691 4666 
L 3169 4666 
L 3169 4134 
L 1269 4134 
L 1269 2991 
Q 1406 3038 1543 3061 
Q 1681 3084 1819 3084 
Q 2600 3084 3056 2656 
Q 3513 2228 3513 1497 
Q 3513 744 3044 326 
Q 2575 -91 1722 -91 
Q 1428 -91 1123 -41 
Q 819 9 494 109 
L 494 744 
Q 775 591 1075 516 
Q 1375 441 1709 441 
Q 2250 441 2565 725 
Q 2881 1009 2881 1497 
Q 2881 1984 2565 2268 
Q 2250 2553 1709 2553 
Q 1456 2553 1204 2497 
Q 953 2441 691 2322 
L 691 4666 
z
" transform="scale(0.015625)"/>
       </defs>
       <use xlink:href="#DejaVuSans-37"/>
       <use xlink:href="#DejaVuSans-35" x="63.623047"/>
      </g>
     </g>
    </g>
    <g id="ytick_2">
     <g id="line2d_11">
      <g>
       <use xlink:href="#mac0e00c7c6" x="39.94" y="99.370573" style="stroke: #000000; stroke-width: 0.8"/>
      </g>
     </g>
     <g id="text_11">
      <!-- 80 -->
      <g transform="translate(20.215 103.169792) scale(0.1 -0.1)">
       <use xlink:href="#DejaVuSans-38"/>
       <use xlink:href="#DejaVuSans-30" x="63.623047"/>
      </g>
     </g>
    </g>
    <g id="ytick_3">
     <g id="line2d_12">
      <g>
       <use xlink:href="#mac0e00c7c6" x="39.94" y="63.121665" style="stroke: #000000; stroke-width: 0.8"/>
      </g>
     </g>
     <g id="text_12">
      <!-- 85 -->
      <g transform="translate(20.215 66.920884) scale(0.1 -0.1)">
       <use xlink:href="#DejaVuSans-38"/>
       <use xlink:href="#DejaVuSans-35" x="63.623047"/>
      </g>
     </g>
    </g>
   </g>
   <g id="line2d_13">
    <path d="M 194.57 90.960798 
L 194.955131 77.621228 
M 196.110523 85.741006 
L 196.495654 89.510863 
L 196.880785 84.508499 
L 197.265915 81.536118 
L 197.651046 81.898571 
M 198.806438 76.896265 
L 199.191569 70.443959 
L 199.5767 60.439224 
L 199.961831 60.511737 
L 200.346961 52.681965 
M 201.502354 49.129587 
L 201.887484 48.404616 
L 202.272615 62.61418 
L 202.657746 66.311584 
L 203.042877 58.554325 
M 204.198269 53.334474 
L 204.5834 64.716624 
L 204.968531 65.949073 
L 205.353661 56.669367 
L 205.738792 56.524335 
M 206.894184 56.524335 
L 207.279315 48.114617 
L 207.664446 45.214697 
L 208.434707 53.261955 
M 209.5901 49.999575 
L 209.97523 45.939661 
L 210.360361 46.374684 
L 210.745492 41.589807 
L 211.130623 39.994847 
M 212.286015 55.291887 
L 212.671146 63.121665 
L 213.056276 58.264326 
L 213.826538 52.102019 
M 214.98193 50.652034 
L 215.367061 50.797058 
L 215.752192 48.404616 
L 216.137323 52.681965 
L 216.522453 47.752106 
M 217.677846 59.061802 
L 218.062976 57.031878 
L 218.448107 59.641748 
L 218.833238 71.603895 
L 219.218369 72.981375 
M 220.373761 82.913591 
L 221.144022 107.272806 
L 221.529153 103.21295 
L 221.914284 89.945835 
M 223.069676 91.46834 
L 223.454807 90.380859 
L 223.839938 90.598345 
L 224.610199 92.918275 
M 225.765592 94.440722 
L 226.150722 92.845755 
L 226.535853 89.873374 
L 227.306115 86.031004 
M 228.461507 80.231157 
L 228.846638 78.70871 
L 229.231768 82.841078 
L 229.616899 88.205902 
L 230.00203 80.086125 
M 231.157422 77.476255 
L 231.542553 68.414027 
L 231.927684 67.326553 
L 232.312814 67.181528 
L 232.697945 68.849 
M 234.238468 54.276924 
L 235.00873 59.3518 
L 235.393861 58.699291 
M 236.549253 65.079084 
L 236.934384 67.254041 
L 237.319514 65.514108 
L 238.089776 55.871884 
M 239.245168 55.364399 
L 239.630299 62.759154 
L 240.01543 58.04684 
L 240.40056 55.436911 
L 240.785691 60.584256 
M 241.941083 64.644112 
L 242.326214 57.249357 
L 242.711345 57.466843 
L 243.096476 51.884482 
L 243.481606 55.581885 
M 245.02213 44.417214 
L 245.40726 41.299808 
L 245.792391 45.432184 
L 246.177522 52.319505 
M 247.332914 46.882169 
L 247.718045 49.419585 
L 248.103176 42.024772 
L 248.488306 43.32974 
L 248.873437 41.299808 
M 250.028829 34.557511 
L 250.41396 34.77499 
L 250.799091 37.167432 
L 251.184222 33.325055 
L 251.569352 37.674917 
M 252.724745 34.050026 
L 253.109875 34.630023 
L 253.495006 42.31477 
L 254.265268 45.504696 
M 255.42066 48.984613 
L 255.805791 49.129587 
L 256.190922 66.021592 
L 256.576052 76.678779 
L 256.961183 71.531441 
M 258.116575 74.503822 
L 258.501706 71.386409 
L 258.886837 71.74892 
L 259.271968 69.138998 
L 259.657098 62.324182 
M 260.812491 56.814333 
L 261.197621 60.004259 
L 261.582752 59.496774 
L 261.967883 67.109067 
L 262.353014 69.138998 
M 263.508406 66.239071 
L 263.893537 61.019221 
L 264.278667 60.511737 
L 264.663798 57.39433 
M 266.204321 65.731594 
L 266.589452 65.731594 
L 266.974583 62.541668 
L 267.359714 61.454194 
L 267.744844 56.016857 
M 268.900237 51.232031 
L 269.285367 51.666996 
L 269.670498 54.494411 
L 270.44076 65.224109 
M 271.596152 58.04684 
L 272.366413 66.964042 
L 272.751544 65.949073 
L 273.136675 66.384045 
M 274.292067 70.588933 
L 274.677198 69.211453 
L 275.062329 71.821381 
L 275.44746 70.806419 
L 275.83259 81.028633 
M 276.987983 79.941159 
L 277.373113 82.623592 
L 277.758244 81.246119 
L 278.143375 82.841078 
L 278.528506 77.476255 
M 279.683898 80.013671 
L 280.069029 85.015984 
L 280.454159 92.193304 
L 280.83929 95.31071 
L 281.224421 99.660572 
M 282.764944 98.428123 
L 283.150075 96.978131 
L 283.535205 96.253167 
L 283.920336 96.253167 
M 285.075729 105.387906 
L 285.460859 110.970209 
L 285.84599 102.995464 
L 286.231121 103.647915 
L 286.616252 94.513234 
M 287.771644 92.773243 
L 288.156775 100.89302 
L 288.541905 96.978131 
L 288.927036 103.647915 
L 289.312167 98.355611 
M 290.467559 91.105829 
L 291.237821 98.138125 
L 291.622951 94.948199 
L 292.008082 97.485616 
M 293.163474 93.715751 
L 293.548605 100.530567 
L 293.933736 95.31071 
L 294.318867 96.470646 
L 294.703998 100.240569 
M 295.85939 100.530567 
L 296.244521 98.428123 
L 296.629651 102.053014 
L 297.014782 98.283091 
M 298.555305 96.108193 
L 299.325567 93.788263 
L 299.710697 100.385535 
L 300.095828 97.703102 
M 301.25122 98.428123 
L 301.636351 98.065613 
L 302.021482 104.300425 
L 302.406613 105.025396 
L 302.791743 104.082946 
M 303.947136 107.272806 
L 304.332267 107.12784 
L 304.717397 108.722799 
L 305.102528 108.070289 
L 305.487659 108.4328 
M 306.643051 109.302796 
L 307.028182 107.707837 
L 307.413313 102.053014 
L 307.798443 104.517911 
L 308.183574 111.332727 
M 309.338966 116.480065 
L 309.724097 115.537608 
L 310.109228 117.350053 
L 310.494359 113.362652 
L 310.879489 106.837841 
M 312.034882 104.735397 
L 312.420012 105.315394 
L 313.190274 110.317758 
L 313.575405 107.417838 
M 314.730797 104.517911 
L 315.115928 107.055327 
L 315.501059 110.462732 
L 315.886189 111.115241 
L 316.27132 113.580138 
M 317.426712 111.912717 
L 317.811843 112.130203 
L 318.196974 109.085252 
L 318.582105 113.797624 
L 318.967235 111.187696 
M 320.122628 112.637688 
L 320.507758 108.360288 
L 320.892889 111.115241 
L 321.27802 110.535244 
L 321.663151 112.855174 
M 323.203674 118.799988 
L 324.359066 123.947326 
M 325.514458 123.294874 
L 325.899589 124.45481 
L 326.28472 126.629767 
L 326.669851 126.992227 
L 327.054981 125.252294 
M 328.210374 122.714877 
L 328.595504 127.499704 
L 328.980635 128.007189 
L 329.365766 121.844882 
L 329.750897 122.497391 
M 330.906289 120.757407 
L 331.29142 120.249923 
L 331.67655 123.657327 
L 332.061681 119.742445 
L 332.446812 121.119918 
M 333.602204 123.729847 
L 333.987335 125.904803 
L 334.372466 124.817321 
L 334.757597 128.587186 
L 335.142727 125.252294 
L 335.142727 125.252294 
" clip-path="url(#pcb321a93cb)" style="fill: none; stroke: #d3d3d3; stroke-linecap: square"/>
   </g>
   <g id="line2d_14">
    <path d="M 53.997273 111.115241 
L 54.382403 113.290139 
L 54.767534 112.275177 
M 55.922927 113.217685 
L 56.308057 112.057691 
L 56.693188 113.000141 
L 57.078319 116.842576 
L 57.46345 118.147479 
M 58.618842 113.435164 
L 59.003973 116.842576 
L 59.389103 117.132516 
L 60.159365 120.902432 
M 61.314757 122.279912 
L 61.699888 122.78739 
L 62.085019 124.889783 
L 62.470149 124.092358 
L 62.85528 125.904803 
M 64.010672 125.252294 
L 64.395803 128.079701 
L 64.780934 132.647042 
L 65.166065 132.284589 
L 65.551196 132.719554 
M 66.706588 129.094663 
L 67.091719 129.239695 
L 67.476849 129.747173 
L 67.86198 127.862215 
L 68.247111 129.602148 
M 69.402503 129.964659 
L 69.787634 134.097034 
L 70.172765 135.111997 
L 70.943026 135.25697 
M 72.098418 136.634443 
L 72.483549 134.894518 
L 72.86868 135.039484 
L 73.638941 127.282218 
M 74.794334 128.877184 
L 75.179465 130.617117 
L 75.564595 125.39726 
L 75.949726 125.614804 
L 76.334857 126.267256 
M 77.490249 127.934727 
L 77.87538 126.77474 
L 78.260511 127.354738 
L 78.645641 124.309836 
L 79.030772 117.93 
M 80.186164 118.219991 
L 80.571295 118.147479 
L 81.341557 115.392583 
L 81.726687 115.900068 
M 82.88208 116.987543 
L 83.652341 120.032436 
L 84.422603 126.77474 
M 85.577995 123.294874 
L 86.348257 128.587186 
L 87.118518 129.892147 
M 88.27391 127.137251 
L 88.659041 127.572216 
L 89.044172 125.324806 
L 89.429303 128.877184 
L 89.814433 128.514674 
M 90.969826 131.197107 
L 91.354956 131.487106 
L 91.740087 126.484742 
L 92.125218 127.137251 
L 92.510349 125.614804 
M 94.050872 125.832291 
L 94.436002 125.469773 
L 94.821133 130.617117 
L 95.206264 128.587186 
M 96.361656 131.414593 
L 96.746787 131.704592 
L 97.131918 135.401995 
L 97.517049 134.314521 
L 97.902179 132.357101 
M 99.057572 132.93704 
L 99.442702 127.499704 
L 99.827833 127.354738 
L 100.212964 121.55489 
L 100.598095 123.512361 
M 101.753487 124.164812 
L 102.138618 126.04977 
L 102.523748 125.469773 
L 102.908879 127.282218 
L 103.29401 127.644736 
M 104.834533 128.3697 
L 105.219664 127.499704 
L 105.604795 131.269627 
L 105.989925 131.849617 
M 107.145318 131.777104 
L 107.915579 141.346816 
L 108.30071 144.899195 
L 108.685841 144.971707 
M 109.841233 145.044219 
L 110.226364 145.33416 
L 110.611494 146.639128 
L 110.996625 150.119045 
L 111.381756 149.901558 
M 112.537148 150.191557 
L 112.922279 148.089113 
L 113.30741 154.468899 
L 114.077671 159.833723 
M 115.233064 161.283715 
L 115.618194 160.486232 
L 116.388456 151.93149 
M 117.928979 150.481555 
L 118.69924 160.921205 
L 119.084371 159.833723 
L 119.469502 159.688756 
M 120.624894 158.818761 
L 121.010025 153.308963 
L 121.395156 155.483868 
L 121.780286 155.773867 
L 122.165417 157.223852 
M 123.320809 155.918892 
L 123.70594 155.701355 
L 124.091071 158.601275 
L 124.476202 156.498831 
L 124.861333 158.746299 
M 126.016725 158.238822 
L 126.401856 157.223852 
L 126.786986 161.646168 
L 127.557248 157.296314 
M 128.71264 159.906235 
L 129.097771 162.226165 
L 129.482902 158.673787 
L 129.868032 153.453937 
L 130.253163 151.641491 
M 131.408555 151.641491 
L 131.793686 150.916528 
L 132.178817 153.671423 
L 132.563948 148.089113 
L 132.949078 146.494154 
M 134.104471 148.741572 
L 134.489601 150.119045 
L 134.874732 146.421641 
L 135.259863 146.639128 
L 135.644994 149.756534 
M 136.800386 150.481555 
L 137.185517 148.161625 
L 137.570648 147.219117 
L 137.955778 147.581635 
L 138.340909 151.279039 
M 139.496301 149.829046 
L 140.266563 157.803799 
L 140.651694 155.338895 
L 141.036824 158.166309 
M 142.577347 154.903929 
L 142.962478 153.381425 
L 143.347609 149.974071 
L 143.73274 150.98904 
M 144.888132 150.626529 
L 145.273263 148.379111 
L 145.658394 147.074151 
L 146.043524 149.829046 
L 146.428655 154.541419 
M 147.584047 151.206526 
L 147.969178 145.044219 
L 148.354309 148.596598 
L 148.73944 143.884225 
L 149.12457 141.781781 
M 150.279963 145.69667 
L 151.050224 146.929126 
L 151.435355 146.639128 
L 151.820486 149.901558 
M 152.975878 147.001638 
L 153.361009 148.379111 
L 153.746139 150.626529 
L 154.13127 153.816448 
L 154.516401 154.758898 
M 155.671793 154.033934 
L 156.056924 154.686385 
L 156.442055 157.15134 
L 156.827186 152.004002 
M 158.367709 152.511487 
L 158.752839 150.046532 
L 159.13797 153.163938 
L 159.523101 153.816448 
L 159.908232 156.643862 
M 161.063624 157.948823 
L 161.448755 158.311276 
L 162.219016 155.628893 
L 162.604147 155.991353 
M 163.759539 157.441338 
L 164.529801 151.496518 
L 164.914932 150.626529 
L 165.300062 151.134007 
M 166.455455 152.656454 
L 166.840585 147.871627 
L 167.225716 147.799114 
L 167.610847 148.451573 
L 167.995978 147.074151 
M 169.15137 146.784152 
L 169.921631 141.12933 
L 170.306762 138.881861 
L 170.691893 129.457181 
M 171.847285 127.42725 
L 172.232416 127.282218 
L 172.617547 126.847253 
L 173.387808 119.814957 
M 174.5432 120.249923 
L 174.928331 122.279912 
L 175.313462 121.409917 
L 175.698593 126.919765 
L 176.083724 122.497391 
M 177.239116 122.642365 
L 177.624247 119.307473 
L 178.009377 120.757407 
L 178.394508 120.032436 
L 178.779639 118.365023 
M 180.320162 113.435164 
L 180.705293 113.217685 
L 181.090423 109.447762 
L 181.475554 107.12784 
M 182.630946 102.343013 
L 183.016077 104.807909 
L 183.401208 100.458055 
L 183.786339 98.283091 
L 184.171469 106.837841 
M 185.326862 107.272806 
L 185.711993 106.11287 
L 186.097123 113.145173 
L 186.482254 113.725163 
L 186.867385 116.190067 
M 188.022777 127.282218 
L 188.793039 122.642365 
L 189.178169 121.19243 
L 189.5633 121.482429 
M 190.718692 117.712513 
L 191.103823 103.357975 
L 191.488954 103.285463 
L 191.874085 96.180655 
L 192.259215 97.123155 
M 193.414608 87.19094 
L 193.799738 92.338278 
L 194.184869 92.773243 
L 194.57 90.960798 
L 194.57 90.960798 
" clip-path="url(#pcb321a93cb)" style="fill: none; stroke: #000000; stroke-linecap: square"/>
   </g>
   <g id="patch_3">
    <path d="M 39.94 168.671221 
L 39.94 26.88 
" style="fill: none; stroke: #000000; stroke-width: 0.8; stroke-linejoin: miter; stroke-linecap: square"/>
   </g>
   <g id="patch_4">
    <path d="M 349.2 168.671221 
L 349.2 26.88 
" style="fill: none; stroke: #000000; stroke-width: 0.8; stroke-linejoin: miter; stroke-linecap: square"/>
   </g>
   <g id="patch_5">
    <path d="M 39.94 168.671221 
L 349.2 168.671221 
" style="fill: none; stroke: #000000; stroke-width: 0.8; stroke-linejoin: miter; stroke-linecap: square"/>
   </g>
   <g id="patch_6">
    <path d="M 39.94 26.88 
L 349.2 26.88 
" style="fill: none; stroke: #000000; stroke-width: 0.8; stroke-linejoin: miter; stroke-linecap: square"/>
   </g>
   <g id="text_13">
    <!-- Dollar -->
    <g transform="translate(176.801562 20.88) scale(0.12 -0.12)">
     <defs>
      <path id="DejaVuSans-44" d="M 1259 4147 
L 1259 519 
L 2022 519 
Q 2988 519 3436 956 
Q 3884 1394 3884 2338 
Q 3884 3275 3436 3711 
Q 2988 4147 2022 4147 
L 1259 4147 
z
M 628 4666 
L 1925 4666 
Q 3281 4666 3915 4102 
Q 4550 3538 4550 2338 
Q 4550 1131 3912 565 
Q 3275 0 1925 0 
L 628 0 
L 628 4666 
z
" transform="scale(0.015625)"/>
      <path id="DejaVuSans-6f" d="M 1959 3097 
Q 1497 3097 1228 2736 
Q 959 2375 959 1747 
Q 959 1119 1226 758 
Q 1494 397 1959 397 
Q 2419 397 2687 759 
Q 2956 1122 2956 1747 
Q 2956 2369 2687 2733 
Q 2419 3097 1959 3097 
z
M 1959 3584 
Q 2709 3584 3137 3096 
Q 3566 2609 3566 1747 
Q 3566 888 3137 398 
Q 2709 -91 1959 -91 
Q 1206 -91 779 398 
Q 353 888 353 1747 
Q 353 2609 779 3096 
Q 1206 3584 1959 3584 
z
" transform="scale(0.015625)"/>
      <path id="DejaVuSans-6c" d="M 603 4863 
L 1178 4863 
L 1178 0 
L 603 0 
L 603 4863 
z
" transform="scale(0.015625)"/>
      <path id="DejaVuSans-61" d="M 2194 1759 
Q 1497 1759 1228 1600 
Q 959 1441 959 1056 
Q 959 750 1161 570 
Q 1363 391 1709 391 
Q 2188 391 2477 730 
Q 2766 1069 2766 1631 
L 2766 1759 
L 2194 1759 
z
M 3341 1997 
L 3341 0 
L 2766 0 
L 2766 531 
Q 2569 213 2275 61 
Q 1981 -91 1556 -91 
Q 1019 -91 701 211 
Q 384 513 384 1019 
Q 384 1609 779 1909 
Q 1175 2209 1959 2209 
L 2766 2209 
L 2766 2266 
Q 2766 2663 2505 2880 
Q 2244 3097 1772 3097 
Q 1472 3097 1187 3025 
Q 903 2953 641 2809 
L 641 3341 
Q 956 3463 1253 3523 
Q 1550 3584 1831 3584 
Q 2591 3584 2966 3190 
Q 3341 2797 3341 1997 
z
" transform="scale(0.015625)"/>
      <path id="DejaVuSans-72" d="M 2631 2963 
Q 2534 3019 2420 3045 
Q 2306 3072 2169 3072 
Q 1681 3072 1420 2755 
Q 1159 2438 1159 1844 
L 1159 0 
L 581 0 
L 581 3500 
L 1159 3500 
L 1159 2956 
Q 1341 3275 1631 3429 
Q 1922 3584 2338 3584 
Q 2397 3584 2469 3576 
Q 2541 3569 2628 3553 
L 2631 2963 
z
" transform="scale(0.015625)"/>
     </defs>
     <use xlink:href="#DejaVuSans-44"/>
     <use xlink:href="#DejaVuSans-6f" x="77.001953"/>
     <use xlink:href="#DejaVuSans-6c" x="138.183594"/>
     <use xlink:href="#DejaVuSans-6c" x="165.966797"/>
     <use xlink:href="#DejaVuSans-61" x="193.75"/>
     <use xlink:href="#DejaVuSans-72" x="255.029297"/>
    </g>
   </g>
  </g>
 </g>
 <defs>
  <clipPath id="pcb321a93cb">
   <rect x="39.94" y="26.88" width="309.26" height="141.791221"/>
  </clipPath>
 </defs>
</svg>
