<?xml version="1.0" encoding="utf-8" standalone="no"?>
<!DOCTYPE svg PUBLIC "-//W3C//DTD SVG 1.1//EN"
  "http://www.w3.org/Graphics/SVG/1.1/DTD/svg11.dtd">
<svg xmlns:xlink="http://www.w3.org/1999/xlink" width="360pt" height="216pt" viewBox="0 0 360 216" xmlns="http://www.w3.org/2000/svg" version="1.1">
 <metadata>
  <rdf:RDF xmlns:dc="http://purl.org/dc/elements/1.1/" xmlns:cc="http://creativecommons.org/ns#" xmlns:rdf="http://www.w3.org/1999/02/22-rdf-syntax-ns#">
   <cc:Work>
    <dc:type rdf:resource="http://purl.org/dc/dcmitype/StillImage"/>
    <dc:date>2022-08-15T13:20:43.783771</dc:date>
    <dc:format>image/svg+xml</dc:format>
    <dc:creator>
     <cc:Agent>
      <dc:title>Matplotlib v3.5.2, https://matplotlib.org/</dc:title>
     </cc:Agent>
    </dc:creator>
   </cc:Work>
  </rdf:RDF>
 </metadata>
 <defs>
  <style type="text/css">*{stroke-linejoin: round; stroke-linecap: butt}</style>
 </defs>
 <g id="figure_1">
  <g id="patch_1">
   <path d="M 0 216 
L 360 216 
L 360 0 
L 0 0 
L 0 216 
z
" style="fill: none"/>
  </g>
  <g id="axes_1">
   <g id="patch_2">
    <path d="M 40.05 168.678292 
L 346.933103 168.678292 
L 346.933103 26.8 
L 40.05 26.8 
z
" style="fill: #ffffff"/>
   </g>
   <g id="matplotlib.axis_1">
    <g id="xtick_1">
     <g id="line2d_1">
      <path d="M 53.488739 168.678292 
L 53.488739 26.8 
" clip-path="url(#p0e864002aa)" style="fill: none; stroke: #f0f0f0; stroke-width: 0.8; stroke-linecap: square"/>
     </g>
     <g id="line2d_2">
      <defs>
       <path id="m156a0a3374" d="M 0 0 
L 0 3.5 
" style="stroke: #000000; stroke-width: 0.8"/>
      </defs>
      <g>
       <use xlink:href="#m156a0a3374" x="53.488739" y="168.678292" style="stroke: #000000; stroke-width: 0.8"/>
      </g>
     </g>
     <g id="text_1">
      <!-- '00-01 -->
      <g transform="translate(44.194704 203.541614)rotate(-45)scale(0.1 -0.1)">
       <defs>
        <path id="DejaVuSans-27" d="M 1147 4666 
L 1147 2931 
L 616 2931 
L 616 4666 
L 1147 4666 
z
" transform="scale(0.015625)"/>
        <path id="DejaVuSans-30" d="M 2034 4250 
Q 1547 4250 1301 3770 
Q 1056 3291 1056 2328 
Q 1056 1369 1301 889 
Q 1547 409 2034 409 
Q 2525 409 2770 889 
Q 3016 1369 3016 2328 
Q 3016 3291 2770 3770 
Q 2525 4250 2034 4250 
z
M 2034 4750 
Q 2819 4750 3233 4129 
Q 3647 3509 3647 2328 
Q 3647 1150 3233 529 
Q 2819 -91 2034 -91 
Q 1250 -91 836 529 
Q 422 1150 422 2328 
Q 422 3509 836 4129 
Q 1250 4750 2034 4750 
z
" transform="scale(0.015625)"/>
        <path id="DejaVuSans-2d" d="M 313 2009 
L 1997 2009 
L 1997 1497 
L 313 1497 
L 313 2009 
z
" transform="scale(0.015625)"/>
        <path id="DejaVuSans-31" d="M 794 531 
L 1825 531 
L 1825 4091 
L 703 3866 
L 703 4441 
L 1819 4666 
L 2450 4666 
L 2450 531 
L 3481 531 
L 3481 0 
L 794 0 
L 794 531 
z
" transform="scale(0.015625)"/>
       </defs>
       <use xlink:href="#DejaVuSans-27"/>
       <use xlink:href="#DejaVuSans-30" x="27.490234"/>
       <use xlink:href="#DejaVuSans-30" x="91.113281"/>
       <use xlink:href="#DejaVuSans-2d" x="154.736328"/>
       <use xlink:href="#DejaVuSans-30" x="190.820312"/>
       <use xlink:href="#DejaVuSans-31" x="254.443359"/>
      </g>
     </g>
    </g>
    <g id="xtick_2">
     <g id="line2d_3">
      <path d="M 84.373589 168.678292 
L 84.373589 26.8 
" clip-path="url(#p0e864002aa)" style="fill: none; stroke: #f0f0f0; stroke-width: 0.8; stroke-linecap: square"/>
     </g>
     <g id="line2d_4">
      <g>
       <use xlink:href="#m156a0a3374" x="84.373589" y="168.678292" style="stroke: #000000; stroke-width: 0.8"/>
      </g>
     </g>
     <g id="text_2">
      <!-- '00-05 -->
      <g transform="translate(75.079554 203.541614)rotate(-45)scale(0.1 -0.1)">
       <defs>
        <path id="DejaVuSans-35" d="M 691 4666 
L 3169 4666 
L 3169 4134 
L 1269 4134 
L 1269 2991 
Q 1406 3038 1543 3061 
Q 1681 3084 1819 3084 
Q 2600 3084 3056 2656 
Q 3513 2228 3513 1497 
Q 3513 744 3044 326 
Q 2575 -91 1722 -91 
Q 1428 -91 1123 -41 
Q 819 9 494 109 
L 494 744 
Q 775 591 1075 516 
Q 1375 441 1709 441 
Q 2250 441 2565 725 
Q 2881 1009 2881 1497 
Q 2881 1984 2565 2268 
Q 2250 2553 1709 2553 
Q 1456 2553 1204 2497 
Q 953 2441 691 2322 
L 691 4666 
z
" transform="scale(0.015625)"/>
       </defs>
       <use xlink:href="#DejaVuSans-27"/>
       <use xlink:href="#DejaVuSans-30" x="27.490234"/>
       <use xlink:href="#DejaVuSans-30" x="91.113281"/>
       <use xlink:href="#DejaVuSans-2d" x="154.736328"/>
       <use xlink:href="#DejaVuSans-30" x="190.820312"/>
       <use xlink:href="#DejaVuSans-35" x="254.443359"/>
      </g>
     </g>
    </g>
    <g id="xtick_3">
     <g id="line2d_5">
      <path d="M 115.768932 168.678292 
L 115.768932 26.8 
" clip-path="url(#p0e864002aa)" style="fill: none; stroke: #f0f0f0; stroke-width: 0.8; stroke-linecap: square"/>
     </g>
     <g id="line2d_6">
      <g>
       <use xlink:href="#m156a0a3374" x="115.768932" y="168.678292" style="stroke: #000000; stroke-width: 0.8"/>
      </g>
     </g>
     <g id="text_3">
      <!-- '00-09 -->
      <g transform="translate(106.474898 203.541614)rotate(-45)scale(0.1 -0.1)">
       <defs>
        <path id="DejaVuSans-39" d="M 703 97 
L 703 672 
Q 941 559 1184 500 
Q 1428 441 1663 441 
Q 2288 441 2617 861 
Q 2947 1281 2994 2138 
Q 2813 1869 2534 1725 
Q 2256 1581 1919 1581 
Q 1219 1581 811 2004 
Q 403 2428 403 3163 
Q 403 3881 828 4315 
Q 1253 4750 1959 4750 
Q 2769 4750 3195 4129 
Q 3622 3509 3622 2328 
Q 3622 1225 3098 567 
Q 2575 -91 1691 -91 
Q 1453 -91 1209 -44 
Q 966 3 703 97 
z
M 1959 2075 
Q 2384 2075 2632 2365 
Q 2881 2656 2881 3163 
Q 2881 3666 2632 3958 
Q 2384 4250 1959 4250 
Q 1534 4250 1286 3958 
Q 1038 3666 1038 3163 
Q 1038 2656 1286 2365 
Q 1534 2075 1959 2075 
z
" transform="scale(0.015625)"/>
       </defs>
       <use xlink:href="#DejaVuSans-27"/>
       <use xlink:href="#DejaVuSans-30" x="27.490234"/>
       <use xlink:href="#DejaVuSans-30" x="91.113281"/>
       <use xlink:href="#DejaVuSans-2d" x="154.736328"/>
       <use xlink:href="#DejaVuSans-30" x="190.820312"/>
       <use xlink:href="#DejaVuSans-39" x="254.443359"/>
      </g>
     </g>
    </g>
    <g id="xtick_4">
     <g id="line2d_7">
      <path d="M 146.909029 168.678292 
L 146.909029 26.8 
" clip-path="url(#p0e864002aa)" style="fill: none; stroke: #f0f0f0; stroke-width: 0.8; stroke-linecap: square"/>
     </g>
     <g id="line2d_8">
      <g>
       <use xlink:href="#m156a0a3374" x="146.909029" y="168.678292" style="stroke: #000000; stroke-width: 0.8"/>
      </g>
     </g>
     <g id="text_4">
      <!-- '01-01 -->
      <g transform="translate(137.614995 203.541614)rotate(-45)scale(0.1 -0.1)">
       <use xlink:href="#DejaVuSans-27"/>
       <use xlink:href="#DejaVuSans-30" x="27.490234"/>
       <use xlink:href="#DejaVuSans-31" x="91.113281"/>
       <use xlink:href="#DejaVuSans-2d" x="154.736328"/>
       <use xlink:href="#DejaVuSans-30" x="190.820312"/>
       <use xlink:href="#DejaVuSans-31" x="254.443359"/>
      </g>
     </g>
    </g>
    <g id="xtick_5">
     <g id="line2d_9">
      <path d="M 177.538633 168.678292 
L 177.538633 26.8 
" clip-path="url(#p0e864002aa)" style="fill: none; stroke: #f0f0f0; stroke-width: 0.8; stroke-linecap: square"/>
     </g>
     <g id="line2d_10">
      <g>
       <use xlink:href="#m156a0a3374" x="177.538633" y="168.678292" style="stroke: #000000; stroke-width: 0.8"/>
      </g>
     </g>
     <g id="text_5">
      <!-- '01-05 -->
      <g transform="translate(168.244598 203.541614)rotate(-45)scale(0.1 -0.1)">
       <use xlink:href="#DejaVuSans-27"/>
       <use xlink:href="#DejaVuSans-30" x="27.490234"/>
       <use xlink:href="#DejaVuSans-31" x="91.113281"/>
       <use xlink:href="#DejaVuSans-2d" x="154.736328"/>
       <use xlink:href="#DejaVuSans-30" x="190.820312"/>
       <use xlink:href="#DejaVuSans-35" x="254.443359"/>
      </g>
     </g>
    </g>
    <g id="xtick_6">
     <g id="line2d_11">
      <path d="M 208.933977 168.678292 
L 208.933977 26.8 
" clip-path="url(#p0e864002aa)" style="fill: none; stroke: #f0f0f0; stroke-width: 0.8; stroke-linecap: square"/>
     </g>
     <g id="line2d_12">
      <g>
       <use xlink:href="#m156a0a3374" x="208.933977" y="168.678292" style="stroke: #000000; stroke-width: 0.8"/>
      </g>
     </g>
     <g id="text_6">
      <!-- '01-09 -->
      <g transform="translate(199.639942 203.541614)rotate(-45)scale(0.1 -0.1)">
       <use xlink:href="#DejaVuSans-27"/>
       <use xlink:href="#DejaVuSans-30" x="27.490234"/>
       <use xlink:href="#DejaVuSans-31" x="91.113281"/>
       <use xlink:href="#DejaVuSans-2d" x="154.736328"/>
       <use xlink:href="#DejaVuSans-30" x="190.820312"/>
       <use xlink:href="#DejaVuSans-39" x="254.443359"/>
      </g>
     </g>
    </g>
    <g id="xtick_7">
     <g id="line2d_13">
      <path d="M 240.074074 168.678292 
L 240.074074 26.8 
" clip-path="url(#p0e864002aa)" style="fill: none; stroke: #f0f0f0; stroke-width: 0.8; stroke-linecap: square"/>
     </g>
     <g id="line2d_14">
      <g>
       <use xlink:href="#m156a0a3374" x="240.074074" y="168.678292" style="stroke: #000000; stroke-width: 0.8"/>
      </g>
     </g>
     <g id="text_7">
      <!-- '02-01 -->
      <g transform="translate(230.780039 203.541614)rotate(-45)scale(0.1 -0.1)">
       <defs>
        <path id="DejaVuSans-32" d="M 1228 531 
L 3431 531 
L 3431 0 
L 469 0 
L 469 531 
Q 828 903 1448 1529 
Q 2069 2156 2228 2338 
Q 2531 2678 2651 2914 
Q 2772 3150 2772 3378 
Q 2772 3750 2511 3984 
Q 2250 4219 1831 4219 
Q 1534 4219 1204 4116 
Q 875 4013 500 3803 
L 500 4441 
Q 881 4594 1212 4672 
Q 1544 4750 1819 4750 
Q 2544 4750 2975 4387 
Q 3406 4025 3406 3419 
Q 3406 3131 3298 2873 
Q 3191 2616 2906 2266 
Q 2828 2175 2409 1742 
Q 1991 1309 1228 531 
z
" transform="scale(0.015625)"/>
       </defs>
       <use xlink:href="#DejaVuSans-27"/>
       <use xlink:href="#DejaVuSans-30" x="27.490234"/>
       <use xlink:href="#DejaVuSans-32" x="91.113281"/>
       <use xlink:href="#DejaVuSans-2d" x="154.736328"/>
       <use xlink:href="#DejaVuSans-30" x="190.820312"/>
       <use xlink:href="#DejaVuSans-31" x="254.443359"/>
      </g>
     </g>
    </g>
    <g id="xtick_8">
     <g id="line2d_15">
      <path d="M 270.703677 168.678292 
L 270.703677 26.8 
" clip-path="url(#p0e864002aa)" style="fill: none; stroke: #f0f0f0; stroke-width: 0.8; stroke-linecap: square"/>
     </g>
     <g id="line2d_16">
      <g>
       <use xlink:href="#m156a0a3374" x="270.703677" y="168.678292" style="stroke: #000000; stroke-width: 0.8"/>
      </g>
     </g>
     <g id="text_8">
      <!-- '02-05 -->
      <g transform="translate(261.409642 203.541614)rotate(-45)scale(0.1 -0.1)">
       <use xlink:href="#DejaVuSans-27"/>
       <use xlink:href="#DejaVuSans-30" x="27.490234"/>
       <use xlink:href="#DejaVuSans-32" x="91.113281"/>
       <use xlink:href="#DejaVuSans-2d" x="154.736328"/>
       <use xlink:href="#DejaVuSans-30" x="190.820312"/>
       <use xlink:href="#DejaVuSans-35" x="254.443359"/>
      </g>
     </g>
    </g>
    <g id="xtick_9">
     <g id="line2d_17">
      <path d="M 302.099021 168.678292 
L 302.099021 26.8 
" clip-path="url(#p0e864002aa)" style="fill: none; stroke: #f0f0f0; stroke-width: 0.8; stroke-linecap: square"/>
     </g>
     <g id="line2d_18">
      <g>
       <use xlink:href="#m156a0a3374" x="302.099021" y="168.678292" style="stroke: #000000; stroke-width: 0.8"/>
      </g>
     </g>
     <g id="text_9">
      <!-- '02-09 -->
      <g transform="translate(292.804986 203.541614)rotate(-45)scale(0.1 -0.1)">
       <use xlink:href="#DejaVuSans-27"/>
       <use xlink:href="#DejaVuSans-30" x="27.490234"/>
       <use xlink:href="#DejaVuSans-32" x="91.113281"/>
       <use xlink:href="#DejaVuSans-2d" x="154.736328"/>
       <use xlink:href="#DejaVuSans-30" x="190.820312"/>
       <use xlink:href="#DejaVuSans-39" x="254.443359"/>
      </g>
     </g>
    </g>
    <g id="xtick_10">
     <g id="line2d_19">
      <path d="M 333.239118 168.678292 
L 333.239118 26.8 
" clip-path="url(#p0e864002aa)" style="fill: none; stroke: #f0f0f0; stroke-width: 0.8; stroke-linecap: square"/>
     </g>
     <g id="line2d_20">
      <g>
       <use xlink:href="#m156a0a3374" x="333.239118" y="168.678292" style="stroke: #000000; stroke-width: 0.8"/>
      </g>
     </g>
     <g id="text_10">
      <!-- '03-01 -->
      <g transform="translate(323.945083 203.541614)rotate(-45)scale(0.1 -0.1)">
       <defs>
        <path id="DejaVuSans-33" d="M 2597 2516 
Q 3050 2419 3304 2112 
Q 3559 1806 3559 1356 
Q 3559 666 3084 287 
Q 2609 -91 1734 -91 
Q 1441 -91 1130 -33 
Q 819 25 488 141 
L 488 750 
Q 750 597 1062 519 
Q 1375 441 1716 441 
Q 2309 441 2620 675 
Q 2931 909 2931 1356 
Q 2931 1769 2642 2001 
Q 2353 2234 1838 2234 
L 1294 2234 
L 1294 2753 
L 1863 2753 
Q 2328 2753 2575 2939 
Q 2822 3125 2822 3475 
Q 2822 3834 2567 4026 
Q 2313 4219 1838 4219 
Q 1578 4219 1281 4162 
Q 984 4106 628 3988 
L 628 4550 
Q 988 4650 1302 4700 
Q 1616 4750 1894 4750 
Q 2613 4750 3031 4423 
Q 3450 4097 3450 3541 
Q 3450 3153 3228 2886 
Q 3006 2619 2597 2516 
z
" transform="scale(0.015625)"/>
       </defs>
       <use xlink:href="#DejaVuSans-27"/>
       <use xlink:href="#DejaVuSans-30" x="27.490234"/>
       <use xlink:href="#DejaVuSans-33" x="91.113281"/>
       <use xlink:href="#DejaVuSans-2d" x="154.736328"/>
       <use xlink:href="#DejaVuSans-30" x="190.820312"/>
       <use xlink:href="#DejaVuSans-31" x="254.443359"/>
      </g>
     </g>
    </g>
   </g>
   <g id="matplotlib.axis_2">
    <g id="ytick_1">
     <g id="line2d_21">
      <path d="M 40.05 148.836294 
L 346.933103 148.836294 
" clip-path="url(#p0e864002aa)" style="fill: none; stroke: #f0f0f0; stroke-width: 0.8; stroke-linecap: square"/>
     </g>
     <g id="line2d_22">
      <defs>
       <path id="mc34ec2a547" d="M 0 0 
L -3.5 0 
" style="stroke: #000000; stroke-width: 0.8"/>
      </defs>
      <g>
       <use xlink:href="#mc34ec2a547" x="40.05" y="148.836294" style="stroke: #000000; stroke-width: 0.8"/>
      </g>
     </g>
     <g id="text_11">
      <!-- 0.85 -->
      <g transform="translate(10.784375 152.635513)scale(0.1 -0.1)">
       <defs>
        <path id="DejaVuSans-2e" d="M 684 794 
L 1344 794 
L 1344 0 
L 684 0 
L 684 794 
z
" transform="scale(0.015625)"/>
        <path id="DejaVuSans-38" d="M 2034 2216 
Q 1584 2216 1326 1975 
Q 1069 1734 1069 1313 
Q 1069 891 1326 650 
Q 1584 409 2034 409 
Q 2484 409 2743 651 
Q 3003 894 3003 1313 
Q 3003 1734 2745 1975 
Q 2488 2216 2034 2216 
z
M 1403 2484 
Q 997 2584 770 2862 
Q 544 3141 544 3541 
Q 544 4100 942 4425 
Q 1341 4750 2034 4750 
Q 2731 4750 3128 4425 
Q 3525 4100 3525 3541 
Q 3525 3141 3298 2862 
Q 3072 2584 2669 2484 
Q 3125 2378 3379 2068 
Q 3634 1759 3634 1313 
Q 3634 634 3220 271 
Q 2806 -91 2034 -91 
Q 1263 -91 848 271 
Q 434 634 434 1313 
Q 434 1759 690 2068 
Q 947 2378 1403 2484 
z
M 1172 3481 
Q 1172 3119 1398 2916 
Q 1625 2713 2034 2713 
Q 2441 2713 2670 2916 
Q 2900 3119 2900 3481 
Q 2900 3844 2670 4047 
Q 2441 4250 2034 4250 
Q 1625 4250 1398 4047 
Q 1172 3844 1172 3481 
z
" transform="scale(0.015625)"/>
       </defs>
       <use xlink:href="#DejaVuSans-30"/>
       <use xlink:href="#DejaVuSans-2e" x="63.623047"/>
       <use xlink:href="#DejaVuSans-38" x="95.410156"/>
       <use xlink:href="#DejaVuSans-35" x="159.033203"/>
      </g>
     </g>
    </g>
    <g id="ytick_2">
     <g id="line2d_23">
      <path d="M 40.05 119.72111 
L 346.933103 119.72111 
" clip-path="url(#p0e864002aa)" style="fill: none; stroke: #f0f0f0; stroke-width: 0.8; stroke-linecap: square"/>
     </g>
     <g id="line2d_24">
      <g>
       <use xlink:href="#mc34ec2a547" x="40.05" y="119.72111" style="stroke: #000000; stroke-width: 0.8"/>
      </g>
     </g>
     <g id="text_12">
      <!-- 0.90 -->
      <g transform="translate(10.784375 123.520329)scale(0.1 -0.1)">
       <use xlink:href="#DejaVuSans-30"/>
       <use xlink:href="#DejaVuSans-2e" x="63.623047"/>
       <use xlink:href="#DejaVuSans-39" x="95.410156"/>
       <use xlink:href="#DejaVuSans-30" x="159.033203"/>
      </g>
     </g>
    </g>
    <g id="ytick_3">
     <g id="line2d_25">
      <path d="M 40.05 90.605926 
L 346.933103 90.605926 
" clip-path="url(#p0e864002aa)" style="fill: none; stroke: #f0f0f0; stroke-width: 0.8; stroke-linecap: square"/>
     </g>
     <g id="line2d_26">
      <g>
       <use xlink:href="#mc34ec2a547" x="40.05" y="90.605926" style="stroke: #000000; stroke-width: 0.8"/>
      </g>
     </g>
     <g id="text_13">
      <!-- 0.95 -->
      <g transform="translate(10.784375 94.405145)scale(0.1 -0.1)">
       <use xlink:href="#DejaVuSans-30"/>
       <use xlink:href="#DejaVuSans-2e" x="63.623047"/>
       <use xlink:href="#DejaVuSans-39" x="95.410156"/>
       <use xlink:href="#DejaVuSans-35" x="159.033203"/>
      </g>
     </g>
    </g>
    <g id="ytick_4">
     <g id="line2d_27">
      <path d="M 40.05 61.490742 
L 346.933103 61.490742 
" clip-path="url(#p0e864002aa)" style="fill: none; stroke: #f0f0f0; stroke-width: 0.8; stroke-linecap: square"/>
     </g>
     <g id="line2d_28">
      <g>
       <use xlink:href="#mc34ec2a547" x="40.05" y="61.490742" style="stroke: #000000; stroke-width: 0.8"/>
      </g>
     </g>
     <g id="text_14">
      <!-- 1.00 -->
      <g transform="translate(10.784375 65.289961)scale(0.1 -0.1)">
       <use xlink:href="#DejaVuSans-31"/>
       <use xlink:href="#DejaVuSans-2e" x="63.623047"/>
       <use xlink:href="#DejaVuSans-30" x="95.410156"/>
       <use xlink:href="#DejaVuSans-30" x="159.033203"/>
      </g>
     </g>
    </g>
    <g id="ytick_5">
     <g id="line2d_29">
      <path d="M 40.05 32.375558 
L 346.933103 32.375558 
" clip-path="url(#p0e864002aa)" style="fill: none; stroke: #f0f0f0; stroke-width: 0.8; stroke-linecap: square"/>
     </g>
     <g id="line2d_30">
      <g>
       <use xlink:href="#mc34ec2a547" x="40.05" y="32.375558" style="stroke: #000000; stroke-width: 0.8"/>
      </g>
     </g>
     <g id="text_15">
      <!-- 1.05 -->
      <g transform="translate(10.784375 36.174776)scale(0.1 -0.1)">
       <use xlink:href="#DejaVuSans-31"/>
       <use xlink:href="#DejaVuSans-2e" x="63.623047"/>
       <use xlink:href="#DejaVuSans-30" x="95.410156"/>
       <use xlink:href="#DejaVuSans-35" x="159.033203"/>
      </g>
     </g>
    </g>
   </g>
   <g id="line2d_31">
    <path d="M 88.968029 122.86555 
L 89.733769 117.624817 
L 89.989016 117.857738 
L 90.244263 114.130995 
L 90.49951 115.528523 
L 90.754756 101.669696 
L 91.775743 101.436774 
L 92.03099 100.621549 
L 92.286236 101.844387 
L 92.541483 94.565591 
L 93.307223 92.294607 
L 93.56247 86.5298 
L 93.817717 84.782889 
L 94.072963 87.810868 
L 94.32821 89.091936 
L 95.09395 88.04379 
L 95.349197 83.676512 
L 95.604443 85.365193 
L 95.85969 88.859015 
L 96.114937 81.987831 
L 96.880677 83.501821 
L 97.135924 87.286795 
L 97.39117 93.226292 
L 97.901664 98.874638 
L 98.667404 97.477109 
L 98.922651 93.866826 
L 99.177897 93.866826 
L 99.433144 89.73247 
L 99.688391 87.985559 
L 100.454131 89.091936 
L 100.964624 87.810868 
L 101.219871 89.033706 
L 101.475117 91.537612 
L 102.240858 89.383088 
L 102.496104 90.780617 
L 103.006598 99.981015 
L 103.261844 97.942952 
L 104.027584 99.282251 
L 104.282831 100.970931 
L 104.538078 105.920513 
L 105.048571 99.748094 
L 105.814311 101.436774 
L 106.069558 96.953036 
L 106.324805 95.671968 
L 106.835298 105.396439 
L 107.601038 104.231832 
L 107.856285 106.444586 
L 108.366778 117.275434 
L 108.622025 115.353832 
L 109.387765 113.606921 
L 109.643012 118.614733 
L 109.898258 120.245183 
L 110.153505 115.237372 
L 110.408752 117.042513 
L 111.174492 117.566586 
L 111.429739 111.86001 
L 111.940232 110.870094 
L 112.195479 115.761445 
L 112.961219 118.14889 
L 113.216466 121.759173 
L 113.471712 121.642712 
L 113.726959 118.09066 
L 113.982206 118.323581 
L 114.747946 119.604649 
L 115.258439 124.146618 
L 115.513686 126.825215 
L 115.768932 120.128722 
L 116.789919 126.941676 
L 117.045166 137.07376 
L 117.300413 134.861006 
L 117.555659 139.286514 
L 118.321399 141.615728 
L 118.576646 143.246179 
L 118.831893 140.684042 
L 119.08714 142.023341 
L 119.342386 144.643707 
L 120.363373 148.021069 
L 120.61862 151.049048 
L 120.873866 145.458933 
L 121.129113 131.774796 
L 121.894853 134.977466 
L 122.1501 130.493728 
L 122.405347 131.076032 
L 122.660593 129.853194 
L 122.91584 129.21266 
L 123.68158 131.017801 
L 123.936827 134.802775 
L 124.192073 135.676231 
L 124.44732 138.063676 
L 124.702567 138.354828 
L 125.723554 138.238367 
L 125.9788 136.316765 
L 126.489294 144.876629 
L 127.255034 149.476828 
L 127.510281 148.428681 
L 127.765527 155.183404 
L 128.020774 154.309949 
L 128.276021 154.659331 
L 129.041761 156.755624 
L 129.297007 156.755624 
L 129.552254 162.229279 
L 129.807501 162.171048 
L 130.062747 154.309949 
L 130.828488 152.795959 
L 131.083734 149.651519 
L 131.338981 143.944943 
L 131.594228 143.362639 
L 131.849474 142.198032 
L 132.615214 143.944943 
L 132.870461 144.003173 
L 133.125708 145.400702 
L 133.380955 144.527247 
L 133.636201 141.557498 
L 134.401941 142.605645 
L 134.657188 144.585477 
L 134.912435 144.760168 
L 135.167681 146.972922 
L 135.422928 147.904608 
L 136.188668 149.651519 
L 137.209655 155.707477 
L 138.485888 144.352556 
L 138.996382 133.405246 
L 139.762122 126.999906 
L 140.017369 131.134262 
L 140.272615 126.883445 
L 140.527862 126.06822 
L 140.783109 129.15443 
L 141.548849 133.055864 
L 141.804096 132.822943 
L 142.059342 133.98755 
L 142.569836 120.827487 
L 143.335576 123.855466 
L 143.590822 125.427686 
L 143.846069 116.343749 
L 144.101316 113.199309 
L 144.356562 106.328125 
L 145.632796 102.019078 
L 145.888043 104.755905 
L 146.143289 97.127727 
L 147.164276 92.643989 
L 147.419523 92.178146 
L 147.67477 93.633905 
L 147.930016 88.567863 
L 148.695756 91.421151 
L 148.951003 96.603654 
L 149.20625 97.185957 
L 149.461496 89.441318 
L 149.716743 91.421151 
L 150.73773 97.942952 
L 150.992977 101.902617 
L 151.248223 93.750366 
L 151.50347 98.583486 
L 152.26921 97.942952 
L 152.524457 97.069497 
L 152.779703 104.697675 
L 153.03495 106.968659 
L 153.290197 107.318041 
L 154.055937 109.181413 
L 154.311184 104.348293 
L 154.56643 101.786157 
L 154.821677 97.360649 
L 155.076924 98.932868 
L 155.842664 96.720115 
L 156.097911 102.019078 
L 156.353157 100.446858 
L 156.608404 109.006722 
L 156.863651 104.173602 
L 157.629391 103.008994 
L 157.884637 107.842115 
L 158.139884 108.249727 
L 158.395131 116.401979 
L 158.650377 110.28779 
L 160.181858 115.703215 
L 160.437104 114.189225 
L 161.202844 114.305686 
L 161.458091 112.267623 
L 161.968585 102.776073 
L 162.223831 99.922785 
L 162.989571 102.892534 
L 163.244818 101.495005 
L 163.500065 103.765989 
L 163.755311 103.358376 
L 164.010558 101.378544 
L 164.776298 102.251999 
L 165.031545 111.103015 
L 165.286792 111.976471 
L 165.797285 123.855466 
L 166.563025 120.594565 
L 166.818272 116.57667 
L 167.328765 126.650524 
L 167.584012 124.030157 
L 168.349752 122.341476 
L 169.370739 131.716566 
L 170.136479 129.969655 
L 170.646972 118.964115 
L 170.902219 121.118639 
L 171.157466 119.604649 
L 171.923206 118.905885 
L 172.178452 126.475833 
L 172.433699 128.106283 
L 172.688946 124.263079 
L 172.944192 126.242911 
L 173.709933 127.756901 
L 173.965179 130.551958 
L 174.220426 130.435498 
L 174.730919 117.857738 
L 175.751906 122.86555 
L 176.007153 121.35156 
L 176.2624 119.080576 
L 176.517646 124.146618 
L 177.283386 127.058136 
L 177.538633 123.389623 
L 177.79388 124.088388 
L 178.049126 126.06822 
L 178.304373 123.564314 
L 179.070113 124.612461 
L 179.32536 128.572126 
L 179.580607 128.746817 
L 180.0911 133.754629 
L 180.85684 134.395163 
L 181.367333 128.921508 
L 181.62258 129.736733 
L 181.877827 132.881173 
L 182.643567 133.579938 
L 182.898814 139.694126 
L 183.15406 143.129718 
L 183.409307 144.760168 
L 183.664554 144.352556 
L 184.685541 146.099467 
L 184.940787 144.410786 
L 185.196034 151.456661 
L 185.451281 151.631352 
L 186.217021 151.806043 
L 186.472267 148.603372 
L 186.727514 151.631352 
L 186.982761 148.486912 
L 187.238007 148.545142 
L 188.003748 153.203572 
L 189.024734 141.382807 
L 189.790474 142.430953 
L 190.300968 148.486912 
L 190.811461 144.760168 
L 191.832448 141.673959 
L 192.087695 141.790419 
L 192.342941 150.583205 
L 192.598188 150.350284 
L 193.363928 151.456661 
L 193.619175 150.175592 
L 194.129668 156.406242 
L 194.384915 150.874357 
L 195.150655 150.350284 
L 195.661148 142.198032 
L 195.916395 147.089383 
L 196.171642 147.264074 
L 196.937382 145.983006 
L 197.192629 145.983006 
L 197.447875 137.13199 
L 197.703122 137.772524 
L 197.958369 136.433226 
L 198.724109 138.587749 
L 199.234602 131.541875 
L 199.489849 133.405246 
L 199.745096 134.336932 
L 200.766082 134.162241 
L 201.021329 131.774796 
L 201.276576 130.610189 
L 201.531822 128.863278 
L 202.297563 131.250723 
L 202.552809 132.822943 
L 202.808056 132.648252 
L 203.063303 126.359372 
L 203.318549 123.214932 
L 204.084289 120.711026 
L 204.339536 118.265351 
L 204.594783 113.082848 
L 205.105276 110.113099 
L 206.126263 113.024618 
L 206.38151 108.424418 
L 206.636756 110.054869 
L 206.892003 112.966387 
L 207.657743 114.014534 
L 207.91299 113.781612 
L 208.168237 114.072764 
L 208.423483 110.753633 
L 208.67873 114.480377 
L 209.699717 127.407518 
L 209.954963 125.718838 
L 210.21021 123.040241 
L 210.465457 117.158974 
L 211.231197 120.419874 
L 211.74169 115.703215 
L 211.996937 114.538607 
L 212.252184 108.133267 
L 213.017924 108.191497 
L 213.273171 106.153434 
L 213.528417 101.669696 
L 213.783664 104.872366 
L 214.038911 113.956303 
L 214.804651 111.86001 
L 215.059897 106.793968 
L 215.315144 106.269895 
L 215.570391 109.181413 
L 215.825637 113.956303 
L 216.591378 110.462481 
L 216.846624 111.044785 
L 217.101871 109.181413 
L 217.357118 111.510628 
L 217.612364 109.938408 
L 218.633351 110.986555 
L 218.888598 112.849926 
L 219.143845 119.255267 
L 219.399091 115.179141 
L 220.164831 115.237372 
L 220.420078 114.247455 
L 220.930571 118.265351 
L 221.185818 120.478105 
L 221.951558 125.194765 
L 222.206805 125.951759 
L 222.717298 121.759173 
L 222.972545 124.321309 
L 223.993532 116.227288 
L 224.248778 120.128722 
L 224.504025 117.158974 
L 224.759272 117.566586 
L 225.525012 121.875634 
L 225.780259 121.176869 
L 226.035505 119.77934 
L 226.290752 124.961843 
L 226.545999 123.506084 
L 227.566986 130.726649 
L 227.822232 129.678503 
L 228.077479 130.610189 
L 228.332726 128.513895 
L 229.098466 132.473561 
L 229.353712 129.503812 
L 229.608959 132.473561 
L 230.119452 133.114095 
L 230.885193 130.726649 
L 231.140439 130.668419 
L 231.395686 127.69867 
L 231.650933 126.766984 
L 231.906179 122.166785 
L 232.671919 125.718838 
L 232.927166 125.660607 
L 233.182413 128.106283 
L 233.43766 124.612461 
L 233.692906 125.252995 
L 234.458646 126.475833 
L 234.713893 125.311225 
L 235.479633 117.158974 
L 236.245373 117.391895 
L 237.011113 121.35156 
L 237.26636 127.64044 
L 238.0321 132.939403 
L 238.542593 132.648252 
L 238.79784 128.863278 
L 239.053087 130.086115 
L 239.818827 125.485916 
L 240.32932 117.915968 
L 240.839814 122.86555 
L 241.860801 124.088388 
L 242.116047 126.592293 
L 242.371294 124.088388 
L 242.626541 125.252995 
L 243.392281 123.506084 
L 243.647527 124.787152 
L 243.902774 129.387351 
L 244.158021 131.367184 
L 244.413267 128.805047 
L 245.689501 129.27089 
L 245.944748 132.41533 
L 246.199994 139.810587 
L 246.965734 142.722105 
L 247.220981 140.509351 
L 247.476228 140.218199 
L 247.731475 143.362639 
L 247.986721 142.256262 
L 248.752461 138.063676 
L 249.007708 138.820671 
L 249.262955 137.597833 
L 249.518201 137.772524 
L 249.773448 135.618 
L 250.539188 132.648252 
L 250.794435 133.230555 
L 251.049682 135.443309 
L 251.304928 136.433226 
L 251.560175 135.443309 
L 252.581162 133.463477 
L 252.836408 136.899068 
L 253.091655 136.491456 
L 253.346902 133.871089 
L 254.112642 136.433226 
L 254.623135 140.567582 
L 254.878382 139.635896 
L 255.133629 139.985278 
L 255.899369 136.899068 
L 256.154615 137.248451 
L 256.409862 132.997634 
L 256.665109 131.658335 
L 256.920356 134.162241 
L 257.686096 133.230555 
L 257.941342 133.754629 
L 258.196589 133.114095 
L 258.451836 130.435498 
L 258.707082 130.027885 
L 259.472823 129.853194 
L 259.728069 131.076032 
L 259.983316 129.27089 
L 260.238563 129.27089 
L 260.493809 131.891257 
L 261.259549 133.230555 
L 261.514796 133.288786 
L 261.770043 135.676231 
L 262.02529 136.549686 
L 262.280536 136.200304 
L 263.046276 131.017801 
L 263.301523 132.41533 
L 263.55677 131.134262 
L 263.812016 132.590021 
L 264.067263 131.076032 
L 264.833003 134.278702 
L 265.08825 131.774796 
L 265.343497 131.716566 
L 265.598743 129.678503 
L 265.85399 131.833026 
L 266.61973 131.250723 
L 266.874977 129.620272 
L 267.130223 126.417602 
L 267.38547 125.660607 
L 268.406457 126.883445 
L 268.91695 124.670691 
L 269.172197 121.002178 
L 269.427444 120.885717 
L 270.193184 118.09066 
L 270.44843 119.604649 
L 270.703677 116.110827 
L 270.958924 117.857738 
L 271.214171 111.976471 
L 271.979911 110.054869 
L 272.235157 111.103015 
L 272.490404 117.391895 
L 273.000897 112.966387 
L 273.766638 113.490461 
L 274.021884 118.440042 
L 274.532378 113.606921 
L 274.787624 107.725654 
L 275.553364 107.318041 
L 275.808611 108.59911 
L 276.063858 104.290062 
L 276.319105 106.153434 
L 276.574351 106.910429 
L 277.595338 103.125455 
L 277.850585 101.495005 
L 278.105831 98.001183 
L 278.361078 99.981015 
L 279.126818 97.011266 
L 279.382065 95.031434 
L 279.637312 96.953036 
L 279.892558 93.109832 
L 280.147805 93.575675 
L 281.168792 93.808596 
L 281.424038 92.178146 
L 281.679285 94.099748 
L 281.934532 93.633905 
L 282.700272 93.983287 
L 282.955519 91.595842 
L 283.210765 88.04379 
L 283.721259 78.6687 
L 284.486999 73.952041 
L 284.742245 79.425695 
L 284.997492 71.681056 
L 285.252739 68.187234 
L 285.507986 69.875915 
L 286.273726 67.721391 
L 286.528972 70.807601 
L 286.784219 72.20513 
L 287.294712 77.212941 
L 288.060453 69.11892 
L 288.315699 65.101025 
L 288.570946 67.896082 
L 288.826193 65.741559 
L 289.081439 67.080857 
L 289.847179 57.298155 
L 290.102426 56.4247 
L 290.61292 57.589307 
L 290.868166 52.406804 
L 291.633906 55.784166 
L 291.889153 65.392176 
L 292.1444 64.693412 
L 292.399646 61.665433 
L 292.654893 68.361925 
L 293.420633 74.359653 
L 293.67588 68.536616 
L 293.931127 73.369737 
L 294.44162 68.361925 
L 295.20736 70.458218 
L 295.462607 82.453674 
L 295.717853 76.747098 
L 295.9731 81.69668 
L 296.228347 78.144627 
L 296.994087 74.417884 
L 297.249334 73.89381 
L 297.50458 69.235381 
L 297.759827 72.20513 
L 298.015074 71.040522 
L 298.780814 74.592575 
L 299.03606 74.359653 
L 299.291307 73.369737 
L 299.546554 79.134543 
L 299.801801 77.445863 
L 300.567541 77.154711 
L 300.822787 72.32159 
L 301.333281 71.448135 
L 301.588527 72.787433 
L 302.609514 63.878187 
L 302.864761 65.97448 
L 303.120008 66.673245 
L 303.375254 70.63291 
L 304.140994 72.146899 
L 304.396241 75.931873 
L 304.651488 77.562323 
L 304.906735 75.4078 
L 305.161981 76.455946 
L 305.927721 77.620554 
L 306.182968 79.833308 
L 306.438215 73.777349 
L 306.948708 70.865831 
L 307.969695 72.26336 
L 308.224942 73.311507 
L 308.480188 75.757182 
L 308.735435 74.767266 
L 309.501175 68.536616 
L 310.011668 70.69114 
L 310.266915 69.002459 
L 310.522162 71.913978 
L 311.287902 72.20513 
L 311.543149 73.369737 
L 311.798395 69.17715 
L 312.308889 69.992376 
L 313.329875 72.554512 
L 313.585122 71.739287 
L 313.840369 77.911706 
L 314.095616 78.494009 
L 314.861356 77.09648 
L 315.116602 74.184962 
L 315.371849 74.767266 
L 315.627096 76.514177 
L 316.648083 70.63291 
L 316.903329 70.167067 
L 317.158576 71.098753 
L 317.413823 68.420156 
L 317.669069 63.179422 
L 318.434809 64.227569 
L 318.690056 61.840124 
L 318.945303 63.004731 
L 319.20055 56.133548 
L 319.455796 53.396721 
L 320.476783 55.376553 
L 320.987276 59.510909 
L 321.242523 56.715852 
L 322.008263 56.657621 
L 322.26351 55.260092 
L 322.518757 60.093213 
L 322.774003 62.422428 
L 323.02925 63.470574 
L 323.79499 65.159255 
L 324.305483 67.60493 
L 324.815977 65.450407 
L 325.581717 65.741559 
L 326.09221 61.548972 
L 326.347457 62.131276 
L 326.602704 56.774082 
L 327.368444 56.366469 
L 327.62369 57.239925 
L 327.878937 56.657621 
L 328.134184 50.485202 
L 328.389431 48.330679 
L 329.155171 49.262364 
L 329.410417 45.943234 
L 329.665664 46.700228 
L 329.920911 48.854752 
L 330.176157 45.885003 
L 330.941898 48.854752 
L 331.197144 43.73048 
L 331.707638 40.64427 
L 331.962884 37.558061 
L 332.728624 34.704772 
L 332.983871 33.249013 
L 332.983871 33.249013 
" clip-path="url(#p0e864002aa)" style="fill: none; stroke: #d3d3d3; stroke-width: 1.5; stroke-linecap: square"/>
   </g>
   <g id="line2d_32">
    <path d="M 53.999232 52.465035 
L 54.254479 43.497558 
L 54.509725 41.983568 
L 54.764972 42.624103 
L 55.020219 44.371014 
L 55.785959 46.816689 
L 56.041206 42.740563 
L 56.296452 45.128008 
L 56.551699 45.768542 
L 56.806946 54.037255 
L 57.827932 54.444867 
L 58.083179 54.794249 
L 58.338426 53.746103 
L 58.593672 55.667705 
L 59.359413 60.384365 
L 59.614659 59.103297 
L 59.869906 60.850208 
L 60.125153 67.896082 
L 60.380399 75.174878 
L 61.146139 75.640721 
L 61.401386 77.154711 
L 61.656633 75.000187 
L 61.91188 68.070773 
L 62.167126 75.46603 
L 62.932866 74.126732 
L 63.188113 69.526533 
L 63.44336 66.498553 
L 63.698606 69.351841 
L 63.953853 70.399988 
L 64.719593 74.126732 
L 64.97484 71.156983 
L 65.230087 70.69114 
L 65.485333 69.468302 
L 65.74058 70.225297 
L 66.761567 57.99692 
L 67.016813 60.500826 
L 67.27206 65.508637 
L 67.527307 75.291339 
L 68.293047 80.764994 
L 68.548294 82.278983 
L 68.80354 78.959852 
L 69.058787 83.676512 
L 69.314034 83.734742 
L 70.079774 84.608198 
L 70.335021 87.112104 
L 70.590267 86.180418 
L 70.845514 79.891538 
L 71.100761 81.347297 
L 71.866501 81.987831 
L 72.121747 82.220753 
L 72.376994 79.192774 
L 72.632241 78.377549 
L 72.887487 79.309234 
L 73.653228 78.377549 
L 73.908474 78.785161 
L 74.163721 84.317046 
L 74.418968 79.483926 
L 74.674214 77.562323 
L 75.439954 82.162522 
L 75.695201 83.967664 
L 75.950448 89.208397 
L 76.205695 85.132271 
L 76.460941 86.296879 
L 77.226681 87.112104 
L 77.481928 85.481653 
L 77.737175 82.046062 
L 77.992421 85.947496 
L 78.247668 85.365193 
L 79.013408 85.481653 
L 79.268655 85.306962 
L 79.523902 87.636177 
L 79.779148 89.208397 
L 80.034395 86.879182 
L 80.800135 87.694407 
L 81.055382 91.945224 
L 81.310628 98.234104 
L 81.565875 97.826491 
L 81.821122 97.6518 
L 82.586862 96.661884 
L 82.842109 104.290062 
L 83.097355 107.08512 
L 83.352602 114.887989 
L 83.607849 114.538607 
L 84.373589 112.733466 
L 84.628836 115.761445 
L 84.884082 126.06822 
L 85.139329 125.136534 
L 85.394576 122.457937 
L 86.160316 122.632628 
L 86.415562 118.381811 
L 86.670809 114.072764 
L 86.926056 118.498272 
L 87.181302 115.06268 
L 87.947043 111.685319 
L 88.202289 116.6349 
L 88.457536 124.321309 
L 88.712783 122.516168 
L 88.968029 122.86555 
" clip-path="url(#p0e864002aa)" style="fill: none; stroke: #000000; stroke-width: 1.5; stroke-linecap: square"/>
   </g>
   <g id="patch_3">
    <path d="M 40.05 168.678292 
L 40.05 26.8 
" style="fill: none; stroke: #000000; stroke-width: 0.8; stroke-linejoin: miter; stroke-linecap: square"/>
   </g>
   <g id="patch_4">
    <path d="M 346.933103 168.678292 
L 346.933103 26.8 
" style="fill: none; stroke: #000000; stroke-width: 0.8; stroke-linejoin: miter; stroke-linecap: square"/>
   </g>
   <g id="patch_5">
    <path d="M 40.05 168.678292 
L 346.933103 168.678292 
" style="fill: none; stroke: #000000; stroke-width: 0.8; stroke-linejoin: miter; stroke-linecap: square"/>
   </g>
   <g id="patch_6">
    <path d="M 40.05 26.8 
L 346.933103 26.8 
" style="fill: none; stroke: #000000; stroke-width: 0.8; stroke-linejoin: miter; stroke-linecap: square"/>
   </g>
   <g id="text_16">
    <!-- EUR/USD -->
    <g transform="translate(166.298427 20.8)scale(0.12 -0.12)">
     <defs>
      <path id="DejaVuSans-45" d="M 628 4666 
L 3578 4666 
L 3578 4134 
L 1259 4134 
L 1259 2753 
L 3481 2753 
L 3481 2222 
L 1259 2222 
L 1259 531 
L 3634 531 
L 3634 0 
L 628 0 
L 628 4666 
z
" transform="scale(0.015625)"/>
      <path id="DejaVuSans-55" d="M 556 4666 
L 1191 4666 
L 1191 1831 
Q 1191 1081 1462 751 
Q 1734 422 2344 422 
Q 2950 422 3222 751 
Q 3494 1081 3494 1831 
L 3494 4666 
L 4128 4666 
L 4128 1753 
Q 4128 841 3676 375 
Q 3225 -91 2344 -91 
Q 1459 -91 1007 375 
Q 556 841 556 1753 
L 556 4666 
z
" transform="scale(0.015625)"/>
      <path id="DejaVuSans-52" d="M 2841 2188 
Q 3044 2119 3236 1894 
Q 3428 1669 3622 1275 
L 4263 0 
L 3584 0 
L 2988 1197 
Q 2756 1666 2539 1819 
Q 2322 1972 1947 1972 
L 1259 1972 
L 1259 0 
L 628 0 
L 628 4666 
L 2053 4666 
Q 2853 4666 3247 4331 
Q 3641 3997 3641 3322 
Q 3641 2881 3436 2590 
Q 3231 2300 2841 2188 
z
M 1259 4147 
L 1259 2491 
L 2053 2491 
Q 2509 2491 2742 2702 
Q 2975 2913 2975 3322 
Q 2975 3731 2742 3939 
Q 2509 4147 2053 4147 
L 1259 4147 
z
" transform="scale(0.015625)"/>
      <path id="DejaVuSans-2f" d="M 1625 4666 
L 2156 4666 
L 531 -594 
L 0 -594 
L 1625 4666 
z
" transform="scale(0.015625)"/>
      <path id="DejaVuSans-53" d="M 3425 4513 
L 3425 3897 
Q 3066 4069 2747 4153 
Q 2428 4238 2131 4238 
Q 1616 4238 1336 4038 
Q 1056 3838 1056 3469 
Q 1056 3159 1242 3001 
Q 1428 2844 1947 2747 
L 2328 2669 
Q 3034 2534 3370 2195 
Q 3706 1856 3706 1288 
Q 3706 609 3251 259 
Q 2797 -91 1919 -91 
Q 1588 -91 1214 -16 
Q 841 59 441 206 
L 441 856 
Q 825 641 1194 531 
Q 1563 422 1919 422 
Q 2459 422 2753 634 
Q 3047 847 3047 1241 
Q 3047 1584 2836 1778 
Q 2625 1972 2144 2069 
L 1759 2144 
Q 1053 2284 737 2584 
Q 422 2884 422 3419 
Q 422 4038 858 4394 
Q 1294 4750 2059 4750 
Q 2388 4750 2728 4690 
Q 3069 4631 3425 4513 
z
" transform="scale(0.015625)"/>
      <path id="DejaVuSans-44" d="M 1259 4147 
L 1259 519 
L 2022 519 
Q 2988 519 3436 956 
Q 3884 1394 3884 2338 
Q 3884 3275 3436 3711 
Q 2988 4147 2022 4147 
L 1259 4147 
z
M 628 4666 
L 1925 4666 
Q 3281 4666 3915 4102 
Q 4550 3538 4550 2338 
Q 4550 1131 3912 565 
Q 3275 0 1925 0 
L 628 0 
L 628 4666 
z
" transform="scale(0.015625)"/>
     </defs>
     <use xlink:href="#DejaVuSans-45"/>
     <use xlink:href="#DejaVuSans-55" x="63.183594"/>
     <use xlink:href="#DejaVuSans-52" x="136.376953"/>
     <use xlink:href="#DejaVuSans-2f" x="205.859375"/>
     <use xlink:href="#DejaVuSans-55" x="239.550781"/>
     <use xlink:href="#DejaVuSans-53" x="312.744141"/>
     <use xlink:href="#DejaVuSans-44" x="376.220703"/>
    </g>
   </g>
  </g>
 </g>
 <defs>
  <clipPath id="p0e864002aa">
   <rect x="40.05" y="26.8" width="306.883103" height="141.878292"/>
  </clipPath>
 </defs>
</svg>
