<?xml version="1.0" encoding="utf-8" standalone="no"?>
<!DOCTYPE svg PUBLIC "-//W3C//DTD SVG 1.1//EN"
  "http://www.w3.org/Graphics/SVG/1.1/DTD/svg11.dtd">
<svg xmlns:xlink="http://www.w3.org/1999/xlink" width="360pt" height="216pt" viewBox="0 0 360 216" xmlns="http://www.w3.org/2000/svg" version="1.1">
 <metadata>
  <rdf:RDF xmlns:dc="http://purl.org/dc/elements/1.1/" xmlns:cc="http://creativecommons.org/ns#" xmlns:rdf="http://www.w3.org/1999/02/22-rdf-syntax-ns#">
   <cc:Work>
    <dc:type rdf:resource="http://purl.org/dc/dcmitype/StillImage"/>
    <dc:date>2023-03-24T15:59:51.999856</dc:date>
    <dc:format>image/svg+xml</dc:format>
    <dc:creator>
     <cc:Agent>
      <dc:title>Matplotlib v3.6.3, https://matplotlib.org/</dc:title>
     </cc:Agent>
    </dc:creator>
   </cc:Work>
  </rdf:RDF>
 </metadata>
 <defs>
  <style type="text/css">*{stroke-linejoin: round; stroke-linecap: butt}</style>
 </defs>
 <g id="figure_1">
  <g id="patch_1">
   <path d="M 0 216 
L 360 216 
L 360 0 
L 0 0 
z
" style="fill: #ffffff"/>
  </g>
  <g id="axes_1">
   <g id="patch_2">
    <path d="M 39.94 168.671221 
L 346.917193 168.671221 
L 346.917193 26.88 
L 39.94 26.88 
z
" style="fill: #ffffff"/>
   </g>
   <g id="matplotlib.axis_1">
    <g id="xtick_1">
     <g id="line2d_1">
      <path d="M 53.382859 168.671221 
L 53.382859 26.88 
" clip-path="url(#pb28e6936d9)" style="fill: none; stroke: #f0f0f0; stroke-width: 0.8; stroke-linecap: square"/>
     </g>
     <g id="line2d_2">
      <defs>
       <path id="md69269d8fc" d="M 0 0 
L 0 3.5 
" style="stroke: #000000; stroke-width: 0.8"/>
      </defs>
      <g>
       <use xlink:href="#md69269d8fc" x="53.382859" y="168.671221" style="stroke: #000000; stroke-width: 0.8"/>
      </g>
     </g>
     <g id="text_1">
      <!-- '00-01 -->
      <g transform="translate(44.088824 203.534543) rotate(-45) scale(0.1 -0.1)">
       <defs>
        <path id="DejaVuSans-27" d="M 1147 4666 
L 1147 2931 
L 616 2931 
L 616 4666 
L 1147 4666 
z
" transform="scale(0.015625)"/>
        <path id="DejaVuSans-30" d="M 2034 4250 
Q 1547 4250 1301 3770 
Q 1056 3291 1056 2328 
Q 1056 1369 1301 889 
Q 1547 409 2034 409 
Q 2525 409 2770 889 
Q 3016 1369 3016 2328 
Q 3016 3291 2770 3770 
Q 2525 4250 2034 4250 
z
M 2034 4750 
Q 2819 4750 3233 4129 
Q 3647 3509 3647 2328 
Q 3647 1150 3233 529 
Q 2819 -91 2034 -91 
Q 1250 -91 836 529 
Q 422 1150 422 2328 
Q 422 3509 836 4129 
Q 1250 4750 2034 4750 
z
" transform="scale(0.015625)"/>
        <path id="DejaVuSans-2d" d="M 313 2009 
L 1997 2009 
L 1997 1497 
L 313 1497 
L 313 2009 
z
" transform="scale(0.015625)"/>
        <path id="DejaVuSans-31" d="M 794 531 
L 1825 531 
L 1825 4091 
L 703 3866 
L 703 4441 
L 1819 4666 
L 2450 4666 
L 2450 531 
L 3481 531 
L 3481 0 
L 794 0 
L 794 531 
z
" transform="scale(0.015625)"/>
       </defs>
       <use xlink:href="#DejaVuSans-27"/>
       <use xlink:href="#DejaVuSans-30" x="27.490234"/>
       <use xlink:href="#DejaVuSans-30" x="91.113281"/>
       <use xlink:href="#DejaVuSans-2d" x="154.736328"/>
       <use xlink:href="#DejaVuSans-30" x="190.820312"/>
       <use xlink:href="#DejaVuSans-31" x="254.443359"/>
      </g>
     </g>
    </g>
    <g id="xtick_2">
     <g id="line2d_3">
      <path d="M 84.277178 168.671221 
L 84.277178 26.88 
" clip-path="url(#pb28e6936d9)" style="fill: none; stroke: #f0f0f0; stroke-width: 0.8; stroke-linecap: square"/>
     </g>
     <g id="line2d_4">
      <g>
       <use xlink:href="#md69269d8fc" x="84.277178" y="168.671221" style="stroke: #000000; stroke-width: 0.8"/>
      </g>
     </g>
     <g id="text_2">
      <!-- '00-05 -->
      <g transform="translate(74.983144 203.534543) rotate(-45) scale(0.1 -0.1)">
       <defs>
        <path id="DejaVuSans-35" d="M 691 4666 
L 3169 4666 
L 3169 4134 
L 1269 4134 
L 1269 2991 
Q 1406 3038 1543 3061 
Q 1681 3084 1819 3084 
Q 2600 3084 3056 2656 
Q 3513 2228 3513 1497 
Q 3513 744 3044 326 
Q 2575 -91 1722 -91 
Q 1428 -91 1123 -41 
Q 819 9 494 109 
L 494 744 
Q 775 591 1075 516 
Q 1375 441 1709 441 
Q 2250 441 2565 725 
Q 2881 1009 2881 1497 
Q 2881 1984 2565 2268 
Q 2250 2553 1709 2553 
Q 1456 2553 1204 2497 
Q 953 2441 691 2322 
L 691 4666 
z
" transform="scale(0.015625)"/>
       </defs>
       <use xlink:href="#DejaVuSans-27"/>
       <use xlink:href="#DejaVuSans-30" x="27.490234"/>
       <use xlink:href="#DejaVuSans-30" x="91.113281"/>
       <use xlink:href="#DejaVuSans-2d" x="154.736328"/>
       <use xlink:href="#DejaVuSans-30" x="190.820312"/>
       <use xlink:href="#DejaVuSans-35" x="254.443359"/>
      </g>
     </g>
    </g>
    <g id="xtick_3">
     <g id="line2d_5">
      <path d="M 115.682148 168.671221 
L 115.682148 26.88 
" clip-path="url(#pb28e6936d9)" style="fill: none; stroke: #f0f0f0; stroke-width: 0.8; stroke-linecap: square"/>
     </g>
     <g id="line2d_6">
      <g>
       <use xlink:href="#md69269d8fc" x="115.682148" y="168.671221" style="stroke: #000000; stroke-width: 0.8"/>
      </g>
     </g>
     <g id="text_3">
      <!-- '00-09 -->
      <g transform="translate(106.388113 203.534543) rotate(-45) scale(0.1 -0.1)">
       <defs>
        <path id="DejaVuSans-39" d="M 703 97 
L 703 672 
Q 941 559 1184 500 
Q 1428 441 1663 441 
Q 2288 441 2617 861 
Q 2947 1281 2994 2138 
Q 2813 1869 2534 1725 
Q 2256 1581 1919 1581 
Q 1219 1581 811 2004 
Q 403 2428 403 3163 
Q 403 3881 828 4315 
Q 1253 4750 1959 4750 
Q 2769 4750 3195 4129 
Q 3622 3509 3622 2328 
Q 3622 1225 3098 567 
Q 2575 -91 1691 -91 
Q 1453 -91 1209 -44 
Q 966 3 703 97 
z
M 1959 2075 
Q 2384 2075 2632 2365 
Q 2881 2656 2881 3163 
Q 2881 3666 2632 3958 
Q 2384 4250 1959 4250 
Q 1534 4250 1286 3958 
Q 1038 3666 1038 3163 
Q 1038 2656 1286 2365 
Q 1534 2075 1959 2075 
z
" transform="scale(0.015625)"/>
       </defs>
       <use xlink:href="#DejaVuSans-27"/>
       <use xlink:href="#DejaVuSans-30" x="27.490234"/>
       <use xlink:href="#DejaVuSans-30" x="91.113281"/>
       <use xlink:href="#DejaVuSans-2d" x="154.736328"/>
       <use xlink:href="#DejaVuSans-30" x="190.820312"/>
       <use xlink:href="#DejaVuSans-39" x="254.443359"/>
      </g>
     </g>
    </g>
    <g id="xtick_4">
     <g id="line2d_7">
      <path d="M 146.831792 168.671221 
L 146.831792 26.88 
" clip-path="url(#pb28e6936d9)" style="fill: none; stroke: #f0f0f0; stroke-width: 0.8; stroke-linecap: square"/>
     </g>
     <g id="line2d_8">
      <g>
       <use xlink:href="#md69269d8fc" x="146.831792" y="168.671221" style="stroke: #000000; stroke-width: 0.8"/>
      </g>
     </g>
     <g id="text_4">
      <!-- '01-01 -->
      <g transform="translate(137.537758 203.534543) rotate(-45) scale(0.1 -0.1)">
       <use xlink:href="#DejaVuSans-27"/>
       <use xlink:href="#DejaVuSans-30" x="27.490234"/>
       <use xlink:href="#DejaVuSans-31" x="91.113281"/>
       <use xlink:href="#DejaVuSans-2d" x="154.736328"/>
       <use xlink:href="#DejaVuSans-30" x="190.820312"/>
       <use xlink:href="#DejaVuSans-31" x="254.443359"/>
      </g>
     </g>
    </g>
    <g id="xtick_5">
     <g id="line2d_9">
      <path d="M 177.470787 168.671221 
L 177.470787 26.88 
" clip-path="url(#pb28e6936d9)" style="fill: none; stroke: #f0f0f0; stroke-width: 0.8; stroke-linecap: square"/>
     </g>
     <g id="line2d_10">
      <g>
       <use xlink:href="#md69269d8fc" x="177.470787" y="168.671221" style="stroke: #000000; stroke-width: 0.8"/>
      </g>
     </g>
     <g id="text_5">
      <!-- '01-05 -->
      <g transform="translate(168.176752 203.534543) rotate(-45) scale(0.1 -0.1)">
       <use xlink:href="#DejaVuSans-27"/>
       <use xlink:href="#DejaVuSans-30" x="27.490234"/>
       <use xlink:href="#DejaVuSans-31" x="91.113281"/>
       <use xlink:href="#DejaVuSans-2d" x="154.736328"/>
       <use xlink:href="#DejaVuSans-30" x="190.820312"/>
       <use xlink:href="#DejaVuSans-35" x="254.443359"/>
      </g>
     </g>
    </g>
    <g id="xtick_6">
     <g id="line2d_11">
      <path d="M 208.875756 168.671221 
L 208.875756 26.88 
" clip-path="url(#pb28e6936d9)" style="fill: none; stroke: #f0f0f0; stroke-width: 0.8; stroke-linecap: square"/>
     </g>
     <g id="line2d_12">
      <g>
       <use xlink:href="#md69269d8fc" x="208.875756" y="168.671221" style="stroke: #000000; stroke-width: 0.8"/>
      </g>
     </g>
     <g id="text_6">
      <!-- '01-09 -->
      <g transform="translate(199.581722 203.534543) rotate(-45) scale(0.1 -0.1)">
       <use xlink:href="#DejaVuSans-27"/>
       <use xlink:href="#DejaVuSans-30" x="27.490234"/>
       <use xlink:href="#DejaVuSans-31" x="91.113281"/>
       <use xlink:href="#DejaVuSans-2d" x="154.736328"/>
       <use xlink:href="#DejaVuSans-30" x="190.820312"/>
       <use xlink:href="#DejaVuSans-39" x="254.443359"/>
      </g>
     </g>
    </g>
    <g id="xtick_7">
     <g id="line2d_13">
      <path d="M 240.025401 168.671221 
L 240.025401 26.88 
" clip-path="url(#pb28e6936d9)" style="fill: none; stroke: #f0f0f0; stroke-width: 0.8; stroke-linecap: square"/>
     </g>
     <g id="line2d_14">
      <g>
       <use xlink:href="#md69269d8fc" x="240.025401" y="168.671221" style="stroke: #000000; stroke-width: 0.8"/>
      </g>
     </g>
     <g id="text_7">
      <!-- '02-01 -->
      <g transform="translate(230.731366 203.534543) rotate(-45) scale(0.1 -0.1)">
       <defs>
        <path id="DejaVuSans-32" d="M 1228 531 
L 3431 531 
L 3431 0 
L 469 0 
L 469 531 
Q 828 903 1448 1529 
Q 2069 2156 2228 2338 
Q 2531 2678 2651 2914 
Q 2772 3150 2772 3378 
Q 2772 3750 2511 3984 
Q 2250 4219 1831 4219 
Q 1534 4219 1204 4116 
Q 875 4013 500 3803 
L 500 4441 
Q 881 4594 1212 4672 
Q 1544 4750 1819 4750 
Q 2544 4750 2975 4387 
Q 3406 4025 3406 3419 
Q 3406 3131 3298 2873 
Q 3191 2616 2906 2266 
Q 2828 2175 2409 1742 
Q 1991 1309 1228 531 
z
" transform="scale(0.015625)"/>
       </defs>
       <use xlink:href="#DejaVuSans-27"/>
       <use xlink:href="#DejaVuSans-30" x="27.490234"/>
       <use xlink:href="#DejaVuSans-32" x="91.113281"/>
       <use xlink:href="#DejaVuSans-2d" x="154.736328"/>
       <use xlink:href="#DejaVuSans-30" x="190.820312"/>
       <use xlink:href="#DejaVuSans-31" x="254.443359"/>
      </g>
     </g>
    </g>
    <g id="xtick_8">
     <g id="line2d_15">
      <path d="M 270.664395 168.671221 
L 270.664395 26.88 
" clip-path="url(#pb28e6936d9)" style="fill: none; stroke: #f0f0f0; stroke-width: 0.8; stroke-linecap: square"/>
     </g>
     <g id="line2d_16">
      <g>
       <use xlink:href="#md69269d8fc" x="270.664395" y="168.671221" style="stroke: #000000; stroke-width: 0.8"/>
      </g>
     </g>
     <g id="text_8">
      <!-- '02-05 -->
      <g transform="translate(261.370361 203.534543) rotate(-45) scale(0.1 -0.1)">
       <use xlink:href="#DejaVuSans-27"/>
       <use xlink:href="#DejaVuSans-30" x="27.490234"/>
       <use xlink:href="#DejaVuSans-32" x="91.113281"/>
       <use xlink:href="#DejaVuSans-2d" x="154.736328"/>
       <use xlink:href="#DejaVuSans-30" x="190.820312"/>
       <use xlink:href="#DejaVuSans-35" x="254.443359"/>
      </g>
     </g>
    </g>
    <g id="xtick_9">
     <g id="line2d_17">
      <path d="M 302.069365 168.671221 
L 302.069365 26.88 
" clip-path="url(#pb28e6936d9)" style="fill: none; stroke: #f0f0f0; stroke-width: 0.8; stroke-linecap: square"/>
     </g>
     <g id="line2d_18">
      <g>
       <use xlink:href="#md69269d8fc" x="302.069365" y="168.671221" style="stroke: #000000; stroke-width: 0.8"/>
      </g>
     </g>
     <g id="text_9">
      <!-- '02-09 -->
      <g transform="translate(292.77533 203.534543) rotate(-45) scale(0.1 -0.1)">
       <use xlink:href="#DejaVuSans-27"/>
       <use xlink:href="#DejaVuSans-30" x="27.490234"/>
       <use xlink:href="#DejaVuSans-32" x="91.113281"/>
       <use xlink:href="#DejaVuSans-2d" x="154.736328"/>
       <use xlink:href="#DejaVuSans-30" x="190.820312"/>
       <use xlink:href="#DejaVuSans-39" x="254.443359"/>
      </g>
     </g>
    </g>
    <g id="xtick_10">
     <g id="line2d_19">
      <path d="M 333.219009 168.671221 
L 333.219009 26.88 
" clip-path="url(#pb28e6936d9)" style="fill: none; stroke: #f0f0f0; stroke-width: 0.8; stroke-linecap: square"/>
     </g>
     <g id="line2d_20">
      <g>
       <use xlink:href="#md69269d8fc" x="333.219009" y="168.671221" style="stroke: #000000; stroke-width: 0.8"/>
      </g>
     </g>
     <g id="text_10">
      <!-- '03-01 -->
      <g transform="translate(323.924975 203.534543) rotate(-45) scale(0.1 -0.1)">
       <defs>
        <path id="DejaVuSans-33" d="M 2597 2516 
Q 3050 2419 3304 2112 
Q 3559 1806 3559 1356 
Q 3559 666 3084 287 
Q 2609 -91 1734 -91 
Q 1441 -91 1130 -33 
Q 819 25 488 141 
L 488 750 
Q 750 597 1062 519 
Q 1375 441 1716 441 
Q 2309 441 2620 675 
Q 2931 909 2931 1356 
Q 2931 1769 2642 2001 
Q 2353 2234 1838 2234 
L 1294 2234 
L 1294 2753 
L 1863 2753 
Q 2328 2753 2575 2939 
Q 2822 3125 2822 3475 
Q 2822 3834 2567 4026 
Q 2313 4219 1838 4219 
Q 1578 4219 1281 4162 
Q 984 4106 628 3988 
L 628 4550 
Q 988 4650 1302 4700 
Q 1616 4750 1894 4750 
Q 2613 4750 3031 4423 
Q 3450 4097 3450 3541 
Q 3450 3153 3228 2886 
Q 3006 2619 2597 2516 
z
" transform="scale(0.015625)"/>
       </defs>
       <use xlink:href="#DejaVuSans-27"/>
       <use xlink:href="#DejaVuSans-30" x="27.490234"/>
       <use xlink:href="#DejaVuSans-33" x="91.113281"/>
       <use xlink:href="#DejaVuSans-2d" x="154.736328"/>
       <use xlink:href="#DejaVuSans-30" x="190.820312"/>
       <use xlink:href="#DejaVuSans-31" x="254.443359"/>
      </g>
     </g>
    </g>
   </g>
   <g id="matplotlib.axis_2">
    <g id="ytick_1">
     <g id="line2d_21">
      <path d="M 39.94 148.8414 
L 346.917193 148.8414 
" clip-path="url(#pb28e6936d9)" style="fill: none; stroke: #f0f0f0; stroke-width: 0.8; stroke-linecap: square"/>
     </g>
     <g id="line2d_22">
      <defs>
       <path id="m3a3077c70a" d="M 0 0 
L -3.5 0 
" style="stroke: #000000; stroke-width: 0.8"/>
      </defs>
      <g>
       <use xlink:href="#m3a3077c70a" x="39.94" y="148.8414" style="stroke: #000000; stroke-width: 0.8"/>
      </g>
     </g>
     <g id="text_11">
      <!-- 0.85 -->
      <g transform="translate(10.674375 152.640619) scale(0.1 -0.1)">
       <defs>
        <path id="DejaVuSans-2e" d="M 684 794 
L 1344 794 
L 1344 0 
L 684 0 
L 684 794 
z
" transform="scale(0.015625)"/>
        <path id="DejaVuSans-38" d="M 2034 2216 
Q 1584 2216 1326 1975 
Q 1069 1734 1069 1313 
Q 1069 891 1326 650 
Q 1584 409 2034 409 
Q 2484 409 2743 651 
Q 3003 894 3003 1313 
Q 3003 1734 2745 1975 
Q 2488 2216 2034 2216 
z
M 1403 2484 
Q 997 2584 770 2862 
Q 544 3141 544 3541 
Q 544 4100 942 4425 
Q 1341 4750 2034 4750 
Q 2731 4750 3128 4425 
Q 3525 4100 3525 3541 
Q 3525 3141 3298 2862 
Q 3072 2584 2669 2484 
Q 3125 2378 3379 2068 
Q 3634 1759 3634 1313 
Q 3634 634 3220 271 
Q 2806 -91 2034 -91 
Q 1263 -91 848 271 
Q 434 634 434 1313 
Q 434 1759 690 2068 
Q 947 2378 1403 2484 
z
M 1172 3481 
Q 1172 3119 1398 2916 
Q 1625 2713 2034 2713 
Q 2441 2713 2670 2916 
Q 2900 3119 2900 3481 
Q 2900 3844 2670 4047 
Q 2441 4250 2034 4250 
Q 1625 4250 1398 4047 
Q 1172 3844 1172 3481 
z
" transform="scale(0.015625)"/>
       </defs>
       <use xlink:href="#DejaVuSans-30"/>
       <use xlink:href="#DejaVuSans-2e" x="63.623047"/>
       <use xlink:href="#DejaVuSans-38" x="95.410156"/>
       <use xlink:href="#DejaVuSans-35" x="159.033203"/>
      </g>
     </g>
    </g>
    <g id="ytick_2">
     <g id="line2d_23">
      <path d="M 39.94 119.744084 
L 346.917193 119.744084 
" clip-path="url(#pb28e6936d9)" style="fill: none; stroke: #f0f0f0; stroke-width: 0.8; stroke-linecap: square"/>
     </g>
     <g id="line2d_24">
      <g>
       <use xlink:href="#m3a3077c70a" x="39.94" y="119.744084" style="stroke: #000000; stroke-width: 0.8"/>
      </g>
     </g>
     <g id="text_12">
      <!-- 0.90 -->
      <g transform="translate(10.674375 123.543303) scale(0.1 -0.1)">
       <use xlink:href="#DejaVuSans-30"/>
       <use xlink:href="#DejaVuSans-2e" x="63.623047"/>
       <use xlink:href="#DejaVuSans-39" x="95.410156"/>
       <use xlink:href="#DejaVuSans-30" x="159.033203"/>
      </g>
     </g>
    </g>
    <g id="ytick_3">
     <g id="line2d_25">
      <path d="M 39.94 90.646768 
L 346.917193 90.646768 
" clip-path="url(#pb28e6936d9)" style="fill: none; stroke: #f0f0f0; stroke-width: 0.8; stroke-linecap: square"/>
     </g>
     <g id="line2d_26">
      <g>
       <use xlink:href="#m3a3077c70a" x="39.94" y="90.646768" style="stroke: #000000; stroke-width: 0.8"/>
      </g>
     </g>
     <g id="text_13">
      <!-- 0.95 -->
      <g transform="translate(10.674375 94.445987) scale(0.1 -0.1)">
       <use xlink:href="#DejaVuSans-30"/>
       <use xlink:href="#DejaVuSans-2e" x="63.623047"/>
       <use xlink:href="#DejaVuSans-39" x="95.410156"/>
       <use xlink:href="#DejaVuSans-35" x="159.033203"/>
      </g>
     </g>
    </g>
    <g id="ytick_4">
     <g id="line2d_27">
      <path d="M 39.94 61.549452 
L 346.917193 61.549452 
" clip-path="url(#pb28e6936d9)" style="fill: none; stroke: #f0f0f0; stroke-width: 0.8; stroke-linecap: square"/>
     </g>
     <g id="line2d_28">
      <g>
       <use xlink:href="#m3a3077c70a" x="39.94" y="61.549452" style="stroke: #000000; stroke-width: 0.8"/>
      </g>
     </g>
     <g id="text_14">
      <!-- 1.00 -->
      <g transform="translate(10.674375 65.348671) scale(0.1 -0.1)">
       <use xlink:href="#DejaVuSans-31"/>
       <use xlink:href="#DejaVuSans-2e" x="63.623047"/>
       <use xlink:href="#DejaVuSans-30" x="95.410156"/>
       <use xlink:href="#DejaVuSans-30" x="159.033203"/>
      </g>
     </g>
    </g>
    <g id="ytick_5">
     <g id="line2d_29">
      <path d="M 39.94 32.452136 
L 346.917193 32.452136 
" clip-path="url(#pb28e6936d9)" style="fill: none; stroke: #f0f0f0; stroke-width: 0.8; stroke-linecap: square"/>
     </g>
     <g id="line2d_30">
      <g>
       <use xlink:href="#m3a3077c70a" x="39.94" y="32.452136" style="stroke: #000000; stroke-width: 0.8"/>
      </g>
     </g>
     <g id="text_15">
      <!-- 1.05 -->
      <g transform="translate(10.674375 36.251355) scale(0.1 -0.1)">
       <use xlink:href="#DejaVuSans-31"/>
       <use xlink:href="#DejaVuSans-2e" x="63.623047"/>
       <use xlink:href="#DejaVuSans-30" x="95.410156"/>
       <use xlink:href="#DejaVuSans-35" x="159.033203"/>
      </g>
     </g>
    </g>
   </g>
   <g id="line2d_31">
    <path d="M 88.873028 122.886594 
L 89.639002 117.649077 
L 89.894327 117.881856 
L 90.149652 114.157399 
L 90.404977 115.55407 
L 90.660302 101.703748 
L 91.681602 101.47097 
L 91.936927 100.656245 
L 92.192252 101.878332 
L 92.447577 94.604003 
L 93.213552 92.334412 
L 93.468877 86.573144 
L 93.724202 84.827305 
L 93.979527 87.853426 
L 94.234852 89.133708 
L 95.000827 88.086204 
L 95.256151 83.721607 
L 95.511476 85.409251 
L 95.766801 88.900929 
L 96.022126 82.033962 
L 96.788101 83.547023 
L 97.043426 87.329674 
L 97.298751 93.265526 
L 97.809401 98.910406 
L 98.575376 97.513735 
L 98.830701 93.905667 
L 99.086026 93.905667 
L 99.341351 89.773849 
L 99.596676 88.02801 
L 100.362651 89.133708 
L 100.8733 87.853426 
L 101.128625 89.075513 
L 101.38395 91.577882 
L 102.149925 89.424681 
L 102.40525 90.821352 
L 102.9159 100.016104 
L 103.171225 97.979292 
L 103.9372 99.317768 
L 104.192525 101.005412 
L 104.44785 105.951956 
L 104.9585 99.783325 
L 105.724475 101.47097 
L 105.9798 96.989983 
L 106.235125 95.709701 
L 106.745774 105.428205 
L 107.511749 104.264312 
L 107.767074 106.475708 
L 108.277724 117.299909 
L 108.533049 115.379487 
L 109.299024 113.633648 
L 109.554349 118.638386 
L 109.809674 120.267836 
L 110.064999 115.263097 
L 110.320324 117.067131 
L 111.086299 117.590883 
L 111.341624 111.887809 
L 111.852274 110.8985 
L 112.107598 115.786849 
L 112.873573 118.172829 
L 113.128898 121.780896 
L 113.384223 121.664507 
L 113.639548 118.114634 
L 113.894873 118.347413 
L 114.660848 119.627695 
L 115.171498 124.166876 
L 115.426823 126.843829 
L 115.682148 120.151446 
L 116.703448 126.960218 
L 116.958773 137.086084 
L 117.214098 134.874688 
L 117.469423 139.29748 
L 118.235397 141.625266 
L 118.490722 143.254715 
L 118.746047 140.694151 
L 119.001372 142.032628 
L 119.256697 144.651386 
L 120.277997 148.026675 
L 120.533322 151.052796 
L 120.788647 145.466111 
L 121.043972 131.790373 
L 121.809947 134.991078 
L 122.065272 130.510091 
L 122.320597 131.092037 
L 122.575922 129.86995 
L 122.831247 129.229809 
L 123.597221 131.033843 
L 123.852546 134.816494 
L 124.107871 135.689413 
L 124.363196 138.075393 
L 124.618521 138.366366 
L 125.639821 138.249977 
L 125.895146 136.329554 
L 126.405796 144.884165 
L 127.171771 149.481541 
L 127.427096 148.434038 
L 127.682421 155.184615 
L 127.937746 154.311695 
L 128.193071 154.660863 
L 128.959045 156.75587 
L 129.21437 156.75587 
L 129.469695 162.226165 
L 129.72502 162.167971 
L 129.980345 154.311695 
L 130.74632 152.798635 
L 131.001645 149.656125 
L 131.25697 143.953051 
L 131.512295 143.371105 
L 131.76762 142.207212 
L 132.533595 143.953051 
L 132.78892 144.011246 
L 133.044245 145.407917 
L 133.29957 144.534997 
L 133.554895 141.567071 
L 134.32087 142.614574 
L 134.576195 144.593192 
L 134.831519 144.767776 
L 135.086844 146.979172 
L 135.342169 147.910286 
L 136.108144 149.656125 
L 137.129444 155.708367 
L 138.406069 144.360413 
L 138.916719 133.419822 
L 139.682694 127.018413 
L 139.938019 131.150232 
L 140.193344 126.902024 
L 140.448668 126.087299 
L 140.703993 129.171614 
L 141.469968 133.070655 
L 141.725293 132.837876 
L 141.980618 134.001769 
L 142.491268 120.849782 
L 143.257243 123.875903 
L 143.512568 125.447158 
L 143.767893 116.368795 
L 144.023218 113.226285 
L 144.278543 106.359319 
L 145.555168 102.052916 
L 145.810493 104.788064 
L 146.065817 97.164567 
L 147.087117 92.68358 
L 147.342442 92.218023 
L 147.597767 93.672889 
L 147.853092 88.609956 
L 148.619067 91.461493 
L 148.874392 96.640815 
L 149.129717 97.222761 
L 149.385042 89.482875 
L 149.640367 91.461493 
L 150.661667 97.979292 
L 150.916992 101.936527 
L 151.172317 93.789278 
L 151.427642 98.619433 
L 152.193616 97.979292 
L 152.448941 97.106372 
L 152.704266 104.729869 
L 152.959591 106.99946 
L 153.214916 107.348627 
L 153.980891 109.210856 
L 154.236216 104.380701 
L 154.491541 101.820137 
L 154.746866 97.397345 
L 155.002191 98.9686 
L 155.768166 96.757204 
L 156.023491 102.052916 
L 156.278816 100.481661 
L 156.534141 109.036272 
L 156.789466 104.206117 
L 157.55544 103.042225 
L 157.810765 107.872379 
L 158.06609 108.279741 
L 158.321415 116.42699 
L 158.57674 110.316554 
L 160.10869 115.728654 
L 160.364015 114.215594 
L 161.12999 114.331983 
L 161.385315 112.295171 
L 161.895965 102.809446 
L 162.15129 99.957909 
L 162.917264 102.925835 
L 163.172589 101.529164 
L 163.427914 103.798755 
L 163.683239 103.391392 
L 163.938564 101.412775 
L 164.704539 102.285694 
L 164.959864 111.131278 
L 165.215189 112.004198 
L 165.725839 123.875903 
L 166.491814 120.617003 
L 166.747139 116.601574 
L 167.257789 126.669245 
L 167.513114 124.050487 
L 168.279089 122.362842 
L 169.300388 131.732178 
L 170.066363 129.986339 
L 170.577013 118.987554 
L 170.832338 121.140755 
L 171.087663 119.627695 
L 171.853638 118.929359 
L 172.108963 126.494661 
L 172.364288 128.124111 
L 172.619613 124.283265 
L 172.874938 126.261883 
L 173.640913 127.774943 
L 173.896238 130.568286 
L 174.151562 130.451896 
L 174.662212 117.881856 
L 175.683512 122.886594 
L 175.938837 121.373534 
L 176.194162 119.103943 
L 176.449487 124.166876 
L 177.215462 127.076608 
L 177.470787 123.410346 
L 177.726112 124.108681 
L 177.981437 126.087299 
L 178.236762 123.58493 
L 179.002737 124.632433 
L 179.258062 128.589668 
L 179.513387 128.764252 
L 180.024036 133.76899 
L 180.790011 134.409131 
L 181.300661 128.938836 
L 181.555986 129.753561 
L 181.811311 132.896071 
L 182.577286 133.594406 
L 182.832611 139.704843 
L 183.087936 143.138326 
L 183.343261 144.767776 
L 183.598586 144.360413 
L 184.619886 146.106252 
L 184.875211 144.418608 
L 185.130536 151.460158 
L 185.385861 151.634742 
L 186.151835 151.809326 
L 186.40716 148.608621 
L 186.662485 151.634742 
L 186.91781 148.492232 
L 187.173135 148.550427 
L 187.93911 153.205997 
L 188.96041 141.392487 
L 189.726385 142.43999 
L 190.237035 148.492232 
L 190.747685 144.767776 
L 191.768984 141.68346 
L 192.024309 141.79985 
L 192.279634 150.587239 
L 192.534959 150.35446 
L 193.300934 151.460158 
L 193.556259 150.179877 
L 194.066909 156.406702 
L 194.322234 150.878212 
L 195.088209 150.35446 
L 195.598859 142.207212 
L 195.854184 147.095561 
L 196.109509 147.270145 
L 196.875483 145.989863 
L 197.130808 145.989863 
L 197.386133 137.144279 
L 197.641458 137.78442 
L 197.896783 136.445943 
L 198.662758 138.599145 
L 199.173408 131.557594 
L 199.428733 133.419822 
L 199.684058 134.350937 
L 200.705358 134.176353 
L 200.960683 131.790373 
L 201.216008 130.62648 
L 201.471333 128.880641 
L 202.237308 131.266621 
L 202.492632 132.837876 
L 202.747957 132.663292 
L 203.003282 126.378272 
L 203.258607 123.235762 
L 204.024582 120.733393 
L 204.279907 118.289218 
L 204.535232 113.109896 
L 205.045882 110.14197 
L 206.067182 113.051701 
L 206.322507 108.454325 
L 206.577832 110.083775 
L 206.833157 112.993507 
L 207.599132 114.04101 
L 207.854457 113.808232 
L 208.109781 114.099205 
L 208.365106 110.782111 
L 208.620431 114.506567 
L 209.641731 127.425775 
L 209.897056 125.738131 
L 210.152381 123.061178 
L 210.407706 117.18352 
L 211.173681 120.44242 
L 211.684331 115.728654 
L 211.939656 114.564762 
L 212.194981 108.163352 
L 212.960956 108.221547 
L 213.216281 106.184735 
L 213.471606 101.703748 
L 213.72693 104.904453 
L 213.982255 113.982815 
L 214.74823 111.887809 
L 215.003555 106.824876 
L 215.25888 106.301124 
L 215.514205 109.210856 
L 215.76953 113.982815 
L 216.535505 110.491137 
L 216.79083 111.073084 
L 217.046155 109.210856 
L 217.30148 111.538641 
L 217.556805 109.967386 
L 218.578105 111.014889 
L 218.83343 112.877117 
L 219.088755 119.278527 
L 219.344079 115.204903 
L 220.110054 115.263097 
L 220.365379 114.273789 
L 220.876029 118.289218 
L 221.131354 120.500614 
L 221.897329 125.214379 
L 222.152654 125.97091 
L 222.663304 121.780896 
L 222.918629 124.34146 
L 223.939929 116.252406 
L 224.195254 120.151446 
L 224.450579 117.18352 
L 224.705904 117.590883 
L 225.471878 121.897285 
L 225.727203 121.19895 
L 225.982528 119.802279 
L 226.237853 124.981601 
L 226.493178 123.526735 
L 227.514478 130.742869 
L 227.769803 129.695366 
L 228.025128 130.62648 
L 228.280453 128.531473 
L 229.046428 132.488708 
L 229.301753 129.520782 
L 229.557078 132.488708 
L 230.067728 133.128849 
L 230.833702 130.742869 
L 231.089027 130.684675 
L 231.344352 127.716749 
L 231.599677 126.785634 
L 231.855002 122.188259 
L 232.620977 125.738131 
L 232.876302 125.679936 
L 233.131627 128.124111 
L 233.386952 124.632433 
L 233.642277 125.272574 
L 234.408252 126.494661 
L 234.663577 125.330769 
L 235.429552 117.18352 
L 236.195527 117.416299 
L 236.961501 121.373534 
L 237.216826 127.658554 
L 237.982801 132.954265 
L 238.493451 132.663292 
L 238.748776 128.880641 
L 239.004101 130.102728 
L 239.770076 125.505353 
L 240.280726 117.94005 
L 240.791376 122.886594 
L 241.812676 124.108681 
L 242.068 126.611051 
L 242.323325 124.108681 
L 242.57865 125.272574 
L 243.344625 123.526735 
L 243.59995 124.807017 
L 243.855275 129.404393 
L 244.1106 131.38301 
L 244.365925 128.822447 
L 245.64255 129.288004 
L 245.897875 132.430514 
L 246.1532 139.821232 
L 246.919175 142.730964 
L 247.1745 140.519568 
L 247.429825 140.228594 
L 247.685149 143.371105 
L 247.940474 142.265407 
L 248.706449 138.075393 
L 248.961774 138.831923 
L 249.217099 137.609836 
L 249.472424 137.78442 
L 249.727749 135.631219 
L 250.493724 132.663292 
L 250.749049 133.245239 
L 251.004374 135.456635 
L 251.259699 136.445943 
L 251.515024 135.456635 
L 252.536324 133.478017 
L 252.791649 136.9115 
L 253.046974 136.504138 
L 253.302298 133.88538 
L 254.068273 136.445943 
L 254.578923 140.577762 
L 254.834248 139.646648 
L 255.089573 139.995816 
L 255.855548 136.9115 
L 256.110873 137.260668 
L 256.366198 133.01246 
L 256.621523 131.673984 
L 256.876848 134.176353 
L 257.642823 133.245239 
L 257.898148 133.76899 
L 258.153473 133.128849 
L 258.408798 130.451896 
L 258.664123 130.044534 
L 259.430097 129.86995 
L 259.685422 131.092037 
L 259.940747 129.288004 
L 260.196072 129.288004 
L 260.451397 131.906762 
L 261.217372 133.245239 
L 261.472697 133.303433 
L 261.728022 135.689413 
L 261.983347 136.562333 
L 262.238672 136.213165 
L 263.004647 131.033843 
L 263.259972 132.430514 
L 263.515297 131.150232 
L 263.770622 132.605098 
L 264.025947 131.092037 
L 264.791921 134.292742 
L 265.047246 131.790373 
L 265.302571 131.732178 
L 265.557896 129.695366 
L 265.813221 131.848567 
L 266.579196 131.266621 
L 266.834521 129.637171 
L 267.089846 126.436467 
L 267.345171 125.679936 
L 268.366471 126.902024 
L 268.877121 124.690628 
L 269.132446 121.024366 
L 269.387771 120.907977 
L 270.153746 118.114634 
L 270.40907 119.627695 
L 270.664395 116.136017 
L 270.91972 117.881856 
L 271.175045 112.004198 
L 271.94102 110.083775 
L 272.196345 111.131278 
L 272.45167 117.416299 
L 272.96232 112.993507 
L 273.728295 113.517258 
L 273.98362 118.463802 
L 274.49427 113.633648 
L 274.749595 107.75599 
L 275.51557 107.348627 
L 275.770895 108.628909 
L 276.026219 104.322507 
L 276.281544 106.184735 
L 276.536869 106.941265 
L 277.558169 103.158614 
L 277.813494 101.529164 
L 278.068819 98.037486 
L 278.324144 100.016104 
L 279.090119 97.048178 
L 279.345444 95.06956 
L 279.600769 96.989983 
L 279.856094 93.149137 
L 280.111419 93.614694 
L 281.132719 93.847473 
L 281.388044 92.218023 
L 281.643368 94.138446 
L 281.898693 93.672889 
L 282.664668 94.022057 
L 282.919993 91.636077 
L 283.175318 88.086204 
L 283.685968 78.716868 
L 284.451943 74.003103 
L 284.707268 79.473399 
L 284.962593 71.733513 
L 285.217918 68.241835 
L 285.473243 69.929479 
L 286.239218 67.776278 
L 286.494543 70.860593 
L 286.749868 72.257264 
L 287.260517 77.262003 
L 288.026492 69.172949 
L 288.281817 65.157519 
L 288.537142 67.950862 
L 288.792467 65.79766 
L 289.047792 67.136137 
L 289.813767 57.359438 
L 290.069092 56.486519 
L 290.579742 57.650412 
L 290.835067 52.471089 
L 291.601042 55.846378 
L 291.856367 65.448492 
L 292.111692 64.750157 
L 292.367017 61.724036 
L 292.622342 68.416419 
L 293.388316 74.410466 
L 293.643641 68.591002 
L 293.898966 73.421157 
L 294.409616 68.416419 
L 295.175591 70.511425 
L 295.430916 82.49952 
L 295.686241 76.796446 
L 295.941566 81.742989 
L 296.196891 78.193117 
L 296.962866 74.46866 
L 297.218191 73.944909 
L 297.473516 69.289338 
L 297.728841 72.257264 
L 297.984166 71.093372 
L 298.75014 74.643244 
L 299.005465 74.410466 
L 299.26079 73.421157 
L 299.516115 79.182425 
L 299.77144 77.494781 
L 300.537415 77.203808 
L 300.79274 72.373654 
L 301.30339 71.500734 
L 301.558715 72.839211 
L 302.580015 63.935432 
L 302.83534 66.030439 
L 303.090665 66.728774 
L 303.34599 70.686009 
L 304.111964 72.19907 
L 304.367289 75.981721 
L 304.622614 77.61117 
L 304.877939 75.457969 
L 305.133264 76.505472 
L 305.899239 77.669365 
L 306.154564 79.880761 
L 306.409889 73.828519 
L 306.920539 70.918788 
L 307.941839 72.315459 
L 308.197164 73.362962 
L 308.452489 75.807137 
L 308.707814 74.817828 
L 309.473789 68.591002 
L 309.984438 70.744204 
L 310.239763 69.05656 
L 310.495088 71.966291 
L 311.261063 72.257264 
L 311.516388 73.421157 
L 311.771713 69.231143 
L 312.282363 70.045868 
L 313.303663 72.606432 
L 313.558988 71.791707 
L 313.814313 77.960338 
L 314.069638 78.542285 
L 314.835613 77.145613 
L 315.090938 74.235882 
L 315.346263 74.817828 
L 315.601587 76.563667 
L 316.622887 70.686009 
L 316.878212 70.220452 
L 317.133537 71.151566 
L 317.388862 68.474613 
L 317.644187 63.237096 
L 318.410162 64.2846 
L 318.665487 61.89862 
L 318.920812 63.062512 
L 319.176137 56.195546 
L 319.431462 53.460398 
L 320.452762 55.439016 
L 320.963412 59.570835 
L 321.218736 56.777492 
L 321.984711 56.719298 
L 322.240036 55.322626 
L 322.495361 60.152781 
L 322.750686 62.480566 
L 323.006011 63.528069 
L 323.771986 65.215714 
L 324.282636 67.659888 
L 324.793286 65.506687 
L 325.559261 65.79766 
L 326.069911 61.607647 
L 326.325236 62.189593 
L 326.580561 56.835687 
L 327.346535 56.428324 
L 327.60186 57.301244 
L 327.857185 56.719298 
L 328.11251 50.550667 
L 328.367835 48.397465 
L 329.13381 49.328579 
L 329.389135 46.011485 
L 329.64446 46.768015 
L 329.899785 48.921217 
L 330.15511 45.953291 
L 330.921085 48.921217 
L 331.17641 43.800089 
L 331.68706 40.715774 
L 331.942385 37.631458 
L 332.708359 34.779921 
L 332.963684 33.325055 
L 332.963684 33.325055 
" clip-path="url(#pb28e6936d9)" style="fill: none; stroke: #d3d3d3; stroke-linecap: square"/>
   </g>
   <g id="line2d_32">
    <path d="M 53.893509 52.529284 
L 54.148834 43.567311 
L 54.404159 42.05425 
L 54.659484 42.694391 
L 54.914809 44.44023 
L 55.680783 46.884405 
L 55.936108 42.810781 
L 56.191433 45.19676 
L 56.446758 45.836901 
L 56.702083 54.100539 
L 57.723383 54.507902 
L 57.978708 54.857069 
L 58.234033 53.809566 
L 58.489358 55.729989 
L 59.255333 60.443754 
L 59.510658 59.163472 
L 59.765983 60.909311 
L 60.021308 67.950862 
L 60.276633 75.225191 
L 61.042608 75.690748 
L 61.297932 77.203808 
L 61.553257 75.050607 
L 61.808582 68.125445 
L 62.063907 75.516164 
L 62.829882 74.177687 
L 63.085207 69.580311 
L 63.340532 66.55419 
L 63.595857 69.405727 
L 63.851182 70.453231 
L 64.617157 74.177687 
L 64.872482 71.209761 
L 65.127807 70.744204 
L 65.383132 69.522117 
L 65.638457 70.278647 
L 66.659757 58.057774 
L 66.915081 60.560143 
L 67.170406 65.564882 
L 67.425731 75.34158 
L 68.191706 80.811875 
L 68.447031 82.324936 
L 68.702356 79.007842 
L 68.957681 83.721607 
L 69.213006 83.779801 
L 69.978981 84.652721 
L 70.234306 87.15509 
L 70.489631 86.223976 
L 70.744956 79.938956 
L 71.000281 81.393822 
L 71.766256 82.033962 
L 72.021581 82.266741 
L 72.276906 79.24062 
L 72.53223 78.425895 
L 72.787555 79.357009 
L 73.55353 78.425895 
L 73.808855 78.833258 
L 74.06418 84.361748 
L 74.319505 79.531593 
L 74.57483 77.61117 
L 75.340805 82.208546 
L 75.59613 84.01258 
L 75.851455 89.250097 
L 76.10678 85.176473 
L 76.362105 86.340365 
L 77.12808 87.15509 
L 77.383405 85.52564 
L 77.63873 82.092157 
L 77.894055 85.991197 
L 78.149379 85.409251 
L 78.915354 85.52564 
L 79.170679 85.351056 
L 79.426004 87.678842 
L 79.681329 89.250097 
L 79.936654 86.922312 
L 80.702629 87.737036 
L 80.957954 91.985245 
L 81.213279 98.270265 
L 81.468604 97.862902 
L 81.723929 97.688318 
L 82.489904 96.69901 
L 82.745229 104.322507 
L 83.000554 107.115849 
L 83.255879 114.91393 
L 83.511204 114.564762 
L 84.277178 112.760728 
L 84.532503 115.786849 
L 84.787828 126.087299 
L 85.043153 125.156185 
L 85.298478 122.479232 
L 86.064453 122.653816 
L 86.319778 118.405607 
L 86.575103 114.099205 
L 86.830428 118.521997 
L 87.085753 115.088513 
L 87.851728 111.713225 
L 88.107053 116.659768 
L 88.362378 124.34146 
L 88.617703 122.537426 
L 88.873028 122.886594 
" clip-path="url(#pb28e6936d9)" style="fill: none; stroke: #000000; stroke-linecap: square"/>
   </g>
   <g id="patch_3">
    <path d="M 39.94 168.671221 
L 39.94 26.88 
" style="fill: none; stroke: #000000; stroke-width: 0.8; stroke-linejoin: miter; stroke-linecap: square"/>
   </g>
   <g id="patch_4">
    <path d="M 346.917193 168.671221 
L 346.917193 26.88 
" style="fill: none; stroke: #000000; stroke-width: 0.8; stroke-linejoin: miter; stroke-linecap: square"/>
   </g>
   <g id="patch_5">
    <path d="M 39.94 168.671221 
L 346.917193 168.671221 
" style="fill: none; stroke: #000000; stroke-width: 0.8; stroke-linejoin: miter; stroke-linecap: square"/>
   </g>
   <g id="patch_6">
    <path d="M 39.94 26.88 
L 346.917193 26.88 
" style="fill: none; stroke: #000000; stroke-width: 0.8; stroke-linejoin: miter; stroke-linecap: square"/>
   </g>
   <g id="text_16">
    <!-- EUR/USD -->
    <g transform="translate(166.235472 20.88) scale(0.12 -0.12)">
     <defs>
      <path id="DejaVuSans-45" d="M 628 4666 
L 3578 4666 
L 3578 4134 
L 1259 4134 
L 1259 2753 
L 3481 2753 
L 3481 2222 
L 1259 2222 
L 1259 531 
L 3634 531 
L 3634 0 
L 628 0 
L 628 4666 
z
" transform="scale(0.015625)"/>
      <path id="DejaVuSans-55" d="M 556 4666 
L 1191 4666 
L 1191 1831 
Q 1191 1081 1462 751 
Q 1734 422 2344 422 
Q 2950 422 3222 751 
Q 3494 1081 3494 1831 
L 3494 4666 
L 4128 4666 
L 4128 1753 
Q 4128 841 3676 375 
Q 3225 -91 2344 -91 
Q 1459 -91 1007 375 
Q 556 841 556 1753 
L 556 4666 
z
" transform="scale(0.015625)"/>
      <path id="DejaVuSans-52" d="M 2841 2188 
Q 3044 2119 3236 1894 
Q 3428 1669 3622 1275 
L 4263 0 
L 3584 0 
L 2988 1197 
Q 2756 1666 2539 1819 
Q 2322 1972 1947 1972 
L 1259 1972 
L 1259 0 
L 628 0 
L 628 4666 
L 2053 4666 
Q 2853 4666 3247 4331 
Q 3641 3997 3641 3322 
Q 3641 2881 3436 2590 
Q 3231 2300 2841 2188 
z
M 1259 4147 
L 1259 2491 
L 2053 2491 
Q 2509 2491 2742 2702 
Q 2975 2913 2975 3322 
Q 2975 3731 2742 3939 
Q 2509 4147 2053 4147 
L 1259 4147 
z
" transform="scale(0.015625)"/>
      <path id="DejaVuSans-2f" d="M 1625 4666 
L 2156 4666 
L 531 -594 
L 0 -594 
L 1625 4666 
z
" transform="scale(0.015625)"/>
      <path id="DejaVuSans-53" d="M 3425 4513 
L 3425 3897 
Q 3066 4069 2747 4153 
Q 2428 4238 2131 4238 
Q 1616 4238 1336 4038 
Q 1056 3838 1056 3469 
Q 1056 3159 1242 3001 
Q 1428 2844 1947 2747 
L 2328 2669 
Q 3034 2534 3370 2195 
Q 3706 1856 3706 1288 
Q 3706 609 3251 259 
Q 2797 -91 1919 -91 
Q 1588 -91 1214 -16 
Q 841 59 441 206 
L 441 856 
Q 825 641 1194 531 
Q 1563 422 1919 422 
Q 2459 422 2753 634 
Q 3047 847 3047 1241 
Q 3047 1584 2836 1778 
Q 2625 1972 2144 2069 
L 1759 2144 
Q 1053 2284 737 2584 
Q 422 2884 422 3419 
Q 422 4038 858 4394 
Q 1294 4750 2059 4750 
Q 2388 4750 2728 4690 
Q 3069 4631 3425 4513 
z
" transform="scale(0.015625)"/>
      <path id="DejaVuSans-44" d="M 1259 4147 
L 1259 519 
L 2022 519 
Q 2988 519 3436 956 
Q 3884 1394 3884 2338 
Q 3884 3275 3436 3711 
Q 2988 4147 2022 4147 
L 1259 4147 
z
M 628 4666 
L 1925 4666 
Q 3281 4666 3915 4102 
Q 4550 3538 4550 2338 
Q 4550 1131 3912 565 
Q 3275 0 1925 0 
L 628 0 
L 628 4666 
z
" transform="scale(0.015625)"/>
     </defs>
     <use xlink:href="#DejaVuSans-45"/>
     <use xlink:href="#DejaVuSans-55" x="63.183594"/>
     <use xlink:href="#DejaVuSans-52" x="136.376953"/>
     <use xlink:href="#DejaVuSans-2f" x="205.859375"/>
     <use xlink:href="#DejaVuSans-55" x="239.550781"/>
     <use xlink:href="#DejaVuSans-53" x="312.744141"/>
     <use xlink:href="#DejaVuSans-44" x="376.220703"/>
    </g>
   </g>
  </g>
 </g>
 <defs>
  <clipPath id="pb28e6936d9">
   <rect x="39.94" y="26.88" width="306.977193" height="141.791221"/>
  </clipPath>
 </defs>
</svg>
