<?xml version="1.0" encoding="utf-8" standalone="no"?>
<!DOCTYPE svg PUBLIC "-//W3C//DTD SVG 1.1//EN"
  "http://www.w3.org/Graphics/SVG/1.1/DTD/svg11.dtd">
<svg xmlns:xlink="http://www.w3.org/1999/xlink" width="360pt" height="216pt" viewBox="0 0 360 216" xmlns="http://www.w3.org/2000/svg" version="1.1">
 <metadata>
  <rdf:RDF xmlns:dc="http://purl.org/dc/elements/1.1/" xmlns:cc="http://creativecommons.org/ns#" xmlns:rdf="http://www.w3.org/1999/02/22-rdf-syntax-ns#">
   <cc:Work>
    <dc:type rdf:resource="http://purl.org/dc/dcmitype/StillImage"/>
    <dc:date>2022-08-15T12:16:45.440768</dc:date>
    <dc:format>image/svg+xml</dc:format>
    <dc:creator>
     <cc:Agent>
      <dc:title>Matplotlib v3.5.2, https://matplotlib.org/</dc:title>
     </cc:Agent>
    </dc:creator>
   </cc:Work>
  </rdf:RDF>
 </metadata>
 <defs>
  <style type="text/css">*{stroke-linejoin: round; stroke-linecap: butt}</style>
 </defs>
 <g id="figure_1">
  <g id="patch_1">
   <path d="M 0 216 
L 360 216 
L 360 0 
L 0 0 
L 0 216 
z
" style="fill: none"/>
  </g>
  <g id="axes_1">
   <g id="patch_2">
    <path d="M 24.175 168.678292 
L 347.165158 168.678292 
L 347.165158 26.8 
L 24.175 26.8 
z
" style="fill: #ffffff"/>
   </g>
   <g id="matplotlib.axis_1">
    <g id="xtick_1">
     <g id="line2d_1">
      <defs>
       <path id="m0326455d49" d="M 0 0 
L 0 3.5 
" style="stroke: #000000; stroke-width: 0.8"/>
      </defs>
      <g>
       <use xlink:href="#m0326455d49" x="38.856371" y="168.678292" style="stroke: #000000; stroke-width: 0.8"/>
      </g>
     </g>
     <g id="text_1">
      <!-- '00-01 -->
      <g transform="translate(29.562336 203.541614)rotate(-45)scale(0.1 -0.1)">
       <defs>
        <path id="DejaVuSans-27" d="M 1147 4666 
L 1147 2931 
L 616 2931 
L 616 4666 
L 1147 4666 
z
" transform="scale(0.015625)"/>
        <path id="DejaVuSans-30" d="M 2034 4250 
Q 1547 4250 1301 3770 
Q 1056 3291 1056 2328 
Q 1056 1369 1301 889 
Q 1547 409 2034 409 
Q 2525 409 2770 889 
Q 3016 1369 3016 2328 
Q 3016 3291 2770 3770 
Q 2525 4250 2034 4250 
z
M 2034 4750 
Q 2819 4750 3233 4129 
Q 3647 3509 3647 2328 
Q 3647 1150 3233 529 
Q 2819 -91 2034 -91 
Q 1250 -91 836 529 
Q 422 1150 422 2328 
Q 422 3509 836 4129 
Q 1250 4750 2034 4750 
z
" transform="scale(0.015625)"/>
        <path id="DejaVuSans-2d" d="M 313 2009 
L 1997 2009 
L 1997 1497 
L 313 1497 
L 313 2009 
z
" transform="scale(0.015625)"/>
        <path id="DejaVuSans-31" d="M 794 531 
L 1825 531 
L 1825 4091 
L 703 3866 
L 703 4441 
L 1819 4666 
L 2450 4666 
L 2450 531 
L 3481 531 
L 3481 0 
L 794 0 
L 794 531 
z
" transform="scale(0.015625)"/>
       </defs>
       <use xlink:href="#DejaVuSans-27"/>
       <use xlink:href="#DejaVuSans-30" x="27.490234"/>
       <use xlink:href="#DejaVuSans-30" x="91.113281"/>
       <use xlink:href="#DejaVuSans-2d" x="154.736328"/>
       <use xlink:href="#DejaVuSans-30" x="190.820312"/>
       <use xlink:href="#DejaVuSans-31" x="254.443359"/>
      </g>
     </g>
    </g>
    <g id="xtick_2">
     <g id="line2d_2">
      <g>
       <use xlink:href="#m0326455d49" x="71.273266" y="168.678292" style="stroke: #000000; stroke-width: 0.8"/>
      </g>
     </g>
     <g id="text_2">
      <!-- '00-05 -->
      <g transform="translate(61.979232 203.541614)rotate(-45)scale(0.1 -0.1)">
       <defs>
        <path id="DejaVuSans-35" d="M 691 4666 
L 3169 4666 
L 3169 4134 
L 1269 4134 
L 1269 2991 
Q 1406 3038 1543 3061 
Q 1681 3084 1819 3084 
Q 2600 3084 3056 2656 
Q 3513 2228 3513 1497 
Q 3513 744 3044 326 
Q 2575 -91 1722 -91 
Q 1428 -91 1123 -41 
Q 819 9 494 109 
L 494 744 
Q 775 591 1075 516 
Q 1375 441 1709 441 
Q 2250 441 2565 725 
Q 2881 1009 2881 1497 
Q 2881 1984 2565 2268 
Q 2250 2553 1709 2553 
Q 1456 2553 1204 2497 
Q 953 2441 691 2322 
L 691 4666 
z
" transform="scale(0.015625)"/>
       </defs>
       <use xlink:href="#DejaVuSans-27"/>
       <use xlink:href="#DejaVuSans-30" x="27.490234"/>
       <use xlink:href="#DejaVuSans-30" x="91.113281"/>
       <use xlink:href="#DejaVuSans-2d" x="154.736328"/>
       <use xlink:href="#DejaVuSans-30" x="190.820312"/>
       <use xlink:href="#DejaVuSans-35" x="254.443359"/>
      </g>
     </g>
    </g>
    <g id="xtick_3">
     <g id="line2d_3">
      <g>
       <use xlink:href="#m0326455d49" x="104.225978" y="168.678292" style="stroke: #000000; stroke-width: 0.8"/>
      </g>
     </g>
     <g id="text_3">
      <!-- '00-09 -->
      <g transform="translate(94.931943 203.541614)rotate(-45)scale(0.1 -0.1)">
       <defs>
        <path id="DejaVuSans-39" d="M 703 97 
L 703 672 
Q 941 559 1184 500 
Q 1428 441 1663 441 
Q 2288 441 2617 861 
Q 2947 1281 2994 2138 
Q 2813 1869 2534 1725 
Q 2256 1581 1919 1581 
Q 1219 1581 811 2004 
Q 403 2428 403 3163 
Q 403 3881 828 4315 
Q 1253 4750 1959 4750 
Q 2769 4750 3195 4129 
Q 3622 3509 3622 2328 
Q 3622 1225 3098 567 
Q 2575 -91 1691 -91 
Q 1453 -91 1209 -44 
Q 966 3 703 97 
z
M 1959 2075 
Q 2384 2075 2632 2365 
Q 2881 2656 2881 3163 
Q 2881 3666 2632 3958 
Q 2384 4250 1959 4250 
Q 1534 4250 1286 3958 
Q 1038 3666 1038 3163 
Q 1038 2656 1286 2365 
Q 1534 2075 1959 2075 
z
" transform="scale(0.015625)"/>
       </defs>
       <use xlink:href="#DejaVuSans-27"/>
       <use xlink:href="#DejaVuSans-30" x="27.490234"/>
       <use xlink:href="#DejaVuSans-30" x="91.113281"/>
       <use xlink:href="#DejaVuSans-2d" x="154.736328"/>
       <use xlink:href="#DejaVuSans-30" x="190.820312"/>
       <use xlink:href="#DejaVuSans-39" x="254.443359"/>
      </g>
     </g>
    </g>
    <g id="xtick_4">
     <g id="line2d_4">
      <g>
       <use xlink:href="#m0326455d49" x="136.910782" y="168.678292" style="stroke: #000000; stroke-width: 0.8"/>
      </g>
     </g>
     <g id="text_4">
      <!-- '01-01 -->
      <g transform="translate(127.616747 203.541614)rotate(-45)scale(0.1 -0.1)">
       <use xlink:href="#DejaVuSans-27"/>
       <use xlink:href="#DejaVuSans-30" x="27.490234"/>
       <use xlink:href="#DejaVuSans-31" x="91.113281"/>
       <use xlink:href="#DejaVuSans-2d" x="154.736328"/>
       <use xlink:href="#DejaVuSans-30" x="190.820312"/>
       <use xlink:href="#DejaVuSans-31" x="254.443359"/>
      </g>
     </g>
    </g>
    <g id="xtick_5">
     <g id="line2d_5">
      <g>
       <use xlink:href="#m0326455d49" x="169.059769" y="168.678292" style="stroke: #000000; stroke-width: 0.8"/>
      </g>
     </g>
     <g id="text_5">
      <!-- '01-05 -->
      <g transform="translate(159.765734 203.541614)rotate(-45)scale(0.1 -0.1)">
       <use xlink:href="#DejaVuSans-27"/>
       <use xlink:href="#DejaVuSans-30" x="27.490234"/>
       <use xlink:href="#DejaVuSans-31" x="91.113281"/>
       <use xlink:href="#DejaVuSans-2d" x="154.736328"/>
       <use xlink:href="#DejaVuSans-30" x="190.820312"/>
       <use xlink:href="#DejaVuSans-35" x="254.443359"/>
      </g>
     </g>
    </g>
    <g id="xtick_6">
     <g id="line2d_6">
      <g>
       <use xlink:href="#m0326455d49" x="202.012481" y="168.678292" style="stroke: #000000; stroke-width: 0.8"/>
      </g>
     </g>
     <g id="text_6">
      <!-- '01-09 -->
      <g transform="translate(192.718446 203.541614)rotate(-45)scale(0.1 -0.1)">
       <use xlink:href="#DejaVuSans-27"/>
       <use xlink:href="#DejaVuSans-30" x="27.490234"/>
       <use xlink:href="#DejaVuSans-31" x="91.113281"/>
       <use xlink:href="#DejaVuSans-2d" x="154.736328"/>
       <use xlink:href="#DejaVuSans-30" x="190.820312"/>
       <use xlink:href="#DejaVuSans-39" x="254.443359"/>
      </g>
     </g>
    </g>
    <g id="xtick_7">
     <g id="line2d_7">
      <g>
       <use xlink:href="#m0326455d49" x="234.697285" y="168.678292" style="stroke: #000000; stroke-width: 0.8"/>
      </g>
     </g>
     <g id="text_7">
      <!-- '02-01 -->
      <g transform="translate(225.40325 203.541614)rotate(-45)scale(0.1 -0.1)">
       <defs>
        <path id="DejaVuSans-32" d="M 1228 531 
L 3431 531 
L 3431 0 
L 469 0 
L 469 531 
Q 828 903 1448 1529 
Q 2069 2156 2228 2338 
Q 2531 2678 2651 2914 
Q 2772 3150 2772 3378 
Q 2772 3750 2511 3984 
Q 2250 4219 1831 4219 
Q 1534 4219 1204 4116 
Q 875 4013 500 3803 
L 500 4441 
Q 881 4594 1212 4672 
Q 1544 4750 1819 4750 
Q 2544 4750 2975 4387 
Q 3406 4025 3406 3419 
Q 3406 3131 3298 2873 
Q 3191 2616 2906 2266 
Q 2828 2175 2409 1742 
Q 1991 1309 1228 531 
z
" transform="scale(0.015625)"/>
       </defs>
       <use xlink:href="#DejaVuSans-27"/>
       <use xlink:href="#DejaVuSans-30" x="27.490234"/>
       <use xlink:href="#DejaVuSans-32" x="91.113281"/>
       <use xlink:href="#DejaVuSans-2d" x="154.736328"/>
       <use xlink:href="#DejaVuSans-30" x="190.820312"/>
       <use xlink:href="#DejaVuSans-31" x="254.443359"/>
      </g>
     </g>
    </g>
    <g id="xtick_8">
     <g id="line2d_8">
      <g>
       <use xlink:href="#m0326455d49" x="266.846272" y="168.678292" style="stroke: #000000; stroke-width: 0.8"/>
      </g>
     </g>
     <g id="text_8">
      <!-- '02-05 -->
      <g transform="translate(257.552237 203.541614)rotate(-45)scale(0.1 -0.1)">
       <use xlink:href="#DejaVuSans-27"/>
       <use xlink:href="#DejaVuSans-30" x="27.490234"/>
       <use xlink:href="#DejaVuSans-32" x="91.113281"/>
       <use xlink:href="#DejaVuSans-2d" x="154.736328"/>
       <use xlink:href="#DejaVuSans-30" x="190.820312"/>
       <use xlink:href="#DejaVuSans-35" x="254.443359"/>
      </g>
     </g>
    </g>
    <g id="xtick_9">
     <g id="line2d_9">
      <g>
       <use xlink:href="#m0326455d49" x="299.798984" y="168.678292" style="stroke: #000000; stroke-width: 0.8"/>
      </g>
     </g>
     <g id="text_9">
      <!-- '02-09 -->
      <g transform="translate(290.504949 203.541614)rotate(-45)scale(0.1 -0.1)">
       <use xlink:href="#DejaVuSans-27"/>
       <use xlink:href="#DejaVuSans-30" x="27.490234"/>
       <use xlink:href="#DejaVuSans-32" x="91.113281"/>
       <use xlink:href="#DejaVuSans-2d" x="154.736328"/>
       <use xlink:href="#DejaVuSans-30" x="190.820312"/>
       <use xlink:href="#DejaVuSans-39" x="254.443359"/>
      </g>
     </g>
    </g>
    <g id="xtick_10">
     <g id="line2d_10">
      <g>
       <use xlink:href="#m0326455d49" x="332.483787" y="168.678292" style="stroke: #000000; stroke-width: 0.8"/>
      </g>
     </g>
     <g id="text_10">
      <!-- '03-01 -->
      <g transform="translate(323.189753 203.541614)rotate(-45)scale(0.1 -0.1)">
       <defs>
        <path id="DejaVuSans-33" d="M 2597 2516 
Q 3050 2419 3304 2112 
Q 3559 1806 3559 1356 
Q 3559 666 3084 287 
Q 2609 -91 1734 -91 
Q 1441 -91 1130 -33 
Q 819 25 488 141 
L 488 750 
Q 750 597 1062 519 
Q 1375 441 1716 441 
Q 2309 441 2620 675 
Q 2931 909 2931 1356 
Q 2931 1769 2642 2001 
Q 2353 2234 1838 2234 
L 1294 2234 
L 1294 2753 
L 1863 2753 
Q 2328 2753 2575 2939 
Q 2822 3125 2822 3475 
Q 2822 3834 2567 4026 
Q 2313 4219 1838 4219 
Q 1578 4219 1281 4162 
Q 984 4106 628 3988 
L 628 4550 
Q 988 4650 1302 4700 
Q 1616 4750 1894 4750 
Q 2613 4750 3031 4423 
Q 3450 4097 3450 3541 
Q 3450 3153 3228 2886 
Q 3006 2619 2597 2516 
z
" transform="scale(0.015625)"/>
       </defs>
       <use xlink:href="#DejaVuSans-27"/>
       <use xlink:href="#DejaVuSans-30" x="27.490234"/>
       <use xlink:href="#DejaVuSans-33" x="91.113281"/>
       <use xlink:href="#DejaVuSans-2d" x="154.736328"/>
       <use xlink:href="#DejaVuSans-30" x="190.820312"/>
       <use xlink:href="#DejaVuSans-31" x="254.443359"/>
      </g>
     </g>
    </g>
   </g>
   <g id="matplotlib.axis_2">
    <g id="ytick_1">
     <g id="line2d_11">
      <defs>
       <path id="m5df8ee6c70" d="M 0 0 
L -3.5 0 
" style="stroke: #000000; stroke-width: 0.8"/>
      </defs>
      <g>
       <use xlink:href="#m5df8ee6c70" x="24.175" y="165.519592" style="stroke: #000000; stroke-width: 0.8"/>
      </g>
     </g>
     <g id="text_11">
      <!-- 1 -->
      <g transform="translate(10.8125 169.31881)scale(0.1 -0.1)">
       <use xlink:href="#DejaVuSans-31"/>
      </g>
     </g>
    </g>
    <g id="ytick_2">
     <g id="line2d_12">
      <g>
       <use xlink:href="#m5df8ee6c70" x="24.175" y="143.584172" style="stroke: #000000; stroke-width: 0.8"/>
      </g>
     </g>
     <g id="text_12">
      <!-- 2 -->
      <g transform="translate(10.8125 147.383391)scale(0.1 -0.1)">
       <use xlink:href="#DejaVuSans-32"/>
      </g>
     </g>
    </g>
    <g id="ytick_3">
     <g id="line2d_13">
      <g>
       <use xlink:href="#m5df8ee6c70" x="24.175" y="121.648753" style="stroke: #000000; stroke-width: 0.8"/>
      </g>
     </g>
     <g id="text_13">
      <!-- 3 -->
      <g transform="translate(10.8125 125.447972)scale(0.1 -0.1)">
       <use xlink:href="#DejaVuSans-33"/>
      </g>
     </g>
    </g>
    <g id="ytick_4">
     <g id="line2d_14">
      <g>
       <use xlink:href="#m5df8ee6c70" x="24.175" y="99.713334" style="stroke: #000000; stroke-width: 0.8"/>
      </g>
     </g>
     <g id="text_14">
      <!-- 4 -->
      <g transform="translate(10.8125 103.512552)scale(0.1 -0.1)">
       <defs>
        <path id="DejaVuSans-34" d="M 2419 4116 
L 825 1625 
L 2419 1625 
L 2419 4116 
z
M 2253 4666 
L 3047 4666 
L 3047 1625 
L 3713 1625 
L 3713 1100 
L 3047 1100 
L 3047 0 
L 2419 0 
L 2419 1100 
L 313 1100 
L 313 1709 
L 2253 4666 
z
" transform="scale(0.015625)"/>
       </defs>
       <use xlink:href="#DejaVuSans-34"/>
      </g>
     </g>
    </g>
    <g id="ytick_5">
     <g id="line2d_15">
      <g>
       <use xlink:href="#m5df8ee6c70" x="24.175" y="77.777914" style="stroke: #000000; stroke-width: 0.8"/>
      </g>
     </g>
     <g id="text_15">
      <!-- 5 -->
      <g transform="translate(10.8125 81.577133)scale(0.1 -0.1)">
       <use xlink:href="#DejaVuSans-35"/>
      </g>
     </g>
    </g>
    <g id="ytick_6">
     <g id="line2d_16">
      <g>
       <use xlink:href="#m5df8ee6c70" x="24.175" y="55.842495" style="stroke: #000000; stroke-width: 0.8"/>
      </g>
     </g>
     <g id="text_16">
      <!-- 6 -->
      <g transform="translate(10.8125 59.641714)scale(0.1 -0.1)">
       <defs>
        <path id="DejaVuSans-36" d="M 2113 2584 
Q 1688 2584 1439 2293 
Q 1191 2003 1191 1497 
Q 1191 994 1439 701 
Q 1688 409 2113 409 
Q 2538 409 2786 701 
Q 3034 994 3034 1497 
Q 3034 2003 2786 2293 
Q 2538 2584 2113 2584 
z
M 3366 4563 
L 3366 3988 
Q 3128 4100 2886 4159 
Q 2644 4219 2406 4219 
Q 1781 4219 1451 3797 
Q 1122 3375 1075 2522 
Q 1259 2794 1537 2939 
Q 1816 3084 2150 3084 
Q 2853 3084 3261 2657 
Q 3669 2231 3669 1497 
Q 3669 778 3244 343 
Q 2819 -91 2113 -91 
Q 1303 -91 875 529 
Q 447 1150 447 2328 
Q 447 3434 972 4092 
Q 1497 4750 2381 4750 
Q 2619 4750 2861 4703 
Q 3103 4656 3366 4563 
z
" transform="scale(0.015625)"/>
       </defs>
       <use xlink:href="#DejaVuSans-36"/>
      </g>
     </g>
    </g>
    <g id="ytick_7">
     <g id="line2d_17">
      <g>
       <use xlink:href="#m5df8ee6c70" x="24.175" y="33.907076" style="stroke: #000000; stroke-width: 0.8"/>
      </g>
     </g>
     <g id="text_17">
      <!-- 7 -->
      <g transform="translate(10.8125 37.706295)scale(0.1 -0.1)">
       <defs>
        <path id="DejaVuSans-37" d="M 525 4666 
L 3525 4666 
L 3525 4397 
L 1831 0 
L 1172 0 
L 2766 4134 
L 525 4134 
L 525 4666 
z
" transform="scale(0.015625)"/>
       </defs>
       <use xlink:href="#DejaVuSans-37"/>
      </g>
     </g>
    </g>
   </g>
   <g id="line2d_18">
    <path d="M 38.856371 99.932688 
L 39.124279 99.932688 
L 39.392187 68.345684 
L 39.660096 69.442455 
L 39.928004 68.784392 
L 40.195912 65.932788 
L 40.46382 64.397309 
L 40.999637 64.397309 
L 41.267545 61.545704 
L 41.535453 63.9586 
L 41.803361 64.836017 
L 42.07127 65.055371 
L 42.339178 65.49408 
L 43.142902 65.49408 
L 43.410811 59.571516 
L 43.678719 67.468267 
L 43.946627 68.12633 
L 44.214535 69.881163 
L 44.750352 69.881163 
L 45.01826 66.152142 
L 45.286168 67.687622 
L 45.554077 66.371496 
L 45.821985 64.397309 
L 46.089893 65.055371 
L 46.625709 65.055371 
L 46.893618 58.6941 
L 47.161526 60.448933 
L 47.429434 63.739246 
L 47.697342 62.203767 
L 47.965251 62.423121 
L 48.501067 62.423121 
L 48.768975 61.106996 
L 49.036883 63.081183 
L 49.304792 61.106996 
L 49.5727 60.448933 
L 49.840608 62.203767 
L 50.376425 62.203767 
L 50.912241 59.132808 
L 51.180149 63.081183 
L 51.448057 63.300538 
L 51.715966 62.423121 
L 52.51969 62.423121 
L 52.787599 60.010225 
L 53.055507 60.887642 
L 53.323415 61.106996 
L 53.591323 61.765058 
L 54.12714 61.765058 
L 54.395048 60.010225 
L 54.662956 59.132808 
L 54.930864 60.668287 
L 55.198773 61.106996 
L 55.466681 61.984413 
L 56.002497 61.984413 
L 56.270406 61.765058 
L 56.538314 62.861829 
L 56.806222 60.887642 
L 57.07413 60.448933 
L 57.342038 61.32635 
L 57.877855 61.32635 
L 58.145763 60.010225 
L 58.413671 60.229579 
L 58.68158 58.036037 
L 58.949488 60.887642 
L 59.217396 61.106996 
L 59.753213 61.106996 
L 60.021121 59.790871 
L 60.289029 60.010225 
L 60.556937 55.403787 
L 60.824845 54.965078 
L 61.092754 56.281204 
L 61.62857 56.281204 
L 61.896478 54.307016 
L 62.432295 56.281204 
L 62.700203 53.429599 
L 62.968111 52.113474 
L 63.503928 52.113474 
L 63.771836 52.552182 
L 64.039744 56.281204 
L 64.307652 54.087662 
L 64.575561 54.745724 
L 64.843469 56.939266 
L 65.379285 56.939266 
L 65.647194 54.745724 
L 65.915102 56.500558 
L 66.18301 57.377974 
L 66.450918 56.500558 
L 66.718826 54.087662 
L 67.254643 54.087662 
L 67.522551 51.89412 
L 67.790459 57.377974 
L 68.058368 57.377974 
L 68.326276 54.745724 
L 68.594184 57.15862 
L 69.13 57.15862 
L 69.397909 58.036037 
L 69.665817 56.061849 
L 69.933725 55.842495 
L 70.201633 55.842495 
L 70.469542 54.52637 
L 71.005358 54.52637 
L 71.273266 52.113474 
L 71.541175 54.745724 
L 72.076991 54.745724 
L 72.344899 57.15862 
L 72.880716 57.15862 
L 73.148624 55.623141 
L 73.416532 57.597329 
L 73.68444 56.939266 
L 74.220257 53.429599 
L 74.756073 53.429599 
L 75.023981 48.384453 
L 75.29189 52.990891 
L 75.559798 50.35864 
L 75.827706 45.09414 
L 76.095614 44.655431 
L 76.631431 44.655431 
L 76.899339 44.436077 
L 77.167247 45.532848 
L 77.435155 45.313494 
L 77.703064 43.55866 
L 77.970972 47.068327 
L 78.774697 47.068327 
L 79.042605 40.268347 
L 79.042605 40.268347 
" clip-path="url(#pc77e03e3e3)" style="fill: none; stroke: #000000; stroke-width: 1.5; stroke-linecap: square"/>
   </g>
   <g id="line2d_19">
    <path d="M 79.310513 37.636097 
L 79.84633 46.190911 
L 80.382146 46.190911 
L 80.650054 44.655431 
L 80.917962 45.532848 
L 81.453779 43.997369 
L 81.721687 45.532848 
L 82.257504 45.532848 
L 82.525412 43.997369 
L 82.79332 45.752202 
L 83.061228 43.997369 
L 83.329136 40.487702 
L 83.597045 45.752202 
L 84.132861 45.752202 
L 84.400769 44.655431 
L 84.936586 45.532848 
L 85.204494 44.436077 
L 85.472402 44.655431 
L 86.008219 44.655431 
L 86.276127 42.023181 
L 86.811943 44.874785 
L 87.079852 39.171576 
L 87.34776 36.978035 
L 87.883576 36.978035 
L 88.151485 33.249013 
L 88.419393 33.249013 
L 88.687301 44.436077 
L 88.955209 44.655431 
L 89.223117 46.629619 
L 89.758934 46.629619 
L 90.026842 44.655431 
L 90.29475 47.287682 
L 90.562659 47.507036 
L 90.830567 44.874785 
L 91.098475 44.655431 
L 91.634292 44.655431 
L 91.9022 43.119952 
L 92.170108 45.532848 
L 92.438016 45.971556 
L 92.705924 44.436077 
L 92.973833 44.655431 
L 93.509649 44.655431 
L 93.777557 44.436077 
L 94.045466 45.752202 
L 94.581282 44.436077 
L 94.84919 46.190911 
L 95.385007 46.190911 
L 95.652915 41.803827 
L 96.188731 46.629619 
L 96.45664 45.971556 
L 96.724548 46.190911 
L 97.260364 46.190911 
L 97.528273 45.752202 
L 97.796181 46.190911 
L 98.331997 44.436077 
L 98.599905 44.874785 
L 99.135722 44.874785 
L 99.671538 42.023181 
L 99.939447 45.313494 
L 100.207355 45.532848 
L 100.475263 46.190911 
L 101.011079 46.190911 
L 101.278988 45.313494 
L 101.546896 46.629619 
L 102.082712 43.55866 
L 102.350621 43.997369 
L 102.886437 43.997369 
L 103.154345 43.339306 
L 103.422254 44.655431 
L 103.690162 44.655431 
L 103.95807 41.584473 
L 104.225978 44.436077 
L 105.029703 44.436077 
L 105.297611 42.461889 
L 105.833428 44.216723 
L 106.101336 44.874785 
L 106.90506 44.874785 
L 107.172969 45.532848 
L 107.440877 45.532848 
L 107.708785 44.874785 
L 107.976693 43.778015 
L 108.51251 43.778015 
L 108.780418 46.190911 
L 109.048326 47.068327 
L 109.316234 44.874785 
L 109.584143 44.216723 
L 109.852051 45.313494 
L 110.387867 45.313494 
L 110.655776 43.997369 
L 110.923684 44.874785 
L 111.191592 44.874785 
L 111.4595 42.900598 
L 111.727409 42.681244 
L 112.263225 42.681244 
L 112.531133 40.92641 
L 112.799041 45.752202 
L 113.334858 43.997369 
L 113.602766 46.410265 
L 114.406491 46.410265 
L 114.674399 43.339306 
L 114.942307 45.752202 
L 115.210215 45.532848 
L 115.478124 45.752202 
L 116.01394 45.752202 
L 116.281848 42.900598 
L 116.549757 45.971556 
L 116.817665 44.216723 
L 117.085573 43.997369 
L 117.353481 44.874785 
L 117.889298 44.874785 
L 118.157206 44.216723 
L 118.425114 45.09414 
L 118.693022 44.216723 
L 118.960931 44.216723 
L 119.228839 44.655431 
L 119.764655 44.655431 
L 120.032564 42.900598 
L 120.300472 42.900598 
L 120.56838 42.461889 
L 121.104196 45.313494 
L 121.640013 45.313494 
L 121.907921 45.09414 
L 122.175829 45.313494 
L 122.443738 44.655431 
L 122.711646 44.436077 
L 122.979554 45.313494 
L 123.515371 45.313494 
L 123.783279 43.778015 
L 124.051187 44.436077 
L 124.319095 42.461889 
L 124.854912 45.313494 
L 125.390728 45.313494 
L 125.658636 44.436077 
L 125.926545 44.874785 
L 126.194453 43.119952 
L 126.462361 43.119952 
L 126.730269 45.09414 
L 127.266086 45.09414 
L 127.533994 44.874785 
L 127.801902 45.752202 
L 128.06981 44.874785 
L 128.337719 42.242535 
L 128.605627 42.681244 
L 129.141443 42.681244 
L 129.409352 43.339306 
L 129.67726 44.655431 
L 129.945168 45.313494 
L 130.213076 45.09414 
L 130.480984 45.532848 
L 131.016801 45.532848 
L 131.284709 45.09414 
L 131.552617 46.410265 
L 131.820526 45.532848 
L 132.356342 43.119952 
L 132.892158 43.119952 
L 133.160067 44.874785 
L 133.427975 45.532848 
L 133.695883 45.532848 
L 133.963791 45.313494 
L 134.2317 46.190911 
L 135.035424 46.190911 
L 135.303333 43.119952 
L 135.571241 44.216723 
L 135.839149 44.216723 
L 136.107057 68.784392 
L 136.910782 68.784392 
L 137.17869 41.145764 
L 137.982415 59.571516 
L 138.518231 59.571516 
L 138.786139 56.281204 
L 139.054048 56.939266 
L 139.321956 54.52637 
L 139.589864 54.745724 
L 139.857772 56.281204 
L 140.661497 56.281204 
L 140.929405 51.455411 
L 141.197313 57.15862 
L 141.73313 57.597329 
L 142.268946 57.597329 
L 142.536855 55.842495 
L 142.804763 56.500558 
L 143.340579 53.648953 
L 143.608488 56.719912 
L 144.144304 56.719912 
L 144.412212 56.281204 
L 144.68012 58.036037 
L 145.215937 65.274725 
L 145.483845 66.810205 
L 146.019662 66.810205 
L 146.28757 66.371496 
L 146.555478 67.248913 
L 146.823386 66.810205 
L 147.091294 66.810205 
L 147.359203 68.12633 
L 147.895019 68.12633 
L 148.162927 67.248913 
L 148.430836 67.687622 
L 148.698744 66.810205 
L 148.966652 65.274725 
L 149.23456 67.687622 
L 150.038285 67.687622 
L 150.306193 65.274725 
L 150.574101 66.810205 
L 150.84201 66.371496 
L 151.109918 67.687622 
L 151.645734 67.687622 
L 151.913643 65.713434 
L 152.181551 67.029559 
L 152.449459 64.836017 
L 152.717367 64.836017 
L 152.985275 66.371496 
L 153.789 66.371496 
L 154.056908 69.223101 
L 154.324817 70.319872 
L 154.592725 67.687622 
L 154.860633 68.565038 
L 155.39645 68.565038 
L 155.664358 66.810205 
L 155.932266 66.810205 
L 156.200174 67.248913 
L 156.468082 66.371496 
L 156.735991 69.003747 
L 157.271807 69.003747 
L 157.539715 69.442455 
L 157.807624 74.706956 
L 158.075532 76.681143 
L 158.34344 76.900498 
L 158.611348 79.09404 
L 159.147165 79.09404 
L 159.415073 77.119852 
L 159.950889 76.681143 
L 160.486706 71.416643 
L 161.022522 71.416643 
L 161.290431 71.197289 
L 161.558339 75.584372 
L 161.826247 77.55856 
L 162.094155 76.900498 
L 162.362063 79.09404 
L 162.89788 79.09404 
L 163.165788 78.216623 
L 163.433696 78.655331 
L 163.701605 78.874685 
L 163.969513 77.339206 
L 164.237421 77.55856 
L 164.773237 77.55856 
L 165.041146 74.048893 
L 165.309054 77.997269 
L 165.84487 89.403687 
L 166.112779 91.377874 
L 166.648595 91.377874 
L 166.916503 90.939166 
L 167.184411 90.719812 
L 167.45232 87.868207 
L 167.720228 87.210145 
L 167.988136 88.52627 
L 168.523953 88.52627 
L 168.791861 85.016603 
L 169.059769 86.332728 
L 169.327677 92.035937 
L 169.595586 89.184332 
L 169.863494 90.719812 
L 170.39931 90.719812 
L 170.667218 89.403687 
L 170.935127 90.719812 
L 171.203035 90.281103 
L 171.470943 88.52627 
L 171.738851 89.403687 
L 172.274668 89.403687 
L 172.542576 90.281103 
L 173.078392 98.835917 
L 173.346301 98.835917 
L 173.614209 100.810105 
L 174.150025 100.810105 
L 174.417934 99.274625 
L 174.95375 100.371396 
L 175.221658 100.152042 
L 175.489567 101.029459 
L 176.293291 101.029459 
L 176.561199 97.739146 
L 176.829108 98.616563 
L 177.097016 94.448833 
L 177.364924 96.642375 
L 177.900741 96.642375 
L 178.436557 101.248813 
L 178.704465 101.687521 
L 178.972373 101.468167 
L 179.240282 99.274625 
L 179.776098 99.274625 
L 180.044006 99.055271 
L 180.311915 100.152042 
L 180.579823 98.835917 
L 180.847731 99.055271 
L 181.115639 101.029459 
L 181.651456 101.029459 
L 181.919364 101.687521 
L 182.187272 101.687521 
L 182.45518 100.152042 
L 182.723089 99.274625 
L 182.990997 100.152042 
L 183.526813 100.152042 
L 183.794722 100.371396 
L 184.06263 105.197188 
L 184.330538 106.732668 
L 184.598446 102.784292 
L 184.866354 100.810105 
L 185.402171 100.810105 
L 185.670079 97.300438 
L 185.937987 106.513314 
L 186.205896 106.513314 
L 186.473804 105.855251 
L 186.741712 108.487501 
L 187.277529 108.487501 
L 187.545437 106.952022 
L 187.813345 106.074605 
L 188.081253 104.539126 
L 188.349161 104.539126 
L 188.61707 105.197188 
L 189.152886 105.197188 
L 189.420794 103.661709 
L 189.688703 106.074605 
L 189.956611 105.635897 
L 190.492427 104.100418 
L 191.028244 104.100418 
L 191.296152 103.661709 
L 191.56406 103.661709 
L 191.831968 102.12623 
L 192.099877 102.564938 
L 192.367785 105.197188 
L 192.903601 105.197188 
L 193.439418 103.661709 
L 193.707326 104.319772 
L 193.975234 106.732668 
L 194.243142 106.513314 
L 194.778959 106.513314 
L 195.046867 105.635897 
L 195.314775 106.513314 
L 195.582684 105.197188 
L 195.850592 104.75848 
L 196.1185 106.293959 
L 196.654316 106.293959 
L 196.922225 104.319772 
L 197.190133 104.977834 
L 197.458041 103.442355 
L 197.993858 107.171376 
L 198.529674 107.171376 
L 198.797582 107.610085 
L 199.06549 110.022981 
L 199.333399 110.461689 
L 199.601307 109.584272 
L 199.869215 110.461689 
L 200.405032 110.461689 
L 200.67294 109.803627 
L 200.940848 110.681043 
L 201.208756 110.681043 
L 201.744573 107.171376 
L 202.548297 107.171376 
L 202.816206 106.952022 
L 203.084114 110.900398 
L 203.352022 110.242335 
L 203.61993 111.997168 
L 204.155747 111.997168 
L 204.423655 110.681043 
L 204.691563 110.681043 
L 204.959471 109.364918 
L 205.495288 118.797148 
L 206.031104 118.797148 
L 206.566921 160.035737 
L 206.834829 161.351862 
L 207.370646 119.235857 
L 207.906462 119.235857 
L 208.17437 114.848773 
L 208.710187 122.52617 
L 208.978095 119.893919 
L 209.246003 127.132608 
L 209.78182 127.132608 
L 210.049728 121.210045 
L 210.317636 135.906775 
L 210.585544 137.661609 
L 210.853452 133.713234 
L 211.121361 134.371296 
L 211.925085 134.371296 
L 212.192994 132.616463 
L 212.460902 134.371296 
L 212.72881 134.371296 
L 212.996718 135.029359 
L 213.532535 135.029359 
L 213.800443 132.397108 
L 214.068351 133.274525 
L 214.336259 132.397108 
L 214.604168 132.616463 
L 214.872076 133.274525 
L 215.407892 133.274525 
L 215.675801 132.177754 
L 215.943709 133.055171 
L 216.211617 131.9584 
L 216.479525 131.739046 
L 216.747433 132.397108 
L 217.28325 132.397108 
L 217.551158 131.519692 
L 217.819066 131.519692 
L 218.086975 129.106796 
L 218.354883 130.203566 
L 218.622791 134.151942 
L 219.158608 134.151942 
L 219.426516 133.713234 
L 219.694424 140.732568 
L 219.962332 142.706755 
L 220.23024 142.92611 
L 220.498149 144.022881 
L 221.301873 144.022881 
L 221.569782 141.39063 
L 222.105598 138.75838 
L 222.373506 144.022881 
L 222.909323 144.022881 
L 223.177231 143.364818 
L 223.713047 145.119652 
L 223.980956 145.119652 
L 224.248864 146.216423 
L 224.78468 146.216423 
L 225.052588 142.706755 
L 225.320497 143.364818 
L 225.588405 142.706755 
L 225.856313 141.609984 
L 226.124221 142.268047 
L 226.660038 142.268047 
L 226.927946 142.487401 
L 227.195854 145.119652 
L 227.463763 145.997068 
L 227.731671 146.435777 
L 227.999579 145.339006 
L 228.535395 145.339006 
L 228.803304 145.777714 
L 229.071212 147.971256 
L 229.33912 147.751902 
L 229.607028 146.655131 
L 229.874937 146.216423 
L 230.410753 146.216423 
L 230.678661 145.119652 
L 230.946569 149.945444 
L 231.214478 149.945444 
L 231.482386 148.19061 
L 231.750294 148.409964 
L 232.286111 148.409964 
L 232.554019 150.603506 
L 232.821927 150.603506 
L 233.089835 145.997068 
L 233.357744 146.874485 
L 233.625652 153.674465 
L 234.161468 153.674465 
L 234.429376 154.113173 
L 234.697285 154.113173 
L 234.965193 145.339006 
L 235.233101 149.72609 
L 235.501009 152.138986 
L 236.572642 152.138986 
L 236.84055 149.287381 
L 237.108459 147.751902 
L 237.376367 149.945444 
L 237.912183 149.945444 
L 238.180092 148.409964 
L 238.448 149.068027 
L 238.715908 150.384152 
L 238.983816 150.603506 
L 239.251725 149.945444 
L 240.055449 149.945444 
L 240.323357 147.093839 
L 240.591266 147.751902 
L 240.859174 147.971256 
L 241.127082 148.409964 
L 241.662899 148.409964 
L 241.930807 148.19061 
L 242.198715 148.409964 
L 242.466623 148.409964 
L 242.734531 146.874485 
L 243.00244 148.629319 
L 243.538256 148.629319 
L 243.806164 149.287381 
L 244.074073 151.480923 
L 244.341981 151.042215 
L 244.609889 149.287381 
L 244.877797 150.384152 
L 245.413614 150.384152 
L 245.681522 148.848673 
L 245.94943 149.72609 
L 246.217338 149.068027 
L 246.485247 147.751902 
L 246.753155 149.506735 
L 247.55688 149.506735 
L 247.824788 148.629319 
L 248.092696 148.848673 
L 248.360604 148.629319 
L 248.628512 149.945444 
L 249.164329 149.945444 
L 249.432237 147.971256 
L 249.700145 148.629319 
L 249.968054 148.848673 
L 250.235962 147.313194 
L 250.50387 148.409964 
L 251.039687 148.409964 
L 251.307595 150.603506 
L 251.575503 151.700277 
L 252.111319 148.629319 
L 252.379228 150.384152 
L 252.915044 150.384152 
L 253.182952 149.068027 
L 253.450861 150.603506 
L 253.986677 148.19061 
L 254.254585 147.971256 
L 254.790402 147.971256 
L 255.05831 149.945444 
L 255.326218 150.822861 
L 255.594126 148.409964 
L 255.862035 149.287381 
L 256.129943 150.603506 
L 256.665759 150.603506 
L 256.933667 149.068027 
L 257.201576 149.945444 
L 257.469484 150.384152 
L 257.737392 148.629319 
L 258.0053 149.287381 
L 258.541117 149.287381 
L 258.809025 146.216423 
L 259.076933 149.287381 
L 259.344842 147.751902 
L 259.61275 149.287381 
L 259.880658 150.164798 
L 260.416474 150.164798 
L 260.684383 149.72609 
L 260.952291 150.603506 
L 261.220199 149.506735 
L 261.488107 147.313194 
L 261.756016 148.19061 
L 262.291832 148.19061 
L 262.55974 147.093839 
L 262.827648 150.603506 
L 263.095557 149.506735 
L 263.363465 149.945444 
L 263.631373 150.822861 
L 264.16719 150.822861 
L 264.435098 149.506735 
L 264.703006 149.945444 
L 265.238823 147.532548 
L 265.506731 148.19061 
L 266.042547 148.19061 
L 266.310455 147.751902 
L 266.578364 147.532548 
L 266.846272 146.216423 
L 267.382088 149.506735 
L 267.917905 149.506735 
L 268.185813 149.068027 
L 268.453721 149.72609 
L 268.721629 149.945444 
L 268.989538 149.287381 
L 269.793262 149.287381 
L 270.061171 149.068027 
L 270.329079 150.384152 
L 270.596987 147.093839 
L 271.132804 150.164798 
L 271.66862 150.164798 
L 271.936528 149.72609 
L 272.204436 150.603506 
L 272.740253 148.848673 
L 273.008161 149.068027 
L 273.811886 149.068027 
L 274.079794 146.216423 
L 274.347702 148.19061 
L 274.61561 147.971256 
L 274.883519 148.19061 
L 275.419335 148.19061 
L 275.687243 147.313194 
L 275.955152 149.506735 
L 276.22306 150.164798 
L 276.490968 149.068027 
L 276.758876 149.506735 
L 277.294693 149.506735 
L 277.562601 148.848673 
L 277.830509 149.72609 
L 278.098417 149.068027 
L 278.366326 148.848673 
L 278.634234 149.068027 
L 279.17005 149.068027 
L 279.437959 147.532548 
L 279.705867 149.945444 
L 279.973775 150.384152 
L 280.241683 149.068027 
L 280.509591 149.287381 
L 281.045408 149.287381 
L 281.313316 148.629319 
L 281.581224 149.068027 
L 282.117041 147.751902 
L 282.384949 149.506735 
L 282.920765 149.506735 
L 283.188674 147.313194 
L 283.456582 149.72609 
L 283.72449 149.945444 
L 283.992398 149.945444 
L 284.260307 149.72609 
L 284.796123 149.72609 
L 285.064031 149.068027 
L 285.33194 149.72609 
L 285.867756 148.848673 
L 286.135664 149.945444 
L 286.671481 149.945444 
L 286.939389 147.313194 
L 287.207297 149.72609 
L 287.475205 149.945444 
L 287.743114 149.287381 
L 288.011022 149.72609 
L 288.546838 149.72609 
L 288.814746 148.629319 
L 289.082655 149.506735 
L 289.350563 150.822861 
L 289.618471 149.068027 
L 289.886379 150.384152 
L 290.422196 150.384152 
L 290.690104 149.068027 
L 290.958012 149.945444 
L 291.493829 148.19061 
L 291.761737 149.72609 
L 292.297553 149.72609 
L 292.565462 148.629319 
L 293.101278 149.945444 
L 293.369186 149.945444 
L 293.637095 150.603506 
L 294.172911 150.603506 
L 294.440819 148.848673 
L 294.708727 149.287381 
L 294.976636 148.409964 
L 295.244544 146.435777 
L 295.512452 150.164798 
L 296.048269 150.164798 
L 296.316177 149.72609 
L 296.584085 150.164798 
L 296.851993 149.72609 
L 297.119902 149.506735 
L 297.38781 149.72609 
L 297.923626 149.72609 
L 298.191534 147.751902 
L 298.459443 148.19061 
L 298.727351 147.971256 
L 298.995259 147.532548 
L 299.263167 147.751902 
L 300.066892 147.751902 
L 300.3348 146.435777 
L 300.602708 149.287381 
L 300.870617 149.068027 
L 301.138525 149.945444 
L 301.674341 149.945444 
L 301.94225 148.848673 
L 302.478066 149.72609 
L 302.745974 149.287381 
L 303.013883 149.72609 
L 303.549699 149.72609 
L 303.817607 147.313194 
L 304.085515 149.72609 
L 304.353424 150.603506 
L 304.88924 150.164798 
L 305.425057 150.164798 
L 305.692965 149.287381 
L 305.960873 149.068027 
L 306.228781 148.19061 
L 306.496689 147.971256 
L 306.764598 148.409964 
L 307.300414 148.409964 
L 307.568322 146.874485 
L 307.836231 146.874485 
L 308.104139 149.068027 
L 308.372047 148.848673 
L 308.639955 149.72609 
L 309.175772 149.72609 
L 309.44368 149.287381 
L 309.711588 149.72609 
L 309.979496 149.506735 
L 310.247405 149.068027 
L 310.515313 149.506735 
L 311.319038 149.506735 
L 311.586946 146.216423 
L 311.854854 149.506735 
L 312.122762 149.287381 
L 312.39067 149.945444 
L 312.926487 149.945444 
L 313.194395 149.506735 
L 313.462303 149.945444 
L 313.99812 147.971256 
L 314.266028 147.532548 
L 314.801844 147.532548 
L 315.605569 149.72609 
L 315.873477 147.532548 
L 316.141386 149.287381 
L 316.677202 149.287381 
L 316.94511 149.945444 
L 317.213019 151.480923 
L 318.016743 161.571216 
L 318.820468 161.571216 
L 319.088376 159.15832 
L 319.356284 161.79057 
L 319.624193 159.15832 
L 319.892101 157.842195 
L 320.427917 157.842195 
L 320.695825 160.913153 
L 320.963734 161.132508 
L 321.49955 159.597028 
L 321.767458 160.035737 
L 322.303275 160.035737 
L 322.571183 158.500257 
L 322.839091 159.816382 
L 323.107 159.597028 
L 323.374908 159.597028 
L 323.642816 160.474445 
L 324.178632 160.474445 
L 324.446541 159.597028 
L 324.714449 160.255091 
L 324.982357 160.474445 
L 325.250265 160.255091 
L 325.518174 160.913153 
L 326.05399 160.913153 
L 326.321898 160.693799 
L 326.589806 160.693799 
L 326.857715 159.15832 
L 327.125623 159.15832 
L 327.393531 160.035737 
L 327.929348 160.035737 
L 328.197256 157.622841 
L 328.465164 159.816382 
L 328.733072 160.035737 
L 329.000981 159.377674 
L 329.268889 159.816382 
L 329.804705 159.816382 
L 330.072613 159.377674 
L 330.340522 162.229279 
L 330.60843 162.229279 
L 330.876338 159.377674 
L 331.144246 161.132508 
L 331.680063 161.132508 
L 331.947971 160.474445 
L 332.215879 162.009924 
L 332.483787 162.009924 
L 332.483787 162.009924 
" clip-path="url(#pc77e03e3e3)" style="fill: none; stroke: #d3d3d3; stroke-width: 1.5; stroke-linecap: square"/>
   </g>
   <g id="patch_3">
    <path d="M 24.175 168.678292 
L 24.175 26.8 
" style="fill: none; stroke: #000000; stroke-width: 0.8; stroke-linejoin: miter; stroke-linecap: square"/>
   </g>
   <g id="patch_4">
    <path d="M 347.165158 168.678292 
L 347.165158 26.8 
" style="fill: none; stroke: #000000; stroke-width: 0.8; stroke-linejoin: miter; stroke-linecap: square"/>
   </g>
   <g id="patch_5">
    <path d="M 24.175 168.678292 
L 347.165158 168.678292 
" style="fill: none; stroke: #000000; stroke-width: 0.8; stroke-linejoin: miter; stroke-linecap: square"/>
   </g>
   <g id="patch_6">
    <path d="M 24.175 26.8 
L 347.165158 26.8 
" style="fill: none; stroke: #000000; stroke-width: 0.8; stroke-linejoin: miter; stroke-linecap: square"/>
   </g>
   <g id="text_18">
    <!-- FF Effective Rate -->
    <g transform="translate(134.930704 20.8)scale(0.12 -0.12)">
     <defs>
      <path id="DejaVuSans-46" d="M 628 4666 
L 3309 4666 
L 3309 4134 
L 1259 4134 
L 1259 2759 
L 3109 2759 
L 3109 2228 
L 1259 2228 
L 1259 0 
L 628 0 
L 628 4666 
z
" transform="scale(0.015625)"/>
      <path id="DejaVuSans-20" transform="scale(0.015625)"/>
      <path id="DejaVuSans-45" d="M 628 4666 
L 3578 4666 
L 3578 4134 
L 1259 4134 
L 1259 2753 
L 3481 2753 
L 3481 2222 
L 1259 2222 
L 1259 531 
L 3634 531 
L 3634 0 
L 628 0 
L 628 4666 
z
" transform="scale(0.015625)"/>
      <path id="DejaVuSans-66" d="M 2375 4863 
L 2375 4384 
L 1825 4384 
Q 1516 4384 1395 4259 
Q 1275 4134 1275 3809 
L 1275 3500 
L 2222 3500 
L 2222 3053 
L 1275 3053 
L 1275 0 
L 697 0 
L 697 3053 
L 147 3053 
L 147 3500 
L 697 3500 
L 697 3744 
Q 697 4328 969 4595 
Q 1241 4863 1831 4863 
L 2375 4863 
z
" transform="scale(0.015625)"/>
      <path id="DejaVuSans-65" d="M 3597 1894 
L 3597 1613 
L 953 1613 
Q 991 1019 1311 708 
Q 1631 397 2203 397 
Q 2534 397 2845 478 
Q 3156 559 3463 722 
L 3463 178 
Q 3153 47 2828 -22 
Q 2503 -91 2169 -91 
Q 1331 -91 842 396 
Q 353 884 353 1716 
Q 353 2575 817 3079 
Q 1281 3584 2069 3584 
Q 2775 3584 3186 3129 
Q 3597 2675 3597 1894 
z
M 3022 2063 
Q 3016 2534 2758 2815 
Q 2500 3097 2075 3097 
Q 1594 3097 1305 2825 
Q 1016 2553 972 2059 
L 3022 2063 
z
" transform="scale(0.015625)"/>
      <path id="DejaVuSans-63" d="M 3122 3366 
L 3122 2828 
Q 2878 2963 2633 3030 
Q 2388 3097 2138 3097 
Q 1578 3097 1268 2742 
Q 959 2388 959 1747 
Q 959 1106 1268 751 
Q 1578 397 2138 397 
Q 2388 397 2633 464 
Q 2878 531 3122 666 
L 3122 134 
Q 2881 22 2623 -34 
Q 2366 -91 2075 -91 
Q 1284 -91 818 406 
Q 353 903 353 1747 
Q 353 2603 823 3093 
Q 1294 3584 2113 3584 
Q 2378 3584 2631 3529 
Q 2884 3475 3122 3366 
z
" transform="scale(0.015625)"/>
      <path id="DejaVuSans-74" d="M 1172 4494 
L 1172 3500 
L 2356 3500 
L 2356 3053 
L 1172 3053 
L 1172 1153 
Q 1172 725 1289 603 
Q 1406 481 1766 481 
L 2356 481 
L 2356 0 
L 1766 0 
Q 1100 0 847 248 
Q 594 497 594 1153 
L 594 3053 
L 172 3053 
L 172 3500 
L 594 3500 
L 594 4494 
L 1172 4494 
z
" transform="scale(0.015625)"/>
      <path id="DejaVuSans-69" d="M 603 3500 
L 1178 3500 
L 1178 0 
L 603 0 
L 603 3500 
z
M 603 4863 
L 1178 4863 
L 1178 4134 
L 603 4134 
L 603 4863 
z
" transform="scale(0.015625)"/>
      <path id="DejaVuSans-76" d="M 191 3500 
L 800 3500 
L 1894 563 
L 2988 3500 
L 3597 3500 
L 2284 0 
L 1503 0 
L 191 3500 
z
" transform="scale(0.015625)"/>
      <path id="DejaVuSans-52" d="M 2841 2188 
Q 3044 2119 3236 1894 
Q 3428 1669 3622 1275 
L 4263 0 
L 3584 0 
L 2988 1197 
Q 2756 1666 2539 1819 
Q 2322 1972 1947 1972 
L 1259 1972 
L 1259 0 
L 628 0 
L 628 4666 
L 2053 4666 
Q 2853 4666 3247 4331 
Q 3641 3997 3641 3322 
Q 3641 2881 3436 2590 
Q 3231 2300 2841 2188 
z
M 1259 4147 
L 1259 2491 
L 2053 2491 
Q 2509 2491 2742 2702 
Q 2975 2913 2975 3322 
Q 2975 3731 2742 3939 
Q 2509 4147 2053 4147 
L 1259 4147 
z
" transform="scale(0.015625)"/>
      <path id="DejaVuSans-61" d="M 2194 1759 
Q 1497 1759 1228 1600 
Q 959 1441 959 1056 
Q 959 750 1161 570 
Q 1363 391 1709 391 
Q 2188 391 2477 730 
Q 2766 1069 2766 1631 
L 2766 1759 
L 2194 1759 
z
M 3341 1997 
L 3341 0 
L 2766 0 
L 2766 531 
Q 2569 213 2275 61 
Q 1981 -91 1556 -91 
Q 1019 -91 701 211 
Q 384 513 384 1019 
Q 384 1609 779 1909 
Q 1175 2209 1959 2209 
L 2766 2209 
L 2766 2266 
Q 2766 2663 2505 2880 
Q 2244 3097 1772 3097 
Q 1472 3097 1187 3025 
Q 903 2953 641 2809 
L 641 3341 
Q 956 3463 1253 3523 
Q 1550 3584 1831 3584 
Q 2591 3584 2966 3190 
Q 3341 2797 3341 1997 
z
" transform="scale(0.015625)"/>
     </defs>
     <use xlink:href="#DejaVuSans-46"/>
     <use xlink:href="#DejaVuSans-46" x="57.519531"/>
     <use xlink:href="#DejaVuSans-20" x="115.039062"/>
     <use xlink:href="#DejaVuSans-45" x="146.826172"/>
     <use xlink:href="#DejaVuSans-66" x="210.009766"/>
     <use xlink:href="#DejaVuSans-66" x="245.214844"/>
     <use xlink:href="#DejaVuSans-65" x="280.419922"/>
     <use xlink:href="#DejaVuSans-63" x="341.943359"/>
     <use xlink:href="#DejaVuSans-74" x="396.923828"/>
     <use xlink:href="#DejaVuSans-69" x="436.132812"/>
     <use xlink:href="#DejaVuSans-76" x="463.916016"/>
     <use xlink:href="#DejaVuSans-65" x="523.095703"/>
     <use xlink:href="#DejaVuSans-20" x="584.619141"/>
     <use xlink:href="#DejaVuSans-52" x="616.40625"/>
     <use xlink:href="#DejaVuSans-61" x="683.638672"/>
     <use xlink:href="#DejaVuSans-74" x="744.917969"/>
     <use xlink:href="#DejaVuSans-65" x="784.126953"/>
    </g>
   </g>
  </g>
 </g>
 <defs>
  <clipPath id="pc77e03e3e3">
   <rect x="24.175" y="26.8" width="322.990158" height="141.878292"/>
  </clipPath>
 </defs>
</svg>
