<?xml version="1.0" encoding="utf-8" standalone="no"?>
<!DOCTYPE svg PUBLIC "-//W3C//DTD SVG 1.1//EN"
  "http://www.w3.org/Graphics/SVG/1.1/DTD/svg11.dtd">
<svg xmlns:xlink="http://www.w3.org/1999/xlink" width="360pt" height="216pt" viewBox="0 0 360 216" xmlns="http://www.w3.org/2000/svg" version="1.1">
 <metadata>
  <rdf:RDF xmlns:dc="http://purl.org/dc/elements/1.1/" xmlns:cc="http://creativecommons.org/ns#" xmlns:rdf="http://www.w3.org/1999/02/22-rdf-syntax-ns#">
   <cc:Work>
    <dc:type rdf:resource="http://purl.org/dc/dcmitype/StillImage"/>
    <dc:date>2023-03-24T15:03:37.620140</dc:date>
    <dc:format>image/svg+xml</dc:format>
    <dc:creator>
     <cc:Agent>
      <dc:title>Matplotlib v3.6.3, https://matplotlib.org/</dc:title>
     </cc:Agent>
    </dc:creator>
   </cc:Work>
  </rdf:RDF>
 </metadata>
 <defs>
  <style type="text/css">*{stroke-linejoin: round; stroke-linecap: butt}</style>
 </defs>
 <g id="figure_1">
  <g id="patch_1">
   <path d="M 0 216 
L 360 216 
L 360 0 
L 0 0 
z
" style="fill: #ffffff"/>
  </g>
  <g id="axes_1">
   <g id="patch_2">
    <path d="M 24.19 168.671221 
L 347.149248 168.671221 
L 347.149248 26.88 
L 24.19 26.88 
z
" style="fill: #ffffff"/>
   </g>
   <g id="matplotlib.axis_1">
    <g id="xtick_1">
     <g id="line2d_1">
      <defs>
       <path id="m21890ef4c9" d="M 0 0 
L 0 3.5 
" style="stroke: #000000; stroke-width: 0.8"/>
      </defs>
      <g>
       <use xlink:href="#m21890ef4c9" x="38.869966" y="168.671221" style="stroke: #000000; stroke-width: 0.8"/>
      </g>
     </g>
     <g id="text_1">
      <!-- '00-01 -->
      <g transform="translate(29.575931 203.534543) rotate(-45) scale(0.1 -0.1)">
       <defs>
        <path id="DejaVuSans-27" d="M 1147 4666 
L 1147 2931 
L 616 2931 
L 616 4666 
L 1147 4666 
z
" transform="scale(0.015625)"/>
        <path id="DejaVuSans-30" d="M 2034 4250 
Q 1547 4250 1301 3770 
Q 1056 3291 1056 2328 
Q 1056 1369 1301 889 
Q 1547 409 2034 409 
Q 2525 409 2770 889 
Q 3016 1369 3016 2328 
Q 3016 3291 2770 3770 
Q 2525 4250 2034 4250 
z
M 2034 4750 
Q 2819 4750 3233 4129 
Q 3647 3509 3647 2328 
Q 3647 1150 3233 529 
Q 2819 -91 2034 -91 
Q 1250 -91 836 529 
Q 422 1150 422 2328 
Q 422 3509 836 4129 
Q 1250 4750 2034 4750 
z
" transform="scale(0.015625)"/>
        <path id="DejaVuSans-2d" d="M 313 2009 
L 1997 2009 
L 1997 1497 
L 313 1497 
L 313 2009 
z
" transform="scale(0.015625)"/>
        <path id="DejaVuSans-31" d="M 794 531 
L 1825 531 
L 1825 4091 
L 703 3866 
L 703 4441 
L 1819 4666 
L 2450 4666 
L 2450 531 
L 3481 531 
L 3481 0 
L 794 0 
L 794 531 
z
" transform="scale(0.015625)"/>
       </defs>
       <use xlink:href="#DejaVuSans-27"/>
       <use xlink:href="#DejaVuSans-30" x="27.490234"/>
       <use xlink:href="#DejaVuSans-30" x="91.113281"/>
       <use xlink:href="#DejaVuSans-2d" x="154.736328"/>
       <use xlink:href="#DejaVuSans-30" x="190.820312"/>
       <use xlink:href="#DejaVuSans-31" x="254.443359"/>
      </g>
     </g>
    </g>
    <g id="xtick_2">
     <g id="line2d_2">
      <g>
       <use xlink:href="#m21890ef4c9" x="71.283759" y="168.671221" style="stroke: #000000; stroke-width: 0.8"/>
      </g>
     </g>
     <g id="text_2">
      <!-- '00-05 -->
      <g transform="translate(61.989724 203.534543) rotate(-45) scale(0.1 -0.1)">
       <defs>
        <path id="DejaVuSans-35" d="M 691 4666 
L 3169 4666 
L 3169 4134 
L 1269 4134 
L 1269 2991 
Q 1406 3038 1543 3061 
Q 1681 3084 1819 3084 
Q 2600 3084 3056 2656 
Q 3513 2228 3513 1497 
Q 3513 744 3044 326 
Q 2575 -91 1722 -91 
Q 1428 -91 1123 -41 
Q 819 9 494 109 
L 494 744 
Q 775 591 1075 516 
Q 1375 441 1709 441 
Q 2250 441 2565 725 
Q 2881 1009 2881 1497 
Q 2881 1984 2565 2268 
Q 2250 2553 1709 2553 
Q 1456 2553 1204 2497 
Q 953 2441 691 2322 
L 691 4666 
z
" transform="scale(0.015625)"/>
       </defs>
       <use xlink:href="#DejaVuSans-27"/>
       <use xlink:href="#DejaVuSans-30" x="27.490234"/>
       <use xlink:href="#DejaVuSans-30" x="91.113281"/>
       <use xlink:href="#DejaVuSans-2d" x="154.736328"/>
       <use xlink:href="#DejaVuSans-30" x="190.820312"/>
       <use xlink:href="#DejaVuSans-35" x="254.443359"/>
      </g>
     </g>
    </g>
    <g id="xtick_3">
     <g id="line2d_3">
      <g>
       <use xlink:href="#m21890ef4c9" x="104.233317" y="168.671221" style="stroke: #000000; stroke-width: 0.8"/>
      </g>
     </g>
     <g id="text_3">
      <!-- '00-09 -->
      <g transform="translate(94.939283 203.534543) rotate(-45) scale(0.1 -0.1)">
       <defs>
        <path id="DejaVuSans-39" d="M 703 97 
L 703 672 
Q 941 559 1184 500 
Q 1428 441 1663 441 
Q 2288 441 2617 861 
Q 2947 1281 2994 2138 
Q 2813 1869 2534 1725 
Q 2256 1581 1919 1581 
Q 1219 1581 811 2004 
Q 403 2428 403 3163 
Q 403 3881 828 4315 
Q 1253 4750 1959 4750 
Q 2769 4750 3195 4129 
Q 3622 3509 3622 2328 
Q 3622 1225 3098 567 
Q 2575 -91 1691 -91 
Q 1453 -91 1209 -44 
Q 966 3 703 97 
z
M 1959 2075 
Q 2384 2075 2632 2365 
Q 2881 2656 2881 3163 
Q 2881 3666 2632 3958 
Q 2384 4250 1959 4250 
Q 1534 4250 1286 3958 
Q 1038 3666 1038 3163 
Q 1038 2656 1286 2365 
Q 1534 2075 1959 2075 
z
" transform="scale(0.015625)"/>
       </defs>
       <use xlink:href="#DejaVuSans-27"/>
       <use xlink:href="#DejaVuSans-30" x="27.490234"/>
       <use xlink:href="#DejaVuSans-30" x="91.113281"/>
       <use xlink:href="#DejaVuSans-2d" x="154.736328"/>
       <use xlink:href="#DejaVuSans-30" x="190.820312"/>
       <use xlink:href="#DejaVuSans-39" x="254.443359"/>
      </g>
     </g>
    </g>
    <g id="xtick_4">
     <g id="line2d_4">
      <g>
       <use xlink:href="#m21890ef4c9" x="136.914993" y="168.671221" style="stroke: #000000; stroke-width: 0.8"/>
      </g>
     </g>
     <g id="text_4">
      <!-- '01-01 -->
      <g transform="translate(127.620958 203.534543) rotate(-45) scale(0.1 -0.1)">
       <use xlink:href="#DejaVuSans-27"/>
       <use xlink:href="#DejaVuSans-30" x="27.490234"/>
       <use xlink:href="#DejaVuSans-31" x="91.113281"/>
       <use xlink:href="#DejaVuSans-2d" x="154.736328"/>
       <use xlink:href="#DejaVuSans-30" x="190.820312"/>
       <use xlink:href="#DejaVuSans-31" x="254.443359"/>
      </g>
     </g>
    </g>
    <g id="xtick_5">
     <g id="line2d_5">
      <g>
       <use xlink:href="#m21890ef4c9" x="169.060904" y="168.671221" style="stroke: #000000; stroke-width: 0.8"/>
      </g>
     </g>
     <g id="text_5">
      <!-- '01-05 -->
      <g transform="translate(159.766869 203.534543) rotate(-45) scale(0.1 -0.1)">
       <use xlink:href="#DejaVuSans-27"/>
       <use xlink:href="#DejaVuSans-30" x="27.490234"/>
       <use xlink:href="#DejaVuSans-31" x="91.113281"/>
       <use xlink:href="#DejaVuSans-2d" x="154.736328"/>
       <use xlink:href="#DejaVuSans-30" x="190.820312"/>
       <use xlink:href="#DejaVuSans-35" x="254.443359"/>
      </g>
     </g>
    </g>
    <g id="xtick_6">
     <g id="line2d_6">
      <g>
       <use xlink:href="#m21890ef4c9" x="202.010462" y="168.671221" style="stroke: #000000; stroke-width: 0.8"/>
      </g>
     </g>
     <g id="text_6">
      <!-- '01-09 -->
      <g transform="translate(192.716427 203.534543) rotate(-45) scale(0.1 -0.1)">
       <use xlink:href="#DejaVuSans-27"/>
       <use xlink:href="#DejaVuSans-30" x="27.490234"/>
       <use xlink:href="#DejaVuSans-31" x="91.113281"/>
       <use xlink:href="#DejaVuSans-2d" x="154.736328"/>
       <use xlink:href="#DejaVuSans-30" x="190.820312"/>
       <use xlink:href="#DejaVuSans-39" x="254.443359"/>
      </g>
     </g>
    </g>
    <g id="xtick_7">
     <g id="line2d_7">
      <g>
       <use xlink:href="#m21890ef4c9" x="234.692138" y="168.671221" style="stroke: #000000; stroke-width: 0.8"/>
      </g>
     </g>
     <g id="text_7">
      <!-- '02-01 -->
      <g transform="translate(225.398103 203.534543) rotate(-45) scale(0.1 -0.1)">
       <defs>
        <path id="DejaVuSans-32" d="M 1228 531 
L 3431 531 
L 3431 0 
L 469 0 
L 469 531 
Q 828 903 1448 1529 
Q 2069 2156 2228 2338 
Q 2531 2678 2651 2914 
Q 2772 3150 2772 3378 
Q 2772 3750 2511 3984 
Q 2250 4219 1831 4219 
Q 1534 4219 1204 4116 
Q 875 4013 500 3803 
L 500 4441 
Q 881 4594 1212 4672 
Q 1544 4750 1819 4750 
Q 2544 4750 2975 4387 
Q 3406 4025 3406 3419 
Q 3406 3131 3298 2873 
Q 3191 2616 2906 2266 
Q 2828 2175 2409 1742 
Q 1991 1309 1228 531 
z
" transform="scale(0.015625)"/>
       </defs>
       <use xlink:href="#DejaVuSans-27"/>
       <use xlink:href="#DejaVuSans-30" x="27.490234"/>
       <use xlink:href="#DejaVuSans-32" x="91.113281"/>
       <use xlink:href="#DejaVuSans-2d" x="154.736328"/>
       <use xlink:href="#DejaVuSans-30" x="190.820312"/>
       <use xlink:href="#DejaVuSans-31" x="254.443359"/>
      </g>
     </g>
    </g>
    <g id="xtick_8">
     <g id="line2d_8">
      <g>
       <use xlink:href="#m21890ef4c9" x="266.838048" y="168.671221" style="stroke: #000000; stroke-width: 0.8"/>
      </g>
     </g>
     <g id="text_8">
      <!-- '02-05 -->
      <g transform="translate(257.544014 203.534543) rotate(-45) scale(0.1 -0.1)">
       <use xlink:href="#DejaVuSans-27"/>
       <use xlink:href="#DejaVuSans-30" x="27.490234"/>
       <use xlink:href="#DejaVuSans-32" x="91.113281"/>
       <use xlink:href="#DejaVuSans-2d" x="154.736328"/>
       <use xlink:href="#DejaVuSans-30" x="190.820312"/>
       <use xlink:href="#DejaVuSans-35" x="254.443359"/>
      </g>
     </g>
    </g>
    <g id="xtick_9">
     <g id="line2d_9">
      <g>
       <use xlink:href="#m21890ef4c9" x="299.787607" y="168.671221" style="stroke: #000000; stroke-width: 0.8"/>
      </g>
     </g>
     <g id="text_9">
      <!-- '02-09 -->
      <g transform="translate(290.493572 203.534543) rotate(-45) scale(0.1 -0.1)">
       <use xlink:href="#DejaVuSans-27"/>
       <use xlink:href="#DejaVuSans-30" x="27.490234"/>
       <use xlink:href="#DejaVuSans-32" x="91.113281"/>
       <use xlink:href="#DejaVuSans-2d" x="154.736328"/>
       <use xlink:href="#DejaVuSans-30" x="190.820312"/>
       <use xlink:href="#DejaVuSans-39" x="254.443359"/>
      </g>
     </g>
    </g>
    <g id="xtick_10">
     <g id="line2d_10">
      <g>
       <use xlink:href="#m21890ef4c9" x="332.469283" y="168.671221" style="stroke: #000000; stroke-width: 0.8"/>
      </g>
     </g>
     <g id="text_10">
      <!-- '03-01 -->
      <g transform="translate(323.175248 203.534543) rotate(-45) scale(0.1 -0.1)">
       <defs>
        <path id="DejaVuSans-33" d="M 2597 2516 
Q 3050 2419 3304 2112 
Q 3559 1806 3559 1356 
Q 3559 666 3084 287 
Q 2609 -91 1734 -91 
Q 1441 -91 1130 -33 
Q 819 25 488 141 
L 488 750 
Q 750 597 1062 519 
Q 1375 441 1716 441 
Q 2309 441 2620 675 
Q 2931 909 2931 1356 
Q 2931 1769 2642 2001 
Q 2353 2234 1838 2234 
L 1294 2234 
L 1294 2753 
L 1863 2753 
Q 2328 2753 2575 2939 
Q 2822 3125 2822 3475 
Q 2822 3834 2567 4026 
Q 2313 4219 1838 4219 
Q 1578 4219 1281 4162 
Q 984 4106 628 3988 
L 628 4550 
Q 988 4650 1302 4700 
Q 1616 4750 1894 4750 
Q 2613 4750 3031 4423 
Q 3450 4097 3450 3541 
Q 3450 3153 3228 2886 
Q 3006 2619 2597 2516 
z
" transform="scale(0.015625)"/>
       </defs>
       <use xlink:href="#DejaVuSans-27"/>
       <use xlink:href="#DejaVuSans-30" x="27.490234"/>
       <use xlink:href="#DejaVuSans-33" x="91.113281"/>
       <use xlink:href="#DejaVuSans-2d" x="154.736328"/>
       <use xlink:href="#DejaVuSans-30" x="190.820312"/>
       <use xlink:href="#DejaVuSans-31" x="254.443359"/>
      </g>
     </g>
    </g>
   </g>
   <g id="matplotlib.axis_2">
    <g id="ytick_1">
     <g id="line2d_11">
      <defs>
       <path id="mb464a8b39f" d="M 0 0 
L -3.5 0 
" style="stroke: #000000; stroke-width: 0.8"/>
      </defs>
      <g>
       <use xlink:href="#mb464a8b39f" x="24.19" y="165.514459" style="stroke: #000000; stroke-width: 0.8"/>
      </g>
     </g>
     <g id="text_11">
      <!-- 1 -->
      <g transform="translate(10.8275 169.313678) scale(0.1 -0.1)">
       <use xlink:href="#DejaVuSans-31"/>
      </g>
     </g>
    </g>
    <g id="ytick_2">
     <g id="line2d_12">
      <g>
       <use xlink:href="#mb464a8b39f" x="24.19" y="143.592501" style="stroke: #000000; stroke-width: 0.8"/>
      </g>
     </g>
     <g id="text_12">
      <!-- 2 -->
      <g transform="translate(10.8275 147.39172) scale(0.1 -0.1)">
       <use xlink:href="#DejaVuSans-32"/>
      </g>
     </g>
    </g>
    <g id="ytick_3">
     <g id="line2d_13">
      <g>
       <use xlink:href="#mb464a8b39f" x="24.19" y="121.670544" style="stroke: #000000; stroke-width: 0.8"/>
      </g>
     </g>
     <g id="text_13">
      <!-- 3 -->
      <g transform="translate(10.8275 125.469763) scale(0.1 -0.1)">
       <use xlink:href="#DejaVuSans-33"/>
      </g>
     </g>
    </g>
    <g id="ytick_4">
     <g id="line2d_14">
      <g>
       <use xlink:href="#mb464a8b39f" x="24.19" y="99.748587" style="stroke: #000000; stroke-width: 0.8"/>
      </g>
     </g>
     <g id="text_14">
      <!-- 4 -->
      <g transform="translate(10.8275 103.547805) scale(0.1 -0.1)">
       <defs>
        <path id="DejaVuSans-34" d="M 2419 4116 
L 825 1625 
L 2419 1625 
L 2419 4116 
z
M 2253 4666 
L 3047 4666 
L 3047 1625 
L 3713 1625 
L 3713 1100 
L 3047 1100 
L 3047 0 
L 2419 0 
L 2419 1100 
L 313 1100 
L 313 1709 
L 2253 4666 
z
" transform="scale(0.015625)"/>
       </defs>
       <use xlink:href="#DejaVuSans-34"/>
      </g>
     </g>
    </g>
    <g id="ytick_5">
     <g id="line2d_15">
      <g>
       <use xlink:href="#mb464a8b39f" x="24.19" y="77.826629" style="stroke: #000000; stroke-width: 0.8"/>
      </g>
     </g>
     <g id="text_15">
      <!-- 5 -->
      <g transform="translate(10.8275 81.625848) scale(0.1 -0.1)">
       <use xlink:href="#DejaVuSans-35"/>
      </g>
     </g>
    </g>
    <g id="ytick_6">
     <g id="line2d_16">
      <g>
       <use xlink:href="#mb464a8b39f" x="24.19" y="55.904672" style="stroke: #000000; stroke-width: 0.8"/>
      </g>
     </g>
     <g id="text_16">
      <!-- 6 -->
      <g transform="translate(10.8275 59.70389) scale(0.1 -0.1)">
       <defs>
        <path id="DejaVuSans-36" d="M 2113 2584 
Q 1688 2584 1439 2293 
Q 1191 2003 1191 1497 
Q 1191 994 1439 701 
Q 1688 409 2113 409 
Q 2538 409 2786 701 
Q 3034 994 3034 1497 
Q 3034 2003 2786 2293 
Q 2538 2584 2113 2584 
z
M 3366 4563 
L 3366 3988 
Q 3128 4100 2886 4159 
Q 2644 4219 2406 4219 
Q 1781 4219 1451 3797 
Q 1122 3375 1075 2522 
Q 1259 2794 1537 2939 
Q 1816 3084 2150 3084 
Q 2853 3084 3261 2657 
Q 3669 2231 3669 1497 
Q 3669 778 3244 343 
Q 2819 -91 2113 -91 
Q 1303 -91 875 529 
Q 447 1150 447 2328 
Q 447 3434 972 4092 
Q 1497 4750 2381 4750 
Q 2619 4750 2861 4703 
Q 3103 4656 3366 4563 
z
" transform="scale(0.015625)"/>
       </defs>
       <use xlink:href="#DejaVuSans-36"/>
      </g>
     </g>
    </g>
    <g id="ytick_7">
     <g id="line2d_17">
      <g>
       <use xlink:href="#mb464a8b39f" x="24.19" y="33.982714" style="stroke: #000000; stroke-width: 0.8"/>
      </g>
     </g>
     <g id="text_17">
      <!-- 7 -->
      <g transform="translate(10.8275 37.781933) scale(0.1 -0.1)">
       <defs>
        <path id="DejaVuSans-37" d="M 525 4666 
L 3525 4666 
L 3525 4397 
L 1831 0 
L 1172 0 
L 2766 4134 
L 525 4134 
L 525 4666 
z
" transform="scale(0.015625)"/>
       </defs>
       <use xlink:href="#DejaVuSans-37"/>
      </g>
     </g>
    </g>
   </g>
   <g id="line2d_18">
    <path d="M 38.869966 99.967806 
L 39.137848 99.967806 
L 39.405731 68.400187 
L 39.673614 69.496285 
L 39.941496 68.838627 
L 40.209379 65.988772 
L 40.477261 64.454235 
L 41.013027 64.454235 
L 41.280909 61.604381 
L 41.548792 64.015796 
L 41.816674 64.892674 
L 42.084557 65.111894 
L 42.352439 65.550333 
L 43.156087 65.550333 
L 43.42397 59.631404 
L 43.691852 67.523309 
L 43.959735 68.180968 
L 44.227618 69.934724 
L 44.763383 69.934724 
L 45.031265 66.207992 
L 45.299148 67.742529 
L 45.567031 66.427211 
L 45.834913 64.454235 
L 46.102796 65.111894 
L 46.638561 65.111894 
L 46.906443 58.754526 
L 47.174326 60.508283 
L 47.442209 63.796576 
L 47.710091 62.262039 
L 47.977974 62.481259 
L 48.513739 62.481259 
L 48.781622 61.165941 
L 49.049504 63.138918 
L 49.317387 61.165941 
L 49.585269 60.508283 
L 49.853152 62.262039 
L 50.388917 62.262039 
L 50.924682 59.192965 
L 51.192565 63.138918 
L 51.460447 63.358137 
L 51.72833 62.481259 
L 52.531978 62.481259 
L 52.79986 60.069844 
L 53.067743 60.946722 
L 53.335626 61.165941 
L 53.603508 61.8236 
L 54.139273 61.8236 
L 54.407156 60.069844 
L 54.675039 59.192965 
L 54.942921 60.727502 
L 55.210804 61.165941 
L 55.478686 62.04282 
L 56.014451 62.04282 
L 56.282334 61.8236 
L 56.550217 62.919698 
L 56.818099 60.946722 
L 57.085982 60.508283 
L 57.353864 61.385161 
L 57.88963 61.385161 
L 58.157512 60.069844 
L 58.425395 60.289063 
L 58.693277 58.096867 
L 58.96116 60.946722 
L 59.229043 61.165941 
L 59.764808 61.165941 
L 60.03269 59.850624 
L 60.300573 60.069844 
L 60.568455 55.466233 
L 60.836338 55.027793 
L 61.104221 56.343111 
L 61.639986 56.343111 
L 61.907868 54.370135 
L 62.443634 56.343111 
L 62.711516 53.493256 
L 62.979399 52.177939 
L 63.515164 52.177939 
L 63.783047 52.616378 
L 64.050929 56.343111 
L 64.318812 54.150915 
L 64.586694 54.808574 
L 64.854577 57.00077 
L 65.390342 57.00077 
L 65.658225 54.808574 
L 65.926107 56.56233 
L 66.19399 57.439209 
L 66.461872 56.56233 
L 66.729755 54.150915 
L 67.26552 54.150915 
L 67.533403 51.958719 
L 67.801285 57.439209 
L 68.069168 57.439209 
L 68.337051 54.808574 
L 68.604933 57.219989 
L 69.140698 57.219989 
L 69.408581 58.096867 
L 69.676463 56.123891 
L 69.944346 55.904672 
L 70.212229 55.904672 
L 70.480111 54.589354 
L 71.015876 54.589354 
L 71.283759 52.177939 
L 71.551642 54.808574 
L 72.087407 54.808574 
L 72.355289 57.219989 
L 72.891055 57.219989 
L 73.158937 55.685452 
L 73.42682 57.658428 
L 73.694702 57.00077 
L 74.230467 53.493256 
L 74.766233 53.493256 
L 75.034115 48.451206 
L 75.301998 53.054817 
L 75.56988 50.424182 
L 75.837763 45.162913 
L 76.105646 44.724473 
L 76.641411 44.724473 
L 76.909293 44.505254 
L 77.177176 45.601352 
L 77.177176 45.601352 
" clip-path="url(#p726d704ea2)" style="fill: none; stroke: #000000; stroke-linecap: square"/>
   </g>
   <g id="line2d_19">
    <path d="M 77.445059 45.382132 
L 77.712941 43.628375 
L 77.980824 47.135889 
L 78.784471 47.135889 
L 79.052354 40.340082 
L 79.320237 37.709447 
L 79.856002 46.25901 
L 80.391767 46.25901 
L 80.65965 44.724473 
L 80.927532 45.601352 
L 81.463297 44.066815 
L 81.73118 45.601352 
L 82.266945 45.601352 
L 82.534828 44.066815 
L 82.80271 45.820571 
L 83.070593 44.066815 
L 83.338475 40.559301 
L 83.606358 45.820571 
L 84.142123 45.820571 
L 84.410006 44.724473 
L 84.945771 45.601352 
L 85.213654 44.505254 
L 85.481536 44.724473 
L 86.017301 44.724473 
L 86.285184 42.093838 
L 86.820949 44.943693 
L 87.088832 39.243984 
L 87.356714 37.051788 
L 87.892479 37.051788 
L 88.160362 33.325055 
L 88.428245 33.325055 
L 88.696127 44.505254 
L 88.96401 44.724473 
L 89.231892 46.69745 
L 89.767658 46.69745 
L 90.03554 44.724473 
L 90.303423 47.355108 
L 90.571305 47.574328 
L 90.839188 44.943693 
L 91.107071 44.724473 
L 91.642836 44.724473 
L 91.910718 43.189936 
L 92.178601 45.601352 
L 92.446483 46.039791 
L 92.714366 44.505254 
L 92.982249 44.724473 
L 93.518014 44.724473 
L 93.785896 44.505254 
L 94.053779 45.820571 
L 94.589544 44.505254 
L 94.857427 46.25901 
L 95.393192 46.25901 
L 95.661075 41.874619 
L 96.19684 46.69745 
L 96.464722 46.039791 
L 96.732605 46.25901 
L 97.26837 46.25901 
L 97.536253 45.820571 
L 97.804135 46.25901 
L 98.3399 44.505254 
L 98.607783 44.943693 
L 99.143548 44.943693 
L 99.679313 42.093838 
L 99.947196 45.382132 
L 100.215079 45.601352 
L 100.482961 46.25901 
L 101.018726 46.25901 
L 101.286609 45.382132 
L 101.554491 46.69745 
L 102.090257 43.628375 
L 102.358139 44.066815 
L 102.893904 44.066815 
L 103.161787 43.409156 
L 103.42967 44.724473 
L 103.697552 44.724473 
L 103.965435 41.655399 
L 104.233317 44.505254 
L 105.036965 44.505254 
L 105.304848 42.532278 
L 105.840613 44.286034 
L 106.108495 44.943693 
L 106.912143 44.943693 
L 107.180026 45.601352 
L 107.447908 45.601352 
L 107.715791 44.943693 
L 107.983674 43.847595 
L 108.519439 43.847595 
L 108.787321 46.25901 
L 109.055204 47.135889 
L 109.323087 44.943693 
L 109.590969 44.286034 
L 109.858852 45.382132 
L 110.394617 45.382132 
L 110.662499 44.066815 
L 110.930382 44.943693 
L 111.198265 44.943693 
L 111.466147 42.970717 
L 111.73403 42.751497 
L 112.269795 42.751497 
L 112.537678 40.997741 
L 112.80556 45.820571 
L 113.341325 44.066815 
L 113.609208 46.47823 
L 114.412856 46.47823 
L 114.680738 43.409156 
L 114.948621 45.820571 
L 115.216503 45.601352 
L 115.484386 45.820571 
L 116.020151 45.820571 
L 116.288034 42.970717 
L 116.555916 46.039791 
L 116.823799 44.286034 
L 117.091682 44.066815 
L 117.359564 44.943693 
L 117.895329 44.943693 
L 118.163212 44.286034 
L 118.431095 45.162913 
L 118.698977 44.286034 
L 118.96686 44.286034 
L 119.234742 44.724473 
L 119.770507 44.724473 
L 120.03839 42.970717 
L 120.306273 42.970717 
L 120.574155 42.532278 
L 121.10992 45.382132 
L 121.645686 45.382132 
L 121.913568 45.162913 
L 122.181451 45.382132 
L 122.449333 44.724473 
L 122.717216 44.505254 
L 122.985099 45.382132 
L 123.520864 45.382132 
L 123.788746 43.847595 
L 124.056629 44.505254 
L 124.324511 42.532278 
L 124.860277 45.382132 
L 125.396042 45.382132 
L 125.663924 44.505254 
L 125.931807 44.943693 
L 126.19969 43.189936 
L 126.467572 43.189936 
L 126.735455 45.162913 
L 127.27122 45.162913 
L 127.539103 44.943693 
L 127.806985 45.820571 
L 128.074868 44.943693 
L 128.34275 42.313058 
L 128.610633 42.751497 
L 129.146398 42.751497 
L 129.414281 43.409156 
L 129.682163 44.724473 
L 129.950046 45.382132 
L 130.217928 45.162913 
L 130.485811 45.601352 
L 131.021576 45.601352 
L 131.289459 45.162913 
L 131.557341 46.47823 
L 131.825224 45.601352 
L 132.360989 43.189936 
L 132.896754 43.189936 
L 133.164637 44.943693 
L 133.432519 45.601352 
L 133.700402 45.601352 
L 133.968285 45.382132 
L 134.236167 46.25901 
L 135.039815 46.25901 
L 135.307698 43.189936 
L 135.57558 44.286034 
L 135.843463 44.286034 
L 136.111345 68.838627 
L 136.914993 68.838627 
L 137.182876 41.21696 
L 137.986523 59.631404 
L 138.522289 59.631404 
L 138.790171 56.343111 
L 139.058054 57.00077 
L 139.325936 54.589354 
L 139.593819 54.808574 
L 139.861702 56.343111 
L 140.665349 56.343111 
L 140.933232 51.52028 
L 141.201115 57.219989 
L 141.73688 57.658428 
L 142.272645 57.658428 
L 142.540527 55.904672 
L 142.80841 56.56233 
L 143.344175 53.712476 
L 143.612058 56.78155 
L 144.147823 56.78155 
L 144.415706 56.343111 
L 144.683588 58.096867 
L 145.219353 65.331113 
L 145.487236 66.86565 
L 146.023001 66.86565 
L 146.290884 66.427211 
L 146.558766 67.30409 
L 146.826649 66.86565 
L 147.094531 66.86565 
L 147.362414 68.180968 
L 147.898179 68.180968 
L 148.166062 67.30409 
L 148.433944 67.742529 
L 148.701827 66.86565 
L 148.96971 65.331113 
L 149.237592 67.742529 
L 150.04124 67.742529 
L 150.309123 65.331113 
L 150.577005 66.86565 
L 150.844888 66.427211 
L 151.11277 67.742529 
L 151.648535 67.742529 
L 151.916418 65.769553 
L 152.184301 67.08487 
L 152.452183 64.892674 
L 152.720066 64.892674 
L 152.987948 66.427211 
L 153.791596 66.427211 
L 154.059479 69.277066 
L 154.327361 70.373164 
L 154.595244 67.742529 
L 154.863127 68.619407 
L 155.398892 68.619407 
L 155.666774 66.86565 
L 155.934657 66.86565 
L 156.202539 67.30409 
L 156.470422 66.427211 
L 156.738305 69.057846 
L 157.27407 69.057846 
L 157.541952 69.496285 
L 157.809835 74.757555 
L 158.077718 76.730531 
L 158.3456 76.949751 
L 158.613483 79.141947 
L 159.149248 79.141947 
L 159.417131 77.16897 
L 159.952896 76.730531 
L 160.488661 71.469261 
L 161.024426 71.469261 
L 161.292309 71.250042 
L 161.560191 75.634433 
L 161.828074 77.60741 
L 162.095956 76.949751 
L 162.363839 79.141947 
L 162.899604 79.141947 
L 163.167487 78.265068 
L 163.435369 78.703507 
L 163.703252 78.922727 
L 163.971135 77.38819 
L 164.239017 77.60741 
L 164.774782 77.60741 
L 165.042665 74.099896 
L 165.310547 78.045849 
L 165.846313 89.445267 
L 166.114195 91.418243 
L 166.64996 91.418243 
L 166.917843 90.979804 
L 167.185726 90.760584 
L 167.453608 87.91073 
L 167.721491 87.253071 
L 167.989373 88.568388 
L 168.525139 88.568388 
L 168.793021 85.060875 
L 169.060904 86.376193 
L 169.328786 92.075901 
L 169.596669 89.226047 
L 169.864551 90.760584 
L 170.400317 90.760584 
L 170.668199 89.445267 
L 170.936082 90.760584 
L 171.203964 90.322145 
L 171.471847 88.568388 
L 171.73973 89.445267 
L 172.275495 89.445267 
L 172.543377 90.322145 
L 173.079143 98.871708 
L 173.347025 98.871708 
L 173.614908 100.844684 
L 174.150673 100.844684 
L 174.418555 99.310147 
L 174.954321 100.406245 
L 175.222203 100.187026 
L 175.490086 101.063904 
L 176.293734 101.063904 
L 176.561616 97.77561 
L 176.829499 98.652489 
L 177.097381 94.487317 
L 177.365264 96.679513 
L 177.901029 96.679513 
L 178.436794 101.283124 
L 178.704677 101.721563 
L 178.972559 101.502343 
L 179.240442 99.310147 
L 179.776207 99.310147 
L 180.04409 99.090928 
L 180.311972 100.187026 
L 180.579855 98.871708 
L 180.847738 99.090928 
L 181.11562 101.063904 
L 181.651385 101.063904 
L 181.919268 101.721563 
L 182.187151 101.721563 
L 182.455033 100.187026 
L 182.722916 99.310147 
L 182.990798 100.187026 
L 183.526563 100.187026 
L 183.794446 100.406245 
L 184.062329 105.229076 
L 184.330211 106.763613 
L 184.598094 102.817661 
L 184.865976 100.844684 
L 185.401742 100.844684 
L 185.669624 97.337171 
L 185.937507 106.544393 
L 186.205389 106.544393 
L 186.473272 105.886735 
L 186.741155 108.51737 
L 187.27692 108.51737 
L 187.544802 106.982833 
L 187.812685 106.105954 
L 188.080567 104.571417 
L 188.34845 104.571417 
L 188.616333 105.229076 
L 189.152098 105.229076 
L 189.41998 103.694539 
L 189.687863 106.105954 
L 189.955746 105.667515 
L 190.491511 104.132978 
L 191.027276 104.132978 
L 191.295159 103.694539 
L 191.563041 103.694539 
L 191.830924 102.160002 
L 192.098806 102.598441 
L 192.366689 105.229076 
L 192.902454 105.229076 
L 193.438219 103.694539 
L 193.706102 104.352198 
L 193.973984 106.763613 
L 194.241867 106.544393 
L 194.777632 106.544393 
L 195.045515 105.667515 
L 195.313397 106.544393 
L 195.58128 105.229076 
L 195.849163 104.790637 
L 196.117045 106.325174 
L 196.65281 106.325174 
L 196.920693 104.352198 
L 197.188575 105.009856 
L 197.456458 103.475319 
L 197.992223 107.202052 
L 198.527988 107.202052 
L 198.795871 107.640491 
L 199.063754 110.051907 
L 199.331636 110.490346 
L 199.599519 109.613467 
L 199.867401 110.490346 
L 200.403167 110.490346 
L 200.671049 109.832687 
L 200.938932 110.709565 
L 201.206814 110.709565 
L 201.742579 107.202052 
L 202.546227 107.202052 
L 202.81411 106.982833 
L 203.081992 110.928785 
L 203.349875 110.271126 
L 203.617758 112.024883 
L 204.153523 112.024883 
L 204.421405 110.709565 
L 204.689288 110.709565 
L 204.957171 109.394248 
L 205.492936 118.82069 
L 206.028701 118.82069 
L 206.564466 160.03397 
L 206.832349 161.349287 
L 207.368114 119.259129 
L 207.903879 119.259129 
L 208.171762 114.874737 
L 208.707527 122.547422 
L 208.975409 119.916787 
L 209.243292 127.151033 
L 209.779057 127.151033 
L 210.04694 121.232105 
L 210.314822 135.919816 
L 210.582705 137.673573 
L 210.850587 133.727621 
L 211.11847 134.385279 
L 211.922118 134.385279 
L 212.19 132.631523 
L 212.457883 134.385279 
L 212.725766 134.385279 
L 212.993648 135.042938 
L 213.529413 135.042938 
L 213.797296 132.412303 
L 214.065179 133.289181 
L 214.333061 132.412303 
L 214.600944 132.631523 
L 214.868826 133.289181 
L 215.404591 133.289181 
L 215.672474 132.193084 
L 215.940357 133.069962 
L 216.208239 131.973864 
L 216.476122 131.754644 
L 216.744004 132.412303 
L 217.27977 132.412303 
L 217.547652 131.535425 
L 217.815535 131.535425 
L 218.083417 129.12401 
L 218.3513 130.220107 
L 218.619183 134.16606 
L 219.154948 134.16606 
L 219.42283 133.727621 
L 219.690713 140.742647 
L 219.958595 142.715623 
L 220.226478 142.934843 
L 220.494361 144.030941 
L 221.298008 144.030941 
L 221.565891 141.400306 
L 222.101656 138.769671 
L 222.369539 144.030941 
L 222.905304 144.030941 
L 223.173187 143.373282 
L 223.708952 145.127039 
L 223.976834 145.127039 
L 224.244717 146.223136 
L 224.780482 146.223136 
L 225.048365 142.715623 
L 225.316247 143.373282 
L 225.58413 142.715623 
L 225.852012 141.619525 
L 226.119895 142.277184 
L 226.65566 142.277184 
L 226.923543 142.496404 
L 227.191425 145.127039 
L 227.459308 146.003917 
L 227.727191 146.442356 
L 227.995073 145.346258 
L 228.530838 145.346258 
L 228.798721 145.784697 
L 229.066603 147.976893 
L 229.334486 147.757673 
L 229.602369 146.661576 
L 229.870251 146.223136 
L 230.406016 146.223136 
L 230.673899 145.127039 
L 230.941782 149.949869 
L 231.209664 149.949869 
L 231.477547 148.196113 
L 231.745429 148.415332 
L 232.281195 148.415332 
L 232.549077 150.607528 
L 232.81696 150.607528 
L 233.084842 146.003917 
L 233.352725 146.880795 
L 233.620607 153.676602 
L 234.156373 153.676602 
L 234.424255 154.115041 
L 234.692138 154.115041 
L 234.96002 145.346258 
L 235.227903 149.73065 
L 235.495786 152.142065 
L 236.567316 152.142065 
L 236.835199 149.29221 
L 237.103081 147.757673 
L 237.370964 149.949869 
L 237.906729 149.949869 
L 238.174611 148.415332 
L 238.442494 149.072991 
L 238.710377 150.388308 
L 238.978259 150.607528 
L 239.246142 149.949869 
L 240.04979 149.949869 
L 240.317672 147.100015 
L 240.585555 147.757673 
L 240.853437 147.976893 
L 241.12132 148.415332 
L 241.657085 148.415332 
L 241.924968 148.196113 
L 242.19285 148.415332 
L 242.460733 148.415332 
L 242.728615 146.880795 
L 242.996498 148.634552 
L 243.532263 148.634552 
L 243.800146 149.29221 
L 244.068028 151.484406 
L 244.335911 151.045967 
L 244.603794 149.29221 
L 244.871676 150.388308 
L 245.407441 150.388308 
L 245.675324 148.853771 
L 245.943207 149.73065 
L 246.211089 149.072991 
L 246.478972 147.757673 
L 246.746854 149.51143 
L 247.550502 149.51143 
L 247.818385 148.634552 
L 248.086267 148.853771 
L 248.35415 148.634552 
L 248.622032 149.949869 
L 249.157798 149.949869 
L 249.42568 147.976893 
L 249.693563 148.634552 
L 249.961445 148.853771 
L 250.229328 147.319234 
L 250.497211 148.415332 
L 251.032976 148.415332 
L 251.300858 150.607528 
L 251.568741 151.703626 
L 252.104506 148.634552 
L 252.372389 150.388308 
L 252.908154 150.388308 
L 253.176036 149.072991 
L 253.443919 150.607528 
L 253.979684 148.196113 
L 254.247567 147.976893 
L 254.783332 147.976893 
L 255.051215 149.949869 
L 255.319097 150.826747 
L 255.58698 148.415332 
L 255.854862 149.29221 
L 256.122745 150.607528 
L 256.65851 150.607528 
L 256.926393 149.072991 
L 257.194275 149.949869 
L 257.462158 150.388308 
L 257.73004 148.634552 
L 257.997923 149.29221 
L 258.533688 149.29221 
L 258.801571 146.223136 
L 259.069453 149.29221 
L 259.337336 147.757673 
L 259.605219 149.29221 
L 259.873101 150.169089 
L 260.408866 150.169089 
L 260.676749 149.73065 
L 260.944631 150.607528 
L 261.212514 149.51143 
L 261.480397 147.319234 
L 261.748279 148.196113 
L 262.284044 148.196113 
L 262.551927 147.100015 
L 262.81981 150.607528 
L 263.087692 149.51143 
L 263.355575 149.949869 
L 263.623457 150.826747 
L 264.159223 150.826747 
L 264.427105 149.51143 
L 264.694988 149.949869 
L 265.230753 147.538454 
L 265.498635 148.196113 
L 266.034401 148.196113 
L 266.302283 147.757673 
L 266.570166 147.538454 
L 266.838048 146.223136 
L 267.373814 149.51143 
L 267.909579 149.51143 
L 268.177461 149.072991 
L 268.445344 149.73065 
L 268.713227 149.949869 
L 268.981109 149.29221 
L 269.784757 149.29221 
L 270.052639 149.072991 
L 270.320522 150.388308 
L 270.588405 147.100015 
L 271.12417 150.169089 
L 271.659935 150.169089 
L 271.927818 149.73065 
L 272.1957 150.607528 
L 272.731465 148.853771 
L 272.999348 149.072991 
L 273.802996 149.072991 
L 274.070878 146.223136 
L 274.338761 148.196113 
L 274.606643 147.976893 
L 274.874526 148.196113 
L 275.410291 148.196113 
L 275.678174 147.319234 
L 275.946056 149.51143 
L 276.213939 150.169089 
L 276.481822 149.072991 
L 276.749704 149.51143 
L 277.285469 149.51143 
L 277.553352 148.853771 
L 277.821235 149.73065 
L 278.089117 149.072991 
L 278.357 148.853771 
L 278.624882 149.072991 
L 279.160647 149.072991 
L 279.42853 147.538454 
L 279.696413 149.949869 
L 279.964295 150.388308 
L 280.232178 149.072991 
L 280.50006 149.29221 
L 281.035826 149.29221 
L 281.303708 148.634552 
L 281.571591 149.072991 
L 282.107356 147.757673 
L 282.375239 149.51143 
L 282.911004 149.51143 
L 283.178886 147.319234 
L 283.446769 149.73065 
L 283.714651 149.949869 
L 283.982534 149.949869 
L 284.250417 149.73065 
L 284.786182 149.73065 
L 285.054064 149.072991 
L 285.321947 149.73065 
L 285.857712 148.853771 
L 286.125595 149.949869 
L 286.66136 149.949869 
L 286.929243 147.319234 
L 287.197125 149.73065 
L 287.465008 149.949869 
L 287.73289 149.29221 
L 288.000773 149.73065 
L 288.536538 149.73065 
L 288.804421 148.634552 
L 289.072303 149.51143 
L 289.340186 150.826747 
L 289.608068 149.072991 
L 289.875951 150.388308 
L 290.411716 150.388308 
L 290.679599 149.072991 
L 290.947481 149.949869 
L 291.483247 148.196113 
L 291.751129 149.73065 
L 292.286894 149.73065 
L 292.554777 148.634552 
L 293.090542 149.949869 
L 293.358425 149.949869 
L 293.626307 150.607528 
L 294.162072 150.607528 
L 294.429955 148.853771 
L 294.697838 149.29221 
L 294.96572 148.415332 
L 295.233603 146.442356 
L 295.501485 150.169089 
L 296.037251 150.169089 
L 296.305133 149.73065 
L 296.573016 150.169089 
L 296.840898 149.73065 
L 297.108781 149.51143 
L 297.376663 149.73065 
L 297.912429 149.73065 
L 298.180311 147.757673 
L 298.448194 148.196113 
L 298.716076 147.976893 
L 298.983959 147.538454 
L 299.251842 147.757673 
L 300.055489 147.757673 
L 300.323372 146.442356 
L 300.591255 149.29221 
L 300.859137 149.072991 
L 301.12702 149.949869 
L 301.662785 149.949869 
L 301.930667 148.853771 
L 302.466433 149.73065 
L 302.734315 149.29221 
L 303.002198 149.73065 
L 303.537963 149.73065 
L 303.805846 147.319234 
L 304.073728 149.73065 
L 304.341611 150.607528 
L 304.877376 150.169089 
L 305.413141 150.169089 
L 305.681024 149.29221 
L 305.948906 149.072991 
L 306.216789 148.196113 
L 306.484671 147.976893 
L 306.752554 148.415332 
L 307.288319 148.415332 
L 307.556202 146.880795 
L 307.824084 146.880795 
L 308.091967 149.072991 
L 308.35985 148.853771 
L 308.627732 149.73065 
L 309.163497 149.73065 
L 309.43138 149.29221 
L 309.699263 149.73065 
L 309.967145 149.51143 
L 310.235028 149.072991 
L 310.50291 149.51143 
L 311.306558 149.51143 
L 311.574441 146.223136 
L 311.842323 149.51143 
L 312.110206 149.29221 
L 312.378088 149.949869 
L 312.913854 149.949869 
L 313.181736 149.51143 
L 313.449619 149.949869 
L 313.985384 147.976893 
L 314.253267 147.538454 
L 314.789032 147.538454 
L 315.592679 149.73065 
L 315.860562 147.538454 
L 316.128445 149.29221 
L 316.66421 149.29221 
L 316.932092 149.949869 
L 317.199975 151.484406 
L 318.003623 161.568507 
L 318.807271 161.568507 
L 319.075153 159.157091 
L 319.343036 161.787726 
L 319.610918 159.157091 
L 319.878801 157.841774 
L 320.414566 157.841774 
L 320.682449 160.910848 
L 320.950331 161.130067 
L 321.486096 159.59553 
L 321.753979 160.03397 
L 322.289744 160.03397 
L 322.557627 158.499433 
L 322.825509 159.81475 
L 323.093392 159.59553 
L 323.361275 159.59553 
L 323.629157 160.472409 
L 324.164922 160.472409 
L 324.432805 159.59553 
L 324.700688 160.253189 
L 324.96857 160.472409 
L 325.236453 160.253189 
L 325.504335 160.910848 
L 326.0401 160.910848 
L 326.307983 160.691628 
L 326.575866 160.691628 
L 326.843748 159.157091 
L 327.111631 159.157091 
L 327.379513 160.03397 
L 327.915279 160.03397 
L 328.183161 157.622554 
L 328.451044 159.81475 
L 328.718926 160.03397 
L 328.986809 159.376311 
L 329.254692 159.81475 
L 329.790457 159.81475 
L 330.058339 159.376311 
L 330.326222 162.226165 
L 330.594104 162.226165 
L 330.861987 159.376311 
L 331.12987 161.130067 
L 331.665635 161.130067 
L 331.933517 160.472409 
L 332.2014 162.006946 
L 332.469283 162.006946 
L 332.469283 162.006946 
" clip-path="url(#p726d704ea2)" style="fill: none; stroke: #d3d3d3; stroke-linecap: square"/>
   </g>
   <g id="patch_3">
    <path d="M 24.19 168.671221 
L 24.19 26.88 
" style="fill: none; stroke: #000000; stroke-width: 0.8; stroke-linejoin: miter; stroke-linecap: square"/>
   </g>
   <g id="patch_4">
    <path d="M 347.149248 168.671221 
L 347.149248 26.88 
" style="fill: none; stroke: #000000; stroke-width: 0.8; stroke-linejoin: miter; stroke-linecap: square"/>
   </g>
   <g id="patch_5">
    <path d="M 24.19 168.671221 
L 347.149248 168.671221 
" style="fill: none; stroke: #000000; stroke-width: 0.8; stroke-linejoin: miter; stroke-linecap: square"/>
   </g>
   <g id="patch_6">
    <path d="M 24.19 26.88 
L 347.149248 26.88 
" style="fill: none; stroke: #000000; stroke-width: 0.8; stroke-linejoin: miter; stroke-linecap: square"/>
   </g>
   <g id="text_18">
    <!-- FF Effective Rate -->
    <g transform="translate(134.930249 20.88) scale(0.12 -0.12)">
     <defs>
      <path id="DejaVuSans-46" d="M 628 4666 
L 3309 4666 
L 3309 4134 
L 1259 4134 
L 1259 2759 
L 3109 2759 
L 3109 2228 
L 1259 2228 
L 1259 0 
L 628 0 
L 628 4666 
z
" transform="scale(0.015625)"/>
      <path id="DejaVuSans-20" transform="scale(0.015625)"/>
      <path id="DejaVuSans-45" d="M 628 4666 
L 3578 4666 
L 3578 4134 
L 1259 4134 
L 1259 2753 
L 3481 2753 
L 3481 2222 
L 1259 2222 
L 1259 531 
L 3634 531 
L 3634 0 
L 628 0 
L 628 4666 
z
" transform="scale(0.015625)"/>
      <path id="DejaVuSans-66" d="M 2375 4863 
L 2375 4384 
L 1825 4384 
Q 1516 4384 1395 4259 
Q 1275 4134 1275 3809 
L 1275 3500 
L 2222 3500 
L 2222 3053 
L 1275 3053 
L 1275 0 
L 697 0 
L 697 3053 
L 147 3053 
L 147 3500 
L 697 3500 
L 697 3744 
Q 697 4328 969 4595 
Q 1241 4863 1831 4863 
L 2375 4863 
z
" transform="scale(0.015625)"/>
      <path id="DejaVuSans-65" d="M 3597 1894 
L 3597 1613 
L 953 1613 
Q 991 1019 1311 708 
Q 1631 397 2203 397 
Q 2534 397 2845 478 
Q 3156 559 3463 722 
L 3463 178 
Q 3153 47 2828 -22 
Q 2503 -91 2169 -91 
Q 1331 -91 842 396 
Q 353 884 353 1716 
Q 353 2575 817 3079 
Q 1281 3584 2069 3584 
Q 2775 3584 3186 3129 
Q 3597 2675 3597 1894 
z
M 3022 2063 
Q 3016 2534 2758 2815 
Q 2500 3097 2075 3097 
Q 1594 3097 1305 2825 
Q 1016 2553 972 2059 
L 3022 2063 
z
" transform="scale(0.015625)"/>
      <path id="DejaVuSans-63" d="M 3122 3366 
L 3122 2828 
Q 2878 2963 2633 3030 
Q 2388 3097 2138 3097 
Q 1578 3097 1268 2742 
Q 959 2388 959 1747 
Q 959 1106 1268 751 
Q 1578 397 2138 397 
Q 2388 397 2633 464 
Q 2878 531 3122 666 
L 3122 134 
Q 2881 22 2623 -34 
Q 2366 -91 2075 -91 
Q 1284 -91 818 406 
Q 353 903 353 1747 
Q 353 2603 823 3093 
Q 1294 3584 2113 3584 
Q 2378 3584 2631 3529 
Q 2884 3475 3122 3366 
z
" transform="scale(0.015625)"/>
      <path id="DejaVuSans-74" d="M 1172 4494 
L 1172 3500 
L 2356 3500 
L 2356 3053 
L 1172 3053 
L 1172 1153 
Q 1172 725 1289 603 
Q 1406 481 1766 481 
L 2356 481 
L 2356 0 
L 1766 0 
Q 1100 0 847 248 
Q 594 497 594 1153 
L 594 3053 
L 172 3053 
L 172 3500 
L 594 3500 
L 594 4494 
L 1172 4494 
z
" transform="scale(0.015625)"/>
      <path id="DejaVuSans-69" d="M 603 3500 
L 1178 3500 
L 1178 0 
L 603 0 
L 603 3500 
z
M 603 4863 
L 1178 4863 
L 1178 4134 
L 603 4134 
L 603 4863 
z
" transform="scale(0.015625)"/>
      <path id="DejaVuSans-76" d="M 191 3500 
L 800 3500 
L 1894 563 
L 2988 3500 
L 3597 3500 
L 2284 0 
L 1503 0 
L 191 3500 
z
" transform="scale(0.015625)"/>
      <path id="DejaVuSans-52" d="M 2841 2188 
Q 3044 2119 3236 1894 
Q 3428 1669 3622 1275 
L 4263 0 
L 3584 0 
L 2988 1197 
Q 2756 1666 2539 1819 
Q 2322 1972 1947 1972 
L 1259 1972 
L 1259 0 
L 628 0 
L 628 4666 
L 2053 4666 
Q 2853 4666 3247 4331 
Q 3641 3997 3641 3322 
Q 3641 2881 3436 2590 
Q 3231 2300 2841 2188 
z
M 1259 4147 
L 1259 2491 
L 2053 2491 
Q 2509 2491 2742 2702 
Q 2975 2913 2975 3322 
Q 2975 3731 2742 3939 
Q 2509 4147 2053 4147 
L 1259 4147 
z
" transform="scale(0.015625)"/>
      <path id="DejaVuSans-61" d="M 2194 1759 
Q 1497 1759 1228 1600 
Q 959 1441 959 1056 
Q 959 750 1161 570 
Q 1363 391 1709 391 
Q 2188 391 2477 730 
Q 2766 1069 2766 1631 
L 2766 1759 
L 2194 1759 
z
M 3341 1997 
L 3341 0 
L 2766 0 
L 2766 531 
Q 2569 213 2275 61 
Q 1981 -91 1556 -91 
Q 1019 -91 701 211 
Q 384 513 384 1019 
Q 384 1609 779 1909 
Q 1175 2209 1959 2209 
L 2766 2209 
L 2766 2266 
Q 2766 2663 2505 2880 
Q 2244 3097 1772 3097 
Q 1472 3097 1187 3025 
Q 903 2953 641 2809 
L 641 3341 
Q 956 3463 1253 3523 
Q 1550 3584 1831 3584 
Q 2591 3584 2966 3190 
Q 3341 2797 3341 1997 
z
" transform="scale(0.015625)"/>
     </defs>
     <use xlink:href="#DejaVuSans-46"/>
     <use xlink:href="#DejaVuSans-46" x="57.519531"/>
     <use xlink:href="#DejaVuSans-20" x="115.039062"/>
     <use xlink:href="#DejaVuSans-45" x="146.826172"/>
     <use xlink:href="#DejaVuSans-66" x="210.009766"/>
     <use xlink:href="#DejaVuSans-66" x="245.214844"/>
     <use xlink:href="#DejaVuSans-65" x="280.419922"/>
     <use xlink:href="#DejaVuSans-63" x="341.943359"/>
     <use xlink:href="#DejaVuSans-74" x="396.923828"/>
     <use xlink:href="#DejaVuSans-69" x="436.132812"/>
     <use xlink:href="#DejaVuSans-76" x="463.916016"/>
     <use xlink:href="#DejaVuSans-65" x="523.095703"/>
     <use xlink:href="#DejaVuSans-20" x="584.619141"/>
     <use xlink:href="#DejaVuSans-52" x="616.40625"/>
     <use xlink:href="#DejaVuSans-61" x="683.638672"/>
     <use xlink:href="#DejaVuSans-74" x="744.917969"/>
     <use xlink:href="#DejaVuSans-65" x="784.126953"/>
    </g>
   </g>
  </g>
 </g>
 <defs>
  <clipPath id="p726d704ea2">
   <rect x="24.19" y="26.88" width="322.959248" height="141.791221"/>
  </clipPath>
 </defs>
</svg>
