<?xml version="1.0" encoding="utf-8" standalone="no"?>
<!DOCTYPE svg PUBLIC "-//W3C//DTD SVG 1.1//EN"
  "http://www.w3.org/Graphics/SVG/1.1/DTD/svg11.dtd">
<svg xmlns:xlink="http://www.w3.org/1999/xlink" width="432pt" height="288pt" viewBox="0 0 432 288" xmlns="http://www.w3.org/2000/svg" version="1.1">
 <metadata>
  <rdf:RDF xmlns:dc="http://purl.org/dc/elements/1.1/" xmlns:cc="http://creativecommons.org/ns#" xmlns:rdf="http://www.w3.org/1999/02/22-rdf-syntax-ns#">
   <cc:Work>
    <dc:type rdf:resource="http://purl.org/dc/dcmitype/StillImage"/>
    <dc:date>2022-08-15T12:15:34.362659</dc:date>
    <dc:format>image/svg+xml</dc:format>
    <dc:creator>
     <cc:Agent>
      <dc:title>Matplotlib v3.5.2, https://matplotlib.org/</dc:title>
     </cc:Agent>
    </dc:creator>
   </cc:Work>
  </rdf:RDF>
 </metadata>
 <defs>
  <style type="text/css">*{stroke-linejoin: round; stroke-linecap: butt}</style>
 </defs>
 <g id="figure_1">
  <g id="patch_1">
   <path d="M 0 288 
L 432 288 
L 432 0 
L 0 0 
L 0 288 
z
" style="fill: none"/>
  </g>
  <g id="axes_1">
   <g id="patch_2">
    <path d="M 24.175 240.678292 
L 421.2 240.678292 
L 421.2 26.8 
L 24.175 26.8 
z
" style="fill: #ffffff"/>
   </g>
   <g id="matplotlib.axis_1">
    <g id="xtick_1">
     <g id="line2d_1">
      <defs>
       <path id="m4c5ec0395c" d="M 0 0 
L 0 3.5 
" style="stroke: #000000; stroke-width: 0.8"/>
      </defs>
      <g>
       <use xlink:href="#m4c5ec0395c" x="42.221591" y="240.678292" style="stroke: #000000; stroke-width: 0.8"/>
      </g>
     </g>
     <g id="text_1">
      <!-- '00-01 -->
      <g transform="translate(32.927556 275.541614)rotate(-45)scale(0.1 -0.1)">
       <defs>
        <path id="DejaVuSans-27" d="M 1147 4666 
L 1147 2931 
L 616 2931 
L 616 4666 
L 1147 4666 
z
" transform="scale(0.015625)"/>
        <path id="DejaVuSans-30" d="M 2034 4250 
Q 1547 4250 1301 3770 
Q 1056 3291 1056 2328 
Q 1056 1369 1301 889 
Q 1547 409 2034 409 
Q 2525 409 2770 889 
Q 3016 1369 3016 2328 
Q 3016 3291 2770 3770 
Q 2525 4250 2034 4250 
z
M 2034 4750 
Q 2819 4750 3233 4129 
Q 3647 3509 3647 2328 
Q 3647 1150 3233 529 
Q 2819 -91 2034 -91 
Q 1250 -91 836 529 
Q 422 1150 422 2328 
Q 422 3509 836 4129 
Q 1250 4750 2034 4750 
z
" transform="scale(0.015625)"/>
        <path id="DejaVuSans-2d" d="M 313 2009 
L 1997 2009 
L 1997 1497 
L 313 1497 
L 313 2009 
z
" transform="scale(0.015625)"/>
        <path id="DejaVuSans-31" d="M 794 531 
L 1825 531 
L 1825 4091 
L 703 3866 
L 703 4441 
L 1819 4666 
L 2450 4666 
L 2450 531 
L 3481 531 
L 3481 0 
L 794 0 
L 794 531 
z
" transform="scale(0.015625)"/>
       </defs>
       <use xlink:href="#DejaVuSans-27"/>
       <use xlink:href="#DejaVuSans-30" x="27.490234"/>
       <use xlink:href="#DejaVuSans-30" x="91.113281"/>
       <use xlink:href="#DejaVuSans-2d" x="154.736328"/>
       <use xlink:href="#DejaVuSans-30" x="190.820312"/>
       <use xlink:href="#DejaVuSans-31" x="254.443359"/>
      </g>
     </g>
    </g>
    <g id="xtick_2">
     <g id="line2d_2">
      <g>
       <use xlink:href="#m4c5ec0395c" x="82.068991" y="240.678292" style="stroke: #000000; stroke-width: 0.8"/>
      </g>
     </g>
     <g id="text_2">
      <!-- '00-05 -->
      <g transform="translate(72.774956 275.541614)rotate(-45)scale(0.1 -0.1)">
       <defs>
        <path id="DejaVuSans-35" d="M 691 4666 
L 3169 4666 
L 3169 4134 
L 1269 4134 
L 1269 2991 
Q 1406 3038 1543 3061 
Q 1681 3084 1819 3084 
Q 2600 3084 3056 2656 
Q 3513 2228 3513 1497 
Q 3513 744 3044 326 
Q 2575 -91 1722 -91 
Q 1428 -91 1123 -41 
Q 819 9 494 109 
L 494 744 
Q 775 591 1075 516 
Q 1375 441 1709 441 
Q 2250 441 2565 725 
Q 2881 1009 2881 1497 
Q 2881 1984 2565 2268 
Q 2250 2553 1709 2553 
Q 1456 2553 1204 2497 
Q 953 2441 691 2322 
L 691 4666 
z
" transform="scale(0.015625)"/>
       </defs>
       <use xlink:href="#DejaVuSans-27"/>
       <use xlink:href="#DejaVuSans-30" x="27.490234"/>
       <use xlink:href="#DejaVuSans-30" x="91.113281"/>
       <use xlink:href="#DejaVuSans-2d" x="154.736328"/>
       <use xlink:href="#DejaVuSans-30" x="190.820312"/>
       <use xlink:href="#DejaVuSans-35" x="254.443359"/>
      </g>
     </g>
    </g>
    <g id="xtick_3">
     <g id="line2d_3">
      <g>
       <use xlink:href="#m4c5ec0395c" x="122.575025" y="240.678292" style="stroke: #000000; stroke-width: 0.8"/>
      </g>
     </g>
     <g id="text_3">
      <!-- '00-09 -->
      <g transform="translate(113.28099 275.541614)rotate(-45)scale(0.1 -0.1)">
       <defs>
        <path id="DejaVuSans-39" d="M 703 97 
L 703 672 
Q 941 559 1184 500 
Q 1428 441 1663 441 
Q 2288 441 2617 861 
Q 2947 1281 2994 2138 
Q 2813 1869 2534 1725 
Q 2256 1581 1919 1581 
Q 1219 1581 811 2004 
Q 403 2428 403 3163 
Q 403 3881 828 4315 
Q 1253 4750 1959 4750 
Q 2769 4750 3195 4129 
Q 3622 3509 3622 2328 
Q 3622 1225 3098 567 
Q 2575 -91 1691 -91 
Q 1453 -91 1209 -44 
Q 966 3 703 97 
z
M 1959 2075 
Q 2384 2075 2632 2365 
Q 2881 2656 2881 3163 
Q 2881 3666 2632 3958 
Q 2384 4250 1959 4250 
Q 1534 4250 1286 3958 
Q 1038 3666 1038 3163 
Q 1038 2656 1286 2365 
Q 1534 2075 1959 2075 
z
" transform="scale(0.015625)"/>
       </defs>
       <use xlink:href="#DejaVuSans-27"/>
       <use xlink:href="#DejaVuSans-30" x="27.490234"/>
       <use xlink:href="#DejaVuSans-30" x="91.113281"/>
       <use xlink:href="#DejaVuSans-2d" x="154.736328"/>
       <use xlink:href="#DejaVuSans-30" x="190.820312"/>
       <use xlink:href="#DejaVuSans-39" x="254.443359"/>
      </g>
     </g>
    </g>
    <g id="xtick_4">
     <g id="line2d_4">
      <g>
       <use xlink:href="#m4c5ec0395c" x="162.751742" y="240.678292" style="stroke: #000000; stroke-width: 0.8"/>
      </g>
     </g>
     <g id="text_4">
      <!-- '01-01 -->
      <g transform="translate(153.457707 275.541614)rotate(-45)scale(0.1 -0.1)">
       <use xlink:href="#DejaVuSans-27"/>
       <use xlink:href="#DejaVuSans-30" x="27.490234"/>
       <use xlink:href="#DejaVuSans-31" x="91.113281"/>
       <use xlink:href="#DejaVuSans-2d" x="154.736328"/>
       <use xlink:href="#DejaVuSans-30" x="190.820312"/>
       <use xlink:href="#DejaVuSans-31" x="254.443359"/>
      </g>
     </g>
    </g>
    <g id="xtick_5">
     <g id="line2d_5">
      <g>
       <use xlink:href="#m4c5ec0395c" x="202.269824" y="240.678292" style="stroke: #000000; stroke-width: 0.8"/>
      </g>
     </g>
     <g id="text_5">
      <!-- '01-05 -->
      <g transform="translate(192.975789 275.541614)rotate(-45)scale(0.1 -0.1)">
       <use xlink:href="#DejaVuSans-27"/>
       <use xlink:href="#DejaVuSans-30" x="27.490234"/>
       <use xlink:href="#DejaVuSans-31" x="91.113281"/>
       <use xlink:href="#DejaVuSans-2d" x="154.736328"/>
       <use xlink:href="#DejaVuSans-30" x="190.820312"/>
       <use xlink:href="#DejaVuSans-35" x="254.443359"/>
      </g>
     </g>
    </g>
    <g id="xtick_6">
     <g id="line2d_6">
      <g>
       <use xlink:href="#m4c5ec0395c" x="242.775858" y="240.678292" style="stroke: #000000; stroke-width: 0.8"/>
      </g>
     </g>
     <g id="text_6">
      <!-- '01-09 -->
      <g transform="translate(233.481824 275.541614)rotate(-45)scale(0.1 -0.1)">
       <use xlink:href="#DejaVuSans-27"/>
       <use xlink:href="#DejaVuSans-30" x="27.490234"/>
       <use xlink:href="#DejaVuSans-31" x="91.113281"/>
       <use xlink:href="#DejaVuSans-2d" x="154.736328"/>
       <use xlink:href="#DejaVuSans-30" x="190.820312"/>
       <use xlink:href="#DejaVuSans-39" x="254.443359"/>
      </g>
     </g>
    </g>
    <g id="xtick_7">
     <g id="line2d_7">
      <g>
       <use xlink:href="#m4c5ec0395c" x="282.952575" y="240.678292" style="stroke: #000000; stroke-width: 0.8"/>
      </g>
     </g>
     <g id="text_7">
      <!-- '02-01 -->
      <g transform="translate(273.658541 275.541614)rotate(-45)scale(0.1 -0.1)">
       <defs>
        <path id="DejaVuSans-32" d="M 1228 531 
L 3431 531 
L 3431 0 
L 469 0 
L 469 531 
Q 828 903 1448 1529 
Q 2069 2156 2228 2338 
Q 2531 2678 2651 2914 
Q 2772 3150 2772 3378 
Q 2772 3750 2511 3984 
Q 2250 4219 1831 4219 
Q 1534 4219 1204 4116 
Q 875 4013 500 3803 
L 500 4441 
Q 881 4594 1212 4672 
Q 1544 4750 1819 4750 
Q 2544 4750 2975 4387 
Q 3406 4025 3406 3419 
Q 3406 3131 3298 2873 
Q 3191 2616 2906 2266 
Q 2828 2175 2409 1742 
Q 1991 1309 1228 531 
z
" transform="scale(0.015625)"/>
       </defs>
       <use xlink:href="#DejaVuSans-27"/>
       <use xlink:href="#DejaVuSans-30" x="27.490234"/>
       <use xlink:href="#DejaVuSans-32" x="91.113281"/>
       <use xlink:href="#DejaVuSans-2d" x="154.736328"/>
       <use xlink:href="#DejaVuSans-30" x="190.820312"/>
       <use xlink:href="#DejaVuSans-31" x="254.443359"/>
      </g>
     </g>
    </g>
    <g id="xtick_8">
     <g id="line2d_8">
      <g>
       <use xlink:href="#m4c5ec0395c" x="322.470658" y="240.678292" style="stroke: #000000; stroke-width: 0.8"/>
      </g>
     </g>
     <g id="text_8">
      <!-- '02-05 -->
      <g transform="translate(313.176623 275.541614)rotate(-45)scale(0.1 -0.1)">
       <use xlink:href="#DejaVuSans-27"/>
       <use xlink:href="#DejaVuSans-30" x="27.490234"/>
       <use xlink:href="#DejaVuSans-32" x="91.113281"/>
       <use xlink:href="#DejaVuSans-2d" x="154.736328"/>
       <use xlink:href="#DejaVuSans-30" x="190.820312"/>
       <use xlink:href="#DejaVuSans-35" x="254.443359"/>
      </g>
     </g>
    </g>
    <g id="xtick_9">
     <g id="line2d_9">
      <g>
       <use xlink:href="#m4c5ec0395c" x="362.976692" y="240.678292" style="stroke: #000000; stroke-width: 0.8"/>
      </g>
     </g>
     <g id="text_9">
      <!-- '02-09 -->
      <g transform="translate(353.682657 275.541614)rotate(-45)scale(0.1 -0.1)">
       <use xlink:href="#DejaVuSans-27"/>
       <use xlink:href="#DejaVuSans-30" x="27.490234"/>
       <use xlink:href="#DejaVuSans-32" x="91.113281"/>
       <use xlink:href="#DejaVuSans-2d" x="154.736328"/>
       <use xlink:href="#DejaVuSans-30" x="190.820312"/>
       <use xlink:href="#DejaVuSans-39" x="254.443359"/>
      </g>
     </g>
    </g>
    <g id="xtick_10">
     <g id="line2d_10">
      <g>
       <use xlink:href="#m4c5ec0395c" x="403.153409" y="240.678292" style="stroke: #000000; stroke-width: 0.8"/>
      </g>
     </g>
     <g id="text_10">
      <!-- '03-01 -->
      <g transform="translate(393.859374 275.541614)rotate(-45)scale(0.1 -0.1)">
       <defs>
        <path id="DejaVuSans-33" d="M 2597 2516 
Q 3050 2419 3304 2112 
Q 3559 1806 3559 1356 
Q 3559 666 3084 287 
Q 2609 -91 1734 -91 
Q 1441 -91 1130 -33 
Q 819 25 488 141 
L 488 750 
Q 750 597 1062 519 
Q 1375 441 1716 441 
Q 2309 441 2620 675 
Q 2931 909 2931 1356 
Q 2931 1769 2642 2001 
Q 2353 2234 1838 2234 
L 1294 2234 
L 1294 2753 
L 1863 2753 
Q 2328 2753 2575 2939 
Q 2822 3125 2822 3475 
Q 2822 3834 2567 4026 
Q 2313 4219 1838 4219 
Q 1578 4219 1281 4162 
Q 984 4106 628 3988 
L 628 4550 
Q 988 4650 1302 4700 
Q 1616 4750 1894 4750 
Q 2613 4750 3031 4423 
Q 3450 4097 3450 3541 
Q 3450 3153 3228 2886 
Q 3006 2619 2597 2516 
z
" transform="scale(0.015625)"/>
       </defs>
       <use xlink:href="#DejaVuSans-27"/>
       <use xlink:href="#DejaVuSans-30" x="27.490234"/>
       <use xlink:href="#DejaVuSans-33" x="91.113281"/>
       <use xlink:href="#DejaVuSans-2d" x="154.736328"/>
       <use xlink:href="#DejaVuSans-30" x="190.820312"/>
       <use xlink:href="#DejaVuSans-31" x="254.443359"/>
      </g>
     </g>
    </g>
   </g>
   <g id="matplotlib.axis_2">
    <g id="ytick_1">
     <g id="line2d_11">
      <defs>
       <path id="m8904d4da3c" d="M 0 0 
L -3.5 0 
" style="stroke: #000000; stroke-width: 0.8"/>
      </defs>
      <g>
       <use xlink:href="#m8904d4da3c" x="24.175" y="235.916623" style="stroke: #000000; stroke-width: 0.8"/>
      </g>
     </g>
     <g id="text_11">
      <!-- 1 -->
      <g transform="translate(10.8125 239.715842)scale(0.1 -0.1)">
       <use xlink:href="#DejaVuSans-31"/>
      </g>
     </g>
    </g>
    <g id="ytick_2">
     <g id="line2d_12">
      <g>
       <use xlink:href="#m8904d4da3c" x="24.175" y="202.849478" style="stroke: #000000; stroke-width: 0.8"/>
      </g>
     </g>
     <g id="text_12">
      <!-- 2 -->
      <g transform="translate(10.8125 206.648697)scale(0.1 -0.1)">
       <use xlink:href="#DejaVuSans-32"/>
      </g>
     </g>
    </g>
    <g id="ytick_3">
     <g id="line2d_13">
      <g>
       <use xlink:href="#m8904d4da3c" x="24.175" y="169.782334" style="stroke: #000000; stroke-width: 0.8"/>
      </g>
     </g>
     <g id="text_13">
      <!-- 3 -->
      <g transform="translate(10.8125 173.581552)scale(0.1 -0.1)">
       <use xlink:href="#DejaVuSans-33"/>
      </g>
     </g>
    </g>
    <g id="ytick_4">
     <g id="line2d_14">
      <g>
       <use xlink:href="#m8904d4da3c" x="24.175" y="136.715189" style="stroke: #000000; stroke-width: 0.8"/>
      </g>
     </g>
     <g id="text_14">
      <!-- 4 -->
      <g transform="translate(10.8125 140.514408)scale(0.1 -0.1)">
       <defs>
        <path id="DejaVuSans-34" d="M 2419 4116 
L 825 1625 
L 2419 1625 
L 2419 4116 
z
M 2253 4666 
L 3047 4666 
L 3047 1625 
L 3713 1625 
L 3713 1100 
L 3047 1100 
L 3047 0 
L 2419 0 
L 2419 1100 
L 313 1100 
L 313 1709 
L 2253 4666 
z
" transform="scale(0.015625)"/>
       </defs>
       <use xlink:href="#DejaVuSans-34"/>
      </g>
     </g>
    </g>
    <g id="ytick_5">
     <g id="line2d_15">
      <g>
       <use xlink:href="#m8904d4da3c" x="24.175" y="103.648044" style="stroke: #000000; stroke-width: 0.8"/>
      </g>
     </g>
     <g id="text_15">
      <!-- 5 -->
      <g transform="translate(10.8125 107.447263)scale(0.1 -0.1)">
       <use xlink:href="#DejaVuSans-35"/>
      </g>
     </g>
    </g>
    <g id="ytick_6">
     <g id="line2d_16">
      <g>
       <use xlink:href="#m8904d4da3c" x="24.175" y="70.5809" style="stroke: #000000; stroke-width: 0.8"/>
      </g>
     </g>
     <g id="text_16">
      <!-- 6 -->
      <g transform="translate(10.8125 74.380118)scale(0.1 -0.1)">
       <defs>
        <path id="DejaVuSans-36" d="M 2113 2584 
Q 1688 2584 1439 2293 
Q 1191 2003 1191 1497 
Q 1191 994 1439 701 
Q 1688 409 2113 409 
Q 2538 409 2786 701 
Q 3034 994 3034 1497 
Q 3034 2003 2786 2293 
Q 2538 2584 2113 2584 
z
M 3366 4563 
L 3366 3988 
Q 3128 4100 2886 4159 
Q 2644 4219 2406 4219 
Q 1781 4219 1451 3797 
Q 1122 3375 1075 2522 
Q 1259 2794 1537 2939 
Q 1816 3084 2150 3084 
Q 2853 3084 3261 2657 
Q 3669 2231 3669 1497 
Q 3669 778 3244 343 
Q 2819 -91 2113 -91 
Q 1303 -91 875 529 
Q 447 1150 447 2328 
Q 447 3434 972 4092 
Q 1497 4750 2381 4750 
Q 2619 4750 2861 4703 
Q 3103 4656 3366 4563 
z
" transform="scale(0.015625)"/>
       </defs>
       <use xlink:href="#DejaVuSans-36"/>
      </g>
     </g>
    </g>
    <g id="ytick_7">
     <g id="line2d_17">
      <g>
       <use xlink:href="#m8904d4da3c" x="24.175" y="37.513755" style="stroke: #000000; stroke-width: 0.8"/>
      </g>
     </g>
     <g id="text_17">
      <!-- 7 -->
      <g transform="translate(10.8125 41.312974)scale(0.1 -0.1)">
       <defs>
        <path id="DejaVuSans-37" d="M 525 4666 
L 3525 4666 
L 3525 4397 
L 1831 0 
L 1172 0 
L 2766 4134 
L 525 4134 
L 525 4666 
z
" transform="scale(0.015625)"/>
       </defs>
       <use xlink:href="#DejaVuSans-37"/>
      </g>
     </g>
    </g>
   </g>
   <g id="line2d_18">
    <path d="M 42.221591 137.04586 
L 42.550908 137.04586 
L 42.880226 89.429172 
L 43.209543 91.082529 
L 43.53886 90.090515 
L 43.868178 85.791786 
L 44.197495 83.477086 
L 44.526812 83.477086 
L 44.85613 83.477086 
L 45.185447 79.178357 
L 45.514764 82.815743 
L 45.844082 84.138429 
L 46.173399 84.4691 
L 46.502716 85.130443 
L 46.832034 85.130443 
L 47.161351 85.130443 
L 47.490669 85.130443 
L 47.819986 76.202314 
L 48.149303 88.106486 
L 48.478621 89.098501 
L 48.807938 91.743872 
L 49.137255 91.743872 
L 49.466573 91.743872 
L 49.79589 86.122458 
L 50.125207 88.437158 
L 50.454525 86.453129 
L 50.783842 83.477086 
L 51.113159 84.4691 
L 51.442477 84.4691 
L 51.771794 84.4691 
L 52.101111 74.879628 
L 52.430429 77.525 
L 52.759746 82.485072 
L 53.089064 80.170372 
L 53.418381 80.501043 
L 53.747698 80.501043 
L 54.077016 80.501043 
L 54.406333 78.517014 
L 54.73565 81.493057 
L 55.064968 78.517014 
L 55.394285 77.525 
L 55.723602 80.170372 
L 56.05292 80.170372 
L 56.382237 80.170372 
L 56.711554 77.525 
L 57.040872 75.540971 
L 57.370189 81.493057 
L 57.699506 81.823729 
L 58.028824 80.501043 
L 58.358141 80.501043 
L 58.687459 80.501043 
L 59.016776 80.501043 
L 59.346093 76.863657 
L 59.675411 78.186343 
L 60.004728 78.517014 
L 60.334045 79.509029 
L 60.663363 79.509029 
L 60.99268 79.509029 
L 61.321997 76.863657 
L 61.651315 75.540971 
L 61.980632 77.855671 
L 62.309949 78.517014 
L 62.639267 79.8397 
L 62.968584 79.8397 
L 63.297901 79.8397 
L 63.627219 79.509029 
L 63.956536 81.162386 
L 64.285854 78.186343 
L 64.615171 77.525 
L 64.944488 78.847686 
L 65.273806 78.847686 
L 65.603123 78.847686 
L 65.93244 76.863657 
L 66.261758 77.194329 
L 66.591075 73.887614 
L 66.920392 78.186343 
L 67.24971 78.517014 
L 67.579027 78.517014 
L 67.908344 78.517014 
L 68.237662 76.532986 
L 68.566979 76.863657 
L 68.896296 69.919557 
L 69.225614 69.258214 
L 69.554931 71.242242 
L 69.884249 71.242242 
L 70.213566 71.242242 
L 70.542883 68.266199 
L 70.872201 69.919557 
" clip-path="url(#p6ef2afe411)" style="fill: none; stroke: #000000; stroke-width: 1.5; stroke-linecap: square"/>
   </g>
   <g id="line2d_19">
    <path d="M 71.201518 71.242242 
L 71.530835 66.943514 
L 71.860153 64.959485 
L 72.518787 64.959485 
L 72.848105 65.620828 
L 73.177422 71.242242 
L 73.506739 67.935528 
L 73.836057 68.927542 
L 74.165374 72.234257 
L 74.824009 72.234257 
L 75.153326 68.927542 
L 75.482643 71.572914 
L 75.811961 72.8956 
L 76.141278 71.572914 
L 76.470596 67.935528 
L 77.12923 67.935528 
L 77.458548 64.628814 
L 77.787865 72.8956 
L 78.117182 72.8956 
L 78.4465 68.927542 
L 78.775817 72.564928 
L 79.434452 72.564928 
L 79.763769 73.887614 
L 80.093086 70.911571 
L 80.422404 70.5809 
L 80.751721 70.5809 
L 81.081038 68.596871 
L 81.739673 68.596871 
L 82.068991 64.959485 
L 82.398308 68.927542 
L 83.056943 68.927542 
L 83.38626 72.564928 
L 84.044895 72.564928 
L 84.374212 70.250228 
L 84.703529 73.226271 
L 85.032847 72.234257 
L 85.362164 68.927542 
L 85.691481 66.943514 
L 86.350116 66.943514 
L 86.679433 59.33807 
L 87.008751 66.282171 
L 87.338068 62.314113 
L 87.667386 54.377999 
L 87.996703 53.716656 
L 88.655338 53.716656 
L 88.984655 53.385984 
L 89.313972 55.039342 
L 89.64329 54.70867 
L 89.972607 52.063299 
L 90.301924 57.354042 
L 91.289876 57.354042 
L 91.619194 47.103227 
L 91.948511 43.135169 
L 92.607146 56.031356 
L 93.265781 56.031356 
L 93.595098 53.716656 
L 93.924415 55.039342 
L 94.58305 52.724641 
L 94.912367 55.039342 
L 95.571002 55.039342 
L 95.900319 52.724641 
L 96.229637 55.370013 
L 96.558954 52.724641 
L 96.888271 47.433898 
L 97.217589 55.370013 
L 97.876223 55.370013 
L 98.205541 53.716656 
L 98.864176 55.039342 
L 99.193493 53.385984 
L 99.52281 53.716656 
L 100.181445 53.716656 
L 100.510762 49.748598 
L 101.169397 54.047327 
L 101.498714 45.44987 
L 101.828032 42.143155 
L 102.486666 42.143155 
L 102.815984 36.521741 
L 103.145301 36.521741 
L 103.474618 53.385984 
L 103.803936 53.716656 
L 104.133253 56.692699 
L 104.791888 56.692699 
L 105.121205 53.716656 
L 105.450523 57.684713 
L 105.77984 58.015385 
L 106.109157 54.047327 
L 106.438475 53.716656 
L 107.097109 53.716656 
L 107.426427 51.401956 
L 107.755744 55.039342 
L 108.085061 55.700684 
L 108.414379 53.385984 
L 108.743696 53.716656 
L 109.402331 53.716656 
L 109.731648 53.385984 
L 110.060965 55.370013 
L 110.7196 53.385984 
L 111.048918 56.031356 
L 111.707552 56.031356 
L 112.03687 49.417927 
L 112.695504 56.692699 
L 113.024822 55.700684 
L 113.354139 56.031356 
L 114.012774 56.031356 
L 114.342091 55.370013 
L 114.671408 56.031356 
L 115.330043 53.385984 
L 115.65936 54.047327 
L 116.317995 54.047327 
L 116.647313 51.401956 
L 116.97663 49.748598 
L 117.305947 54.70867 
L 117.635265 55.039342 
L 117.964582 56.031356 
L 118.623217 56.031356 
L 118.952534 54.70867 
L 119.281851 56.692699 
L 119.940486 52.063299 
L 120.269803 52.724641 
L 120.928438 52.724641 
L 121.257755 51.732627 
L 121.587073 53.716656 
L 121.91639 53.716656 
L 122.245708 49.087256 
L 122.575025 53.385984 
L 123.562977 53.385984 
L 123.892294 50.409941 
L 124.221612 52.063299 
L 124.880246 54.047327 
L 125.868198 54.047327 
L 126.197516 55.039342 
L 126.526833 55.039342 
L 126.85615 54.047327 
L 127.185468 52.39397 
L 127.844103 52.39397 
L 128.17342 56.031356 
L 128.502737 57.354042 
L 128.832055 54.047327 
L 129.161372 53.055313 
L 129.490689 54.70867 
L 130.149324 54.70867 
L 130.478641 52.724641 
L 130.807959 54.047327 
L 131.137276 54.047327 
L 131.466593 51.071284 
L 131.795911 50.740613 
L 132.454545 50.740613 
L 132.783863 48.095241 
L 133.11318 55.370013 
L 133.442498 53.716656 
L 133.771815 52.724641 
L 134.101132 56.362027 
L 135.089084 56.362027 
L 135.418402 51.732627 
L 135.747719 55.370013 
L 136.077036 55.039342 
L 136.406354 55.370013 
L 137.064988 55.370013 
L 137.394306 51.071284 
L 137.723623 55.700684 
L 138.05294 53.055313 
L 138.382258 52.724641 
L 138.711575 54.047327 
L 139.37021 54.047327 
L 139.699527 53.055313 
L 140.028845 54.377999 
L 140.358162 53.055313 
L 140.687479 53.055313 
L 141.016797 53.716656 
L 141.675431 53.716656 
L 142.004749 51.071284 
L 142.334066 51.071284 
L 142.663383 50.409941 
L 143.322018 54.70867 
L 143.980653 54.70867 
L 144.30997 54.377999 
L 144.639287 54.70867 
L 144.968605 53.716656 
L 145.297922 53.385984 
L 145.62724 54.70867 
L 146.285874 54.70867 
L 146.615192 52.39397 
L 146.944509 53.385984 
L 147.273826 50.409941 
L 147.932461 54.70867 
L 148.591096 54.70867 
L 148.920413 53.385984 
L 149.24973 54.047327 
L 149.579048 51.401956 
L 149.908365 51.401956 
L 150.237682 54.377999 
L 150.896317 54.377999 
L 151.225635 54.047327 
L 151.554952 55.370013 
L 151.884269 54.047327 
L 152.213587 50.07927 
L 152.542904 50.740613 
L 153.201539 50.740613 
L 153.530856 51.732627 
L 153.860173 53.716656 
L 154.189491 54.70867 
L 154.518808 54.377999 
L 154.848125 55.039342 
L 155.50676 55.039342 
L 155.836077 54.377999 
L 156.165395 56.362027 
L 156.494712 55.039342 
L 157.153347 51.401956 
L 157.811982 51.401956 
L 158.141299 54.047327 
L 158.470616 55.039342 
L 158.799934 55.039342 
L 159.129251 54.70867 
L 159.458568 56.031356 
L 160.44652 56.031356 
L 160.775838 51.401956 
L 161.105155 53.055313 
L 161.434472 53.055313 
L 161.76379 90.090515 
L 162.751742 90.090515 
L 163.081059 48.425913 
L 163.410377 59.007399 
L 163.739694 73.226271 
L 164.069011 76.202314 
L 164.727646 76.202314 
L 165.056963 71.242242 
L 165.386281 72.234257 
L 165.715598 68.596871 
L 166.044915 68.927542 
L 166.374233 71.242242 
L 167.362185 71.242242 
L 167.691502 63.967471 
L 168.02082 72.564928 
L 168.679454 73.226271 
L 169.338089 73.226271 
L 169.667406 70.5809 
L 169.996724 71.572914 
L 170.326041 68.927542 
L 170.655358 67.274185 
L 170.984676 71.903585 
L 171.64331 71.903585 
L 171.972628 71.242242 
L 172.301945 73.887614 
L 172.96058 84.799772 
L 173.289897 87.114472 
L 173.948532 87.114472 
L 174.277849 86.453129 
L 174.607167 87.775815 
L 174.936484 87.114472 
L 175.265801 87.114472 
L 175.595119 89.098501 
L 176.253753 89.098501 
L 176.583071 87.775815 
L 176.912388 88.437158 
L 177.241705 87.114472 
L 177.571023 84.799772 
L 177.90034 88.437158 
L 178.888292 88.437158 
L 179.217609 84.799772 
L 179.546927 87.114472 
L 179.876244 86.453129 
L 180.205562 88.437158 
L 180.864196 88.437158 
L 181.193514 85.461115 
L 181.522831 87.445143 
L 181.852148 84.138429 
L 182.181466 84.138429 
L 182.510783 86.453129 
L 183.498735 86.453129 
L 183.828052 90.751858 
L 184.15737 92.405215 
L 184.486687 88.437158 
L 184.816004 89.759843 
L 185.474639 89.759843 
L 185.803957 87.114472 
L 186.133274 87.114472 
L 186.462591 87.775815 
L 186.791909 86.453129 
L 187.121226 90.421186 
L 187.779861 90.421186 
L 188.109178 91.082529 
L 188.438495 99.018644 
L 188.767813 101.994687 
L 189.09713 102.325358 
L 189.426447 105.632073 
L 190.085082 105.632073 
L 190.414399 102.65603 
L 191.073034 101.994687 
L 191.731669 94.058572 
L 192.390304 94.058572 
L 192.719621 93.727901 
L 193.048938 100.34133 
L 193.378256 103.317373 
L 193.707573 102.325358 
L 194.03689 105.632073 
L 194.695525 105.632073 
L 195.024842 104.309387 
L 195.35416 104.97073 
L 195.683477 105.301402 
L 196.012794 102.986701 
L 196.342112 103.317373 
L 197.000747 103.317373 
L 197.330064 98.02663 
L 197.659381 103.978716 
L 197.988699 114.560202 
L 198.318016 121.173631 
L 198.647333 124.149674 
L 199.305968 124.149674 
L 199.635285 123.488331 
L 199.964603 123.15766 
L 200.29392 118.858931 
L 200.623237 117.866916 
L 200.952555 119.850945 
L 201.611189 119.850945 
L 201.940507 114.560202 
L 202.269824 116.544231 
L 202.599142 125.141688 
L 202.928459 120.84296 
L 203.257776 123.15766 
L 203.916411 123.15766 
L 204.245728 121.173631 
L 204.575046 123.15766 
L 204.904363 122.496317 
L 205.23368 119.850945 
L 205.562998 121.173631 
L 206.221632 121.173631 
L 206.55095 122.496317 
L 207.209584 135.392503 
L 207.538902 135.392503 
L 207.868219 138.368546 
L 208.526854 138.368546 
L 208.856171 136.053846 
L 209.514806 137.707203 
L 209.844123 137.376532 
L 210.173441 138.699218 
L 211.161393 138.699218 
L 211.49071 133.739146 
L 211.820027 135.061832 
L 212.149345 128.779074 
L 212.478662 132.085789 
L 213.137297 132.085789 
L 213.795931 139.029889 
L 214.125249 139.691232 
L 214.454566 139.360561 
L 214.783884 136.053846 
L 215.442518 136.053846 
L 215.771836 135.723175 
L 216.101153 137.376532 
L 216.43047 135.392503 
L 216.759788 135.723175 
L 217.089105 138.699218 
L 217.74774 138.699218 
L 218.077057 139.691232 
L 218.406374 139.691232 
L 218.735692 137.376532 
L 219.065009 136.053846 
L 219.394326 137.376532 
L 220.052961 137.376532 
L 220.382279 137.707203 
L 220.711596 144.981975 
L 221.040913 147.296675 
L 221.370231 141.344589 
L 221.699548 138.368546 
L 222.358183 138.368546 
L 222.6875 133.077803 
L 223.016817 146.966004 
L 223.346135 146.966004 
L 223.675452 145.973989 
L 224.004769 149.942047 
L 224.663404 149.942047 
L 224.992721 147.627347 
L 225.322039 146.304661 
L 225.651356 143.989961 
L 225.980674 143.989961 
L 226.309991 144.981975 
L 226.968626 144.981975 
L 227.297943 142.667275 
L 227.62726 146.304661 
L 227.956578 145.643318 
L 228.615212 143.328618 
L 229.273847 143.328618 
L 229.603164 142.667275 
L 229.932482 142.667275 
L 230.261799 140.352575 
L 230.591116 141.013918 
L 230.920434 144.981975 
L 231.579069 144.981975 
L 232.237703 142.667275 
L 232.567021 143.659289 
L 232.896338 147.296675 
L 233.225655 146.966004 
L 233.88429 146.966004 
L 234.213607 145.643318 
L 234.542925 146.966004 
L 234.872242 144.981975 
L 235.201559 144.320632 
L 235.530877 146.635332 
L 236.189511 146.635332 
L 236.518829 143.659289 
L 236.848146 144.651304 
L 237.177464 142.336604 
L 237.836098 147.958018 
L 238.494733 147.958018 
L 238.82405 148.619361 
L 239.153368 152.256747 
L 239.482685 152.91809 
L 239.812002 151.595404 
L 240.14132 152.91809 
L 240.799954 152.91809 
L 241.129272 151.926076 
L 241.458589 153.248761 
L 241.787906 153.248761 
L 242.446541 147.958018 
L 243.434493 147.958018 
L 243.763811 147.627347 
L 244.093128 153.579433 
L 244.422445 152.587418 
L 244.751763 155.23279 
L 245.410397 155.23279 
L 245.739715 153.248761 
L 246.069032 153.248761 
L 246.398349 151.264733 
L 247.056984 165.483605 
L 247.715619 165.483605 
L 248.374253 227.649837 
L 248.703571 229.633866 
L 249.362206 166.144948 
L 250.02084 166.144948 
L 250.350158 159.531519 
L 251.008792 171.105019 
L 251.33811 167.136962 
L 251.667427 178.04912 
L 252.326062 178.04912 
L 252.655379 169.120991 
L 252.984696 191.275978 
L 253.314014 193.921349 
L 253.643331 187.969263 
L 253.972648 188.961278 
L 254.960601 188.961278 
L 255.289918 186.315906 
L 255.619235 188.961278 
L 255.948553 188.961278 
L 256.27787 189.953292 
L 256.936505 189.953292 
L 257.265822 185.985235 
L 257.595139 187.30792 
L 257.924457 185.985235 
L 258.253774 186.315906 
L 258.583091 187.30792 
L 259.241726 187.30792 
L 259.571043 185.654563 
L 259.900361 186.977249 
L 260.229678 185.323892 
L 260.558996 184.99322 
L 260.888313 185.985235 
L 261.546948 185.985235 
L 261.876265 184.662549 
L 262.205582 184.662549 
L 262.5349 181.025163 
L 262.864217 182.67852 
L 263.193534 188.630606 
L 263.852169 188.630606 
L 264.181486 187.969263 
L 264.510804 198.55075 
L 264.840121 201.526793 
L 265.169438 201.857464 
L 265.498756 203.510821 
L 266.486708 203.510821 
L 266.816025 199.542764 
L 267.47466 195.574707 
L 267.803977 203.510821 
L 268.462612 203.510821 
L 268.791929 202.518807 
L 269.450564 205.164178 
L 269.779881 205.164178 
L 270.109199 206.817536 
L 270.767833 206.817536 
L 271.097151 201.526793 
L 271.426468 202.518807 
L 271.755786 201.526793 
L 272.085103 199.873435 
L 272.41442 200.86545 
L 273.073055 200.86545 
L 273.402372 201.196121 
L 273.73169 205.164178 
L 274.061007 206.486864 
L 274.390324 207.148207 
L 274.719642 205.49485 
L 275.378276 205.49485 
L 275.707594 206.156193 
L 276.036911 209.462907 
L 276.366228 209.132236 
L 276.695546 207.478879 
L 277.024863 206.817536 
L 277.683498 206.817536 
L 278.012815 205.164178 
L 278.342133 212.43895 
L 278.67145 212.43895 
L 279.000767 209.793579 
L 279.330085 210.12425 
L 279.988719 210.12425 
L 280.318037 213.430965 
L 280.647354 213.430965 
L 280.976671 206.486864 
L 281.305989 207.80955 
L 281.635306 218.060365 
L 282.293941 218.060365 
L 282.623258 218.721708 
L 282.952575 218.721708 
L 283.281893 205.49485 
L 283.61121 212.108279 
L 283.940528 215.745665 
L 285.257797 215.745665 
L 285.587114 211.446936 
L 285.916432 209.132236 
L 286.245749 212.43895 
L 286.904384 212.43895 
L 287.233701 210.12425 
L 287.563018 211.116265 
L 287.892336 213.100293 
L 288.221653 213.430965 
L 288.55097 212.43895 
L 289.538923 212.43895 
L 289.86824 208.140222 
L 290.197557 209.132236 
L 290.526875 209.462907 
L 290.856192 210.12425 
L 291.514827 210.12425 
L 291.844144 209.793579 
L 292.173461 210.12425 
L 292.502779 210.12425 
L 292.832096 207.80955 
L 293.161413 210.454922 
L 293.820048 210.454922 
L 294.149365 211.446936 
L 294.478683 214.75365 
L 294.808 214.092308 
L 295.137318 211.446936 
L 295.466635 213.100293 
L 296.12527 213.100293 
L 296.454587 210.785593 
L 296.783904 212.108279 
L 297.113222 211.116265 
L 297.442539 209.132236 
L 297.771856 211.777607 
L 298.759808 211.777607 
L 299.089126 210.454922 
L 299.418443 210.785593 
L 299.74776 210.454922 
L 300.077078 212.43895 
L 300.735713 212.43895 
L 301.06503 209.462907 
L 301.394347 210.454922 
L 301.723665 210.785593 
L 302.052982 208.470893 
L 302.382299 210.12425 
L 303.040934 210.12425 
L 303.370251 213.430965 
L 303.699569 215.084322 
L 304.358203 210.454922 
L 304.687521 213.100293 
L 305.346155 213.100293 
L 305.675473 211.116265 
L 306.00479 213.430965 
L 306.663425 209.793579 
L 306.992742 209.462907 
L 307.651377 209.462907 
L 307.980694 212.43895 
L 308.310012 213.761636 
L 308.639329 210.12425 
L 308.968646 211.446936 
L 309.297964 213.430965 
L 309.956598 213.430965 
L 310.285916 211.116265 
L 310.615233 212.43895 
L 310.94455 213.100293 
L 311.273868 210.454922 
L 311.603185 211.446936 
L 312.26182 211.446936 
L 312.591137 206.817536 
L 312.920455 211.446936 
L 313.249772 209.132236 
L 313.579089 211.446936 
L 313.908407 212.769622 
L 314.567041 212.769622 
L 314.896359 212.108279 
L 315.225676 213.430965 
L 315.554993 211.777607 
L 315.884311 208.470893 
L 316.213628 209.793579 
L 316.872263 209.793579 
L 317.20158 208.140222 
L 317.530897 213.430965 
L 317.860215 211.777607 
L 318.189532 212.43895 
L 318.51885 213.761636 
L 319.177484 213.761636 
L 319.506802 211.777607 
L 319.836119 212.43895 
L 320.494754 208.801564 
L 320.824071 209.793579 
L 321.482706 209.793579 
L 321.812023 209.132236 
L 322.14134 208.801564 
L 322.470658 206.817536 
L 323.129292 211.777607 
L 323.787927 211.777607 
L 324.117245 211.116265 
L 324.446562 212.108279 
L 324.775879 212.43895 
L 325.105197 211.446936 
L 326.093149 211.446936 
L 326.422466 211.116265 
L 326.751783 213.100293 
L 327.081101 208.140222 
L 327.739735 212.769622 
L 328.39837 212.769622 
L 328.727687 212.108279 
L 329.057005 213.430965 
L 329.386322 211.777607 
L 329.71564 210.785593 
L 330.044957 211.116265 
L 331.032909 211.116265 
L 331.362226 206.817536 
L 331.691544 209.793579 
L 332.020861 209.462907 
L 332.350178 209.793579 
L 333.008813 209.793579 
L 333.33813 208.470893 
L 333.667448 211.777607 
L 333.996765 212.769622 
L 334.326082 211.116265 
L 334.6554 211.777607 
L 335.314035 211.777607 
L 335.643352 210.785593 
L 335.972669 212.108279 
L 336.301987 211.116265 
L 336.631304 210.785593 
L 336.960621 211.116265 
L 337.619256 211.116265 
L 337.948573 208.801564 
L 338.277891 212.43895 
L 338.607208 213.100293 
L 338.936525 211.116265 
L 339.265843 211.446936 
L 339.924477 211.446936 
L 340.253795 210.454922 
L 340.583112 211.116265 
L 341.241747 209.132236 
L 341.571064 211.777607 
L 342.229699 211.777607 
L 342.559016 208.470893 
L 342.888334 212.108279 
L 343.217651 212.43895 
L 343.546968 212.43895 
L 343.876286 212.108279 
L 344.53492 212.108279 
L 344.864238 211.116265 
L 345.193555 212.108279 
L 345.85219 210.785593 
L 346.181507 212.43895 
L 346.840142 212.43895 
L 347.169459 208.470893 
L 347.498777 212.108279 
L 347.828094 212.43895 
L 348.157411 211.446936 
L 348.486729 212.108279 
L 349.145363 212.108279 
L 349.474681 210.454922 
L 349.803998 211.777607 
L 350.133315 213.761636 
L 350.462633 211.116265 
L 350.79195 213.100293 
L 351.450585 213.100293 
L 351.779902 211.116265 
L 352.109219 212.43895 
L 352.438537 210.785593 
L 352.767854 209.793579 
L 353.097172 212.108279 
L 353.755806 212.108279 
L 354.085124 210.454922 
L 354.743758 212.43895 
L 355.073076 212.43895 
L 355.402393 213.430965 
L 356.061028 213.430965 
L 356.390345 210.785593 
L 356.719662 211.446936 
L 357.04898 210.12425 
L 357.378297 207.148207 
L 357.707614 212.769622 
L 358.366249 212.769622 
L 358.695567 212.108279 
L 359.024884 212.769622 
L 359.354201 212.108279 
L 359.683519 211.777607 
L 360.012836 212.108279 
L 360.671471 212.108279 
L 361.000788 209.132236 
L 361.330105 209.793579 
L 361.659423 209.462907 
L 361.98874 208.801564 
L 362.318057 209.132236 
L 363.306009 209.132236 
L 363.635327 207.148207 
L 363.964644 211.446936 
L 364.293962 211.116265 
L 364.623279 212.43895 
L 365.281914 212.43895 
L 365.611231 210.785593 
L 366.269866 212.108279 
L 366.599183 211.446936 
L 366.9285 212.108279 
L 367.587135 212.108279 
L 367.916452 208.470893 
L 368.24577 212.108279 
L 368.575087 213.430965 
L 369.233722 212.769622 
L 369.892357 212.769622 
L 370.221674 211.446936 
L 370.550991 211.116265 
L 370.880309 209.793579 
L 371.209626 209.462907 
L 371.538943 210.12425 
L 372.197578 210.12425 
L 372.526895 207.80955 
L 372.856213 207.80955 
L 373.18553 211.116265 
L 373.514847 210.785593 
L 373.844165 212.108279 
L 374.502799 212.108279 
L 374.832117 211.446936 
L 375.161434 212.108279 
L 375.490751 211.777607 
L 375.820069 211.116265 
L 376.149386 211.777607 
L 377.137338 211.777607 
L 377.466656 206.817536 
L 377.795973 211.777607 
L 378.12529 211.446936 
L 378.454608 212.43895 
L 379.113242 212.43895 
L 379.44256 211.777607 
L 379.771877 212.43895 
L 380.430512 209.462907 
L 380.759829 208.801564 
L 381.418464 208.801564 
L 382.406416 212.108279 
L 382.735733 208.801564 
L 383.065051 211.446936 
L 383.723685 211.446936 
L 384.053003 212.43895 
L 384.38232 214.75365 
L 385.370272 229.964537 
L 386.358224 229.964537 
L 386.687541 226.327151 
L 387.016859 230.295208 
L 387.346176 226.327151 
L 387.675494 224.343122 
L 388.334128 224.343122 
L 388.663446 228.972523 
L 388.992763 229.303194 
L 389.651398 226.988494 
L 389.980715 227.649837 
L 390.63935 227.649837 
L 390.968667 225.335137 
L 391.297984 227.319165 
L 391.627302 226.988494 
L 391.956619 226.988494 
L 392.285936 228.31118 
L 392.944571 228.31118 
L 393.273889 226.988494 
L 393.603206 227.980508 
L 393.932523 228.31118 
L 394.261841 227.980508 
L 394.591158 228.972523 
L 395.249793 228.972523 
L 395.57911 228.641851 
L 395.908427 228.641851 
L 396.237745 226.327151 
L 396.567062 226.327151 
L 396.896379 227.649837 
L 397.555014 227.649837 
L 397.884331 224.012451 
L 398.213649 227.319165 
L 398.542966 227.649837 
L 398.872284 226.657823 
L 399.201601 227.319165 
L 399.860236 227.319165 
L 400.189553 226.657823 
L 400.51887 230.956551 
L 400.848188 230.956551 
L 401.177505 226.657823 
L 401.506822 229.303194 
L 402.165457 229.303194 
L 402.494774 228.31118 
L 402.824092 230.62588 
L 403.153409 230.62588 
L 403.153409 230.62588 
" clip-path="url(#p6ef2afe411)" style="fill: none; stroke: #d3d3d3; stroke-width: 1.5; stroke-linecap: square"/>
   </g>
   <g id="patch_3">
    <path d="M 24.175 240.678292 
L 24.175 26.8 
" style="fill: none; stroke: #000000; stroke-width: 0.8; stroke-linejoin: miter; stroke-linecap: square"/>
   </g>
   <g id="patch_4">
    <path d="M 421.2 240.678292 
L 421.2 26.8 
" style="fill: none; stroke: #000000; stroke-width: 0.8; stroke-linejoin: miter; stroke-linecap: square"/>
   </g>
   <g id="patch_5">
    <path d="M 24.175 240.678292 
L 421.2 240.678292 
" style="fill: none; stroke: #000000; stroke-width: 0.8; stroke-linejoin: miter; stroke-linecap: square"/>
   </g>
   <g id="patch_6">
    <path d="M 24.175 26.8 
L 421.2 26.8 
" style="fill: none; stroke: #000000; stroke-width: 0.8; stroke-linejoin: miter; stroke-linecap: square"/>
   </g>
   <g id="text_18">
    <!-- FF Effective Rate -->
    <g transform="translate(171.948125 20.8)scale(0.12 -0.12)">
     <defs>
      <path id="DejaVuSans-46" d="M 628 4666 
L 3309 4666 
L 3309 4134 
L 1259 4134 
L 1259 2759 
L 3109 2759 
L 3109 2228 
L 1259 2228 
L 1259 0 
L 628 0 
L 628 4666 
z
" transform="scale(0.015625)"/>
      <path id="DejaVuSans-20" transform="scale(0.015625)"/>
      <path id="DejaVuSans-45" d="M 628 4666 
L 3578 4666 
L 3578 4134 
L 1259 4134 
L 1259 2753 
L 3481 2753 
L 3481 2222 
L 1259 2222 
L 1259 531 
L 3634 531 
L 3634 0 
L 628 0 
L 628 4666 
z
" transform="scale(0.015625)"/>
      <path id="DejaVuSans-66" d="M 2375 4863 
L 2375 4384 
L 1825 4384 
Q 1516 4384 1395 4259 
Q 1275 4134 1275 3809 
L 1275 3500 
L 2222 3500 
L 2222 3053 
L 1275 3053 
L 1275 0 
L 697 0 
L 697 3053 
L 147 3053 
L 147 3500 
L 697 3500 
L 697 3744 
Q 697 4328 969 4595 
Q 1241 4863 1831 4863 
L 2375 4863 
z
" transform="scale(0.015625)"/>
      <path id="DejaVuSans-65" d="M 3597 1894 
L 3597 1613 
L 953 1613 
Q 991 1019 1311 708 
Q 1631 397 2203 397 
Q 2534 397 2845 478 
Q 3156 559 3463 722 
L 3463 178 
Q 3153 47 2828 -22 
Q 2503 -91 2169 -91 
Q 1331 -91 842 396 
Q 353 884 353 1716 
Q 353 2575 817 3079 
Q 1281 3584 2069 3584 
Q 2775 3584 3186 3129 
Q 3597 2675 3597 1894 
z
M 3022 2063 
Q 3016 2534 2758 2815 
Q 2500 3097 2075 3097 
Q 1594 3097 1305 2825 
Q 1016 2553 972 2059 
L 3022 2063 
z
" transform="scale(0.015625)"/>
      <path id="DejaVuSans-63" d="M 3122 3366 
L 3122 2828 
Q 2878 2963 2633 3030 
Q 2388 3097 2138 3097 
Q 1578 3097 1268 2742 
Q 959 2388 959 1747 
Q 959 1106 1268 751 
Q 1578 397 2138 397 
Q 2388 397 2633 464 
Q 2878 531 3122 666 
L 3122 134 
Q 2881 22 2623 -34 
Q 2366 -91 2075 -91 
Q 1284 -91 818 406 
Q 353 903 353 1747 
Q 353 2603 823 3093 
Q 1294 3584 2113 3584 
Q 2378 3584 2631 3529 
Q 2884 3475 3122 3366 
z
" transform="scale(0.015625)"/>
      <path id="DejaVuSans-74" d="M 1172 4494 
L 1172 3500 
L 2356 3500 
L 2356 3053 
L 1172 3053 
L 1172 1153 
Q 1172 725 1289 603 
Q 1406 481 1766 481 
L 2356 481 
L 2356 0 
L 1766 0 
Q 1100 0 847 248 
Q 594 497 594 1153 
L 594 3053 
L 172 3053 
L 172 3500 
L 594 3500 
L 594 4494 
L 1172 4494 
z
" transform="scale(0.015625)"/>
      <path id="DejaVuSans-69" d="M 603 3500 
L 1178 3500 
L 1178 0 
L 603 0 
L 603 3500 
z
M 603 4863 
L 1178 4863 
L 1178 4134 
L 603 4134 
L 603 4863 
z
" transform="scale(0.015625)"/>
      <path id="DejaVuSans-76" d="M 191 3500 
L 800 3500 
L 1894 563 
L 2988 3500 
L 3597 3500 
L 2284 0 
L 1503 0 
L 191 3500 
z
" transform="scale(0.015625)"/>
      <path id="DejaVuSans-52" d="M 2841 2188 
Q 3044 2119 3236 1894 
Q 3428 1669 3622 1275 
L 4263 0 
L 3584 0 
L 2988 1197 
Q 2756 1666 2539 1819 
Q 2322 1972 1947 1972 
L 1259 1972 
L 1259 0 
L 628 0 
L 628 4666 
L 2053 4666 
Q 2853 4666 3247 4331 
Q 3641 3997 3641 3322 
Q 3641 2881 3436 2590 
Q 3231 2300 2841 2188 
z
M 1259 4147 
L 1259 2491 
L 2053 2491 
Q 2509 2491 2742 2702 
Q 2975 2913 2975 3322 
Q 2975 3731 2742 3939 
Q 2509 4147 2053 4147 
L 1259 4147 
z
" transform="scale(0.015625)"/>
      <path id="DejaVuSans-61" d="M 2194 1759 
Q 1497 1759 1228 1600 
Q 959 1441 959 1056 
Q 959 750 1161 570 
Q 1363 391 1709 391 
Q 2188 391 2477 730 
Q 2766 1069 2766 1631 
L 2766 1759 
L 2194 1759 
z
M 3341 1997 
L 3341 0 
L 2766 0 
L 2766 531 
Q 2569 213 2275 61 
Q 1981 -91 1556 -91 
Q 1019 -91 701 211 
Q 384 513 384 1019 
Q 384 1609 779 1909 
Q 1175 2209 1959 2209 
L 2766 2209 
L 2766 2266 
Q 2766 2663 2505 2880 
Q 2244 3097 1772 3097 
Q 1472 3097 1187 3025 
Q 903 2953 641 2809 
L 641 3341 
Q 956 3463 1253 3523 
Q 1550 3584 1831 3584 
Q 2591 3584 2966 3190 
Q 3341 2797 3341 1997 
z
" transform="scale(0.015625)"/>
     </defs>
     <use xlink:href="#DejaVuSans-46"/>
     <use xlink:href="#DejaVuSans-46" x="57.519531"/>
     <use xlink:href="#DejaVuSans-20" x="115.039062"/>
     <use xlink:href="#DejaVuSans-45" x="146.826172"/>
     <use xlink:href="#DejaVuSans-66" x="210.009766"/>
     <use xlink:href="#DejaVuSans-66" x="245.214844"/>
     <use xlink:href="#DejaVuSans-65" x="280.419922"/>
     <use xlink:href="#DejaVuSans-63" x="341.943359"/>
     <use xlink:href="#DejaVuSans-74" x="396.923828"/>
     <use xlink:href="#DejaVuSans-69" x="436.132812"/>
     <use xlink:href="#DejaVuSans-76" x="463.916016"/>
     <use xlink:href="#DejaVuSans-65" x="523.095703"/>
     <use xlink:href="#DejaVuSans-20" x="584.619141"/>
     <use xlink:href="#DejaVuSans-52" x="616.40625"/>
     <use xlink:href="#DejaVuSans-61" x="683.638672"/>
     <use xlink:href="#DejaVuSans-74" x="744.917969"/>
     <use xlink:href="#DejaVuSans-65" x="784.126953"/>
    </g>
   </g>
  </g>
 </g>
 <defs>
  <clipPath id="p6ef2afe411">
   <rect x="24.175" y="26.8" width="397.025" height="213.878292"/>
  </clipPath>
 </defs>
</svg>
