<?xml version="1.0" encoding="utf-8" standalone="no"?>
<!DOCTYPE svg PUBLIC "-//W3C//DTD SVG 1.1//EN"
  "http://www.w3.org/Graphics/SVG/1.1/DTD/svg11.dtd">
<svg xmlns:xlink="http://www.w3.org/1999/xlink" width="432pt" height="288pt" viewBox="0 0 432 288" xmlns="http://www.w3.org/2000/svg" version="1.1">
 <metadata>
  <rdf:RDF xmlns:dc="http://purl.org/dc/elements/1.1/" xmlns:cc="http://creativecommons.org/ns#" xmlns:rdf="http://www.w3.org/1999/02/22-rdf-syntax-ns#">
   <cc:Work>
    <dc:type rdf:resource="http://purl.org/dc/dcmitype/StillImage"/>
    <dc:date>2022-08-13T16:45:16.114431</dc:date>
    <dc:format>image/svg+xml</dc:format>
    <dc:creator>
     <cc:Agent>
      <dc:title>Matplotlib v3.5.2, https://matplotlib.org/</dc:title>
     </cc:Agent>
    </dc:creator>
   </cc:Work>
  </rdf:RDF>
 </metadata>
 <defs>
  <style type="text/css">*{stroke-linejoin: round; stroke-linecap: butt}</style>
 </defs>
 <g id="figure_1">
  <g id="patch_1">
   <path d="M 0 288 
L 432 288 
L 432 0 
L 0 0 
L 0 288 
z
" style="fill: none"/>
  </g>
  <g id="axes_1">
   <g id="patch_2">
    <path d="M 54 252 
L 388.8 252 
L 388.8 34.56 
L 54 34.56 
z
" style="fill: #ffffff"/>
   </g>
   <g id="matplotlib.axis_1">
    <g id="xtick_1">
     <g id="line2d_1">
      <defs>
       <path id="me7ec152e55" d="M 0 0 
L 0 3.5 
" style="stroke: #000000; stroke-width: 0.8"/>
      </defs>
      <g>
       <use xlink:href="#me7ec152e55" x="69.218182" y="252" style="stroke: #000000; stroke-width: 0.8"/>
      </g>
     </g>
     <g id="text_1">
      <!-- '00-01 -->
      <g transform="translate(59.924147 286.863322)rotate(-45)scale(0.1 -0.1)">
       <defs>
        <path id="DejaVuSans-27" d="M 1147 4666 
L 1147 2931 
L 616 2931 
L 616 4666 
L 1147 4666 
z
" transform="scale(0.015625)"/>
        <path id="DejaVuSans-30" d="M 2034 4250 
Q 1547 4250 1301 3770 
Q 1056 3291 1056 2328 
Q 1056 1369 1301 889 
Q 1547 409 2034 409 
Q 2525 409 2770 889 
Q 3016 1369 3016 2328 
Q 3016 3291 2770 3770 
Q 2525 4250 2034 4250 
z
M 2034 4750 
Q 2819 4750 3233 4129 
Q 3647 3509 3647 2328 
Q 3647 1150 3233 529 
Q 2819 -91 2034 -91 
Q 1250 -91 836 529 
Q 422 1150 422 2328 
Q 422 3509 836 4129 
Q 1250 4750 2034 4750 
z
" transform="scale(0.015625)"/>
        <path id="DejaVuSans-2d" d="M 313 2009 
L 1997 2009 
L 1997 1497 
L 313 1497 
L 313 2009 
z
" transform="scale(0.015625)"/>
        <path id="DejaVuSans-31" d="M 794 531 
L 1825 531 
L 1825 4091 
L 703 3866 
L 703 4441 
L 1819 4666 
L 2450 4666 
L 2450 531 
L 3481 531 
L 3481 0 
L 794 0 
L 794 531 
z
" transform="scale(0.015625)"/>
       </defs>
       <use xlink:href="#DejaVuSans-27"/>
       <use xlink:href="#DejaVuSans-30" x="27.490234"/>
       <use xlink:href="#DejaVuSans-30" x="91.113281"/>
       <use xlink:href="#DejaVuSans-2d" x="154.736328"/>
       <use xlink:href="#DejaVuSans-30" x="190.820312"/>
       <use xlink:href="#DejaVuSans-31" x="254.443359"/>
      </g>
     </g>
    </g>
    <g id="xtick_2">
     <g id="line2d_2">
      <g>
       <use xlink:href="#me7ec152e55" x="102.820372" y="252" style="stroke: #000000; stroke-width: 0.8"/>
      </g>
     </g>
     <g id="text_2">
      <!-- '00-05 -->
      <g transform="translate(93.526337 286.863322)rotate(-45)scale(0.1 -0.1)">
       <defs>
        <path id="DejaVuSans-35" d="M 691 4666 
L 3169 4666 
L 3169 4134 
L 1269 4134 
L 1269 2991 
Q 1406 3038 1543 3061 
Q 1681 3084 1819 3084 
Q 2600 3084 3056 2656 
Q 3513 2228 3513 1497 
Q 3513 744 3044 326 
Q 2575 -91 1722 -91 
Q 1428 -91 1123 -41 
Q 819 9 494 109 
L 494 744 
Q 775 591 1075 516 
Q 1375 441 1709 441 
Q 2250 441 2565 725 
Q 2881 1009 2881 1497 
Q 2881 1984 2565 2268 
Q 2250 2553 1709 2553 
Q 1456 2553 1204 2497 
Q 953 2441 691 2322 
L 691 4666 
z
" transform="scale(0.015625)"/>
       </defs>
       <use xlink:href="#DejaVuSans-27"/>
       <use xlink:href="#DejaVuSans-30" x="27.490234"/>
       <use xlink:href="#DejaVuSans-30" x="91.113281"/>
       <use xlink:href="#DejaVuSans-2d" x="154.736328"/>
       <use xlink:href="#DejaVuSans-30" x="190.820312"/>
       <use xlink:href="#DejaVuSans-35" x="254.443359"/>
      </g>
     </g>
    </g>
    <g id="xtick_3">
     <g id="line2d_3">
      <g>
       <use xlink:href="#me7ec152e55" x="136.977969" y="252" style="stroke: #000000; stroke-width: 0.8"/>
      </g>
     </g>
     <g id="text_3">
      <!-- '00-09 -->
      <g transform="translate(127.683935 286.863322)rotate(-45)scale(0.1 -0.1)">
       <defs>
        <path id="DejaVuSans-39" d="M 703 97 
L 703 672 
Q 941 559 1184 500 
Q 1428 441 1663 441 
Q 2288 441 2617 861 
Q 2947 1281 2994 2138 
Q 2813 1869 2534 1725 
Q 2256 1581 1919 1581 
Q 1219 1581 811 2004 
Q 403 2428 403 3163 
Q 403 3881 828 4315 
Q 1253 4750 1959 4750 
Q 2769 4750 3195 4129 
Q 3622 3509 3622 2328 
Q 3622 1225 3098 567 
Q 2575 -91 1691 -91 
Q 1453 -91 1209 -44 
Q 966 3 703 97 
z
M 1959 2075 
Q 2384 2075 2632 2365 
Q 2881 2656 2881 3163 
Q 2881 3666 2632 3958 
Q 2384 4250 1959 4250 
Q 1534 4250 1286 3958 
Q 1038 3666 1038 3163 
Q 1038 2656 1286 2365 
Q 1534 2075 1959 2075 
z
" transform="scale(0.015625)"/>
       </defs>
       <use xlink:href="#DejaVuSans-27"/>
       <use xlink:href="#DejaVuSans-30" x="27.490234"/>
       <use xlink:href="#DejaVuSans-30" x="91.113281"/>
       <use xlink:href="#DejaVuSans-2d" x="154.736328"/>
       <use xlink:href="#DejaVuSans-30" x="190.820312"/>
       <use xlink:href="#DejaVuSans-39" x="254.443359"/>
      </g>
     </g>
    </g>
    <g id="xtick_4">
     <g id="line2d_4">
      <g>
       <use xlink:href="#me7ec152e55" x="170.857863" y="252" style="stroke: #000000; stroke-width: 0.8"/>
      </g>
     </g>
     <g id="text_4">
      <!-- '01-01 -->
      <g transform="translate(161.563829 286.863322)rotate(-45)scale(0.1 -0.1)">
       <use xlink:href="#DejaVuSans-27"/>
       <use xlink:href="#DejaVuSans-30" x="27.490234"/>
       <use xlink:href="#DejaVuSans-31" x="91.113281"/>
       <use xlink:href="#DejaVuSans-2d" x="154.736328"/>
       <use xlink:href="#DejaVuSans-30" x="190.820312"/>
       <use xlink:href="#DejaVuSans-31" x="254.443359"/>
      </g>
     </g>
    </g>
    <g id="xtick_5">
     <g id="line2d_5">
      <g>
       <use xlink:href="#me7ec152e55" x="204.182349" y="252" style="stroke: #000000; stroke-width: 0.8"/>
      </g>
     </g>
     <g id="text_5">
      <!-- '01-05 -->
      <g transform="translate(194.888314 286.863322)rotate(-45)scale(0.1 -0.1)">
       <use xlink:href="#DejaVuSans-27"/>
       <use xlink:href="#DejaVuSans-30" x="27.490234"/>
       <use xlink:href="#DejaVuSans-31" x="91.113281"/>
       <use xlink:href="#DejaVuSans-2d" x="154.736328"/>
       <use xlink:href="#DejaVuSans-30" x="190.820312"/>
       <use xlink:href="#DejaVuSans-35" x="254.443359"/>
      </g>
     </g>
    </g>
    <g id="xtick_6">
     <g id="line2d_6">
      <g>
       <use xlink:href="#me7ec152e55" x="238.339947" y="252" style="stroke: #000000; stroke-width: 0.8"/>
      </g>
     </g>
     <g id="text_6">
      <!-- '01-09 -->
      <g transform="translate(229.045912 286.863322)rotate(-45)scale(0.1 -0.1)">
       <use xlink:href="#DejaVuSans-27"/>
       <use xlink:href="#DejaVuSans-30" x="27.490234"/>
       <use xlink:href="#DejaVuSans-31" x="91.113281"/>
       <use xlink:href="#DejaVuSans-2d" x="154.736328"/>
       <use xlink:href="#DejaVuSans-30" x="190.820312"/>
       <use xlink:href="#DejaVuSans-39" x="254.443359"/>
      </g>
     </g>
    </g>
    <g id="xtick_7">
     <g id="line2d_7">
      <g>
       <use xlink:href="#me7ec152e55" x="272.219841" y="252" style="stroke: #000000; stroke-width: 0.8"/>
      </g>
     </g>
     <g id="text_7">
      <!-- '02-01 -->
      <g transform="translate(262.925806 286.863322)rotate(-45)scale(0.1 -0.1)">
       <defs>
        <path id="DejaVuSans-32" d="M 1228 531 
L 3431 531 
L 3431 0 
L 469 0 
L 469 531 
Q 828 903 1448 1529 
Q 2069 2156 2228 2338 
Q 2531 2678 2651 2914 
Q 2772 3150 2772 3378 
Q 2772 3750 2511 3984 
Q 2250 4219 1831 4219 
Q 1534 4219 1204 4116 
Q 875 4013 500 3803 
L 500 4441 
Q 881 4594 1212 4672 
Q 1544 4750 1819 4750 
Q 2544 4750 2975 4387 
Q 3406 4025 3406 3419 
Q 3406 3131 3298 2873 
Q 3191 2616 2906 2266 
Q 2828 2175 2409 1742 
Q 1991 1309 1228 531 
z
" transform="scale(0.015625)"/>
       </defs>
       <use xlink:href="#DejaVuSans-27"/>
       <use xlink:href="#DejaVuSans-30" x="27.490234"/>
       <use xlink:href="#DejaVuSans-32" x="91.113281"/>
       <use xlink:href="#DejaVuSans-2d" x="154.736328"/>
       <use xlink:href="#DejaVuSans-30" x="190.820312"/>
       <use xlink:href="#DejaVuSans-31" x="254.443359"/>
      </g>
     </g>
    </g>
    <g id="xtick_8">
     <g id="line2d_8">
      <g>
       <use xlink:href="#me7ec152e55" x="305.544326" y="252" style="stroke: #000000; stroke-width: 0.8"/>
      </g>
     </g>
     <g id="text_8">
      <!-- '02-05 -->
      <g transform="translate(296.250292 286.863322)rotate(-45)scale(0.1 -0.1)">
       <use xlink:href="#DejaVuSans-27"/>
       <use xlink:href="#DejaVuSans-30" x="27.490234"/>
       <use xlink:href="#DejaVuSans-32" x="91.113281"/>
       <use xlink:href="#DejaVuSans-2d" x="154.736328"/>
       <use xlink:href="#DejaVuSans-30" x="190.820312"/>
       <use xlink:href="#DejaVuSans-35" x="254.443359"/>
      </g>
     </g>
    </g>
    <g id="xtick_9">
     <g id="line2d_9">
      <g>
       <use xlink:href="#me7ec152e55" x="339.701924" y="252" style="stroke: #000000; stroke-width: 0.8"/>
      </g>
     </g>
     <g id="text_9">
      <!-- '02-09 -->
      <g transform="translate(330.40789 286.863322)rotate(-45)scale(0.1 -0.1)">
       <use xlink:href="#DejaVuSans-27"/>
       <use xlink:href="#DejaVuSans-30" x="27.490234"/>
       <use xlink:href="#DejaVuSans-32" x="91.113281"/>
       <use xlink:href="#DejaVuSans-2d" x="154.736328"/>
       <use xlink:href="#DejaVuSans-30" x="190.820312"/>
       <use xlink:href="#DejaVuSans-39" x="254.443359"/>
      </g>
     </g>
    </g>
    <g id="xtick_10">
     <g id="line2d_10">
      <g>
       <use xlink:href="#me7ec152e55" x="373.581818" y="252" style="stroke: #000000; stroke-width: 0.8"/>
      </g>
     </g>
     <g id="text_10">
      <!-- '03-01 -->
      <g transform="translate(364.287783 286.863322)rotate(-45)scale(0.1 -0.1)">
       <defs>
        <path id="DejaVuSans-33" d="M 2597 2516 
Q 3050 2419 3304 2112 
Q 3559 1806 3559 1356 
Q 3559 666 3084 287 
Q 2609 -91 1734 -91 
Q 1441 -91 1130 -33 
Q 819 25 488 141 
L 488 750 
Q 750 597 1062 519 
Q 1375 441 1716 441 
Q 2309 441 2620 675 
Q 2931 909 2931 1356 
Q 2931 1769 2642 2001 
Q 2353 2234 1838 2234 
L 1294 2234 
L 1294 2753 
L 1863 2753 
Q 2328 2753 2575 2939 
Q 2822 3125 2822 3475 
Q 2822 3834 2567 4026 
Q 2313 4219 1838 4219 
Q 1578 4219 1281 4162 
Q 984 4106 628 3988 
L 628 4550 
Q 988 4650 1302 4700 
Q 1616 4750 1894 4750 
Q 2613 4750 3031 4423 
Q 3450 4097 3450 3541 
Q 3450 3153 3228 2886 
Q 3006 2619 2597 2516 
z
" transform="scale(0.015625)"/>
       </defs>
       <use xlink:href="#DejaVuSans-27"/>
       <use xlink:href="#DejaVuSans-30" x="27.490234"/>
       <use xlink:href="#DejaVuSans-33" x="91.113281"/>
       <use xlink:href="#DejaVuSans-2d" x="154.736328"/>
       <use xlink:href="#DejaVuSans-30" x="190.820312"/>
       <use xlink:href="#DejaVuSans-31" x="254.443359"/>
      </g>
     </g>
    </g>
   </g>
   <g id="matplotlib.axis_2">
    <g id="ytick_1">
     <g id="line2d_11">
      <defs>
       <path id="m06be10a6e2" d="M 0 0 
L -3.5 0 
" style="stroke: #000000; stroke-width: 0.8"/>
      </defs>
      <g>
       <use xlink:href="#m06be10a6e2" x="54" y="247.159035" style="stroke: #000000; stroke-width: 0.8"/>
      </g>
     </g>
     <g id="text_11">
      <!-- 1 -->
      <g transform="translate(40.6375 250.958254)scale(0.1 -0.1)">
       <use xlink:href="#DejaVuSans-31"/>
      </g>
     </g>
    </g>
    <g id="ytick_2">
     <g id="line2d_12">
      <g>
       <use xlink:href="#m06be10a6e2" x="54" y="213.541224" style="stroke: #000000; stroke-width: 0.8"/>
      </g>
     </g>
     <g id="text_12">
      <!-- 2 -->
      <g transform="translate(40.6375 217.340443)scale(0.1 -0.1)">
       <use xlink:href="#DejaVuSans-32"/>
      </g>
     </g>
    </g>
    <g id="ytick_3">
     <g id="line2d_13">
      <g>
       <use xlink:href="#m06be10a6e2" x="54" y="179.923414" style="stroke: #000000; stroke-width: 0.8"/>
      </g>
     </g>
     <g id="text_13">
      <!-- 3 -->
      <g transform="translate(40.6375 183.722632)scale(0.1 -0.1)">
       <use xlink:href="#DejaVuSans-33"/>
      </g>
     </g>
    </g>
    <g id="ytick_4">
     <g id="line2d_14">
      <g>
       <use xlink:href="#m06be10a6e2" x="54" y="146.305603" style="stroke: #000000; stroke-width: 0.8"/>
      </g>
     </g>
     <g id="text_14">
      <!-- 4 -->
      <g transform="translate(40.6375 150.104822)scale(0.1 -0.1)">
       <defs>
        <path id="DejaVuSans-34" d="M 2419 4116 
L 825 1625 
L 2419 1625 
L 2419 4116 
z
M 2253 4666 
L 3047 4666 
L 3047 1625 
L 3713 1625 
L 3713 1100 
L 3047 1100 
L 3047 0 
L 2419 0 
L 2419 1100 
L 313 1100 
L 313 1709 
L 2253 4666 
z
" transform="scale(0.015625)"/>
       </defs>
       <use xlink:href="#DejaVuSans-34"/>
      </g>
     </g>
    </g>
    <g id="ytick_5">
     <g id="line2d_15">
      <g>
       <use xlink:href="#m06be10a6e2" x="54" y="112.687792" style="stroke: #000000; stroke-width: 0.8"/>
      </g>
     </g>
     <g id="text_15">
      <!-- 5 -->
      <g transform="translate(40.6375 116.487011)scale(0.1 -0.1)">
       <use xlink:href="#DejaVuSans-35"/>
      </g>
     </g>
    </g>
    <g id="ytick_6">
     <g id="line2d_16">
      <g>
       <use xlink:href="#m06be10a6e2" x="54" y="79.069981" style="stroke: #000000; stroke-width: 0.8"/>
      </g>
     </g>
     <g id="text_16">
      <!-- 6 -->
      <g transform="translate(40.6375 82.8692)scale(0.1 -0.1)">
       <defs>
        <path id="DejaVuSans-36" d="M 2113 2584 
Q 1688 2584 1439 2293 
Q 1191 2003 1191 1497 
Q 1191 994 1439 701 
Q 1688 409 2113 409 
Q 2538 409 2786 701 
Q 3034 994 3034 1497 
Q 3034 2003 2786 2293 
Q 2538 2584 2113 2584 
z
M 3366 4563 
L 3366 3988 
Q 3128 4100 2886 4159 
Q 2644 4219 2406 4219 
Q 1781 4219 1451 3797 
Q 1122 3375 1075 2522 
Q 1259 2794 1537 2939 
Q 1816 3084 2150 3084 
Q 2853 3084 3261 2657 
Q 3669 2231 3669 1497 
Q 3669 778 3244 343 
Q 2819 -91 2113 -91 
Q 1303 -91 875 529 
Q 447 1150 447 2328 
Q 447 3434 972 4092 
Q 1497 4750 2381 4750 
Q 2619 4750 2861 4703 
Q 3103 4656 3366 4563 
z
" transform="scale(0.015625)"/>
       </defs>
       <use xlink:href="#DejaVuSans-36"/>
      </g>
     </g>
    </g>
    <g id="ytick_7">
     <g id="line2d_17">
      <g>
       <use xlink:href="#m06be10a6e2" x="54" y="45.452171" style="stroke: #000000; stroke-width: 0.8"/>
      </g>
     </g>
     <g id="text_17">
      <!-- 7 -->
      <g transform="translate(40.6375 49.251389)scale(0.1 -0.1)">
       <defs>
        <path id="DejaVuSans-37" d="M 525 4666 
L 3525 4666 
L 3525 4397 
L 1831 0 
L 1172 0 
L 2766 4134 
L 525 4134 
L 525 4666 
z
" transform="scale(0.015625)"/>
       </defs>
       <use xlink:href="#DejaVuSans-37"/>
      </g>
     </g>
    </g>
   </g>
   <g id="line2d_18">
    <path d="M 69.218182 146.641781 
L 69.495886 146.641781 
L 69.77359 98.232134 
L 70.051294 99.913024 
L 70.328998 98.90449 
L 70.606702 94.534174 
L 70.884406 92.180928 
L 71.439814 92.180928 
L 71.717518 87.810612 
L 71.995222 91.508571 
L 72.272926 92.853284 
L 72.55063 93.189462 
L 72.828334 93.861818 
L 73.661447 93.861818 
L 73.939151 84.785009 
L 74.216855 96.887421 
L 74.494559 97.895955 
L 74.772263 100.58538 
L 75.327671 100.58538 
L 75.605375 94.870353 
L 75.883079 97.223599 
L 76.160783 95.206531 
L 76.438487 92.180928 
L 76.716191 93.189462 
L 77.271599 93.189462 
L 77.549303 83.440297 
L 77.827007 86.129722 
L 78.104711 91.172393 
L 78.382415 88.819147 
L 78.660119 89.155325 
L 79.215528 89.155325 
L 79.493232 87.138256 
L 79.770936 90.163859 
L 80.04864 87.138256 
L 80.326344 86.129722 
L 80.604048 88.819147 
L 81.159456 88.819147 
L 81.714864 84.112653 
L 81.992568 90.163859 
L 82.270272 90.500037 
L 82.547976 89.155325 
L 83.381088 89.155325 
L 83.658792 85.457365 
L 83.936496 86.802078 
L 84.2142 87.138256 
L 84.491904 88.14679 
L 85.047313 88.14679 
L 85.325017 85.457365 
L 85.602721 84.112653 
L 85.880425 86.4659 
L 86.158129 87.138256 
L 86.435833 88.482968 
L 86.991241 88.482968 
L 87.268945 88.14679 
L 87.546649 89.827681 
L 87.824353 86.802078 
L 88.102057 86.129722 
L 88.379761 87.474434 
L 88.935169 87.474434 
L 89.212873 85.457365 
L 89.490577 85.793544 
L 89.768281 82.431763 
L 90.045985 86.802078 
L 90.323689 87.138256 
L 90.879098 87.138256 
L 91.156802 85.121187 
L 91.434506 85.457365 
L 91.71221 78.397625 
L 91.989914 77.725269 
L 92.267618 79.742338 
L 92.823026 79.742338 
L 93.10073 76.716735 
L 93.656138 79.742338 
L 93.933842 75.372022 
L 94.211546 73.354954 
L 94.766954 73.354954 
L 95.044658 74.02731 
L 95.322362 79.742338 
L 95.600066 76.380557 
L 95.87777 77.389091 
L 96.155474 80.750872 
L 96.710883 80.750872 
L 96.988587 77.389091 
L 97.266291 80.078516 
L 97.543995 81.423228 
L 97.821699 80.078516 
L 98.099403 76.380557 
L 98.654811 76.380557 
L 98.932515 73.018776 
L 99.210219 81.423228 
L 99.487923 81.423228 
L 99.765627 77.389091 
L 100.043331 81.08705 
L 100.598739 81.08705 
L 100.876443 82.431763 
L 101.154147 79.40616 
L 101.431851 79.069981 
L 101.709555 79.069981 
L 101.987259 77.052913 
L 102.542668 77.052913 
L 102.820372 73.354954 
L 103.098076 77.389091 
L 103.653484 77.389091 
L 103.931188 81.08705 
L 104.486596 81.08705 
L 104.7643 78.733803 
L 105.042004 81.759406 
L 105.319708 80.750872 
L 105.875116 75.372022 
L 106.430524 75.372022 
L 106.708228 67.639926 
L 106.985932 74.699666 
L 107.263636 70.665529 
L 107.54134 62.597254 
L 107.819044 61.924898 
L 108.374453 61.924898 
L 108.652157 61.58872 
L 108.929861 63.26961 
L 109.207565 62.933432 
L 109.485269 60.244007 
L 109.762973 65.622857 
L 110.596085 65.622857 
L 110.873789 55.201336 
L 110.873789 55.201336 
" clip-path="url(#pfaa90dd689)" style="fill: none; stroke: #000000; stroke-width: 1.5; stroke-linecap: square"/>
   </g>
   <g id="line2d_19">
    <path d="M 111.151493 51.167199 
L 111.706901 64.278145 
L 112.262309 64.278145 
L 112.540013 61.924898 
L 112.817717 63.26961 
L 113.373125 60.916364 
L 113.650829 63.26961 
L 114.206238 63.26961 
L 114.483942 60.916364 
L 114.761646 63.605788 
L 115.03935 60.916364 
L 115.317054 55.537514 
L 115.594758 63.605788 
L 116.150166 63.605788 
L 116.42787 61.924898 
L 116.983278 63.26961 
L 117.260982 61.58872 
L 117.538686 61.924898 
L 118.094094 61.924898 
L 118.371798 57.890761 
L 118.927206 62.261076 
L 119.20491 53.520445 
L 119.482614 50.158664 
L 120.038023 50.158664 
L 120.315727 44.443636 
L 120.593431 44.443636 
L 120.871135 61.58872 
L 121.148839 61.924898 
L 121.426543 64.950501 
L 121.981951 64.950501 
L 122.259655 61.924898 
L 122.537359 65.959035 
L 122.815063 66.295213 
L 123.092767 62.261076 
L 123.370471 61.924898 
L 123.925879 61.924898 
L 124.203583 59.571651 
L 124.481287 63.26961 
L 124.758991 63.941967 
L 125.036695 61.58872 
L 125.314399 61.924898 
L 125.869808 61.924898 
L 126.147512 61.58872 
L 126.425216 63.605788 
L 126.980624 61.58872 
L 127.258328 64.278145 
L 127.813736 64.278145 
L 128.09144 57.554583 
L 128.646848 64.950501 
L 128.924552 63.941967 
L 129.202256 64.278145 
L 129.757664 64.278145 
L 130.035368 63.605788 
L 130.313072 64.278145 
L 130.86848 61.58872 
L 131.146184 62.261076 
L 131.701593 62.261076 
L 132.257001 57.890761 
L 132.534705 62.933432 
L 132.812409 63.26961 
L 133.090113 64.278145 
L 133.645521 64.278145 
L 133.923225 62.933432 
L 134.200929 64.950501 
L 134.756337 60.244007 
L 135.034041 60.916364 
L 135.589449 60.916364 
L 135.867153 59.907829 
L 136.144857 61.924898 
L 136.422561 61.924898 
L 136.700265 57.218404 
L 136.977969 61.58872 
L 137.811082 61.58872 
L 138.088786 58.563117 
L 138.644194 61.252542 
L 138.921898 62.261076 
L 139.75501 62.261076 
L 140.032714 63.26961 
L 140.310418 63.26961 
L 140.588122 62.261076 
L 140.865826 60.580186 
L 141.421234 60.580186 
L 141.698938 64.278145 
L 141.976642 65.622857 
L 142.254346 62.261076 
L 142.53205 61.252542 
L 142.809754 62.933432 
L 143.365163 62.933432 
L 143.642867 60.916364 
L 143.920571 62.261076 
L 144.198275 62.261076 
L 144.475979 59.235473 
L 144.753683 58.899295 
L 145.309091 58.899295 
L 145.586795 56.20987 
L 145.864499 63.605788 
L 146.419907 60.916364 
L 146.697611 64.614323 
L 147.530723 64.614323 
L 147.808427 59.907829 
L 148.086131 63.605788 
L 148.363835 63.26961 
L 148.641539 63.605788 
L 149.196948 63.605788 
L 149.474652 59.235473 
L 149.752356 63.941967 
L 150.03006 61.252542 
L 150.307764 60.916364 
L 150.585468 62.261076 
L 151.140876 62.261076 
L 151.41858 61.252542 
L 151.696284 62.597254 
L 151.973988 61.252542 
L 152.251692 61.252542 
L 152.529396 61.924898 
L 153.084804 61.924898 
L 153.362508 59.235473 
L 153.640212 59.235473 
L 153.917916 58.563117 
L 154.473324 62.933432 
L 155.028733 62.933432 
L 155.306437 62.597254 
L 155.584141 62.933432 
L 155.861845 61.924898 
L 156.139549 61.58872 
L 156.417253 62.933432 
L 156.972661 62.933432 
L 157.250365 60.580186 
L 157.528069 61.58872 
L 157.805773 58.563117 
L 158.361181 62.933432 
L 158.916589 62.933432 
L 159.194293 61.58872 
L 159.471997 62.261076 
L 159.749701 59.571651 
L 160.027405 59.571651 
L 160.305109 62.597254 
L 160.860518 62.597254 
L 161.138222 62.261076 
L 161.415926 63.605788 
L 161.69363 62.261076 
L 161.971334 58.226939 
L 162.249038 58.899295 
L 162.804446 58.899295 
L 163.08215 59.907829 
L 163.359854 61.924898 
L 163.637558 62.933432 
L 163.915262 62.597254 
L 164.192966 63.26961 
L 164.748374 63.26961 
L 165.026078 62.597254 
L 165.303782 64.614323 
L 165.581486 63.26961 
L 166.136894 59.571651 
L 166.692303 59.571651 
L 166.970007 62.261076 
L 167.247711 63.26961 
L 167.525415 63.26961 
L 167.803119 62.933432 
L 168.080823 64.278145 
L 168.913935 64.278145 
L 169.191639 59.571651 
L 169.469343 61.252542 
L 169.747047 61.252542 
L 170.024751 98.90449 
L 170.857863 98.90449 
L 171.135567 56.546048 
L 171.968679 84.785009 
L 172.524088 84.785009 
L 172.801792 79.742338 
L 173.079496 80.750872 
L 173.3572 77.052913 
L 173.634904 77.389091 
L 173.912608 79.742338 
L 174.74572 79.742338 
L 175.023424 72.346419 
L 175.301128 81.08705 
L 175.856536 81.759406 
L 176.411944 81.759406 
L 176.689648 79.069981 
L 176.967352 80.078516 
L 177.52276 75.7082 
L 177.800464 80.414694 
L 178.355873 80.414694 
L 178.633577 79.742338 
L 178.911281 82.431763 
L 179.466689 93.52564 
L 179.744393 95.878887 
L 180.299801 95.878887 
L 180.577505 95.206531 
L 180.855209 96.551243 
L 181.132913 95.878887 
L 181.410617 95.878887 
L 181.688321 97.895955 
L 182.243729 97.895955 
L 182.521433 96.551243 
L 182.799137 97.223599 
L 183.076841 95.878887 
L 183.354545 93.52564 
L 183.63225 97.223599 
L 184.465362 97.223599 
L 184.743066 93.52564 
L 185.02077 95.878887 
L 185.298474 95.206531 
L 185.576178 97.223599 
L 186.131586 97.223599 
L 186.40929 94.197996 
L 186.686994 96.215065 
L 186.964698 92.853284 
L 187.242402 92.853284 
L 187.520106 95.206531 
L 188.353218 95.206531 
L 188.630922 99.576846 
L 188.908626 101.257737 
L 189.18633 97.223599 
L 189.464035 98.568312 
L 190.019443 98.568312 
L 190.297147 95.878887 
L 190.574851 95.878887 
L 190.852555 96.551243 
L 191.130259 95.206531 
L 191.407963 99.240668 
L 191.963371 99.240668 
L 192.241075 99.913024 
L 192.518779 107.981299 
L 192.796483 111.006902 
L 193.074187 111.34308 
L 193.351891 114.704861 
L 193.907299 114.704861 
L 194.185003 111.679258 
L 194.740411 111.006902 
L 195.29582 102.938627 
L 195.851228 102.938627 
L 196.128932 102.602449 
L 196.406636 109.326011 
L 196.68434 112.351614 
L 196.962044 111.34308 
L 197.239748 114.704861 
L 197.795156 114.704861 
L 198.07286 113.360148 
L 198.350564 114.032505 
L 198.628268 114.368683 
L 198.905972 112.015436 
L 199.183676 112.351614 
L 199.739084 112.351614 
L 200.016788 106.972764 
L 200.294492 113.02397 
L 200.8499 130.505232 
L 201.127605 133.530835 
L 201.683013 133.530835 
L 201.960717 132.858479 
L 202.238421 132.522301 
L 202.516125 128.151985 
L 202.793829 127.143451 
L 203.071533 129.160519 
L 203.626941 129.160519 
L 203.904645 123.78167 
L 204.182349 125.798738 
L 204.460053 134.539369 
L 204.737757 130.169054 
L 205.015461 132.522301 
L 205.570869 132.522301 
L 205.848573 130.505232 
L 206.126277 132.522301 
L 206.403981 131.849944 
L 206.681685 129.160519 
L 206.95939 130.505232 
L 207.514798 130.505232 
L 207.792502 131.849944 
L 208.34791 144.960891 
L 208.625614 144.960891 
L 208.903318 147.986494 
L 209.458726 147.986494 
L 209.73643 145.633247 
L 210.291838 147.314137 
L 210.569542 146.977959 
L 210.847246 148.322672 
L 211.680358 148.322672 
L 211.958062 143.28 
L 212.235766 144.624712 
L 212.51347 138.237328 
L 212.791175 141.599109 
L 213.346583 141.599109 
L 213.901991 148.65885 
L 214.179695 149.331206 
L 214.457399 148.995028 
L 214.735103 145.633247 
L 215.290511 145.633247 
L 215.568215 145.297069 
L 215.845919 146.977959 
L 216.123623 144.960891 
L 216.401327 145.297069 
L 216.679031 148.322672 
L 217.234439 148.322672 
L 217.512143 149.331206 
L 217.789847 149.331206 
L 218.067551 146.977959 
L 218.345255 145.633247 
L 218.62296 146.977959 
L 219.178368 146.977959 
L 219.456072 147.314137 
L 219.733776 154.710056 
L 220.01148 157.063302 
L 220.289184 151.012096 
L 220.566888 147.986494 
L 221.122296 147.986494 
L 221.4 142.607644 
L 221.677704 156.727124 
L 221.955408 156.727124 
L 222.233112 155.71859 
L 222.510816 159.752727 
L 223.066224 159.752727 
L 223.343928 157.399481 
L 223.621632 156.054768 
L 223.899336 153.701521 
L 224.17704 153.701521 
L 224.454745 154.710056 
L 225.010153 154.710056 
L 225.287857 152.356809 
L 225.565561 156.054768 
L 225.843265 155.382412 
L 226.398673 153.029165 
L 226.954081 153.029165 
L 227.231785 152.356809 
L 227.509489 152.356809 
L 227.787193 150.003562 
L 228.064897 150.675918 
L 228.342601 154.710056 
L 228.898009 154.710056 
L 229.453417 152.356809 
L 229.731121 153.365343 
L 230.008825 157.063302 
L 230.28653 156.727124 
L 230.841938 156.727124 
L 231.119642 155.382412 
L 231.397346 156.727124 
L 231.67505 154.710056 
L 231.952754 154.037699 
L 232.230458 156.390946 
L 232.785866 156.390946 
L 233.06357 153.365343 
L 233.341274 154.373878 
L 233.618978 152.020631 
L 234.174386 157.735659 
L 234.729794 157.735659 
L 235.007498 158.408015 
L 235.285202 162.105974 
L 235.562906 162.77833 
L 235.84061 161.433618 
L 236.118315 162.77833 
L 236.673723 162.77833 
L 236.951427 161.769796 
L 237.229131 163.114508 
L 237.506835 163.114508 
L 238.062243 157.735659 
L 238.895355 157.735659 
L 239.173059 157.399481 
L 239.450763 163.450686 
L 239.728467 162.442152 
L 240.006171 165.131577 
L 240.561579 165.131577 
L 240.839283 163.114508 
L 241.116987 163.114508 
L 241.394691 161.09744 
L 241.9501 175.553098 
L 242.505508 175.553098 
L 243.060916 238.754583 
L 243.33862 240.771651 
L 243.894028 176.225455 
L 244.449436 176.225455 
L 244.72714 169.501892 
L 245.282548 181.268126 
L 245.560252 177.233989 
L 245.837956 188.327866 
L 246.393364 188.327866 
L 246.671068 179.251058 
L 246.948772 201.774991 
L 247.226476 204.464416 
L 247.50418 198.41321 
L 247.781885 199.421744 
L 248.614997 199.421744 
L 248.892701 196.732319 
L 249.170405 199.421744 
L 249.448109 199.421744 
L 249.725813 200.430278 
L 250.281221 200.430278 
L 250.558925 196.396141 
L 250.836629 197.740853 
L 251.114333 196.396141 
L 251.392037 196.732319 
L 251.669741 197.740853 
L 252.225149 197.740853 
L 252.502853 196.059963 
L 252.780557 197.404675 
L 253.058261 195.723785 
L 253.335965 195.387607 
L 253.61367 196.396141 
L 254.169078 196.396141 
L 254.446782 195.051429 
L 254.724486 195.051429 
L 255.00219 191.353469 
L 255.279894 193.03436 
L 255.557598 199.085566 
L 256.113006 199.085566 
L 256.39071 198.41321 
L 256.668414 209.170909 
L 256.946118 212.196512 
L 257.223822 212.53269 
L 257.501526 214.213581 
L 258.334638 214.213581 
L 258.612342 210.179443 
L 259.16775 206.145306 
L 259.445455 214.213581 
L 260.000863 214.213581 
L 260.278567 213.205046 
L 260.833975 215.894471 
L 261.111679 215.894471 
L 261.389383 217.575362 
L 261.944791 217.575362 
L 262.222495 212.196512 
L 262.500199 213.205046 
L 262.777903 212.196512 
L 263.055607 210.515622 
L 263.333311 211.524156 
L 263.888719 211.524156 
L 264.166423 211.860334 
L 264.444127 215.894471 
L 264.721831 217.239184 
L 264.999536 217.91154 
L 265.27724 216.230649 
L 265.832648 216.230649 
L 266.110352 216.903006 
L 266.388056 220.264787 
L 266.66576 219.928609 
L 266.943464 218.247718 
L 267.221168 217.575362 
L 267.776576 217.575362 
L 268.05428 215.894471 
L 268.331984 223.29039 
L 268.609688 223.29039 
L 268.887392 220.600965 
L 269.165096 220.937143 
L 269.720504 220.937143 
L 269.998208 224.298924 
L 270.275912 224.298924 
L 270.553616 217.239184 
L 270.831321 218.583896 
L 271.109025 229.005417 
L 271.664433 229.005417 
L 271.942137 229.677774 
L 272.219841 229.677774 
L 272.497545 216.230649 
L 272.775249 222.954212 
L 273.052953 226.652171 
L 274.163769 226.652171 
L 274.441473 222.281855 
L 274.719177 219.928609 
L 274.996881 223.29039 
L 275.552289 223.29039 
L 275.829993 220.937143 
L 276.107697 221.945677 
L 276.385401 223.962746 
L 276.663106 224.298924 
L 276.94081 223.29039 
L 277.773922 223.29039 
L 278.051626 218.920074 
L 278.32933 219.928609 
L 278.607034 220.264787 
L 278.884738 220.937143 
L 279.440146 220.937143 
L 279.71785 220.600965 
L 279.995554 220.937143 
L 280.273258 220.937143 
L 280.550962 218.583896 
L 280.828666 221.273321 
L 281.384074 221.273321 
L 281.661778 222.281855 
L 281.939482 225.643636 
L 282.217186 224.97128 
L 282.494891 222.281855 
L 282.772595 223.962746 
L 283.328003 223.962746 
L 283.605707 221.609499 
L 283.883411 222.954212 
L 284.161115 221.945677 
L 284.438819 219.928609 
L 284.716523 222.618033 
L 285.549635 222.618033 
L 285.827339 221.273321 
L 286.105043 221.609499 
L 286.382747 221.273321 
L 286.660451 223.29039 
L 287.215859 223.29039 
L 287.493563 220.264787 
L 287.771267 221.273321 
L 288.048971 221.609499 
L 288.326676 219.256252 
L 288.60438 220.937143 
L 289.159788 220.937143 
L 289.437492 224.298924 
L 289.715196 225.979814 
L 290.270604 221.273321 
L 290.548308 223.962746 
L 291.103716 223.962746 
L 291.38142 221.945677 
L 291.659124 224.298924 
L 292.214532 220.600965 
L 292.492236 220.264787 
L 293.047644 220.264787 
L 293.325348 223.29039 
L 293.603052 224.635102 
L 293.880756 220.937143 
L 294.158461 222.281855 
L 294.436165 224.298924 
L 294.991573 224.298924 
L 295.269277 221.945677 
L 295.546981 223.29039 
L 295.824685 223.962746 
L 296.102389 221.273321 
L 296.380093 222.281855 
L 296.935501 222.281855 
L 297.213205 217.575362 
L 297.490909 222.281855 
L 297.768613 219.928609 
L 298.046317 222.281855 
L 298.324021 223.626568 
L 298.879429 223.626568 
L 299.157133 222.954212 
L 299.434837 224.298924 
L 299.712541 222.618033 
L 299.990246 219.256252 
L 300.26795 220.600965 
L 300.823358 220.600965 
L 301.101062 218.920074 
L 301.378766 224.298924 
L 301.65647 222.618033 
L 301.934174 223.29039 
L 302.211878 224.635102 
L 302.767286 224.635102 
L 303.04499 222.618033 
L 303.322694 223.29039 
L 303.878102 219.59243 
L 304.155806 220.600965 
L 304.711214 220.600965 
L 304.988918 219.928609 
L 305.266622 219.59243 
L 305.544326 217.575362 
L 306.099735 222.618033 
L 306.655143 222.618033 
L 306.932847 221.945677 
L 307.210551 222.954212 
L 307.488255 223.29039 
L 307.765959 222.281855 
L 308.599071 222.281855 
L 308.876775 221.945677 
L 309.154479 223.962746 
L 309.432183 218.920074 
L 309.987591 223.626568 
L 310.542999 223.626568 
L 310.820703 222.954212 
L 311.098407 224.298924 
L 311.653816 221.609499 
L 311.93152 221.945677 
L 312.764632 221.945677 
L 313.042336 217.575362 
L 313.32004 220.600965 
L 313.597744 220.264787 
L 313.875448 220.600965 
L 314.430856 220.600965 
L 314.70856 219.256252 
L 314.986264 222.618033 
L 315.263968 223.626568 
L 315.541672 221.945677 
L 315.819376 222.618033 
L 316.374784 222.618033 
L 316.652488 221.609499 
L 316.930192 222.954212 
L 317.207896 221.945677 
L 317.485601 221.609499 
L 317.763305 221.945677 
L 318.318713 221.945677 
L 318.596417 219.59243 
L 318.874121 223.29039 
L 319.151825 223.962746 
L 319.429529 221.945677 
L 319.707233 222.281855 
L 320.262641 222.281855 
L 320.540345 221.273321 
L 320.818049 221.945677 
L 321.373457 219.928609 
L 321.651161 222.618033 
L 322.206569 222.618033 
L 322.484273 219.256252 
L 322.761977 222.954212 
L 323.039681 223.29039 
L 323.317386 223.29039 
L 323.59509 222.954212 
L 324.150498 222.954212 
L 324.428202 221.945677 
L 324.705906 222.954212 
L 325.261314 221.609499 
L 325.539018 223.29039 
L 326.094426 223.29039 
L 326.37213 219.256252 
L 326.649834 222.954212 
L 326.927538 223.29039 
L 327.205242 222.281855 
L 327.482946 222.954212 
L 328.038354 222.954212 
L 328.316058 221.273321 
L 328.593762 222.618033 
L 328.871466 224.635102 
L 329.149171 221.945677 
L 329.426875 223.962746 
L 329.982283 223.962746 
L 330.259987 221.945677 
L 330.537691 223.29039 
L 331.093099 220.600965 
L 331.370803 222.954212 
L 331.926211 222.954212 
L 332.203915 221.273321 
L 332.759323 223.29039 
L 333.037027 223.29039 
L 333.314731 224.298924 
L 333.870139 224.298924 
L 334.147843 221.609499 
L 334.425547 222.281855 
L 334.703251 220.937143 
L 334.980956 217.91154 
L 335.25866 223.626568 
L 335.814068 223.626568 
L 336.091772 222.954212 
L 336.369476 223.626568 
L 336.64718 222.954212 
L 336.924884 222.618033 
L 337.202588 222.954212 
L 337.757996 222.954212 
L 338.0357 219.928609 
L 338.313404 220.600965 
L 338.591108 220.264787 
L 338.868812 219.59243 
L 339.146516 219.928609 
L 339.979628 219.928609 
L 340.257332 217.91154 
L 340.535036 222.281855 
L 340.812741 221.945677 
L 341.090445 223.29039 
L 341.645853 223.29039 
L 341.923557 221.609499 
L 342.478965 222.954212 
L 342.756669 222.281855 
L 343.034373 222.954212 
L 343.589781 222.954212 
L 343.867485 219.256252 
L 344.145189 222.954212 
L 344.422893 224.298924 
L 344.978301 223.626568 
L 345.533709 223.626568 
L 345.811413 222.281855 
L 346.089117 221.945677 
L 346.366821 220.600965 
L 346.644526 220.264787 
L 346.92223 220.937143 
L 347.477638 220.937143 
L 347.755342 218.583896 
L 348.033046 218.583896 
L 348.31075 221.945677 
L 348.588454 221.609499 
L 348.866158 222.954212 
L 349.421566 222.954212 
L 349.69927 222.281855 
L 349.976974 222.954212 
L 350.254678 222.618033 
L 350.532382 221.945677 
L 350.810086 222.618033 
L 351.643198 222.618033 
L 351.920902 217.575362 
L 352.198607 222.618033 
L 352.476311 222.281855 
L 352.754015 223.29039 
L 353.309423 223.29039 
L 353.587127 222.618033 
L 353.864831 223.29039 
L 354.420239 220.264787 
L 354.697943 219.59243 
L 355.253351 219.59243 
L 356.086463 222.954212 
L 356.364167 219.59243 
L 356.641871 222.281855 
L 357.197279 222.281855 
L 357.474983 223.29039 
L 357.752687 225.643636 
L 358.5858 241.107829 
L 359.418912 241.107829 
L 359.696616 237.40987 
L 359.97432 241.444007 
L 360.252024 237.40987 
L 360.529728 235.392801 
L 361.085136 235.392801 
L 361.36284 240.099295 
L 361.640544 240.435473 
L 362.195952 238.082226 
L 362.473656 238.754583 
L 363.029064 238.754583 
L 363.306768 236.401336 
L 363.584472 238.418404 
L 363.862177 238.082226 
L 364.139881 238.082226 
L 364.417585 239.426939 
L 364.972993 239.426939 
L 365.250697 238.082226 
L 365.528401 239.090761 
L 365.806105 239.426939 
L 366.083809 239.090761 
L 366.361513 240.099295 
L 366.916921 240.099295 
L 367.194625 239.763117 
L 367.472329 239.763117 
L 367.750033 237.40987 
L 368.027737 237.40987 
L 368.305441 238.754583 
L 368.860849 238.754583 
L 369.138553 235.056623 
L 369.416257 238.418404 
L 369.693962 238.754583 
L 369.971666 237.746048 
L 370.24937 238.418404 
L 370.804778 238.418404 
L 371.082482 237.746048 
L 371.360186 242.116364 
L 371.63789 242.116364 
L 371.915594 237.746048 
L 372.193298 240.435473 
L 372.748706 240.435473 
L 373.02641 239.426939 
L 373.304114 241.780186 
L 373.581818 241.780186 
L 373.581818 241.780186 
" clip-path="url(#pfaa90dd689)" style="fill: none; stroke: #d3d3d3; stroke-width: 1.5; stroke-linecap: square"/>
   </g>
   <g id="patch_3">
    <path d="M 54 252 
L 54 34.56 
" style="fill: none; stroke: #000000; stroke-width: 0.8; stroke-linejoin: miter; stroke-linecap: square"/>
   </g>
   <g id="patch_4">
    <path d="M 388.8 252 
L 388.8 34.56 
" style="fill: none; stroke: #000000; stroke-width: 0.8; stroke-linejoin: miter; stroke-linecap: square"/>
   </g>
   <g id="patch_5">
    <path d="M 54 252 
L 388.8 252 
" style="fill: none; stroke: #000000; stroke-width: 0.8; stroke-linejoin: miter; stroke-linecap: square"/>
   </g>
   <g id="patch_6">
    <path d="M 54 34.56 
L 388.8 34.56 
" style="fill: none; stroke: #000000; stroke-width: 0.8; stroke-linejoin: miter; stroke-linecap: square"/>
   </g>
   <g id="text_18">
    <!-- FF Effective Rate -->
    <g transform="translate(170.660625 28.56)scale(0.12 -0.12)">
     <defs>
      <path id="DejaVuSans-46" d="M 628 4666 
L 3309 4666 
L 3309 4134 
L 1259 4134 
L 1259 2759 
L 3109 2759 
L 3109 2228 
L 1259 2228 
L 1259 0 
L 628 0 
L 628 4666 
z
" transform="scale(0.015625)"/>
      <path id="DejaVuSans-20" transform="scale(0.015625)"/>
      <path id="DejaVuSans-45" d="M 628 4666 
L 3578 4666 
L 3578 4134 
L 1259 4134 
L 1259 2753 
L 3481 2753 
L 3481 2222 
L 1259 2222 
L 1259 531 
L 3634 531 
L 3634 0 
L 628 0 
L 628 4666 
z
" transform="scale(0.015625)"/>
      <path id="DejaVuSans-66" d="M 2375 4863 
L 2375 4384 
L 1825 4384 
Q 1516 4384 1395 4259 
Q 1275 4134 1275 3809 
L 1275 3500 
L 2222 3500 
L 2222 3053 
L 1275 3053 
L 1275 0 
L 697 0 
L 697 3053 
L 147 3053 
L 147 3500 
L 697 3500 
L 697 3744 
Q 697 4328 969 4595 
Q 1241 4863 1831 4863 
L 2375 4863 
z
" transform="scale(0.015625)"/>
      <path id="DejaVuSans-65" d="M 3597 1894 
L 3597 1613 
L 953 1613 
Q 991 1019 1311 708 
Q 1631 397 2203 397 
Q 2534 397 2845 478 
Q 3156 559 3463 722 
L 3463 178 
Q 3153 47 2828 -22 
Q 2503 -91 2169 -91 
Q 1331 -91 842 396 
Q 353 884 353 1716 
Q 353 2575 817 3079 
Q 1281 3584 2069 3584 
Q 2775 3584 3186 3129 
Q 3597 2675 3597 1894 
z
M 3022 2063 
Q 3016 2534 2758 2815 
Q 2500 3097 2075 3097 
Q 1594 3097 1305 2825 
Q 1016 2553 972 2059 
L 3022 2063 
z
" transform="scale(0.015625)"/>
      <path id="DejaVuSans-63" d="M 3122 3366 
L 3122 2828 
Q 2878 2963 2633 3030 
Q 2388 3097 2138 3097 
Q 1578 3097 1268 2742 
Q 959 2388 959 1747 
Q 959 1106 1268 751 
Q 1578 397 2138 397 
Q 2388 397 2633 464 
Q 2878 531 3122 666 
L 3122 134 
Q 2881 22 2623 -34 
Q 2366 -91 2075 -91 
Q 1284 -91 818 406 
Q 353 903 353 1747 
Q 353 2603 823 3093 
Q 1294 3584 2113 3584 
Q 2378 3584 2631 3529 
Q 2884 3475 3122 3366 
z
" transform="scale(0.015625)"/>
      <path id="DejaVuSans-74" d="M 1172 4494 
L 1172 3500 
L 2356 3500 
L 2356 3053 
L 1172 3053 
L 1172 1153 
Q 1172 725 1289 603 
Q 1406 481 1766 481 
L 2356 481 
L 2356 0 
L 1766 0 
Q 1100 0 847 248 
Q 594 497 594 1153 
L 594 3053 
L 172 3053 
L 172 3500 
L 594 3500 
L 594 4494 
L 1172 4494 
z
" transform="scale(0.015625)"/>
      <path id="DejaVuSans-69" d="M 603 3500 
L 1178 3500 
L 1178 0 
L 603 0 
L 603 3500 
z
M 603 4863 
L 1178 4863 
L 1178 4134 
L 603 4134 
L 603 4863 
z
" transform="scale(0.015625)"/>
      <path id="DejaVuSans-76" d="M 191 3500 
L 800 3500 
L 1894 563 
L 2988 3500 
L 3597 3500 
L 2284 0 
L 1503 0 
L 191 3500 
z
" transform="scale(0.015625)"/>
      <path id="DejaVuSans-52" d="M 2841 2188 
Q 3044 2119 3236 1894 
Q 3428 1669 3622 1275 
L 4263 0 
L 3584 0 
L 2988 1197 
Q 2756 1666 2539 1819 
Q 2322 1972 1947 1972 
L 1259 1972 
L 1259 0 
L 628 0 
L 628 4666 
L 2053 4666 
Q 2853 4666 3247 4331 
Q 3641 3997 3641 3322 
Q 3641 2881 3436 2590 
Q 3231 2300 2841 2188 
z
M 1259 4147 
L 1259 2491 
L 2053 2491 
Q 2509 2491 2742 2702 
Q 2975 2913 2975 3322 
Q 2975 3731 2742 3939 
Q 2509 4147 2053 4147 
L 1259 4147 
z
" transform="scale(0.015625)"/>
      <path id="DejaVuSans-61" d="M 2194 1759 
Q 1497 1759 1228 1600 
Q 959 1441 959 1056 
Q 959 750 1161 570 
Q 1363 391 1709 391 
Q 2188 391 2477 730 
Q 2766 1069 2766 1631 
L 2766 1759 
L 2194 1759 
z
M 3341 1997 
L 3341 0 
L 2766 0 
L 2766 531 
Q 2569 213 2275 61 
Q 1981 -91 1556 -91 
Q 1019 -91 701 211 
Q 384 513 384 1019 
Q 384 1609 779 1909 
Q 1175 2209 1959 2209 
L 2766 2209 
L 2766 2266 
Q 2766 2663 2505 2880 
Q 2244 3097 1772 3097 
Q 1472 3097 1187 3025 
Q 903 2953 641 2809 
L 641 3341 
Q 956 3463 1253 3523 
Q 1550 3584 1831 3584 
Q 2591 3584 2966 3190 
Q 3341 2797 3341 1997 
z
" transform="scale(0.015625)"/>
     </defs>
     <use xlink:href="#DejaVuSans-46"/>
     <use xlink:href="#DejaVuSans-46" x="57.519531"/>
     <use xlink:href="#DejaVuSans-20" x="115.039062"/>
     <use xlink:href="#DejaVuSans-45" x="146.826172"/>
     <use xlink:href="#DejaVuSans-66" x="210.009766"/>
     <use xlink:href="#DejaVuSans-66" x="245.214844"/>
     <use xlink:href="#DejaVuSans-65" x="280.419922"/>
     <use xlink:href="#DejaVuSans-63" x="341.943359"/>
     <use xlink:href="#DejaVuSans-74" x="396.923828"/>
     <use xlink:href="#DejaVuSans-69" x="436.132812"/>
     <use xlink:href="#DejaVuSans-76" x="463.916016"/>
     <use xlink:href="#DejaVuSans-65" x="523.095703"/>
     <use xlink:href="#DejaVuSans-20" x="584.619141"/>
     <use xlink:href="#DejaVuSans-52" x="616.40625"/>
     <use xlink:href="#DejaVuSans-61" x="683.638672"/>
     <use xlink:href="#DejaVuSans-74" x="744.917969"/>
     <use xlink:href="#DejaVuSans-65" x="784.126953"/>
    </g>
   </g>
  </g>
 </g>
 <defs>
  <clipPath id="pfaa90dd689">
   <rect x="54" y="34.56" width="334.8" height="217.44"/>
  </clipPath>
 </defs>
</svg>
