<?xml version="1.0" encoding="utf-8" standalone="no"?>
<!DOCTYPE svg PUBLIC "-//W3C//DTD SVG 1.1//EN"
  "http://www.w3.org/Graphics/SVG/1.1/DTD/svg11.dtd">
<svg xmlns:xlink="http://www.w3.org/1999/xlink" width="360pt" height="216pt" viewBox="0 0 360 216" xmlns="http://www.w3.org/2000/svg" version="1.1">
 <metadata>
  <rdf:RDF xmlns:dc="http://purl.org/dc/elements/1.1/" xmlns:cc="http://creativecommons.org/ns#" xmlns:rdf="http://www.w3.org/1999/02/22-rdf-syntax-ns#">
   <cc:Work>
    <dc:type rdf:resource="http://purl.org/dc/dcmitype/StillImage"/>
    <dc:date>2023-03-24T15:59:34.827475</dc:date>
    <dc:format>image/svg+xml</dc:format>
    <dc:creator>
     <cc:Agent>
      <dc:title>Matplotlib v3.6.3, https://matplotlib.org/</dc:title>
     </cc:Agent>
    </dc:creator>
   </cc:Work>
  </rdf:RDF>
 </metadata>
 <defs>
  <style type="text/css">*{stroke-linejoin: round; stroke-linecap: butt}</style>
 </defs>
 <g id="figure_1">
  <g id="patch_1">
   <path d="M 0 216 
L 360 216 
L 360 0 
L 0 0 
z
" style="fill: #ffffff"/>
  </g>
  <g id="axes_1">
   <g id="patch_2">
    <path d="M 43.09 168.671221 
L 348.857047 168.671221 
L 348.857047 26.88 
L 43.09 26.88 
z
" style="fill: #ffffff"/>
   </g>
   <g id="matplotlib.axis_1">
    <g id="xtick_1">
     <g id="line2d_1">
      <defs>
       <path id="md8dcaf41b6" d="M 0 0 
L 0 3.5 
" style="stroke: #000000; stroke-width: 0.8"/>
      </defs>
      <g>
       <use xlink:href="#md8dcaf41b6" x="54.31938" y="168.671221" style="stroke: #000000; stroke-width: 0.8"/>
      </g>
     </g>
     <g id="text_1">
      <!-- '07-10 -->
      <g transform="translate(45.025345 203.534543) rotate(-45) scale(0.1 -0.1)">
       <defs>
        <path id="DejaVuSans-27" d="M 1147 4666 
L 1147 2931 
L 616 2931 
L 616 4666 
L 1147 4666 
z
" transform="scale(0.015625)"/>
        <path id="DejaVuSans-30" d="M 2034 4250 
Q 1547 4250 1301 3770 
Q 1056 3291 1056 2328 
Q 1056 1369 1301 889 
Q 1547 409 2034 409 
Q 2525 409 2770 889 
Q 3016 1369 3016 2328 
Q 3016 3291 2770 3770 
Q 2525 4250 2034 4250 
z
M 2034 4750 
Q 2819 4750 3233 4129 
Q 3647 3509 3647 2328 
Q 3647 1150 3233 529 
Q 2819 -91 2034 -91 
Q 1250 -91 836 529 
Q 422 1150 422 2328 
Q 422 3509 836 4129 
Q 1250 4750 2034 4750 
z
" transform="scale(0.015625)"/>
        <path id="DejaVuSans-37" d="M 525 4666 
L 3525 4666 
L 3525 4397 
L 1831 0 
L 1172 0 
L 2766 4134 
L 525 4134 
L 525 4666 
z
" transform="scale(0.015625)"/>
        <path id="DejaVuSans-2d" d="M 313 2009 
L 1997 2009 
L 1997 1497 
L 313 1497 
L 313 2009 
z
" transform="scale(0.015625)"/>
        <path id="DejaVuSans-31" d="M 794 531 
L 1825 531 
L 1825 4091 
L 703 3866 
L 703 4441 
L 1819 4666 
L 2450 4666 
L 2450 531 
L 3481 531 
L 3481 0 
L 794 0 
L 794 531 
z
" transform="scale(0.015625)"/>
       </defs>
       <use xlink:href="#DejaVuSans-27"/>
       <use xlink:href="#DejaVuSans-30" x="27.490234"/>
       <use xlink:href="#DejaVuSans-37" x="91.113281"/>
       <use xlink:href="#DejaVuSans-2d" x="154.736328"/>
       <use xlink:href="#DejaVuSans-31" x="190.820312"/>
       <use xlink:href="#DejaVuSans-30" x="254.443359"/>
      </g>
     </g>
    </g>
    <g id="xtick_2">
     <g id="line2d_2">
      <g>
       <use xlink:href="#md8dcaf41b6" x="89.399275" y="168.671221" style="stroke: #000000; stroke-width: 0.8"/>
      </g>
     </g>
     <g id="text_2">
      <!-- '08-01 -->
      <g transform="translate(80.105241 203.534543) rotate(-45) scale(0.1 -0.1)">
       <defs>
        <path id="DejaVuSans-38" d="M 2034 2216 
Q 1584 2216 1326 1975 
Q 1069 1734 1069 1313 
Q 1069 891 1326 650 
Q 1584 409 2034 409 
Q 2484 409 2743 651 
Q 3003 894 3003 1313 
Q 3003 1734 2745 1975 
Q 2488 2216 2034 2216 
z
M 1403 2484 
Q 997 2584 770 2862 
Q 544 3141 544 3541 
Q 544 4100 942 4425 
Q 1341 4750 2034 4750 
Q 2731 4750 3128 4425 
Q 3525 4100 3525 3541 
Q 3525 3141 3298 2862 
Q 3072 2584 2669 2484 
Q 3125 2378 3379 2068 
Q 3634 1759 3634 1313 
Q 3634 634 3220 271 
Q 2806 -91 2034 -91 
Q 1263 -91 848 271 
Q 434 634 434 1313 
Q 434 1759 690 2068 
Q 947 2378 1403 2484 
z
M 1172 3481 
Q 1172 3119 1398 2916 
Q 1625 2713 2034 2713 
Q 2441 2713 2670 2916 
Q 2900 3119 2900 3481 
Q 2900 3844 2670 4047 
Q 2441 4250 2034 4250 
Q 1625 4250 1398 4047 
Q 1172 3844 1172 3481 
z
" transform="scale(0.015625)"/>
       </defs>
       <use xlink:href="#DejaVuSans-27"/>
       <use xlink:href="#DejaVuSans-30" x="27.490234"/>
       <use xlink:href="#DejaVuSans-38" x="91.113281"/>
       <use xlink:href="#DejaVuSans-2d" x="154.736328"/>
       <use xlink:href="#DejaVuSans-30" x="190.820312"/>
       <use xlink:href="#DejaVuSans-31" x="254.443359"/>
      </g>
     </g>
    </g>
    <g id="xtick_3">
     <g id="line2d_3">
      <g>
       <use xlink:href="#md8dcaf41b6" x="124.097868" y="168.671221" style="stroke: #000000; stroke-width: 0.8"/>
      </g>
     </g>
     <g id="text_3">
      <!-- '08-04 -->
      <g transform="translate(114.803833 203.534543) rotate(-45) scale(0.1 -0.1)">
       <defs>
        <path id="DejaVuSans-34" d="M 2419 4116 
L 825 1625 
L 2419 1625 
L 2419 4116 
z
M 2253 4666 
L 3047 4666 
L 3047 1625 
L 3713 1625 
L 3713 1100 
L 3047 1100 
L 3047 0 
L 2419 0 
L 2419 1100 
L 313 1100 
L 313 1709 
L 2253 4666 
z
" transform="scale(0.015625)"/>
       </defs>
       <use xlink:href="#DejaVuSans-27"/>
       <use xlink:href="#DejaVuSans-30" x="27.490234"/>
       <use xlink:href="#DejaVuSans-38" x="91.113281"/>
       <use xlink:href="#DejaVuSans-2d" x="154.736328"/>
       <use xlink:href="#DejaVuSans-30" x="190.820312"/>
       <use xlink:href="#DejaVuSans-34" x="254.443359"/>
      </g>
     </g>
    </g>
    <g id="xtick_4">
     <g id="line2d_4">
      <g>
       <use xlink:href="#md8dcaf41b6" x="158.79646" y="168.671221" style="stroke: #000000; stroke-width: 0.8"/>
      </g>
     </g>
     <g id="text_4">
      <!-- '08-07 -->
      <g transform="translate(149.502425 203.534543) rotate(-45) scale(0.1 -0.1)">
       <use xlink:href="#DejaVuSans-27"/>
       <use xlink:href="#DejaVuSans-30" x="27.490234"/>
       <use xlink:href="#DejaVuSans-38" x="91.113281"/>
       <use xlink:href="#DejaVuSans-2d" x="154.736328"/>
       <use xlink:href="#DejaVuSans-30" x="190.820312"/>
       <use xlink:href="#DejaVuSans-37" x="254.443359"/>
      </g>
     </g>
    </g>
    <g id="xtick_5">
     <g id="line2d_5">
      <g>
       <use xlink:href="#md8dcaf41b6" x="193.876356" y="168.671221" style="stroke: #000000; stroke-width: 0.8"/>
      </g>
     </g>
     <g id="text_5">
      <!-- '08-10 -->
      <g transform="translate(184.582321 203.534543) rotate(-45) scale(0.1 -0.1)">
       <use xlink:href="#DejaVuSans-27"/>
       <use xlink:href="#DejaVuSans-30" x="27.490234"/>
       <use xlink:href="#DejaVuSans-38" x="91.113281"/>
       <use xlink:href="#DejaVuSans-2d" x="154.736328"/>
       <use xlink:href="#DejaVuSans-31" x="190.820312"/>
       <use xlink:href="#DejaVuSans-30" x="254.443359"/>
      </g>
     </g>
    </g>
    <g id="xtick_6">
     <g id="line2d_6">
      <g>
       <use xlink:href="#md8dcaf41b6" x="228.956251" y="168.671221" style="stroke: #000000; stroke-width: 0.8"/>
      </g>
     </g>
     <g id="text_6">
      <!-- '09-01 -->
      <g transform="translate(219.662217 203.534543) rotate(-45) scale(0.1 -0.1)">
       <defs>
        <path id="DejaVuSans-39" d="M 703 97 
L 703 672 
Q 941 559 1184 500 
Q 1428 441 1663 441 
Q 2288 441 2617 861 
Q 2947 1281 2994 2138 
Q 2813 1869 2534 1725 
Q 2256 1581 1919 1581 
Q 1219 1581 811 2004 
Q 403 2428 403 3163 
Q 403 3881 828 4315 
Q 1253 4750 1959 4750 
Q 2769 4750 3195 4129 
Q 3622 3509 3622 2328 
Q 3622 1225 3098 567 
Q 2575 -91 1691 -91 
Q 1453 -91 1209 -44 
Q 966 3 703 97 
z
M 1959 2075 
Q 2384 2075 2632 2365 
Q 2881 2656 2881 3163 
Q 2881 3666 2632 3958 
Q 2384 4250 1959 4250 
Q 1534 4250 1286 3958 
Q 1038 3666 1038 3163 
Q 1038 2656 1286 2365 
Q 1534 2075 1959 2075 
z
" transform="scale(0.015625)"/>
       </defs>
       <use xlink:href="#DejaVuSans-27"/>
       <use xlink:href="#DejaVuSans-30" x="27.490234"/>
       <use xlink:href="#DejaVuSans-39" x="91.113281"/>
       <use xlink:href="#DejaVuSans-2d" x="154.736328"/>
       <use xlink:href="#DejaVuSans-30" x="190.820312"/>
       <use xlink:href="#DejaVuSans-31" x="254.443359"/>
      </g>
     </g>
    </g>
    <g id="xtick_7">
     <g id="line2d_7">
      <g>
       <use xlink:href="#md8dcaf41b6" x="263.273541" y="168.671221" style="stroke: #000000; stroke-width: 0.8"/>
      </g>
     </g>
     <g id="text_7">
      <!-- '09-04 -->
      <g transform="translate(253.979506 203.534543) rotate(-45) scale(0.1 -0.1)">
       <use xlink:href="#DejaVuSans-27"/>
       <use xlink:href="#DejaVuSans-30" x="27.490234"/>
       <use xlink:href="#DejaVuSans-39" x="91.113281"/>
       <use xlink:href="#DejaVuSans-2d" x="154.736328"/>
       <use xlink:href="#DejaVuSans-30" x="190.820312"/>
       <use xlink:href="#DejaVuSans-34" x="254.443359"/>
      </g>
     </g>
    </g>
    <g id="xtick_8">
     <g id="line2d_8">
      <g>
       <use xlink:href="#md8dcaf41b6" x="297.972133" y="168.671221" style="stroke: #000000; stroke-width: 0.8"/>
      </g>
     </g>
     <g id="text_8">
      <!-- '09-07 -->
      <g transform="translate(288.678098 203.534543) rotate(-45) scale(0.1 -0.1)">
       <use xlink:href="#DejaVuSans-27"/>
       <use xlink:href="#DejaVuSans-30" x="27.490234"/>
       <use xlink:href="#DejaVuSans-39" x="91.113281"/>
       <use xlink:href="#DejaVuSans-2d" x="154.736328"/>
       <use xlink:href="#DejaVuSans-30" x="190.820312"/>
       <use xlink:href="#DejaVuSans-37" x="254.443359"/>
      </g>
     </g>
    </g>
    <g id="xtick_9">
     <g id="line2d_9">
      <g>
       <use xlink:href="#md8dcaf41b6" x="333.052029" y="168.671221" style="stroke: #000000; stroke-width: 0.8"/>
      </g>
     </g>
     <g id="text_9">
      <!-- '09-10 -->
      <g transform="translate(323.757994 203.534543) rotate(-45) scale(0.1 -0.1)">
       <use xlink:href="#DejaVuSans-27"/>
       <use xlink:href="#DejaVuSans-30" x="27.490234"/>
       <use xlink:href="#DejaVuSans-39" x="91.113281"/>
       <use xlink:href="#DejaVuSans-2d" x="154.736328"/>
       <use xlink:href="#DejaVuSans-31" x="190.820312"/>
       <use xlink:href="#DejaVuSans-30" x="254.443359"/>
      </g>
     </g>
    </g>
   </g>
   <g id="matplotlib.axis_2">
    <g id="ytick_1">
     <g id="line2d_10">
      <defs>
       <path id="mbe02a666fe" d="M 0 0 
L -3.5 0 
" style="stroke: #000000; stroke-width: 0.8"/>
      </defs>
      <g>
       <use xlink:href="#mbe02a666fe" x="43.09" y="159.305445" style="stroke: #000000; stroke-width: 0.8"/>
      </g>
     </g>
     <g id="text_10">
      <!-- 700 -->
      <g transform="translate(17.0025 163.104664) scale(0.1 -0.1)">
       <use xlink:href="#DejaVuSans-37"/>
       <use xlink:href="#DejaVuSans-30" x="63.623047"/>
       <use xlink:href="#DejaVuSans-30" x="127.246094"/>
      </g>
     </g>
    </g>
    <g id="ytick_2">
     <g id="line2d_11">
      <g>
       <use xlink:href="#mbe02a666fe" x="43.09" y="120.362512" style="stroke: #000000; stroke-width: 0.8"/>
      </g>
     </g>
     <g id="text_11">
      <!-- 800 -->
      <g transform="translate(17.0025 124.161731) scale(0.1 -0.1)">
       <use xlink:href="#DejaVuSans-38"/>
       <use xlink:href="#DejaVuSans-30" x="63.623047"/>
       <use xlink:href="#DejaVuSans-30" x="127.246094"/>
      </g>
     </g>
    </g>
    <g id="ytick_3">
     <g id="line2d_12">
      <g>
       <use xlink:href="#mbe02a666fe" x="43.09" y="81.419578" style="stroke: #000000; stroke-width: 0.8"/>
      </g>
     </g>
     <g id="text_12">
      <!-- 900 -->
      <g transform="translate(17.0025 85.218797) scale(0.1 -0.1)">
       <use xlink:href="#DejaVuSans-39"/>
       <use xlink:href="#DejaVuSans-30" x="63.623047"/>
       <use xlink:href="#DejaVuSans-30" x="127.246094"/>
      </g>
     </g>
    </g>
    <g id="ytick_4">
     <g id="line2d_13">
      <g>
       <use xlink:href="#mbe02a666fe" x="43.09" y="42.476645" style="stroke: #000000; stroke-width: 0.8"/>
      </g>
     </g>
     <g id="text_13">
      <!-- 1000 -->
      <g transform="translate(10.64 46.275864) scale(0.1 -0.1)">
       <use xlink:href="#DejaVuSans-31"/>
       <use xlink:href="#DejaVuSans-30" x="63.623047"/>
       <use xlink:href="#DejaVuSans-30" x="127.246094"/>
       <use xlink:href="#DejaVuSans-30" x="190.869141"/>
      </g>
     </g>
    </g>
   </g>
   <g id="line2d_14">
    <path d="M 195.782872 106.148341 
L 196.164175 88.526664 
L 196.545478 76.356997 
L 196.926782 86.579517 
L 197.308085 102.059333 
L 198.451994 108.679632 
L 198.833298 106.9272 
L 199.214601 101.475189 
L 199.595904 118.61008 
L 199.977207 127.37224 
L 201.121117 119.194224 
L 201.883723 136.913259 
L 202.64633 162.226165 
L 203.790239 151.322144 
L 204.171543 141.781125 
L 204.552846 140.126051 
L 204.934149 131.169176 
L 205.315452 148.206709 
L 206.459362 146.064848 
L 206.840665 146.064848 
L 207.221968 138.568333 
L 207.603272 144.117701 
L 209.128484 139.152477 
L 209.891091 147.038421 
L 210.272394 153.853435 
L 210.653697 147.81728 
L 211.797607 141.781125 
L 212.17891 145.091275 
L 212.560213 144.604488 
L 212.941517 141.683768 
L 213.32282 136.523829 
L 214.466729 113.83957 
L 214.848033 119.388938 
L 215.229336 113.742213 
L 215.610639 115.105216 
L 215.991942 115.105216 
L 217.135852 122.114944 
L 217.517155 131.071819 
L 217.898458 130.682389 
L 218.661065 131.363891 
L 219.804974 131.169176 
L 220.186278 131.655963 
L 220.567581 125.91188 
L 220.948884 112.184496 
L 221.330187 115.007858 
L 222.474097 109.653205 
L 222.8554 107.316629 
L 223.618006 92.128885 
L 223.99931 105.174768 
L 225.143219 102.448762 
L 225.524523 103.227621 
L 225.905826 106.050984 
L 227.812342 88.818736 
L 228.193645 93.102458 
L 228.574948 95.049605 
L 229.337555 93.199816 
L 230.481464 96.996752 
L 230.862768 103.227621 
L 231.244071 95.439034 
L 231.625374 103.811765 
L 232.006677 99.333328 
L 233.150587 101.475189 
L 233.53189 114.326357 
L 233.913193 109.750562 
L 234.294496 115.29993 
L 234.6758 110.91885 
L 235.819709 103.811765 
L 236.201013 106.732485 
L 236.582316 96.802037 
L 236.963619 101.767261 
L 237.344922 91.93417 
L 238.488832 78.888288 
L 238.870135 82.977296 
L 239.251438 84.827085 
L 239.632741 89.792309 
L 240.014045 74.215136 
L 241.157954 76.064925 
L 241.539258 80.64072 
L 241.920561 80.543362 
L 242.301864 75.675496 
L 242.683167 75.967568 
L 244.20838 82.977296 
L 244.970986 64.284688 
L 245.35229 66.134477 
L 246.496199 64.674117 
L 246.877503 57.177602 
L 247.258806 56.204029 
L 248.021412 49.875802 
L 249.165322 47.539226 
L 249.546625 46.468296 
L 249.927928 59.514178 
L 250.309231 63.895258 
L 250.690535 64.382045 
L 251.834444 62.142826 
L 252.215748 71.781202 
L 252.597051 77.135856 
L 252.978354 76.25964 
L 253.359657 66.718621 
L 254.503567 67.886909 
L 254.88487 76.941141 
L 255.266173 81.419578 
L 255.647476 75.772853 
L 256.02878 73.630992 
L 257.172689 72.462704 
L 257.553992 73.630992 
L 257.935296 77.233213 
L 258.697902 59.222106 
L 259.841812 60.877181 
L 260.223115 70.223485 
L 260.604418 73.144205 
L 260.985721 67.594837 
L 261.367025 70.904986 
L 262.510934 72.462704 
L 262.892237 74.215136 
L 263.273541 73.825706 
L 263.654844 75.675496 
L 264.036147 80.835434 
L 265.180057 89.40288 
L 265.56136 89.500237 
L 265.942663 86.384802 
L 266.323966 87.747805 
L 268.230482 83.366725 
L 268.993089 85.703301 
L 269.374392 92.3236 
L 270.518302 93.102458 
L 270.899605 85.800658 
L 271.280908 87.261018 
L 271.662211 83.56144 
L 272.043515 77.914714 
L 273.187424 76.843784 
L 273.568727 82.587866 
L 273.950031 83.56144 
L 274.331334 85.703301 
L 274.712637 88.624021 
L 276.23785 80.25129 
L 276.619153 80.056576 
L 277.000456 76.454354 
L 277.38176 74.604565 
L 278.525669 76.551712 
L 279.288276 71.391773 
L 279.669579 72.365346 
L 281.194792 69.834056 
L 281.576095 73.046848 
L 281.957398 70.320842 
L 282.720005 60.974538 
L 284.245217 65.063546 
L 284.626521 62.142826 
L 285.007824 62.045469 
L 285.389127 53.380666 
L 286.533037 47.539226 
L 286.91434 52.796522 
L 287.295643 50.654661 
L 287.676946 55.230456 
L 288.05825 51.141448 
L 289.202159 63.311114 
L 289.583462 60.974538 
L 289.964766 57.567032 
L 290.346069 60.779824 
L 290.727372 61.948112 
L 291.871282 68.95784 
L 292.252585 67.10805 
L 292.633888 68.276338 
L 293.015191 67.10805 
L 294.540404 72.073274 
L 294.921707 73.533634 
L 295.303011 70.223485 
L 295.684314 68.081624 
L 296.065617 64.674117 
L 297.209527 65.939762 
L 297.59083 65.452976 
L 297.972133 69.152554 
L 298.353436 67.400122 
L 299.878649 73.046848 
L 300.259952 71.391773 
L 301.403862 77.525285 
L 302.547772 78.109429 
L 302.929075 72.94949 
L 303.310378 69.736698 
L 303.691681 67.692194 
L 304.072985 67.984266 
L 305.216894 61.071896 
L 305.598197 62.824328 
L 305.979501 63.700544 
L 306.360804 59.903608 
L 306.742107 62.045469 
L 307.886017 59.611536 
L 308.26732 60.000965 
L 308.648623 67.594837 
L 309.029926 68.95784 
L 309.41123 67.205408 
L 310.555139 60.293037 
L 310.936442 60.585109 
L 311.317746 56.301386 
L 311.699049 57.761746 
L 312.080352 57.859104 
L 313.224262 60.585109 
L 313.605565 63.505829 
L 313.986868 64.479402 
L 314.368171 59.611536 
L 314.749475 59.027392 
L 315.893384 66.815978 
L 316.274687 66.523906 
L 316.655991 68.081624 
L 317.037294 64.479402 
L 317.418597 65.258261 
L 318.562507 60.487752 
L 318.94381 62.921685 
L 319.325113 62.142826 
L 319.706416 64.479402 
L 320.08772 61.65604 
L 321.612932 62.045469 
L 321.994236 60.000965 
L 322.375539 49.291658 
L 322.756842 47.441869 
L 323.900752 45.300008 
L 324.282055 40.724213 
L 325.044661 46.955082 
L 325.425965 43.158146 
L 326.569874 44.715864 
L 326.951177 43.450218 
L 327.332481 35.856346 
L 327.713784 34.493343 
L 328.095087 37.024634 
L 329.238997 42.768717 
L 329.6203 36.343133 
L 330.382906 37.024634 
L 330.76421 43.644933 
L 331.908119 46.176224 
L 332.289422 45.689437 
L 332.670726 41.989858 
L 333.052029 40.237426 
L 333.433332 43.255504 
L 334.577242 40.82157 
L 334.958545 34.590701 
L 334.958545 34.590701 
" clip-path="url(#pa84d52e580)" style="fill: none; stroke: #d3d3d3; stroke-linecap: square"/>
   </g>
   <g id="line2d_15">
    <path d="M 56.988502 145.091275 
L 57.369805 148.08988 
L 57.751109 143.533557 
L 58.132412 140.807552 
L 58.513715 140.418123 
L 59.657625 137.555817 
L 60.038928 135.258184 
L 60.801534 136.582244 
L 61.182837 132.726893 
L 62.326747 137.653174 
L 62.70805 136.913259 
L 63.089354 136.971673 
L 63.470657 133.992539 
L 63.85196 129.864588 
L 64.99587 123.283232 
L 65.377173 126.593381 
L 65.758476 126.982811 
L 66.139779 123.477947 
L 66.521082 123.964733 
L 67.664992 119.388938 
L 68.046295 113.528027 
L 68.427599 104.103837 
L 68.808902 107.803416 
L 69.190205 106.343056 
L 70.334115 113.742213 
L 70.715418 119.038452 
L 71.096721 117.14972 
L 71.478024 118.025936 
L 71.859327 124.159448 
L 73.003237 124.840949 
L 73.38454 124.393105 
L 74.52845 116.273504 
L 75.67236 106.245698 
L 76.053663 111.30828 
L 76.434966 121.725515 
L 76.816269 117.539149 
L 77.197572 122.407016 
L 78.341482 126.690739 
L 78.722785 124.159448 
L 79.104089 119.68101 
L 79.485392 124.743592 
L 79.866695 120.459869 
L 81.010605 120.362512 
L 81.391908 117.733864 
L 81.773211 117.441792 
L 82.154514 116.857648 
L 82.535817 121.822872 
L 83.679727 125.425093 
L 84.06103 121.822872 
L 84.442334 119.778368 
L 84.823637 120.557226 
L 85.20494 119.194224 
L 86.34885 116.370861 
L 87.492759 111.600352 
L 87.874062 109.263776 
L 89.017972 106.148341 
L 89.780579 104.493266 
L 90.161882 94.913305 
L 90.543185 97.483538 
L 91.687095 97.970325 
L 92.449701 86.151145 
L 92.831004 91.447384 
L 93.212307 83.853512 
L 94.356217 76.941141 
L 94.73752 79.569789 
L 95.118823 88.818736 
L 95.500127 88.624021 
L 95.88143 92.031528 
L 97.02534 91.447384 
L 97.406643 96.217893 
L 97.787946 86.170616 
L 98.169249 84.729728 
L 98.550552 73.144205 
L 99.694462 74.993994 
L 100.075765 70.710272 
L 100.457068 72.170632 
L 100.838372 72.170632 
L 101.219675 68.56841 
L 102.744888 85.411229 
L 103.126191 84.535013 
L 103.507494 78.206786 
L 103.888797 75.967568 
L 105.032707 71.48913 
L 105.41401 73.533634 
L 105.795313 79.18036 
L 106.176617 77.19427 
L 106.55792 77.622642 
L 107.70183 79.472432 
L 108.464436 71.742259 
L 108.845739 64.674117 
L 109.227042 63.603186 
L 110.370952 62.921685 
L 110.752255 68.178981 
L 111.133558 58.540605 
L 111.514862 59.222106 
L 111.896165 54.548954 
L 113.421378 49.58373 
L 113.802681 55.619885 
L 114.183984 47.831298 
L 114.565287 50.849376 
L 115.709197 52.932823 
L 116.0905 50.070517 
L 116.471803 51.920306 
L 116.853107 47.05244 
L 118.37832 33.325055 
L 118.759623 40.237426 
L 119.140926 44.326434 
L 119.522229 76.162282 
L 121.428745 69.483569 
L 121.810048 63.603186 
L 122.191352 62.629613 
L 122.572655 64.089973 
L 123.716565 66.913336 
L 124.097868 82.587866 
L 124.479171 83.950869 
L 124.860474 82.10108 
L 125.241777 79.375074 
L 126.385687 75.694967 
L 126.76699 73.241562 
L 127.148293 78.79093 
L 127.529597 68.081624 
L 127.9109 71.48913 
L 129.05481 74.507208 
L 129.436113 69.055197 
L 129.817416 68.665768 
L 130.198719 61.363968 
L 131.723932 75.286066 
L 132.105235 73.33892 
L 132.486538 75.091352 
L 133.249145 87.845162 
L 134.393054 84.437656 
L 134.774358 86.871589 
L 135.155661 93.978674 
L 135.536964 95.633749 
L 135.918267 99.23597 
L 137.44348 89.987024 
L 137.824783 91.544741 
L 138.206087 92.226242 
L 138.58739 86.384802 
L 139.731299 88.234592 
L 140.112603 90.376453 
L 140.493906 95.828464 
L 140.875209 94.562818 
L 141.256512 87.261018 
L 142.400422 78.012072 
L 142.781725 78.693573 
L 143.163028 71.683845 
L 143.544332 70.4182 
L 143.925635 72.754776 
L 145.450848 72.170632 
L 145.832151 84.535013 
L 146.213454 84.145584 
L 146.594757 89.40288 
L 148.11997 83.17201 
L 148.501273 90.279096 
L 148.882577 91.93417 
L 149.26388 87.845162 
L 150.407789 79.764504 
L 150.789093 87.455733 
L 151.170396 91.447384 
L 151.551699 92.615672 
L 151.933002 95.439034 
L 153.076912 92.3236 
L 153.458215 88.039877 
L 153.839518 87.650448 
L 154.602125 81.419578 
L 155.746034 79.375074 
L 156.127338 85.898016 
L 156.508641 86.384802 
L 156.889944 84.340298 
L 157.271247 72.462704 
L 158.415157 68.665768 
L 158.79646 69.931413 
L 159.177763 67.400122 
L 159.559067 65.939762 
L 159.94037 69.444626 
L 161.084279 73.241562 
L 161.465583 70.02877 
L 161.846886 72.365346 
L 162.228189 69.444626 
L 162.609492 62.337541 
L 163.753402 58.930034 
L 164.134705 49.58373 
L 164.897312 56.301386 
L 165.278615 57.469674 
L 166.422524 55.619885 
L 166.803828 52.991237 
L 167.185131 67.886909 
L 167.566434 70.612914 
L 167.947737 68.860482 
L 169.091647 70.02877 
L 169.47295 70.223485 
L 169.854253 75.928625 
L 170.61686 77.72 
L 171.760769 77.525285 
L 172.142073 87.650448 
L 172.523376 87.358376 
L 172.904679 88.234592 
L 173.285982 95.24432 
L 174.429892 95.536392 
L 174.811195 116.955005 
L 175.192498 111.016208 
L 175.573802 107.413986 
L 175.955105 126.301309 
L 177.099014 121.336085 
L 177.480318 123.867376 
L 178.242924 112.184496 
L 178.624227 108.679632 
L 180.14944 116.565576 
L 180.530743 107.316629 
L 180.912047 107.900773 
L 181.29335 106.148341 
L 182.437259 107.900773 
L 182.818563 119.388938 
L 183.199866 122.504373 
L 183.581169 116.273504 
L 183.962472 121.822872 
L 185.106382 117.831221 
L 185.487685 120.459869 
L 186.250292 142.657341 
L 186.631595 136.913259 
L 187.775504 128.443171 
L 188.156808 128.248456 
L 188.538111 126.009237 
L 188.919414 95.341677 
L 189.300717 105.758912 
L 190.444627 91.93417 
L 190.82593 84.340298 
L 191.207233 85.898016 
L 191.588537 85.703301 
L 191.96984 93.491888 
L 193.113749 90.571168 
L 193.495053 82.587866 
L 193.876356 90.765882 
L 194.257659 94.562818 
L 194.638962 103.811765 
L 195.782872 106.148341 
L 195.782872 106.148341 
" clip-path="url(#pa84d52e580)" style="fill: none; stroke: #000000; stroke-linecap: square"/>
   </g>
   <g id="patch_3">
    <path d="M 43.09 168.671221 
L 43.09 26.88 
" style="fill: none; stroke: #000000; stroke-width: 0.8; stroke-linejoin: miter; stroke-linecap: square"/>
   </g>
   <g id="patch_4">
    <path d="M 348.857047 168.671221 
L 348.857047 26.88 
" style="fill: none; stroke: #000000; stroke-width: 0.8; stroke-linejoin: miter; stroke-linecap: square"/>
   </g>
   <g id="patch_5">
    <path d="M 43.09 168.671221 
L 348.857047 168.671221 
" style="fill: none; stroke: #000000; stroke-width: 0.8; stroke-linejoin: miter; stroke-linecap: square"/>
   </g>
   <g id="patch_6">
    <path d="M 43.09 26.88 
L 348.857047 26.88 
" style="fill: none; stroke: #000000; stroke-width: 0.8; stroke-linejoin: miter; stroke-linecap: square"/>
   </g>
   <g id="text_14">
    <!-- Gold -->
    <g transform="translate(182.177273 20.88) scale(0.12 -0.12)">
     <defs>
      <path id="DejaVuSans-47" d="M 3809 666 
L 3809 1919 
L 2778 1919 
L 2778 2438 
L 4434 2438 
L 4434 434 
Q 4069 175 3628 42 
Q 3188 -91 2688 -91 
Q 1594 -91 976 548 
Q 359 1188 359 2328 
Q 359 3472 976 4111 
Q 1594 4750 2688 4750 
Q 3144 4750 3555 4637 
Q 3966 4525 4313 4306 
L 4313 3634 
Q 3963 3931 3569 4081 
Q 3175 4231 2741 4231 
Q 1884 4231 1454 3753 
Q 1025 3275 1025 2328 
Q 1025 1384 1454 906 
Q 1884 428 2741 428 
Q 3075 428 3337 486 
Q 3600 544 3809 666 
z
" transform="scale(0.015625)"/>
      <path id="DejaVuSans-6f" d="M 1959 3097 
Q 1497 3097 1228 2736 
Q 959 2375 959 1747 
Q 959 1119 1226 758 
Q 1494 397 1959 397 
Q 2419 397 2687 759 
Q 2956 1122 2956 1747 
Q 2956 2369 2687 2733 
Q 2419 3097 1959 3097 
z
M 1959 3584 
Q 2709 3584 3137 3096 
Q 3566 2609 3566 1747 
Q 3566 888 3137 398 
Q 2709 -91 1959 -91 
Q 1206 -91 779 398 
Q 353 888 353 1747 
Q 353 2609 779 3096 
Q 1206 3584 1959 3584 
z
" transform="scale(0.015625)"/>
      <path id="DejaVuSans-6c" d="M 603 4863 
L 1178 4863 
L 1178 0 
L 603 0 
L 603 4863 
z
" transform="scale(0.015625)"/>
      <path id="DejaVuSans-64" d="M 2906 2969 
L 2906 4863 
L 3481 4863 
L 3481 0 
L 2906 0 
L 2906 525 
Q 2725 213 2448 61 
Q 2172 -91 1784 -91 
Q 1150 -91 751 415 
Q 353 922 353 1747 
Q 353 2572 751 3078 
Q 1150 3584 1784 3584 
Q 2172 3584 2448 3432 
Q 2725 3281 2906 2969 
z
M 947 1747 
Q 947 1113 1208 752 
Q 1469 391 1925 391 
Q 2381 391 2643 752 
Q 2906 1113 2906 1747 
Q 2906 2381 2643 2742 
Q 2381 3103 1925 3103 
Q 1469 3103 1208 2742 
Q 947 2381 947 1747 
z
" transform="scale(0.015625)"/>
     </defs>
     <use xlink:href="#DejaVuSans-47"/>
     <use xlink:href="#DejaVuSans-6f" x="77.490234"/>
     <use xlink:href="#DejaVuSans-6c" x="138.671875"/>
     <use xlink:href="#DejaVuSans-64" x="166.455078"/>
    </g>
   </g>
  </g>
 </g>
 <defs>
  <clipPath id="pa84d52e580">
   <rect x="43.09" y="26.88" width="305.767047" height="141.791221"/>
  </clipPath>
 </defs>
</svg>
