<?xml version="1.0" encoding="utf-8" standalone="no"?>
<!DOCTYPE svg PUBLIC "-//W3C//DTD SVG 1.1//EN"
  "http://www.w3.org/Graphics/SVG/1.1/DTD/svg11.dtd">
<svg xmlns:xlink="http://www.w3.org/1999/xlink" width="360pt" height="216pt" viewBox="0 0 360 216" xmlns="http://www.w3.org/2000/svg" version="1.1">
 <metadata>
  <rdf:RDF xmlns:dc="http://purl.org/dc/elements/1.1/" xmlns:cc="http://creativecommons.org/ns#" xmlns:rdf="http://www.w3.org/1999/02/22-rdf-syntax-ns#">
   <cc:Work>
    <dc:type rdf:resource="http://purl.org/dc/dcmitype/StillImage"/>
    <dc:date>2023-03-24T15:59:34.201857</dc:date>
    <dc:format>image/svg+xml</dc:format>
    <dc:creator>
     <cc:Agent>
      <dc:title>Matplotlib v3.6.3, https://matplotlib.org/</dc:title>
     </cc:Agent>
    </dc:creator>
   </cc:Work>
  </rdf:RDF>
 </metadata>
 <defs>
  <style type="text/css">*{stroke-linejoin: round; stroke-linecap: butt}</style>
 </defs>
 <g id="figure_1">
  <g id="patch_1">
   <path d="M 0 216 
L 360 216 
L 360 0 
L 0 0 
z
" style="fill: #ffffff"/>
  </g>
  <g id="axes_1">
   <g id="patch_2">
    <path d="M 43.09 168.671221 
L 342.600617 168.671221 
L 342.600617 26.88 
L 43.09 26.88 
z
" style="fill: #ffffff"/>
   </g>
   <g id="matplotlib.axis_1">
    <g id="xtick_1">
     <g id="line2d_1">
      <defs>
       <path id="md45b3a58f4" d="M 0 0 
L 0 3.5 
" style="stroke: #000000; stroke-width: 0.8"/>
      </defs>
      <g>
       <use xlink:href="#md45b3a58f4" x="61.179994" y="168.671221" style="stroke: #000000; stroke-width: 0.8"/>
      </g>
     </g>
     <g id="text_1">
      <!-- '07-10 -->
      <g transform="translate(51.885959 203.534543) rotate(-45) scale(0.1 -0.1)">
       <defs>
        <path id="DejaVuSans-27" d="M 1147 4666 
L 1147 2931 
L 616 2931 
L 616 4666 
L 1147 4666 
z
" transform="scale(0.015625)"/>
        <path id="DejaVuSans-30" d="M 2034 4250 
Q 1547 4250 1301 3770 
Q 1056 3291 1056 2328 
Q 1056 1369 1301 889 
Q 1547 409 2034 409 
Q 2525 409 2770 889 
Q 3016 1369 3016 2328 
Q 3016 3291 2770 3770 
Q 2525 4250 2034 4250 
z
M 2034 4750 
Q 2819 4750 3233 4129 
Q 3647 3509 3647 2328 
Q 3647 1150 3233 529 
Q 2819 -91 2034 -91 
Q 1250 -91 836 529 
Q 422 1150 422 2328 
Q 422 3509 836 4129 
Q 1250 4750 2034 4750 
z
" transform="scale(0.015625)"/>
        <path id="DejaVuSans-37" d="M 525 4666 
L 3525 4666 
L 3525 4397 
L 1831 0 
L 1172 0 
L 2766 4134 
L 525 4134 
L 525 4666 
z
" transform="scale(0.015625)"/>
        <path id="DejaVuSans-2d" d="M 313 2009 
L 1997 2009 
L 1997 1497 
L 313 1497 
L 313 2009 
z
" transform="scale(0.015625)"/>
        <path id="DejaVuSans-31" d="M 794 531 
L 1825 531 
L 1825 4091 
L 703 3866 
L 703 4441 
L 1819 4666 
L 2450 4666 
L 2450 531 
L 3481 531 
L 3481 0 
L 794 0 
L 794 531 
z
" transform="scale(0.015625)"/>
       </defs>
       <use xlink:href="#DejaVuSans-27"/>
       <use xlink:href="#DejaVuSans-30" x="27.490234"/>
       <use xlink:href="#DejaVuSans-37" x="91.113281"/>
       <use xlink:href="#DejaVuSans-2d" x="154.736328"/>
       <use xlink:href="#DejaVuSans-31" x="190.820312"/>
       <use xlink:href="#DejaVuSans-30" x="254.443359"/>
      </g>
     </g>
    </g>
    <g id="xtick_2">
     <g id="line2d_2">
      <g>
       <use xlink:href="#md45b3a58f4" x="95.495033" y="168.671221" style="stroke: #000000; stroke-width: 0.8"/>
      </g>
     </g>
     <g id="text_2">
      <!-- '08-01 -->
      <g transform="translate(86.200998 203.534543) rotate(-45) scale(0.1 -0.1)">
       <defs>
        <path id="DejaVuSans-38" d="M 2034 2216 
Q 1584 2216 1326 1975 
Q 1069 1734 1069 1313 
Q 1069 891 1326 650 
Q 1584 409 2034 409 
Q 2484 409 2743 651 
Q 3003 894 3003 1313 
Q 3003 1734 2745 1975 
Q 2488 2216 2034 2216 
z
M 1403 2484 
Q 997 2584 770 2862 
Q 544 3141 544 3541 
Q 544 4100 942 4425 
Q 1341 4750 2034 4750 
Q 2731 4750 3128 4425 
Q 3525 4100 3525 3541 
Q 3525 3141 3298 2862 
Q 3072 2584 2669 2484 
Q 3125 2378 3379 2068 
Q 3634 1759 3634 1313 
Q 3634 634 3220 271 
Q 2806 -91 2034 -91 
Q 1263 -91 848 271 
Q 434 634 434 1313 
Q 434 1759 690 2068 
Q 947 2378 1403 2484 
z
M 1172 3481 
Q 1172 3119 1398 2916 
Q 1625 2713 2034 2713 
Q 2441 2713 2670 2916 
Q 2900 3119 2900 3481 
Q 2900 3844 2670 4047 
Q 2441 4250 2034 4250 
Q 1625 4250 1398 4047 
Q 1172 3844 1172 3481 
z
" transform="scale(0.015625)"/>
       </defs>
       <use xlink:href="#DejaVuSans-27"/>
       <use xlink:href="#DejaVuSans-30" x="27.490234"/>
       <use xlink:href="#DejaVuSans-38" x="91.113281"/>
       <use xlink:href="#DejaVuSans-2d" x="154.736328"/>
       <use xlink:href="#DejaVuSans-30" x="190.820312"/>
       <use xlink:href="#DejaVuSans-31" x="254.443359"/>
      </g>
     </g>
    </g>
    <g id="xtick_3">
     <g id="line2d_3">
      <g>
       <use xlink:href="#md45b3a58f4" x="129.437083" y="168.671221" style="stroke: #000000; stroke-width: 0.8"/>
      </g>
     </g>
     <g id="text_3">
      <!-- '08-04 -->
      <g transform="translate(120.143048 203.534543) rotate(-45) scale(0.1 -0.1)">
       <defs>
        <path id="DejaVuSans-34" d="M 2419 4116 
L 825 1625 
L 2419 1625 
L 2419 4116 
z
M 2253 4666 
L 3047 4666 
L 3047 1625 
L 3713 1625 
L 3713 1100 
L 3047 1100 
L 3047 0 
L 2419 0 
L 2419 1100 
L 313 1100 
L 313 1709 
L 2253 4666 
z
" transform="scale(0.015625)"/>
       </defs>
       <use xlink:href="#DejaVuSans-27"/>
       <use xlink:href="#DejaVuSans-30" x="27.490234"/>
       <use xlink:href="#DejaVuSans-38" x="91.113281"/>
       <use xlink:href="#DejaVuSans-2d" x="154.736328"/>
       <use xlink:href="#DejaVuSans-30" x="190.820312"/>
       <use xlink:href="#DejaVuSans-34" x="254.443359"/>
      </g>
     </g>
    </g>
    <g id="xtick_4">
     <g id="line2d_4">
      <g>
       <use xlink:href="#md45b3a58f4" x="163.379133" y="168.671221" style="stroke: #000000; stroke-width: 0.8"/>
      </g>
     </g>
     <g id="text_4">
      <!-- '08-07 -->
      <g transform="translate(154.085098 203.534543) rotate(-45) scale(0.1 -0.1)">
       <use xlink:href="#DejaVuSans-27"/>
       <use xlink:href="#DejaVuSans-30" x="27.490234"/>
       <use xlink:href="#DejaVuSans-38" x="91.113281"/>
       <use xlink:href="#DejaVuSans-2d" x="154.736328"/>
       <use xlink:href="#DejaVuSans-30" x="190.820312"/>
       <use xlink:href="#DejaVuSans-37" x="254.443359"/>
      </g>
     </g>
    </g>
    <g id="xtick_5">
     <g id="line2d_5">
      <g>
       <use xlink:href="#md45b3a58f4" x="197.694173" y="168.671221" style="stroke: #000000; stroke-width: 0.8"/>
      </g>
     </g>
     <g id="text_5">
      <!-- '08-10 -->
      <g transform="translate(188.400138 203.534543) rotate(-45) scale(0.1 -0.1)">
       <use xlink:href="#DejaVuSans-27"/>
       <use xlink:href="#DejaVuSans-30" x="27.490234"/>
       <use xlink:href="#DejaVuSans-38" x="91.113281"/>
       <use xlink:href="#DejaVuSans-2d" x="154.736328"/>
       <use xlink:href="#DejaVuSans-31" x="190.820312"/>
       <use xlink:href="#DejaVuSans-30" x="254.443359"/>
      </g>
     </g>
    </g>
    <g id="xtick_6">
     <g id="line2d_6">
      <g>
       <use xlink:href="#md45b3a58f4" x="232.009212" y="168.671221" style="stroke: #000000; stroke-width: 0.8"/>
      </g>
     </g>
     <g id="text_6">
      <!-- '09-01 -->
      <g transform="translate(222.715177 203.534543) rotate(-45) scale(0.1 -0.1)">
       <defs>
        <path id="DejaVuSans-39" d="M 703 97 
L 703 672 
Q 941 559 1184 500 
Q 1428 441 1663 441 
Q 2288 441 2617 861 
Q 2947 1281 2994 2138 
Q 2813 1869 2534 1725 
Q 2256 1581 1919 1581 
Q 1219 1581 811 2004 
Q 403 2428 403 3163 
Q 403 3881 828 4315 
Q 1253 4750 1959 4750 
Q 2769 4750 3195 4129 
Q 3622 3509 3622 2328 
Q 3622 1225 3098 567 
Q 2575 -91 1691 -91 
Q 1453 -91 1209 -44 
Q 966 3 703 97 
z
M 1959 2075 
Q 2384 2075 2632 2365 
Q 2881 2656 2881 3163 
Q 2881 3666 2632 3958 
Q 2384 4250 1959 4250 
Q 1534 4250 1286 3958 
Q 1038 3666 1038 3163 
Q 1038 2656 1286 2365 
Q 1534 2075 1959 2075 
z
" transform="scale(0.015625)"/>
       </defs>
       <use xlink:href="#DejaVuSans-27"/>
       <use xlink:href="#DejaVuSans-30" x="27.490234"/>
       <use xlink:href="#DejaVuSans-39" x="91.113281"/>
       <use xlink:href="#DejaVuSans-2d" x="154.736328"/>
       <use xlink:href="#DejaVuSans-30" x="190.820312"/>
       <use xlink:href="#DejaVuSans-31" x="254.443359"/>
      </g>
     </g>
    </g>
    <g id="xtick_7">
     <g id="line2d_7">
      <g>
       <use xlink:href="#md45b3a58f4" x="265.578273" y="168.671221" style="stroke: #000000; stroke-width: 0.8"/>
      </g>
     </g>
     <g id="text_7">
      <!-- '09-04 -->
      <g transform="translate(256.284238 203.534543) rotate(-45) scale(0.1 -0.1)">
       <use xlink:href="#DejaVuSans-27"/>
       <use xlink:href="#DejaVuSans-30" x="27.490234"/>
       <use xlink:href="#DejaVuSans-39" x="91.113281"/>
       <use xlink:href="#DejaVuSans-2d" x="154.736328"/>
       <use xlink:href="#DejaVuSans-30" x="190.820312"/>
       <use xlink:href="#DejaVuSans-34" x="254.443359"/>
      </g>
     </g>
    </g>
    <g id="xtick_8">
     <g id="line2d_8">
      <g>
       <use xlink:href="#md45b3a58f4" x="299.520322" y="168.671221" style="stroke: #000000; stroke-width: 0.8"/>
      </g>
     </g>
     <g id="text_8">
      <!-- '09-07 -->
      <g transform="translate(290.226288 203.534543) rotate(-45) scale(0.1 -0.1)">
       <use xlink:href="#DejaVuSans-27"/>
       <use xlink:href="#DejaVuSans-30" x="27.490234"/>
       <use xlink:href="#DejaVuSans-39" x="91.113281"/>
       <use xlink:href="#DejaVuSans-2d" x="154.736328"/>
       <use xlink:href="#DejaVuSans-30" x="190.820312"/>
       <use xlink:href="#DejaVuSans-37" x="254.443359"/>
      </g>
     </g>
    </g>
    <g id="xtick_9">
     <g id="line2d_9">
      <g>
       <use xlink:href="#md45b3a58f4" x="333.835362" y="168.671221" style="stroke: #000000; stroke-width: 0.8"/>
      </g>
     </g>
     <g id="text_9">
      <!-- '09-10 -->
      <g transform="translate(324.541327 203.534543) rotate(-45) scale(0.1 -0.1)">
       <use xlink:href="#DejaVuSans-27"/>
       <use xlink:href="#DejaVuSans-30" x="27.490234"/>
       <use xlink:href="#DejaVuSans-39" x="91.113281"/>
       <use xlink:href="#DejaVuSans-2d" x="154.736328"/>
       <use xlink:href="#DejaVuSans-31" x="190.820312"/>
       <use xlink:href="#DejaVuSans-30" x="254.443359"/>
      </g>
     </g>
    </g>
   </g>
   <g id="matplotlib.axis_2">
    <g id="ytick_1">
     <g id="line2d_10">
      <defs>
       <path id="m99bfd63e2a" d="M 0 0 
L -3.5 0 
" style="stroke: #000000; stroke-width: 0.8"/>
      </defs>
      <g>
       <use xlink:href="#m99bfd63e2a" x="43.09" y="159.305445" style="stroke: #000000; stroke-width: 0.8"/>
      </g>
     </g>
     <g id="text_10">
      <!-- 700 -->
      <g transform="translate(17.0025 163.104664) scale(0.1 -0.1)">
       <use xlink:href="#DejaVuSans-37"/>
       <use xlink:href="#DejaVuSans-30" x="63.623047"/>
       <use xlink:href="#DejaVuSans-30" x="127.246094"/>
      </g>
     </g>
    </g>
    <g id="ytick_2">
     <g id="line2d_11">
      <g>
       <use xlink:href="#m99bfd63e2a" x="43.09" y="120.362512" style="stroke: #000000; stroke-width: 0.8"/>
      </g>
     </g>
     <g id="text_11">
      <!-- 800 -->
      <g transform="translate(17.0025 124.161731) scale(0.1 -0.1)">
       <use xlink:href="#DejaVuSans-38"/>
       <use xlink:href="#DejaVuSans-30" x="63.623047"/>
       <use xlink:href="#DejaVuSans-30" x="127.246094"/>
      </g>
     </g>
    </g>
    <g id="ytick_3">
     <g id="line2d_12">
      <g>
       <use xlink:href="#m99bfd63e2a" x="43.09" y="81.419578" style="stroke: #000000; stroke-width: 0.8"/>
      </g>
     </g>
     <g id="text_12">
      <!-- 900 -->
      <g transform="translate(17.0025 85.218797) scale(0.1 -0.1)">
       <use xlink:href="#DejaVuSans-39"/>
       <use xlink:href="#DejaVuSans-30" x="63.623047"/>
       <use xlink:href="#DejaVuSans-30" x="127.246094"/>
      </g>
     </g>
    </g>
    <g id="ytick_4">
     <g id="line2d_13">
      <g>
       <use xlink:href="#m99bfd63e2a" x="43.09" y="42.476645" style="stroke: #000000; stroke-width: 0.8"/>
      </g>
     </g>
     <g id="text_13">
      <!-- 1000 -->
      <g transform="translate(10.64 46.275864) scale(0.1 -0.1)">
       <use xlink:href="#DejaVuSans-31"/>
       <use xlink:href="#DejaVuSans-30" x="63.623047"/>
       <use xlink:href="#DejaVuSans-30" x="127.246094"/>
       <use xlink:href="#DejaVuSans-30" x="190.869141"/>
      </g>
     </g>
    </g>
   </g>
   <g id="line2d_14">
    <path d="M 192.845308 95.341677 
L 193.218298 105.758912 
L 194.337267 91.93417 
L 194.710256 84.340298 
L 195.083246 85.898016 
L 195.456235 85.703301 
L 195.829225 93.491888 
L 196.948193 90.571168 
L 197.321183 82.587866 
L 197.694173 90.765882 
L 198.067162 94.562818 
L 198.440152 103.811765 
L 199.55912 106.148341 
L 199.93211 88.526664 
L 200.3051 76.356997 
L 200.678089 86.579517 
L 201.051079 102.059333 
L 202.170047 108.679632 
L 202.543037 106.9272 
L 202.916026 101.475189 
L 203.289016 118.61008 
L 203.662006 127.37224 
L 204.780974 119.194224 
L 205.526953 136.913259 
L 206.272932 162.226165 
L 207.391901 151.322144 
L 207.764891 141.781125 
L 208.13788 140.126051 
L 208.51087 131.169176 
L 208.883859 148.206709 
L 210.002828 146.064848 
L 210.375818 146.064848 
L 210.748807 138.568333 
L 211.121797 144.117701 
L 212.613755 139.152477 
L 213.359734 147.038421 
L 213.732724 153.853435 
L 214.105713 147.81728 
L 215.224682 141.781125 
L 215.597671 145.091275 
L 215.970661 144.604488 
L 216.343651 141.683768 
L 216.71664 136.523829 
L 217.835609 113.83957 
L 218.208598 119.388938 
L 218.581588 113.742213 
L 218.954578 115.105216 
L 219.327567 115.105216 
L 220.446536 122.114944 
L 220.819525 131.071819 
L 221.192515 130.682389 
L 221.938494 131.363891 
L 223.057463 131.169176 
L 223.430452 131.655963 
L 223.803442 125.91188 
L 224.176431 112.184496 
L 224.549421 115.007858 
L 225.66839 109.653205 
L 226.041379 107.316629 
L 226.787358 92.128885 
L 227.160348 105.174768 
L 228.279317 102.448762 
L 228.652306 103.227621 
L 229.025296 106.050984 
L 230.890243 88.818736 
L 231.263233 93.102458 
L 231.636223 95.049605 
L 232.382202 93.199816 
L 233.50117 96.996752 
L 233.87416 103.227621 
L 234.247149 95.439034 
L 234.620139 103.811765 
L 234.993129 99.333328 
L 236.112097 101.475189 
L 236.485087 114.326357 
L 236.858076 109.750562 
L 237.231066 115.29993 
L 237.604056 110.91885 
L 238.723024 103.811765 
L 239.096014 106.732485 
L 239.469003 96.802037 
L 239.841993 101.767261 
L 240.214982 91.93417 
L 241.333951 78.888288 
L 241.706941 82.977296 
L 242.07993 84.827085 
L 242.45292 89.792309 
L 242.825909 74.215136 
L 243.944878 76.064925 
L 244.317868 80.64072 
L 244.690857 80.543362 
L 245.063847 75.675496 
L 245.436836 75.967568 
L 246.928795 82.977296 
L 247.674774 64.284688 
L 248.047763 66.134477 
L 249.166732 64.674117 
L 249.539721 57.177602 
L 249.912711 56.204029 
L 250.65869 49.875802 
L 251.777659 47.539226 
L 252.150648 46.468296 
L 252.523638 59.514178 
L 252.896627 63.895258 
L 253.269617 64.382045 
L 254.388586 62.142826 
L 254.761575 71.781202 
L 255.134565 77.135856 
L 255.507554 76.25964 
L 255.880544 66.718621 
L 256.999513 67.886909 
L 257.372502 76.941141 
L 257.745492 81.419578 
L 258.118481 75.772853 
L 258.491471 73.630992 
L 259.61044 72.462704 
L 259.983429 73.630992 
L 260.356419 77.233213 
L 261.102398 59.222106 
L 262.221366 60.877181 
L 262.594356 70.223485 
L 262.967346 73.144205 
L 263.340335 67.594837 
L 263.713325 70.904986 
L 264.832293 72.462704 
L 265.205283 74.215136 
L 265.578273 73.825706 
L 265.951262 75.675496 
L 266.324252 80.835434 
L 267.44322 89.40288 
L 267.81621 89.500237 
L 268.189199 86.384802 
L 268.562189 87.747805 
L 270.427137 83.366725 
L 271.173116 85.703301 
L 271.546105 92.3236 
L 272.665074 93.102458 
L 273.038064 85.800658 
L 273.411053 87.261018 
L 273.784043 83.56144 
L 274.157032 77.914714 
L 275.276001 76.843784 
L 275.648991 82.587866 
L 276.02198 83.56144 
L 276.39497 85.703301 
L 276.767959 88.624021 
L 278.259918 80.25129 
L 278.632907 80.056576 
L 279.005897 76.454354 
L 279.378886 74.604565 
L 280.497855 76.551712 
L 281.243834 71.391773 
L 281.616824 72.365346 
L 283.108782 69.834056 
L 283.481771 73.046848 
L 283.854761 70.320842 
L 284.60074 60.974538 
L 286.092698 65.063546 
L 286.465688 62.142826 
L 286.838677 62.045469 
L 287.211667 53.380666 
L 288.330636 47.539226 
L 288.703625 52.796522 
L 289.076615 50.654661 
L 289.449604 55.230456 
L 289.822594 51.141448 
L 290.941563 63.311114 
L 291.314552 60.974538 
L 291.687542 57.567032 
L 292.060531 60.779824 
L 292.433521 61.948112 
L 293.55249 68.95784 
L 293.925479 67.10805 
L 294.298469 68.276338 
L 294.671458 67.10805 
L 296.163416 72.073274 
L 296.536406 73.533634 
L 296.909396 70.223485 
L 297.282385 68.081624 
L 297.655375 64.674117 
L 298.774343 65.939762 
L 299.147333 65.452976 
L 299.520322 69.152554 
L 299.893312 67.400122 
L 301.38527 73.046848 
L 301.75826 71.391773 
L 302.877229 77.525285 
L 303.996197 78.109429 
L 304.369187 72.94949 
L 304.742176 69.736698 
L 305.115166 67.692194 
L 305.488155 67.984266 
L 306.607124 61.071896 
L 306.980114 62.824328 
L 307.353103 63.700544 
L 307.726093 59.903608 
L 308.099082 62.045469 
L 309.218051 59.611536 
L 309.591041 60.000965 
L 309.96403 67.594837 
L 310.33702 68.95784 
L 310.710009 67.205408 
L 311.828978 60.293037 
L 312.201967 60.585109 
L 312.574957 56.301386 
L 312.947947 57.761746 
L 313.320936 57.859104 
L 314.439905 60.585109 
L 314.812894 63.505829 
L 315.185884 64.479402 
L 315.558874 59.611536 
L 315.931863 59.027392 
L 317.050832 66.815978 
L 317.423821 66.523906 
L 317.796811 68.081624 
L 318.1698 64.479402 
L 318.54279 65.258261 
L 319.661759 60.487752 
L 320.034748 62.921685 
L 320.407738 62.142826 
L 320.780727 64.479402 
L 321.153717 61.65604 
L 322.645675 62.045469 
L 323.018665 60.000965 
L 323.391654 49.291658 
L 323.764644 47.441869 
L 324.883613 45.300008 
L 325.256602 40.724213 
L 326.002581 46.955082 
L 326.375571 43.158146 
L 327.494539 44.715864 
L 327.867529 43.450218 
L 328.240519 35.856346 
L 328.613508 34.493343 
L 328.986498 37.024634 
L 328.986498 37.024634 
" clip-path="url(#p380ea6fe26)" style="fill: none; stroke: #d3d3d3; stroke-linecap: square"/>
   </g>
   <g id="line2d_15">
    <path d="M 56.704119 150.056499 
L 57.077108 148.498781 
L 57.450098 145.539118 
L 58.569067 146.35692 
L 58.942056 148.518253 
L 59.315046 147.408379 
L 59.688035 147.719923 
L 60.061025 144.604488 
L 61.179994 141.683768 
L 61.552983 145.383347 
L 61.925973 146.395863 
L 62.298962 148.888211 
L 62.671952 145.344404 
L 63.790921 145.091275 
L 64.16391 148.08988 
L 64.5369 143.533557 
L 64.909889 140.807552 
L 65.282879 140.418123 
L 66.401847 137.555817 
L 66.774837 135.258184 
L 67.520816 136.582244 
L 67.893806 132.726893 
L 69.012774 137.653174 
L 69.385764 136.913259 
L 69.758754 136.971673 
L 70.131743 133.992539 
L 70.504733 129.864588 
L 71.623701 123.283232 
L 71.996691 126.593381 
L 72.36968 126.982811 
L 72.74267 123.477947 
L 73.11566 123.964733 
L 74.234628 119.388938 
L 74.607618 113.528027 
L 74.980607 104.103837 
L 75.353597 107.803416 
L 75.726586 106.343056 
L 76.845555 113.742213 
L 77.218545 119.038452 
L 77.591534 117.14972 
L 77.964524 118.025936 
L 78.337513 124.159448 
L 79.456482 124.840949 
L 79.829472 124.393105 
L 80.94844 116.273504 
L 82.067409 106.245698 
L 82.440399 111.30828 
L 82.813388 121.725515 
L 83.186378 117.539149 
L 83.559367 122.407016 
L 84.678336 126.690739 
L 85.051325 124.159448 
L 85.424315 119.68101 
L 85.797305 124.743592 
L 86.170294 120.459869 
L 87.289263 120.362512 
L 87.662252 117.733864 
L 88.035242 117.441792 
L 88.408232 116.857648 
L 88.781221 121.822872 
L 89.90019 125.425093 
L 90.273179 121.822872 
L 90.646169 119.778368 
L 91.019158 120.557226 
L 91.392148 119.194224 
L 92.511117 116.370861 
L 93.630085 111.600352 
L 94.003075 109.263776 
L 95.122044 106.148341 
L 95.868023 104.493266 
L 96.241012 94.913305 
L 96.614002 97.483538 
L 97.732971 97.970325 
L 98.47895 86.151145 
L 98.851939 91.447384 
L 99.224929 83.853512 
L 100.343897 76.941141 
L 100.716887 79.569789 
L 101.089877 88.818736 
L 101.462866 88.624021 
L 101.835856 92.031528 
L 102.954824 91.447384 
L 103.327814 96.217893 
L 103.700803 86.170616 
L 104.073793 84.729728 
L 104.446783 73.144205 
L 105.565751 74.993994 
L 105.938741 70.710272 
L 106.31173 72.170632 
L 106.68472 72.170632 
L 107.05771 68.56841 
L 108.549668 85.411229 
L 108.922657 84.535013 
L 109.295647 78.206786 
L 109.668636 75.967568 
L 110.787605 71.48913 
L 111.160595 73.533634 
L 111.533584 79.18036 
L 111.906574 77.19427 
L 112.279563 77.622642 
L 113.398532 79.472432 
L 114.144511 71.742259 
L 114.517501 64.674117 
L 114.89049 63.603186 
L 116.009459 62.921685 
L 116.382449 68.178981 
L 116.755438 58.540605 
L 117.128428 59.222106 
L 117.501417 54.548954 
L 118.993375 49.58373 
L 119.366365 55.619885 
L 119.739355 47.831298 
L 120.112344 50.849376 
L 121.231313 52.932823 
L 121.604302 50.070517 
L 121.977292 51.920306 
L 122.350281 47.05244 
L 123.84224 33.325055 
L 124.215229 40.237426 
L 124.588219 44.326434 
L 124.961208 76.162282 
L 126.826156 69.483569 
L 127.199146 63.603186 
L 127.572135 62.629613 
L 127.945125 64.089973 
L 129.064094 66.913336 
L 129.437083 82.587866 
L 129.810073 83.950869 
L 130.183062 82.10108 
L 130.556052 79.375074 
L 131.67502 75.694967 
L 132.04801 73.241562 
L 132.421 78.79093 
L 132.793989 68.081624 
L 133.166979 71.48913 
L 134.285947 74.507208 
L 134.658937 69.055197 
L 135.031927 68.665768 
L 135.404916 61.363968 
L 136.896874 75.286066 
L 137.269864 73.33892 
L 137.642853 75.091352 
L 138.388833 87.845162 
L 139.507801 84.437656 
L 139.880791 86.871589 
L 140.25378 93.978674 
L 140.62677 95.633749 
L 140.999759 99.23597 
L 142.491718 89.987024 
L 142.864707 91.544741 
L 143.237697 92.226242 
L 143.610686 86.384802 
L 144.729655 88.234592 
L 145.102645 90.376453 
L 145.475634 95.828464 
L 145.848624 94.562818 
L 146.221613 87.261018 
L 147.340582 78.012072 
L 147.713572 78.693573 
L 148.086561 71.683845 
L 148.459551 70.4182 
L 148.83254 72.754776 
L 150.324498 72.170632 
L 150.697488 84.535013 
L 151.070478 84.145584 
L 151.443467 89.40288 
L 152.935425 83.17201 
L 153.308415 90.279096 
L 153.681405 91.93417 
L 154.054394 87.845162 
L 155.173363 79.764504 
L 155.546352 87.455733 
L 155.919342 91.447384 
L 156.292331 92.615672 
L 156.665321 95.439034 
L 157.78429 92.3236 
L 158.157279 88.039877 
L 158.530269 87.650448 
L 159.276248 81.419578 
L 160.395217 79.375074 
L 160.768206 85.898016 
L 161.141196 86.384802 
L 161.514185 84.340298 
L 161.887175 72.462704 
L 163.006144 68.665768 
L 163.379133 69.931413 
L 163.752123 67.400122 
L 164.125112 65.939762 
L 164.498102 69.444626 
L 165.61707 73.241562 
L 165.99006 70.02877 
L 166.36305 72.365346 
L 166.736039 69.444626 
L 167.109029 62.337541 
L 168.227997 58.930034 
L 168.600987 49.58373 
L 169.346966 56.301386 
L 169.719956 57.469674 
L 170.838924 55.619885 
L 171.211914 52.991237 
L 171.584903 67.886909 
L 171.957893 70.612914 
L 172.330883 68.860482 
L 173.449851 70.02877 
L 173.822841 70.223485 
L 174.19583 75.928625 
L 174.941809 77.72 
L 176.060778 77.525285 
L 176.433768 87.650448 
L 176.806757 87.358376 
L 177.179747 88.234592 
L 177.552736 95.24432 
L 178.671705 95.536392 
L 179.044695 116.955005 
L 179.417684 111.016208 
L 179.790674 107.413986 
L 180.163663 126.301309 
L 181.282632 121.336085 
L 181.655622 123.867376 
L 182.401601 112.184496 
L 182.77459 108.679632 
L 184.266548 116.565576 
L 184.639538 107.316629 
L 185.012528 107.900773 
L 185.385517 106.148341 
L 186.504486 107.900773 
L 186.877475 119.388938 
L 187.250465 122.504373 
L 187.623454 116.273504 
L 187.996444 121.822872 
L 189.115413 117.831221 
L 189.488402 120.459869 
L 190.234381 142.657341 
L 190.607371 136.913259 
L 191.72634 128.443171 
L 192.099329 128.248456 
L 192.472319 126.009237 
L 192.845308 95.341677 
L 192.845308 95.341677 
" clip-path="url(#p380ea6fe26)" style="fill: none; stroke: #000000; stroke-linecap: square"/>
   </g>
   <g id="patch_3">
    <path d="M 43.09 168.671221 
L 43.09 26.88 
" style="fill: none; stroke: #000000; stroke-width: 0.8; stroke-linejoin: miter; stroke-linecap: square"/>
   </g>
   <g id="patch_4">
    <path d="M 342.600617 168.671221 
L 342.600617 26.88 
" style="fill: none; stroke: #000000; stroke-width: 0.8; stroke-linejoin: miter; stroke-linecap: square"/>
   </g>
   <g id="patch_5">
    <path d="M 43.09 168.671221 
L 342.600617 168.671221 
" style="fill: none; stroke: #000000; stroke-width: 0.8; stroke-linejoin: miter; stroke-linecap: square"/>
   </g>
   <g id="patch_6">
    <path d="M 43.09 26.88 
L 342.600617 26.88 
" style="fill: none; stroke: #000000; stroke-width: 0.8; stroke-linejoin: miter; stroke-linecap: square"/>
   </g>
   <g id="text_14">
    <!-- Gold -->
    <g transform="translate(179.049058 20.88) scale(0.12 -0.12)">
     <defs>
      <path id="DejaVuSans-47" d="M 3809 666 
L 3809 1919 
L 2778 1919 
L 2778 2438 
L 4434 2438 
L 4434 434 
Q 4069 175 3628 42 
Q 3188 -91 2688 -91 
Q 1594 -91 976 548 
Q 359 1188 359 2328 
Q 359 3472 976 4111 
Q 1594 4750 2688 4750 
Q 3144 4750 3555 4637 
Q 3966 4525 4313 4306 
L 4313 3634 
Q 3963 3931 3569 4081 
Q 3175 4231 2741 4231 
Q 1884 4231 1454 3753 
Q 1025 3275 1025 2328 
Q 1025 1384 1454 906 
Q 1884 428 2741 428 
Q 3075 428 3337 486 
Q 3600 544 3809 666 
z
" transform="scale(0.015625)"/>
      <path id="DejaVuSans-6f" d="M 1959 3097 
Q 1497 3097 1228 2736 
Q 959 2375 959 1747 
Q 959 1119 1226 758 
Q 1494 397 1959 397 
Q 2419 397 2687 759 
Q 2956 1122 2956 1747 
Q 2956 2369 2687 2733 
Q 2419 3097 1959 3097 
z
M 1959 3584 
Q 2709 3584 3137 3096 
Q 3566 2609 3566 1747 
Q 3566 888 3137 398 
Q 2709 -91 1959 -91 
Q 1206 -91 779 398 
Q 353 888 353 1747 
Q 353 2609 779 3096 
Q 1206 3584 1959 3584 
z
" transform="scale(0.015625)"/>
      <path id="DejaVuSans-6c" d="M 603 4863 
L 1178 4863 
L 1178 0 
L 603 0 
L 603 4863 
z
" transform="scale(0.015625)"/>
      <path id="DejaVuSans-64" d="M 2906 2969 
L 2906 4863 
L 3481 4863 
L 3481 0 
L 2906 0 
L 2906 525 
Q 2725 213 2448 61 
Q 2172 -91 1784 -91 
Q 1150 -91 751 415 
Q 353 922 353 1747 
Q 353 2572 751 3078 
Q 1150 3584 1784 3584 
Q 2172 3584 2448 3432 
Q 2725 3281 2906 2969 
z
M 947 1747 
Q 947 1113 1208 752 
Q 1469 391 1925 391 
Q 2381 391 2643 752 
Q 2906 1113 2906 1747 
Q 2906 2381 2643 2742 
Q 2381 3103 1925 3103 
Q 1469 3103 1208 2742 
Q 947 2381 947 1747 
z
" transform="scale(0.015625)"/>
     </defs>
     <use xlink:href="#DejaVuSans-47"/>
     <use xlink:href="#DejaVuSans-6f" x="77.490234"/>
     <use xlink:href="#DejaVuSans-6c" x="138.671875"/>
     <use xlink:href="#DejaVuSans-64" x="166.455078"/>
    </g>
   </g>
  </g>
 </g>
 <defs>
  <clipPath id="p380ea6fe26">
   <rect x="43.09" y="26.88" width="299.510617" height="141.791221"/>
  </clipPath>
 </defs>
</svg>
