<?xml version="1.0" encoding="utf-8" standalone="no"?>
<!DOCTYPE svg PUBLIC "-//W3C//DTD SVG 1.1//EN"
  "http://www.w3.org/Graphics/SVG/1.1/DTD/svg11.dtd">
<svg xmlns:xlink="http://www.w3.org/1999/xlink" width="360pt" height="216pt" viewBox="0 0 360 216" xmlns="http://www.w3.org/2000/svg" version="1.1">
 <metadata>
  <rdf:RDF xmlns:dc="http://purl.org/dc/elements/1.1/" xmlns:cc="http://creativecommons.org/ns#" xmlns:rdf="http://www.w3.org/1999/02/22-rdf-syntax-ns#">
   <cc:Work>
    <dc:type rdf:resource="http://purl.org/dc/dcmitype/StillImage"/>
    <dc:date>2023-03-24T15:03:39.362303</dc:date>
    <dc:format>image/svg+xml</dc:format>
    <dc:creator>
     <cc:Agent>
      <dc:title>Matplotlib v3.6.3, https://matplotlib.org/</dc:title>
     </cc:Agent>
    </dc:creator>
   </cc:Work>
  </rdf:RDF>
 </metadata>
 <defs>
  <style type="text/css">*{stroke-linejoin: round; stroke-linecap: butt}</style>
 </defs>
 <g id="figure_1">
  <g id="patch_1">
   <path d="M 0 216 
L 360 216 
L 360 0 
L 0 0 
z
" style="fill: #ffffff"/>
  </g>
  <g id="axes_1">
   <g id="patch_2">
    <path d="M 43.09 168.671221 
L 346.421581 168.671221 
L 346.421581 26.88 
L 43.09 26.88 
z
" style="fill: #ffffff"/>
   </g>
   <g id="matplotlib.axis_1">
    <g id="xtick_1">
     <g id="line2d_1">
      <defs>
       <path id="mb3ce67f3fc" d="M 0 0 
L 0 3.5 
" style="stroke: #000000; stroke-width: 0.8"/>
      </defs>
      <g>
       <use xlink:href="#mb3ce67f3fc" x="56.877799" y="168.671221" style="stroke: #000000; stroke-width: 0.8"/>
      </g>
     </g>
     <g id="text_1">
      <!-- '07-10 -->
      <g transform="translate(47.583764 203.534543) rotate(-45) scale(0.1 -0.1)">
       <defs>
        <path id="DejaVuSans-27" d="M 1147 4666 
L 1147 2931 
L 616 2931 
L 616 4666 
L 1147 4666 
z
" transform="scale(0.015625)"/>
        <path id="DejaVuSans-30" d="M 2034 4250 
Q 1547 4250 1301 3770 
Q 1056 3291 1056 2328 
Q 1056 1369 1301 889 
Q 1547 409 2034 409 
Q 2525 409 2770 889 
Q 3016 1369 3016 2328 
Q 3016 3291 2770 3770 
Q 2525 4250 2034 4250 
z
M 2034 4750 
Q 2819 4750 3233 4129 
Q 3647 3509 3647 2328 
Q 3647 1150 3233 529 
Q 2819 -91 2034 -91 
Q 1250 -91 836 529 
Q 422 1150 422 2328 
Q 422 3509 836 4129 
Q 1250 4750 2034 4750 
z
" transform="scale(0.015625)"/>
        <path id="DejaVuSans-37" d="M 525 4666 
L 3525 4666 
L 3525 4397 
L 1831 0 
L 1172 0 
L 2766 4134 
L 525 4134 
L 525 4666 
z
" transform="scale(0.015625)"/>
        <path id="DejaVuSans-2d" d="M 313 2009 
L 1997 2009 
L 1997 1497 
L 313 1497 
L 313 2009 
z
" transform="scale(0.015625)"/>
        <path id="DejaVuSans-31" d="M 794 531 
L 1825 531 
L 1825 4091 
L 703 3866 
L 703 4441 
L 1819 4666 
L 2450 4666 
L 2450 531 
L 3481 531 
L 3481 0 
L 794 0 
L 794 531 
z
" transform="scale(0.015625)"/>
       </defs>
       <use xlink:href="#DejaVuSans-27"/>
       <use xlink:href="#DejaVuSans-30" x="27.490234"/>
       <use xlink:href="#DejaVuSans-37" x="91.113281"/>
       <use xlink:href="#DejaVuSans-2d" x="154.736328"/>
       <use xlink:href="#DejaVuSans-31" x="190.820312"/>
       <use xlink:href="#DejaVuSans-30" x="254.443359"/>
      </g>
     </g>
    </g>
    <g id="xtick_2">
     <g id="line2d_2">
      <g>
       <use xlink:href="#mb3ce67f3fc" x="91.67828" y="168.671221" style="stroke: #000000; stroke-width: 0.8"/>
      </g>
     </g>
     <g id="text_2">
      <!-- '08-01 -->
      <g transform="translate(82.384245 203.534543) rotate(-45) scale(0.1 -0.1)">
       <defs>
        <path id="DejaVuSans-38" d="M 2034 2216 
Q 1584 2216 1326 1975 
Q 1069 1734 1069 1313 
Q 1069 891 1326 650 
Q 1584 409 2034 409 
Q 2484 409 2743 651 
Q 3003 894 3003 1313 
Q 3003 1734 2745 1975 
Q 2488 2216 2034 2216 
z
M 1403 2484 
Q 997 2584 770 2862 
Q 544 3141 544 3541 
Q 544 4100 942 4425 
Q 1341 4750 2034 4750 
Q 2731 4750 3128 4425 
Q 3525 4100 3525 3541 
Q 3525 3141 3298 2862 
Q 3072 2584 2669 2484 
Q 3125 2378 3379 2068 
Q 3634 1759 3634 1313 
Q 3634 634 3220 271 
Q 2806 -91 2034 -91 
Q 1263 -91 848 271 
Q 434 634 434 1313 
Q 434 1759 690 2068 
Q 947 2378 1403 2484 
z
M 1172 3481 
Q 1172 3119 1398 2916 
Q 1625 2713 2034 2713 
Q 2441 2713 2670 2916 
Q 2900 3119 2900 3481 
Q 2900 3844 2670 4047 
Q 2441 4250 2034 4250 
Q 1625 4250 1398 4047 
Q 1172 3844 1172 3481 
z
" transform="scale(0.015625)"/>
       </defs>
       <use xlink:href="#DejaVuSans-27"/>
       <use xlink:href="#DejaVuSans-30" x="27.490234"/>
       <use xlink:href="#DejaVuSans-38" x="91.113281"/>
       <use xlink:href="#DejaVuSans-2d" x="154.736328"/>
       <use xlink:href="#DejaVuSans-30" x="190.820312"/>
       <use xlink:href="#DejaVuSans-31" x="254.443359"/>
      </g>
     </g>
    </g>
    <g id="xtick_3">
     <g id="line2d_3">
      <g>
       <use xlink:href="#mb3ce67f3fc" x="126.100494" y="168.671221" style="stroke: #000000; stroke-width: 0.8"/>
      </g>
     </g>
     <g id="text_3">
      <!-- '08-04 -->
      <g transform="translate(116.80646 203.534543) rotate(-45) scale(0.1 -0.1)">
       <defs>
        <path id="DejaVuSans-34" d="M 2419 4116 
L 825 1625 
L 2419 1625 
L 2419 4116 
z
M 2253 4666 
L 3047 4666 
L 3047 1625 
L 3713 1625 
L 3713 1100 
L 3047 1100 
L 3047 0 
L 2419 0 
L 2419 1100 
L 313 1100 
L 313 1709 
L 2253 4666 
z
" transform="scale(0.015625)"/>
       </defs>
       <use xlink:href="#DejaVuSans-27"/>
       <use xlink:href="#DejaVuSans-30" x="27.490234"/>
       <use xlink:href="#DejaVuSans-38" x="91.113281"/>
       <use xlink:href="#DejaVuSans-2d" x="154.736328"/>
       <use xlink:href="#DejaVuSans-30" x="190.820312"/>
       <use xlink:href="#DejaVuSans-34" x="254.443359"/>
      </g>
     </g>
    </g>
    <g id="xtick_4">
     <g id="line2d_4">
      <g>
       <use xlink:href="#mb3ce67f3fc" x="160.522709" y="168.671221" style="stroke: #000000; stroke-width: 0.8"/>
      </g>
     </g>
     <g id="text_4">
      <!-- '08-07 -->
      <g transform="translate(151.228674 203.534543) rotate(-45) scale(0.1 -0.1)">
       <use xlink:href="#DejaVuSans-27"/>
       <use xlink:href="#DejaVuSans-30" x="27.490234"/>
       <use xlink:href="#DejaVuSans-38" x="91.113281"/>
       <use xlink:href="#DejaVuSans-2d" x="154.736328"/>
       <use xlink:href="#DejaVuSans-30" x="190.820312"/>
       <use xlink:href="#DejaVuSans-37" x="254.443359"/>
      </g>
     </g>
    </g>
    <g id="xtick_5">
     <g id="line2d_5">
      <g>
       <use xlink:href="#mb3ce67f3fc" x="195.32319" y="168.671221" style="stroke: #000000; stroke-width: 0.8"/>
      </g>
     </g>
     <g id="text_5">
      <!-- '08-10 -->
      <g transform="translate(186.029155 203.534543) rotate(-45) scale(0.1 -0.1)">
       <use xlink:href="#DejaVuSans-27"/>
       <use xlink:href="#DejaVuSans-30" x="27.490234"/>
       <use xlink:href="#DejaVuSans-38" x="91.113281"/>
       <use xlink:href="#DejaVuSans-2d" x="154.736328"/>
       <use xlink:href="#DejaVuSans-31" x="190.820312"/>
       <use xlink:href="#DejaVuSans-30" x="254.443359"/>
      </g>
     </g>
    </g>
    <g id="xtick_6">
     <g id="line2d_6">
      <g>
       <use xlink:href="#mb3ce67f3fc" x="230.12367" y="168.671221" style="stroke: #000000; stroke-width: 0.8"/>
      </g>
     </g>
     <g id="text_6">
      <!-- '09-01 -->
      <g transform="translate(220.829636 203.534543) rotate(-45) scale(0.1 -0.1)">
       <defs>
        <path id="DejaVuSans-39" d="M 703 97 
L 703 672 
Q 941 559 1184 500 
Q 1428 441 1663 441 
Q 2288 441 2617 861 
Q 2947 1281 2994 2138 
Q 2813 1869 2534 1725 
Q 2256 1581 1919 1581 
Q 1219 1581 811 2004 
Q 403 2428 403 3163 
Q 403 3881 828 4315 
Q 1253 4750 1959 4750 
Q 2769 4750 3195 4129 
Q 3622 3509 3622 2328 
Q 3622 1225 3098 567 
Q 2575 -91 1691 -91 
Q 1453 -91 1209 -44 
Q 966 3 703 97 
z
M 1959 2075 
Q 2384 2075 2632 2365 
Q 2881 2656 2881 3163 
Q 2881 3666 2632 3958 
Q 2384 4250 1959 4250 
Q 1534 4250 1286 3958 
Q 1038 3666 1038 3163 
Q 1038 2656 1286 2365 
Q 1534 2075 1959 2075 
z
" transform="scale(0.015625)"/>
       </defs>
       <use xlink:href="#DejaVuSans-27"/>
       <use xlink:href="#DejaVuSans-30" x="27.490234"/>
       <use xlink:href="#DejaVuSans-39" x="91.113281"/>
       <use xlink:href="#DejaVuSans-2d" x="154.736328"/>
       <use xlink:href="#DejaVuSans-30" x="190.820312"/>
       <use xlink:href="#DejaVuSans-31" x="254.443359"/>
      </g>
     </g>
    </g>
    <g id="xtick_7">
     <g id="line2d_7">
      <g>
       <use xlink:href="#mb3ce67f3fc" x="264.167619" y="168.671221" style="stroke: #000000; stroke-width: 0.8"/>
      </g>
     </g>
     <g id="text_7">
      <!-- '09-04 -->
      <g transform="translate(254.873584 203.534543) rotate(-45) scale(0.1 -0.1)">
       <use xlink:href="#DejaVuSans-27"/>
       <use xlink:href="#DejaVuSans-30" x="27.490234"/>
       <use xlink:href="#DejaVuSans-39" x="91.113281"/>
       <use xlink:href="#DejaVuSans-2d" x="154.736328"/>
       <use xlink:href="#DejaVuSans-30" x="190.820312"/>
       <use xlink:href="#DejaVuSans-34" x="254.443359"/>
      </g>
     </g>
    </g>
    <g id="xtick_8">
     <g id="line2d_8">
      <g>
       <use xlink:href="#mb3ce67f3fc" x="298.589834" y="168.671221" style="stroke: #000000; stroke-width: 0.8"/>
      </g>
     </g>
     <g id="text_8">
      <!-- '09-07 -->
      <g transform="translate(289.295799 203.534543) rotate(-45) scale(0.1 -0.1)">
       <use xlink:href="#DejaVuSans-27"/>
       <use xlink:href="#DejaVuSans-30" x="27.490234"/>
       <use xlink:href="#DejaVuSans-39" x="91.113281"/>
       <use xlink:href="#DejaVuSans-2d" x="154.736328"/>
       <use xlink:href="#DejaVuSans-30" x="190.820312"/>
       <use xlink:href="#DejaVuSans-37" x="254.443359"/>
      </g>
     </g>
    </g>
    <g id="xtick_9">
     <g id="line2d_9">
      <g>
       <use xlink:href="#mb3ce67f3fc" x="333.390314" y="168.671221" style="stroke: #000000; stroke-width: 0.8"/>
      </g>
     </g>
     <g id="text_9">
      <!-- '09-10 -->
      <g transform="translate(324.09628 203.534543) rotate(-45) scale(0.1 -0.1)">
       <use xlink:href="#DejaVuSans-27"/>
       <use xlink:href="#DejaVuSans-30" x="27.490234"/>
       <use xlink:href="#DejaVuSans-39" x="91.113281"/>
       <use xlink:href="#DejaVuSans-2d" x="154.736328"/>
       <use xlink:href="#DejaVuSans-31" x="190.820312"/>
       <use xlink:href="#DejaVuSans-30" x="254.443359"/>
      </g>
     </g>
    </g>
   </g>
   <g id="matplotlib.axis_2">
    <g id="ytick_1">
     <g id="line2d_10">
      <defs>
       <path id="m23ea5ba16a" d="M 0 0 
L -3.5 0 
" style="stroke: #000000; stroke-width: 0.8"/>
      </defs>
      <g>
       <use xlink:href="#m23ea5ba16a" x="43.09" y="159.305445" style="stroke: #000000; stroke-width: 0.8"/>
      </g>
     </g>
     <g id="text_10">
      <!-- 700 -->
      <g transform="translate(17.0025 163.104664) scale(0.1 -0.1)">
       <use xlink:href="#DejaVuSans-37"/>
       <use xlink:href="#DejaVuSans-30" x="63.623047"/>
       <use xlink:href="#DejaVuSans-30" x="127.246094"/>
      </g>
     </g>
    </g>
    <g id="ytick_2">
     <g id="line2d_11">
      <g>
       <use xlink:href="#m23ea5ba16a" x="43.09" y="120.362512" style="stroke: #000000; stroke-width: 0.8"/>
      </g>
     </g>
     <g id="text_11">
      <!-- 800 -->
      <g transform="translate(17.0025 124.161731) scale(0.1 -0.1)">
       <use xlink:href="#DejaVuSans-38"/>
       <use xlink:href="#DejaVuSans-30" x="63.623047"/>
       <use xlink:href="#DejaVuSans-30" x="127.246094"/>
      </g>
     </g>
    </g>
    <g id="ytick_3">
     <g id="line2d_12">
      <g>
       <use xlink:href="#m23ea5ba16a" x="43.09" y="81.419578" style="stroke: #000000; stroke-width: 0.8"/>
      </g>
     </g>
     <g id="text_12">
      <!-- 900 -->
      <g transform="translate(17.0025 85.218797) scale(0.1 -0.1)">
       <use xlink:href="#DejaVuSans-39"/>
       <use xlink:href="#DejaVuSans-30" x="63.623047"/>
       <use xlink:href="#DejaVuSans-30" x="127.246094"/>
      </g>
     </g>
    </g>
    <g id="ytick_4">
     <g id="line2d_13">
      <g>
       <use xlink:href="#m23ea5ba16a" x="43.09" y="42.476645" style="stroke: #000000; stroke-width: 0.8"/>
      </g>
     </g>
     <g id="text_13">
      <!-- 1000 -->
      <g transform="translate(10.64 46.275864) scale(0.1 -0.1)">
       <use xlink:href="#DejaVuSans-31"/>
       <use xlink:href="#DejaVuSans-30" x="63.623047"/>
       <use xlink:href="#DejaVuSans-30" x="127.246094"/>
       <use xlink:href="#DejaVuSans-30" x="190.869141"/>
      </g>
     </g>
    </g>
   </g>
   <g id="line2d_14">
    <path d="M 194.566658 90.571168 
L 194.944924 82.587866 
L 195.32319 90.765882 
L 195.701456 94.562818 
L 196.079722 103.811765 
L 197.21452 106.148341 
L 197.592786 88.526664 
L 197.971052 76.356997 
L 198.349319 86.579517 
L 198.727585 74.40985 
L 200.240649 101.08576 
L 200.618915 101.475189 
L 200.997181 106.9272 
L 201.375447 119.973082 
L 202.510246 119.194224 
L 203.266778 136.913259 
L 204.02331 162.226165 
L 205.158108 151.322144 
L 205.536374 141.781125 
L 205.91464 140.126051 
L 206.292906 131.169176 
L 206.671173 148.206709 
L 207.805971 146.064848 
L 208.184237 146.064848 
L 208.562503 138.568333 
L 208.940769 144.117701 
L 210.453834 139.152477 
L 211.210366 147.038421 
L 211.588632 153.853435 
L 211.966898 147.81728 
L 213.101696 141.781125 
L 213.479962 145.091275 
L 213.858228 144.604488 
L 214.236494 141.683768 
L 214.614761 136.523829 
L 215.749559 113.83957 
L 216.127825 119.388938 
L 216.506091 113.742213 
L 216.884357 115.105216 
L 217.262623 115.105216 
L 218.397422 122.114944 
L 218.775688 131.071819 
L 219.153954 130.682389 
L 219.910486 131.363891 
L 221.045284 131.169176 
L 221.42355 131.655963 
L 221.801816 125.91188 
L 222.180082 112.184496 
L 222.558349 115.007858 
L 223.693147 109.653205 
L 224.071413 107.316629 
L 224.827945 92.128885 
L 225.206211 105.174768 
L 226.34101 102.448762 
L 226.719276 103.227621 
L 227.097542 106.050984 
L 228.988872 88.818736 
L 229.367138 93.102458 
L 229.745404 95.049605 
L 230.501937 93.199816 
L 231.636735 96.996752 
L 232.015001 103.227621 
L 232.393267 95.439034 
L 232.771533 103.811765 
L 233.149799 99.333328 
L 234.284597 101.475189 
L 234.662864 114.326357 
L 235.04113 109.750562 
L 235.419396 115.29993 
L 235.797662 110.91885 
L 236.93246 103.811765 
L 237.310726 106.732485 
L 237.688992 96.802037 
L 238.067258 101.767261 
L 238.445525 91.93417 
L 239.580323 78.888288 
L 239.958589 82.977296 
L 240.336855 84.827085 
L 240.715121 89.792309 
L 241.093387 74.215136 
L 242.228185 76.064925 
L 242.606452 80.64072 
L 242.984718 80.543362 
L 243.362984 75.675496 
L 243.74125 75.967568 
L 245.254314 82.977296 
L 246.010846 64.284688 
L 246.389113 66.134477 
L 247.523911 64.674117 
L 247.902177 57.177602 
L 248.280443 56.204029 
L 249.036975 49.875802 
L 250.171773 47.539226 
L 250.55004 46.468296 
L 250.928306 59.514178 
L 251.306572 63.895258 
L 251.684838 64.382045 
L 252.819636 62.142826 
L 253.197902 71.781202 
L 253.576168 77.135856 
L 253.954434 76.25964 
L 254.332701 66.718621 
L 255.467499 67.886909 
L 255.845765 76.941141 
L 256.224031 81.419578 
L 256.602297 75.772853 
L 256.980563 73.630992 
L 258.115361 72.462704 
L 258.493628 73.630992 
L 258.871894 77.233213 
L 259.628426 59.222106 
L 260.763224 60.877181 
L 261.14149 70.223485 
L 261.519756 73.144205 
L 261.898022 67.594837 
L 262.276288 70.904986 
L 263.411087 72.462704 
L 263.789353 74.215136 
L 264.167619 73.825706 
L 264.545885 75.675496 
L 264.924151 80.835434 
L 266.058949 89.40288 
L 266.437216 89.500237 
L 266.815482 86.384802 
L 267.193748 87.747805 
L 269.085078 83.366725 
L 269.84161 85.703301 
L 270.219876 92.3236 
L 271.354675 93.102458 
L 271.732941 85.800658 
L 272.111207 87.261018 
L 272.489473 83.56144 
L 272.867739 77.914714 
L 274.002537 76.843784 
L 274.380804 82.587866 
L 274.75907 83.56144 
L 275.137336 85.703301 
L 275.515602 88.624021 
L 277.028666 80.25129 
L 277.406932 80.056576 
L 277.785198 76.454354 
L 278.163464 74.604565 
L 279.298263 76.551712 
L 280.054795 71.391773 
L 280.433061 72.365346 
L 281.946125 69.834056 
L 282.324392 73.046848 
L 282.702658 70.320842 
L 283.45919 60.974538 
L 284.972254 65.063546 
L 285.35052 62.142826 
L 285.728786 62.045469 
L 286.107052 53.380666 
L 287.241851 47.539226 
L 287.620117 52.796522 
L 287.998383 50.654661 
L 288.376649 55.230456 
L 288.754915 51.141448 
L 289.889713 63.311114 
L 290.267979 60.974538 
L 290.646246 57.567032 
L 291.024512 60.779824 
L 291.402778 61.948112 
L 292.537576 68.95784 
L 292.915842 67.10805 
L 293.294108 68.276338 
L 293.672374 67.10805 
L 295.185439 72.073274 
L 295.563705 73.533634 
L 295.941971 70.223485 
L 296.320237 68.081624 
L 296.698503 64.674117 
L 297.833301 65.939762 
L 298.211567 65.452976 
L 298.589834 69.152554 
L 298.9681 67.400122 
L 300.481164 73.046848 
L 300.85943 71.391773 
L 301.994228 77.525285 
L 303.129027 78.109429 
L 303.507293 72.94949 
L 303.885559 69.736698 
L 304.263825 67.692194 
L 304.642091 67.984266 
L 305.776889 61.071896 
L 306.155155 62.824328 
L 306.533422 63.700544 
L 306.911688 59.903608 
L 307.289954 62.045469 
L 308.424752 59.611536 
L 308.803018 60.000965 
L 309.181284 67.594837 
L 309.55955 68.95784 
L 309.937816 67.205408 
L 311.072615 60.293037 
L 311.450881 60.585109 
L 311.829147 56.301386 
L 312.207413 57.761746 
L 312.585679 57.859104 
L 313.720477 60.585109 
L 314.098743 63.505829 
L 314.47701 64.479402 
L 314.855276 59.611536 
L 315.233542 59.027392 
L 316.36834 66.815978 
L 316.746606 66.523906 
L 317.124872 68.081624 
L 317.503138 64.479402 
L 317.881404 65.258261 
L 319.016203 60.487752 
L 319.394469 62.921685 
L 319.772735 62.142826 
L 320.151001 64.479402 
L 320.529267 61.65604 
L 322.042331 62.045469 
L 322.420598 60.000965 
L 322.798864 49.291658 
L 323.17713 47.441869 
L 324.311928 45.300008 
L 324.690194 40.724213 
L 325.446726 46.955082 
L 325.824992 43.158146 
L 326.959791 44.715864 
L 327.338057 43.450218 
L 327.716323 35.856346 
L 328.094589 34.493343 
L 328.472855 37.024634 
L 329.607653 42.768717 
L 329.985919 36.343133 
L 330.742452 37.024634 
L 331.120718 43.644933 
L 332.255516 46.176224 
L 332.633782 45.689437 
L 332.633782 45.689437 
" clip-path="url(#p888d007784)" style="fill: none; stroke: #d3d3d3; stroke-linecap: square"/>
   </g>
   <g id="line2d_15">
    <path d="M 56.877799 141.683768 
L 57.256065 145.383347 
L 57.634331 146.395863 
L 58.012597 148.888211 
L 58.390864 145.344404 
L 59.525662 145.091275 
L 59.903928 148.08988 
L 60.282194 143.533557 
L 60.66046 140.807552 
L 61.038726 140.418123 
L 62.173524 137.555817 
L 62.551791 135.258184 
L 63.308323 136.582244 
L 63.686589 132.726893 
L 64.821387 137.653174 
L 65.199653 136.913259 
L 65.577919 136.971673 
L 65.956185 133.992539 
L 66.334452 129.864588 
L 67.46925 123.283232 
L 67.847516 126.593381 
L 68.225782 126.982811 
L 68.604048 123.477947 
L 68.982314 123.964733 
L 70.117112 119.388938 
L 70.495379 113.528027 
L 70.873645 104.103837 
L 71.251911 107.803416 
L 71.630177 106.343056 
L 72.764975 113.742213 
L 73.143241 119.038452 
L 73.521507 117.14972 
L 73.899773 118.025936 
L 74.278039 124.159448 
L 75.412838 124.840949 
L 75.791104 124.393105 
L 76.925902 116.273504 
L 78.0607 106.245698 
L 78.438967 111.30828 
L 78.817233 121.725515 
L 79.195499 117.539149 
L 79.573765 122.407016 
L 80.708563 126.690739 
L 81.086829 124.159448 
L 81.465095 119.68101 
L 81.843361 124.743592 
L 82.221627 120.459869 
L 83.356426 120.362512 
L 83.734692 117.733864 
L 84.112958 117.441792 
L 84.491224 116.857648 
L 84.86949 121.822872 
L 86.004288 125.425093 
L 86.382555 121.822872 
L 86.760821 119.778368 
L 87.139087 120.557226 
L 87.517353 119.194224 
L 88.652151 116.370861 
L 89.786949 111.600352 
L 90.165215 109.263776 
L 91.300014 106.148341 
L 92.056546 104.493266 
L 92.434812 94.913305 
L 92.813078 97.483538 
L 93.947876 97.970325 
L 94.704409 86.151145 
L 95.082675 91.447384 
L 95.460941 83.853512 
L 96.595739 76.941141 
L 96.974005 79.569789 
L 97.352271 88.818736 
L 97.730537 88.624021 
L 98.108803 92.031528 
L 99.243602 91.447384 
L 99.621868 96.217893 
L 100.000134 86.170616 
L 100.3784 84.729728 
L 100.756666 73.144205 
L 101.891464 74.993994 
L 102.26973 70.710272 
L 102.647997 72.170632 
L 103.026263 72.170632 
L 103.404529 68.56841 
L 104.917593 85.411229 
L 105.295859 84.535013 
L 105.674125 78.206786 
L 106.052391 75.967568 
L 107.18719 71.48913 
L 107.565456 73.533634 
L 107.943722 79.18036 
L 108.321988 77.19427 
L 108.700254 77.622642 
L 109.835052 79.472432 
L 110.591585 71.742259 
L 110.969851 64.674117 
L 111.348117 63.603186 
L 112.482915 62.921685 
L 112.861181 68.178981 
L 113.239447 58.540605 
L 113.617713 59.222106 
L 113.995979 54.548954 
L 115.509044 49.58373 
L 115.88731 55.619885 
L 116.265576 47.831298 
L 116.643842 50.849376 
L 117.77864 52.932823 
L 118.156906 50.070517 
L 118.535173 51.920306 
L 118.913439 47.05244 
L 120.426503 33.325055 
L 120.804769 40.237426 
L 121.183035 44.326434 
L 121.561301 76.162282 
L 123.452632 69.483569 
L 123.830898 63.603186 
L 124.209164 62.629613 
L 124.58743 64.089973 
L 125.722228 66.913336 
L 126.100494 82.587866 
L 126.478761 83.950869 
L 126.857027 82.10108 
L 127.235293 79.375074 
L 128.370091 75.694967 
L 128.748357 73.241562 
L 129.126623 78.79093 
L 129.504889 68.081624 
L 129.883155 71.48913 
L 131.017954 74.507208 
L 131.39622 69.055197 
L 131.774486 68.665768 
L 132.152752 61.363968 
L 133.665816 75.286066 
L 134.044082 73.33892 
L 134.422349 75.091352 
L 135.178881 87.845162 
L 136.313679 84.437656 
L 136.691945 86.871589 
L 137.070211 93.978674 
L 137.448477 95.633749 
L 137.826743 99.23597 
L 139.339808 89.987024 
L 139.718074 91.544741 
L 140.09634 92.226242 
L 140.474606 86.384802 
L 141.609404 88.234592 
L 141.98767 90.376453 
L 142.365937 95.828464 
L 142.744203 94.562818 
L 143.122469 87.261018 
L 144.257267 78.012072 
L 144.635533 78.693573 
L 145.013799 71.683845 
L 145.392065 70.4182 
L 145.770331 72.754776 
L 147.283396 72.170632 
L 147.661662 84.535013 
L 148.039928 84.145584 
L 148.418194 89.40288 
L 149.931258 83.17201 
L 150.309525 90.279096 
L 150.687791 91.93417 
L 151.066057 87.845162 
L 152.200855 79.764504 
L 152.579121 87.455733 
L 152.957387 91.447384 
L 153.335653 92.615672 
L 153.713919 95.439034 
L 154.848718 92.3236 
L 155.226984 88.039877 
L 155.60525 87.650448 
L 156.361782 81.419578 
L 157.49658 79.375074 
L 157.874846 85.898016 
L 158.253112 86.384802 
L 158.631379 84.340298 
L 159.009645 72.462704 
L 160.144443 68.665768 
L 160.522709 69.931413 
L 160.900975 67.400122 
L 161.279241 65.939762 
L 161.657507 69.444626 
L 162.792306 73.241562 
L 163.170572 70.02877 
L 163.548838 72.365346 
L 163.927104 69.444626 
L 164.30537 62.337541 
L 165.440168 58.930034 
L 165.818434 49.58373 
L 166.574967 56.301386 
L 166.953233 57.469674 
L 168.088031 55.619885 
L 168.466297 52.991237 
L 168.844563 67.886909 
L 169.222829 70.612914 
L 169.601095 68.860482 
L 170.735894 70.02877 
L 171.11416 70.223485 
L 171.492426 75.928625 
L 172.248958 77.72 
L 173.383756 77.525285 
L 173.762022 87.650448 
L 174.140288 87.358376 
L 174.518555 88.234592 
L 174.896821 95.24432 
L 176.031619 95.536392 
L 176.409885 116.955005 
L 176.788151 111.016208 
L 177.166417 107.413986 
L 177.544683 126.301309 
L 178.679482 121.336085 
L 179.057748 123.867376 
L 179.81428 112.184496 
L 180.192546 108.679632 
L 181.70561 116.565576 
L 182.083876 107.316629 
L 182.462143 107.900773 
L 182.840409 106.148341 
L 183.975207 107.900773 
L 184.353473 119.388938 
L 184.731739 122.504373 
L 185.110005 116.273504 
L 185.488271 121.822872 
L 186.62307 117.831221 
L 187.001336 120.459869 
L 187.757868 142.657341 
L 188.136134 136.913259 
L 189.270932 128.443171 
L 189.649198 128.248456 
L 190.027464 126.009237 
L 190.405731 95.341677 
L 190.783997 105.758912 
L 191.918795 91.93417 
L 192.297061 84.340298 
L 192.675327 85.898016 
L 193.053593 85.703301 
L 193.431859 93.491888 
L 194.566658 90.571168 
L 194.566658 90.571168 
" clip-path="url(#p888d007784)" style="fill: none; stroke: #000000; stroke-linecap: square"/>
   </g>
   <g id="patch_3">
    <path d="M 43.09 168.671221 
L 43.09 26.88 
" style="fill: none; stroke: #000000; stroke-width: 0.8; stroke-linejoin: miter; stroke-linecap: square"/>
   </g>
   <g id="patch_4">
    <path d="M 346.421581 168.671221 
L 346.421581 26.88 
" style="fill: none; stroke: #000000; stroke-width: 0.8; stroke-linejoin: miter; stroke-linecap: square"/>
   </g>
   <g id="patch_5">
    <path d="M 43.09 168.671221 
L 346.421581 168.671221 
" style="fill: none; stroke: #000000; stroke-width: 0.8; stroke-linejoin: miter; stroke-linecap: square"/>
   </g>
   <g id="patch_6">
    <path d="M 43.09 26.88 
L 346.421581 26.88 
" style="fill: none; stroke: #000000; stroke-width: 0.8; stroke-linejoin: miter; stroke-linecap: square"/>
   </g>
   <g id="text_14">
    <!-- Gold -->
    <g transform="translate(180.959541 20.88) scale(0.12 -0.12)">
     <defs>
      <path id="DejaVuSans-47" d="M 3809 666 
L 3809 1919 
L 2778 1919 
L 2778 2438 
L 4434 2438 
L 4434 434 
Q 4069 175 3628 42 
Q 3188 -91 2688 -91 
Q 1594 -91 976 548 
Q 359 1188 359 2328 
Q 359 3472 976 4111 
Q 1594 4750 2688 4750 
Q 3144 4750 3555 4637 
Q 3966 4525 4313 4306 
L 4313 3634 
Q 3963 3931 3569 4081 
Q 3175 4231 2741 4231 
Q 1884 4231 1454 3753 
Q 1025 3275 1025 2328 
Q 1025 1384 1454 906 
Q 1884 428 2741 428 
Q 3075 428 3337 486 
Q 3600 544 3809 666 
z
" transform="scale(0.015625)"/>
      <path id="DejaVuSans-6f" d="M 1959 3097 
Q 1497 3097 1228 2736 
Q 959 2375 959 1747 
Q 959 1119 1226 758 
Q 1494 397 1959 397 
Q 2419 397 2687 759 
Q 2956 1122 2956 1747 
Q 2956 2369 2687 2733 
Q 2419 3097 1959 3097 
z
M 1959 3584 
Q 2709 3584 3137 3096 
Q 3566 2609 3566 1747 
Q 3566 888 3137 398 
Q 2709 -91 1959 -91 
Q 1206 -91 779 398 
Q 353 888 353 1747 
Q 353 2609 779 3096 
Q 1206 3584 1959 3584 
z
" transform="scale(0.015625)"/>
      <path id="DejaVuSans-6c" d="M 603 4863 
L 1178 4863 
L 1178 0 
L 603 0 
L 603 4863 
z
" transform="scale(0.015625)"/>
      <path id="DejaVuSans-64" d="M 2906 2969 
L 2906 4863 
L 3481 4863 
L 3481 0 
L 2906 0 
L 2906 525 
Q 2725 213 2448 61 
Q 2172 -91 1784 -91 
Q 1150 -91 751 415 
Q 353 922 353 1747 
Q 353 2572 751 3078 
Q 1150 3584 1784 3584 
Q 2172 3584 2448 3432 
Q 2725 3281 2906 2969 
z
M 947 1747 
Q 947 1113 1208 752 
Q 1469 391 1925 391 
Q 2381 391 2643 752 
Q 2906 1113 2906 1747 
Q 2906 2381 2643 2742 
Q 2381 3103 1925 3103 
Q 1469 3103 1208 2742 
Q 947 2381 947 1747 
z
" transform="scale(0.015625)"/>
     </defs>
     <use xlink:href="#DejaVuSans-47"/>
     <use xlink:href="#DejaVuSans-6f" x="77.490234"/>
     <use xlink:href="#DejaVuSans-6c" x="138.671875"/>
     <use xlink:href="#DejaVuSans-64" x="166.455078"/>
    </g>
   </g>
  </g>
 </g>
 <defs>
  <clipPath id="p888d007784">
   <rect x="43.09" y="26.88" width="303.331581" height="141.791221"/>
  </clipPath>
 </defs>
</svg>
