<?xml version="1.0" encoding="utf-8" standalone="no"?>
<!DOCTYPE svg PUBLIC "-//W3C//DTD SVG 1.1//EN"
  "http://www.w3.org/Graphics/SVG/1.1/DTD/svg11.dtd">
<svg xmlns:xlink="http://www.w3.org/1999/xlink" width="360pt" height="216pt" viewBox="0 0 360 216" xmlns="http://www.w3.org/2000/svg" version="1.1">
 <metadata>
  <rdf:RDF xmlns:dc="http://purl.org/dc/elements/1.1/" xmlns:cc="http://creativecommons.org/ns#" xmlns:rdf="http://www.w3.org/1999/02/22-rdf-syntax-ns#">
   <cc:Work>
    <dc:type rdf:resource="http://purl.org/dc/dcmitype/StillImage"/>
    <dc:date>2023-03-24T15:03:39.725146</dc:date>
    <dc:format>image/svg+xml</dc:format>
    <dc:creator>
     <cc:Agent>
      <dc:title>Matplotlib v3.6.3, https://matplotlib.org/</dc:title>
     </cc:Agent>
    </dc:creator>
   </cc:Work>
  </rdf:RDF>
 </metadata>
 <defs>
  <style type="text/css">*{stroke-linejoin: round; stroke-linecap: butt}</style>
 </defs>
 <g id="figure_1">
  <g id="patch_1">
   <path d="M 0 216 
L 360 216 
L 360 0 
L 0 0 
z
" style="fill: #ffffff"/>
  </g>
  <g id="axes_1">
   <g id="patch_2">
    <path d="M 43.09 168.671221 
L 349.2 168.671221 
L 349.2 26.88 
L 43.09 26.88 
z
" style="fill: #ffffff"/>
   </g>
   <g id="matplotlib.axis_1">
    <g id="xtick_1">
     <g id="line2d_1">
      <defs>
       <path id="md14bcc2f69" d="M 0 0 
L 0 3.5 
" style="stroke: #000000; stroke-width: 0.8"/>
      </defs>
      <g>
       <use xlink:href="#md14bcc2f69" x="53.573219" y="168.671221" style="stroke: #000000; stroke-width: 0.8"/>
      </g>
     </g>
     <g id="text_1">
      <!-- '07-10 -->
      <g transform="translate(44.279184 203.534543) rotate(-45) scale(0.1 -0.1)">
       <defs>
        <path id="DejaVuSans-27" d="M 1147 4666 
L 1147 2931 
L 616 2931 
L 616 4666 
L 1147 4666 
z
" transform="scale(0.015625)"/>
        <path id="DejaVuSans-30" d="M 2034 4250 
Q 1547 4250 1301 3770 
Q 1056 3291 1056 2328 
Q 1056 1369 1301 889 
Q 1547 409 2034 409 
Q 2525 409 2770 889 
Q 3016 1369 3016 2328 
Q 3016 3291 2770 3770 
Q 2525 4250 2034 4250 
z
M 2034 4750 
Q 2819 4750 3233 4129 
Q 3647 3509 3647 2328 
Q 3647 1150 3233 529 
Q 2819 -91 2034 -91 
Q 1250 -91 836 529 
Q 422 1150 422 2328 
Q 422 3509 836 4129 
Q 1250 4750 2034 4750 
z
" transform="scale(0.015625)"/>
        <path id="DejaVuSans-37" d="M 525 4666 
L 3525 4666 
L 3525 4397 
L 1831 0 
L 1172 0 
L 2766 4134 
L 525 4134 
L 525 4666 
z
" transform="scale(0.015625)"/>
        <path id="DejaVuSans-2d" d="M 313 2009 
L 1997 2009 
L 1997 1497 
L 313 1497 
L 313 2009 
z
" transform="scale(0.015625)"/>
        <path id="DejaVuSans-31" d="M 794 531 
L 1825 531 
L 1825 4091 
L 703 3866 
L 703 4441 
L 1819 4666 
L 2450 4666 
L 2450 531 
L 3481 531 
L 3481 0 
L 794 0 
L 794 531 
z
" transform="scale(0.015625)"/>
       </defs>
       <use xlink:href="#DejaVuSans-27"/>
       <use xlink:href="#DejaVuSans-30" x="27.490234"/>
       <use xlink:href="#DejaVuSans-37" x="91.113281"/>
       <use xlink:href="#DejaVuSans-2d" x="154.736328"/>
       <use xlink:href="#DejaVuSans-31" x="190.820312"/>
       <use xlink:href="#DejaVuSans-30" x="254.443359"/>
      </g>
     </g>
    </g>
    <g id="xtick_2">
     <g id="line2d_2">
      <g>
       <use xlink:href="#md14bcc2f69" x="88.644352" y="168.671221" style="stroke: #000000; stroke-width: 0.8"/>
      </g>
     </g>
     <g id="text_2">
      <!-- '08-01 -->
      <g transform="translate(79.350318 203.534543) rotate(-45) scale(0.1 -0.1)">
       <defs>
        <path id="DejaVuSans-38" d="M 2034 2216 
Q 1584 2216 1326 1975 
Q 1069 1734 1069 1313 
Q 1069 891 1326 650 
Q 1584 409 2034 409 
Q 2484 409 2743 651 
Q 3003 894 3003 1313 
Q 3003 1734 2745 1975 
Q 2488 2216 2034 2216 
z
M 1403 2484 
Q 997 2584 770 2862 
Q 544 3141 544 3541 
Q 544 4100 942 4425 
Q 1341 4750 2034 4750 
Q 2731 4750 3128 4425 
Q 3525 4100 3525 3541 
Q 3525 3141 3298 2862 
Q 3072 2584 2669 2484 
Q 3125 2378 3379 2068 
Q 3634 1759 3634 1313 
Q 3634 634 3220 271 
Q 2806 -91 2034 -91 
Q 1263 -91 848 271 
Q 434 634 434 1313 
Q 434 1759 690 2068 
Q 947 2378 1403 2484 
z
M 1172 3481 
Q 1172 3119 1398 2916 
Q 1625 2713 2034 2713 
Q 2441 2713 2670 2916 
Q 2900 3119 2900 3481 
Q 2900 3844 2670 4047 
Q 2441 4250 2034 4250 
Q 1625 4250 1398 4047 
Q 1172 3844 1172 3481 
z
" transform="scale(0.015625)"/>
       </defs>
       <use xlink:href="#DejaVuSans-27"/>
       <use xlink:href="#DejaVuSans-30" x="27.490234"/>
       <use xlink:href="#DejaVuSans-38" x="91.113281"/>
       <use xlink:href="#DejaVuSans-2d" x="154.736328"/>
       <use xlink:href="#DejaVuSans-30" x="190.820312"/>
       <use xlink:href="#DejaVuSans-31" x="254.443359"/>
      </g>
     </g>
    </g>
    <g id="xtick_3">
     <g id="line2d_3">
      <g>
       <use xlink:href="#md14bcc2f69" x="123.334278" y="168.671221" style="stroke: #000000; stroke-width: 0.8"/>
      </g>
     </g>
     <g id="text_3">
      <!-- '08-04 -->
      <g transform="translate(114.040243 203.534543) rotate(-45) scale(0.1 -0.1)">
       <defs>
        <path id="DejaVuSans-34" d="M 2419 4116 
L 825 1625 
L 2419 1625 
L 2419 4116 
z
M 2253 4666 
L 3047 4666 
L 3047 1625 
L 3713 1625 
L 3713 1100 
L 3047 1100 
L 3047 0 
L 2419 0 
L 2419 1100 
L 313 1100 
L 313 1709 
L 2253 4666 
z
" transform="scale(0.015625)"/>
       </defs>
       <use xlink:href="#DejaVuSans-27"/>
       <use xlink:href="#DejaVuSans-30" x="27.490234"/>
       <use xlink:href="#DejaVuSans-38" x="91.113281"/>
       <use xlink:href="#DejaVuSans-2d" x="154.736328"/>
       <use xlink:href="#DejaVuSans-30" x="190.820312"/>
       <use xlink:href="#DejaVuSans-34" x="254.443359"/>
      </g>
     </g>
    </g>
    <g id="xtick_4">
     <g id="line2d_4">
      <g>
       <use xlink:href="#md14bcc2f69" x="158.024203" y="168.671221" style="stroke: #000000; stroke-width: 0.8"/>
      </g>
     </g>
     <g id="text_4">
      <!-- '08-07 -->
      <g transform="translate(148.730168 203.534543) rotate(-45) scale(0.1 -0.1)">
       <use xlink:href="#DejaVuSans-27"/>
       <use xlink:href="#DejaVuSans-30" x="27.490234"/>
       <use xlink:href="#DejaVuSans-38" x="91.113281"/>
       <use xlink:href="#DejaVuSans-2d" x="154.736328"/>
       <use xlink:href="#DejaVuSans-30" x="190.820312"/>
       <use xlink:href="#DejaVuSans-37" x="254.443359"/>
      </g>
     </g>
    </g>
    <g id="xtick_5">
     <g id="line2d_5">
      <g>
       <use xlink:href="#md14bcc2f69" x="193.095336" y="168.671221" style="stroke: #000000; stroke-width: 0.8"/>
      </g>
     </g>
     <g id="text_5">
      <!-- '08-10 -->
      <g transform="translate(183.801301 203.534543) rotate(-45) scale(0.1 -0.1)">
       <use xlink:href="#DejaVuSans-27"/>
       <use xlink:href="#DejaVuSans-30" x="27.490234"/>
       <use xlink:href="#DejaVuSans-38" x="91.113281"/>
       <use xlink:href="#DejaVuSans-2d" x="154.736328"/>
       <use xlink:href="#DejaVuSans-31" x="190.820312"/>
       <use xlink:href="#DejaVuSans-30" x="254.443359"/>
      </g>
     </g>
    </g>
    <g id="xtick_6">
     <g id="line2d_6">
      <g>
       <use xlink:href="#md14bcc2f69" x="228.166469" y="168.671221" style="stroke: #000000; stroke-width: 0.8"/>
      </g>
     </g>
     <g id="text_6">
      <!-- '09-01 -->
      <g transform="translate(218.872435 203.534543) rotate(-45) scale(0.1 -0.1)">
       <defs>
        <path id="DejaVuSans-39" d="M 703 97 
L 703 672 
Q 941 559 1184 500 
Q 1428 441 1663 441 
Q 2288 441 2617 861 
Q 2947 1281 2994 2138 
Q 2813 1869 2534 1725 
Q 2256 1581 1919 1581 
Q 1219 1581 811 2004 
Q 403 2428 403 3163 
Q 403 3881 828 4315 
Q 1253 4750 1959 4750 
Q 2769 4750 3195 4129 
Q 3622 3509 3622 2328 
Q 3622 1225 3098 567 
Q 2575 -91 1691 -91 
Q 1453 -91 1209 -44 
Q 966 3 703 97 
z
M 1959 2075 
Q 2384 2075 2632 2365 
Q 2881 2656 2881 3163 
Q 2881 3666 2632 3958 
Q 2384 4250 1959 4250 
Q 1534 4250 1286 3958 
Q 1038 3666 1038 3163 
Q 1038 2656 1286 2365 
Q 1534 2075 1959 2075 
z
" transform="scale(0.015625)"/>
       </defs>
       <use xlink:href="#DejaVuSans-27"/>
       <use xlink:href="#DejaVuSans-30" x="27.490234"/>
       <use xlink:href="#DejaVuSans-39" x="91.113281"/>
       <use xlink:href="#DejaVuSans-2d" x="154.736328"/>
       <use xlink:href="#DejaVuSans-30" x="190.820312"/>
       <use xlink:href="#DejaVuSans-31" x="254.443359"/>
      </g>
     </g>
    </g>
    <g id="xtick_7">
     <g id="line2d_7">
      <g>
       <use xlink:href="#md14bcc2f69" x="262.475187" y="168.671221" style="stroke: #000000; stroke-width: 0.8"/>
      </g>
     </g>
     <g id="text_7">
      <!-- '09-04 -->
      <g transform="translate(253.181152 203.534543) rotate(-45) scale(0.1 -0.1)">
       <use xlink:href="#DejaVuSans-27"/>
       <use xlink:href="#DejaVuSans-30" x="27.490234"/>
       <use xlink:href="#DejaVuSans-39" x="91.113281"/>
       <use xlink:href="#DejaVuSans-2d" x="154.736328"/>
       <use xlink:href="#DejaVuSans-30" x="190.820312"/>
       <use xlink:href="#DejaVuSans-34" x="254.443359"/>
      </g>
     </g>
    </g>
    <g id="xtick_8">
     <g id="line2d_8">
      <g>
       <use xlink:href="#md14bcc2f69" x="297.165112" y="168.671221" style="stroke: #000000; stroke-width: 0.8"/>
      </g>
     </g>
     <g id="text_8">
      <!-- '09-07 -->
      <g transform="translate(287.871077 203.534543) rotate(-45) scale(0.1 -0.1)">
       <use xlink:href="#DejaVuSans-27"/>
       <use xlink:href="#DejaVuSans-30" x="27.490234"/>
       <use xlink:href="#DejaVuSans-39" x="91.113281"/>
       <use xlink:href="#DejaVuSans-2d" x="154.736328"/>
       <use xlink:href="#DejaVuSans-30" x="190.820312"/>
       <use xlink:href="#DejaVuSans-37" x="254.443359"/>
      </g>
     </g>
    </g>
    <g id="xtick_9">
     <g id="line2d_9">
      <g>
       <use xlink:href="#md14bcc2f69" x="332.236245" y="168.671221" style="stroke: #000000; stroke-width: 0.8"/>
      </g>
     </g>
     <g id="text_9">
      <!-- '09-10 -->
      <g transform="translate(322.942211 203.534543) rotate(-45) scale(0.1 -0.1)">
       <use xlink:href="#DejaVuSans-27"/>
       <use xlink:href="#DejaVuSans-30" x="27.490234"/>
       <use xlink:href="#DejaVuSans-39" x="91.113281"/>
       <use xlink:href="#DejaVuSans-2d" x="154.736328"/>
       <use xlink:href="#DejaVuSans-31" x="190.820312"/>
       <use xlink:href="#DejaVuSans-30" x="254.443359"/>
      </g>
     </g>
    </g>
   </g>
   <g id="matplotlib.axis_2">
    <g id="ytick_1">
     <g id="line2d_10">
      <defs>
       <path id="mcbe73ee2e6" d="M 0 0 
L -3.5 0 
" style="stroke: #000000; stroke-width: 0.8"/>
      </defs>
      <g>
       <use xlink:href="#mcbe73ee2e6" x="43.09" y="159.557405" style="stroke: #000000; stroke-width: 0.8"/>
      </g>
     </g>
     <g id="text_10">
      <!-- 700 -->
      <g transform="translate(17.0025 163.356624) scale(0.1 -0.1)">
       <use xlink:href="#DejaVuSans-37"/>
       <use xlink:href="#DejaVuSans-30" x="63.623047"/>
       <use xlink:href="#DejaVuSans-30" x="127.246094"/>
      </g>
     </g>
    </g>
    <g id="ytick_2">
     <g id="line2d_11">
      <g>
       <use xlink:href="#mcbe73ee2e6" x="43.09" y="123.973938" style="stroke: #000000; stroke-width: 0.8"/>
      </g>
     </g>
     <g id="text_11">
      <!-- 800 -->
      <g transform="translate(17.0025 127.773157) scale(0.1 -0.1)">
       <use xlink:href="#DejaVuSans-38"/>
       <use xlink:href="#DejaVuSans-30" x="63.623047"/>
       <use xlink:href="#DejaVuSans-30" x="127.246094"/>
      </g>
     </g>
    </g>
    <g id="ytick_3">
     <g id="line2d_12">
      <g>
       <use xlink:href="#mcbe73ee2e6" x="43.09" y="88.390471" style="stroke: #000000; stroke-width: 0.8"/>
      </g>
     </g>
     <g id="text_12">
      <!-- 900 -->
      <g transform="translate(17.0025 92.18969) scale(0.1 -0.1)">
       <use xlink:href="#DejaVuSans-39"/>
       <use xlink:href="#DejaVuSans-30" x="63.623047"/>
       <use xlink:href="#DejaVuSans-30" x="127.246094"/>
      </g>
     </g>
    </g>
    <g id="ytick_4">
     <g id="line2d_13">
      <g>
       <use xlink:href="#mcbe73ee2e6" x="43.09" y="52.807004" style="stroke: #000000; stroke-width: 0.8"/>
      </g>
     </g>
     <g id="text_13">
      <!-- 1000 -->
      <g transform="translate(10.64 56.606223) scale(0.1 -0.1)">
       <use xlink:href="#DejaVuSans-31"/>
       <use xlink:href="#DejaVuSans-30" x="63.623047"/>
       <use xlink:href="#DejaVuSans-30" x="127.246094"/>
       <use xlink:href="#DejaVuSans-30" x="190.869141"/>
      </g>
     </g>
    </g>
   </g>
   <g id="line2d_14">
    <path d="M 196.145 93.10528 
L 196.526208 81.985447 
L 198.05104 106.360122 
L 198.432248 106.715957 
L 198.813456 111.697642 
L 199.194664 123.618103 
L 200.338288 122.906434 
L 201.100704 139.096912 
L 201.86312 162.226165 
L 203.006743 152.262795 
L 203.387951 143.544845 
L 203.769159 142.032548 
L 204.150367 133.84835 
L 204.531575 149.416117 
L 205.675199 147.459026 
L 206.056407 147.459026 
L 206.437615 140.609209 
L 206.818823 145.679853 
L 208.343655 141.142961 
L 209.106071 148.348613 
L 209.487279 154.57572 
L 209.868487 149.060282 
L 211.012111 143.544845 
L 211.393319 146.56944 
L 211.774527 146.124646 
L 212.155735 143.455886 
L 212.536943 138.741077 
L 213.680567 118.013707 
L 214.061775 123.084351 
L 214.442983 117.924749 
L 214.824191 119.17017 
L 215.205399 119.17017 
L 216.349022 125.575194 
L 216.73023 133.759392 
L 217.111438 133.403557 
L 217.873854 134.026268 
L 219.017478 133.84835 
L 219.398686 134.293144 
L 219.779894 129.044582 
L 220.161102 116.50141 
L 220.54231 119.081211 
L 221.685934 114.188485 
L 222.067142 112.053477 
L 222.829558 98.175924 
L 223.210766 110.096386 
L 224.35439 107.605543 
L 224.735598 108.317213 
L 225.116806 110.897014 
L 227.022846 95.15133 
L 227.404054 99.065511 
L 227.785262 100.844684 
L 228.547677 99.15447 
L 229.691301 102.623858 
L 230.072509 108.317213 
L 230.453717 101.200519 
L 230.834925 108.850965 
L 231.216133 104.758866 
L 232.359757 106.715957 
L 232.740965 118.458501 
L 233.122173 114.277443 
L 233.503381 119.348087 
L 233.884589 115.344947 
L 235.028213 108.850965 
L 235.409421 111.519725 
L 235.790629 102.44594 
L 236.171837 106.982833 
L 236.553045 97.998007 
L 237.696669 86.077546 
L 238.077877 89.81381 
L 238.459085 91.504024 
L 238.840293 96.040916 
L 239.221501 81.80753 
L 240.365125 83.497744 
L 240.746333 87.678802 
L 241.12754 87.589843 
L 241.508748 83.14191 
L 241.889956 83.408786 
L 243.414788 89.81381 
L 244.177204 72.733745 
L 244.558412 74.42396 
L 245.702036 73.08958 
L 246.083244 66.239763 
L 246.464452 65.350176 
L 247.226868 59.567863 
L 248.370492 57.432855 
L 248.7517 56.454309 
L 249.132908 68.374771 
L 249.514116 72.377911 
L 249.895324 72.822704 
L 251.038948 70.776655 
L 251.420156 79.583563 
L 251.801364 84.47629 
L 252.182572 83.675662 
L 252.56378 74.957712 
L 253.707403 76.025216 
L 254.088611 84.298372 
L 254.469819 88.390471 
L 254.851027 83.230868 
L 255.232235 81.273778 
L 256.375859 80.206273 
L 256.757067 81.273778 
L 257.138275 84.565248 
L 257.900691 68.107895 
L 259.044315 69.620192 
L 259.425523 78.160224 
L 259.806731 80.828984 
L 260.187939 75.75834 
L 260.569147 78.782935 
L 261.712771 80.206273 
L 262.093979 81.80753 
L 262.475187 81.451695 
L 262.856395 83.14191 
L 263.237603 87.856719 
L 264.381227 95.685082 
L 264.762435 95.77404 
L 265.143643 92.927363 
L 265.524851 94.172784 
L 267.43089 90.169644 
L 268.193306 92.304652 
L 268.574514 98.353842 
L 269.718138 99.065511 
L 270.099346 92.393611 
L 270.480554 93.727991 
L 270.861762 90.347562 
L 271.24297 85.187959 
L 272.386594 84.209414 
L 272.767802 89.457975 
L 273.14901 90.347562 
L 273.530218 92.304652 
L 273.911426 94.973412 
L 275.436258 87.322967 
L 275.817466 87.14505 
L 276.198674 83.853579 
L 276.579882 82.163364 
L 277.723506 83.942538 
L 278.485922 79.227728 
L 278.86713 80.117315 
L 280.391961 77.804389 
L 280.773169 80.740025 
L 281.154377 78.249183 
L 281.916793 69.709151 
L 283.441625 73.445415 
L 283.822833 70.776655 
L 284.204041 70.687696 
L 284.585249 62.770375 
L 285.728873 57.432855 
L 286.110081 62.236623 
L 286.491289 60.279532 
L 286.872497 64.460589 
L 287.253705 60.724325 
L 288.397329 71.844159 
L 288.778537 69.709151 
L 289.159745 66.595597 
L 289.540953 69.531233 
L 289.922161 70.598737 
L 291.065785 77.003761 
L 291.446993 75.313547 
L 291.8282 76.381051 
L 292.209408 75.313547 
L 293.73424 79.850439 
L 294.115448 81.184819 
L 294.496656 78.160224 
L 294.877864 76.203133 
L 295.259072 73.08958 
L 296.402696 74.246043 
L 296.783904 73.801249 
L 297.165112 77.181679 
L 297.54632 75.580423 
L 299.071152 80.740025 
L 299.45236 79.227728 
L 300.595984 84.832124 
L 301.739608 85.365876 
L 302.120816 80.651067 
L 302.502024 77.715431 
L 302.883232 75.847299 
L 303.26444 76.114175 
L 304.408064 69.798109 
L 304.789271 71.399365 
L 305.170479 72.199993 
L 305.551687 68.730605 
L 305.932895 70.687696 
L 307.076519 68.463729 
L 307.457727 68.819564 
L 307.838935 75.75834 
L 308.220143 77.003761 
L 308.601351 75.402505 
L 309.744975 69.08644 
L 310.126183 69.353316 
L 310.507391 65.439135 
L 310.888599 66.773515 
L 311.269807 66.862473 
L 312.413431 69.353316 
L 312.794639 72.022076 
L 313.175847 72.911663 
L 313.557055 68.463729 
L 313.938263 67.929977 
L 315.081887 75.046671 
L 315.463095 74.779795 
L 315.844303 76.203133 
L 316.225511 72.911663 
L 316.606719 73.623332 
L 317.750342 69.264357 
L 318.13155 71.488324 
L 318.512758 70.776655 
L 318.893966 72.911663 
L 319.275174 70.331861 
L 320.800006 70.687696 
L 321.181214 68.819564 
L 321.562422 59.034111 
L 321.94363 57.343896 
L 323.087254 55.386805 
L 323.468462 51.205748 
L 324.230878 56.899102 
L 324.612086 53.429714 
L 325.75571 54.853053 
L 326.136918 53.69659 
L 326.518126 46.757814 
L 326.899334 45.512393 
L 327.280542 47.825318 
L 328.424166 53.07388 
L 328.805374 47.202608 
L 329.56779 47.825318 
L 329.948998 53.874508 
L 331.092621 56.187433 
L 331.473829 55.74264 
L 331.855037 52.36221 
L 332.236245 50.760954 
L 332.617453 53.518673 
L 333.761077 51.294706 
L 334.142285 45.601352 
L 334.523493 36.082774 
L 334.904701 33.325055 
L 335.285909 36.171733 
L 335.285909 36.171733 
" clip-path="url(#p8ef4ad753f)" style="fill: none; stroke: #d3d3d3; stroke-linecap: square"/>
   </g>
   <g id="line2d_15">
    <path d="M 57.004091 145.146101 
L 57.385299 142.655258 
L 57.766507 142.299424 
L 58.910131 139.684039 
L 59.291339 137.584614 
L 60.053755 138.794452 
L 60.434963 135.271689 
L 61.578587 139.772998 
L 61.959795 139.096912 
L 62.341002 139.150287 
L 62.72221 136.428152 
L 63.103418 132.656304 
L 64.247042 126.642698 
L 64.62825 129.667293 
L 65.009458 130.023128 
L 65.390666 126.820615 
L 65.771874 127.265409 
L 66.915498 123.084351 
L 67.296706 117.72904 
L 67.677914 109.117841 
L 68.059122 112.49827 
L 68.44033 111.16389 
L 69.583954 117.924749 
L 69.965162 122.7641 
L 70.34637 121.038302 
L 70.727578 121.83893 
L 71.108786 127.443326 
L 72.25241 128.066037 
L 72.633618 127.656827 
L 73.777242 120.237674 
L 74.920866 111.074931 
L 75.302073 115.700782 
L 75.683281 125.219359 
L 76.064489 121.394137 
L 76.445697 125.84207 
L 77.589321 129.756252 
L 77.970529 127.443326 
L 78.351737 123.351227 
L 78.732945 127.977078 
L 79.114153 124.062897 
L 80.257777 123.973938 
L 80.638985 121.572054 
L 81.020193 121.305178 
L 81.401401 120.771426 
L 81.782609 125.308318 
L 82.926233 128.599789 
L 83.307441 125.308318 
L 83.688649 123.440186 
L 84.069857 124.151855 
L 84.451065 122.906434 
L 85.594689 120.326633 
L 86.738313 115.967658 
L 87.119521 113.83265 
L 88.263144 110.985973 
L 89.02556 109.473675 
L 89.406768 100.720142 
L 89.787976 103.068651 
L 90.9316 103.513444 
L 91.694016 92.713862 
L 92.075224 97.553214 
L 92.456432 90.614438 
L 93.600056 84.298372 
L 93.981264 86.700256 
L 94.362472 95.15133 
L 94.74368 94.973412 
L 95.124888 98.086966 
L 96.268512 97.553214 
L 96.64972 101.912188 
L 97.030928 92.731654 
L 97.412136 91.415066 
L 97.793344 80.828984 
L 98.936968 82.519199 
L 99.318176 78.605017 
L 99.699384 79.939397 
L 100.080592 79.939397 
L 100.4618 76.647927 
L 101.986631 92.037776 
L 102.367839 91.237148 
L 102.749047 85.454835 
L 103.130255 83.408786 
L 104.273879 79.316687 
L 104.655087 81.184819 
L 105.036295 86.344422 
L 105.417503 84.529665 
L 105.798711 84.921083 
L 106.942335 86.611298 
L 107.704751 79.547979 
L 108.085959 73.08958 
L 108.467167 72.111035 
L 109.610791 71.488324 
L 109.991999 76.292092 
L 110.373207 67.485184 
L 110.754415 68.107895 
L 111.135623 63.837879 
L 112.660455 59.300987 
L 113.041663 64.816424 
L 113.42287 57.699731 
L 113.804078 60.457449 
L 114.947702 62.361165 
L 115.32891 59.74578 
L 115.710118 61.435995 
L 116.091326 56.988061 
L 117.616158 44.444889 
L 117.997366 50.760954 
L 118.378574 54.497218 
L 118.759782 83.586703 
L 120.665822 77.484138 
L 121.04703 72.111035 
L 121.428238 71.221448 
L 121.809446 72.555828 
L 122.95307 75.135629 
L 123.334278 89.457975 
L 123.715486 90.703396 
L 124.096694 89.013182 
L 124.477902 86.522339 
L 125.621526 83.159701 
L 126.002733 80.917943 
L 126.383941 85.988587 
L 126.765149 76.203133 
L 127.146357 79.316687 
L 128.289981 82.074406 
L 128.671189 77.09272 
L 129.052397 76.736885 
L 129.433605 70.064985 
L 130.958437 82.786075 
L 131.339645 81.006902 
L 131.720853 82.608158 
L 132.483269 94.261743 
L 133.626893 91.14819 
L 134.008101 93.372156 
L 134.389309 99.866139 
L 134.770517 101.378436 
L 135.151725 104.669907 
L 136.676557 96.218834 
L 137.057765 97.642172 
L 137.438973 98.264883 
L 137.820181 92.927363 
L 138.963804 94.617578 
L 139.345012 96.574668 
L 139.72622 101.556354 
L 140.107428 100.399891 
L 140.488636 93.727991 
L 141.63226 85.276918 
L 142.013468 85.899628 
L 142.394676 79.494604 
L 142.775884 78.338141 
L 143.157092 80.473149 
L 144.681924 79.939397 
L 145.063132 91.237148 
L 145.44434 90.881314 
L 145.825548 95.685082 
L 147.35038 89.991727 
L 147.731588 96.48571 
L 148.112796 97.998007 
L 148.494004 94.261743 
L 149.637628 86.878174 
L 150.018836 93.905908 
L 150.400044 97.553214 
L 150.781252 98.620718 
L 151.16246 101.200519 
L 152.306083 98.353842 
L 152.687291 94.43966 
L 153.068499 94.083826 
L 153.830915 88.390471 
L 154.974539 86.522339 
L 155.355747 92.48257 
L 155.736955 92.927363 
L 156.118163 91.059231 
L 156.499371 80.206273 
L 157.642995 76.736885 
L 158.024203 77.893348 
L 158.405411 75.580423 
L 158.786619 74.246043 
L 159.167827 77.448555 
L 160.311451 80.917943 
L 160.692659 77.982307 
L 161.073867 80.117315 
L 161.455075 77.448555 
L 161.836283 70.954572 
L 162.979907 67.841019 
L 163.361115 59.300987 
L 164.123531 65.439135 
L 164.504738 66.506639 
L 165.648362 64.816424 
L 166.02957 62.41454 
L 166.410778 76.025216 
L 166.791986 78.516059 
L 167.173194 76.914803 
L 168.316818 77.982307 
L 168.698026 78.160224 
L 169.079234 83.373202 
L 169.84165 85.010042 
L 170.985274 84.832124 
L 171.366482 94.083826 
L 171.74769 93.81695 
L 172.128898 94.617578 
L 172.510106 101.022602 
L 173.65373 101.289478 
L 174.034938 120.860385 
L 174.416146 115.433906 
L 174.797354 112.142435 
L 175.178562 129.400417 
L 176.322186 124.863525 
L 176.703394 127.17645 
L 177.465809 116.50141 
L 177.847017 113.298898 
L 179.371849 120.50455 
L 179.753057 112.053477 
L 180.134265 112.587229 
L 180.515473 110.985973 
L 181.659097 112.587229 
L 182.040305 123.084351 
L 182.421513 125.931029 
L 182.802721 120.237674 
L 183.183929 125.308318 
L 184.327553 121.661013 
L 184.708761 124.062897 
L 185.471177 144.345473 
L 185.852385 139.096912 
L 186.996009 131.357508 
L 187.377217 131.17959 
L 187.758425 129.133541 
L 188.139633 101.11156 
L 188.520841 110.630138 
L 189.664465 97.998007 
L 190.045672 91.059231 
L 190.42688 92.48257 
L 190.808088 92.304652 
L 191.189296 99.421346 
L 192.33292 96.752586 
L 192.714128 89.457975 
L 193.095336 96.930503 
L 193.476544 100.399891 
L 193.857752 108.850965 
L 195.001376 110.985973 
L 195.382584 94.884454 
L 195.763792 83.76462 
L 196.145 93.10528 
L 196.145 93.10528 
" clip-path="url(#p8ef4ad753f)" style="fill: none; stroke: #000000; stroke-linecap: square"/>
   </g>
   <g id="patch_3">
    <path d="M 43.09 168.671221 
L 43.09 26.88 
" style="fill: none; stroke: #000000; stroke-width: 0.8; stroke-linejoin: miter; stroke-linecap: square"/>
   </g>
   <g id="patch_4">
    <path d="M 349.2 168.671221 
L 349.2 26.88 
" style="fill: none; stroke: #000000; stroke-width: 0.8; stroke-linejoin: miter; stroke-linecap: square"/>
   </g>
   <g id="patch_5">
    <path d="M 43.09 168.671221 
L 349.2 168.671221 
" style="fill: none; stroke: #000000; stroke-width: 0.8; stroke-linejoin: miter; stroke-linecap: square"/>
   </g>
   <g id="patch_6">
    <path d="M 43.09 26.88 
L 349.2 26.88 
" style="fill: none; stroke: #000000; stroke-width: 0.8; stroke-linejoin: miter; stroke-linecap: square"/>
   </g>
   <g id="text_14">
    <!-- Gold -->
    <g transform="translate(182.34875 20.88) scale(0.12 -0.12)">
     <defs>
      <path id="DejaVuSans-47" d="M 3809 666 
L 3809 1919 
L 2778 1919 
L 2778 2438 
L 4434 2438 
L 4434 434 
Q 4069 175 3628 42 
Q 3188 -91 2688 -91 
Q 1594 -91 976 548 
Q 359 1188 359 2328 
Q 359 3472 976 4111 
Q 1594 4750 2688 4750 
Q 3144 4750 3555 4637 
Q 3966 4525 4313 4306 
L 4313 3634 
Q 3963 3931 3569 4081 
Q 3175 4231 2741 4231 
Q 1884 4231 1454 3753 
Q 1025 3275 1025 2328 
Q 1025 1384 1454 906 
Q 1884 428 2741 428 
Q 3075 428 3337 486 
Q 3600 544 3809 666 
z
" transform="scale(0.015625)"/>
      <path id="DejaVuSans-6f" d="M 1959 3097 
Q 1497 3097 1228 2736 
Q 959 2375 959 1747 
Q 959 1119 1226 758 
Q 1494 397 1959 397 
Q 2419 397 2687 759 
Q 2956 1122 2956 1747 
Q 2956 2369 2687 2733 
Q 2419 3097 1959 3097 
z
M 1959 3584 
Q 2709 3584 3137 3096 
Q 3566 2609 3566 1747 
Q 3566 888 3137 398 
Q 2709 -91 1959 -91 
Q 1206 -91 779 398 
Q 353 888 353 1747 
Q 353 2609 779 3096 
Q 1206 3584 1959 3584 
z
" transform="scale(0.015625)"/>
      <path id="DejaVuSans-6c" d="M 603 4863 
L 1178 4863 
L 1178 0 
L 603 0 
L 603 4863 
z
" transform="scale(0.015625)"/>
      <path id="DejaVuSans-64" d="M 2906 2969 
L 2906 4863 
L 3481 4863 
L 3481 0 
L 2906 0 
L 2906 525 
Q 2725 213 2448 61 
Q 2172 -91 1784 -91 
Q 1150 -91 751 415 
Q 353 922 353 1747 
Q 353 2572 751 3078 
Q 1150 3584 1784 3584 
Q 2172 3584 2448 3432 
Q 2725 3281 2906 2969 
z
M 947 1747 
Q 947 1113 1208 752 
Q 1469 391 1925 391 
Q 2381 391 2643 752 
Q 2906 1113 2906 1747 
Q 2906 2381 2643 2742 
Q 2381 3103 1925 3103 
Q 1469 3103 1208 2742 
Q 947 2381 947 1747 
z
" transform="scale(0.015625)"/>
     </defs>
     <use xlink:href="#DejaVuSans-47"/>
     <use xlink:href="#DejaVuSans-6f" x="77.490234"/>
     <use xlink:href="#DejaVuSans-6c" x="138.671875"/>
     <use xlink:href="#DejaVuSans-64" x="166.455078"/>
    </g>
   </g>
  </g>
 </g>
 <defs>
  <clipPath id="p8ef4ad753f">
   <rect x="43.09" y="26.88" width="306.11" height="141.791221"/>
  </clipPath>
 </defs>
</svg>
