<?xml version="1.0" encoding="utf-8" standalone="no"?>
<!DOCTYPE svg PUBLIC "-//W3C//DTD SVG 1.1//EN"
  "http://www.w3.org/Graphics/SVG/1.1/DTD/svg11.dtd">
<svg xmlns:xlink="http://www.w3.org/1999/xlink" width="360pt" height="216pt" viewBox="0 0 360 216" xmlns="http://www.w3.org/2000/svg" version="1.1">
 <metadata>
  <rdf:RDF xmlns:dc="http://purl.org/dc/elements/1.1/" xmlns:cc="http://creativecommons.org/ns#" xmlns:rdf="http://www.w3.org/1999/02/22-rdf-syntax-ns#">
   <cc:Work>
    <dc:type rdf:resource="http://purl.org/dc/dcmitype/StillImage"/>
    <dc:date>2023-03-24T15:59:34.397041</dc:date>
    <dc:format>image/svg+xml</dc:format>
    <dc:creator>
     <cc:Agent>
      <dc:title>Matplotlib v3.6.3, https://matplotlib.org/</dc:title>
     </cc:Agent>
    </dc:creator>
   </cc:Work>
  </rdf:RDF>
 </metadata>
 <defs>
  <style type="text/css">*{stroke-linejoin: round; stroke-linecap: butt}</style>
 </defs>
 <g id="figure_1">
  <g id="patch_1">
   <path d="M 0 216 
L 360 216 
L 360 0 
L 0 0 
z
" style="fill: #ffffff"/>
  </g>
  <g id="axes_1">
   <g id="patch_2">
    <path d="M 43.09 168.671221 
L 342.594421 168.671221 
L 342.594421 26.88 
L 43.09 26.88 
z
" style="fill: #ffffff"/>
   </g>
   <g id="matplotlib.axis_1">
    <g id="xtick_1">
     <g id="line2d_1">
      <defs>
       <path id="m0f210defed" d="M 0 0 
L 0 3.5 
" style="stroke: #000000; stroke-width: 0.8"/>
      </defs>
      <g>
       <use xlink:href="#m0f210defed" x="60.812266" y="168.671221" style="stroke: #000000; stroke-width: 0.8"/>
      </g>
     </g>
     <g id="text_1">
      <!-- '07-10 -->
      <g transform="translate(51.518231 203.534543) rotate(-45) scale(0.1 -0.1)">
       <defs>
        <path id="DejaVuSans-27" d="M 1147 4666 
L 1147 2931 
L 616 2931 
L 616 4666 
L 1147 4666 
z
" transform="scale(0.015625)"/>
        <path id="DejaVuSans-30" d="M 2034 4250 
Q 1547 4250 1301 3770 
Q 1056 3291 1056 2328 
Q 1056 1369 1301 889 
Q 1547 409 2034 409 
Q 2525 409 2770 889 
Q 3016 1369 3016 2328 
Q 3016 3291 2770 3770 
Q 2525 4250 2034 4250 
z
M 2034 4750 
Q 2819 4750 3233 4129 
Q 3647 3509 3647 2328 
Q 3647 1150 3233 529 
Q 2819 -91 2034 -91 
Q 1250 -91 836 529 
Q 422 1150 422 2328 
Q 422 3509 836 4129 
Q 1250 4750 2034 4750 
z
" transform="scale(0.015625)"/>
        <path id="DejaVuSans-37" d="M 525 4666 
L 3525 4666 
L 3525 4397 
L 1831 0 
L 1172 0 
L 2766 4134 
L 525 4134 
L 525 4666 
z
" transform="scale(0.015625)"/>
        <path id="DejaVuSans-2d" d="M 313 2009 
L 1997 2009 
L 1997 1497 
L 313 1497 
L 313 2009 
z
" transform="scale(0.015625)"/>
        <path id="DejaVuSans-31" d="M 794 531 
L 1825 531 
L 1825 4091 
L 703 3866 
L 703 4441 
L 1819 4666 
L 2450 4666 
L 2450 531 
L 3481 531 
L 3481 0 
L 794 0 
L 794 531 
z
" transform="scale(0.015625)"/>
       </defs>
       <use xlink:href="#DejaVuSans-27"/>
       <use xlink:href="#DejaVuSans-30" x="27.490234"/>
       <use xlink:href="#DejaVuSans-37" x="91.113281"/>
       <use xlink:href="#DejaVuSans-2d" x="154.736328"/>
       <use xlink:href="#DejaVuSans-31" x="190.820312"/>
       <use xlink:href="#DejaVuSans-30" x="254.443359"/>
      </g>
     </g>
    </g>
    <g id="xtick_2">
     <g id="line2d_2">
      <g>
       <use xlink:href="#m0f210defed" x="95.173666" y="168.671221" style="stroke: #000000; stroke-width: 0.8"/>
      </g>
     </g>
     <g id="text_2">
      <!-- '08-01 -->
      <g transform="translate(85.879631 203.534543) rotate(-45) scale(0.1 -0.1)">
       <defs>
        <path id="DejaVuSans-38" d="M 2034 2216 
Q 1584 2216 1326 1975 
Q 1069 1734 1069 1313 
Q 1069 891 1326 650 
Q 1584 409 2034 409 
Q 2484 409 2743 651 
Q 3003 894 3003 1313 
Q 3003 1734 2745 1975 
Q 2488 2216 2034 2216 
z
M 1403 2484 
Q 997 2584 770 2862 
Q 544 3141 544 3541 
Q 544 4100 942 4425 
Q 1341 4750 2034 4750 
Q 2731 4750 3128 4425 
Q 3525 4100 3525 3541 
Q 3525 3141 3298 2862 
Q 3072 2584 2669 2484 
Q 3125 2378 3379 2068 
Q 3634 1759 3634 1313 
Q 3634 634 3220 271 
Q 2806 -91 2034 -91 
Q 1263 -91 848 271 
Q 434 634 434 1313 
Q 434 1759 690 2068 
Q 947 2378 1403 2484 
z
M 1172 3481 
Q 1172 3119 1398 2916 
Q 1625 2713 2034 2713 
Q 2441 2713 2670 2916 
Q 2900 3119 2900 3481 
Q 2900 3844 2670 4047 
Q 2441 4250 2034 4250 
Q 1625 4250 1398 4047 
Q 1172 3844 1172 3481 
z
" transform="scale(0.015625)"/>
       </defs>
       <use xlink:href="#DejaVuSans-27"/>
       <use xlink:href="#DejaVuSans-30" x="27.490234"/>
       <use xlink:href="#DejaVuSans-38" x="91.113281"/>
       <use xlink:href="#DejaVuSans-2d" x="154.736328"/>
       <use xlink:href="#DejaVuSans-30" x="190.820312"/>
       <use xlink:href="#DejaVuSans-31" x="254.443359"/>
      </g>
     </g>
    </g>
    <g id="xtick_3">
     <g id="line2d_3">
      <g>
       <use xlink:href="#m0f210defed" x="129.161572" y="168.671221" style="stroke: #000000; stroke-width: 0.8"/>
      </g>
     </g>
     <g id="text_3">
      <!-- '08-04 -->
      <g transform="translate(119.867537 203.534543) rotate(-45) scale(0.1 -0.1)">
       <defs>
        <path id="DejaVuSans-34" d="M 2419 4116 
L 825 1625 
L 2419 1625 
L 2419 4116 
z
M 2253 4666 
L 3047 4666 
L 3047 1625 
L 3713 1625 
L 3713 1100 
L 3047 1100 
L 3047 0 
L 2419 0 
L 2419 1100 
L 313 1100 
L 313 1709 
L 2253 4666 
z
" transform="scale(0.015625)"/>
       </defs>
       <use xlink:href="#DejaVuSans-27"/>
       <use xlink:href="#DejaVuSans-30" x="27.490234"/>
       <use xlink:href="#DejaVuSans-38" x="91.113281"/>
       <use xlink:href="#DejaVuSans-2d" x="154.736328"/>
       <use xlink:href="#DejaVuSans-30" x="190.820312"/>
       <use xlink:href="#DejaVuSans-34" x="254.443359"/>
      </g>
     </g>
    </g>
    <g id="xtick_4">
     <g id="line2d_4">
      <g>
       <use xlink:href="#m0f210defed" x="163.149479" y="168.671221" style="stroke: #000000; stroke-width: 0.8"/>
      </g>
     </g>
     <g id="text_4">
      <!-- '08-07 -->
      <g transform="translate(153.855444 203.534543) rotate(-45) scale(0.1 -0.1)">
       <use xlink:href="#DejaVuSans-27"/>
       <use xlink:href="#DejaVuSans-30" x="27.490234"/>
       <use xlink:href="#DejaVuSans-38" x="91.113281"/>
       <use xlink:href="#DejaVuSans-2d" x="154.736328"/>
       <use xlink:href="#DejaVuSans-30" x="190.820312"/>
       <use xlink:href="#DejaVuSans-37" x="254.443359"/>
      </g>
     </g>
    </g>
    <g id="xtick_5">
     <g id="line2d_5">
      <g>
       <use xlink:href="#m0f210defed" x="197.510879" y="168.671221" style="stroke: #000000; stroke-width: 0.8"/>
      </g>
     </g>
     <g id="text_5">
      <!-- '08-10 -->
      <g transform="translate(188.216844 203.534543) rotate(-45) scale(0.1 -0.1)">
       <use xlink:href="#DejaVuSans-27"/>
       <use xlink:href="#DejaVuSans-30" x="27.490234"/>
       <use xlink:href="#DejaVuSans-38" x="91.113281"/>
       <use xlink:href="#DejaVuSans-2d" x="154.736328"/>
       <use xlink:href="#DejaVuSans-31" x="190.820312"/>
       <use xlink:href="#DejaVuSans-30" x="254.443359"/>
      </g>
     </g>
    </g>
    <g id="xtick_6">
     <g id="line2d_6">
      <g>
       <use xlink:href="#m0f210defed" x="231.872279" y="168.671221" style="stroke: #000000; stroke-width: 0.8"/>
      </g>
     </g>
     <g id="text_6">
      <!-- '09-01 -->
      <g transform="translate(222.578244 203.534543) rotate(-45) scale(0.1 -0.1)">
       <defs>
        <path id="DejaVuSans-39" d="M 703 97 
L 703 672 
Q 941 559 1184 500 
Q 1428 441 1663 441 
Q 2288 441 2617 861 
Q 2947 1281 2994 2138 
Q 2813 1869 2534 1725 
Q 2256 1581 1919 1581 
Q 1219 1581 811 2004 
Q 403 2428 403 3163 
Q 403 3881 828 4315 
Q 1253 4750 1959 4750 
Q 2769 4750 3195 4129 
Q 3622 3509 3622 2328 
Q 3622 1225 3098 567 
Q 2575 -91 1691 -91 
Q 1453 -91 1209 -44 
Q 966 3 703 97 
z
M 1959 2075 
Q 2384 2075 2632 2365 
Q 2881 2656 2881 3163 
Q 2881 3666 2632 3958 
Q 2384 4250 1959 4250 
Q 1534 4250 1286 3958 
Q 1038 3666 1038 3163 
Q 1038 2656 1286 2365 
Q 1534 2075 1959 2075 
z
" transform="scale(0.015625)"/>
       </defs>
       <use xlink:href="#DejaVuSans-27"/>
       <use xlink:href="#DejaVuSans-30" x="27.490234"/>
       <use xlink:href="#DejaVuSans-39" x="91.113281"/>
       <use xlink:href="#DejaVuSans-2d" x="154.736328"/>
       <use xlink:href="#DejaVuSans-30" x="190.820312"/>
       <use xlink:href="#DejaVuSans-31" x="254.443359"/>
      </g>
     </g>
    </g>
    <g id="xtick_7">
     <g id="line2d_7">
      <g>
       <use xlink:href="#m0f210defed" x="265.486692" y="168.671221" style="stroke: #000000; stroke-width: 0.8"/>
      </g>
     </g>
     <g id="text_7">
      <!-- '09-04 -->
      <g transform="translate(256.192657 203.534543) rotate(-45) scale(0.1 -0.1)">
       <use xlink:href="#DejaVuSans-27"/>
       <use xlink:href="#DejaVuSans-30" x="27.490234"/>
       <use xlink:href="#DejaVuSans-39" x="91.113281"/>
       <use xlink:href="#DejaVuSans-2d" x="154.736328"/>
       <use xlink:href="#DejaVuSans-30" x="190.820312"/>
       <use xlink:href="#DejaVuSans-34" x="254.443359"/>
      </g>
     </g>
    </g>
    <g id="xtick_8">
     <g id="line2d_8">
      <g>
       <use xlink:href="#m0f210defed" x="299.474599" y="168.671221" style="stroke: #000000; stroke-width: 0.8"/>
      </g>
     </g>
     <g id="text_8">
      <!-- '09-07 -->
      <g transform="translate(290.180564 203.534543) rotate(-45) scale(0.1 -0.1)">
       <use xlink:href="#DejaVuSans-27"/>
       <use xlink:href="#DejaVuSans-30" x="27.490234"/>
       <use xlink:href="#DejaVuSans-39" x="91.113281"/>
       <use xlink:href="#DejaVuSans-2d" x="154.736328"/>
       <use xlink:href="#DejaVuSans-30" x="190.820312"/>
       <use xlink:href="#DejaVuSans-37" x="254.443359"/>
      </g>
     </g>
    </g>
    <g id="xtick_9">
     <g id="line2d_9">
      <g>
       <use xlink:href="#m0f210defed" x="333.835999" y="168.671221" style="stroke: #000000; stroke-width: 0.8"/>
      </g>
     </g>
     <g id="text_9">
      <!-- '09-10 -->
      <g transform="translate(324.541964 203.534543) rotate(-45) scale(0.1 -0.1)">
       <use xlink:href="#DejaVuSans-27"/>
       <use xlink:href="#DejaVuSans-30" x="27.490234"/>
       <use xlink:href="#DejaVuSans-39" x="91.113281"/>
       <use xlink:href="#DejaVuSans-2d" x="154.736328"/>
       <use xlink:href="#DejaVuSans-31" x="190.820312"/>
       <use xlink:href="#DejaVuSans-30" x="254.443359"/>
      </g>
     </g>
    </g>
   </g>
   <g id="matplotlib.axis_2">
    <g id="ytick_1">
     <g id="line2d_10">
      <defs>
       <path id="m4bb960a2df" d="M 0 0 
L -3.5 0 
" style="stroke: #000000; stroke-width: 0.8"/>
      </defs>
      <g>
       <use xlink:href="#m4bb960a2df" x="43.09" y="159.305445" style="stroke: #000000; stroke-width: 0.8"/>
      </g>
     </g>
     <g id="text_10">
      <!-- 700 -->
      <g transform="translate(17.0025 163.104664) scale(0.1 -0.1)">
       <use xlink:href="#DejaVuSans-37"/>
       <use xlink:href="#DejaVuSans-30" x="63.623047"/>
       <use xlink:href="#DejaVuSans-30" x="127.246094"/>
      </g>
     </g>
    </g>
    <g id="ytick_2">
     <g id="line2d_11">
      <g>
       <use xlink:href="#m4bb960a2df" x="43.09" y="120.362512" style="stroke: #000000; stroke-width: 0.8"/>
      </g>
     </g>
     <g id="text_11">
      <!-- 800 -->
      <g transform="translate(17.0025 124.161731) scale(0.1 -0.1)">
       <use xlink:href="#DejaVuSans-38"/>
       <use xlink:href="#DejaVuSans-30" x="63.623047"/>
       <use xlink:href="#DejaVuSans-30" x="127.246094"/>
      </g>
     </g>
    </g>
    <g id="ytick_3">
     <g id="line2d_12">
      <g>
       <use xlink:href="#m4bb960a2df" x="43.09" y="81.419578" style="stroke: #000000; stroke-width: 0.8"/>
      </g>
     </g>
     <g id="text_12">
      <!-- 900 -->
      <g transform="translate(17.0025 85.218797) scale(0.1 -0.1)">
       <use xlink:href="#DejaVuSans-39"/>
       <use xlink:href="#DejaVuSans-30" x="63.623047"/>
       <use xlink:href="#DejaVuSans-30" x="127.246094"/>
      </g>
     </g>
    </g>
    <g id="ytick_4">
     <g id="line2d_13">
      <g>
       <use xlink:href="#m4bb960a2df" x="43.09" y="42.476645" style="stroke: #000000; stroke-width: 0.8"/>
      </g>
     </g>
     <g id="text_13">
      <!-- 1000 -->
      <g transform="translate(10.64 46.275864) scale(0.1 -0.1)">
       <use xlink:href="#DejaVuSans-31"/>
       <use xlink:href="#DejaVuSans-30" x="63.623047"/>
       <use xlink:href="#DejaVuSans-30" x="127.246094"/>
       <use xlink:href="#DejaVuSans-30" x="190.869141"/>
      </g>
     </g>
    </g>
   </g>
   <g id="line2d_14">
    <path d="M 193.028957 105.758912 
L 194.149438 91.93417 
L 194.522931 84.340298 
L 194.896425 85.898016 
L 195.269918 85.703301 
L 195.643411 93.491888 
L 196.763892 90.571168 
L 197.137385 82.587866 
L 197.510879 90.765882 
L 197.884372 94.562818 
L 198.257866 103.811765 
L 199.378346 106.148341 
L 199.75184 88.526664 
L 200.125333 76.356997 
L 200.498827 86.579517 
L 200.87232 102.059333 
L 201.992801 108.679632 
L 202.366294 106.9272 
L 202.739788 101.475189 
L 203.113281 118.61008 
L 203.486775 127.37224 
L 204.607255 119.194224 
L 205.354242 136.913259 
L 206.101229 162.226165 
L 207.221709 151.322144 
L 207.595203 141.781125 
L 207.968696 140.126051 
L 208.34219 131.169176 
L 208.715683 148.206709 
L 209.836164 146.064848 
L 210.209657 146.064848 
L 210.583151 138.568333 
L 210.956644 144.117701 
L 212.450618 139.152477 
L 213.197605 147.038421 
L 213.571098 153.853435 
L 213.944592 147.81728 
L 215.065072 141.781125 
L 215.438566 145.091275 
L 215.812059 144.604488 
L 216.185553 141.683768 
L 216.559046 136.523829 
L 217.679527 113.83957 
L 218.05302 119.388938 
L 218.426514 113.742213 
L 218.800007 115.105216 
L 219.173501 115.105216 
L 220.293981 122.114944 
L 220.667475 131.071819 
L 221.040968 130.682389 
L 221.787955 131.363891 
L 222.908435 131.169176 
L 223.281929 131.655963 
L 223.655422 125.91188 
L 224.028916 112.184496 
L 224.402409 115.007858 
L 225.52289 109.653205 
L 225.896383 107.316629 
L 226.64337 92.128885 
L 227.016864 105.174768 
L 228.137344 102.448762 
L 228.510838 103.227621 
L 228.884331 106.050984 
L 230.751798 88.818736 
L 231.125292 93.102458 
L 231.498785 95.049605 
L 232.245772 93.199816 
L 233.366253 96.996752 
L 233.739746 103.227621 
L 234.11324 95.439034 
L 234.486733 103.811765 
L 234.860227 99.333328 
L 235.980707 101.475189 
L 236.354201 114.326357 
L 236.727694 109.750562 
L 237.101188 115.29993 
L 237.474681 110.91885 
L 238.595162 103.811765 
L 238.968655 106.732485 
L 239.342148 96.802037 
L 239.715642 101.767261 
L 240.089135 91.93417 
L 241.209616 78.888288 
L 241.583109 82.977296 
L 241.956603 84.827085 
L 242.330096 89.792309 
L 242.70359 74.215136 
L 243.82407 76.064925 
L 244.197564 80.64072 
L 244.571057 80.543362 
L 244.944551 75.675496 
L 245.318044 75.967568 
L 246.812018 82.977296 
L 247.559005 64.284688 
L 247.932499 66.134477 
L 249.052979 64.674117 
L 249.426472 57.177602 
L 249.799966 56.204029 
L 250.546953 49.875802 
L 251.667433 47.539226 
L 252.040927 46.468296 
L 252.41442 59.514178 
L 252.787914 63.895258 
L 253.161407 64.382045 
L 254.281888 62.142826 
L 254.655381 71.781202 
L 255.028875 77.135856 
L 255.402368 76.25964 
L 255.775862 66.718621 
L 256.896342 67.886909 
L 257.269835 76.941141 
L 257.643329 81.419578 
L 258.016822 75.772853 
L 258.390316 73.630992 
L 259.510796 72.462704 
L 259.88429 73.630992 
L 260.257783 77.233213 
L 261.00477 59.222106 
L 262.125251 60.877181 
L 262.498744 70.223485 
L 262.872238 73.144205 
L 263.245731 67.594837 
L 263.619225 70.904986 
L 264.739705 72.462704 
L 265.113199 74.215136 
L 265.486692 73.825706 
L 265.860185 75.675496 
L 266.233679 80.835434 
L 267.354159 89.40288 
L 267.727653 89.500237 
L 268.101146 86.384802 
L 268.47464 87.747805 
L 270.342107 83.366725 
L 271.089094 85.703301 
L 271.462588 92.3236 
L 272.583068 93.102458 
L 272.956562 85.800658 
L 273.330055 87.261018 
L 273.703549 83.56144 
L 274.077042 77.914714 
L 275.197522 76.843784 
L 275.571016 82.587866 
L 275.944509 83.56144 
L 276.318003 85.703301 
L 276.691496 88.624021 
L 278.18547 80.25129 
L 278.558964 80.056576 
L 278.932457 76.454354 
L 279.305951 74.604565 
L 280.426431 76.551712 
L 281.173418 71.391773 
L 281.546912 72.365346 
L 283.040886 69.834056 
L 283.414379 73.046848 
L 283.787872 70.320842 
L 284.534859 60.974538 
L 286.028833 65.063546 
L 286.402327 62.142826 
L 286.77582 62.045469 
L 287.149314 53.380666 
L 288.269794 47.539226 
L 288.643288 52.796522 
L 289.016781 50.654661 
L 289.390275 55.230456 
L 289.763768 51.141448 
L 290.884249 63.311114 
L 291.257742 60.974538 
L 291.631236 57.567032 
L 292.004729 60.779824 
L 292.378222 61.948112 
L 293.498703 68.95784 
L 293.872196 67.10805 
L 294.24569 68.276338 
L 294.619183 67.10805 
L 296.113157 72.073274 
L 296.486651 73.533634 
L 296.860144 70.223485 
L 297.233638 68.081624 
L 297.607131 64.674117 
L 298.727612 65.939762 
L 299.101105 65.452976 
L 299.474599 69.152554 
L 299.848092 67.400122 
L 301.342066 73.046848 
L 301.715559 71.391773 
L 302.83604 77.525285 
L 303.95652 78.109429 
L 304.330014 72.94949 
L 304.703507 69.736698 
L 305.077001 67.692194 
L 305.450494 67.984266 
L 306.570975 61.071896 
L 306.944468 62.824328 
L 307.317962 63.700544 
L 307.691455 59.903608 
L 308.064949 62.045469 
L 309.185429 59.611536 
L 309.558923 60.000965 
L 309.932416 67.594837 
L 310.305909 68.95784 
L 310.679403 67.205408 
L 311.799883 60.293037 
L 312.173377 60.585109 
L 312.54687 56.301386 
L 312.920364 57.761746 
L 313.293857 57.859104 
L 314.414338 60.585109 
L 314.787831 63.505829 
L 315.161325 64.479402 
L 315.534818 59.611536 
L 315.908312 59.027392 
L 317.028792 66.815978 
L 317.402286 66.523906 
L 317.775779 68.081624 
L 318.149273 64.479402 
L 318.522766 65.258261 
L 319.643246 60.487752 
L 320.01674 62.921685 
L 320.390233 62.142826 
L 320.763727 64.479402 
L 321.13722 61.65604 
L 322.631194 62.045469 
L 323.004688 60.000965 
L 323.378181 49.291658 
L 323.751675 47.441869 
L 324.872155 45.300008 
L 325.245649 40.724213 
L 325.992636 46.955082 
L 326.366129 43.158146 
L 327.48661 44.715864 
L 327.860103 43.450218 
L 328.233596 35.856346 
L 328.60709 34.493343 
L 328.980583 37.024634 
L 328.980583 37.024634 
" clip-path="url(#pdd02656335)" style="fill: none; stroke: #d3d3d3; stroke-linecap: square"/>
   </g>
   <g id="line2d_15">
    <path d="M 56.703837 148.498781 
L 57.077331 145.539118 
L 58.197811 146.35692 
L 58.571305 148.518253 
L 58.944798 147.408379 
L 59.318292 147.719923 
L 59.691785 144.604488 
L 60.812266 141.683768 
L 61.185759 145.383347 
L 61.559253 146.395863 
L 61.932746 148.888211 
L 62.306239 145.344404 
L 63.42672 145.091275 
L 63.800213 148.08988 
L 64.173707 143.533557 
L 64.5472 140.807552 
L 64.920694 140.418123 
L 66.041174 137.555817 
L 66.414668 135.258184 
L 67.161655 136.582244 
L 67.535148 132.726893 
L 68.655629 137.653174 
L 69.029122 136.913259 
L 69.402616 136.971673 
L 69.776109 133.992539 
L 70.149603 129.864588 
L 71.270083 123.283232 
L 71.643576 126.593381 
L 72.01707 126.982811 
L 72.390563 123.477947 
L 72.764057 123.964733 
L 73.884537 119.388938 
L 74.258031 113.528027 
L 74.631524 104.103837 
L 75.005018 107.803416 
L 75.378511 106.343056 
L 76.498992 113.742213 
L 76.872485 119.038452 
L 77.245979 117.14972 
L 77.619472 118.025936 
L 77.992966 124.159448 
L 79.113446 124.840949 
L 79.48694 124.393105 
L 80.60742 116.273504 
L 81.7279 106.245698 
L 82.101394 111.30828 
L 82.474887 121.725515 
L 82.848381 117.539149 
L 83.221874 122.407016 
L 84.342355 126.690739 
L 84.715848 124.159448 
L 85.089342 119.68101 
L 85.462835 124.743592 
L 85.836329 120.459869 
L 86.956809 120.362512 
L 87.330303 117.733864 
L 87.703796 117.441792 
L 88.07729 116.857648 
L 88.450783 121.822872 
L 89.571263 125.425093 
L 89.944757 121.822872 
L 90.31825 119.778368 
L 90.691744 120.557226 
L 91.065237 119.194224 
L 92.185718 116.370861 
L 93.306198 111.600352 
L 93.679692 109.263776 
L 94.800172 106.148341 
L 95.547159 104.493266 
L 95.920653 94.913305 
L 96.294146 97.483538 
L 97.414627 97.970325 
L 98.161613 86.151145 
L 98.535107 91.447384 
L 98.9086 83.853512 
L 100.029081 76.941141 
L 100.402574 79.569789 
L 100.776068 88.818736 
L 101.149561 88.624021 
L 101.523055 92.031528 
L 102.643535 91.447384 
L 103.017029 96.217893 
L 103.390522 86.170616 
L 103.764016 84.729728 
L 104.137509 73.144205 
L 105.25799 74.993994 
L 105.631483 70.710272 
L 106.004977 72.170632 
L 106.37847 72.170632 
L 106.751963 68.56841 
L 108.245937 85.411229 
L 108.619431 84.535013 
L 108.992924 78.206786 
L 109.366418 75.967568 
L 110.486898 71.48913 
L 110.860392 73.533634 
L 111.233885 79.18036 
L 111.607379 77.19427 
L 111.980872 77.622642 
L 113.101353 79.472432 
L 113.84834 71.742259 
L 114.221833 64.674117 
L 114.595327 63.603186 
L 115.715807 62.921685 
L 116.0893 68.178981 
L 116.462794 58.540605 
L 116.836287 59.222106 
L 117.209781 54.548954 
L 118.703755 49.58373 
L 119.077248 55.619885 
L 119.450742 47.831298 
L 119.824235 50.849376 
L 120.944716 52.932823 
L 121.318209 50.070517 
L 121.691703 51.920306 
L 122.065196 47.05244 
L 123.55917 33.325055 
L 123.932664 40.237426 
L 124.306157 44.326434 
L 124.67965 76.162282 
L 126.547118 69.483569 
L 126.920611 63.603186 
L 127.294105 62.629613 
L 127.667598 64.089973 
L 128.788079 66.913336 
L 129.161572 82.587866 
L 129.535066 83.950869 
L 129.908559 82.10108 
L 130.282053 79.375074 
L 131.402533 75.694967 
L 131.776027 73.241562 
L 132.14952 78.79093 
L 132.523014 68.081624 
L 132.896507 71.48913 
L 134.016987 74.507208 
L 134.390481 69.055197 
L 134.763974 68.665768 
L 135.137468 61.363968 
L 136.631442 75.286066 
L 137.004935 73.33892 
L 137.378429 75.091352 
L 138.125416 87.845162 
L 139.245896 84.437656 
L 139.61939 86.871589 
L 139.992883 93.978674 
L 140.366377 95.633749 
L 140.73987 99.23597 
L 142.233844 89.987024 
L 142.607337 91.544741 
L 142.980831 92.226242 
L 143.354324 86.384802 
L 144.474805 88.234592 
L 144.848298 90.376453 
L 145.221792 95.828464 
L 145.595285 94.562818 
L 145.968779 87.261018 
L 147.089259 78.012072 
L 147.462753 78.693573 
L 147.836246 71.683845 
L 148.20974 70.4182 
L 148.583233 72.754776 
L 150.077207 72.170632 
L 150.450701 84.535013 
L 150.824194 84.145584 
L 151.197687 89.40288 
L 152.691661 83.17201 
L 153.065155 90.279096 
L 153.438648 91.93417 
L 153.812142 87.845162 
L 154.932622 79.764504 
L 155.306116 87.455733 
L 155.679609 91.447384 
L 156.053103 92.615672 
L 156.426596 95.439034 
L 157.547077 92.3236 
L 157.92057 88.039877 
L 158.294064 87.650448 
L 159.041051 81.419578 
L 160.161531 79.375074 
L 160.535024 85.898016 
L 160.908518 86.384802 
L 161.282011 84.340298 
L 161.655505 72.462704 
L 162.775985 68.665768 
L 163.149479 69.931413 
L 163.522972 67.400122 
L 163.896466 65.939762 
L 164.269959 69.444626 
L 165.39044 73.241562 
L 165.763933 70.02877 
L 166.137427 72.365346 
L 166.51092 69.444626 
L 166.884414 62.337541 
L 168.004894 58.930034 
L 168.378387 49.58373 
L 169.125374 56.301386 
L 169.498868 57.469674 
L 170.619348 55.619885 
L 170.992842 52.991237 
L 171.366335 67.886909 
L 171.739829 70.612914 
L 172.113322 68.860482 
L 173.233803 70.02877 
L 173.607296 70.223485 
L 173.98079 75.928625 
L 174.727777 77.72 
L 175.848257 77.525285 
L 176.221751 87.650448 
L 176.595244 87.358376 
L 176.968738 88.234592 
L 177.342231 95.24432 
L 178.462711 95.536392 
L 178.836205 116.955005 
L 179.209698 111.016208 
L 179.583192 107.413986 
L 179.956685 126.301309 
L 181.077166 121.336085 
L 181.450659 123.867376 
L 182.197646 112.184496 
L 182.57114 108.679632 
L 184.065114 116.565576 
L 184.438607 107.316629 
L 184.812101 107.900773 
L 185.185594 106.148341 
L 186.306074 107.900773 
L 186.679568 119.388938 
L 187.053061 122.504373 
L 187.426555 116.273504 
L 187.800048 121.822872 
L 188.920529 117.831221 
L 189.294022 120.459869 
L 190.041009 142.657341 
L 190.414503 136.913259 
L 191.534983 128.443171 
L 191.908477 128.248456 
L 192.28197 126.009237 
L 192.655464 95.341677 
L 193.028957 105.758912 
L 193.028957 105.758912 
" clip-path="url(#pdd02656335)" style="fill: none; stroke: #000000; stroke-linecap: square"/>
   </g>
   <g id="patch_3">
    <path d="M 43.09 168.671221 
L 43.09 26.88 
" style="fill: none; stroke: #000000; stroke-width: 0.8; stroke-linejoin: miter; stroke-linecap: square"/>
   </g>
   <g id="patch_4">
    <path d="M 342.594421 168.671221 
L 342.594421 26.88 
" style="fill: none; stroke: #000000; stroke-width: 0.8; stroke-linejoin: miter; stroke-linecap: square"/>
   </g>
   <g id="patch_5">
    <path d="M 43.09 168.671221 
L 342.594421 168.671221 
" style="fill: none; stroke: #000000; stroke-width: 0.8; stroke-linejoin: miter; stroke-linecap: square"/>
   </g>
   <g id="patch_6">
    <path d="M 43.09 26.88 
L 342.594421 26.88 
" style="fill: none; stroke: #000000; stroke-width: 0.8; stroke-linejoin: miter; stroke-linecap: square"/>
   </g>
   <g id="text_14">
    <!-- Gold -->
    <g transform="translate(179.04596 20.88) scale(0.12 -0.12)">
     <defs>
      <path id="DejaVuSans-47" d="M 3809 666 
L 3809 1919 
L 2778 1919 
L 2778 2438 
L 4434 2438 
L 4434 434 
Q 4069 175 3628 42 
Q 3188 -91 2688 -91 
Q 1594 -91 976 548 
Q 359 1188 359 2328 
Q 359 3472 976 4111 
Q 1594 4750 2688 4750 
Q 3144 4750 3555 4637 
Q 3966 4525 4313 4306 
L 4313 3634 
Q 3963 3931 3569 4081 
Q 3175 4231 2741 4231 
Q 1884 4231 1454 3753 
Q 1025 3275 1025 2328 
Q 1025 1384 1454 906 
Q 1884 428 2741 428 
Q 3075 428 3337 486 
Q 3600 544 3809 666 
z
" transform="scale(0.015625)"/>
      <path id="DejaVuSans-6f" d="M 1959 3097 
Q 1497 3097 1228 2736 
Q 959 2375 959 1747 
Q 959 1119 1226 758 
Q 1494 397 1959 397 
Q 2419 397 2687 759 
Q 2956 1122 2956 1747 
Q 2956 2369 2687 2733 
Q 2419 3097 1959 3097 
z
M 1959 3584 
Q 2709 3584 3137 3096 
Q 3566 2609 3566 1747 
Q 3566 888 3137 398 
Q 2709 -91 1959 -91 
Q 1206 -91 779 398 
Q 353 888 353 1747 
Q 353 2609 779 3096 
Q 1206 3584 1959 3584 
z
" transform="scale(0.015625)"/>
      <path id="DejaVuSans-6c" d="M 603 4863 
L 1178 4863 
L 1178 0 
L 603 0 
L 603 4863 
z
" transform="scale(0.015625)"/>
      <path id="DejaVuSans-64" d="M 2906 2969 
L 2906 4863 
L 3481 4863 
L 3481 0 
L 2906 0 
L 2906 525 
Q 2725 213 2448 61 
Q 2172 -91 1784 -91 
Q 1150 -91 751 415 
Q 353 922 353 1747 
Q 353 2572 751 3078 
Q 1150 3584 1784 3584 
Q 2172 3584 2448 3432 
Q 2725 3281 2906 2969 
z
M 947 1747 
Q 947 1113 1208 752 
Q 1469 391 1925 391 
Q 2381 391 2643 752 
Q 2906 1113 2906 1747 
Q 2906 2381 2643 2742 
Q 2381 3103 1925 3103 
Q 1469 3103 1208 2742 
Q 947 2381 947 1747 
z
" transform="scale(0.015625)"/>
     </defs>
     <use xlink:href="#DejaVuSans-47"/>
     <use xlink:href="#DejaVuSans-6f" x="77.490234"/>
     <use xlink:href="#DejaVuSans-6c" x="138.671875"/>
     <use xlink:href="#DejaVuSans-64" x="166.455078"/>
    </g>
   </g>
  </g>
 </g>
 <defs>
  <clipPath id="pdd02656335">
   <rect x="43.09" y="26.88" width="299.504421" height="141.791221"/>
  </clipPath>
 </defs>
</svg>
