<?xml version="1.0" encoding="utf-8" standalone="no"?>
<!DOCTYPE svg PUBLIC "-//W3C//DTD SVG 1.1//EN"
  "http://www.w3.org/Graphics/SVG/1.1/DTD/svg11.dtd">
<svg xmlns:xlink="http://www.w3.org/1999/xlink" width="360pt" height="216pt" viewBox="0 0 360 216" xmlns="http://www.w3.org/2000/svg" version="1.1">
 <metadata>
  <rdf:RDF xmlns:dc="http://purl.org/dc/elements/1.1/" xmlns:cc="http://creativecommons.org/ns#" xmlns:rdf="http://www.w3.org/1999/02/22-rdf-syntax-ns#">
   <cc:Work>
    <dc:type rdf:resource="http://purl.org/dc/dcmitype/StillImage"/>
    <dc:date>2023-03-24T15:59:35.298550</dc:date>
    <dc:format>image/svg+xml</dc:format>
    <dc:creator>
     <cc:Agent>
      <dc:title>Matplotlib v3.6.3, https://matplotlib.org/</dc:title>
     </cc:Agent>
    </dc:creator>
   </cc:Work>
  </rdf:RDF>
 </metadata>
 <defs>
  <style type="text/css">*{stroke-linejoin: round; stroke-linecap: butt}</style>
 </defs>
 <g id="figure_1">
  <g id="patch_1">
   <path d="M 0 216 
L 360 216 
L 360 0 
L 0 0 
z
" style="fill: #ffffff"/>
  </g>
  <g id="axes_1">
   <g id="patch_2">
    <path d="M 43.09 168.671221 
L 349.2 168.671221 
L 349.2 26.88 
L 43.09 26.88 
z
" style="fill: #ffffff"/>
   </g>
   <g id="matplotlib.axis_1">
    <g id="xtick_1">
     <g id="line2d_1">
      <defs>
       <path id="m317996cfc5" d="M 0 0 
L 0 3.5 
" style="stroke: #000000; stroke-width: 0.8"/>
      </defs>
      <g>
       <use xlink:href="#m317996cfc5" x="53.186782" y="168.671221" style="stroke: #000000; stroke-width: 0.8"/>
      </g>
     </g>
     <g id="text_1">
      <!-- '07-10 -->
      <g transform="translate(43.892747 203.534543) rotate(-45) scale(0.1 -0.1)">
       <defs>
        <path id="DejaVuSans-27" d="M 1147 4666 
L 1147 2931 
L 616 2931 
L 616 4666 
L 1147 4666 
z
" transform="scale(0.015625)"/>
        <path id="DejaVuSans-30" d="M 2034 4250 
Q 1547 4250 1301 3770 
Q 1056 3291 1056 2328 
Q 1056 1369 1301 889 
Q 1547 409 2034 409 
Q 2525 409 2770 889 
Q 3016 1369 3016 2328 
Q 3016 3291 2770 3770 
Q 2525 4250 2034 4250 
z
M 2034 4750 
Q 2819 4750 3233 4129 
Q 3647 3509 3647 2328 
Q 3647 1150 3233 529 
Q 2819 -91 2034 -91 
Q 1250 -91 836 529 
Q 422 1150 422 2328 
Q 422 3509 836 4129 
Q 1250 4750 2034 4750 
z
" transform="scale(0.015625)"/>
        <path id="DejaVuSans-37" d="M 525 4666 
L 3525 4666 
L 3525 4397 
L 1831 0 
L 1172 0 
L 2766 4134 
L 525 4134 
L 525 4666 
z
" transform="scale(0.015625)"/>
        <path id="DejaVuSans-2d" d="M 313 2009 
L 1997 2009 
L 1997 1497 
L 313 1497 
L 313 2009 
z
" transform="scale(0.015625)"/>
        <path id="DejaVuSans-31" d="M 794 531 
L 1825 531 
L 1825 4091 
L 703 3866 
L 703 4441 
L 1819 4666 
L 2450 4666 
L 2450 531 
L 3481 531 
L 3481 0 
L 794 0 
L 794 531 
z
" transform="scale(0.015625)"/>
       </defs>
       <use xlink:href="#DejaVuSans-27"/>
       <use xlink:href="#DejaVuSans-30" x="27.490234"/>
       <use xlink:href="#DejaVuSans-37" x="91.113281"/>
       <use xlink:href="#DejaVuSans-2d" x="154.736328"/>
       <use xlink:href="#DejaVuSans-31" x="190.820312"/>
       <use xlink:href="#DejaVuSans-30" x="254.443359"/>
      </g>
     </g>
    </g>
    <g id="xtick_2">
     <g id="line2d_2">
      <g>
       <use xlink:href="#m317996cfc5" x="88.306024" y="168.671221" style="stroke: #000000; stroke-width: 0.8"/>
      </g>
     </g>
     <g id="text_2">
      <!-- '08-01 -->
      <g transform="translate(79.011989 203.534543) rotate(-45) scale(0.1 -0.1)">
       <defs>
        <path id="DejaVuSans-38" d="M 2034 2216 
Q 1584 2216 1326 1975 
Q 1069 1734 1069 1313 
Q 1069 891 1326 650 
Q 1584 409 2034 409 
Q 2484 409 2743 651 
Q 3003 894 3003 1313 
Q 3003 1734 2745 1975 
Q 2488 2216 2034 2216 
z
M 1403 2484 
Q 997 2584 770 2862 
Q 544 3141 544 3541 
Q 544 4100 942 4425 
Q 1341 4750 2034 4750 
Q 2731 4750 3128 4425 
Q 3525 4100 3525 3541 
Q 3525 3141 3298 2862 
Q 3072 2584 2669 2484 
Q 3125 2378 3379 2068 
Q 3634 1759 3634 1313 
Q 3634 634 3220 271 
Q 2806 -91 2034 -91 
Q 1263 -91 848 271 
Q 434 634 434 1313 
Q 434 1759 690 2068 
Q 947 2378 1403 2484 
z
M 1172 3481 
Q 1172 3119 1398 2916 
Q 1625 2713 2034 2713 
Q 2441 2713 2670 2916 
Q 2900 3119 2900 3481 
Q 2900 3844 2670 4047 
Q 2441 4250 2034 4250 
Q 1625 4250 1398 4047 
Q 1172 3844 1172 3481 
z
" transform="scale(0.015625)"/>
       </defs>
       <use xlink:href="#DejaVuSans-27"/>
       <use xlink:href="#DejaVuSans-30" x="27.490234"/>
       <use xlink:href="#DejaVuSans-38" x="91.113281"/>
       <use xlink:href="#DejaVuSans-2d" x="154.736328"/>
       <use xlink:href="#DejaVuSans-30" x="190.820312"/>
       <use xlink:href="#DejaVuSans-31" x="254.443359"/>
      </g>
     </g>
    </g>
    <g id="xtick_3">
     <g id="line2d_3">
      <g>
       <use xlink:href="#m317996cfc5" x="123.043535" y="168.671221" style="stroke: #000000; stroke-width: 0.8"/>
      </g>
     </g>
     <g id="text_3">
      <!-- '08-04 -->
      <g transform="translate(113.7495 203.534543) rotate(-45) scale(0.1 -0.1)">
       <defs>
        <path id="DejaVuSans-34" d="M 2419 4116 
L 825 1625 
L 2419 1625 
L 2419 4116 
z
M 2253 4666 
L 3047 4666 
L 3047 1625 
L 3713 1625 
L 3713 1100 
L 3047 1100 
L 3047 0 
L 2419 0 
L 2419 1100 
L 313 1100 
L 313 1709 
L 2253 4666 
z
" transform="scale(0.015625)"/>
       </defs>
       <use xlink:href="#DejaVuSans-27"/>
       <use xlink:href="#DejaVuSans-30" x="27.490234"/>
       <use xlink:href="#DejaVuSans-38" x="91.113281"/>
       <use xlink:href="#DejaVuSans-2d" x="154.736328"/>
       <use xlink:href="#DejaVuSans-30" x="190.820312"/>
       <use xlink:href="#DejaVuSans-34" x="254.443359"/>
      </g>
     </g>
    </g>
    <g id="xtick_4">
     <g id="line2d_4">
      <g>
       <use xlink:href="#m317996cfc5" x="157.781046" y="168.671221" style="stroke: #000000; stroke-width: 0.8"/>
      </g>
     </g>
     <g id="text_4">
      <!-- '08-07 -->
      <g transform="translate(148.487011 203.534543) rotate(-45) scale(0.1 -0.1)">
       <use xlink:href="#DejaVuSans-27"/>
       <use xlink:href="#DejaVuSans-30" x="27.490234"/>
       <use xlink:href="#DejaVuSans-38" x="91.113281"/>
       <use xlink:href="#DejaVuSans-2d" x="154.736328"/>
       <use xlink:href="#DejaVuSans-30" x="190.820312"/>
       <use xlink:href="#DejaVuSans-37" x="254.443359"/>
      </g>
     </g>
    </g>
    <g id="xtick_5">
     <g id="line2d_5">
      <g>
       <use xlink:href="#m317996cfc5" x="192.900287" y="168.671221" style="stroke: #000000; stroke-width: 0.8"/>
      </g>
     </g>
     <g id="text_5">
      <!-- '08-10 -->
      <g transform="translate(183.606253 203.534543) rotate(-45) scale(0.1 -0.1)">
       <use xlink:href="#DejaVuSans-27"/>
       <use xlink:href="#DejaVuSans-30" x="27.490234"/>
       <use xlink:href="#DejaVuSans-38" x="91.113281"/>
       <use xlink:href="#DejaVuSans-2d" x="154.736328"/>
       <use xlink:href="#DejaVuSans-31" x="190.820312"/>
       <use xlink:href="#DejaVuSans-30" x="254.443359"/>
      </g>
     </g>
    </g>
    <g id="xtick_6">
     <g id="line2d_6">
      <g>
       <use xlink:href="#m317996cfc5" x="228.019529" y="168.671221" style="stroke: #000000; stroke-width: 0.8"/>
      </g>
     </g>
     <g id="text_6">
      <!-- '09-01 -->
      <g transform="translate(218.725494 203.534543) rotate(-45) scale(0.1 -0.1)">
       <defs>
        <path id="DejaVuSans-39" d="M 703 97 
L 703 672 
Q 941 559 1184 500 
Q 1428 441 1663 441 
Q 2288 441 2617 861 
Q 2947 1281 2994 2138 
Q 2813 1869 2534 1725 
Q 2256 1581 1919 1581 
Q 1219 1581 811 2004 
Q 403 2428 403 3163 
Q 403 3881 828 4315 
Q 1253 4750 1959 4750 
Q 2769 4750 3195 4129 
Q 3622 3509 3622 2328 
Q 3622 1225 3098 567 
Q 2575 -91 1691 -91 
Q 1453 -91 1209 -44 
Q 966 3 703 97 
z
M 1959 2075 
Q 2384 2075 2632 2365 
Q 2881 2656 2881 3163 
Q 2881 3666 2632 3958 
Q 2384 4250 1959 4250 
Q 1534 4250 1286 3958 
Q 1038 3666 1038 3163 
Q 1038 2656 1286 2365 
Q 1534 2075 1959 2075 
z
" transform="scale(0.015625)"/>
       </defs>
       <use xlink:href="#DejaVuSans-27"/>
       <use xlink:href="#DejaVuSans-30" x="27.490234"/>
       <use xlink:href="#DejaVuSans-39" x="91.113281"/>
       <use xlink:href="#DejaVuSans-2d" x="154.736328"/>
       <use xlink:href="#DejaVuSans-30" x="190.820312"/>
       <use xlink:href="#DejaVuSans-31" x="254.443359"/>
      </g>
     </g>
    </g>
    <g id="xtick_7">
     <g id="line2d_7">
      <g>
       <use xlink:href="#m317996cfc5" x="262.375309" y="168.671221" style="stroke: #000000; stroke-width: 0.8"/>
      </g>
     </g>
     <g id="text_7">
      <!-- '09-04 -->
      <g transform="translate(253.081275 203.534543) rotate(-45) scale(0.1 -0.1)">
       <use xlink:href="#DejaVuSans-27"/>
       <use xlink:href="#DejaVuSans-30" x="27.490234"/>
       <use xlink:href="#DejaVuSans-39" x="91.113281"/>
       <use xlink:href="#DejaVuSans-2d" x="154.736328"/>
       <use xlink:href="#DejaVuSans-30" x="190.820312"/>
       <use xlink:href="#DejaVuSans-34" x="254.443359"/>
      </g>
     </g>
    </g>
    <g id="xtick_8">
     <g id="line2d_8">
      <g>
       <use xlink:href="#m317996cfc5" x="297.11282" y="168.671221" style="stroke: #000000; stroke-width: 0.8"/>
      </g>
     </g>
     <g id="text_8">
      <!-- '09-07 -->
      <g transform="translate(287.818785 203.534543) rotate(-45) scale(0.1 -0.1)">
       <use xlink:href="#DejaVuSans-27"/>
       <use xlink:href="#DejaVuSans-30" x="27.490234"/>
       <use xlink:href="#DejaVuSans-39" x="91.113281"/>
       <use xlink:href="#DejaVuSans-2d" x="154.736328"/>
       <use xlink:href="#DejaVuSans-30" x="190.820312"/>
       <use xlink:href="#DejaVuSans-37" x="254.443359"/>
      </g>
     </g>
    </g>
    <g id="xtick_9">
     <g id="line2d_9">
      <g>
       <use xlink:href="#m317996cfc5" x="332.232062" y="168.671221" style="stroke: #000000; stroke-width: 0.8"/>
      </g>
     </g>
     <g id="text_9">
      <!-- '09-10 -->
      <g transform="translate(322.938027 203.534543) rotate(-45) scale(0.1 -0.1)">
       <use xlink:href="#DejaVuSans-27"/>
       <use xlink:href="#DejaVuSans-30" x="27.490234"/>
       <use xlink:href="#DejaVuSans-39" x="91.113281"/>
       <use xlink:href="#DejaVuSans-2d" x="154.736328"/>
       <use xlink:href="#DejaVuSans-31" x="190.820312"/>
       <use xlink:href="#DejaVuSans-30" x="254.443359"/>
      </g>
     </g>
    </g>
   </g>
   <g id="matplotlib.axis_2">
    <g id="ytick_1">
     <g id="line2d_10">
      <defs>
       <path id="m6e65ac06e3" d="M 0 0 
L -3.5 0 
" style="stroke: #000000; stroke-width: 0.8"/>
      </defs>
      <g>
       <use xlink:href="#m6e65ac06e3" x="43.09" y="159.557405" style="stroke: #000000; stroke-width: 0.8"/>
      </g>
     </g>
     <g id="text_10">
      <!-- 700 -->
      <g transform="translate(17.0025 163.356624) scale(0.1 -0.1)">
       <use xlink:href="#DejaVuSans-37"/>
       <use xlink:href="#DejaVuSans-30" x="63.623047"/>
       <use xlink:href="#DejaVuSans-30" x="127.246094"/>
      </g>
     </g>
    </g>
    <g id="ytick_2">
     <g id="line2d_11">
      <g>
       <use xlink:href="#m6e65ac06e3" x="43.09" y="123.973938" style="stroke: #000000; stroke-width: 0.8"/>
      </g>
     </g>
     <g id="text_11">
      <!-- 800 -->
      <g transform="translate(17.0025 127.773157) scale(0.1 -0.1)">
       <use xlink:href="#DejaVuSans-38"/>
       <use xlink:href="#DejaVuSans-30" x="63.623047"/>
       <use xlink:href="#DejaVuSans-30" x="127.246094"/>
      </g>
     </g>
    </g>
    <g id="ytick_3">
     <g id="line2d_12">
      <g>
       <use xlink:href="#m6e65ac06e3" x="43.09" y="88.390471" style="stroke: #000000; stroke-width: 0.8"/>
      </g>
     </g>
     <g id="text_12">
      <!-- 900 -->
      <g transform="translate(17.0025 92.18969) scale(0.1 -0.1)">
       <use xlink:href="#DejaVuSans-39"/>
       <use xlink:href="#DejaVuSans-30" x="63.623047"/>
       <use xlink:href="#DejaVuSans-30" x="127.246094"/>
      </g>
     </g>
    </g>
    <g id="ytick_4">
     <g id="line2d_13">
      <g>
       <use xlink:href="#m6e65ac06e3" x="43.09" y="52.807004" style="stroke: #000000; stroke-width: 0.8"/>
      </g>
     </g>
     <g id="text_13">
      <!-- 1000 -->
      <g transform="translate(10.64 56.606223) scale(0.1 -0.1)">
       <use xlink:href="#DejaVuSans-31"/>
       <use xlink:href="#DejaVuSans-30" x="63.623047"/>
       <use xlink:href="#DejaVuSans-30" x="127.246094"/>
       <use xlink:href="#DejaVuSans-30" x="190.869141"/>
      </g>
     </g>
    </g>
   </g>
   <g id="line2d_14">
    <path d="M 196.335865 107.249709 
L 197.481058 113.298898 
L 197.862789 111.697642 
L 198.24452 106.715957 
L 198.626251 122.372682 
L 199.007982 130.378962 
L 200.153174 122.906434 
L 200.916636 139.096912 
L 201.680098 162.226165 
L 202.825291 152.262795 
L 203.207021 143.544845 
L 203.588752 142.032548 
L 203.970483 133.84835 
L 204.352214 149.416117 
L 205.497407 147.459026 
L 205.879138 147.459026 
L 206.260869 140.609209 
L 206.642599 145.679853 
L 208.169523 141.142961 
L 208.932985 148.348613 
L 209.314716 154.57572 
L 209.696447 149.060282 
L 210.841639 143.544845 
L 211.22337 146.56944 
L 211.605101 146.124646 
L 211.986832 143.455886 
L 212.368563 138.741077 
L 213.513755 118.013707 
L 213.895486 123.084351 
L 214.277217 117.924749 
L 214.658948 119.17017 
L 215.040679 119.17017 
L 216.185872 125.575194 
L 216.567603 133.759392 
L 216.949333 133.403557 
L 217.712795 134.026268 
L 218.857988 133.84835 
L 219.239719 134.293144 
L 219.62145 129.044582 
L 220.003181 116.50141 
L 220.384911 119.081211 
L 221.530104 114.188485 
L 221.911835 112.053477 
L 222.675297 98.175924 
L 223.057028 110.096386 
L 224.20222 107.605543 
L 224.583951 108.317213 
L 224.965682 110.897014 
L 226.874337 95.15133 
L 227.256067 99.065511 
L 227.637798 100.844684 
L 228.40126 99.15447 
L 229.546453 102.623858 
L 229.928184 108.317213 
L 230.309915 101.200519 
L 230.691645 108.850965 
L 231.073376 104.758866 
L 232.218569 106.715957 
L 232.6003 118.458501 
L 232.982031 114.277443 
L 233.363762 119.348087 
L 233.745493 115.344947 
L 234.890685 108.850965 
L 235.272416 111.519725 
L 235.654147 102.44594 
L 236.035878 106.982833 
L 236.417609 97.998007 
L 237.562801 86.077546 
L 237.944532 89.81381 
L 238.326263 91.504024 
L 238.707994 96.040916 
L 239.089725 81.80753 
L 240.234918 83.497744 
L 240.616649 87.678802 
L 240.998379 87.589843 
L 241.38011 83.14191 
L 241.761841 83.408786 
L 243.288765 89.81381 
L 244.052227 72.733745 
L 244.433957 74.42396 
L 245.57915 73.08958 
L 245.960881 66.239763 
L 246.342612 65.350176 
L 247.106074 59.567863 
L 248.251266 57.432855 
L 248.632997 56.454309 
L 249.014728 68.374771 
L 249.396459 72.377911 
L 249.77819 72.822704 
L 250.923383 70.776655 
L 251.305113 79.583563 
L 251.686844 84.47629 
L 252.068575 83.675662 
L 252.450306 74.957712 
L 253.595499 76.025216 
L 253.97723 84.298372 
L 254.358961 88.390471 
L 254.740691 83.230868 
L 255.122422 81.273778 
L 256.267615 80.206273 
L 256.649346 81.273778 
L 257.031077 84.565248 
L 257.794539 68.107895 
L 258.939731 69.620192 
L 259.321462 78.160224 
L 259.703193 80.828984 
L 260.084924 75.75834 
L 260.466655 78.782935 
L 261.611847 80.206273 
L 261.993578 81.80753 
L 262.375309 81.451695 
L 262.75704 83.14191 
L 263.138771 87.856719 
L 264.283964 95.685082 
L 264.665695 95.77404 
L 265.047425 92.927363 
L 265.429156 94.172784 
L 267.337811 90.169644 
L 268.101273 92.304652 
L 268.483003 98.353842 
L 269.628196 99.065511 
L 270.009927 92.393611 
L 270.391658 93.727991 
L 270.773389 90.347562 
L 271.15512 85.187959 
L 272.300312 84.209414 
L 272.682043 89.457975 
L 273.063774 90.347562 
L 273.445505 92.304652 
L 273.827236 94.973412 
L 275.354159 87.322967 
L 275.73589 87.14505 
L 276.117621 83.853579 
L 276.499352 82.163364 
L 277.644545 83.942538 
L 278.408007 79.227728 
L 278.789737 80.117315 
L 280.316661 77.804389 
L 280.698392 80.740025 
L 281.080123 78.249183 
L 281.843585 69.709151 
L 283.370508 73.445415 
L 283.752239 70.776655 
L 284.13397 70.687696 
L 284.515701 62.770375 
L 285.660894 57.432855 
L 286.042624 62.236623 
L 286.424355 60.279532 
L 286.806086 64.460589 
L 287.187817 60.724325 
L 288.33301 71.844159 
L 288.714741 69.709151 
L 289.096472 66.595597 
L 289.478202 69.531233 
L 289.859933 70.598737 
L 291.005126 77.003761 
L 291.386857 75.313547 
L 291.768588 76.381051 
L 292.150319 75.313547 
L 293.677242 79.850439 
L 294.058973 81.184819 
L 294.440704 78.160224 
L 294.822435 76.203133 
L 295.204166 73.08958 
L 296.349358 74.246043 
L 296.731089 73.801249 
L 297.11282 77.181679 
L 297.494551 75.580423 
L 299.021475 80.740025 
L 299.403206 79.227728 
L 300.548398 84.832124 
L 301.693591 85.365876 
L 302.075322 80.651067 
L 302.457053 77.715431 
L 302.838784 75.847299 
L 303.220514 76.114175 
L 304.365707 69.798109 
L 304.747438 71.399365 
L 305.129169 72.199993 
L 305.5109 68.730605 
L 305.892631 70.687696 
L 307.037823 68.463729 
L 307.419554 68.819564 
L 307.801285 75.75834 
L 308.183016 77.003761 
L 308.564747 75.402505 
L 309.70994 69.08644 
L 310.09167 69.353316 
L 310.473401 65.439135 
L 310.855132 66.773515 
L 311.236863 66.862473 
L 312.382056 69.353316 
L 312.763787 72.022076 
L 313.145518 72.911663 
L 313.527248 68.463729 
L 313.908979 67.929977 
L 315.054172 75.046671 
L 315.435903 74.779795 
L 315.817634 76.203133 
L 316.199365 72.911663 
L 316.581096 73.623332 
L 317.726288 69.264357 
L 318.108019 71.488324 
L 318.48975 70.776655 
L 318.871481 72.911663 
L 319.253212 70.331861 
L 320.780135 70.687696 
L 321.161866 68.819564 
L 321.543597 59.034111 
L 321.925328 57.343896 
L 323.070521 55.386805 
L 323.452252 51.205748 
L 324.215713 56.899102 
L 324.597444 53.429714 
L 325.742637 54.853053 
L 326.124368 53.69659 
L 326.506099 46.757814 
L 326.88783 45.512393 
L 327.26956 47.825318 
L 328.414753 53.07388 
L 328.796484 47.202608 
L 329.559946 47.825318 
L 329.941677 53.874508 
L 331.086869 56.187433 
L 331.4686 55.74264 
L 331.850331 52.36221 
L 332.232062 50.760954 
L 332.613793 53.518673 
L 333.758986 51.294706 
L 334.140716 45.601352 
L 334.522447 36.082774 
L 334.904178 33.325055 
L 335.285909 36.171733 
L 335.285909 36.171733 
" clip-path="url(#pa46a20a669)" style="fill: none; stroke: #d3d3d3; stroke-linecap: square"/>
   </g>
   <g id="line2d_15">
    <path d="M 57.004091 142.655258 
L 57.385822 142.299424 
L 58.531014 139.684039 
L 58.912745 137.584614 
L 59.676207 138.794452 
L 60.057938 135.271689 
L 61.203131 139.772998 
L 61.584862 139.096912 
L 61.966592 139.150287 
L 62.348323 136.428152 
L 62.730054 132.656304 
L 63.875247 126.642698 
L 64.256978 129.667293 
L 64.638709 130.023128 
L 65.02044 126.820615 
L 65.40217 127.265409 
L 66.547363 123.084351 
L 66.929094 117.72904 
L 67.310825 109.117841 
L 67.692556 112.49827 
L 68.074287 111.16389 
L 69.219479 117.924749 
L 69.60121 122.7641 
L 69.982941 121.038302 
L 70.364672 121.83893 
L 70.746403 127.443326 
L 71.891596 128.066037 
L 72.273326 127.656827 
L 73.418519 120.237674 
L 74.563712 111.074931 
L 74.945443 115.700782 
L 75.327174 125.219359 
L 75.708904 121.394137 
L 76.090635 125.84207 
L 77.235828 129.756252 
L 77.617559 127.443326 
L 77.99929 123.351227 
L 78.381021 127.977078 
L 78.762752 124.062897 
L 79.907944 123.973938 
L 80.289675 121.572054 
L 80.671406 121.305178 
L 81.053137 120.771426 
L 81.434868 125.308318 
L 82.58006 128.599789 
L 82.961791 125.308318 
L 83.343522 123.440186 
L 83.725253 124.151855 
L 84.106984 122.906434 
L 85.252177 120.326633 
L 86.397369 115.967658 
L 86.7791 113.83265 
L 87.924293 110.985973 
L 88.687755 109.473675 
L 89.069486 100.720142 
L 89.451216 103.068651 
L 90.596409 103.513444 
L 91.359871 92.713862 
L 91.741602 97.553214 
L 92.123333 90.614438 
L 93.268525 84.298372 
L 93.650256 86.700256 
L 94.031987 95.15133 
L 94.413718 94.973412 
L 94.795449 98.086966 
L 95.940642 97.553214 
L 96.322372 101.912188 
L 96.704103 92.731654 
L 97.085834 91.415066 
L 97.467565 80.828984 
L 98.612758 82.519199 
L 98.994489 78.605017 
L 99.37622 79.939397 
L 99.75795 79.939397 
L 100.139681 76.647927 
L 101.666605 92.037776 
L 102.048336 91.237148 
L 102.430067 85.454835 
L 102.811798 83.408786 
L 103.95699 79.316687 
L 104.338721 81.184819 
L 104.720452 86.344422 
L 105.102183 84.529665 
L 105.483914 84.921083 
L 106.629106 86.611298 
L 107.392568 79.547979 
L 107.774299 73.08958 
L 108.15603 72.111035 
L 109.301223 71.488324 
L 109.682954 76.292092 
L 110.064684 67.485184 
L 110.446415 68.107895 
L 110.828146 63.837879 
L 112.35507 59.300987 
L 112.736801 64.816424 
L 113.118532 57.699731 
L 113.500263 60.457449 
L 114.645455 62.361165 
L 115.027186 59.74578 
L 115.408917 61.435995 
L 115.790648 56.988061 
L 117.317571 44.444889 
L 117.699302 50.760954 
L 118.081033 54.497218 
L 118.462764 83.586703 
L 120.371419 77.484138 
L 120.753149 72.111035 
L 121.13488 71.221448 
L 121.516611 72.555828 
L 122.661804 75.135629 
L 123.043535 89.457975 
L 123.425266 90.703396 
L 123.806997 89.013182 
L 124.188727 86.522339 
L 125.33392 83.159701 
L 125.715651 80.917943 
L 126.097382 85.988587 
L 126.479113 76.203133 
L 126.860844 79.316687 
L 128.006036 82.074406 
L 128.387767 77.09272 
L 128.769498 76.736885 
L 129.151229 70.064985 
L 130.678153 82.786075 
L 131.059883 81.006902 
L 131.441614 82.608158 
L 132.205076 94.261743 
L 133.350269 91.14819 
L 133.732 93.372156 
L 134.113731 99.866139 
L 134.495461 101.378436 
L 134.877192 104.669907 
L 136.404116 96.218834 
L 136.785847 97.642172 
L 137.167578 98.264883 
L 137.549309 92.927363 
L 138.694501 94.617578 
L 139.076232 96.574668 
L 139.457963 101.556354 
L 139.839694 100.399891 
L 140.221425 93.727991 
L 141.366617 85.276918 
L 141.748348 85.899628 
L 142.130079 79.494604 
L 142.51181 78.338141 
L 142.893541 80.473149 
L 144.420465 79.939397 
L 144.802195 91.237148 
L 145.183926 90.881314 
L 145.565657 95.685082 
L 147.092581 89.991727 
L 147.474312 96.48571 
L 147.856043 97.998007 
L 148.237773 94.261743 
L 149.382966 86.878174 
L 149.764697 93.905908 
L 150.146428 97.553214 
L 150.528159 98.620718 
L 150.90989 101.200519 
L 152.055082 98.353842 
L 152.436813 94.43966 
L 152.818544 94.083826 
L 153.582006 88.390471 
L 154.727199 86.522339 
L 155.108929 92.48257 
L 155.49066 92.927363 
L 155.872391 91.059231 
L 156.254122 80.206273 
L 157.399315 76.736885 
L 157.781046 77.893348 
L 158.162777 75.580423 
L 158.544507 74.246043 
L 158.926238 77.448555 
L 160.071431 80.917943 
L 160.453162 77.982307 
L 160.834893 80.117315 
L 161.216624 77.448555 
L 161.598355 70.954572 
L 162.743547 67.841019 
L 163.125278 59.300987 
L 163.88874 65.439135 
L 164.270471 66.506639 
L 165.415663 64.816424 
L 165.797394 62.41454 
L 166.179125 76.025216 
L 166.560856 78.516059 
L 166.942587 76.914803 
L 168.08778 77.982307 
L 168.469511 78.160224 
L 168.851241 83.373202 
L 169.614703 85.010042 
L 170.759896 84.832124 
L 171.141627 94.083826 
L 171.523358 93.81695 
L 171.905089 94.617578 
L 172.286819 101.022602 
L 173.432012 101.289478 
L 173.813743 120.860385 
L 174.195474 115.433906 
L 174.577205 112.142435 
L 174.958936 129.400417 
L 176.104128 124.863525 
L 176.485859 127.17645 
L 177.249321 116.50141 
L 177.631052 113.298898 
L 179.157975 120.50455 
L 179.539706 112.053477 
L 179.921437 112.587229 
L 180.303168 110.985973 
L 181.448361 112.587229 
L 181.830092 123.084351 
L 182.211823 125.931029 
L 182.593553 120.237674 
L 182.975284 125.308318 
L 184.120477 121.661013 
L 184.502208 124.062897 
L 185.26567 144.345473 
L 185.647401 139.096912 
L 186.792593 131.357508 
L 187.174324 131.17959 
L 187.556055 129.133541 
L 187.937786 101.11156 
L 188.319517 110.630138 
L 189.464709 97.998007 
L 189.84644 91.059231 
L 190.228171 92.48257 
L 190.609902 92.304652 
L 190.991633 99.421346 
L 192.136826 96.752586 
L 192.518557 89.457975 
L 192.900287 96.930503 
L 193.282018 100.399891 
L 193.663749 108.850965 
L 194.808942 110.985973 
L 195.190673 94.884454 
L 195.572404 83.76462 
L 195.954135 93.10528 
L 196.335865 107.249709 
L 196.335865 107.249709 
" clip-path="url(#pa46a20a669)" style="fill: none; stroke: #000000; stroke-linecap: square"/>
   </g>
   <g id="patch_3">
    <path d="M 43.09 168.671221 
L 43.09 26.88 
" style="fill: none; stroke: #000000; stroke-width: 0.8; stroke-linejoin: miter; stroke-linecap: square"/>
   </g>
   <g id="patch_4">
    <path d="M 349.2 168.671221 
L 349.2 26.88 
" style="fill: none; stroke: #000000; stroke-width: 0.8; stroke-linejoin: miter; stroke-linecap: square"/>
   </g>
   <g id="patch_5">
    <path d="M 43.09 168.671221 
L 349.2 168.671221 
" style="fill: none; stroke: #000000; stroke-width: 0.8; stroke-linejoin: miter; stroke-linecap: square"/>
   </g>
   <g id="patch_6">
    <path d="M 43.09 26.88 
L 349.2 26.88 
" style="fill: none; stroke: #000000; stroke-width: 0.8; stroke-linejoin: miter; stroke-linecap: square"/>
   </g>
   <g id="text_14">
    <!-- Gold -->
    <g transform="translate(182.34875 20.88) scale(0.12 -0.12)">
     <defs>
      <path id="DejaVuSans-47" d="M 3809 666 
L 3809 1919 
L 2778 1919 
L 2778 2438 
L 4434 2438 
L 4434 434 
Q 4069 175 3628 42 
Q 3188 -91 2688 -91 
Q 1594 -91 976 548 
Q 359 1188 359 2328 
Q 359 3472 976 4111 
Q 1594 4750 2688 4750 
Q 3144 4750 3555 4637 
Q 3966 4525 4313 4306 
L 4313 3634 
Q 3963 3931 3569 4081 
Q 3175 4231 2741 4231 
Q 1884 4231 1454 3753 
Q 1025 3275 1025 2328 
Q 1025 1384 1454 906 
Q 1884 428 2741 428 
Q 3075 428 3337 486 
Q 3600 544 3809 666 
z
" transform="scale(0.015625)"/>
      <path id="DejaVuSans-6f" d="M 1959 3097 
Q 1497 3097 1228 2736 
Q 959 2375 959 1747 
Q 959 1119 1226 758 
Q 1494 397 1959 397 
Q 2419 397 2687 759 
Q 2956 1122 2956 1747 
Q 2956 2369 2687 2733 
Q 2419 3097 1959 3097 
z
M 1959 3584 
Q 2709 3584 3137 3096 
Q 3566 2609 3566 1747 
Q 3566 888 3137 398 
Q 2709 -91 1959 -91 
Q 1206 -91 779 398 
Q 353 888 353 1747 
Q 353 2609 779 3096 
Q 1206 3584 1959 3584 
z
" transform="scale(0.015625)"/>
      <path id="DejaVuSans-6c" d="M 603 4863 
L 1178 4863 
L 1178 0 
L 603 0 
L 603 4863 
z
" transform="scale(0.015625)"/>
      <path id="DejaVuSans-64" d="M 2906 2969 
L 2906 4863 
L 3481 4863 
L 3481 0 
L 2906 0 
L 2906 525 
Q 2725 213 2448 61 
Q 2172 -91 1784 -91 
Q 1150 -91 751 415 
Q 353 922 353 1747 
Q 353 2572 751 3078 
Q 1150 3584 1784 3584 
Q 2172 3584 2448 3432 
Q 2725 3281 2906 2969 
z
M 947 1747 
Q 947 1113 1208 752 
Q 1469 391 1925 391 
Q 2381 391 2643 752 
Q 2906 1113 2906 1747 
Q 2906 2381 2643 2742 
Q 2381 3103 1925 3103 
Q 1469 3103 1208 2742 
Q 947 2381 947 1747 
z
" transform="scale(0.015625)"/>
     </defs>
     <use xlink:href="#DejaVuSans-47"/>
     <use xlink:href="#DejaVuSans-6f" x="77.490234"/>
     <use xlink:href="#DejaVuSans-6c" x="138.671875"/>
     <use xlink:href="#DejaVuSans-64" x="166.455078"/>
    </g>
   </g>
  </g>
 </g>
 <defs>
  <clipPath id="pa46a20a669">
   <rect x="43.09" y="26.88" width="306.11" height="141.791221"/>
  </clipPath>
 </defs>
</svg>
