<?xml version="1.0" encoding="utf-8" standalone="no"?>
<!DOCTYPE svg PUBLIC "-//W3C//DTD SVG 1.1//EN"
  "http://www.w3.org/Graphics/SVG/1.1/DTD/svg11.dtd">
<svg xmlns:xlink="http://www.w3.org/1999/xlink" width="360pt" height="216pt" viewBox="0 0 360 216" xmlns="http://www.w3.org/2000/svg" version="1.1">
 <metadata>
  <rdf:RDF xmlns:dc="http://purl.org/dc/elements/1.1/" xmlns:cc="http://creativecommons.org/ns#" xmlns:rdf="http://www.w3.org/1999/02/22-rdf-syntax-ns#">
   <cc:Work>
    <dc:type rdf:resource="http://purl.org/dc/dcmitype/StillImage"/>
    <dc:date>2023-03-24T15:03:38.813356</dc:date>
    <dc:format>image/svg+xml</dc:format>
    <dc:creator>
     <cc:Agent>
      <dc:title>Matplotlib v3.6.3, https://matplotlib.org/</dc:title>
     </cc:Agent>
    </dc:creator>
   </cc:Work>
  </rdf:RDF>
 </metadata>
 <defs>
  <style type="text/css">*{stroke-linejoin: round; stroke-linecap: butt}</style>
 </defs>
 <g id="figure_1">
  <g id="patch_1">
   <path d="M 0 216 
L 360 216 
L 360 0 
L 0 0 
z
" style="fill: #ffffff"/>
  </g>
  <g id="axes_1">
   <g id="patch_2">
    <path d="M 43.09 168.671221 
L 341.905722 168.671221 
L 341.905722 26.88 
L 43.09 26.88 
z
" style="fill: #ffffff"/>
   </g>
   <g id="matplotlib.axis_1">
    <g id="xtick_1">
     <g id="line2d_1">
      <defs>
       <path id="mfc70ed7512" d="M 0 0 
L 0 3.5 
" style="stroke: #000000; stroke-width: 0.8"/>
      </defs>
      <g>
       <use xlink:href="#mfc70ed7512" x="61.882271" y="168.671221" style="stroke: #000000; stroke-width: 0.8"/>
      </g>
     </g>
     <g id="text_1">
      <!-- '07-10 -->
      <g transform="translate(52.588237 203.534543) rotate(-45) scale(0.1 -0.1)">
       <defs>
        <path id="DejaVuSans-27" d="M 1147 4666 
L 1147 2931 
L 616 2931 
L 616 4666 
L 1147 4666 
z
" transform="scale(0.015625)"/>
        <path id="DejaVuSans-30" d="M 2034 4250 
Q 1547 4250 1301 3770 
Q 1056 3291 1056 2328 
Q 1056 1369 1301 889 
Q 1547 409 2034 409 
Q 2525 409 2770 889 
Q 3016 1369 3016 2328 
Q 3016 3291 2770 3770 
Q 2525 4250 2034 4250 
z
M 2034 4750 
Q 2819 4750 3233 4129 
Q 3647 3509 3647 2328 
Q 3647 1150 3233 529 
Q 2819 -91 2034 -91 
Q 1250 -91 836 529 
Q 422 1150 422 2328 
Q 422 3509 836 4129 
Q 1250 4750 2034 4750 
z
" transform="scale(0.015625)"/>
        <path id="DejaVuSans-37" d="M 525 4666 
L 3525 4666 
L 3525 4397 
L 1831 0 
L 1172 0 
L 2766 4134 
L 525 4134 
L 525 4666 
z
" transform="scale(0.015625)"/>
        <path id="DejaVuSans-2d" d="M 313 2009 
L 1997 2009 
L 1997 1497 
L 313 1497 
L 313 2009 
z
" transform="scale(0.015625)"/>
        <path id="DejaVuSans-31" d="M 794 531 
L 1825 531 
L 1825 4091 
L 703 3866 
L 703 4441 
L 1819 4666 
L 2450 4666 
L 2450 531 
L 3481 531 
L 3481 0 
L 794 0 
L 794 531 
z
" transform="scale(0.015625)"/>
       </defs>
       <use xlink:href="#DejaVuSans-27"/>
       <use xlink:href="#DejaVuSans-30" x="27.490234"/>
       <use xlink:href="#DejaVuSans-37" x="91.113281"/>
       <use xlink:href="#DejaVuSans-2d" x="154.736328"/>
       <use xlink:href="#DejaVuSans-31" x="190.820312"/>
       <use xlink:href="#DejaVuSans-30" x="254.443359"/>
      </g>
     </g>
    </g>
    <g id="xtick_2">
     <g id="line2d_2">
      <g>
       <use xlink:href="#mfc70ed7512" x="96.117697" y="168.671221" style="stroke: #000000; stroke-width: 0.8"/>
      </g>
     </g>
     <g id="text_2">
      <!-- '08-01 -->
      <g transform="translate(86.823662 203.534543) rotate(-45) scale(0.1 -0.1)">
       <defs>
        <path id="DejaVuSans-38" d="M 2034 2216 
Q 1584 2216 1326 1975 
Q 1069 1734 1069 1313 
Q 1069 891 1326 650 
Q 1584 409 2034 409 
Q 2484 409 2743 651 
Q 3003 894 3003 1313 
Q 3003 1734 2745 1975 
Q 2488 2216 2034 2216 
z
M 1403 2484 
Q 997 2584 770 2862 
Q 544 3141 544 3541 
Q 544 4100 942 4425 
Q 1341 4750 2034 4750 
Q 2731 4750 3128 4425 
Q 3525 4100 3525 3541 
Q 3525 3141 3298 2862 
Q 3072 2584 2669 2484 
Q 3125 2378 3379 2068 
Q 3634 1759 3634 1313 
Q 3634 634 3220 271 
Q 2806 -91 2034 -91 
Q 1263 -91 848 271 
Q 434 634 434 1313 
Q 434 1759 690 2068 
Q 947 2378 1403 2484 
z
M 1172 3481 
Q 1172 3119 1398 2916 
Q 1625 2713 2034 2713 
Q 2441 2713 2670 2916 
Q 2900 3119 2900 3481 
Q 2900 3844 2670 4047 
Q 2441 4250 2034 4250 
Q 1625 4250 1398 4047 
Q 1172 3844 1172 3481 
z
" transform="scale(0.015625)"/>
       </defs>
       <use xlink:href="#DejaVuSans-27"/>
       <use xlink:href="#DejaVuSans-30" x="27.490234"/>
       <use xlink:href="#DejaVuSans-38" x="91.113281"/>
       <use xlink:href="#DejaVuSans-2d" x="154.736328"/>
       <use xlink:href="#DejaVuSans-30" x="190.820312"/>
       <use xlink:href="#DejaVuSans-31" x="254.443359"/>
      </g>
     </g>
    </g>
    <g id="xtick_3">
     <g id="line2d_3">
      <g>
       <use xlink:href="#mfc70ed7512" x="129.980998" y="168.671221" style="stroke: #000000; stroke-width: 0.8"/>
      </g>
     </g>
     <g id="text_3">
      <!-- '08-04 -->
      <g transform="translate(120.686963 203.534543) rotate(-45) scale(0.1 -0.1)">
       <defs>
        <path id="DejaVuSans-34" d="M 2419 4116 
L 825 1625 
L 2419 1625 
L 2419 4116 
z
M 2253 4666 
L 3047 4666 
L 3047 1625 
L 3713 1625 
L 3713 1100 
L 3047 1100 
L 3047 0 
L 2419 0 
L 2419 1100 
L 313 1100 
L 313 1709 
L 2253 4666 
z
" transform="scale(0.015625)"/>
       </defs>
       <use xlink:href="#DejaVuSans-27"/>
       <use xlink:href="#DejaVuSans-30" x="27.490234"/>
       <use xlink:href="#DejaVuSans-38" x="91.113281"/>
       <use xlink:href="#DejaVuSans-2d" x="154.736328"/>
       <use xlink:href="#DejaVuSans-30" x="190.820312"/>
       <use xlink:href="#DejaVuSans-34" x="254.443359"/>
      </g>
     </g>
    </g>
    <g id="xtick_4">
     <g id="line2d_4">
      <g>
       <use xlink:href="#mfc70ed7512" x="163.844299" y="168.671221" style="stroke: #000000; stroke-width: 0.8"/>
      </g>
     </g>
     <g id="text_4">
      <!-- '08-07 -->
      <g transform="translate(154.550264 203.534543) rotate(-45) scale(0.1 -0.1)">
       <use xlink:href="#DejaVuSans-27"/>
       <use xlink:href="#DejaVuSans-30" x="27.490234"/>
       <use xlink:href="#DejaVuSans-38" x="91.113281"/>
       <use xlink:href="#DejaVuSans-2d" x="154.736328"/>
       <use xlink:href="#DejaVuSans-30" x="190.820312"/>
       <use xlink:href="#DejaVuSans-37" x="254.443359"/>
      </g>
     </g>
    </g>
    <g id="xtick_5">
     <g id="line2d_5">
      <g>
       <use xlink:href="#mfc70ed7512" x="198.079724" y="168.671221" style="stroke: #000000; stroke-width: 0.8"/>
      </g>
     </g>
     <g id="text_5">
      <!-- '08-10 -->
      <g transform="translate(188.785689 203.534543) rotate(-45) scale(0.1 -0.1)">
       <use xlink:href="#DejaVuSans-27"/>
       <use xlink:href="#DejaVuSans-30" x="27.490234"/>
       <use xlink:href="#DejaVuSans-38" x="91.113281"/>
       <use xlink:href="#DejaVuSans-2d" x="154.736328"/>
       <use xlink:href="#DejaVuSans-31" x="190.820312"/>
       <use xlink:href="#DejaVuSans-30" x="254.443359"/>
      </g>
     </g>
    </g>
    <g id="xtick_6">
     <g id="line2d_6">
      <g>
       <use xlink:href="#mfc70ed7512" x="232.315149" y="168.671221" style="stroke: #000000; stroke-width: 0.8"/>
      </g>
     </g>
     <g id="text_6">
      <!-- '09-01 -->
      <g transform="translate(223.021115 203.534543) rotate(-45) scale(0.1 -0.1)">
       <defs>
        <path id="DejaVuSans-39" d="M 703 97 
L 703 672 
Q 941 559 1184 500 
Q 1428 441 1663 441 
Q 2288 441 2617 861 
Q 2947 1281 2994 2138 
Q 2813 1869 2534 1725 
Q 2256 1581 1919 1581 
Q 1219 1581 811 2004 
Q 403 2428 403 3163 
Q 403 3881 828 4315 
Q 1253 4750 1959 4750 
Q 2769 4750 3195 4129 
Q 3622 3509 3622 2328 
Q 3622 1225 3098 567 
Q 2575 -91 1691 -91 
Q 1453 -91 1209 -44 
Q 966 3 703 97 
z
M 1959 2075 
Q 2384 2075 2632 2365 
Q 2881 2656 2881 3163 
Q 2881 3666 2632 3958 
Q 2384 4250 1959 4250 
Q 1534 4250 1286 3958 
Q 1038 3666 1038 3163 
Q 1038 2656 1286 2365 
Q 1534 2075 1959 2075 
z
" transform="scale(0.015625)"/>
       </defs>
       <use xlink:href="#DejaVuSans-27"/>
       <use xlink:href="#DejaVuSans-30" x="27.490234"/>
       <use xlink:href="#DejaVuSans-39" x="91.113281"/>
       <use xlink:href="#DejaVuSans-2d" x="154.736328"/>
       <use xlink:href="#DejaVuSans-30" x="190.820312"/>
       <use xlink:href="#DejaVuSans-31" x="254.443359"/>
      </g>
     </g>
    </g>
    <g id="xtick_7">
     <g id="line2d_7">
      <g>
       <use xlink:href="#mfc70ed7512" x="265.806326" y="168.671221" style="stroke: #000000; stroke-width: 0.8"/>
      </g>
     </g>
     <g id="text_7">
      <!-- '09-04 -->
      <g transform="translate(256.512291 203.534543) rotate(-45) scale(0.1 -0.1)">
       <use xlink:href="#DejaVuSans-27"/>
       <use xlink:href="#DejaVuSans-30" x="27.490234"/>
       <use xlink:href="#DejaVuSans-39" x="91.113281"/>
       <use xlink:href="#DejaVuSans-2d" x="154.736328"/>
       <use xlink:href="#DejaVuSans-30" x="190.820312"/>
       <use xlink:href="#DejaVuSans-34" x="254.443359"/>
      </g>
     </g>
    </g>
    <g id="xtick_8">
     <g id="line2d_8">
      <g>
       <use xlink:href="#mfc70ed7512" x="299.669627" y="168.671221" style="stroke: #000000; stroke-width: 0.8"/>
      </g>
     </g>
     <g id="text_8">
      <!-- '09-07 -->
      <g transform="translate(290.375592 203.534543) rotate(-45) scale(0.1 -0.1)">
       <use xlink:href="#DejaVuSans-27"/>
       <use xlink:href="#DejaVuSans-30" x="27.490234"/>
       <use xlink:href="#DejaVuSans-39" x="91.113281"/>
       <use xlink:href="#DejaVuSans-2d" x="154.736328"/>
       <use xlink:href="#DejaVuSans-30" x="190.820312"/>
       <use xlink:href="#DejaVuSans-37" x="254.443359"/>
      </g>
     </g>
    </g>
    <g id="xtick_9">
     <g id="line2d_9">
      <g>
       <use xlink:href="#mfc70ed7512" x="333.905052" y="168.671221" style="stroke: #000000; stroke-width: 0.8"/>
      </g>
     </g>
     <g id="text_9">
      <!-- '09-10 -->
      <g transform="translate(324.611018 203.534543) rotate(-45) scale(0.1 -0.1)">
       <use xlink:href="#DejaVuSans-27"/>
       <use xlink:href="#DejaVuSans-30" x="27.490234"/>
       <use xlink:href="#DejaVuSans-39" x="91.113281"/>
       <use xlink:href="#DejaVuSans-2d" x="154.736328"/>
       <use xlink:href="#DejaVuSans-31" x="190.820312"/>
       <use xlink:href="#DejaVuSans-30" x="254.443359"/>
      </g>
     </g>
    </g>
   </g>
   <g id="matplotlib.axis_2">
    <g id="ytick_1">
     <g id="line2d_10">
      <defs>
       <path id="mc69384891a" d="M 0 0 
L -3.5 0 
" style="stroke: #000000; stroke-width: 0.8"/>
      </defs>
      <g>
       <use xlink:href="#mc69384891a" x="43.09" y="159.305445" style="stroke: #000000; stroke-width: 0.8"/>
      </g>
     </g>
     <g id="text_10">
      <!-- 700 -->
      <g transform="translate(17.0025 163.104664) scale(0.1 -0.1)">
       <use xlink:href="#DejaVuSans-37"/>
       <use xlink:href="#DejaVuSans-30" x="63.623047"/>
       <use xlink:href="#DejaVuSans-30" x="127.246094"/>
      </g>
     </g>
    </g>
    <g id="ytick_2">
     <g id="line2d_11">
      <g>
       <use xlink:href="#mc69384891a" x="43.09" y="120.362512" style="stroke: #000000; stroke-width: 0.8"/>
      </g>
     </g>
     <g id="text_11">
      <!-- 800 -->
      <g transform="translate(17.0025 124.161731) scale(0.1 -0.1)">
       <use xlink:href="#DejaVuSans-38"/>
       <use xlink:href="#DejaVuSans-30" x="63.623047"/>
       <use xlink:href="#DejaVuSans-30" x="127.246094"/>
      </g>
     </g>
    </g>
    <g id="ytick_3">
     <g id="line2d_12">
      <g>
       <use xlink:href="#mc69384891a" x="43.09" y="81.419578" style="stroke: #000000; stroke-width: 0.8"/>
      </g>
     </g>
     <g id="text_12">
      <!-- 900 -->
      <g transform="translate(17.0025 85.218797) scale(0.1 -0.1)">
       <use xlink:href="#DejaVuSans-39"/>
       <use xlink:href="#DejaVuSans-30" x="63.623047"/>
       <use xlink:href="#DejaVuSans-30" x="127.246094"/>
      </g>
     </g>
    </g>
    <g id="ytick_4">
     <g id="line2d_13">
      <g>
       <use xlink:href="#mc69384891a" x="43.09" y="42.476645" style="stroke: #000000; stroke-width: 0.8"/>
      </g>
     </g>
     <g id="text_13">
      <!-- 1000 -->
      <g transform="translate(10.64 46.275864) scale(0.1 -0.1)">
       <use xlink:href="#DejaVuSans-31"/>
       <use xlink:href="#DejaVuSans-30" x="63.623047"/>
       <use xlink:href="#DejaVuSans-30" x="127.246094"/>
       <use xlink:href="#DejaVuSans-30" x="190.869141"/>
      </g>
     </g>
    </g>
   </g>
   <g id="line2d_14">
    <path d="M 192.497861 128.248456 
L 192.869985 126.009237 
L 193.24211 95.341677 
L 193.614234 105.758912 
L 194.730606 91.93417 
L 195.102731 84.340298 
L 195.474855 85.898016 
L 195.846979 85.703301 
L 196.219103 93.491888 
L 197.335476 90.571168 
L 197.7076 82.587866 
L 198.079724 90.765882 
L 198.451848 94.562818 
L 198.823972 103.811765 
L 199.940345 106.148341 
L 200.312469 88.526664 
L 200.684593 76.356997 
L 201.056718 86.579517 
L 201.428842 74.40985 
L 202.917338 101.08576 
L 203.289463 101.475189 
L 203.661587 106.9272 
L 204.033711 119.973082 
L 205.150084 119.194224 
L 205.894332 136.913259 
L 206.63858 162.226165 
L 207.754953 151.322144 
L 208.127077 141.781125 
L 208.499201 140.126051 
L 208.871325 131.169176 
L 209.24345 148.206709 
L 210.359822 146.064848 
L 210.731946 146.064848 
L 211.104071 138.568333 
L 211.476195 144.117701 
L 212.964692 139.152477 
L 213.70894 147.038421 
L 214.081064 153.853435 
L 214.453188 147.81728 
L 215.569561 141.781125 
L 215.941685 145.091275 
L 216.313809 144.604488 
L 216.685933 141.683768 
L 217.058058 136.523829 
L 218.17443 113.83957 
L 218.546554 119.388938 
L 218.918679 113.742213 
L 219.290803 115.105216 
L 219.662927 115.105216 
L 220.779299 122.114944 
L 221.151424 131.071819 
L 221.523548 130.682389 
L 222.267796 131.363891 
L 223.384169 131.169176 
L 223.756293 131.655963 
L 224.128417 125.91188 
L 224.500541 112.184496 
L 224.872666 115.007858 
L 225.989038 109.653205 
L 226.361162 107.316629 
L 227.105411 92.128885 
L 227.477535 105.174768 
L 228.593907 102.448762 
L 228.966032 103.227621 
L 229.338156 106.050984 
L 231.198777 88.818736 
L 231.570901 93.102458 
L 231.943025 95.049605 
L 232.687273 93.199816 
L 233.803646 96.996752 
L 234.17577 103.227621 
L 234.547894 95.439034 
L 234.920019 103.811765 
L 235.292143 99.333328 
L 236.408515 101.475189 
L 236.78064 114.326357 
L 237.152764 109.750562 
L 237.524888 115.29993 
L 237.897012 110.91885 
L 239.013385 103.811765 
L 239.385509 106.732485 
L 239.757633 96.802037 
L 240.129757 101.767261 
L 240.501881 91.93417 
L 241.618254 78.888288 
L 241.990378 82.977296 
L 242.362502 84.827085 
L 242.734627 89.792309 
L 243.106751 74.215136 
L 244.223123 76.064925 
L 244.595247 80.64072 
L 244.967372 80.543362 
L 245.339496 75.675496 
L 245.71162 75.967568 
L 247.200117 82.977296 
L 247.944365 64.284688 
L 248.316489 66.134477 
L 249.432862 64.674117 
L 249.804986 57.177602 
L 250.17711 56.204029 
L 250.921359 49.875802 
L 252.037731 47.539226 
L 252.409855 46.468296 
L 252.78198 59.514178 
L 253.154104 63.895258 
L 253.526228 64.382045 
L 254.642601 62.142826 
L 255.014725 71.781202 
L 255.386849 77.135856 
L 255.758973 76.25964 
L 256.131097 66.718621 
L 257.24747 67.886909 
L 257.619594 76.941141 
L 257.991718 81.419578 
L 258.363842 75.772853 
L 258.735967 73.630992 
L 259.852339 72.462704 
L 260.224463 73.630992 
L 260.596588 77.233213 
L 261.340836 59.222106 
L 262.457208 60.877181 
L 262.829333 70.223485 
L 263.201457 73.144205 
L 263.573581 67.594837 
L 263.945705 70.904986 
L 265.062078 72.462704 
L 265.434202 74.215136 
L 265.806326 73.825706 
L 266.17845 75.675496 
L 266.550575 80.835434 
L 267.666947 89.40288 
L 268.039071 89.500237 
L 268.411195 86.384802 
L 268.78332 87.747805 
L 270.643941 83.366725 
L 271.388189 85.703301 
L 271.760313 92.3236 
L 272.876686 93.102458 
L 273.24881 85.800658 
L 273.620934 87.261018 
L 273.993058 83.56144 
L 274.365182 77.914714 
L 275.481555 76.843784 
L 275.853679 82.587866 
L 276.225803 83.56144 
L 276.597928 85.703301 
L 276.970052 88.624021 
L 278.458549 80.25129 
L 278.830673 80.056576 
L 279.202797 76.454354 
L 279.574921 74.604565 
L 280.691294 76.551712 
L 281.435542 71.391773 
L 281.807666 72.365346 
L 283.296163 69.834056 
L 283.668287 73.046848 
L 284.040411 70.320842 
L 284.78466 60.974538 
L 286.273156 65.063546 
L 286.645281 62.142826 
L 287.017405 62.045469 
L 287.389529 53.380666 
L 288.505902 47.539226 
L 288.878026 52.796522 
L 289.25015 50.654661 
L 289.622274 55.230456 
L 289.994398 51.141448 
L 291.110771 63.311114 
L 291.482895 60.974538 
L 291.855019 57.567032 
L 292.227143 60.779824 
L 292.599268 61.948112 
L 293.71564 68.95784 
L 294.087764 67.10805 
L 294.459889 68.276338 
L 294.832013 67.10805 
L 296.32051 72.073274 
L 296.692634 73.533634 
L 297.064758 70.223485 
L 297.436882 68.081624 
L 297.809006 64.674117 
L 298.925379 65.939762 
L 299.297503 65.452976 
L 299.669627 69.152554 
L 300.041751 67.400122 
L 301.530248 73.046848 
L 301.902372 71.391773 
L 303.018745 77.525285 
L 304.135117 78.109429 
L 304.507242 72.94949 
L 304.879366 69.736698 
L 305.25149 67.692194 
L 305.623614 67.984266 
L 306.739987 61.071896 
L 307.112111 62.824328 
L 307.484235 63.700544 
L 307.856359 59.903608 
L 308.228484 62.045469 
L 309.344856 59.611536 
L 309.71698 60.000965 
L 310.089104 67.594837 
L 310.461229 68.95784 
L 310.833353 67.205408 
L 311.949725 60.293037 
L 312.32185 60.585109 
L 312.693974 56.301386 
L 313.066098 57.761746 
L 313.438222 57.859104 
L 314.554595 60.585109 
L 314.926719 63.505829 
L 315.298843 64.479402 
L 315.670967 59.611536 
L 316.043091 59.027392 
L 317.159464 66.815978 
L 317.531588 66.523906 
L 317.903712 68.081624 
L 318.275837 64.479402 
L 318.647961 65.258261 
L 319.764333 60.487752 
L 320.136458 62.921685 
L 320.508582 62.142826 
L 320.880706 64.479402 
L 321.25283 61.65604 
L 322.741327 62.045469 
L 323.113451 60.000965 
L 323.485575 49.291658 
L 323.857699 47.441869 
L 324.974072 45.300008 
L 325.346196 40.724213 
L 326.090445 46.955082 
L 326.462569 43.158146 
L 327.578941 44.715864 
L 327.951065 43.450218 
L 328.32319 35.856346 
L 328.32319 35.856346 
" clip-path="url(#pa1ff6cb7fa)" style="fill: none; stroke: #d3d3d3; stroke-linecap: square"/>
   </g>
   <g id="line2d_15">
    <path d="M 56.672533 155.313795 
L 57.416781 150.056499 
L 57.788905 148.498781 
L 58.16103 145.539118 
L 59.277402 146.35692 
L 59.649526 148.518253 
L 60.021651 147.408379 
L 60.393775 147.719923 
L 60.765899 144.604488 
L 61.882271 141.683768 
L 62.254396 145.383347 
L 62.62652 146.395863 
L 62.998644 148.888211 
L 63.370768 145.344404 
L 64.487141 145.091275 
L 64.859265 148.08988 
L 65.231389 143.533557 
L 65.603513 140.807552 
L 65.975638 140.418123 
L 67.09201 137.555817 
L 67.464134 135.258184 
L 68.208383 136.582244 
L 68.580507 132.726893 
L 69.696879 137.653174 
L 70.069004 136.913259 
L 70.441128 136.971673 
L 70.813252 133.992539 
L 71.185376 129.864588 
L 72.301749 123.283232 
L 72.673873 126.593381 
L 73.045997 126.982811 
L 73.418121 123.477947 
L 73.790245 123.964733 
L 74.906618 119.388938 
L 75.278742 113.528027 
L 75.650866 104.103837 
L 76.022991 107.803416 
L 76.395115 106.343056 
L 77.511487 113.742213 
L 77.883612 119.038452 
L 78.255736 117.14972 
L 78.62786 118.025936 
L 78.999984 124.159448 
L 80.116357 124.840949 
L 80.488481 124.393105 
L 81.604853 116.273504 
L 82.721226 106.245698 
L 83.09335 111.30828 
L 83.465474 121.725515 
L 83.837599 117.539149 
L 84.209723 122.407016 
L 85.326095 126.690739 
L 85.698219 124.159448 
L 86.070344 119.68101 
L 86.442468 124.743592 
L 86.814592 120.459869 
L 87.930965 120.362512 
L 88.303089 117.733864 
L 88.675213 117.441792 
L 89.047337 116.857648 
L 89.419461 121.822872 
L 90.535834 125.425093 
L 90.907958 121.822872 
L 91.280082 119.778368 
L 91.652206 120.557226 
L 92.024331 119.194224 
L 93.140703 116.370861 
L 94.257076 111.600352 
L 94.6292 109.263776 
L 95.745573 106.148341 
L 96.489821 104.493266 
L 96.861945 94.913305 
L 97.234069 97.483538 
L 98.350442 97.970325 
L 99.09469 86.151145 
L 99.466814 91.447384 
L 99.838939 83.853512 
L 100.955311 76.941141 
L 101.327435 79.569789 
L 101.69956 88.818736 
L 102.071684 88.624021 
L 102.443808 92.031528 
L 103.56018 91.447384 
L 103.932305 96.217893 
L 104.304429 86.170616 
L 104.676553 84.729728 
L 105.048677 73.144205 
L 106.16505 74.993994 
L 106.537174 70.710272 
L 106.909298 72.170632 
L 107.281422 72.170632 
L 107.653547 68.56841 
L 109.142043 85.411229 
L 109.514167 84.535013 
L 109.886292 78.206786 
L 110.258416 75.967568 
L 111.374788 71.48913 
L 111.746913 73.533634 
L 112.119037 79.18036 
L 112.491161 77.19427 
L 112.863285 77.622642 
L 113.979658 79.472432 
L 114.723906 71.742259 
L 115.09603 64.674117 
L 115.468154 63.603186 
L 116.584527 62.921685 
L 116.956651 68.178981 
L 117.328775 58.540605 
L 117.7009 59.222106 
L 118.073024 54.548954 
L 119.561521 49.58373 
L 119.933645 55.619885 
L 120.305769 47.831298 
L 120.677893 50.849376 
L 121.794266 52.932823 
L 122.16639 50.070517 
L 122.538514 51.920306 
L 122.910638 47.05244 
L 124.399135 33.325055 
L 124.771259 40.237426 
L 125.143383 44.326434 
L 125.515508 76.162282 
L 127.376128 69.483569 
L 127.748253 63.603186 
L 128.120377 62.629613 
L 128.492501 64.089973 
L 129.608874 66.913336 
L 129.980998 82.587866 
L 130.353122 83.950869 
L 130.725246 82.10108 
L 131.09737 79.375074 
L 132.213743 75.694967 
L 132.585867 73.241562 
L 132.957991 78.79093 
L 133.330115 68.081624 
L 133.70224 71.48913 
L 134.818612 74.507208 
L 135.190736 69.055197 
L 135.562861 68.665768 
L 135.934985 61.363968 
L 137.423482 75.286066 
L 137.795606 73.33892 
L 138.16773 75.091352 
L 138.911978 87.845162 
L 140.028351 84.437656 
L 140.400475 86.871589 
L 140.772599 93.978674 
L 141.144723 95.633749 
L 141.516848 99.23597 
L 143.005344 89.987024 
L 143.377469 91.544741 
L 143.749593 92.226242 
L 144.121717 86.384802 
L 145.238089 88.234592 
L 145.610214 90.376453 
L 145.982338 95.828464 
L 146.354462 94.562818 
L 146.726586 87.261018 
L 147.842959 78.012072 
L 148.215083 78.693573 
L 148.587207 71.683845 
L 148.959331 70.4182 
L 149.331456 72.754776 
L 150.819952 72.170632 
L 151.192076 84.535013 
L 151.564201 84.145584 
L 151.936325 89.40288 
L 153.424822 83.17201 
L 153.796946 90.279096 
L 154.16907 91.93417 
L 154.541194 87.845162 
L 155.657567 79.764504 
L 156.029691 87.455733 
L 156.401815 91.447384 
L 156.773939 92.615672 
L 157.146063 95.439034 
L 158.262436 92.3236 
L 158.63456 88.039877 
L 159.006684 87.650448 
L 159.750933 81.419578 
L 160.867305 79.375074 
L 161.23943 85.898016 
L 161.611554 86.384802 
L 161.983678 84.340298 
L 162.355802 72.462704 
L 163.472175 68.665768 
L 163.844299 69.931413 
L 164.216423 67.400122 
L 164.588547 65.939762 
L 164.960671 69.444626 
L 166.077044 73.241562 
L 166.449168 70.02877 
L 166.821292 72.365346 
L 167.193417 69.444626 
L 167.565541 62.337541 
L 168.681913 58.930034 
L 169.054037 49.58373 
L 169.798286 56.301386 
L 170.17041 57.469674 
L 171.286783 55.619885 
L 171.658907 52.991237 
L 172.031031 67.886909 
L 172.403155 70.612914 
L 172.775279 68.860482 
L 173.891652 70.02877 
L 174.263776 70.223485 
L 174.6359 75.928625 
L 175.380149 77.72 
L 176.496521 77.525285 
L 176.868645 87.650448 
L 177.24077 87.358376 
L 177.612894 88.234592 
L 177.985018 95.24432 
L 179.10139 95.536392 
L 179.473515 116.955005 
L 179.845639 111.016208 
L 180.217763 107.413986 
L 180.589887 126.301309 
L 181.70626 121.336085 
L 182.078384 123.867376 
L 182.822632 112.184496 
L 183.194757 108.679632 
L 184.683253 116.565576 
L 185.055377 107.316629 
L 185.427502 107.900773 
L 185.799626 106.148341 
L 186.915998 107.900773 
L 187.288123 119.388938 
L 187.660247 122.504373 
L 188.032371 116.273504 
L 188.404495 121.822872 
L 189.520868 117.831221 
L 189.892992 120.459869 
L 190.63724 142.657341 
L 191.009364 136.913259 
L 192.125737 128.443171 
L 192.497861 128.248456 
L 192.497861 128.248456 
" clip-path="url(#pa1ff6cb7fa)" style="fill: none; stroke: #000000; stroke-linecap: square"/>
   </g>
   <g id="patch_3">
    <path d="M 43.09 168.671221 
L 43.09 26.88 
" style="fill: none; stroke: #000000; stroke-width: 0.8; stroke-linejoin: miter; stroke-linecap: square"/>
   </g>
   <g id="patch_4">
    <path d="M 341.905722 168.671221 
L 341.905722 26.88 
" style="fill: none; stroke: #000000; stroke-width: 0.8; stroke-linejoin: miter; stroke-linecap: square"/>
   </g>
   <g id="patch_5">
    <path d="M 43.09 168.671221 
L 341.905722 168.671221 
" style="fill: none; stroke: #000000; stroke-width: 0.8; stroke-linejoin: miter; stroke-linecap: square"/>
   </g>
   <g id="patch_6">
    <path d="M 43.09 26.88 
L 341.905722 26.88 
" style="fill: none; stroke: #000000; stroke-width: 0.8; stroke-linejoin: miter; stroke-linecap: square"/>
   </g>
   <g id="text_14">
    <!-- Gold -->
    <g transform="translate(178.701611 20.88) scale(0.12 -0.12)">
     <defs>
      <path id="DejaVuSans-47" d="M 3809 666 
L 3809 1919 
L 2778 1919 
L 2778 2438 
L 4434 2438 
L 4434 434 
Q 4069 175 3628 42 
Q 3188 -91 2688 -91 
Q 1594 -91 976 548 
Q 359 1188 359 2328 
Q 359 3472 976 4111 
Q 1594 4750 2688 4750 
Q 3144 4750 3555 4637 
Q 3966 4525 4313 4306 
L 4313 3634 
Q 3963 3931 3569 4081 
Q 3175 4231 2741 4231 
Q 1884 4231 1454 3753 
Q 1025 3275 1025 2328 
Q 1025 1384 1454 906 
Q 1884 428 2741 428 
Q 3075 428 3337 486 
Q 3600 544 3809 666 
z
" transform="scale(0.015625)"/>
      <path id="DejaVuSans-6f" d="M 1959 3097 
Q 1497 3097 1228 2736 
Q 959 2375 959 1747 
Q 959 1119 1226 758 
Q 1494 397 1959 397 
Q 2419 397 2687 759 
Q 2956 1122 2956 1747 
Q 2956 2369 2687 2733 
Q 2419 3097 1959 3097 
z
M 1959 3584 
Q 2709 3584 3137 3096 
Q 3566 2609 3566 1747 
Q 3566 888 3137 398 
Q 2709 -91 1959 -91 
Q 1206 -91 779 398 
Q 353 888 353 1747 
Q 353 2609 779 3096 
Q 1206 3584 1959 3584 
z
" transform="scale(0.015625)"/>
      <path id="DejaVuSans-6c" d="M 603 4863 
L 1178 4863 
L 1178 0 
L 603 0 
L 603 4863 
z
" transform="scale(0.015625)"/>
      <path id="DejaVuSans-64" d="M 2906 2969 
L 2906 4863 
L 3481 4863 
L 3481 0 
L 2906 0 
L 2906 525 
Q 2725 213 2448 61 
Q 2172 -91 1784 -91 
Q 1150 -91 751 415 
Q 353 922 353 1747 
Q 353 2572 751 3078 
Q 1150 3584 1784 3584 
Q 2172 3584 2448 3432 
Q 2725 3281 2906 2969 
z
M 947 1747 
Q 947 1113 1208 752 
Q 1469 391 1925 391 
Q 2381 391 2643 752 
Q 2906 1113 2906 1747 
Q 2906 2381 2643 2742 
Q 2381 3103 1925 3103 
Q 1469 3103 1208 2742 
Q 947 2381 947 1747 
z
" transform="scale(0.015625)"/>
     </defs>
     <use xlink:href="#DejaVuSans-47"/>
     <use xlink:href="#DejaVuSans-6f" x="77.490234"/>
     <use xlink:href="#DejaVuSans-6c" x="138.671875"/>
     <use xlink:href="#DejaVuSans-64" x="166.455078"/>
    </g>
   </g>
  </g>
 </g>
 <defs>
  <clipPath id="pa1ff6cb7fa">
   <rect x="43.09" y="26.88" width="298.815722" height="141.791221"/>
  </clipPath>
 </defs>
</svg>
