<?xml version="1.0" encoding="utf-8" standalone="no"?>
<!DOCTYPE svg PUBLIC "-//W3C//DTD SVG 1.1//EN"
  "http://www.w3.org/Graphics/SVG/1.1/DTD/svg11.dtd">
<svg xmlns:xlink="http://www.w3.org/1999/xlink" width="360pt" height="216pt" viewBox="0 0 360 216" xmlns="http://www.w3.org/2000/svg" version="1.1">
 <metadata>
  <rdf:RDF xmlns:dc="http://purl.org/dc/elements/1.1/" xmlns:cc="http://creativecommons.org/ns#" xmlns:rdf="http://www.w3.org/1999/02/22-rdf-syntax-ns#">
   <cc:Work>
    <dc:type rdf:resource="http://purl.org/dc/dcmitype/StillImage"/>
    <dc:date>2023-03-24T15:59:35.906912</dc:date>
    <dc:format>image/svg+xml</dc:format>
    <dc:creator>
     <cc:Agent>
      <dc:title>Matplotlib v3.6.3, https://matplotlib.org/</dc:title>
     </cc:Agent>
    </dc:creator>
   </cc:Work>
  </rdf:RDF>
 </metadata>
 <defs>
  <style type="text/css">*{stroke-linejoin: round; stroke-linecap: butt}</style>
 </defs>
 <g id="figure_1">
  <g id="patch_1">
   <path d="M 0 216 
L 360 216 
L 360 0 
L 0 0 
z
" style="fill: #ffffff"/>
  </g>
  <g id="axes_1">
   <g id="patch_2">
    <path d="M 39.85 168.671221 
L 349.2 168.671221 
L 349.2 26.88 
L 39.85 26.88 
z
" style="fill: #ffffff"/>
   </g>
   <g id="matplotlib.axis_1">
    <g id="xtick_1">
     <g id="line2d_1">
      <defs>
       <path id="m7c6a4518c0" d="M 0 0 
L 0 3.5 
" style="stroke: #000000; stroke-width: 0.8"/>
      </defs>
      <g>
       <use xlink:href="#m7c6a4518c0" x="50.444178" y="168.671221" style="stroke: #000000; stroke-width: 0.8"/>
      </g>
     </g>
     <g id="text_1">
      <!-- '07-10 -->
      <g transform="translate(41.150143 203.534543) rotate(-45) scale(0.1 -0.1)">
       <defs>
        <path id="DejaVuSans-27" d="M 1147 4666 
L 1147 2931 
L 616 2931 
L 616 4666 
L 1147 4666 
z
" transform="scale(0.015625)"/>
        <path id="DejaVuSans-30" d="M 2034 4250 
Q 1547 4250 1301 3770 
Q 1056 3291 1056 2328 
Q 1056 1369 1301 889 
Q 1547 409 2034 409 
Q 2525 409 2770 889 
Q 3016 1369 3016 2328 
Q 3016 3291 2770 3770 
Q 2525 4250 2034 4250 
z
M 2034 4750 
Q 2819 4750 3233 4129 
Q 3647 3509 3647 2328 
Q 3647 1150 3233 529 
Q 2819 -91 2034 -91 
Q 1250 -91 836 529 
Q 422 1150 422 2328 
Q 422 3509 836 4129 
Q 1250 4750 2034 4750 
z
" transform="scale(0.015625)"/>
        <path id="DejaVuSans-37" d="M 525 4666 
L 3525 4666 
L 3525 4397 
L 1831 0 
L 1172 0 
L 2766 4134 
L 525 4134 
L 525 4666 
z
" transform="scale(0.015625)"/>
        <path id="DejaVuSans-2d" d="M 313 2009 
L 1997 2009 
L 1997 1497 
L 313 1497 
L 313 2009 
z
" transform="scale(0.015625)"/>
        <path id="DejaVuSans-31" d="M 794 531 
L 1825 531 
L 1825 4091 
L 703 3866 
L 703 4441 
L 1819 4666 
L 2450 4666 
L 2450 531 
L 3481 531 
L 3481 0 
L 794 0 
L 794 531 
z
" transform="scale(0.015625)"/>
       </defs>
       <use xlink:href="#DejaVuSans-27"/>
       <use xlink:href="#DejaVuSans-30" x="27.490234"/>
       <use xlink:href="#DejaVuSans-37" x="91.113281"/>
       <use xlink:href="#DejaVuSans-2d" x="154.736328"/>
       <use xlink:href="#DejaVuSans-31" x="190.820312"/>
       <use xlink:href="#DejaVuSans-30" x="254.443359"/>
      </g>
     </g>
    </g>
    <g id="xtick_2">
     <g id="line2d_2">
      <g>
       <use xlink:href="#m7c6a4518c0" x="85.886519" y="168.671221" style="stroke: #000000; stroke-width: 0.8"/>
      </g>
     </g>
     <g id="text_2">
      <!-- '08-01 -->
      <g transform="translate(76.592485 203.534543) rotate(-45) scale(0.1 -0.1)">
       <defs>
        <path id="DejaVuSans-38" d="M 2034 2216 
Q 1584 2216 1326 1975 
Q 1069 1734 1069 1313 
Q 1069 891 1326 650 
Q 1584 409 2034 409 
Q 2484 409 2743 651 
Q 3003 894 3003 1313 
Q 3003 1734 2745 1975 
Q 2488 2216 2034 2216 
z
M 1403 2484 
Q 997 2584 770 2862 
Q 544 3141 544 3541 
Q 544 4100 942 4425 
Q 1341 4750 2034 4750 
Q 2731 4750 3128 4425 
Q 3525 4100 3525 3541 
Q 3525 3141 3298 2862 
Q 3072 2584 2669 2484 
Q 3125 2378 3379 2068 
Q 3634 1759 3634 1313 
Q 3634 634 3220 271 
Q 2806 -91 2034 -91 
Q 1263 -91 848 271 
Q 434 634 434 1313 
Q 434 1759 690 2068 
Q 947 2378 1403 2484 
z
M 1172 3481 
Q 1172 3119 1398 2916 
Q 1625 2713 2034 2713 
Q 2441 2713 2670 2916 
Q 2900 3119 2900 3481 
Q 2900 3844 2670 4047 
Q 2441 4250 2034 4250 
Q 1625 4250 1398 4047 
Q 1172 3844 1172 3481 
z
" transform="scale(0.015625)"/>
       </defs>
       <use xlink:href="#DejaVuSans-27"/>
       <use xlink:href="#DejaVuSans-30" x="27.490234"/>
       <use xlink:href="#DejaVuSans-38" x="91.113281"/>
       <use xlink:href="#DejaVuSans-2d" x="154.736328"/>
       <use xlink:href="#DejaVuSans-30" x="190.820312"/>
       <use xlink:href="#DejaVuSans-31" x="254.443359"/>
      </g>
     </g>
    </g>
    <g id="xtick_3">
     <g id="line2d_3">
      <g>
       <use xlink:href="#m7c6a4518c0" x="120.943618" y="168.671221" style="stroke: #000000; stroke-width: 0.8"/>
      </g>
     </g>
     <g id="text_3">
      <!-- '08-04 -->
      <g transform="translate(111.649583 203.534543) rotate(-45) scale(0.1 -0.1)">
       <defs>
        <path id="DejaVuSans-34" d="M 2419 4116 
L 825 1625 
L 2419 1625 
L 2419 4116 
z
M 2253 4666 
L 3047 4666 
L 3047 1625 
L 3713 1625 
L 3713 1100 
L 3047 1100 
L 3047 0 
L 2419 0 
L 2419 1100 
L 313 1100 
L 313 1709 
L 2253 4666 
z
" transform="scale(0.015625)"/>
       </defs>
       <use xlink:href="#DejaVuSans-27"/>
       <use xlink:href="#DejaVuSans-30" x="27.490234"/>
       <use xlink:href="#DejaVuSans-38" x="91.113281"/>
       <use xlink:href="#DejaVuSans-2d" x="154.736328"/>
       <use xlink:href="#DejaVuSans-30" x="190.820312"/>
       <use xlink:href="#DejaVuSans-34" x="254.443359"/>
      </g>
     </g>
    </g>
    <g id="xtick_4">
     <g id="line2d_4">
      <g>
       <use xlink:href="#m7c6a4518c0" x="156.000716" y="168.671221" style="stroke: #000000; stroke-width: 0.8"/>
      </g>
     </g>
     <g id="text_4">
      <!-- '08-07 -->
      <g transform="translate(146.706681 203.534543) rotate(-45) scale(0.1 -0.1)">
       <use xlink:href="#DejaVuSans-27"/>
       <use xlink:href="#DejaVuSans-30" x="27.490234"/>
       <use xlink:href="#DejaVuSans-38" x="91.113281"/>
       <use xlink:href="#DejaVuSans-2d" x="154.736328"/>
       <use xlink:href="#DejaVuSans-30" x="190.820312"/>
       <use xlink:href="#DejaVuSans-37" x="254.443359"/>
      </g>
     </g>
    </g>
    <g id="xtick_5">
     <g id="line2d_5">
      <g>
       <use xlink:href="#m7c6a4518c0" x="191.443057" y="168.671221" style="stroke: #000000; stroke-width: 0.8"/>
      </g>
     </g>
     <g id="text_5">
      <!-- '08-10 -->
      <g transform="translate(182.149023 203.534543) rotate(-45) scale(0.1 -0.1)">
       <use xlink:href="#DejaVuSans-27"/>
       <use xlink:href="#DejaVuSans-30" x="27.490234"/>
       <use xlink:href="#DejaVuSans-38" x="91.113281"/>
       <use xlink:href="#DejaVuSans-2d" x="154.736328"/>
       <use xlink:href="#DejaVuSans-31" x="190.820312"/>
       <use xlink:href="#DejaVuSans-30" x="254.443359"/>
      </g>
     </g>
    </g>
    <g id="xtick_6">
     <g id="line2d_6">
      <g>
       <use xlink:href="#m7c6a4518c0" x="226.885399" y="168.671221" style="stroke: #000000; stroke-width: 0.8"/>
      </g>
     </g>
     <g id="text_6">
      <!-- '09-01 -->
      <g transform="translate(217.591364 203.534543) rotate(-45) scale(0.1 -0.1)">
       <defs>
        <path id="DejaVuSans-39" d="M 703 97 
L 703 672 
Q 941 559 1184 500 
Q 1428 441 1663 441 
Q 2288 441 2617 861 
Q 2947 1281 2994 2138 
Q 2813 1869 2534 1725 
Q 2256 1581 1919 1581 
Q 1219 1581 811 2004 
Q 403 2428 403 3163 
Q 403 3881 828 4315 
Q 1253 4750 1959 4750 
Q 2769 4750 3195 4129 
Q 3622 3509 3622 2328 
Q 3622 1225 3098 567 
Q 2575 -91 1691 -91 
Q 1453 -91 1209 -44 
Q 966 3 703 97 
z
M 1959 2075 
Q 2384 2075 2632 2365 
Q 2881 2656 2881 3163 
Q 2881 3666 2632 3958 
Q 2384 4250 1959 4250 
Q 1534 4250 1286 3958 
Q 1038 3666 1038 3163 
Q 1038 2656 1286 2365 
Q 1534 2075 1959 2075 
z
" transform="scale(0.015625)"/>
       </defs>
       <use xlink:href="#DejaVuSans-27"/>
       <use xlink:href="#DejaVuSans-30" x="27.490234"/>
       <use xlink:href="#DejaVuSans-39" x="91.113281"/>
       <use xlink:href="#DejaVuSans-2d" x="154.736328"/>
       <use xlink:href="#DejaVuSans-30" x="190.820312"/>
       <use xlink:href="#DejaVuSans-31" x="254.443359"/>
      </g>
     </g>
    </g>
    <g id="xtick_7">
     <g id="line2d_7">
      <g>
       <use xlink:href="#m7c6a4518c0" x="261.557254" y="168.671221" style="stroke: #000000; stroke-width: 0.8"/>
      </g>
     </g>
     <g id="text_7">
      <!-- '09-04 -->
      <g transform="translate(252.263219 203.534543) rotate(-45) scale(0.1 -0.1)">
       <use xlink:href="#DejaVuSans-27"/>
       <use xlink:href="#DejaVuSans-30" x="27.490234"/>
       <use xlink:href="#DejaVuSans-39" x="91.113281"/>
       <use xlink:href="#DejaVuSans-2d" x="154.736328"/>
       <use xlink:href="#DejaVuSans-30" x="190.820312"/>
       <use xlink:href="#DejaVuSans-34" x="254.443359"/>
      </g>
     </g>
    </g>
    <g id="xtick_8">
     <g id="line2d_8">
      <g>
       <use xlink:href="#m7c6a4518c0" x="296.614352" y="168.671221" style="stroke: #000000; stroke-width: 0.8"/>
      </g>
     </g>
     <g id="text_8">
      <!-- '09-07 -->
      <g transform="translate(287.320318 203.534543) rotate(-45) scale(0.1 -0.1)">
       <use xlink:href="#DejaVuSans-27"/>
       <use xlink:href="#DejaVuSans-30" x="27.490234"/>
       <use xlink:href="#DejaVuSans-39" x="91.113281"/>
       <use xlink:href="#DejaVuSans-2d" x="154.736328"/>
       <use xlink:href="#DejaVuSans-30" x="190.820312"/>
       <use xlink:href="#DejaVuSans-37" x="254.443359"/>
      </g>
     </g>
    </g>
    <g id="xtick_9">
     <g id="line2d_9">
      <g>
       <use xlink:href="#m7c6a4518c0" x="332.056694" y="168.671221" style="stroke: #000000; stroke-width: 0.8"/>
      </g>
     </g>
     <g id="text_9">
      <!-- '09-10 -->
      <g transform="translate(322.762659 203.534543) rotate(-45) scale(0.1 -0.1)">
       <use xlink:href="#DejaVuSans-27"/>
       <use xlink:href="#DejaVuSans-30" x="27.490234"/>
       <use xlink:href="#DejaVuSans-39" x="91.113281"/>
       <use xlink:href="#DejaVuSans-2d" x="154.736328"/>
       <use xlink:href="#DejaVuSans-31" x="190.820312"/>
       <use xlink:href="#DejaVuSans-30" x="254.443359"/>
      </g>
     </g>
    </g>
   </g>
   <g id="matplotlib.axis_2">
    <g id="ytick_1">
     <g id="line2d_10">
      <defs>
       <path id="mb1a2f42485" d="M 0 0 
L -3.5 0 
" style="stroke: #000000; stroke-width: 0.8"/>
      </defs>
      <g>
       <use xlink:href="#mb1a2f42485" x="39.85" y="168.630888" style="stroke: #000000; stroke-width: 0.8"/>
      </g>
     </g>
     <g id="text_10">
      <!-- 0.20 -->
      <g transform="translate(10.584375 172.430107) scale(0.1 -0.1)">
       <defs>
        <path id="DejaVuSans-2e" d="M 684 794 
L 1344 794 
L 1344 0 
L 684 0 
L 684 794 
z
" transform="scale(0.015625)"/>
        <path id="DejaVuSans-32" d="M 1228 531 
L 3431 531 
L 3431 0 
L 469 0 
L 469 531 
Q 828 903 1448 1529 
Q 2069 2156 2228 2338 
Q 2531 2678 2651 2914 
Q 2772 3150 2772 3378 
Q 2772 3750 2511 3984 
Q 2250 4219 1831 4219 
Q 1534 4219 1204 4116 
Q 875 4013 500 3803 
L 500 4441 
Q 881 4594 1212 4672 
Q 1544 4750 1819 4750 
Q 2544 4750 2975 4387 
Q 3406 4025 3406 3419 
Q 3406 3131 3298 2873 
Q 3191 2616 2906 2266 
Q 2828 2175 2409 1742 
Q 1991 1309 1228 531 
z
" transform="scale(0.015625)"/>
       </defs>
       <use xlink:href="#DejaVuSans-30"/>
       <use xlink:href="#DejaVuSans-2e" x="63.623047"/>
       <use xlink:href="#DejaVuSans-32" x="95.410156"/>
       <use xlink:href="#DejaVuSans-30" x="159.033203"/>
      </g>
     </g>
    </g>
    <g id="ytick_2">
     <g id="line2d_11">
      <g>
       <use xlink:href="#mb1a2f42485" x="39.85" y="144.654103" style="stroke: #000000; stroke-width: 0.8"/>
      </g>
     </g>
     <g id="text_11">
      <!-- 0.25 -->
      <g transform="translate(10.584375 148.453321) scale(0.1 -0.1)">
       <defs>
        <path id="DejaVuSans-35" d="M 691 4666 
L 3169 4666 
L 3169 4134 
L 1269 4134 
L 1269 2991 
Q 1406 3038 1543 3061 
Q 1681 3084 1819 3084 
Q 2600 3084 3056 2656 
Q 3513 2228 3513 1497 
Q 3513 744 3044 326 
Q 2575 -91 1722 -91 
Q 1428 -91 1123 -41 
Q 819 9 494 109 
L 494 744 
Q 775 591 1075 516 
Q 1375 441 1709 441 
Q 2250 441 2565 725 
Q 2881 1009 2881 1497 
Q 2881 1984 2565 2268 
Q 2250 2553 1709 2553 
Q 1456 2553 1204 2497 
Q 953 2441 691 2322 
L 691 4666 
z
" transform="scale(0.015625)"/>
       </defs>
       <use xlink:href="#DejaVuSans-30"/>
       <use xlink:href="#DejaVuSans-2e" x="63.623047"/>
       <use xlink:href="#DejaVuSans-32" x="95.410156"/>
       <use xlink:href="#DejaVuSans-35" x="159.033203"/>
      </g>
     </g>
    </g>
    <g id="ytick_3">
     <g id="line2d_12">
      <g>
       <use xlink:href="#mb1a2f42485" x="39.85" y="120.677317" style="stroke: #000000; stroke-width: 0.8"/>
      </g>
     </g>
     <g id="text_12">
      <!-- 0.30 -->
      <g transform="translate(10.584375 124.476536) scale(0.1 -0.1)">
       <defs>
        <path id="DejaVuSans-33" d="M 2597 2516 
Q 3050 2419 3304 2112 
Q 3559 1806 3559 1356 
Q 3559 666 3084 287 
Q 2609 -91 1734 -91 
Q 1441 -91 1130 -33 
Q 819 25 488 141 
L 488 750 
Q 750 597 1062 519 
Q 1375 441 1716 441 
Q 2309 441 2620 675 
Q 2931 909 2931 1356 
Q 2931 1769 2642 2001 
Q 2353 2234 1838 2234 
L 1294 2234 
L 1294 2753 
L 1863 2753 
Q 2328 2753 2575 2939 
Q 2822 3125 2822 3475 
Q 2822 3834 2567 4026 
Q 2313 4219 1838 4219 
Q 1578 4219 1281 4162 
Q 984 4106 628 3988 
L 628 4550 
Q 988 4650 1302 4700 
Q 1616 4750 1894 4750 
Q 2613 4750 3031 4423 
Q 3450 4097 3450 3541 
Q 3450 3153 3228 2886 
Q 3006 2619 2597 2516 
z
" transform="scale(0.015625)"/>
       </defs>
       <use xlink:href="#DejaVuSans-30"/>
       <use xlink:href="#DejaVuSans-2e" x="63.623047"/>
       <use xlink:href="#DejaVuSans-33" x="95.410156"/>
       <use xlink:href="#DejaVuSans-30" x="159.033203"/>
      </g>
     </g>
    </g>
    <g id="ytick_4">
     <g id="line2d_13">
      <g>
       <use xlink:href="#mb1a2f42485" x="39.85" y="96.700532" style="stroke: #000000; stroke-width: 0.8"/>
      </g>
     </g>
     <g id="text_13">
      <!-- 0.35 -->
      <g transform="translate(10.584375 100.49975) scale(0.1 -0.1)">
       <use xlink:href="#DejaVuSans-30"/>
       <use xlink:href="#DejaVuSans-2e" x="63.623047"/>
       <use xlink:href="#DejaVuSans-33" x="95.410156"/>
       <use xlink:href="#DejaVuSans-35" x="159.033203"/>
      </g>
     </g>
    </g>
    <g id="ytick_5">
     <g id="line2d_14">
      <g>
       <use xlink:href="#mb1a2f42485" x="39.85" y="72.723746" style="stroke: #000000; stroke-width: 0.8"/>
      </g>
     </g>
     <g id="text_14">
      <!-- 0.40 -->
      <g transform="translate(10.584375 76.522965) scale(0.1 -0.1)">
       <use xlink:href="#DejaVuSans-30"/>
       <use xlink:href="#DejaVuSans-2e" x="63.623047"/>
       <use xlink:href="#DejaVuSans-34" x="95.410156"/>
       <use xlink:href="#DejaVuSans-30" x="159.033203"/>
      </g>
     </g>
    </g>
    <g id="ytick_6">
     <g id="line2d_15">
      <g>
       <use xlink:href="#mb1a2f42485" x="39.85" y="48.746961" style="stroke: #000000; stroke-width: 0.8"/>
      </g>
     </g>
     <g id="text_15">
      <!-- 0.45 -->
      <g transform="translate(10.584375 52.54618) scale(0.1 -0.1)">
       <use xlink:href="#DejaVuSans-30"/>
       <use xlink:href="#DejaVuSans-2e" x="63.623047"/>
       <use xlink:href="#DejaVuSans-34" x="95.410156"/>
       <use xlink:href="#DejaVuSans-35" x="159.033203"/>
      </g>
     </g>
    </g>
   </g>
   <g id="line2d_16">
    <path d="M 194.525 139.46351 
L 194.910243 140.338157 
M 196.065971 140.338157 
L 196.451214 145.339494 
L 196.836457 144.982879 
L 197.2217 142.70477 
L 197.606943 142.766646 
M 198.762671 141.137178 
L 199.147914 135.038784 
L 199.9184 128.845979 
L 200.303643 134.828614 
M 201.459371 135.941701 
L 201.844614 139.005122 
L 203.000342 143.748179 
M 204.156071 141.706137 
L 204.541314 137.171308 
L 204.926557 134.723274 
L 205.3118 135.178518 
L 205.697042 137.676731 
M 206.852771 137.001937 
L 207.238014 136.832115 
L 207.623257 133.69609 
L 208.008499 138.939363 
L 208.393742 136.661841 
M 209.549471 134.370899 
L 210.319956 123.123784 
L 210.705199 112.013949 
L 211.090442 113.121639 
M 212.246171 120.964464 
L 212.631413 109.448861 
L 213.016656 104.746058 
L 213.787142 102.368362 
M 214.94287 88.173297 
L 215.328113 86.470555 
L 215.713356 85.339334 
L 216.098599 77.94826 
L 216.483842 84.057899 
M 217.63957 89.140916 
L 218.024813 84.869349 
L 218.410056 85.873459 
L 218.795299 83.444484 
L 219.180542 79.317594 
M 220.33627 75.222709 
L 221.491999 33.325055 
L 221.877242 39.509541 
M 223.03297 40.560585 
L 223.803456 44.466571 
L 224.573941 40.141348 
M 225.72967 35.751909 
L 226.114913 34.76529 
L 226.500156 50.84119 
L 227.270641 66.054707 
M 228.42637 71.798597 
L 228.811613 73.106609 
L 229.196856 72.262285 
L 229.967341 65.312559 
M 231.12307 56.856909 
L 231.508313 55.77194 
L 231.893555 47.847696 
L 232.278798 46.666286 
L 232.664041 56.406212 
M 234.205012 60.04519 
L 234.590255 74.698082 
L 234.975498 79.674611 
L 235.360741 81.648743 
M 236.516469 83.101893 
L 236.901712 74.170539 
L 237.672198 94.187867 
L 238.057441 95.924911 
M 239.213169 88.173297 
L 239.598412 95.806253 
L 239.983655 99.975329 
L 240.368898 99.180889 
L 240.754141 103.565989 
M 241.909869 106.118569 
L 242.295112 96.102586 
L 242.680355 90.919019 
L 243.065598 88.690685 
L 243.450841 98.148124 
M 244.991812 84.396892 
L 245.377055 88.755145 
L 245.762298 96.692139 
L 246.14754 91.54535 
M 247.303269 91.856824 
L 247.688512 93.21409 
L 248.073755 101.707568 
L 248.458998 103.511936 
L 248.84424 106.847892 
M 249.999969 100.257211 
L 250.385212 101.319613 
L 250.770455 105.276752 
L 251.155697 94.429584 
L 251.54094 94.970948 
M 252.696669 98.378741 
L 253.081912 103.727933 
L 253.467154 100.088198 
L 253.852397 98.723469 
L 254.23764 98.321146 
M 255.393369 102.038637 
L 255.778611 104.852479 
L 256.163854 75.222709 
L 256.549097 79.888161 
L 256.93434 81.85776 
M 258.090068 84.261448 
L 258.475311 83.853889 
L 258.860554 91.54535 
L 259.245797 89.076739 
L 259.63104 90.856136 
M 260.786768 87.84838 
L 261.557254 84.125799 
L 261.942497 90.288136 
L 262.32774 99.579066 
M 263.483468 101.375148 
L 263.868711 99.692478 
L 264.253954 96.102586 
L 264.639197 100.650228 
M 266.180168 95.984178 
L 266.565411 92.41466 
L 266.950654 90.730234 
L 267.335897 95.090783 
L 267.721139 100.873965 
M 268.876868 95.865603 
L 269.647354 102.751353 
L 270.032597 100.70622 
L 270.417839 104.479382 
M 271.573568 100.369694 
L 272.344054 109.649235 
L 272.729296 111.037483 
L 273.114539 113.455576 
M 274.270268 112.642018 
L 274.655511 112.642018 
L 275.040753 112.401066 
L 275.425996 119.003672 
L 275.811239 118.915282 
M 276.966968 113.740637 
L 277.35221 113.503161 
L 277.737453 110.098188 
L 278.122696 110.197602 
L 278.507939 110.988331 
M 279.663667 115.196482 
L 280.04891 116.670096 
L 280.434153 114.776722 
L 280.819396 121.521117 
L 281.204639 125.461548 
M 282.74561 127.253258 
L 283.130853 134.758406 
L 283.516096 133.945517 
L 283.901339 126.143886 
M 285.057067 135.457085 
L 285.44231 132.942061 
L 285.827553 129.495589 
L 286.598039 140.370316 
M 287.753767 141.232371 
L 288.13901 140.241579 
L 288.524253 142.70477 
L 289.294738 137.944654 
M 290.450467 135.387556 
L 291.220953 133.050311 
L 291.606196 139.46351 
L 291.991438 137.978064 
M 293.147167 134.688122 
L 293.53241 132.79745 
L 293.917653 134.406223 
L 294.302895 129.305173 
L 294.688138 127.7623 
M 295.843867 127.213944 
L 296.22911 128.422302 
L 296.614352 129.228857 
L 296.999595 127.331818 
M 298.540567 127.7623 
L 298.925809 125.943894 
L 299.311052 118.738179 
L 299.696295 124.035332 
L 300.081538 119.003672 
M 301.237267 121.221918 
L 301.622509 125.421201 
L 302.007752 131.185497 
L 302.392995 129.72338 
L 302.778238 133.194368 
M 303.933966 130.776326 
L 304.319209 126.621519 
L 304.704452 129.609581 
L 305.089695 135.248273 
L 305.474938 133.874349 
M 306.630666 135.387556 
L 307.786395 132.833633 
L 308.171638 127.566962 
M 309.327366 132.761248 
L 309.712609 134.193994 
L 310.097852 137.13747 
L 310.483095 136.525294 
L 310.868337 140.112573 
M 312.024066 137.37396 
L 312.409309 134.688122 
L 312.794552 134.968803 
L 313.179795 130.999821 
L 313.565037 129.761271 
M 314.720766 127.174607 
L 315.106009 128.538112 
L 315.491252 126.063959 
L 315.876494 124.935203 
L 316.261737 129.685468 
M 317.417466 127.292549 
L 317.802709 125.542172 
L 318.187951 125.057021 
L 318.573194 126.02396 
L 318.958437 125.582449 
M 320.114166 123.539586 
L 320.499408 122.453375 
L 320.884651 119.003672 
L 321.269894 120.446771 
L 321.655137 125.219114 
M 323.196108 126.303464 
L 323.581351 126.700804 
L 323.966594 121.050385 
L 324.351837 121.093307 
M 325.507565 123.746571 
L 325.892808 125.622703 
L 326.278051 126.383115 
L 326.663294 123.415102 
L 327.048537 126.50242 
M 328.204265 127.017035 
L 328.974751 124.240865 
L 329.359994 122.705522 
L 329.745237 120.490055 
M 330.900965 119.312194 
L 331.286208 118.871047 
L 331.671451 119.531768 
L 332.056694 114.401615 
L 332.441936 115.660132 
M 333.597665 115.798666 
L 333.982908 116.897725 
L 334.368151 113.503161 
L 334.753394 117.215231 
L 335.138636 122.83126 
L 335.138636 122.83126 
" clip-path="url(#p77af1f2ec2)" style="fill: none; stroke: #d3d3d3; stroke-linecap: square"/>
   </g>
   <g id="line2d_17">
    <path d="M 53.911364 161.345495 
L 54.296606 161.611284 
L 54.681849 162.226165 
M 55.837578 161.919646 
L 56.222821 161.52284 
L 56.608064 159.052832 
L 56.993306 158.045534 
L 57.378549 155.577405 
M 58.534278 155.378979 
L 58.919521 155.676348 
L 59.304763 153.816324 
L 59.690006 154.350597 
L 60.075249 155.279495 
M 61.230978 155.129928 
L 61.61622 155.129928 
L 62.001463 157.379212 
L 62.386706 154.577996 
L 62.771949 152.784194 
M 63.927677 153.482979 
L 64.31292 154.477045 
L 64.698163 153.892965 
L 65.468649 151.038454 
M 66.624377 150.66111 
L 67.00962 151.865166 
L 67.394863 152.208278 
L 67.780106 149.237306 
L 68.165349 148.987257 
M 69.321077 146.975954 
L 70.091563 145.369116 
L 70.862049 145.012679 
M 72.017777 139.886169 
L 72.788263 145.398723 
L 73.173506 142.828459 
L 73.558748 143.808999 
M 74.714477 141.422315 
L 75.09972 141.232371 
L 75.484963 141.925985 
L 75.870205 144.594131 
L 76.255448 148.145867 
M 77.411177 148.959406 
L 77.79642 144.353642 
L 78.952148 151.226189 
M 80.107877 150.172251 
L 80.49312 148.145867 
L 81.263605 145.428316 
L 81.648848 149.486276 
M 82.804577 150.688146 
L 83.575062 152.523148 
L 83.960305 150.33567 
L 84.345548 147.463882 
M 85.501276 145.693988 
L 86.271762 141.611675 
L 86.657005 141.611675 
L 87.042248 140.112573 
M 88.197976 139.62641 
L 88.583219 139.658939 
L 88.968462 138.044833 
L 89.353705 141.168925 
L 89.738948 138.675639 
M 90.894676 138.111531 
L 91.279919 134.968803 
L 91.665162 135.352763 
L 92.050405 132.79745 
L 92.435648 133.086355 
M 93.976619 126.898619 
L 94.361862 124.568471 
L 94.747105 132.79745 
L 95.132347 130.739004 
M 96.288076 130.813627 
L 97.058562 136.079495 
L 97.443804 132.761248 
L 97.829047 131.333666 
M 98.984776 132.905938 
L 99.370019 130.850907 
L 99.755262 131.849677 
L 100.140504 136.182647 
L 100.525747 133.302204 
M 101.681476 131.996375 
L 102.066719 134.193994 
L 102.451961 134.723274 
L 102.837204 138.939363 
L 103.222447 137.676731 
M 104.763418 140.786879 
L 105.148661 142.1138 
L 105.533904 137.810834 
L 105.919147 138.011458 
M 107.074875 141.643179 
L 107.460118 140.305981 
L 107.845361 139.9833 
L 108.230604 135.457085 
L 108.615847 128.845979 
M 109.771575 128.845979 
L 110.156818 130.552082 
L 110.542061 134.688122 
L 111.312547 129.11422 
M 112.468275 125.057021 
L 112.853518 131.185497 
L 113.238761 126.859101 
L 113.624004 128.845979 
L 114.009247 124.363897 
M 115.164975 119.838057 
L 115.550218 125.582449 
L 115.935461 121.90397 
L 116.320704 120.446771 
M 117.861675 128.383655 
L 118.246918 127.213944 
L 118.632161 127.292549 
L 119.017403 128.845979 
L 119.402646 126.183815 
M 120.558375 124.813173 
L 120.943618 129.267026 
L 121.328861 130.701661 
L 121.714103 130.999821 
L 122.099346 126.779998 
M 123.255075 129.685468 
L 123.640318 129.761271 
L 124.02556 126.183815 
L 124.410803 128.769143 
L 124.796046 126.383115 
M 125.951775 127.645164 
L 126.337017 130.214302 
L 126.72226 134.79352 
L 127.107503 135.941701 
L 127.492746 136.422692 
M 128.648474 135.352763 
L 129.41896 135.976178 
L 129.804203 139.234735 
L 130.189446 140.498788 
M 131.345174 139.496124 
L 131.730417 139.169217 
L 132.11566 136.968009 
L 132.500903 136.627731 
L 132.886146 139.821331 
M 134.041874 139.821331 
L 134.427117 141.359065 
L 134.81236 140.530864 
L 135.197603 138.510248 
L 135.582846 137.23893 
M 136.738574 137.508703 
L 137.123817 141.863251 
L 137.50906 142.766646 
L 137.894303 139.756425 
L 138.279545 139.9833 
M 139.435274 139.62641 
L 139.820517 137.542344 
L 140.20576 139.070811 
L 140.591002 142.238691 
L 140.976245 139.365566 
M 142.517217 142.238691 
L 143.287702 146.975954 
L 143.672945 146.017093 
M 144.828674 143.778597 
L 145.213917 141.517068 
L 145.599159 142.828459 
L 145.984402 145.398723 
L 146.369645 142.766646 
M 147.525374 144.413854 
L 147.910616 147.549567 
L 148.295859 146.802771 
L 148.681102 150.498622 
L 149.066345 151.99738 
M 150.222073 151.573199 
L 150.607316 151.038454 
L 150.992559 149.098524 
L 151.377802 150.33567 
L 151.763045 148.624153 
M 152.918773 149.486276 
L 153.304016 147.720561 
L 153.689259 148.004443 
L 154.074502 145.635052 
L 154.459745 144.353642 
M 155.615473 144.02139 
L 156.000716 144.413854 
L 156.385959 143.412567 
L 156.771202 143.839387 
M 158.312173 142.518765 
L 159.082659 139.46351 
L 159.467902 138.708665 
L 159.853144 142.828459 
M 161.008873 140.946352 
L 161.394116 139.788886 
L 162.164601 145.782282 
L 162.549844 147.033568 
M 163.705573 146.629078 
L 164.090816 147.492458 
L 164.476059 148.931543 
L 164.861301 145.131728 
L 165.246544 147.891056 
M 166.402273 145.191164 
L 166.787516 145.958478 
L 167.172758 146.075651 
L 167.558001 144.02139 
L 167.943244 143.075084 
M 169.098973 143.808999 
L 169.869458 146.075651 
L 170.254701 142.673809 
L 170.639944 143.136585 
M 171.795672 144.714015 
L 172.180915 142.145046 
L 172.566158 143.044311 
L 173.336644 140.04797 
M 174.492372 138.873536 
L 174.877615 139.723946 
L 175.262858 138.311205 
L 176.033344 140.530864 
M 177.189072 138.044833 
L 177.574315 137.810834 
L 177.959558 137.407672 
L 178.730044 138.774665 
M 180.271015 136.525294 
L 181.041501 132.905938 
L 181.426743 133.517344 
M 182.582472 133.69609 
L 182.967715 131.185497 
L 183.352958 132.833633 
L 183.7382 132.142749 
L 184.123443 135.976178 
M 185.279172 126.859101 
L 185.664415 127.174607 
L 186.049658 123.911722 
L 186.4349 125.016439 
L 186.820143 137.306481 
M 187.975872 139.201985 
L 188.361115 139.691451 
L 188.746357 137.37396 
L 189.1316 140.370316 
L 189.516843 139.234735 
M 190.672572 132.507273 
L 191.057814 139.234735 
L 191.443057 137.272714 
L 191.8283 133.014248 
L 192.213543 132.942061 
M 193.369271 124.568471 
L 193.754514 127.7623 
L 194.139757 135.457085 
L 194.525 139.46351 
L 194.525 139.46351 
" clip-path="url(#p77af1f2ec2)" style="fill: none; stroke: #000000; stroke-linecap: square"/>
   </g>
   <g id="patch_3">
    <path d="M 39.85 168.671221 
L 39.85 26.88 
" style="fill: none; stroke: #000000; stroke-width: 0.8; stroke-linejoin: miter; stroke-linecap: square"/>
   </g>
   <g id="patch_4">
    <path d="M 349.2 168.671221 
L 349.2 26.88 
" style="fill: none; stroke: #000000; stroke-width: 0.8; stroke-linejoin: miter; stroke-linecap: square"/>
   </g>
   <g id="patch_5">
    <path d="M 39.85 168.671221 
L 349.2 168.671221 
" style="fill: none; stroke: #000000; stroke-width: 0.8; stroke-linejoin: miter; stroke-linecap: square"/>
   </g>
   <g id="patch_6">
    <path d="M 39.85 26.88 
L 349.2 26.88 
" style="fill: none; stroke: #000000; stroke-width: 0.8; stroke-linejoin: miter; stroke-linecap: square"/>
   </g>
   <g id="text_16">
    <!-- 10y Treasury -->
    <g transform="translate(156.005937 20.88) scale(0.12 -0.12)">
     <defs>
      <path id="DejaVuSans-79" d="M 2059 -325 
Q 1816 -950 1584 -1140 
Q 1353 -1331 966 -1331 
L 506 -1331 
L 506 -850 
L 844 -850 
Q 1081 -850 1212 -737 
Q 1344 -625 1503 -206 
L 1606 56 
L 191 3500 
L 800 3500 
L 1894 763 
L 2988 3500 
L 3597 3500 
L 2059 -325 
z
" transform="scale(0.015625)"/>
      <path id="DejaVuSans-20" transform="scale(0.015625)"/>
      <path id="DejaVuSans-54" d="M -19 4666 
L 3928 4666 
L 3928 4134 
L 2272 4134 
L 2272 0 
L 1638 0 
L 1638 4134 
L -19 4134 
L -19 4666 
z
" transform="scale(0.015625)"/>
      <path id="DejaVuSans-72" d="M 2631 2963 
Q 2534 3019 2420 3045 
Q 2306 3072 2169 3072 
Q 1681 3072 1420 2755 
Q 1159 2438 1159 1844 
L 1159 0 
L 581 0 
L 581 3500 
L 1159 3500 
L 1159 2956 
Q 1341 3275 1631 3429 
Q 1922 3584 2338 3584 
Q 2397 3584 2469 3576 
Q 2541 3569 2628 3553 
L 2631 2963 
z
" transform="scale(0.015625)"/>
      <path id="DejaVuSans-65" d="M 3597 1894 
L 3597 1613 
L 953 1613 
Q 991 1019 1311 708 
Q 1631 397 2203 397 
Q 2534 397 2845 478 
Q 3156 559 3463 722 
L 3463 178 
Q 3153 47 2828 -22 
Q 2503 -91 2169 -91 
Q 1331 -91 842 396 
Q 353 884 353 1716 
Q 353 2575 817 3079 
Q 1281 3584 2069 3584 
Q 2775 3584 3186 3129 
Q 3597 2675 3597 1894 
z
M 3022 2063 
Q 3016 2534 2758 2815 
Q 2500 3097 2075 3097 
Q 1594 3097 1305 2825 
Q 1016 2553 972 2059 
L 3022 2063 
z
" transform="scale(0.015625)"/>
      <path id="DejaVuSans-61" d="M 2194 1759 
Q 1497 1759 1228 1600 
Q 959 1441 959 1056 
Q 959 750 1161 570 
Q 1363 391 1709 391 
Q 2188 391 2477 730 
Q 2766 1069 2766 1631 
L 2766 1759 
L 2194 1759 
z
M 3341 1997 
L 3341 0 
L 2766 0 
L 2766 531 
Q 2569 213 2275 61 
Q 1981 -91 1556 -91 
Q 1019 -91 701 211 
Q 384 513 384 1019 
Q 384 1609 779 1909 
Q 1175 2209 1959 2209 
L 2766 2209 
L 2766 2266 
Q 2766 2663 2505 2880 
Q 2244 3097 1772 3097 
Q 1472 3097 1187 3025 
Q 903 2953 641 2809 
L 641 3341 
Q 956 3463 1253 3523 
Q 1550 3584 1831 3584 
Q 2591 3584 2966 3190 
Q 3341 2797 3341 1997 
z
" transform="scale(0.015625)"/>
      <path id="DejaVuSans-73" d="M 2834 3397 
L 2834 2853 
Q 2591 2978 2328 3040 
Q 2066 3103 1784 3103 
Q 1356 3103 1142 2972 
Q 928 2841 928 2578 
Q 928 2378 1081 2264 
Q 1234 2150 1697 2047 
L 1894 2003 
Q 2506 1872 2764 1633 
Q 3022 1394 3022 966 
Q 3022 478 2636 193 
Q 2250 -91 1575 -91 
Q 1294 -91 989 -36 
Q 684 19 347 128 
L 347 722 
Q 666 556 975 473 
Q 1284 391 1588 391 
Q 1994 391 2212 530 
Q 2431 669 2431 922 
Q 2431 1156 2273 1281 
Q 2116 1406 1581 1522 
L 1381 1569 
Q 847 1681 609 1914 
Q 372 2147 372 2553 
Q 372 3047 722 3315 
Q 1072 3584 1716 3584 
Q 2034 3584 2315 3537 
Q 2597 3491 2834 3397 
z
" transform="scale(0.015625)"/>
      <path id="DejaVuSans-75" d="M 544 1381 
L 544 3500 
L 1119 3500 
L 1119 1403 
Q 1119 906 1312 657 
Q 1506 409 1894 409 
Q 2359 409 2629 706 
Q 2900 1003 2900 1516 
L 2900 3500 
L 3475 3500 
L 3475 0 
L 2900 0 
L 2900 538 
Q 2691 219 2414 64 
Q 2138 -91 1772 -91 
Q 1169 -91 856 284 
Q 544 659 544 1381 
z
M 1991 3584 
L 1991 3584 
z
" transform="scale(0.015625)"/>
     </defs>
     <use xlink:href="#DejaVuSans-31"/>
     <use xlink:href="#DejaVuSans-30" x="63.623047"/>
     <use xlink:href="#DejaVuSans-79" x="127.246094"/>
     <use xlink:href="#DejaVuSans-20" x="186.425781"/>
     <use xlink:href="#DejaVuSans-54" x="218.212891"/>
     <use xlink:href="#DejaVuSans-72" x="264.546875"/>
     <use xlink:href="#DejaVuSans-65" x="303.410156"/>
     <use xlink:href="#DejaVuSans-61" x="364.933594"/>
     <use xlink:href="#DejaVuSans-73" x="426.212891"/>
     <use xlink:href="#DejaVuSans-75" x="478.3125"/>
     <use xlink:href="#DejaVuSans-72" x="541.691406"/>
     <use xlink:href="#DejaVuSans-79" x="582.804688"/>
    </g>
   </g>
  </g>
 </g>
 <defs>
  <clipPath id="p77af1f2ec2">
   <rect x="39.85" y="26.88" width="309.35" height="141.791221"/>
  </clipPath>
 </defs>
</svg>
