<?xml version="1.0" encoding="utf-8" standalone="no"?>
<!DOCTYPE svg PUBLIC "-//W3C//DTD SVG 1.1//EN"
  "http://www.w3.org/Graphics/SVG/1.1/DTD/svg11.dtd">
<svg xmlns:xlink="http://www.w3.org/1999/xlink" width="360pt" height="216pt" viewBox="0 0 360 216" xmlns="http://www.w3.org/2000/svg" version="1.1">
 <metadata>
  <rdf:RDF xmlns:dc="http://purl.org/dc/elements/1.1/" xmlns:cc="http://creativecommons.org/ns#" xmlns:rdf="http://www.w3.org/1999/02/22-rdf-syntax-ns#">
   <cc:Work>
    <dc:type rdf:resource="http://purl.org/dc/dcmitype/StillImage"/>
    <dc:date>2023-03-24T15:59:35.515754</dc:date>
    <dc:format>image/svg+xml</dc:format>
    <dc:creator>
     <cc:Agent>
      <dc:title>Matplotlib v3.6.3, https://matplotlib.org/</dc:title>
     </cc:Agent>
    </dc:creator>
   </cc:Work>
  </rdf:RDF>
 </metadata>
 <defs>
  <style type="text/css">*{stroke-linejoin: round; stroke-linecap: butt}</style>
 </defs>
 <g id="figure_1">
  <g id="patch_1">
   <path d="M 0 216 
L 360 216 
L 360 0 
L 0 0 
z
" style="fill: #ffffff"/>
  </g>
  <g id="axes_1">
   <g id="patch_2">
    <path d="M 39.85 168.671221 
L 337.736358 168.671221 
L 337.736358 26.88 
L 39.85 26.88 
z
" style="fill: #ffffff"/>
   </g>
   <g id="matplotlib.axis_1">
    <g id="xtick_1">
     <g id="line2d_1">
      <defs>
       <path id="m4a5a8b6f14" d="M 0 0 
L 0 3.5 
" style="stroke: #000000; stroke-width: 0.8"/>
      </defs>
      <g>
       <use xlink:href="#m4a5a8b6f14" x="63.035426" y="168.671221" style="stroke: #000000; stroke-width: 0.8"/>
      </g>
     </g>
     <g id="text_1">
      <!-- '07-10 -->
      <g transform="translate(53.741392 203.534543) rotate(-45) scale(0.1 -0.1)">
       <defs>
        <path id="DejaVuSans-27" d="M 1147 4666 
L 1147 2931 
L 616 2931 
L 616 4666 
L 1147 4666 
z
" transform="scale(0.015625)"/>
        <path id="DejaVuSans-30" d="M 2034 4250 
Q 1547 4250 1301 3770 
Q 1056 3291 1056 2328 
Q 1056 1369 1301 889 
Q 1547 409 2034 409 
Q 2525 409 2770 889 
Q 3016 1369 3016 2328 
Q 3016 3291 2770 3770 
Q 2525 4250 2034 4250 
z
M 2034 4750 
Q 2819 4750 3233 4129 
Q 3647 3509 3647 2328 
Q 3647 1150 3233 529 
Q 2819 -91 2034 -91 
Q 1250 -91 836 529 
Q 422 1150 422 2328 
Q 422 3509 836 4129 
Q 1250 4750 2034 4750 
z
" transform="scale(0.015625)"/>
        <path id="DejaVuSans-37" d="M 525 4666 
L 3525 4666 
L 3525 4397 
L 1831 0 
L 1172 0 
L 2766 4134 
L 525 4134 
L 525 4666 
z
" transform="scale(0.015625)"/>
        <path id="DejaVuSans-2d" d="M 313 2009 
L 1997 2009 
L 1997 1497 
L 313 1497 
L 313 2009 
z
" transform="scale(0.015625)"/>
        <path id="DejaVuSans-31" d="M 794 531 
L 1825 531 
L 1825 4091 
L 703 3866 
L 703 4441 
L 1819 4666 
L 2450 4666 
L 2450 531 
L 3481 531 
L 3481 0 
L 794 0 
L 794 531 
z
" transform="scale(0.015625)"/>
       </defs>
       <use xlink:href="#DejaVuSans-27"/>
       <use xlink:href="#DejaVuSans-30" x="27.490234"/>
       <use xlink:href="#DejaVuSans-37" x="91.113281"/>
       <use xlink:href="#DejaVuSans-2d" x="154.736328"/>
       <use xlink:href="#DejaVuSans-31" x="190.820312"/>
       <use xlink:href="#DejaVuSans-30" x="254.443359"/>
      </g>
     </g>
    </g>
    <g id="xtick_2">
     <g id="line2d_2">
      <g>
       <use xlink:href="#m4a5a8b6f14" x="97.164374" y="168.671221" style="stroke: #000000; stroke-width: 0.8"/>
      </g>
     </g>
     <g id="text_2">
      <!-- '08-01 -->
      <g transform="translate(87.870339 203.534543) rotate(-45) scale(0.1 -0.1)">
       <defs>
        <path id="DejaVuSans-38" d="M 2034 2216 
Q 1584 2216 1326 1975 
Q 1069 1734 1069 1313 
Q 1069 891 1326 650 
Q 1584 409 2034 409 
Q 2484 409 2743 651 
Q 3003 894 3003 1313 
Q 3003 1734 2745 1975 
Q 2488 2216 2034 2216 
z
M 1403 2484 
Q 997 2584 770 2862 
Q 544 3141 544 3541 
Q 544 4100 942 4425 
Q 1341 4750 2034 4750 
Q 2731 4750 3128 4425 
Q 3525 4100 3525 3541 
Q 3525 3141 3298 2862 
Q 3072 2584 2669 2484 
Q 3125 2378 3379 2068 
Q 3634 1759 3634 1313 
Q 3634 634 3220 271 
Q 2806 -91 2034 -91 
Q 1263 -91 848 271 
Q 434 634 434 1313 
Q 434 1759 690 2068 
Q 947 2378 1403 2484 
z
M 1172 3481 
Q 1172 3119 1398 2916 
Q 1625 2713 2034 2713 
Q 2441 2713 2670 2916 
Q 2900 3119 2900 3481 
Q 2900 3844 2670 4047 
Q 2441 4250 2034 4250 
Q 1625 4250 1398 4047 
Q 1172 3844 1172 3481 
z
" transform="scale(0.015625)"/>
       </defs>
       <use xlink:href="#DejaVuSans-27"/>
       <use xlink:href="#DejaVuSans-30" x="27.490234"/>
       <use xlink:href="#DejaVuSans-38" x="91.113281"/>
       <use xlink:href="#DejaVuSans-2d" x="154.736328"/>
       <use xlink:href="#DejaVuSans-30" x="190.820312"/>
       <use xlink:href="#DejaVuSans-31" x="254.443359"/>
      </g>
     </g>
    </g>
    <g id="xtick_3">
     <g id="line2d_3">
      <g>
       <use xlink:href="#m4a5a8b6f14" x="130.922355" y="168.671221" style="stroke: #000000; stroke-width: 0.8"/>
      </g>
     </g>
     <g id="text_3">
      <!-- '08-04 -->
      <g transform="translate(121.62832 203.534543) rotate(-45) scale(0.1 -0.1)">
       <defs>
        <path id="DejaVuSans-34" d="M 2419 4116 
L 825 1625 
L 2419 1625 
L 2419 4116 
z
M 2253 4666 
L 3047 4666 
L 3047 1625 
L 3713 1625 
L 3713 1100 
L 3047 1100 
L 3047 0 
L 2419 0 
L 2419 1100 
L 313 1100 
L 313 1709 
L 2253 4666 
z
" transform="scale(0.015625)"/>
       </defs>
       <use xlink:href="#DejaVuSans-27"/>
       <use xlink:href="#DejaVuSans-30" x="27.490234"/>
       <use xlink:href="#DejaVuSans-38" x="91.113281"/>
       <use xlink:href="#DejaVuSans-2d" x="154.736328"/>
       <use xlink:href="#DejaVuSans-30" x="190.820312"/>
       <use xlink:href="#DejaVuSans-34" x="254.443359"/>
      </g>
     </g>
    </g>
    <g id="xtick_4">
     <g id="line2d_4">
      <g>
       <use xlink:href="#m4a5a8b6f14" x="164.680335" y="168.671221" style="stroke: #000000; stroke-width: 0.8"/>
      </g>
     </g>
     <g id="text_4">
      <!-- '08-07 -->
      <g transform="translate(155.386301 203.534543) rotate(-45) scale(0.1 -0.1)">
       <use xlink:href="#DejaVuSans-27"/>
       <use xlink:href="#DejaVuSans-30" x="27.490234"/>
       <use xlink:href="#DejaVuSans-38" x="91.113281"/>
       <use xlink:href="#DejaVuSans-2d" x="154.736328"/>
       <use xlink:href="#DejaVuSans-30" x="190.820312"/>
       <use xlink:href="#DejaVuSans-37" x="254.443359"/>
      </g>
     </g>
    </g>
    <g id="xtick_5">
     <g id="line2d_5">
      <g>
       <use xlink:href="#m4a5a8b6f14" x="198.809283" y="168.671221" style="stroke: #000000; stroke-width: 0.8"/>
      </g>
     </g>
     <g id="text_5">
      <!-- '08-10 -->
      <g transform="translate(189.515248 203.534543) rotate(-45) scale(0.1 -0.1)">
       <use xlink:href="#DejaVuSans-27"/>
       <use xlink:href="#DejaVuSans-30" x="27.490234"/>
       <use xlink:href="#DejaVuSans-38" x="91.113281"/>
       <use xlink:href="#DejaVuSans-2d" x="154.736328"/>
       <use xlink:href="#DejaVuSans-31" x="190.820312"/>
       <use xlink:href="#DejaVuSans-30" x="254.443359"/>
      </g>
     </g>
    </g>
    <g id="xtick_6">
     <g id="line2d_6">
      <g>
       <use xlink:href="#m4a5a8b6f14" x="232.938231" y="168.671221" style="stroke: #000000; stroke-width: 0.8"/>
      </g>
     </g>
     <g id="text_6">
      <!-- '09-01 -->
      <g transform="translate(223.644196 203.534543) rotate(-45) scale(0.1 -0.1)">
       <defs>
        <path id="DejaVuSans-39" d="M 703 97 
L 703 672 
Q 941 559 1184 500 
Q 1428 441 1663 441 
Q 2288 441 2617 861 
Q 2947 1281 2994 2138 
Q 2813 1869 2534 1725 
Q 2256 1581 1919 1581 
Q 1219 1581 811 2004 
Q 403 2428 403 3163 
Q 403 3881 828 4315 
Q 1253 4750 1959 4750 
Q 2769 4750 3195 4129 
Q 3622 3509 3622 2328 
Q 3622 1225 3098 567 
Q 2575 -91 1691 -91 
Q 1453 -91 1209 -44 
Q 966 3 703 97 
z
M 1959 2075 
Q 2384 2075 2632 2365 
Q 2881 2656 2881 3163 
Q 2881 3666 2632 3958 
Q 2384 4250 1959 4250 
Q 1534 4250 1286 3958 
Q 1038 3666 1038 3163 
Q 1038 2656 1286 2365 
Q 1534 2075 1959 2075 
z
" transform="scale(0.015625)"/>
       </defs>
       <use xlink:href="#DejaVuSans-27"/>
       <use xlink:href="#DejaVuSans-30" x="27.490234"/>
       <use xlink:href="#DejaVuSans-39" x="91.113281"/>
       <use xlink:href="#DejaVuSans-2d" x="154.736328"/>
       <use xlink:href="#DejaVuSans-30" x="190.820312"/>
       <use xlink:href="#DejaVuSans-31" x="254.443359"/>
      </g>
     </g>
    </g>
    <g id="xtick_7">
     <g id="line2d_7">
      <g>
       <use xlink:href="#m4a5a8b6f14" x="266.325244" y="168.671221" style="stroke: #000000; stroke-width: 0.8"/>
      </g>
     </g>
     <g id="text_7">
      <!-- '09-04 -->
      <g transform="translate(257.03121 203.534543) rotate(-45) scale(0.1 -0.1)">
       <use xlink:href="#DejaVuSans-27"/>
       <use xlink:href="#DejaVuSans-30" x="27.490234"/>
       <use xlink:href="#DejaVuSans-39" x="91.113281"/>
       <use xlink:href="#DejaVuSans-2d" x="154.736328"/>
       <use xlink:href="#DejaVuSans-30" x="190.820312"/>
       <use xlink:href="#DejaVuSans-34" x="254.443359"/>
      </g>
     </g>
    </g>
    <g id="xtick_8">
     <g id="line2d_8">
      <g>
       <use xlink:href="#m4a5a8b6f14" x="300.083225" y="168.671221" style="stroke: #000000; stroke-width: 0.8"/>
      </g>
     </g>
     <g id="text_8">
      <!-- '09-07 -->
      <g transform="translate(290.78919 203.534543) rotate(-45) scale(0.1 -0.1)">
       <use xlink:href="#DejaVuSans-27"/>
       <use xlink:href="#DejaVuSans-30" x="27.490234"/>
       <use xlink:href="#DejaVuSans-39" x="91.113281"/>
       <use xlink:href="#DejaVuSans-2d" x="154.736328"/>
       <use xlink:href="#DejaVuSans-30" x="190.820312"/>
       <use xlink:href="#DejaVuSans-37" x="254.443359"/>
      </g>
     </g>
    </g>
    <g id="xtick_9">
     <g id="line2d_9">
      <g>
       <use xlink:href="#m4a5a8b6f14" x="334.212173" y="168.671221" style="stroke: #000000; stroke-width: 0.8"/>
      </g>
     </g>
     <g id="text_9">
      <!-- '09-10 -->
      <g transform="translate(324.918138 203.534543) rotate(-45) scale(0.1 -0.1)">
       <use xlink:href="#DejaVuSans-27"/>
       <use xlink:href="#DejaVuSans-30" x="27.490234"/>
       <use xlink:href="#DejaVuSans-39" x="91.113281"/>
       <use xlink:href="#DejaVuSans-2d" x="154.736328"/>
       <use xlink:href="#DejaVuSans-31" x="190.820312"/>
       <use xlink:href="#DejaVuSans-30" x="254.443359"/>
      </g>
     </g>
    </g>
   </g>
   <g id="matplotlib.axis_2">
    <g id="ytick_1">
     <g id="line2d_10">
      <defs>
       <path id="m5bdc66c4b8" d="M 0 0 
L -3.5 0 
" style="stroke: #000000; stroke-width: 0.8"/>
      </defs>
      <g>
       <use xlink:href="#m5bdc66c4b8" x="39.85" y="168.630888" style="stroke: #000000; stroke-width: 0.8"/>
      </g>
     </g>
     <g id="text_10">
      <!-- 0.20 -->
      <g transform="translate(10.584375 172.430107) scale(0.1 -0.1)">
       <defs>
        <path id="DejaVuSans-2e" d="M 684 794 
L 1344 794 
L 1344 0 
L 684 0 
L 684 794 
z
" transform="scale(0.015625)"/>
        <path id="DejaVuSans-32" d="M 1228 531 
L 3431 531 
L 3431 0 
L 469 0 
L 469 531 
Q 828 903 1448 1529 
Q 2069 2156 2228 2338 
Q 2531 2678 2651 2914 
Q 2772 3150 2772 3378 
Q 2772 3750 2511 3984 
Q 2250 4219 1831 4219 
Q 1534 4219 1204 4116 
Q 875 4013 500 3803 
L 500 4441 
Q 881 4594 1212 4672 
Q 1544 4750 1819 4750 
Q 2544 4750 2975 4387 
Q 3406 4025 3406 3419 
Q 3406 3131 3298 2873 
Q 3191 2616 2906 2266 
Q 2828 2175 2409 1742 
Q 1991 1309 1228 531 
z
" transform="scale(0.015625)"/>
       </defs>
       <use xlink:href="#DejaVuSans-30"/>
       <use xlink:href="#DejaVuSans-2e" x="63.623047"/>
       <use xlink:href="#DejaVuSans-32" x="95.410156"/>
       <use xlink:href="#DejaVuSans-30" x="159.033203"/>
      </g>
     </g>
    </g>
    <g id="ytick_2">
     <g id="line2d_11">
      <g>
       <use xlink:href="#m5bdc66c4b8" x="39.85" y="144.654103" style="stroke: #000000; stroke-width: 0.8"/>
      </g>
     </g>
     <g id="text_11">
      <!-- 0.25 -->
      <g transform="translate(10.584375 148.453321) scale(0.1 -0.1)">
       <defs>
        <path id="DejaVuSans-35" d="M 691 4666 
L 3169 4666 
L 3169 4134 
L 1269 4134 
L 1269 2991 
Q 1406 3038 1543 3061 
Q 1681 3084 1819 3084 
Q 2600 3084 3056 2656 
Q 3513 2228 3513 1497 
Q 3513 744 3044 326 
Q 2575 -91 1722 -91 
Q 1428 -91 1123 -41 
Q 819 9 494 109 
L 494 744 
Q 775 591 1075 516 
Q 1375 441 1709 441 
Q 2250 441 2565 725 
Q 2881 1009 2881 1497 
Q 2881 1984 2565 2268 
Q 2250 2553 1709 2553 
Q 1456 2553 1204 2497 
Q 953 2441 691 2322 
L 691 4666 
z
" transform="scale(0.015625)"/>
       </defs>
       <use xlink:href="#DejaVuSans-30"/>
       <use xlink:href="#DejaVuSans-2e" x="63.623047"/>
       <use xlink:href="#DejaVuSans-32" x="95.410156"/>
       <use xlink:href="#DejaVuSans-35" x="159.033203"/>
      </g>
     </g>
    </g>
    <g id="ytick_3">
     <g id="line2d_12">
      <g>
       <use xlink:href="#m5bdc66c4b8" x="39.85" y="120.677317" style="stroke: #000000; stroke-width: 0.8"/>
      </g>
     </g>
     <g id="text_12">
      <!-- 0.30 -->
      <g transform="translate(10.584375 124.476536) scale(0.1 -0.1)">
       <defs>
        <path id="DejaVuSans-33" d="M 2597 2516 
Q 3050 2419 3304 2112 
Q 3559 1806 3559 1356 
Q 3559 666 3084 287 
Q 2609 -91 1734 -91 
Q 1441 -91 1130 -33 
Q 819 25 488 141 
L 488 750 
Q 750 597 1062 519 
Q 1375 441 1716 441 
Q 2309 441 2620 675 
Q 2931 909 2931 1356 
Q 2931 1769 2642 2001 
Q 2353 2234 1838 2234 
L 1294 2234 
L 1294 2753 
L 1863 2753 
Q 2328 2753 2575 2939 
Q 2822 3125 2822 3475 
Q 2822 3834 2567 4026 
Q 2313 4219 1838 4219 
Q 1578 4219 1281 4162 
Q 984 4106 628 3988 
L 628 4550 
Q 988 4650 1302 4700 
Q 1616 4750 1894 4750 
Q 2613 4750 3031 4423 
Q 3450 4097 3450 3541 
Q 3450 3153 3228 2886 
Q 3006 2619 2597 2516 
z
" transform="scale(0.015625)"/>
       </defs>
       <use xlink:href="#DejaVuSans-30"/>
       <use xlink:href="#DejaVuSans-2e" x="63.623047"/>
       <use xlink:href="#DejaVuSans-33" x="95.410156"/>
       <use xlink:href="#DejaVuSans-30" x="159.033203"/>
      </g>
     </g>
    </g>
    <g id="ytick_4">
     <g id="line2d_13">
      <g>
       <use xlink:href="#m5bdc66c4b8" x="39.85" y="96.700532" style="stroke: #000000; stroke-width: 0.8"/>
      </g>
     </g>
     <g id="text_13">
      <!-- 0.35 -->
      <g transform="translate(10.584375 100.49975) scale(0.1 -0.1)">
       <use xlink:href="#DejaVuSans-30"/>
       <use xlink:href="#DejaVuSans-2e" x="63.623047"/>
       <use xlink:href="#DejaVuSans-33" x="95.410156"/>
       <use xlink:href="#DejaVuSans-35" x="159.033203"/>
      </g>
     </g>
    </g>
    <g id="ytick_5">
     <g id="line2d_14">
      <g>
       <use xlink:href="#m5bdc66c4b8" x="39.85" y="72.723746" style="stroke: #000000; stroke-width: 0.8"/>
      </g>
     </g>
     <g id="text_14">
      <!-- 0.40 -->
      <g transform="translate(10.584375 76.522965) scale(0.1 -0.1)">
       <use xlink:href="#DejaVuSans-30"/>
       <use xlink:href="#DejaVuSans-2e" x="63.623047"/>
       <use xlink:href="#DejaVuSans-34" x="95.410156"/>
       <use xlink:href="#DejaVuSans-30" x="159.033203"/>
      </g>
     </g>
    </g>
    <g id="ytick_6">
     <g id="line2d_15">
      <g>
       <use xlink:href="#m5bdc66c4b8" x="39.85" y="48.746961" style="stroke: #000000; stroke-width: 0.8"/>
      </g>
     </g>
     <g id="text_15">
      <!-- 0.45 -->
      <g transform="translate(10.584375 52.54618) scale(0.1 -0.1)">
       <use xlink:href="#DejaVuSans-30"/>
       <use xlink:href="#DejaVuSans-2e" x="63.623047"/>
       <use xlink:href="#DejaVuSans-34" x="95.410156"/>
       <use xlink:href="#DejaVuSans-35" x="159.033203"/>
      </g>
     </g>
    </g>
   </g>
   <g id="line2d_16">
    <path d="M 188.793179 132.905938 
L 189.164146 133.517344 
M 190.277046 133.69609 
L 190.648013 131.185497 
L 191.01898 132.833633 
L 191.389947 132.142749 
L 191.760913 135.976178 
M 192.873814 126.859101 
L 193.244781 127.174607 
L 193.615747 123.911722 
L 193.986714 125.016439 
L 194.357681 137.306481 
M 195.470582 139.201985 
L 195.841548 139.691451 
L 196.212515 137.37396 
L 196.583482 140.370316 
L 196.954449 139.234735 
M 198.067349 132.507273 
L 198.438316 139.234735 
L 198.809283 137.272714 
L 199.18025 133.014248 
L 199.551217 132.942061 
M 200.664117 124.568471 
L 201.035084 127.7623 
L 201.406051 135.457085 
L 201.777018 139.46351 
L 202.147984 140.338157 
M 203.260885 140.338157 
L 203.631852 145.339494 
L 204.002818 144.982879 
L 204.373785 142.70477 
L 204.744752 142.766646 
M 205.857653 141.137178 
L 206.228619 135.038784 
L 206.970553 128.845979 
L 207.34152 134.828614 
M 208.45442 135.941701 
L 208.825387 139.005122 
L 209.938288 143.748179 
M 211.051188 141.706137 
L 211.422155 137.171308 
L 211.793122 134.723274 
L 212.164089 135.178518 
L 212.535055 137.676731 
M 213.647956 137.001937 
L 214.018923 136.832115 
L 214.389889 133.69609 
L 214.760856 138.939363 
L 215.131823 136.661841 
M 216.244724 134.370899 
L 216.986657 123.123784 
L 217.357624 112.013949 
L 217.728591 113.121639 
M 218.841491 120.964464 
L 219.212458 109.448861 
L 219.583425 104.746058 
L 220.325359 102.368362 
M 221.438259 88.173297 
L 221.809226 86.470555 
L 222.180193 85.339334 
L 222.55116 77.94826 
L 222.922126 84.057899 
M 224.035027 89.140916 
L 224.405994 84.869349 
L 224.77696 85.873459 
L 225.147927 83.444484 
L 225.518894 79.317594 
M 226.631795 75.222709 
L 227.744695 33.325055 
L 228.115662 39.509541 
M 229.228562 40.560585 
L 229.970496 44.466571 
L 230.71243 40.141348 
M 231.82533 35.751909 
L 232.196297 34.76529 
L 232.567264 50.84119 
L 233.309197 66.054707 
M 234.422098 71.798597 
L 234.793065 73.106609 
L 235.164031 72.262285 
L 235.905965 65.312559 
M 237.018866 56.856909 
L 237.389832 55.77194 
L 237.760799 47.847696 
L 238.131766 46.666286 
L 238.502733 56.406212 
M 239.9866 60.04519 
L 240.357567 74.698082 
L 240.728534 79.674611 
L 241.099501 81.648743 
M 242.212401 83.101893 
L 242.583368 74.170539 
L 243.325302 94.187867 
L 243.696268 95.924911 
M 244.809169 88.173297 
L 245.180136 95.806253 
L 245.551102 99.975329 
L 245.922069 99.180889 
L 246.293036 103.565989 
M 247.405937 106.118569 
L 247.776903 96.102586 
L 248.14787 90.919019 
L 248.518837 88.690685 
L 248.889804 98.148124 
M 250.373671 84.396892 
L 250.744638 88.755145 
L 251.115605 96.692139 
L 251.486572 91.54535 
M 252.599472 91.856824 
L 252.970439 93.21409 
L 253.341406 101.707568 
L 253.712373 103.511936 
L 254.083339 106.847892 
M 255.19624 100.257211 
L 255.567207 101.319613 
L 255.938173 105.276752 
L 256.30914 94.429584 
L 256.680107 94.970948 
M 257.793008 98.378741 
L 258.163974 103.727933 
L 258.534941 100.088198 
L 258.905908 98.723469 
L 259.276875 98.321146 
M 260.389775 102.038637 
L 260.760742 104.852479 
L 261.131709 75.222709 
L 261.502676 79.888161 
L 261.873643 81.85776 
M 262.986543 84.261448 
L 263.35751 83.853889 
L 263.728477 91.54535 
L 264.099444 89.076739 
L 264.47041 90.856136 
M 265.583311 87.84838 
L 266.325244 84.125799 
L 266.696211 90.288136 
L 267.067178 99.579066 
M 268.180079 101.375148 
L 268.551045 99.692478 
L 268.922012 96.102586 
L 269.292979 100.650228 
M 270.776846 95.984178 
L 271.147813 92.41466 
L 271.51878 90.730234 
L 271.889747 95.090783 
L 272.260714 100.873965 
M 273.373614 95.865603 
L 274.115548 102.751353 
L 274.486515 100.70622 
L 274.857481 104.479382 
M 275.970382 100.369694 
L 276.712315 109.649235 
L 277.083282 111.037483 
L 277.454249 113.455576 
M 278.56715 112.642018 
L 278.938116 112.642018 
L 279.309083 112.401066 
L 279.68005 119.003672 
L 280.051017 118.915282 
M 281.163917 113.740637 
L 281.534884 113.503161 
L 281.905851 110.098188 
L 282.276818 110.197602 
L 282.647785 110.988331 
M 283.760685 115.196482 
L 284.131652 116.670096 
L 284.502619 114.776722 
L 284.873586 121.521117 
L 285.244552 125.461548 
M 286.72842 127.253258 
L 287.099386 134.758406 
L 287.470353 133.945517 
L 287.84132 126.143886 
M 288.954221 135.457085 
L 289.325187 132.942061 
L 289.696154 129.495589 
L 290.438088 140.370316 
M 291.550988 141.232371 
L 291.921955 140.241579 
L 292.292922 142.70477 
L 293.034856 137.944654 
M 294.147756 135.387556 
L 294.88969 133.050311 
L 295.260657 139.46351 
L 295.631623 137.978064 
M 296.744524 134.688122 
L 297.115491 132.79745 
L 297.486457 134.406223 
L 297.857424 129.305173 
L 298.228391 127.7623 
M 299.341292 127.213944 
L 299.712258 128.422302 
L 300.083225 129.228857 
L 300.454192 127.331818 
M 301.938059 127.7623 
L 302.309026 125.943894 
L 302.679993 118.738179 
L 303.05096 124.035332 
L 303.421927 119.003672 
M 304.534827 121.221918 
L 304.905794 125.421201 
L 305.276761 131.185497 
L 305.647728 129.72338 
L 306.018694 133.194368 
M 307.131595 130.776326 
L 307.502562 126.621519 
L 307.873528 129.609581 
L 308.244495 135.248273 
L 308.615462 133.874349 
M 309.728363 135.387556 
L 310.841263 132.833633 
L 311.21223 127.566962 
M 312.32513 132.761248 
L 312.696097 134.193994 
L 313.067064 137.13747 
L 313.438031 136.525294 
L 313.808998 140.112573 
M 314.921898 137.37396 
L 315.292865 134.688122 
L 315.663832 134.968803 
L 316.034799 130.999821 
L 316.405765 129.761271 
M 317.518666 127.174607 
L 317.889633 128.538112 
L 318.260599 126.063959 
L 318.631566 124.935203 
L 319.002533 129.685468 
M 320.115434 127.292549 
L 320.4864 125.542172 
L 320.857367 125.057021 
L 321.228334 126.02396 
L 321.599301 125.582449 
M 322.712201 123.539586 
L 323.083168 122.453375 
L 323.454135 119.003672 
L 323.825102 120.446771 
L 324.196069 125.219114 
L 324.196069 125.219114 
" clip-path="url(#p04657a706e)" style="fill: none; stroke: #d3d3d3; stroke-linecap: square"/>
   </g>
   <g id="line2d_17">
    <path d="M 53.390289 157.331299 
L 53.761256 157.974539 
L 54.132223 154.754214 
M 55.245123 153.63708 
L 55.987057 155.750437 
L 56.358024 157.546573 
L 56.72899 157.067006 
M 57.841891 157.259348 
L 58.212858 157.498809 
L 58.583824 158.539863 
L 58.954791 161.897681 
L 59.325758 161.011322 
M 60.438659 160.83221 
L 60.809625 160.607447 
L 61.180592 160.742422 
L 61.551559 159.67564 
L 61.922526 159.813044 
M 63.035426 159.30746 
L 63.406393 158.656884 
L 63.77736 158.983174 
L 64.148327 158.516427 
L 64.519294 161.189817 
M 65.632194 161.145251 
L 66.003161 161.434244 
L 66.374128 161.345495 
L 66.745095 161.611284 
L 67.116061 162.226165 
M 68.228962 161.919646 
L 68.599929 161.52284 
L 68.970895 159.052832 
L 69.341862 158.045534 
L 69.712829 155.577405 
M 70.82573 155.378979 
L 71.196696 155.676348 
L 71.567663 153.816324 
L 71.93863 154.350597 
L 72.309597 155.279495 
M 73.422497 155.129928 
L 73.793464 155.129928 
L 74.164431 157.379212 
L 74.535398 154.577996 
L 74.906365 152.784194 
M 76.019265 153.482979 
L 76.390232 154.477045 
L 76.761199 153.892965 
L 77.503132 151.038454 
M 78.616033 150.66111 
L 78.987 151.865166 
L 79.357966 152.208278 
L 79.728933 149.237306 
L 80.0999 148.987257 
M 81.212801 146.975954 
L 81.954734 145.369116 
L 82.696668 145.012679 
M 83.809568 139.886169 
L 84.551502 145.398723 
L 84.922469 142.828459 
L 85.293436 143.808999 
M 86.406336 141.422315 
L 86.777303 141.232371 
L 87.14827 141.925985 
L 87.519237 144.594131 
L 87.890203 148.145867 
M 89.003104 148.959406 
L 89.374071 144.353642 
L 90.486971 151.226189 
M 91.599872 150.172251 
L 92.341805 146.715988 
L 92.712772 145.428316 
L 93.083739 149.486276 
M 94.196639 150.688146 
L 94.938573 152.523148 
L 95.30954 150.33567 
L 95.680507 147.463882 
M 96.793407 145.693988 
L 97.535341 141.611675 
L 97.906308 141.611675 
L 98.277274 140.112573 
M 99.390175 139.62641 
L 99.761142 139.658939 
L 100.132108 138.044833 
L 100.503075 141.168925 
L 100.874042 138.675639 
M 101.986943 138.111531 
L 102.357909 134.968803 
L 102.728876 135.352763 
L 103.099843 132.79745 
L 103.47081 133.086355 
M 104.954677 126.898619 
L 105.325644 124.568471 
L 105.696611 132.79745 
L 106.067578 130.739004 
M 107.180478 130.813627 
L 107.922412 136.079495 
L 108.293379 132.761248 
L 108.664345 131.333666 
M 109.777246 132.905938 
L 110.148213 130.850907 
L 110.519179 131.849677 
L 110.890146 136.182647 
L 111.261113 133.302204 
M 112.374014 131.996375 
L 112.74498 134.193994 
L 113.115947 134.723274 
L 113.486914 138.939363 
L 113.857881 137.676731 
M 115.341748 140.786879 
L 115.712715 142.1138 
L 116.083682 137.810834 
L 116.454649 138.011458 
M 117.567549 141.643179 
L 117.938516 140.305981 
L 118.309483 139.9833 
L 118.68045 135.457085 
L 119.051416 128.845979 
M 120.164317 128.845979 
L 120.535284 130.552082 
L 120.90625 134.688122 
L 121.648184 129.11422 
M 122.761085 125.057021 
L 123.132051 131.185497 
L 123.503018 126.859101 
L 123.873985 128.845979 
L 124.244952 124.363897 
M 125.357852 119.838057 
L 125.728819 125.582449 
L 126.099786 121.90397 
L 126.470753 120.446771 
M 127.95462 128.383655 
L 128.325587 127.213944 
L 128.696554 127.292549 
L 129.067521 128.845979 
L 129.438487 126.183815 
M 130.551388 124.813173 
L 130.922355 129.267026 
L 131.293321 130.701661 
L 131.664288 130.999821 
L 132.035255 126.779998 
M 133.148156 129.685468 
L 133.519122 129.761271 
L 133.890089 126.183815 
L 134.261056 128.769143 
L 134.632023 126.383115 
M 135.744923 127.645164 
L 136.11589 130.214302 
L 136.486857 134.79352 
L 136.857824 135.941701 
L 137.228791 136.422692 
M 138.341691 135.352763 
L 139.083625 135.976178 
L 139.454592 139.234735 
L 139.825558 140.498788 
M 140.938459 139.496124 
L 141.309426 139.169217 
L 141.680392 136.968009 
L 142.051359 136.627731 
L 142.422326 139.821331 
M 143.535227 139.821331 
L 143.906193 141.359065 
L 144.27716 140.530864 
L 144.648127 138.510248 
L 145.019094 137.23893 
M 146.131994 137.508703 
L 146.502961 141.863251 
L 146.873928 142.766646 
L 147.244895 139.756425 
L 147.615862 139.9833 
M 148.728762 139.62641 
L 149.099729 137.542344 
L 149.470696 139.070811 
L 149.841663 142.238691 
L 150.212629 139.365566 
M 151.696497 142.238691 
L 152.43843 146.975954 
L 152.809397 146.017093 
M 153.922298 143.778597 
L 154.293264 141.517068 
L 154.664231 142.828459 
L 155.035198 145.398723 
L 155.406165 142.766646 
M 156.519065 144.413854 
L 156.890032 147.549567 
L 157.260999 146.802771 
L 157.631966 150.498622 
L 158.002933 151.99738 
M 159.115833 151.573199 
L 159.4868 151.038454 
L 159.857767 149.098524 
L 160.228734 150.33567 
L 160.5997 148.624153 
M 161.712601 149.486276 
L 162.083568 147.720561 
L 162.454534 148.004443 
L 162.825501 145.635052 
L 163.196468 144.353642 
M 164.309369 144.02139 
L 164.680335 144.413854 
L 165.051302 143.412567 
L 165.422269 143.839387 
M 166.906136 142.518765 
L 167.64807 139.46351 
L 168.019037 138.708665 
L 168.390004 142.828459 
M 169.502904 140.946352 
L 169.873871 139.788886 
L 170.615805 145.782282 
L 170.986771 147.033568 
M 172.099672 146.629078 
L 172.470639 147.492458 
L 172.841605 148.931543 
L 173.212572 145.131728 
L 173.583539 147.891056 
M 174.69644 145.191164 
L 175.067406 145.958478 
L 175.438373 146.075651 
L 175.80934 144.02139 
L 176.180307 143.075084 
M 177.293207 143.808999 
L 178.035141 146.075651 
L 178.406108 142.673809 
L 178.777075 143.136585 
M 179.889975 144.714015 
L 180.260942 142.145046 
L 180.631909 143.044311 
L 181.373842 140.04797 
M 182.486743 138.873536 
L 182.85771 139.723946 
L 183.228676 138.311205 
L 183.97061 140.530864 
M 185.083511 138.044833 
L 185.454477 137.810834 
L 185.825444 137.407672 
L 186.567378 138.774665 
M 188.051245 136.525294 
L 188.793179 132.905938 
L 188.793179 132.905938 
" clip-path="url(#p04657a706e)" style="fill: none; stroke: #000000; stroke-linecap: square"/>
   </g>
   <g id="patch_3">
    <path d="M 39.85 168.671221 
L 39.85 26.88 
" style="fill: none; stroke: #000000; stroke-width: 0.8; stroke-linejoin: miter; stroke-linecap: square"/>
   </g>
   <g id="patch_4">
    <path d="M 337.736358 168.671221 
L 337.736358 26.88 
" style="fill: none; stroke: #000000; stroke-width: 0.8; stroke-linejoin: miter; stroke-linecap: square"/>
   </g>
   <g id="patch_5">
    <path d="M 39.85 168.671221 
L 337.736358 168.671221 
" style="fill: none; stroke: #000000; stroke-width: 0.8; stroke-linejoin: miter; stroke-linecap: square"/>
   </g>
   <g id="patch_6">
    <path d="M 39.85 26.88 
L 337.736358 26.88 
" style="fill: none; stroke: #000000; stroke-width: 0.8; stroke-linejoin: miter; stroke-linecap: square"/>
   </g>
   <g id="text_16">
    <!-- 10y Treasury -->
    <g transform="translate(150.274116 20.88) scale(0.12 -0.12)">
     <defs>
      <path id="DejaVuSans-79" d="M 2059 -325 
Q 1816 -950 1584 -1140 
Q 1353 -1331 966 -1331 
L 506 -1331 
L 506 -850 
L 844 -850 
Q 1081 -850 1212 -737 
Q 1344 -625 1503 -206 
L 1606 56 
L 191 3500 
L 800 3500 
L 1894 763 
L 2988 3500 
L 3597 3500 
L 2059 -325 
z
" transform="scale(0.015625)"/>
      <path id="DejaVuSans-20" transform="scale(0.015625)"/>
      <path id="DejaVuSans-54" d="M -19 4666 
L 3928 4666 
L 3928 4134 
L 2272 4134 
L 2272 0 
L 1638 0 
L 1638 4134 
L -19 4134 
L -19 4666 
z
" transform="scale(0.015625)"/>
      <path id="DejaVuSans-72" d="M 2631 2963 
Q 2534 3019 2420 3045 
Q 2306 3072 2169 3072 
Q 1681 3072 1420 2755 
Q 1159 2438 1159 1844 
L 1159 0 
L 581 0 
L 581 3500 
L 1159 3500 
L 1159 2956 
Q 1341 3275 1631 3429 
Q 1922 3584 2338 3584 
Q 2397 3584 2469 3576 
Q 2541 3569 2628 3553 
L 2631 2963 
z
" transform="scale(0.015625)"/>
      <path id="DejaVuSans-65" d="M 3597 1894 
L 3597 1613 
L 953 1613 
Q 991 1019 1311 708 
Q 1631 397 2203 397 
Q 2534 397 2845 478 
Q 3156 559 3463 722 
L 3463 178 
Q 3153 47 2828 -22 
Q 2503 -91 2169 -91 
Q 1331 -91 842 396 
Q 353 884 353 1716 
Q 353 2575 817 3079 
Q 1281 3584 2069 3584 
Q 2775 3584 3186 3129 
Q 3597 2675 3597 1894 
z
M 3022 2063 
Q 3016 2534 2758 2815 
Q 2500 3097 2075 3097 
Q 1594 3097 1305 2825 
Q 1016 2553 972 2059 
L 3022 2063 
z
" transform="scale(0.015625)"/>
      <path id="DejaVuSans-61" d="M 2194 1759 
Q 1497 1759 1228 1600 
Q 959 1441 959 1056 
Q 959 750 1161 570 
Q 1363 391 1709 391 
Q 2188 391 2477 730 
Q 2766 1069 2766 1631 
L 2766 1759 
L 2194 1759 
z
M 3341 1997 
L 3341 0 
L 2766 0 
L 2766 531 
Q 2569 213 2275 61 
Q 1981 -91 1556 -91 
Q 1019 -91 701 211 
Q 384 513 384 1019 
Q 384 1609 779 1909 
Q 1175 2209 1959 2209 
L 2766 2209 
L 2766 2266 
Q 2766 2663 2505 2880 
Q 2244 3097 1772 3097 
Q 1472 3097 1187 3025 
Q 903 2953 641 2809 
L 641 3341 
Q 956 3463 1253 3523 
Q 1550 3584 1831 3584 
Q 2591 3584 2966 3190 
Q 3341 2797 3341 1997 
z
" transform="scale(0.015625)"/>
      <path id="DejaVuSans-73" d="M 2834 3397 
L 2834 2853 
Q 2591 2978 2328 3040 
Q 2066 3103 1784 3103 
Q 1356 3103 1142 2972 
Q 928 2841 928 2578 
Q 928 2378 1081 2264 
Q 1234 2150 1697 2047 
L 1894 2003 
Q 2506 1872 2764 1633 
Q 3022 1394 3022 966 
Q 3022 478 2636 193 
Q 2250 -91 1575 -91 
Q 1294 -91 989 -36 
Q 684 19 347 128 
L 347 722 
Q 666 556 975 473 
Q 1284 391 1588 391 
Q 1994 391 2212 530 
Q 2431 669 2431 922 
Q 2431 1156 2273 1281 
Q 2116 1406 1581 1522 
L 1381 1569 
Q 847 1681 609 1914 
Q 372 2147 372 2553 
Q 372 3047 722 3315 
Q 1072 3584 1716 3584 
Q 2034 3584 2315 3537 
Q 2597 3491 2834 3397 
z
" transform="scale(0.015625)"/>
      <path id="DejaVuSans-75" d="M 544 1381 
L 544 3500 
L 1119 3500 
L 1119 1403 
Q 1119 906 1312 657 
Q 1506 409 1894 409 
Q 2359 409 2629 706 
Q 2900 1003 2900 1516 
L 2900 3500 
L 3475 3500 
L 3475 0 
L 2900 0 
L 2900 538 
Q 2691 219 2414 64 
Q 2138 -91 1772 -91 
Q 1169 -91 856 284 
Q 544 659 544 1381 
z
M 1991 3584 
L 1991 3584 
z
" transform="scale(0.015625)"/>
     </defs>
     <use xlink:href="#DejaVuSans-31"/>
     <use xlink:href="#DejaVuSans-30" x="63.623047"/>
     <use xlink:href="#DejaVuSans-79" x="127.246094"/>
     <use xlink:href="#DejaVuSans-20" x="186.425781"/>
     <use xlink:href="#DejaVuSans-54" x="218.212891"/>
     <use xlink:href="#DejaVuSans-72" x="264.546875"/>
     <use xlink:href="#DejaVuSans-65" x="303.410156"/>
     <use xlink:href="#DejaVuSans-61" x="364.933594"/>
     <use xlink:href="#DejaVuSans-73" x="426.212891"/>
     <use xlink:href="#DejaVuSans-75" x="478.3125"/>
     <use xlink:href="#DejaVuSans-72" x="541.691406"/>
     <use xlink:href="#DejaVuSans-79" x="582.804688"/>
    </g>
   </g>
  </g>
 </g>
 <defs>
  <clipPath id="p04657a706e">
   <rect x="39.85" y="26.88" width="297.886358" height="141.791221"/>
  </clipPath>
 </defs>
</svg>
