<?xml version="1.0" encoding="utf-8" standalone="no"?>
<!DOCTYPE svg PUBLIC "-//W3C//DTD SVG 1.1//EN"
  "http://www.w3.org/Graphics/SVG/1.1/DTD/svg11.dtd">
<svg xmlns:xlink="http://www.w3.org/1999/xlink" width="360pt" height="216pt" viewBox="0 0 360 216" xmlns="http://www.w3.org/2000/svg" version="1.1">
 <metadata>
  <rdf:RDF xmlns:dc="http://purl.org/dc/elements/1.1/" xmlns:cc="http://creativecommons.org/ns#" xmlns:rdf="http://www.w3.org/1999/02/22-rdf-syntax-ns#">
   <cc:Work>
    <dc:type rdf:resource="http://purl.org/dc/dcmitype/StillImage"/>
    <dc:date>2023-03-24T15:59:35.715571</dc:date>
    <dc:format>image/svg+xml</dc:format>
    <dc:creator>
     <cc:Agent>
      <dc:title>Matplotlib v3.6.3, https://matplotlib.org/</dc:title>
     </cc:Agent>
    </dc:creator>
   </cc:Work>
  </rdf:RDF>
 </metadata>
 <defs>
  <style type="text/css">*{stroke-linejoin: round; stroke-linecap: butt}</style>
 </defs>
 <g id="figure_1">
  <g id="patch_1">
   <path d="M 0 216 
L 360 216 
L 360 0 
L 0 0 
z
" style="fill: #ffffff"/>
  </g>
  <g id="axes_1">
   <g id="patch_2">
    <path d="M 39.85 168.671221 
L 346.421581 168.671221 
L 346.421581 26.88 
L 39.85 26.88 
z
" style="fill: #ffffff"/>
   </g>
   <g id="matplotlib.axis_1">
    <g id="xtick_1">
     <g id="line2d_1">
      <defs>
       <path id="me2ea2caa6c" d="M 0 0 
L 0 3.5 
" style="stroke: #000000; stroke-width: 0.8"/>
      </defs>
      <g>
       <use xlink:href="#me2ea2caa6c" x="53.785072" y="168.671221" style="stroke: #000000; stroke-width: 0.8"/>
      </g>
     </g>
     <g id="text_1">
      <!-- '07-10 -->
      <g transform="translate(44.491037 203.534543) rotate(-45) scale(0.1 -0.1)">
       <defs>
        <path id="DejaVuSans-27" d="M 1147 4666 
L 1147 2931 
L 616 2931 
L 616 4666 
L 1147 4666 
z
" transform="scale(0.015625)"/>
        <path id="DejaVuSans-30" d="M 2034 4250 
Q 1547 4250 1301 3770 
Q 1056 3291 1056 2328 
Q 1056 1369 1301 889 
Q 1547 409 2034 409 
Q 2525 409 2770 889 
Q 3016 1369 3016 2328 
Q 3016 3291 2770 3770 
Q 2525 4250 2034 4250 
z
M 2034 4750 
Q 2819 4750 3233 4129 
Q 3647 3509 3647 2328 
Q 3647 1150 3233 529 
Q 2819 -91 2034 -91 
Q 1250 -91 836 529 
Q 422 1150 422 2328 
Q 422 3509 836 4129 
Q 1250 4750 2034 4750 
z
" transform="scale(0.015625)"/>
        <path id="DejaVuSans-37" d="M 525 4666 
L 3525 4666 
L 3525 4397 
L 1831 0 
L 1172 0 
L 2766 4134 
L 525 4134 
L 525 4666 
z
" transform="scale(0.015625)"/>
        <path id="DejaVuSans-2d" d="M 313 2009 
L 1997 2009 
L 1997 1497 
L 313 1497 
L 313 2009 
z
" transform="scale(0.015625)"/>
        <path id="DejaVuSans-31" d="M 794 531 
L 1825 531 
L 1825 4091 
L 703 3866 
L 703 4441 
L 1819 4666 
L 2450 4666 
L 2450 531 
L 3481 531 
L 3481 0 
L 794 0 
L 794 531 
z
" transform="scale(0.015625)"/>
       </defs>
       <use xlink:href="#DejaVuSans-27"/>
       <use xlink:href="#DejaVuSans-30" x="27.490234"/>
       <use xlink:href="#DejaVuSans-37" x="91.113281"/>
       <use xlink:href="#DejaVuSans-2d" x="154.736328"/>
       <use xlink:href="#DejaVuSans-31" x="190.820312"/>
       <use xlink:href="#DejaVuSans-30" x="254.443359"/>
      </g>
     </g>
    </g>
    <g id="xtick_2">
     <g id="line2d_2">
      <g>
       <use xlink:href="#me2ea2caa6c" x="88.95727" y="168.671221" style="stroke: #000000; stroke-width: 0.8"/>
      </g>
     </g>
     <g id="text_2">
      <!-- '08-01 -->
      <g transform="translate(79.663235 203.534543) rotate(-45) scale(0.1 -0.1)">
       <defs>
        <path id="DejaVuSans-38" d="M 2034 2216 
Q 1584 2216 1326 1975 
Q 1069 1734 1069 1313 
Q 1069 891 1326 650 
Q 1584 409 2034 409 
Q 2484 409 2743 651 
Q 3003 894 3003 1313 
Q 3003 1734 2745 1975 
Q 2488 2216 2034 2216 
z
M 1403 2484 
Q 997 2584 770 2862 
Q 544 3141 544 3541 
Q 544 4100 942 4425 
Q 1341 4750 2034 4750 
Q 2731 4750 3128 4425 
Q 3525 4100 3525 3541 
Q 3525 3141 3298 2862 
Q 3072 2584 2669 2484 
Q 3125 2378 3379 2068 
Q 3634 1759 3634 1313 
Q 3634 634 3220 271 
Q 2806 -91 2034 -91 
Q 1263 -91 848 271 
Q 434 634 434 1313 
Q 434 1759 690 2068 
Q 947 2378 1403 2484 
z
M 1172 3481 
Q 1172 3119 1398 2916 
Q 1625 2713 2034 2713 
Q 2441 2713 2670 2916 
Q 2900 3119 2900 3481 
Q 2900 3844 2670 4047 
Q 2441 4250 2034 4250 
Q 1625 4250 1398 4047 
Q 1172 3844 1172 3481 
z
" transform="scale(0.015625)"/>
       </defs>
       <use xlink:href="#DejaVuSans-27"/>
       <use xlink:href="#DejaVuSans-30" x="27.490234"/>
       <use xlink:href="#DejaVuSans-38" x="91.113281"/>
       <use xlink:href="#DejaVuSans-2d" x="154.736328"/>
       <use xlink:href="#DejaVuSans-30" x="190.820312"/>
       <use xlink:href="#DejaVuSans-31" x="254.443359"/>
      </g>
     </g>
    </g>
    <g id="xtick_3">
     <g id="line2d_3">
      <g>
       <use xlink:href="#me2ea2caa6c" x="123.747161" y="168.671221" style="stroke: #000000; stroke-width: 0.8"/>
      </g>
     </g>
     <g id="text_3">
      <!-- '08-04 -->
      <g transform="translate(114.453126 203.534543) rotate(-45) scale(0.1 -0.1)">
       <defs>
        <path id="DejaVuSans-34" d="M 2419 4116 
L 825 1625 
L 2419 1625 
L 2419 4116 
z
M 2253 4666 
L 3047 4666 
L 3047 1625 
L 3713 1625 
L 3713 1100 
L 3047 1100 
L 3047 0 
L 2419 0 
L 2419 1100 
L 313 1100 
L 313 1709 
L 2253 4666 
z
" transform="scale(0.015625)"/>
       </defs>
       <use xlink:href="#DejaVuSans-27"/>
       <use xlink:href="#DejaVuSans-30" x="27.490234"/>
       <use xlink:href="#DejaVuSans-38" x="91.113281"/>
       <use xlink:href="#DejaVuSans-2d" x="154.736328"/>
       <use xlink:href="#DejaVuSans-30" x="190.820312"/>
       <use xlink:href="#DejaVuSans-34" x="254.443359"/>
      </g>
     </g>
    </g>
    <g id="xtick_4">
     <g id="line2d_4">
      <g>
       <use xlink:href="#me2ea2caa6c" x="158.537052" y="168.671221" style="stroke: #000000; stroke-width: 0.8"/>
      </g>
     </g>
     <g id="text_4">
      <!-- '08-07 -->
      <g transform="translate(149.243018 203.534543) rotate(-45) scale(0.1 -0.1)">
       <use xlink:href="#DejaVuSans-27"/>
       <use xlink:href="#DejaVuSans-30" x="27.490234"/>
       <use xlink:href="#DejaVuSans-38" x="91.113281"/>
       <use xlink:href="#DejaVuSans-2d" x="154.736328"/>
       <use xlink:href="#DejaVuSans-30" x="190.820312"/>
       <use xlink:href="#DejaVuSans-37" x="254.443359"/>
      </g>
     </g>
    </g>
    <g id="xtick_5">
     <g id="line2d_5">
      <g>
       <use xlink:href="#me2ea2caa6c" x="193.70925" y="168.671221" style="stroke: #000000; stroke-width: 0.8"/>
      </g>
     </g>
     <g id="text_5">
      <!-- '08-10 -->
      <g transform="translate(184.415216 203.534543) rotate(-45) scale(0.1 -0.1)">
       <use xlink:href="#DejaVuSans-27"/>
       <use xlink:href="#DejaVuSans-30" x="27.490234"/>
       <use xlink:href="#DejaVuSans-38" x="91.113281"/>
       <use xlink:href="#DejaVuSans-2d" x="154.736328"/>
       <use xlink:href="#DejaVuSans-31" x="190.820312"/>
       <use xlink:href="#DejaVuSans-30" x="254.443359"/>
      </g>
     </g>
    </g>
    <g id="xtick_6">
     <g id="line2d_6">
      <g>
       <use xlink:href="#me2ea2caa6c" x="228.881448" y="168.671221" style="stroke: #000000; stroke-width: 0.8"/>
      </g>
     </g>
     <g id="text_6">
      <!-- '09-01 -->
      <g transform="translate(219.587413 203.534543) rotate(-45) scale(0.1 -0.1)">
       <defs>
        <path id="DejaVuSans-39" d="M 703 97 
L 703 672 
Q 941 559 1184 500 
Q 1428 441 1663 441 
Q 2288 441 2617 861 
Q 2947 1281 2994 2138 
Q 2813 1869 2534 1725 
Q 2256 1581 1919 1581 
Q 1219 1581 811 2004 
Q 403 2428 403 3163 
Q 403 3881 828 4315 
Q 1253 4750 1959 4750 
Q 2769 4750 3195 4129 
Q 3622 3509 3622 2328 
Q 3622 1225 3098 567 
Q 2575 -91 1691 -91 
Q 1453 -91 1209 -44 
Q 966 3 703 97 
z
M 1959 2075 
Q 2384 2075 2632 2365 
Q 2881 2656 2881 3163 
Q 2881 3666 2632 3958 
Q 2384 4250 1959 4250 
Q 1534 4250 1286 3958 
Q 1038 3666 1038 3163 
Q 1038 2656 1286 2365 
Q 1534 2075 1959 2075 
z
" transform="scale(0.015625)"/>
       </defs>
       <use xlink:href="#DejaVuSans-27"/>
       <use xlink:href="#DejaVuSans-30" x="27.490234"/>
       <use xlink:href="#DejaVuSans-39" x="91.113281"/>
       <use xlink:href="#DejaVuSans-2d" x="154.736328"/>
       <use xlink:href="#DejaVuSans-30" x="190.820312"/>
       <use xlink:href="#DejaVuSans-31" x="254.443359"/>
      </g>
     </g>
    </g>
    <g id="xtick_7">
     <g id="line2d_7">
      <g>
       <use xlink:href="#me2ea2caa6c" x="263.289033" y="168.671221" style="stroke: #000000; stroke-width: 0.8"/>
      </g>
     </g>
     <g id="text_7">
      <!-- '09-04 -->
      <g transform="translate(253.994998 203.534543) rotate(-45) scale(0.1 -0.1)">
       <use xlink:href="#DejaVuSans-27"/>
       <use xlink:href="#DejaVuSans-30" x="27.490234"/>
       <use xlink:href="#DejaVuSans-39" x="91.113281"/>
       <use xlink:href="#DejaVuSans-2d" x="154.736328"/>
       <use xlink:href="#DejaVuSans-30" x="190.820312"/>
       <use xlink:href="#DejaVuSans-34" x="254.443359"/>
      </g>
     </g>
    </g>
    <g id="xtick_8">
     <g id="line2d_8">
      <g>
       <use xlink:href="#me2ea2caa6c" x="298.078924" y="168.671221" style="stroke: #000000; stroke-width: 0.8"/>
      </g>
     </g>
     <g id="text_8">
      <!-- '09-07 -->
      <g transform="translate(288.78489 203.534543) rotate(-45) scale(0.1 -0.1)">
       <use xlink:href="#DejaVuSans-27"/>
       <use xlink:href="#DejaVuSans-30" x="27.490234"/>
       <use xlink:href="#DejaVuSans-39" x="91.113281"/>
       <use xlink:href="#DejaVuSans-2d" x="154.736328"/>
       <use xlink:href="#DejaVuSans-30" x="190.820312"/>
       <use xlink:href="#DejaVuSans-37" x="254.443359"/>
      </g>
     </g>
    </g>
    <g id="xtick_9">
     <g id="line2d_9">
      <g>
       <use xlink:href="#me2ea2caa6c" x="333.251122" y="168.671221" style="stroke: #000000; stroke-width: 0.8"/>
      </g>
     </g>
     <g id="text_9">
      <!-- '09-10 -->
      <g transform="translate(323.957088 203.534543) rotate(-45) scale(0.1 -0.1)">
       <use xlink:href="#DejaVuSans-27"/>
       <use xlink:href="#DejaVuSans-30" x="27.490234"/>
       <use xlink:href="#DejaVuSans-39" x="91.113281"/>
       <use xlink:href="#DejaVuSans-2d" x="154.736328"/>
       <use xlink:href="#DejaVuSans-31" x="190.820312"/>
       <use xlink:href="#DejaVuSans-30" x="254.443359"/>
      </g>
     </g>
    </g>
   </g>
   <g id="matplotlib.axis_2">
    <g id="ytick_1">
     <g id="line2d_10">
      <defs>
       <path id="m000e21704d" d="M 0 0 
L -3.5 0 
" style="stroke: #000000; stroke-width: 0.8"/>
      </defs>
      <g>
       <use xlink:href="#m000e21704d" x="39.85" y="168.630888" style="stroke: #000000; stroke-width: 0.8"/>
      </g>
     </g>
     <g id="text_10">
      <!-- 0.20 -->
      <g transform="translate(10.584375 172.430107) scale(0.1 -0.1)">
       <defs>
        <path id="DejaVuSans-2e" d="M 684 794 
L 1344 794 
L 1344 0 
L 684 0 
L 684 794 
z
" transform="scale(0.015625)"/>
        <path id="DejaVuSans-32" d="M 1228 531 
L 3431 531 
L 3431 0 
L 469 0 
L 469 531 
Q 828 903 1448 1529 
Q 2069 2156 2228 2338 
Q 2531 2678 2651 2914 
Q 2772 3150 2772 3378 
Q 2772 3750 2511 3984 
Q 2250 4219 1831 4219 
Q 1534 4219 1204 4116 
Q 875 4013 500 3803 
L 500 4441 
Q 881 4594 1212 4672 
Q 1544 4750 1819 4750 
Q 2544 4750 2975 4387 
Q 3406 4025 3406 3419 
Q 3406 3131 3298 2873 
Q 3191 2616 2906 2266 
Q 2828 2175 2409 1742 
Q 1991 1309 1228 531 
z
" transform="scale(0.015625)"/>
       </defs>
       <use xlink:href="#DejaVuSans-30"/>
       <use xlink:href="#DejaVuSans-2e" x="63.623047"/>
       <use xlink:href="#DejaVuSans-32" x="95.410156"/>
       <use xlink:href="#DejaVuSans-30" x="159.033203"/>
      </g>
     </g>
    </g>
    <g id="ytick_2">
     <g id="line2d_11">
      <g>
       <use xlink:href="#m000e21704d" x="39.85" y="144.654103" style="stroke: #000000; stroke-width: 0.8"/>
      </g>
     </g>
     <g id="text_11">
      <!-- 0.25 -->
      <g transform="translate(10.584375 148.453321) scale(0.1 -0.1)">
       <defs>
        <path id="DejaVuSans-35" d="M 691 4666 
L 3169 4666 
L 3169 4134 
L 1269 4134 
L 1269 2991 
Q 1406 3038 1543 3061 
Q 1681 3084 1819 3084 
Q 2600 3084 3056 2656 
Q 3513 2228 3513 1497 
Q 3513 744 3044 326 
Q 2575 -91 1722 -91 
Q 1428 -91 1123 -41 
Q 819 9 494 109 
L 494 744 
Q 775 591 1075 516 
Q 1375 441 1709 441 
Q 2250 441 2565 725 
Q 2881 1009 2881 1497 
Q 2881 1984 2565 2268 
Q 2250 2553 1709 2553 
Q 1456 2553 1204 2497 
Q 953 2441 691 2322 
L 691 4666 
z
" transform="scale(0.015625)"/>
       </defs>
       <use xlink:href="#DejaVuSans-30"/>
       <use xlink:href="#DejaVuSans-2e" x="63.623047"/>
       <use xlink:href="#DejaVuSans-32" x="95.410156"/>
       <use xlink:href="#DejaVuSans-35" x="159.033203"/>
      </g>
     </g>
    </g>
    <g id="ytick_3">
     <g id="line2d_12">
      <g>
       <use xlink:href="#m000e21704d" x="39.85" y="120.677317" style="stroke: #000000; stroke-width: 0.8"/>
      </g>
     </g>
     <g id="text_12">
      <!-- 0.30 -->
      <g transform="translate(10.584375 124.476536) scale(0.1 -0.1)">
       <defs>
        <path id="DejaVuSans-33" d="M 2597 2516 
Q 3050 2419 3304 2112 
Q 3559 1806 3559 1356 
Q 3559 666 3084 287 
Q 2609 -91 1734 -91 
Q 1441 -91 1130 -33 
Q 819 25 488 141 
L 488 750 
Q 750 597 1062 519 
Q 1375 441 1716 441 
Q 2309 441 2620 675 
Q 2931 909 2931 1356 
Q 2931 1769 2642 2001 
Q 2353 2234 1838 2234 
L 1294 2234 
L 1294 2753 
L 1863 2753 
Q 2328 2753 2575 2939 
Q 2822 3125 2822 3475 
Q 2822 3834 2567 4026 
Q 2313 4219 1838 4219 
Q 1578 4219 1281 4162 
Q 984 4106 628 3988 
L 628 4550 
Q 988 4650 1302 4700 
Q 1616 4750 1894 4750 
Q 2613 4750 3031 4423 
Q 3450 4097 3450 3541 
Q 3450 3153 3228 2886 
Q 3006 2619 2597 2516 
z
" transform="scale(0.015625)"/>
       </defs>
       <use xlink:href="#DejaVuSans-30"/>
       <use xlink:href="#DejaVuSans-2e" x="63.623047"/>
       <use xlink:href="#DejaVuSans-33" x="95.410156"/>
       <use xlink:href="#DejaVuSans-30" x="159.033203"/>
      </g>
     </g>
    </g>
    <g id="ytick_4">
     <g id="line2d_13">
      <g>
       <use xlink:href="#m000e21704d" x="39.85" y="96.700532" style="stroke: #000000; stroke-width: 0.8"/>
      </g>
     </g>
     <g id="text_13">
      <!-- 0.35 -->
      <g transform="translate(10.584375 100.49975) scale(0.1 -0.1)">
       <use xlink:href="#DejaVuSans-30"/>
       <use xlink:href="#DejaVuSans-2e" x="63.623047"/>
       <use xlink:href="#DejaVuSans-33" x="95.410156"/>
       <use xlink:href="#DejaVuSans-35" x="159.033203"/>
      </g>
     </g>
    </g>
    <g id="ytick_5">
     <g id="line2d_14">
      <g>
       <use xlink:href="#m000e21704d" x="39.85" y="72.723746" style="stroke: #000000; stroke-width: 0.8"/>
      </g>
     </g>
     <g id="text_14">
      <!-- 0.40 -->
      <g transform="translate(10.584375 76.522965) scale(0.1 -0.1)">
       <use xlink:href="#DejaVuSans-30"/>
       <use xlink:href="#DejaVuSans-2e" x="63.623047"/>
       <use xlink:href="#DejaVuSans-34" x="95.410156"/>
       <use xlink:href="#DejaVuSans-30" x="159.033203"/>
      </g>
     </g>
    </g>
    <g id="ytick_6">
     <g id="line2d_15">
      <g>
       <use xlink:href="#m000e21704d" x="39.85" y="48.746961" style="stroke: #000000; stroke-width: 0.8"/>
      </g>
     </g>
     <g id="text_15">
      <!-- 0.45 -->
      <g transform="translate(10.584375 52.54618) scale(0.1 -0.1)">
       <use xlink:href="#DejaVuSans-30"/>
       <use xlink:href="#DejaVuSans-2e" x="63.623047"/>
       <use xlink:href="#DejaVuSans-34" x="95.410156"/>
       <use xlink:href="#DejaVuSans-35" x="159.033203"/>
      </g>
     </g>
    </g>
   </g>
   <g id="line2d_16">
    <path d="M 192.944637 132.507273 
L 193.326944 139.234735 
L 193.70925 137.272714 
L 194.091557 133.014248 
L 194.473863 132.942061 
M 195.620783 124.568471 
L 196.003089 127.7623 
L 196.385396 135.457085 
L 196.767702 139.46351 
L 197.150009 140.338157 
M 198.296928 140.338157 
L 198.679235 145.339494 
L 199.061541 144.982879 
L 199.443848 142.70477 
L 199.826154 142.766646 
M 200.973074 141.137178 
L 201.35538 135.038784 
L 202.119993 128.845979 
L 202.5023 134.828614 
M 203.649219 135.941701 
L 204.031526 139.005122 
L 205.178445 143.748179 
M 206.325365 141.706137 
L 206.707671 137.171308 
L 207.089978 134.723274 
L 207.472284 135.178518 
L 207.854591 137.676731 
M 209.00151 137.001937 
L 209.383817 136.832115 
L 209.766123 133.69609 
L 210.14843 138.939363 
L 210.530736 136.661841 
M 211.677656 134.370899 
L 212.442269 123.123784 
L 212.824575 112.013949 
L 213.206882 113.121639 
M 214.353801 120.964464 
L 214.736108 109.448861 
L 215.118414 104.746058 
L 215.883027 102.368362 
M 217.029947 88.173297 
L 217.412253 86.470555 
L 217.79456 85.339334 
L 218.176866 77.94826 
L 218.559173 84.057899 
M 219.706092 89.140916 
L 220.088399 84.869349 
L 220.470705 85.873459 
L 220.853012 83.444484 
L 221.235318 79.317594 
M 222.382238 75.222709 
L 223.529157 33.325055 
L 223.911464 39.509541 
M 225.058383 40.560585 
L 225.822996 44.466571 
L 226.587609 40.141348 
M 227.734529 35.751909 
L 228.116835 34.76529 
L 228.499142 50.84119 
L 229.263755 66.054707 
M 230.410674 71.798597 
L 230.792981 73.106609 
L 231.175287 72.262285 
L 231.9399 65.312559 
M 233.08682 56.856909 
L 233.469126 55.77194 
L 233.851433 47.847696 
L 234.233739 46.666286 
L 234.616046 56.406212 
M 236.145272 60.04519 
L 236.527578 74.698082 
L 236.909885 79.674611 
L 237.292191 81.648743 
M 238.439111 83.101893 
L 238.821417 74.170539 
L 239.58603 94.187867 
L 239.968337 95.924911 
M 241.115256 88.173297 
L 241.497563 95.806253 
L 241.879869 99.975329 
L 242.262176 99.180889 
L 242.644482 103.565989 
M 243.791402 106.118569 
L 244.173708 96.102586 
L 244.556015 90.919019 
L 244.938321 88.690685 
L 245.320628 98.148124 
M 246.849854 84.396892 
L 247.23216 88.755145 
L 247.614467 96.692139 
L 247.996773 91.54535 
M 249.143693 91.856824 
L 249.525999 93.21409 
L 249.908306 101.707568 
L 250.290612 103.511936 
L 250.672919 106.847892 
M 251.819838 100.257211 
L 252.202145 101.319613 
L 252.584451 105.276752 
L 252.966758 94.429584 
L 253.349064 94.970948 
M 254.495984 98.378741 
L 254.87829 103.727933 
L 255.260597 100.088198 
L 255.642903 98.723469 
L 256.02521 98.321146 
M 257.172129 102.038637 
L 257.554436 104.852479 
L 257.936742 75.222709 
L 258.319049 79.888161 
L 258.701355 81.85776 
M 259.848275 84.261448 
L 260.230581 83.853889 
L 260.612888 91.54535 
L 260.995194 89.076739 
L 261.377501 90.856136 
M 262.52442 87.84838 
L 263.289033 84.125799 
L 263.67134 90.288136 
L 264.053646 99.579066 
M 265.200566 101.375148 
L 265.582872 99.692478 
L 265.965179 96.102586 
L 266.347485 100.650228 
M 267.876711 95.984178 
L 268.259018 92.41466 
L 268.641324 90.730234 
L 269.023631 95.090783 
L 269.405937 100.873965 
M 270.552857 95.865603 
L 271.31747 102.751353 
L 271.699776 100.70622 
L 272.082083 104.479382 
M 273.229002 100.369694 
L 273.993615 109.649235 
L 274.375922 111.037483 
L 274.758228 113.455576 
M 275.905148 112.642018 
L 276.287454 112.642018 
L 276.669761 112.401066 
L 277.052067 119.003672 
L 277.434374 118.915282 
M 278.581293 113.740637 
L 278.9636 113.503161 
L 279.345906 110.098188 
L 279.728213 110.197602 
L 280.110519 110.988331 
M 281.257439 115.196482 
L 281.639745 116.670096 
L 282.022052 114.776722 
L 282.404358 121.521117 
L 282.786665 125.461548 
M 284.315891 127.253258 
L 284.698197 134.758406 
L 285.080504 133.945517 
L 285.46281 126.143886 
M 286.60973 135.457085 
L 286.992036 132.942061 
L 287.374343 129.495589 
L 288.138956 140.370316 
M 289.285875 141.232371 
L 289.668182 140.241579 
L 290.050488 142.70477 
L 290.815101 137.944654 
M 291.962021 135.387556 
L 292.726633 133.050311 
L 293.10894 139.46351 
L 293.491246 137.978064 
M 294.638166 134.688122 
L 295.020472 132.79745 
L 295.402779 134.406223 
L 295.785085 129.305173 
L 296.167392 127.7623 
M 297.314311 127.213944 
L 297.696618 128.422302 
L 298.078924 129.228857 
L 298.461231 127.331818 
M 299.990457 127.7623 
L 300.372763 125.943894 
L 300.75507 118.738179 
L 301.137376 124.035332 
L 301.519683 119.003672 
M 302.666602 121.221918 
L 303.048909 125.421201 
L 303.431215 131.185497 
L 303.813522 129.72338 
L 304.195828 133.194368 
M 305.342748 130.776326 
L 305.725054 126.621519 
L 306.107361 129.609581 
L 306.489667 135.248273 
L 306.871974 133.874349 
M 308.018893 135.387556 
L 309.165813 132.833633 
L 309.548119 127.566962 
M 310.695039 132.761248 
L 311.077345 134.193994 
L 311.459652 137.13747 
L 311.841958 136.525294 
L 312.224265 140.112573 
M 313.371184 137.37396 
L 313.753491 134.688122 
L 314.135797 134.968803 
L 314.518104 130.999821 
L 314.90041 129.761271 
M 316.04733 127.174607 
L 316.429636 128.538112 
L 316.811943 126.063959 
L 317.194249 124.935203 
L 317.576556 129.685468 
M 318.723475 127.292549 
L 319.105782 125.542172 
L 319.488088 125.057021 
L 319.870395 126.02396 
L 320.252701 125.582449 
M 321.399621 123.539586 
L 321.781927 122.453375 
L 322.164234 119.003672 
L 322.54654 120.446771 
L 322.928847 125.219114 
M 324.458073 126.303464 
L 324.840379 126.700804 
L 325.222686 121.050385 
L 325.604992 121.093307 
M 326.751912 123.746571 
L 327.134218 125.622703 
L 327.516525 126.383115 
L 327.898831 123.415102 
L 328.281138 126.50242 
M 329.428057 127.017035 
L 330.19267 124.240865 
L 330.574977 122.705522 
L 330.957283 120.490055 
M 332.104203 119.312194 
L 332.486509 118.871047 
L 332.486509 118.871047 
" clip-path="url(#pa73f8d3781)" style="fill: none; stroke: #d3d3d3; stroke-linecap: square"/>
   </g>
   <g id="line2d_17">
    <path d="M 53.785072 159.30746 
L 54.167378 158.656884 
L 54.549685 158.983174 
L 54.931991 158.516427 
L 55.314298 161.189817 
M 56.461217 161.145251 
L 56.843524 161.434244 
L 57.22583 161.345495 
L 57.608137 161.611284 
L 57.990443 162.226165 
M 59.137363 161.919646 
L 59.519669 161.52284 
L 59.901976 159.052832 
L 60.284282 158.045534 
L 60.666589 155.577405 
M 61.813508 155.378979 
L 62.195815 155.676348 
L 62.578121 153.816324 
L 62.960428 154.350597 
L 63.342734 155.279495 
M 64.489654 155.129928 
L 64.87196 155.129928 
L 65.254267 157.379212 
L 65.636573 154.577996 
L 66.01888 152.784194 
M 67.165799 153.482979 
L 67.548106 154.477045 
L 67.930412 153.892965 
L 68.695025 151.038454 
M 69.841945 150.66111 
L 70.224251 151.865166 
L 70.606558 152.208278 
L 70.988864 149.237306 
L 71.371171 148.987257 
M 72.51809 146.975954 
L 73.282703 145.369116 
L 74.047316 145.012679 
M 75.194236 139.886169 
L 75.958849 145.398723 
L 76.341155 142.828459 
L 76.723462 143.808999 
M 77.870381 141.422315 
L 78.252688 141.232371 
L 78.634994 141.925985 
L 79.017301 144.594131 
L 79.399607 148.145867 
M 80.546527 148.959406 
L 80.928833 144.353642 
L 82.075753 151.226189 
M 83.222672 150.172251 
L 83.987285 146.715988 
L 84.369592 145.428316 
L 84.751898 149.486276 
M 85.898818 150.688146 
L 86.663431 152.523148 
L 87.045737 150.33567 
L 87.428044 147.463882 
M 88.574963 145.693988 
L 89.339576 141.611675 
L 89.721883 141.611675 
L 90.104189 140.112573 
M 91.251109 139.62641 
L 91.633415 139.658939 
L 92.015722 138.044833 
L 92.398028 141.168925 
L 92.780335 138.675639 
M 93.927254 138.111531 
L 94.309561 134.968803 
L 94.691867 135.352763 
L 95.074174 132.79745 
L 95.45648 133.086355 
M 96.985706 126.898619 
L 97.368013 124.568471 
L 97.750319 132.79745 
L 98.132626 130.739004 
M 99.279545 130.813627 
L 100.044158 136.079495 
L 100.426465 132.761248 
L 100.808771 131.333666 
M 101.955691 132.905938 
L 102.337997 130.850907 
L 102.720304 131.849677 
L 103.10261 136.182647 
L 103.484917 133.302204 
M 104.631836 131.996375 
L 105.014143 134.193994 
L 105.396449 134.723274 
L 105.778756 138.939363 
L 106.161062 137.676731 
M 107.690288 140.786879 
L 108.072595 142.1138 
L 108.454901 137.810834 
L 108.837208 138.011458 
M 109.984127 141.643179 
L 110.366434 140.305981 
L 110.74874 139.9833 
L 111.131047 135.457085 
L 111.513353 128.845979 
M 112.660273 128.845979 
L 113.042579 130.552082 
L 113.424886 134.688122 
L 114.189499 129.11422 
M 115.336418 125.057021 
L 115.718725 131.185497 
L 116.101031 126.859101 
L 116.483338 128.845979 
L 116.865644 124.363897 
M 118.012564 119.838057 
L 118.39487 125.582449 
L 118.777177 121.90397 
L 119.159483 120.446771 
M 120.688709 128.383655 
L 121.071016 127.213944 
L 121.453322 127.292549 
L 121.835629 128.845979 
L 122.217935 126.183815 
M 123.364855 124.813173 
L 123.747161 129.267026 
L 124.129468 130.701661 
L 124.511774 130.999821 
L 124.894081 126.779998 
M 126.041 129.685468 
L 126.423307 129.761271 
L 126.805613 126.183815 
L 127.18792 128.769143 
L 127.570226 126.383115 
M 128.717146 127.645164 
L 129.099452 130.214302 
L 129.481759 134.79352 
L 129.864065 135.941701 
L 130.246372 136.422692 
M 131.393291 135.352763 
L 132.157904 135.976178 
L 132.540211 139.234735 
L 132.922517 140.498788 
M 134.069437 139.496124 
L 134.451743 139.169217 
L 134.83405 136.968009 
L 135.216356 136.627731 
L 135.598663 139.821331 
M 136.745582 139.821331 
L 137.127889 141.359065 
L 137.510195 140.530864 
L 137.892502 138.510248 
L 138.274808 137.23893 
M 139.421728 137.508703 
L 139.804034 141.863251 
L 140.186341 142.766646 
L 140.568647 139.756425 
L 140.950954 139.9833 
M 142.097873 139.62641 
L 142.48018 137.542344 
L 142.862486 139.070811 
L 143.244793 142.238691 
L 143.627099 139.365566 
M 145.156325 142.238691 
L 145.920938 146.975954 
L 146.303245 146.017093 
M 147.450164 143.778597 
L 147.832471 141.517068 
L 148.214777 142.828459 
L 148.597084 145.398723 
L 148.97939 142.766646 
M 150.12631 144.413854 
L 150.508616 147.549567 
L 150.890923 146.802771 
L 151.273229 150.498622 
L 151.655536 151.99738 
M 152.802455 151.573199 
L 153.184762 151.038454 
L 153.567068 149.098524 
L 153.949375 150.33567 
L 154.331681 148.624153 
M 155.478601 149.486276 
L 155.860907 147.720561 
L 156.243213 148.004443 
L 156.62552 145.635052 
L 157.007826 144.353642 
M 158.154746 144.02139 
L 158.537052 144.413854 
L 158.919359 143.412567 
L 159.301665 143.839387 
M 160.830891 142.518765 
L 161.595504 139.46351 
L 161.977811 138.708665 
L 162.360117 142.828459 
M 163.507037 140.946352 
L 163.889343 139.788886 
L 164.653956 145.782282 
L 165.036263 147.033568 
M 166.183182 146.629078 
L 166.565489 147.492458 
L 166.947795 148.931543 
L 167.330102 145.131728 
L 167.712408 147.891056 
M 168.859328 145.191164 
L 169.241634 145.958478 
L 169.623941 146.075651 
L 170.006247 144.02139 
L 170.388554 143.075084 
M 171.535473 143.808999 
L 172.300086 146.075651 
L 172.682393 142.673809 
L 173.064699 143.136585 
M 174.211619 144.714015 
L 174.593925 142.145046 
L 174.976232 143.044311 
L 175.740845 140.04797 
M 176.887764 138.873536 
L 177.270071 139.723946 
L 177.652377 138.311205 
L 178.41699 140.530864 
M 179.56391 138.044833 
L 179.946216 137.810834 
L 180.328523 137.407672 
L 181.093136 138.774665 
M 182.622362 136.525294 
L 183.386975 132.905938 
L 183.769281 133.517344 
M 184.916201 133.69609 
L 185.298507 131.185497 
L 185.680814 132.833633 
L 186.06312 132.142749 
L 186.445427 135.976178 
M 187.592346 126.859101 
L 187.974653 127.174607 
L 188.356959 123.911722 
L 188.739266 125.016439 
L 189.121572 137.306481 
M 190.268492 139.201985 
L 190.650798 139.691451 
L 191.033105 137.37396 
L 191.415411 140.370316 
L 191.797718 139.234735 
M 192.944637 132.507273 
" clip-path="url(#pa73f8d3781)" style="fill: none; stroke: #000000; stroke-linecap: square"/>
   </g>
   <g id="patch_3">
    <path d="M 39.85 168.671221 
L 39.85 26.88 
" style="fill: none; stroke: #000000; stroke-width: 0.8; stroke-linejoin: miter; stroke-linecap: square"/>
   </g>
   <g id="patch_4">
    <path d="M 346.421581 168.671221 
L 346.421581 26.88 
" style="fill: none; stroke: #000000; stroke-width: 0.8; stroke-linejoin: miter; stroke-linecap: square"/>
   </g>
   <g id="patch_5">
    <path d="M 39.85 168.671221 
L 346.421581 168.671221 
" style="fill: none; stroke: #000000; stroke-width: 0.8; stroke-linejoin: miter; stroke-linecap: square"/>
   </g>
   <g id="patch_6">
    <path d="M 39.85 26.88 
L 346.421581 26.88 
" style="fill: none; stroke: #000000; stroke-width: 0.8; stroke-linejoin: miter; stroke-linecap: square"/>
   </g>
   <g id="text_16">
    <!-- 10y Treasury -->
    <g transform="translate(154.616728 20.88) scale(0.12 -0.12)">
     <defs>
      <path id="DejaVuSans-79" d="M 2059 -325 
Q 1816 -950 1584 -1140 
Q 1353 -1331 966 -1331 
L 506 -1331 
L 506 -850 
L 844 -850 
Q 1081 -850 1212 -737 
Q 1344 -625 1503 -206 
L 1606 56 
L 191 3500 
L 800 3500 
L 1894 763 
L 2988 3500 
L 3597 3500 
L 2059 -325 
z
" transform="scale(0.015625)"/>
      <path id="DejaVuSans-20" transform="scale(0.015625)"/>
      <path id="DejaVuSans-54" d="M -19 4666 
L 3928 4666 
L 3928 4134 
L 2272 4134 
L 2272 0 
L 1638 0 
L 1638 4134 
L -19 4134 
L -19 4666 
z
" transform="scale(0.015625)"/>
      <path id="DejaVuSans-72" d="M 2631 2963 
Q 2534 3019 2420 3045 
Q 2306 3072 2169 3072 
Q 1681 3072 1420 2755 
Q 1159 2438 1159 1844 
L 1159 0 
L 581 0 
L 581 3500 
L 1159 3500 
L 1159 2956 
Q 1341 3275 1631 3429 
Q 1922 3584 2338 3584 
Q 2397 3584 2469 3576 
Q 2541 3569 2628 3553 
L 2631 2963 
z
" transform="scale(0.015625)"/>
      <path id="DejaVuSans-65" d="M 3597 1894 
L 3597 1613 
L 953 1613 
Q 991 1019 1311 708 
Q 1631 397 2203 397 
Q 2534 397 2845 478 
Q 3156 559 3463 722 
L 3463 178 
Q 3153 47 2828 -22 
Q 2503 -91 2169 -91 
Q 1331 -91 842 396 
Q 353 884 353 1716 
Q 353 2575 817 3079 
Q 1281 3584 2069 3584 
Q 2775 3584 3186 3129 
Q 3597 2675 3597 1894 
z
M 3022 2063 
Q 3016 2534 2758 2815 
Q 2500 3097 2075 3097 
Q 1594 3097 1305 2825 
Q 1016 2553 972 2059 
L 3022 2063 
z
" transform="scale(0.015625)"/>
      <path id="DejaVuSans-61" d="M 2194 1759 
Q 1497 1759 1228 1600 
Q 959 1441 959 1056 
Q 959 750 1161 570 
Q 1363 391 1709 391 
Q 2188 391 2477 730 
Q 2766 1069 2766 1631 
L 2766 1759 
L 2194 1759 
z
M 3341 1997 
L 3341 0 
L 2766 0 
L 2766 531 
Q 2569 213 2275 61 
Q 1981 -91 1556 -91 
Q 1019 -91 701 211 
Q 384 513 384 1019 
Q 384 1609 779 1909 
Q 1175 2209 1959 2209 
L 2766 2209 
L 2766 2266 
Q 2766 2663 2505 2880 
Q 2244 3097 1772 3097 
Q 1472 3097 1187 3025 
Q 903 2953 641 2809 
L 641 3341 
Q 956 3463 1253 3523 
Q 1550 3584 1831 3584 
Q 2591 3584 2966 3190 
Q 3341 2797 3341 1997 
z
" transform="scale(0.015625)"/>
      <path id="DejaVuSans-73" d="M 2834 3397 
L 2834 2853 
Q 2591 2978 2328 3040 
Q 2066 3103 1784 3103 
Q 1356 3103 1142 2972 
Q 928 2841 928 2578 
Q 928 2378 1081 2264 
Q 1234 2150 1697 2047 
L 1894 2003 
Q 2506 1872 2764 1633 
Q 3022 1394 3022 966 
Q 3022 478 2636 193 
Q 2250 -91 1575 -91 
Q 1294 -91 989 -36 
Q 684 19 347 128 
L 347 722 
Q 666 556 975 473 
Q 1284 391 1588 391 
Q 1994 391 2212 530 
Q 2431 669 2431 922 
Q 2431 1156 2273 1281 
Q 2116 1406 1581 1522 
L 1381 1569 
Q 847 1681 609 1914 
Q 372 2147 372 2553 
Q 372 3047 722 3315 
Q 1072 3584 1716 3584 
Q 2034 3584 2315 3537 
Q 2597 3491 2834 3397 
z
" transform="scale(0.015625)"/>
      <path id="DejaVuSans-75" d="M 544 1381 
L 544 3500 
L 1119 3500 
L 1119 1403 
Q 1119 906 1312 657 
Q 1506 409 1894 409 
Q 2359 409 2629 706 
Q 2900 1003 2900 1516 
L 2900 3500 
L 3475 3500 
L 3475 0 
L 2900 0 
L 2900 538 
Q 2691 219 2414 64 
Q 2138 -91 1772 -91 
Q 1169 -91 856 284 
Q 544 659 544 1381 
z
M 1991 3584 
L 1991 3584 
z
" transform="scale(0.015625)"/>
     </defs>
     <use xlink:href="#DejaVuSans-31"/>
     <use xlink:href="#DejaVuSans-30" x="63.623047"/>
     <use xlink:href="#DejaVuSans-79" x="127.246094"/>
     <use xlink:href="#DejaVuSans-20" x="186.425781"/>
     <use xlink:href="#DejaVuSans-54" x="218.212891"/>
     <use xlink:href="#DejaVuSans-72" x="264.546875"/>
     <use xlink:href="#DejaVuSans-65" x="303.410156"/>
     <use xlink:href="#DejaVuSans-61" x="364.933594"/>
     <use xlink:href="#DejaVuSans-73" x="426.212891"/>
     <use xlink:href="#DejaVuSans-75" x="478.3125"/>
     <use xlink:href="#DejaVuSans-72" x="541.691406"/>
     <use xlink:href="#DejaVuSans-79" x="582.804688"/>
    </g>
   </g>
  </g>
 </g>
 <defs>
  <clipPath id="pa73f8d3781">
   <rect x="39.85" y="26.88" width="306.571581" height="141.791221"/>
  </clipPath>
 </defs>
</svg>
