<?xml version="1.0" encoding="utf-8" standalone="no"?>
<!DOCTYPE svg PUBLIC "-//W3C//DTD SVG 1.1//EN"
  "http://www.w3.org/Graphics/SVG/1.1/DTD/svg11.dtd">
<svg xmlns:xlink="http://www.w3.org/1999/xlink" width="360pt" height="216pt" viewBox="0 0 360 216" xmlns="http://www.w3.org/2000/svg" version="1.1">
 <metadata>
  <rdf:RDF xmlns:dc="http://purl.org/dc/elements/1.1/" xmlns:cc="http://creativecommons.org/ns#" xmlns:rdf="http://www.w3.org/1999/02/22-rdf-syntax-ns#">
   <cc:Work>
    <dc:type rdf:resource="http://purl.org/dc/dcmitype/StillImage"/>
    <dc:date>2022-08-15T16:50:39.124725</dc:date>
    <dc:format>image/svg+xml</dc:format>
    <dc:creator>
     <cc:Agent>
      <dc:title>Matplotlib v3.5.2, https://matplotlib.org/</dc:title>
     </cc:Agent>
    </dc:creator>
   </cc:Work>
  </rdf:RDF>
 </metadata>
 <defs>
  <style type="text/css">*{stroke-linejoin: round; stroke-linecap: butt}</style>
 </defs>
 <g id="figure_1">
  <g id="patch_1">
   <path d="M 0 216 
L 360 216 
L 360 0 
L 0 0 
L 0 216 
z
" style="fill: none"/>
  </g>
  <g id="axes_1">
   <g id="patch_2">
    <path d="M 42.925 168.678292 
L 346.933738 168.678292 
L 346.933738 26.8 
L 42.925 26.8 
z
" style="fill: #ffffff"/>
   </g>
   <g id="matplotlib.axis_1">
    <g id="xtick_1">
     <g id="line2d_1">
      <defs>
       <path id="m3f9514b0b4" d="M 0 0 
L 0 3.5 
" style="stroke: #000000; stroke-width: 0.8"/>
      </defs>
      <g>
       <use xlink:href="#m3f9514b0b4" x="56.995743" y="168.678292" style="stroke: #000000; stroke-width: 0.8"/>
      </g>
     </g>
     <g id="text_1">
      <!-- '00-01 -->
      <g transform="translate(47.701708 203.541614)rotate(-45)scale(0.1 -0.1)">
       <defs>
        <path id="DejaVuSans-27" d="M 1147 4666 
L 1147 2931 
L 616 2931 
L 616 4666 
L 1147 4666 
z
" transform="scale(0.015625)"/>
        <path id="DejaVuSans-30" d="M 2034 4250 
Q 1547 4250 1301 3770 
Q 1056 3291 1056 2328 
Q 1056 1369 1301 889 
Q 1547 409 2034 409 
Q 2525 409 2770 889 
Q 3016 1369 3016 2328 
Q 3016 3291 2770 3770 
Q 2525 4250 2034 4250 
z
M 2034 4750 
Q 2819 4750 3233 4129 
Q 3647 3509 3647 2328 
Q 3647 1150 3233 529 
Q 2819 -91 2034 -91 
Q 1250 -91 836 529 
Q 422 1150 422 2328 
Q 422 3509 836 4129 
Q 1250 4750 2034 4750 
z
" transform="scale(0.015625)"/>
        <path id="DejaVuSans-2d" d="M 313 2009 
L 1997 2009 
L 1997 1497 
L 313 1497 
L 313 2009 
z
" transform="scale(0.015625)"/>
        <path id="DejaVuSans-31" d="M 794 531 
L 1825 531 
L 1825 4091 
L 703 3866 
L 703 4441 
L 1819 4666 
L 2450 4666 
L 2450 531 
L 3481 531 
L 3481 0 
L 794 0 
L 794 531 
z
" transform="scale(0.015625)"/>
       </defs>
       <use xlink:href="#DejaVuSans-27"/>
       <use xlink:href="#DejaVuSans-30" x="27.490234"/>
       <use xlink:href="#DejaVuSans-30" x="91.113281"/>
       <use xlink:href="#DejaVuSans-2d" x="154.736328"/>
       <use xlink:href="#DejaVuSans-30" x="190.820312"/>
       <use xlink:href="#DejaVuSans-31" x="254.443359"/>
      </g>
     </g>
    </g>
    <g id="xtick_2">
     <g id="line2d_2">
      <g>
       <use xlink:href="#m3f9514b0b4" x="87.507569" y="168.678292" style="stroke: #000000; stroke-width: 0.8"/>
      </g>
     </g>
     <g id="text_2">
      <!-- '00-05 -->
      <g transform="translate(78.213534 203.541614)rotate(-45)scale(0.1 -0.1)">
       <defs>
        <path id="DejaVuSans-35" d="M 691 4666 
L 3169 4666 
L 3169 4134 
L 1269 4134 
L 1269 2991 
Q 1406 3038 1543 3061 
Q 1681 3084 1819 3084 
Q 2600 3084 3056 2656 
Q 3513 2228 3513 1497 
Q 3513 744 3044 326 
Q 2575 -91 1722 -91 
Q 1428 -91 1123 -41 
Q 819 9 494 109 
L 494 744 
Q 775 591 1075 516 
Q 1375 441 1709 441 
Q 2250 441 2565 725 
Q 2881 1009 2881 1497 
Q 2881 1984 2565 2268 
Q 2250 2553 1709 2553 
Q 1456 2553 1204 2497 
Q 953 2441 691 2322 
L 691 4666 
z
" transform="scale(0.015625)"/>
       </defs>
       <use xlink:href="#DejaVuSans-27"/>
       <use xlink:href="#DejaVuSans-30" x="27.490234"/>
       <use xlink:href="#DejaVuSans-30" x="91.113281"/>
       <use xlink:href="#DejaVuSans-2d" x="154.736328"/>
       <use xlink:href="#DejaVuSans-30" x="190.820312"/>
       <use xlink:href="#DejaVuSans-35" x="254.443359"/>
      </g>
     </g>
    </g>
    <g id="xtick_3">
     <g id="line2d_3">
      <g>
       <use xlink:href="#m3f9514b0b4" x="118.523722" y="168.678292" style="stroke: #000000; stroke-width: 0.8"/>
      </g>
     </g>
     <g id="text_3">
      <!-- '00-09 -->
      <g transform="translate(109.229688 203.541614)rotate(-45)scale(0.1 -0.1)">
       <defs>
        <path id="DejaVuSans-39" d="M 703 97 
L 703 672 
Q 941 559 1184 500 
Q 1428 441 1663 441 
Q 2288 441 2617 861 
Q 2947 1281 2994 2138 
Q 2813 1869 2534 1725 
Q 2256 1581 1919 1581 
Q 1219 1581 811 2004 
Q 403 2428 403 3163 
Q 403 3881 828 4315 
Q 1253 4750 1959 4750 
Q 2769 4750 3195 4129 
Q 3622 3509 3622 2328 
Q 3622 1225 3098 567 
Q 2575 -91 1691 -91 
Q 1453 -91 1209 -44 
Q 966 3 703 97 
z
M 1959 2075 
Q 2384 2075 2632 2365 
Q 2881 2656 2881 3163 
Q 2881 3666 2632 3958 
Q 2384 4250 1959 4250 
Q 1534 4250 1286 3958 
Q 1038 3666 1038 3163 
Q 1038 2656 1286 2365 
Q 1534 2075 1959 2075 
z
" transform="scale(0.015625)"/>
       </defs>
       <use xlink:href="#DejaVuSans-27"/>
       <use xlink:href="#DejaVuSans-30" x="27.490234"/>
       <use xlink:href="#DejaVuSans-30" x="91.113281"/>
       <use xlink:href="#DejaVuSans-2d" x="154.736328"/>
       <use xlink:href="#DejaVuSans-30" x="190.820312"/>
       <use xlink:href="#DejaVuSans-39" x="254.443359"/>
      </g>
     </g>
    </g>
    <g id="xtick_4">
     <g id="line2d_4">
      <g>
       <use xlink:href="#m3f9514b0b4" x="149.287712" y="168.678292" style="stroke: #000000; stroke-width: 0.8"/>
      </g>
     </g>
     <g id="text_4">
      <!-- '01-01 -->
      <g transform="translate(139.993677 203.541614)rotate(-45)scale(0.1 -0.1)">
       <use xlink:href="#DejaVuSans-27"/>
       <use xlink:href="#DejaVuSans-30" x="27.490234"/>
       <use xlink:href="#DejaVuSans-31" x="91.113281"/>
       <use xlink:href="#DejaVuSans-2d" x="154.736328"/>
       <use xlink:href="#DejaVuSans-30" x="190.820312"/>
       <use xlink:href="#DejaVuSans-31" x="254.443359"/>
      </g>
     </g>
    </g>
    <g id="xtick_5">
     <g id="line2d_5">
      <g>
       <use xlink:href="#m3f9514b0b4" x="179.547374" y="168.678292" style="stroke: #000000; stroke-width: 0.8"/>
      </g>
     </g>
     <g id="text_5">
      <!-- '01-05 -->
      <g transform="translate(170.253339 203.541614)rotate(-45)scale(0.1 -0.1)">
       <use xlink:href="#DejaVuSans-27"/>
       <use xlink:href="#DejaVuSans-30" x="27.490234"/>
       <use xlink:href="#DejaVuSans-31" x="91.113281"/>
       <use xlink:href="#DejaVuSans-2d" x="154.736328"/>
       <use xlink:href="#DejaVuSans-30" x="190.820312"/>
       <use xlink:href="#DejaVuSans-35" x="254.443359"/>
      </g>
     </g>
    </g>
    <g id="xtick_6">
     <g id="line2d_6">
      <g>
       <use xlink:href="#m3f9514b0b4" x="210.563528" y="168.678292" style="stroke: #000000; stroke-width: 0.8"/>
      </g>
     </g>
     <g id="text_6">
      <!-- '01-09 -->
      <g transform="translate(201.269493 203.541614)rotate(-45)scale(0.1 -0.1)">
       <use xlink:href="#DejaVuSans-27"/>
       <use xlink:href="#DejaVuSans-30" x="27.490234"/>
       <use xlink:href="#DejaVuSans-31" x="91.113281"/>
       <use xlink:href="#DejaVuSans-2d" x="154.736328"/>
       <use xlink:href="#DejaVuSans-30" x="190.820312"/>
       <use xlink:href="#DejaVuSans-39" x="254.443359"/>
      </g>
     </g>
    </g>
    <g id="xtick_7">
     <g id="line2d_7">
      <g>
       <use xlink:href="#m3f9514b0b4" x="241.327518" y="168.678292" style="stroke: #000000; stroke-width: 0.8"/>
      </g>
     </g>
     <g id="text_7">
      <!-- '02-01 -->
      <g transform="translate(232.033483 203.541614)rotate(-45)scale(0.1 -0.1)">
       <defs>
        <path id="DejaVuSans-32" d="M 1228 531 
L 3431 531 
L 3431 0 
L 469 0 
L 469 531 
Q 828 903 1448 1529 
Q 2069 2156 2228 2338 
Q 2531 2678 2651 2914 
Q 2772 3150 2772 3378 
Q 2772 3750 2511 3984 
Q 2250 4219 1831 4219 
Q 1534 4219 1204 4116 
Q 875 4013 500 3803 
L 500 4441 
Q 881 4594 1212 4672 
Q 1544 4750 1819 4750 
Q 2544 4750 2975 4387 
Q 3406 4025 3406 3419 
Q 3406 3131 3298 2873 
Q 3191 2616 2906 2266 
Q 2828 2175 2409 1742 
Q 1991 1309 1228 531 
z
" transform="scale(0.015625)"/>
       </defs>
       <use xlink:href="#DejaVuSans-27"/>
       <use xlink:href="#DejaVuSans-30" x="27.490234"/>
       <use xlink:href="#DejaVuSans-32" x="91.113281"/>
       <use xlink:href="#DejaVuSans-2d" x="154.736328"/>
       <use xlink:href="#DejaVuSans-30" x="190.820312"/>
       <use xlink:href="#DejaVuSans-31" x="254.443359"/>
      </g>
     </g>
    </g>
    <g id="xtick_8">
     <g id="line2d_8">
      <g>
       <use xlink:href="#m3f9514b0b4" x="271.58718" y="168.678292" style="stroke: #000000; stroke-width: 0.8"/>
      </g>
     </g>
     <g id="text_8">
      <!-- '02-05 -->
      <g transform="translate(262.293145 203.541614)rotate(-45)scale(0.1 -0.1)">
       <use xlink:href="#DejaVuSans-27"/>
       <use xlink:href="#DejaVuSans-30" x="27.490234"/>
       <use xlink:href="#DejaVuSans-32" x="91.113281"/>
       <use xlink:href="#DejaVuSans-2d" x="154.736328"/>
       <use xlink:href="#DejaVuSans-30" x="190.820312"/>
       <use xlink:href="#DejaVuSans-35" x="254.443359"/>
      </g>
     </g>
    </g>
    <g id="xtick_9">
     <g id="line2d_9">
      <g>
       <use xlink:href="#m3f9514b0b4" x="302.603333" y="168.678292" style="stroke: #000000; stroke-width: 0.8"/>
      </g>
     </g>
     <g id="text_9">
      <!-- '02-09 -->
      <g transform="translate(293.309299 203.541614)rotate(-45)scale(0.1 -0.1)">
       <use xlink:href="#DejaVuSans-27"/>
       <use xlink:href="#DejaVuSans-30" x="27.490234"/>
       <use xlink:href="#DejaVuSans-32" x="91.113281"/>
       <use xlink:href="#DejaVuSans-2d" x="154.736328"/>
       <use xlink:href="#DejaVuSans-30" x="190.820312"/>
       <use xlink:href="#DejaVuSans-39" x="254.443359"/>
      </g>
     </g>
    </g>
    <g id="xtick_10">
     <g id="line2d_10">
      <g>
       <use xlink:href="#m3f9514b0b4" x="333.367323" y="168.678292" style="stroke: #000000; stroke-width: 0.8"/>
      </g>
     </g>
     <g id="text_10">
      <!-- '03-01 -->
      <g transform="translate(324.073288 203.541614)rotate(-45)scale(0.1 -0.1)">
       <defs>
        <path id="DejaVuSans-33" d="M 2597 2516 
Q 3050 2419 3304 2112 
Q 3559 1806 3559 1356 
Q 3559 666 3084 287 
Q 2609 -91 1734 -91 
Q 1441 -91 1130 -33 
Q 819 25 488 141 
L 488 750 
Q 750 597 1062 519 
Q 1375 441 1716 441 
Q 2309 441 2620 675 
Q 2931 909 2931 1356 
Q 2931 1769 2642 2001 
Q 2353 2234 1838 2234 
L 1294 2234 
L 1294 2753 
L 1863 2753 
Q 2328 2753 2575 2939 
Q 2822 3125 2822 3475 
Q 2822 3834 2567 4026 
Q 2313 4219 1838 4219 
Q 1578 4219 1281 4162 
Q 984 4106 628 3988 
L 628 4550 
Q 988 4650 1302 4700 
Q 1616 4750 1894 4750 
Q 2613 4750 3031 4423 
Q 3450 4097 3450 3541 
Q 3450 3153 3228 2886 
Q 3006 2619 2597 2516 
z
" transform="scale(0.015625)"/>
       </defs>
       <use xlink:href="#DejaVuSans-27"/>
       <use xlink:href="#DejaVuSans-30" x="27.490234"/>
       <use xlink:href="#DejaVuSans-33" x="91.113281"/>
       <use xlink:href="#DejaVuSans-2d" x="154.736328"/>
       <use xlink:href="#DejaVuSans-30" x="190.820312"/>
       <use xlink:href="#DejaVuSans-31" x="254.443359"/>
      </g>
     </g>
    </g>
   </g>
   <g id="matplotlib.axis_2">
    <g id="ytick_1">
     <g id="line2d_11">
      <defs>
       <path id="mebbb0c86b3" d="M 0 0 
L -3.5 0 
" style="stroke: #000000; stroke-width: 0.8"/>
      </defs>
      <g>
       <use xlink:href="#mebbb0c86b3" x="42.925" y="165.970008" style="stroke: #000000; stroke-width: 0.8"/>
      </g>
     </g>
     <g id="text_11">
      <!-- 1000 -->
      <g transform="translate(10.475 169.769226)scale(0.1 -0.1)">
       <use xlink:href="#DejaVuSans-31"/>
       <use xlink:href="#DejaVuSans-30" x="63.623047"/>
       <use xlink:href="#DejaVuSans-30" x="127.246094"/>
       <use xlink:href="#DejaVuSans-30" x="190.869141"/>
      </g>
     </g>
    </g>
    <g id="ytick_2">
     <g id="line2d_12">
      <g>
       <use xlink:href="#mebbb0c86b3" x="42.925" y="133.188223" style="stroke: #000000; stroke-width: 0.8"/>
      </g>
     </g>
     <g id="text_12">
      <!-- 2000 -->
      <g transform="translate(10.475 136.987441)scale(0.1 -0.1)">
       <use xlink:href="#DejaVuSans-32"/>
       <use xlink:href="#DejaVuSans-30" x="63.623047"/>
       <use xlink:href="#DejaVuSans-30" x="127.246094"/>
       <use xlink:href="#DejaVuSans-30" x="190.869141"/>
      </g>
     </g>
    </g>
    <g id="ytick_3">
     <g id="line2d_13">
      <g>
       <use xlink:href="#mebbb0c86b3" x="42.925" y="100.406438" style="stroke: #000000; stroke-width: 0.8"/>
      </g>
     </g>
     <g id="text_13">
      <!-- 3000 -->
      <g transform="translate(10.475 104.205656)scale(0.1 -0.1)">
       <use xlink:href="#DejaVuSans-33"/>
       <use xlink:href="#DejaVuSans-30" x="63.623047"/>
       <use xlink:href="#DejaVuSans-30" x="127.246094"/>
       <use xlink:href="#DejaVuSans-30" x="190.869141"/>
      </g>
     </g>
    </g>
    <g id="ytick_4">
     <g id="line2d_14">
      <g>
       <use xlink:href="#mebbb0c86b3" x="42.925" y="67.624653" style="stroke: #000000; stroke-width: 0.8"/>
      </g>
     </g>
     <g id="text_14">
      <!-- 4000 -->
      <g transform="translate(10.475 71.423871)scale(0.1 -0.1)">
       <defs>
        <path id="DejaVuSans-34" d="M 2419 4116 
L 825 1625 
L 2419 1625 
L 2419 4116 
z
M 2253 4666 
L 3047 4666 
L 3047 1625 
L 3713 1625 
L 3713 1100 
L 3047 1100 
L 3047 0 
L 2419 0 
L 2419 1100 
L 313 1100 
L 313 1709 
L 2253 4666 
z
" transform="scale(0.015625)"/>
       </defs>
       <use xlink:href="#DejaVuSans-34"/>
       <use xlink:href="#DejaVuSans-30" x="63.623047"/>
       <use xlink:href="#DejaVuSans-30" x="127.246094"/>
       <use xlink:href="#DejaVuSans-30" x="190.869141"/>
      </g>
     </g>
    </g>
    <g id="ytick_5">
     <g id="line2d_15">
      <g>
       <use xlink:href="#mebbb0c86b3" x="42.925" y="34.842867" style="stroke: #000000; stroke-width: 0.8"/>
      </g>
     </g>
     <g id="text_15">
      <!-- 5000 -->
      <g transform="translate(10.475 38.642086)scale(0.1 -0.1)">
       <use xlink:href="#DejaVuSans-35"/>
       <use xlink:href="#DejaVuSans-30" x="63.623047"/>
       <use xlink:href="#DejaVuSans-30" x="127.246094"/>
       <use xlink:href="#DejaVuSans-30" x="190.869141"/>
      </g>
     </g>
    </g>
   </g>
   <g id="line2d_16">
    <path d="M 56.743579 65.352545 
L 57.500071 63.325325 
L 57.752234 70.847432 
L 58.004398 71.639109 
L 58.256562 76.569822 
L 58.508726 71.472575 
L 59.265218 65.996384 
L 59.517381 70.208187 
L 59.769545 72.541264 
L 60.273873 65.517767 
L 61.534692 62.665095 
L 62.03902 59.907824 
L 62.795511 64.474976 
L 63.047675 62.136649 
L 63.299839 65.332881 
L 63.552003 66.327803 
L 63.804167 71.326697 
L 64.560658 69.580083 
L 64.812822 65.920656 
L 65.064986 65.200113 
L 65.31715 60.708352 
L 65.569314 59.621303 
L 66.325805 57.076457 
L 66.577969 53.610439 
L 66.830133 55.716989 
L 67.082297 51.704838 
L 67.334461 54.661089 
L 68.090952 53.903843 
L 68.343116 53.83106 
L 68.59528 53.605525 
L 68.847444 49.630078 
L 69.099608 54.127073 
L 70.108263 55.098073 
L 70.360427 49.58385 
L 70.612591 47.376986 
L 70.864755 48.267008 
L 71.621246 48.681695 
L 72.125574 41.921108 
L 72.377738 42.890476 
L 72.629902 37.636202 
L 73.386393 37.962051 
L 73.638557 39.830949 
L 73.890721 38.210876 
L 74.142885 33.306718 
L 74.395049 33.249013 
L 75.15154 37.883698 
L 75.655868 48.525325 
L 76.160196 41.46053 
L 76.916687 47.627764 
L 77.168851 44.294506 
L 77.421015 39.276604 
L 77.673179 36.789782 
L 77.925342 36.054817 
L 78.681834 36.201343 
L 78.933998 40.288245 
L 79.438326 52.614196 
L 79.690489 48.84626 
L 80.699145 62.743768 
L 80.951309 62.077312 
L 81.203473 58.853556 
L 81.455636 52.989218 
L 82.212128 61.455114 
L 82.464292 65.792154 
L 82.716456 75.176596 
L 82.968619 78.22038 
L 83.220783 89.873977 
L 83.977275 82.731813 
L 84.229439 74.391794 
L 84.733766 79.298906 
L 85.742422 84.589883 
L 85.994586 77.091049 
L 86.24675 79.75096 
L 86.751077 72.192469 
L 87.507569 68.998862 
L 87.759733 74.657986 
L 88.011896 77.219551 
L 88.26406 76.795685 
L 88.516224 73.629618 
L 89.272716 78.46297 
L 89.52488 81.228765 
L 89.777043 87.794302 
L 90.029207 84.029311 
L 91.037863 80.486589 
L 91.290027 76.88321 
L 91.54219 79.263499 
L 92.046518 87.608432 
L 92.80301 88.466985 
L 93.055173 95.012193 
L 93.307337 91.535355 
L 93.559501 93.674695 
L 93.811665 93.682562 
L 94.82032 85.343864 
L 95.072484 87.263895 
L 95.576812 73.742393 
L 96.333304 73.467678 
L 96.585467 75.611275 
L 96.837631 72.893996 
L 97.089795 73.343105 
L 97.341959 71.727618 
L 98.098451 75.23298 
L 98.350614 72.50717 
L 98.602778 74.265917 
L 98.854942 72.681571 
L 99.107106 72.195743 
L 99.863597 67.958041 
L 100.115761 67.186684 
L 100.367925 65.52629 
L 100.872253 72.694681 
L 101.628744 70.505512 
L 101.880908 72.248197 
L 102.133072 69.580411 
L 102.385236 71.649273 
L 102.6374 68.735624 
L 103.393891 67.889204 
L 103.898219 72.112476 
L 104.402547 66.864117 
L 105.159038 68.27078 
L 105.411202 69.053285 
L 105.663366 64.35992 
L 106.167694 59.554427 
L 106.924185 58.620482 
L 107.428513 65.801006 
L 107.680677 61.574444 
L 107.932841 64.528415 
L 108.689332 68.228819 
L 108.941496 66.655293 
L 109.19366 68.027214 
L 109.697988 78.672114 
L 110.454479 75.263137 
L 110.706643 77.933868 
L 110.958807 78.820945 
L 111.210971 75.496219 
L 112.219626 72.116085 
L 112.47179 72.589452 
L 112.723954 72.427184 
L 112.976118 75.492609 
L 113.228282 74.526203 
L 113.984773 72.552085 
L 114.236937 72.487505 
L 114.489101 72.174766 
L 114.741265 69.563036 
L 114.993428 69.908229 
L 116.002084 68.994605 
L 116.506412 65.878038 
L 116.758575 66.225528 
L 117.767231 64.930976 
L 118.019395 64.221574 
L 118.271559 60.860128 
L 118.523722 59.942894 
L 119.532378 62.930951 
L 119.784542 67.187341 
L 120.036706 64.400561 
L 120.288869 68.332414 
L 121.045361 71.022481 
L 121.045361 71.022481 
" clip-path="url(#p5489e8a3df)" style="fill: none; stroke: #000000; stroke-linecap: square"/>
   </g>
   <g id="line2d_17">
    <path d="M 121.045361 71.022481 
L 121.297525 72.557983 
L 121.549689 71.103131 
L 121.801852 70.448472 
L 122.054016 73.026108 
L 122.810508 76.589814 
L 123.062672 72.029217 
L 123.314836 70.986754 
L 123.566999 73.234596 
L 123.819163 74.05775 
L 124.575655 76.107924 
L 125.079983 78.89175 
L 125.332146 74.891716 
L 125.58431 78.350195 
L 126.340802 81.756883 
L 126.592966 85.463514 
L 126.845129 83.258283 
L 127.097293 84.930154 
L 127.349457 88.571885 
L 128.105949 88.750544 
L 128.610276 94.883035 
L 128.86244 97.958296 
L 129.114604 90.022151 
L 129.871096 90.89054 
L 130.12326 93.392448 
L 130.375423 94.782393 
L 130.627587 86.683979 
L 130.879751 84.568249 
L 131.636243 85.041945 
L 131.888406 86.644971 
L 132.14057 92.880721 
L 132.392734 91.483894 
L 132.644898 91.281296 
L 133.40139 94.132007 
L 133.653553 88.28931 
L 133.905717 89.477322 
L 134.157881 86.342396 
L 134.410045 85.602837 
L 135.166537 86.762332 
L 135.4187 86.776098 
L 135.670864 92.8109 
L 135.923028 93.838604 
L 136.175192 99.456094 
L 136.931683 101.497416 
L 137.183847 95.8737 
L 137.436011 94.98138 
L 137.688175 99.361358 
L 137.940339 99.515103 
L 138.69683 104.483184 
L 138.948994 104.620538 
L 139.201158 108.426826 
L 139.705486 103.541036 
L 140.461977 104.324189 
L 140.714141 109.094267 
L 140.966305 110.013798 
L 141.218469 113.587012 
L 141.470633 112.034463 
L 142.227124 113.002838 
L 142.479288 104.018989 
L 142.731452 107.077531 
L 142.983616 108.514687 
L 143.23578 103.113232 
L 143.992271 99.911429 
L 145.000927 111.772865 
L 145.757418 112.715342 
L 146.009582 116.413457 
L 146.261746 122.279099 
L 146.51391 122.038478 
L 146.766074 116.239383 
L 147.774729 117.009755 
L 148.026893 115.507364 
L 148.279057 114.903854 
L 148.531221 117.763736 
L 149.539876 123.620527 
L 149.79204 112.972026 
L 150.044204 114.606521 
L 150.296368 119.824731 
L 151.052859 120.209261 
L 151.305023 118.721619 
L 151.809351 112.189192 
L 152.061515 112.650434 
L 153.07017 112.911048 
L 153.574498 107.995749 
L 153.826661 107.933795 
L 154.583153 108.342583 
L 154.835317 105.638742 
L 155.087481 105.023755 
L 155.339645 108.461577 
L 155.591808 107.575812 
L 156.3483 105.705938 
L 156.600464 105.70561 
L 156.852628 107.856754 
L 157.104792 107.526968 
L 157.356955 111.535854 
L 158.113447 112.102652 
L 158.365611 111.405055 
L 159.122102 117.748986 
L 159.878594 117.136297 
L 160.130758 119.166798 
L 160.635085 115.062849 
L 160.887249 119.243511 
L 161.895905 122.752138 
L 162.148069 124.371891 
L 162.400232 125.157998 
L 163.408888 123.075042 
L 163.661052 126.37551 
L 163.913216 128.210962 
L 164.165379 127.177023 
L 164.417543 129.332105 
L 165.174035 128.503052 
L 165.426199 126.486645 
L 165.678362 125.847728 
L 165.930526 127.656953 
L 166.18269 131.457999 
L 166.939182 135.699963 
L 167.191346 132.703707 
L 167.947837 136.764386 
L 168.704329 134.788628 
L 168.956493 137.861596 
L 169.208656 138.753587 
L 169.46082 136.541801 
L 169.712984 135.526218 
L 170.469476 135.860266 
L 170.721639 134.098573 
L 170.973803 137.970101 
L 171.225967 139.07026 
L 171.478131 138.424785 
L 172.234623 140.302854 
L 172.486786 143.907866 
L 172.73895 145.029002 
L 172.991114 140.236306 
L 173.243278 142.355321 
L 173.99977 141.524304 
L 174.251933 138.038942 
L 174.756261 134.452614 
L 175.764916 136.152681 
L 176.01708 135.705209 
L 176.521408 127.217352 
L 176.773572 127.831354 
L 177.782227 132.643718 
L 178.034391 131.22787 
L 178.286555 132.044794 
L 178.538719 130.707299 
L 179.29521 129.377668 
L 179.799538 125.956558 
L 180.051702 128.395527 
L 180.303866 126.909526 
L 181.060357 127.498286 
L 181.312521 126.672187 
L 181.816849 128.963958 
L 182.069013 129.666478 
L 182.825504 130.502741 
L 183.077668 130.382755 
L 183.329832 127.732024 
L 183.581996 126.839049 
L 183.83416 126.668585 
L 184.590651 123.170434 
L 184.842815 122.899656 
L 185.094979 125.206514 
L 185.347143 123.943103 
L 185.599307 124.95901 
L 186.607962 127.433707 
L 186.860126 130.418162 
L 187.11229 129.566163 
L 187.364454 128.289315 
L 188.120945 128.076561 
L 188.373109 125.528434 
L 188.625273 126.050645 
L 188.877437 124.533831 
L 189.129601 126.136857 
L 189.886092 127.589748 
L 190.138256 127.61696 
L 190.39042 129.199994 
L 190.642584 131.743531 
L 191.651239 133.560951 
L 191.903403 133.42884 
L 192.407731 131.261965 
L 192.659894 132.046106 
L 193.416386 131.520609 
L 193.920714 130.738112 
L 194.425041 127.925434 
L 195.181533 128.312916 
L 195.433697 128.572546 
L 195.938025 130.56207 
L 196.190188 133.051849 
L 196.94668 132.312622 
L 197.198844 134.408032 
L 197.451008 134.1048 
L 197.703171 130.705331 
L 197.955335 130.408654 
L 198.711827 132.233617 
L 198.963991 130.981351 
L 199.216155 132.65814 
L 199.468318 131.66092 
L 199.720482 132.225422 
L 200.476974 133.563244 
L 200.729138 134.524408 
L 200.981302 133.702243 
L 201.233465 132.435554 
L 201.485629 132.235258 
L 202.242121 132.603397 
L 202.494285 132.298853 
L 202.746448 130.946608 
L 202.998612 130.323754 
L 203.250776 131.013804 
L 204.259432 132.277216 
L 204.511595 134.291002 
L 204.763759 134.39066 
L 205.015923 134.615215 
L 205.772415 133.770099 
L 206.024579 134.350992 
L 206.276742 135.847153 
L 206.528906 135.472459 
L 206.78107 137.547872 
L 207.537562 137.077782 
L 207.789726 138.718508 
L 208.041889 137.777344 
L 208.294053 138.335947 
L 208.546217 135.915666 
L 209.302709 136.059578 
L 209.554872 137.61442 
L 209.807036 138.329389 
L 210.0592 140.017322 
L 210.311364 139.566573 
L 211.572183 141.088305 
L 211.824347 142.837868 
L 212.076511 143.425976 
L 212.833003 143.17421 
L 214.850313 147.773496 
L 215.102477 148.66778 
L 215.606805 152.097086 
L 216.363296 149.598783 
L 216.61546 149.525353 
L 216.867624 150.757947 
L 217.119788 150.867113 
L 217.371952 149.618452 
L 218.128443 150.219672 
L 218.380607 149.830553 
L 218.632771 146.930017 
L 218.884935 146.389118 
L 219.137099 146.127192 
L 219.89359 146.105887 
L 220.145754 147.278164 
L 220.650082 142.97457 
L 220.902246 142.911299 
L 221.658737 143.143721 
L 221.910901 142.299266 
L 222.163065 144.78183 
L 222.415229 144.572682 
L 222.667393 143.963266 
L 223.423884 142.757883 
L 223.676048 142.877209 
L 223.928212 141.988819 
L 224.180376 140.548718 
L 224.43254 140.762127 
L 225.441195 144.091115 
L 225.693359 143.344021 
L 225.945523 141.50496 
L 226.197687 141.523648 
L 226.954178 139.952743 
L 227.206342 138.594596 
L 227.458506 138.514278 
L 227.71067 138.834229 
L 227.962834 138.810955 
L 228.719325 138.429046 
L 228.971489 136.72505 
L 229.223653 136.361829 
L 229.727981 136.512953 
L 230.484472 135.338051 
L 230.736636 137.105318 
L 230.9888 137.284305 
L 232.249619 135.114809 
L 232.501783 135.287241 
L 232.753947 136.860767 
L 233.006111 135.376079 
L 233.258274 135.463936 
L 234.014766 136.30577 
L 234.771258 131.409154 
L 235.023421 132.491282 
L 235.779913 133.446543 
L 236.284241 132.815166 
L 236.536404 134.94172 
L 236.788568 134.723392 
L 237.797224 133.032181 
L 238.049388 133.749118 
L 238.301551 135.858626 
L 238.553715 134.964013 
L 239.310207 135.008268 
L 239.814535 134.476548 
L 240.318862 133.605862 
L 241.075354 134.814198 
L 241.579681 133.868445 
L 241.831845 131.736972 
L 242.084009 131.241644 
L 242.840501 131.972019 
L 243.092665 131.360966 
L 243.344828 131.716648 
L 243.596992 131.639611 
L 243.849156 132.451945 
L 244.605648 133.491782 
L 244.857812 133.15839 
L 245.109975 135.00958 
L 245.362139 133.65307 
L 245.614303 135.471803 
L 246.622958 137.039098 
L 246.875122 135.732745 
L 247.127286 135.070554 
L 247.37945 135.230529 
L 248.135942 135.026952 
L 248.388105 136.696202 
L 248.892433 135.350836 
L 249.144597 136.097934 
L 250.405416 139.327924 
L 250.65758 140.331046 
L 250.909744 139.125659 
L 251.666236 138.21498 
L 251.918399 138.623116 
L 252.170563 137.805208 
L 252.422727 138.322834 
L 252.674891 139.574116 
L 253.683546 141.363672 
L 253.93571 140.54544 
L 254.187874 142.490382 
L 254.440038 142.218292 
L 255.196529 140.731967 
L 255.448693 140.830968 
L 255.953021 141.99046 
L 256.205185 139.654758 
L 256.961676 137.799966 
L 257.21384 137.571474 
L 257.466004 136.781105 
L 257.718168 137.068602 
L 257.970332 135.493764 
L 258.726823 135.499667 
L 259.231151 137.711125 
L 259.483315 137.969773 
L 259.735479 137.505582 
L 260.744134 137.093517 
L 260.996298 138.667042 
L 261.248462 137.488211 
L 261.500626 138.059923 
L 262.257117 139.335135 
L 262.509281 138.952242 
L 262.761445 138.867667 
L 263.013609 138.257926 
L 264.022264 137.691784 
L 264.274428 139.600339 
L 264.526592 140.257615 
L 264.778756 140.080593 
L 265.03092 140.727049 
L 265.787411 140.207786 
L 266.039575 141.627239 
L 266.291739 140.824086 
L 266.543903 142.195346 
L 266.796067 141.180752 
L 267.552558 141.259753 
L 267.804722 139.194172 
L 268.561213 139.848499 
L 269.317705 141.099121 
L 269.822033 142.58545 
L 270.074197 142.573649 
L 270.32636 144.206508 
L 271.082852 144.434668 
L 271.335016 143.4086 
L 271.58718 143.759364 
L 272.091507 145.873789 
L 272.847999 147.006401 
L 273.100163 147.159166 
L 273.352327 143.144377 
L 273.856654 146.273073 
L 274.613146 144.57858 
L 274.86531 142.398263 
L 275.621801 141.66592 
L 276.378293 142.970636 
L 276.630457 144.197 
L 276.882621 143.893116 
L 277.134784 143.100451 
L 277.386948 144.285185 
L 278.395604 144.590709 
L 278.647768 145.501388 
L 278.899931 145.254541 
L 279.908587 147.528285 
L 280.412914 146.456322 
L 280.665078 147.780051 
L 280.917242 148.416018 
L 281.673734 148.573044 
L 281.925898 149.671558 
L 282.178061 148.952328 
L 282.430225 149.681394 
L 282.682389 149.42373 
L 283.438881 147.832173 
L 283.691045 148.170811 
L 284.195372 150.734673 
L 284.447536 151.514553 
L 285.204028 150.879242 
L 285.456191 152.070859 
L 285.708355 151.895805 
L 285.960519 150.916614 
L 286.212683 150.785158 
L 286.969175 152.732721 
L 287.221338 154.240031 
L 287.473502 153.507355 
L 287.97783 151.271967 
L 288.734322 152.673388 
L 289.238649 154.627182 
L 289.490813 153.695522 
L 289.742977 153.726011 
L 290.499468 153.427041 
L 290.751632 153.668315 
L 291.003796 152.947444 
L 291.508124 155.5077 
L 292.264615 156.704235 
L 292.516779 158.461338 
L 292.768943 156.455751 
L 293.021107 158.099758 
L 294.281926 154.686847 
L 294.53409 155.209059 
L 295.038418 157.842746 
L 295.794909 159.216632 
L 296.047073 157.461494 
L 296.299237 156.761603 
L 296.551401 155.593916 
L 296.803565 155.934848 
L 297.560056 155.911246 
L 297.81222 157.142528 
L 298.064384 155.011055 
L 298.568712 154.135455 
L 299.325203 153.036281 
L 299.577367 153.624716 
L 299.829531 152.554062 
L 300.081695 152.104953 
L 300.333859 153.492605 
L 301.09035 153.128071 
L 301.594678 155.66407 
L 301.846842 154.962867 
L 302.099006 155.648663 
L 303.107661 157.320863 
L 303.359825 156.387562 
L 303.611989 157.74178 
L 303.864153 156.289545 
L 304.620644 155.984677 
L 304.872808 155.476887 
L 305.124972 155.628995 
L 305.377136 156.801596 
L 305.6293 156.417395 
L 306.385791 156.926169 
L 306.637955 157.448712 
L 306.890119 157.704736 
L 307.142283 158.874392 
L 307.394446 158.722284 
L 308.150938 159.90767 
L 308.403102 159.998148 
L 308.655266 158.682943 
L 308.90743 158.705237 
L 309.159593 159.441186 
L 309.916085 160.329572 
L 310.168249 158.963885 
L 310.92474 161.383835 
L 311.681232 162.055862 
L 311.933396 161.733946 
L 312.18556 162.229279 
L 312.689887 159.070426 
L 313.446379 158.74064 
L 313.698543 156.711122 
L 313.950707 158.350864 
L 314.20287 157.043854 
L 314.455034 156.533443 
L 315.211526 155.818471 
L 315.46369 156.371499 
L 315.715854 155.472297 
L 315.968017 156.177762 
L 316.220181 155.114975 
L 316.976673 155.616538 
L 317.228837 156.117769 
L 317.481001 155.259216 
L 317.733164 155.160214 
L 317.985328 154.145619 
L 318.74182 152.970717 
L 318.993984 152.818937 
L 319.246147 152.234768 
L 319.498311 153.620783 
L 319.750475 154.192167 
L 320.506967 155.506392 
L 320.759131 154.510805 
L 321.011294 154.124967 
L 321.263458 152.479647 
L 321.515622 152.492104 
L 322.272114 153.064149 
L 322.524278 153.692901 
L 323.028605 150.642882 
L 323.280769 150.603874 
L 324.037261 150.172465 
L 324.289424 151.400797 
L 324.541588 149.974465 
L 325.045916 150.274744 
L 325.802408 150.078053 
L 326.054571 151.252299 
L 326.558899 152.504889 
L 326.811063 152.121672 
L 327.567555 153.934503 
L 327.819718 153.160197 
L 328.324046 152.872044 
L 328.57621 154.089232 
L 329.332701 152.846477 
L 329.584865 153.117907 
L 329.837029 154.119064 
L 330.089193 154.361978 
L 330.341357 154.068579 
L 331.097848 153.45753 
L 331.350012 153.759777 
L 331.85434 153.909916 
L 332.106504 154.551782 
L 333.115159 154.971391 
L 333.115159 154.971391 
" clip-path="url(#p5489e8a3df)" style="fill: none; stroke: #d3d3d3; stroke-linecap: square"/>
   </g>
   <g id="patch_3">
    <path d="M 42.925 168.678292 
L 42.925 26.8 
" style="fill: none; stroke: #000000; stroke-width: 0.8; stroke-linejoin: miter; stroke-linecap: square"/>
   </g>
   <g id="patch_4">
    <path d="M 346.933738 168.678292 
L 346.933738 26.8 
" style="fill: none; stroke: #000000; stroke-width: 0.8; stroke-linejoin: miter; stroke-linecap: square"/>
   </g>
   <g id="patch_5">
    <path d="M 42.925 168.678292 
L 346.933738 168.678292 
" style="fill: none; stroke: #000000; stroke-width: 0.8; stroke-linejoin: miter; stroke-linecap: square"/>
   </g>
   <g id="patch_6">
    <path d="M 42.925 26.8 
L 346.933738 26.8 
" style="fill: none; stroke: #000000; stroke-width: 0.8; stroke-linejoin: miter; stroke-linecap: square"/>
   </g>
   <g id="text_16">
    <!-- NASDAQ -->
    <g transform="translate(169.289682 20.8)scale(0.12 -0.12)">
     <defs>
      <path id="DejaVuSans-4e" d="M 628 4666 
L 1478 4666 
L 3547 763 
L 3547 4666 
L 4159 4666 
L 4159 0 
L 3309 0 
L 1241 3903 
L 1241 0 
L 628 0 
L 628 4666 
z
" transform="scale(0.015625)"/>
      <path id="DejaVuSans-41" d="M 2188 4044 
L 1331 1722 
L 3047 1722 
L 2188 4044 
z
M 1831 4666 
L 2547 4666 
L 4325 0 
L 3669 0 
L 3244 1197 
L 1141 1197 
L 716 0 
L 50 0 
L 1831 4666 
z
" transform="scale(0.015625)"/>
      <path id="DejaVuSans-53" d="M 3425 4513 
L 3425 3897 
Q 3066 4069 2747 4153 
Q 2428 4238 2131 4238 
Q 1616 4238 1336 4038 
Q 1056 3838 1056 3469 
Q 1056 3159 1242 3001 
Q 1428 2844 1947 2747 
L 2328 2669 
Q 3034 2534 3370 2195 
Q 3706 1856 3706 1288 
Q 3706 609 3251 259 
Q 2797 -91 1919 -91 
Q 1588 -91 1214 -16 
Q 841 59 441 206 
L 441 856 
Q 825 641 1194 531 
Q 1563 422 1919 422 
Q 2459 422 2753 634 
Q 3047 847 3047 1241 
Q 3047 1584 2836 1778 
Q 2625 1972 2144 2069 
L 1759 2144 
Q 1053 2284 737 2584 
Q 422 2884 422 3419 
Q 422 4038 858 4394 
Q 1294 4750 2059 4750 
Q 2388 4750 2728 4690 
Q 3069 4631 3425 4513 
z
" transform="scale(0.015625)"/>
      <path id="DejaVuSans-44" d="M 1259 4147 
L 1259 519 
L 2022 519 
Q 2988 519 3436 956 
Q 3884 1394 3884 2338 
Q 3884 3275 3436 3711 
Q 2988 4147 2022 4147 
L 1259 4147 
z
M 628 4666 
L 1925 4666 
Q 3281 4666 3915 4102 
Q 4550 3538 4550 2338 
Q 4550 1131 3912 565 
Q 3275 0 1925 0 
L 628 0 
L 628 4666 
z
" transform="scale(0.015625)"/>
      <path id="DejaVuSans-51" d="M 2522 4238 
Q 1834 4238 1429 3725 
Q 1025 3213 1025 2328 
Q 1025 1447 1429 934 
Q 1834 422 2522 422 
Q 3209 422 3611 934 
Q 4013 1447 4013 2328 
Q 4013 3213 3611 3725 
Q 3209 4238 2522 4238 
z
M 3406 84 
L 4238 -825 
L 3475 -825 
L 2784 -78 
Q 2681 -84 2626 -87 
Q 2572 -91 2522 -91 
Q 1538 -91 948 567 
Q 359 1225 359 2328 
Q 359 3434 948 4092 
Q 1538 4750 2522 4750 
Q 3503 4750 4090 4092 
Q 4678 3434 4678 2328 
Q 4678 1516 4351 937 
Q 4025 359 3406 84 
z
" transform="scale(0.015625)"/>
     </defs>
     <use xlink:href="#DejaVuSans-4e"/>
     <use xlink:href="#DejaVuSans-41" x="74.804688"/>
     <use xlink:href="#DejaVuSans-53" x="143.212891"/>
     <use xlink:href="#DejaVuSans-44" x="206.689453"/>
     <use xlink:href="#DejaVuSans-41" x="281.941406"/>
     <use xlink:href="#DejaVuSans-51" x="348.599609"/>
    </g>
   </g>
  </g>
 </g>
 <defs>
  <clipPath id="p5489e8a3df">
   <rect x="42.925" y="26.8" width="304.008738" height="141.878292"/>
  </clipPath>
 </defs>
</svg>
