<?xml version="1.0" encoding="utf-8" standalone="no"?>
<!DOCTYPE svg PUBLIC "-//W3C//DTD SVG 1.1//EN"
  "http://www.w3.org/Graphics/SVG/1.1/DTD/svg11.dtd">
<svg xmlns:xlink="http://www.w3.org/1999/xlink" width="360pt" height="216pt" viewBox="0 0 360 216" xmlns="http://www.w3.org/2000/svg" version="1.1">
 <metadata>
  <rdf:RDF xmlns:dc="http://purl.org/dc/elements/1.1/" xmlns:cc="http://creativecommons.org/ns#" xmlns:rdf="http://www.w3.org/1999/02/22-rdf-syntax-ns#">
   <cc:Work>
    <dc:type rdf:resource="http://purl.org/dc/dcmitype/StillImage"/>
    <dc:date>2022-10-04T16:17:57.517681</dc:date>
    <dc:format>image/svg+xml</dc:format>
    <dc:creator>
     <cc:Agent>
      <dc:title>Matplotlib v3.5.2, https://matplotlib.org/</dc:title>
     </cc:Agent>
    </dc:creator>
   </cc:Work>
  </rdf:RDF>
 </metadata>
 <defs>
  <style type="text/css">*{stroke-linejoin: round; stroke-linecap: butt}</style>
 </defs>
 <g id="figure_1">
  <g id="patch_1">
   <path d="M 0 216 
L 360 216 
L 360 0 
L 0 0 
z
" style="fill: #ffffff"/>
  </g>
  <g id="axes_1">
   <g id="patch_2">
    <path d="M 49.48 168.671221 
L 347.940626 168.671221 
L 347.940626 26.88 
L 49.48 26.88 
z
" style="fill: #ffffff"/>
   </g>
   <g id="matplotlib.axis_1">
    <g id="xtick_1">
     <g id="line2d_1">
      <defs>
       <path id="mb8dd0ac859" d="M 0 0 
L 0 3.5 
" style="stroke: #000000; stroke-width: 0.8"/>
      </defs>
      <g>
       <use xlink:href="#mb8dd0ac859" x="63.46968" y="168.671221" style="stroke: #000000; stroke-width: 0.8"/>
      </g>
     </g>
     <g id="text_1">
      <!-- '21-01 -->
      <g transform="translate(54.175646 203.534543)rotate(-45)scale(0.1 -0.1)">
       <defs>
        <path id="DejaVuSans-27" d="M 1147 4666 
L 1147 2931 
L 616 2931 
L 616 4666 
L 1147 4666 
z
" transform="scale(0.015625)"/>
        <path id="DejaVuSans-32" d="M 1228 531 
L 3431 531 
L 3431 0 
L 469 0 
L 469 531 
Q 828 903 1448 1529 
Q 2069 2156 2228 2338 
Q 2531 2678 2651 2914 
Q 2772 3150 2772 3378 
Q 2772 3750 2511 3984 
Q 2250 4219 1831 4219 
Q 1534 4219 1204 4116 
Q 875 4013 500 3803 
L 500 4441 
Q 881 4594 1212 4672 
Q 1544 4750 1819 4750 
Q 2544 4750 2975 4387 
Q 3406 4025 3406 3419 
Q 3406 3131 3298 2873 
Q 3191 2616 2906 2266 
Q 2828 2175 2409 1742 
Q 1991 1309 1228 531 
z
" transform="scale(0.015625)"/>
        <path id="DejaVuSans-31" d="M 794 531 
L 1825 531 
L 1825 4091 
L 703 3866 
L 703 4441 
L 1819 4666 
L 2450 4666 
L 2450 531 
L 3481 531 
L 3481 0 
L 794 0 
L 794 531 
z
" transform="scale(0.015625)"/>
        <path id="DejaVuSans-2d" d="M 313 2009 
L 1997 2009 
L 1997 1497 
L 313 1497 
L 313 2009 
z
" transform="scale(0.015625)"/>
        <path id="DejaVuSans-30" d="M 2034 4250 
Q 1547 4250 1301 3770 
Q 1056 3291 1056 2328 
Q 1056 1369 1301 889 
Q 1547 409 2034 409 
Q 2525 409 2770 889 
Q 3016 1369 3016 2328 
Q 3016 3291 2770 3770 
Q 2525 4250 2034 4250 
z
M 2034 4750 
Q 2819 4750 3233 4129 
Q 3647 3509 3647 2328 
Q 3647 1150 3233 529 
Q 2819 -91 2034 -91 
Q 1250 -91 836 529 
Q 422 1150 422 2328 
Q 422 3509 836 4129 
Q 1250 4750 2034 4750 
z
" transform="scale(0.015625)"/>
       </defs>
       <use xlink:href="#DejaVuSans-27"/>
       <use xlink:href="#DejaVuSans-32" x="27.490234"/>
       <use xlink:href="#DejaVuSans-31" x="91.113281"/>
       <use xlink:href="#DejaVuSans-2d" x="154.736328"/>
       <use xlink:href="#DejaVuSans-30" x="190.820312"/>
       <use xlink:href="#DejaVuSans-31" x="254.443359"/>
      </g>
     </g>
    </g>
    <g id="xtick_2">
     <g id="line2d_2">
      <g>
       <use xlink:href="#mb8dd0ac859" x="101.565633" y="168.671221" style="stroke: #000000; stroke-width: 0.8"/>
      </g>
     </g>
     <g id="text_2">
      <!-- '21-04 -->
      <g transform="translate(92.271598 203.534543)rotate(-45)scale(0.1 -0.1)">
       <defs>
        <path id="DejaVuSans-34" d="M 2419 4116 
L 825 1625 
L 2419 1625 
L 2419 4116 
z
M 2253 4666 
L 3047 4666 
L 3047 1625 
L 3713 1625 
L 3713 1100 
L 3047 1100 
L 3047 0 
L 2419 0 
L 2419 1100 
L 313 1100 
L 313 1709 
L 2253 4666 
z
" transform="scale(0.015625)"/>
       </defs>
       <use xlink:href="#DejaVuSans-27"/>
       <use xlink:href="#DejaVuSans-32" x="27.490234"/>
       <use xlink:href="#DejaVuSans-31" x="91.113281"/>
       <use xlink:href="#DejaVuSans-2d" x="154.736328"/>
       <use xlink:href="#DejaVuSans-30" x="190.820312"/>
       <use xlink:href="#DejaVuSans-34" x="254.443359"/>
      </g>
     </g>
    </g>
    <g id="xtick_3">
     <g id="line2d_3">
      <g>
       <use xlink:href="#mb8dd0ac859" x="140.084874" y="168.671221" style="stroke: #000000; stroke-width: 0.8"/>
      </g>
     </g>
     <g id="text_3">
      <!-- '21-07 -->
      <g transform="translate(130.79084 203.534543)rotate(-45)scale(0.1 -0.1)">
       <defs>
        <path id="DejaVuSans-37" d="M 525 4666 
L 3525 4666 
L 3525 4397 
L 1831 0 
L 1172 0 
L 2766 4134 
L 525 4134 
L 525 4666 
z
" transform="scale(0.015625)"/>
       </defs>
       <use xlink:href="#DejaVuSans-27"/>
       <use xlink:href="#DejaVuSans-32" x="27.490234"/>
       <use xlink:href="#DejaVuSans-31" x="91.113281"/>
       <use xlink:href="#DejaVuSans-2d" x="154.736328"/>
       <use xlink:href="#DejaVuSans-30" x="190.820312"/>
       <use xlink:href="#DejaVuSans-37" x="254.443359"/>
      </g>
     </g>
    </g>
    <g id="xtick_4">
     <g id="line2d_4">
      <g>
       <use xlink:href="#mb8dd0ac859" x="179.027404" y="168.671221" style="stroke: #000000; stroke-width: 0.8"/>
      </g>
     </g>
     <g id="text_4">
      <!-- '21-10 -->
      <g transform="translate(169.733369 203.534543)rotate(-45)scale(0.1 -0.1)">
       <use xlink:href="#DejaVuSans-27"/>
       <use xlink:href="#DejaVuSans-32" x="27.490234"/>
       <use xlink:href="#DejaVuSans-31" x="91.113281"/>
       <use xlink:href="#DejaVuSans-2d" x="154.736328"/>
       <use xlink:href="#DejaVuSans-31" x="190.820312"/>
       <use xlink:href="#DejaVuSans-30" x="254.443359"/>
      </g>
     </g>
    </g>
    <g id="xtick_5">
     <g id="line2d_5">
      <g>
       <use xlink:href="#mb8dd0ac859" x="217.969933" y="168.671221" style="stroke: #000000; stroke-width: 0.8"/>
      </g>
     </g>
     <g id="text_5">
      <!-- '22-01 -->
      <g transform="translate(208.675899 203.534543)rotate(-45)scale(0.1 -0.1)">
       <use xlink:href="#DejaVuSans-27"/>
       <use xlink:href="#DejaVuSans-32" x="27.490234"/>
       <use xlink:href="#DejaVuSans-32" x="91.113281"/>
       <use xlink:href="#DejaVuSans-2d" x="154.736328"/>
       <use xlink:href="#DejaVuSans-30" x="190.820312"/>
       <use xlink:href="#DejaVuSans-31" x="254.443359"/>
      </g>
     </g>
    </g>
    <g id="xtick_6">
     <g id="line2d_6">
      <g>
       <use xlink:href="#mb8dd0ac859" x="256.065886" y="168.671221" style="stroke: #000000; stroke-width: 0.8"/>
      </g>
     </g>
     <g id="text_6">
      <!-- '22-04 -->
      <g transform="translate(246.771851 203.534543)rotate(-45)scale(0.1 -0.1)">
       <use xlink:href="#DejaVuSans-27"/>
       <use xlink:href="#DejaVuSans-32" x="27.490234"/>
       <use xlink:href="#DejaVuSans-32" x="91.113281"/>
       <use xlink:href="#DejaVuSans-2d" x="154.736328"/>
       <use xlink:href="#DejaVuSans-30" x="190.820312"/>
       <use xlink:href="#DejaVuSans-34" x="254.443359"/>
      </g>
     </g>
    </g>
    <g id="xtick_7">
     <g id="line2d_7">
      <g>
       <use xlink:href="#mb8dd0ac859" x="294.585127" y="168.671221" style="stroke: #000000; stroke-width: 0.8"/>
      </g>
     </g>
     <g id="text_7">
      <!-- '22-07 -->
      <g transform="translate(285.291092 203.534543)rotate(-45)scale(0.1 -0.1)">
       <use xlink:href="#DejaVuSans-27"/>
       <use xlink:href="#DejaVuSans-32" x="27.490234"/>
       <use xlink:href="#DejaVuSans-32" x="91.113281"/>
       <use xlink:href="#DejaVuSans-2d" x="154.736328"/>
       <use xlink:href="#DejaVuSans-30" x="190.820312"/>
       <use xlink:href="#DejaVuSans-37" x="254.443359"/>
      </g>
     </g>
    </g>
    <g id="xtick_8">
     <g id="line2d_8">
      <g>
       <use xlink:href="#mb8dd0ac859" x="333.527657" y="168.671221" style="stroke: #000000; stroke-width: 0.8"/>
      </g>
     </g>
     <g id="text_8">
      <!-- '22-10 -->
      <g transform="translate(324.233622 203.534543)rotate(-45)scale(0.1 -0.1)">
       <use xlink:href="#DejaVuSans-27"/>
       <use xlink:href="#DejaVuSans-32" x="27.490234"/>
       <use xlink:href="#DejaVuSans-32" x="91.113281"/>
       <use xlink:href="#DejaVuSans-2d" x="154.736328"/>
       <use xlink:href="#DejaVuSans-31" x="190.820312"/>
       <use xlink:href="#DejaVuSans-30" x="254.443359"/>
      </g>
     </g>
    </g>
   </g>
   <g id="matplotlib.axis_2">
    <g id="ytick_1">
     <g id="line2d_9">
      <defs>
       <path id="mb07872c091" d="M 0 0 
L -3.5 0 
" style="stroke: #000000; stroke-width: 0.8"/>
      </defs>
      <g>
       <use xlink:href="#mb07872c091" x="49.48" y="152.247174" style="stroke: #000000; stroke-width: 0.8"/>
      </g>
     </g>
     <g id="text_9">
      <!-- 11000 -->
      <g transform="translate(10.6675 156.046393)scale(0.1 -0.1)">
       <use xlink:href="#DejaVuSans-31"/>
       <use xlink:href="#DejaVuSans-31" x="63.623047"/>
       <use xlink:href="#DejaVuSans-30" x="127.246094"/>
       <use xlink:href="#DejaVuSans-30" x="190.869141"/>
       <use xlink:href="#DejaVuSans-30" x="254.492188"/>
      </g>
     </g>
    </g>
    <g id="ytick_2">
     <g id="line2d_10">
      <g>
       <use xlink:href="#mb07872c091" x="49.48" y="128.732884" style="stroke: #000000; stroke-width: 0.8"/>
      </g>
     </g>
     <g id="text_10">
      <!-- 12000 -->
      <g transform="translate(10.6675 132.532103)scale(0.1 -0.1)">
       <use xlink:href="#DejaVuSans-31"/>
       <use xlink:href="#DejaVuSans-32" x="63.623047"/>
       <use xlink:href="#DejaVuSans-30" x="127.246094"/>
       <use xlink:href="#DejaVuSans-30" x="190.869141"/>
       <use xlink:href="#DejaVuSans-30" x="254.492188"/>
      </g>
     </g>
    </g>
    <g id="ytick_3">
     <g id="line2d_11">
      <g>
       <use xlink:href="#mb07872c091" x="49.48" y="105.218595" style="stroke: #000000; stroke-width: 0.8"/>
      </g>
     </g>
     <g id="text_11">
      <!-- 13000 -->
      <g transform="translate(10.6675 109.017814)scale(0.1 -0.1)">
       <defs>
        <path id="DejaVuSans-33" d="M 2597 2516 
Q 3050 2419 3304 2112 
Q 3559 1806 3559 1356 
Q 3559 666 3084 287 
Q 2609 -91 1734 -91 
Q 1441 -91 1130 -33 
Q 819 25 488 141 
L 488 750 
Q 750 597 1062 519 
Q 1375 441 1716 441 
Q 2309 441 2620 675 
Q 2931 909 2931 1356 
Q 2931 1769 2642 2001 
Q 2353 2234 1838 2234 
L 1294 2234 
L 1294 2753 
L 1863 2753 
Q 2328 2753 2575 2939 
Q 2822 3125 2822 3475 
Q 2822 3834 2567 4026 
Q 2313 4219 1838 4219 
Q 1578 4219 1281 4162 
Q 984 4106 628 3988 
L 628 4550 
Q 988 4650 1302 4700 
Q 1616 4750 1894 4750 
Q 2613 4750 3031 4423 
Q 3450 4097 3450 3541 
Q 3450 3153 3228 2886 
Q 3006 2619 2597 2516 
z
" transform="scale(0.015625)"/>
       </defs>
       <use xlink:href="#DejaVuSans-31"/>
       <use xlink:href="#DejaVuSans-33" x="63.623047"/>
       <use xlink:href="#DejaVuSans-30" x="127.246094"/>
       <use xlink:href="#DejaVuSans-30" x="190.869141"/>
       <use xlink:href="#DejaVuSans-30" x="254.492188"/>
      </g>
     </g>
    </g>
    <g id="ytick_4">
     <g id="line2d_12">
      <g>
       <use xlink:href="#mb07872c091" x="49.48" y="81.704305" style="stroke: #000000; stroke-width: 0.8"/>
      </g>
     </g>
     <g id="text_12">
      <!-- 14000 -->
      <g transform="translate(10.6675 85.503524)scale(0.1 -0.1)">
       <use xlink:href="#DejaVuSans-31"/>
       <use xlink:href="#DejaVuSans-34" x="63.623047"/>
       <use xlink:href="#DejaVuSans-30" x="127.246094"/>
       <use xlink:href="#DejaVuSans-30" x="190.869141"/>
       <use xlink:href="#DejaVuSans-30" x="254.492188"/>
      </g>
     </g>
    </g>
    <g id="ytick_5">
     <g id="line2d_13">
      <g>
       <use xlink:href="#mb07872c091" x="49.48" y="58.190016" style="stroke: #000000; stroke-width: 0.8"/>
      </g>
     </g>
     <g id="text_13">
      <!-- 15000 -->
      <g transform="translate(10.6675 61.989235)scale(0.1 -0.1)">
       <defs>
        <path id="DejaVuSans-35" d="M 691 4666 
L 3169 4666 
L 3169 4134 
L 1269 4134 
L 1269 2991 
Q 1406 3038 1543 3061 
Q 1681 3084 1819 3084 
Q 2600 3084 3056 2656 
Q 3513 2228 3513 1497 
Q 3513 744 3044 326 
Q 2575 -91 1722 -91 
Q 1428 -91 1123 -41 
Q 819 9 494 109 
L 494 744 
Q 775 591 1075 516 
Q 1375 441 1709 441 
Q 2250 441 2565 725 
Q 2881 1009 2881 1497 
Q 2881 1984 2565 2268 
Q 2250 2553 1709 2553 
Q 1456 2553 1204 2497 
Q 953 2441 691 2322 
L 691 4666 
z
" transform="scale(0.015625)"/>
       </defs>
       <use xlink:href="#DejaVuSans-31"/>
       <use xlink:href="#DejaVuSans-35" x="63.623047"/>
       <use xlink:href="#DejaVuSans-30" x="127.246094"/>
       <use xlink:href="#DejaVuSans-30" x="190.869141"/>
       <use xlink:href="#DejaVuSans-30" x="254.492188"/>
      </g>
     </g>
    </g>
    <g id="ytick_6">
     <g id="line2d_14">
      <g>
       <use xlink:href="#mb07872c091" x="49.48" y="34.675726" style="stroke: #000000; stroke-width: 0.8"/>
      </g>
     </g>
     <g id="text_14">
      <!-- 16000 -->
      <g transform="translate(10.6675 38.474945)scale(0.1 -0.1)">
       <defs>
        <path id="DejaVuSans-36" d="M 2113 2584 
Q 1688 2584 1439 2293 
Q 1191 2003 1191 1497 
Q 1191 994 1439 701 
Q 1688 409 2113 409 
Q 2538 409 2786 701 
Q 3034 994 3034 1497 
Q 3034 2003 2786 2293 
Q 2538 2584 2113 2584 
z
M 3366 4563 
L 3366 3988 
Q 3128 4100 2886 4159 
Q 2644 4219 2406 4219 
Q 1781 4219 1451 3797 
Q 1122 3375 1075 2522 
Q 1259 2794 1537 2939 
Q 1816 3084 2150 3084 
Q 2853 3084 3261 2657 
Q 3669 2231 3669 1497 
Q 3669 778 3244 343 
Q 2819 -91 2113 -91 
Q 1303 -91 875 529 
Q 447 1150 447 2328 
Q 447 3434 972 4092 
Q 1497 4750 2381 4750 
Q 2619 4750 2861 4703 
Q 3103 4656 3366 4563 
z
" transform="scale(0.015625)"/>
       </defs>
       <use xlink:href="#DejaVuSans-31"/>
       <use xlink:href="#DejaVuSans-36" x="63.623047"/>
       <use xlink:href="#DejaVuSans-30" x="127.246094"/>
       <use xlink:href="#DejaVuSans-30" x="190.869141"/>
       <use xlink:href="#DejaVuSans-30" x="254.492188"/>
      </g>
     </g>
    </g>
   </g>
   <g id="line2d_15">
    <path d="M 286.965937 156.732984 
L 287.389225 156.283411 
L 287.812513 149.915723 
L 288.235802 160.56889 
L 288.65909 156.98884 
L 290.352244 150.617638 
L 290.775532 150.999034 
L 291.19882 146.787381 
L 291.622109 137.959419 
L 292.891974 139.912758 
L 293.315262 147.978389 
L 293.73855 148.064225 
L 294.161839 151.571368 
L 294.585127 149.240881 
L 296.278281 144.669924 
L 296.701569 143.738537 
L 297.124857 137.636579 
L 297.548146 137.308321 
L 298.818011 143.485759 
L 299.241299 146.022225 
L 299.664588 146.425504 
L 300.087876 146.340609 
L 300.511164 141.608841 
L 301.781029 143.780859 
L 302.204318 135.477949 
L 302.627606 131.139563 
L 303.050894 127.331189 
L 303.474183 132.633662 
L 304.744048 133.843247 
L 305.167336 139.018733 
L 305.590625 127.970553 
L 306.013913 124.9097 
L 306.437201 119.546077 
L 307.707067 120.056571 
L 308.130355 120.532046 
L 308.553643 113.021573 
L 308.976932 111.788956 
L 309.40022 113.271068 
L 310.670085 113.578866 
L 311.093373 117.118479 
L 311.516662 108.632874 
L 311.93995 110.393851 
L 312.363239 104.108945 
L 313.633104 102.207595 
L 314.056392 102.807209 
L 314.47968 106.673656 
L 314.902969 106.033604 
L 315.326257 112.150144 
L 316.596122 119.76053 
L 317.019411 119.76689 
L 317.442699 118.585757 
L 317.865987 113.700916 
L 318.289276 125.400675 
L 319.559141 128.317389 
L 319.982429 131.480773 
L 320.405717 133.054806 
L 320.829006 133.785403 
L 321.252294 137.412941 
L 322.945448 139.433999 
L 323.368736 133.626199 
L 323.792024 131.974802 
L 324.215313 126.092005 
L 325.485178 122.468439 
L 325.908466 137.349218 
L 326.331755 135.324417 
L 326.755043 139.258813 
L 327.178331 141.703357 
L 328.448196 139.66657 
L 328.871485 142.25243 
L 329.294773 147.069552 
L 329.718061 150.676194 
L 330.14135 155.352713 
L 331.411215 156.881372 
L 331.834503 156.25636 
L 332.257792 151.032904 
L 332.68108 158.419445 
L 333.104368 162.226165 
L 334.374233 156.587214 
" clip-path="url(#pf2652a6296)" style="fill: none; stroke: #d3d3d3; stroke-linecap: square"/>
   </g>
   <g id="line2d_16">
    <path d="M 63.046392 107.845605 
L 64.739546 112.309324 
L 65.162834 109.475623 
L 65.586122 111.313733 
L 66.009411 103.63184 
L 66.432699 100.469168 
L 67.702564 104.361977 
L 68.125852 103.515462 
L 68.549141 102.186423 
L 68.972429 102.569954 
L 69.395718 105.253866 
L 71.088871 100.582055 
L 71.512159 94.466686 
L 71.935448 92.73462 
L 72.358736 92.448935 
L 73.628601 90.263736 
L 74.05189 90.497249 
L 74.475178 98.855637 
L 74.898466 97.290513 
L 75.321755 103.55636 
L 76.59162 95.733174 
L 77.014908 90.809502 
L 77.438196 90.86218 
L 77.861485 86.930586 
L 78.284773 85.083313 
L 79.554638 81.99495 
L 79.977927 81.523241 
L 80.401215 82.350236 
L 80.824503 81.098353 
L 81.247792 79.459403 
L 82.940945 80.587377 
L 83.787522 84.870261 
L 84.21081 84.65629 
L 85.480675 92.684307 
L 85.903964 94.279743 
L 86.327252 91.157762 
L 86.75054 102.410291 
L 87.173829 100.69563 
L 88.443694 91.372674 
L 88.866982 96.781902 
L 89.713559 111.721008 
L 90.136847 107.096202 
L 91.406712 114.408916 
L 91.830001 103.482763 
L 92.253289 103.600105 
L 92.676578 95.844155 
L 93.099866 97.697306 
L 94.369731 94.408842 
L 94.793019 94.129954 
L 95.216308 92.868885 
L 95.639596 102.486942 
L 96.062884 100.157374 
L 97.33275 96.341009 
L 97.756038 99.864387 
L 98.179326 106.114733 
L 98.602615 105.743441 
L 99.025903 101.956446 
L 100.295768 103.815958 
L 100.719056 104.15129 
L 101.565633 93.929141 
L 103.258787 88.627151 
L 104.105363 89.021015 
L 104.528652 85.71797 
L 104.95194 84.051257 
L 106.221805 85.231449 
L 106.645094 81.79602 
L 107.068382 85.0471 
L 107.49167 80.792897 
L 107.914959 80.473571 
L 109.184824 83.708439 
L 109.608112 86.730026 
L 110.0314 82.874853 
L 110.454689 85.974262 
L 110.877977 81.30904 
L 112.147842 78.440986 
L 112.994419 80.504365 
L 113.417707 79.763205 
L 113.840996 82.581866 
L 115.110861 84.170481 
L 115.534149 90.322292 
L 115.957438 91.523404 
L 116.380726 90.337816 
L 116.804014 87.5302 
L 118.073879 95.769134 
L 118.497168 96.061432 
L 118.920456 104.47367 
L 119.343744 102.279538 
L 119.767033 95.10791 
L 121.036898 96.305508 
L 121.460186 98.078724 
L 121.883475 98.170416 
L 122.306763 92.621044 
L 122.730051 94.143594 
L 123.999916 89.671654 
L 124.423205 89.765711 
L 124.846493 87.865049 
L 125.269782 87.905487 
L 125.69307 87.6125 
L 127.386223 87.90078 
L 127.809512 87.43403 
L 128.2328 90.768834 
L 128.656088 86.066436 
L 129.925954 84.485582 
L 130.349242 83.46999 
L 130.77253 83.779441 
L 131.195819 81.226258 
L 131.619107 80.071945 
L 132.888972 77.609535 
L 133.312261 79.991046 
L 133.735549 80.771266 
L 134.158837 77.910284 
L 134.582126 80.989944 
L 135.851991 78.377493 
L 136.275279 75.748852 
L 136.698567 75.314756 
L 137.121856 73.010838 
L 137.545144 73.229999 
L 138.815009 69.935174 
L 139.238298 69.280999 
L 139.661586 69.854275 
L 140.084874 69.420914 
L 140.508163 66.670913 
L 142.624605 66.065902 
L 143.047893 68.54147 
L 143.471181 65.199157 
L 144.741046 64.462682 
L 145.164335 65.769838 
L 145.587623 66.53876 
L 146.4342 71.658055 
L 147.704065 75.238335 
L 148.127353 69.973499 
L 148.550642 66.844446 
L 148.97393 65.606432 
L 149.397218 62.023075 
L 150.667083 61.935608 
L 151.090372 66.171234 
L 151.51366 63.772777 
L 151.936949 63.40408 
L 152.360237 65.88672 
L 153.630102 65.689421 
L 154.05339 63.803111 
L 154.476679 63.350691 
L 154.899967 60.656192 
L 155.323255 62.052008 
L 156.593121 61.477791 
L 157.016409 63.172933 
L 157.439697 63.71259 
L 157.862986 62.510537 
L 158.286274 62.354387 
L 159.556139 63.039608 
L 160.402716 69.337902 
L 160.826004 68.964498 
L 161.249293 64.89958 
L 162.942446 57.724438 
L 163.365734 57.205699 
L 163.789023 59.464265 
L 164.212311 55.144915 
L 165.482176 51.93781 
L 165.905465 52.094166 
L 166.328753 50.915168 
L 166.752041 50.402561 
L 167.17533 49.642112 
L 168.868483 49.38791 
L 169.291771 51.449888 
L 169.71506 52.352594 
L 170.138348 55.474345 
L 171.408213 55.707375 
L 171.831502 57.302122 
L 172.25479 54.391746 
L 172.678078 53.912298 
L 173.101367 57.156099 
L 174.371232 64.917445 
L 174.79452 64.153231 
L 175.641097 56.961624 
L 176.064385 57.06838 
L 177.33425 58.896156 
L 177.757539 68.849521 
L 178.180827 69.654633 
L 178.604115 71.156264 
L 179.027404 68.378753 
L 180.297269 75.696864 
L 180.720557 71.503099 
L 181.143846 69.902245 
L 181.567134 66.325501 
L 181.990422 68.076833 
L 183.260287 70.271653 
L 183.683576 70.748529 
L 184.106864 68.262605 
L 184.530153 62.341941 
L 184.953441 60.603997 
L 186.223306 57.677179 
L 186.646594 55.15456 
L 187.069883 55.328804 
L 187.493171 53.117979 
L 187.916459 56.069022 
L 189.186325 52.859092 
L 189.609613 52.647464 
L 190.032901 52.64441 
L 190.45619 47.65279 
L 190.879478 46.470737 
L 192.149343 44.177382 
L 192.572631 42.915143 
L 193.419208 36.079304 
L 193.842497 35.343771 
L 195.112362 35.09051 
L 195.53565 37.343657 
L 195.958938 43.547434 
L 196.382227 41.629366 
L 196.805515 37.945154 
L 198.07538 38.112349 
L 198.498669 35.290382 
L 198.921957 36.519945 
L 199.768534 33.325055 
L 201.461687 39.963158 
L 201.884975 38.315022 
L 202.731552 46.628977 
L 204.001417 39.782323 
L 204.847994 52.216215 
L 205.271282 49.22354 
L 205.694571 56.180256 
L 206.964436 52.895764 
L 207.387724 42.037582 
L 207.811013 39.6845 
L 208.234301 46.024425 
L 208.657589 43.361914 
L 209.927454 48.472024 
L 210.350743 52.602088 
L 210.774031 44.890802 
L 211.197319 53.94734 
L 211.620608 54.200119 
L 212.890473 58.638188 
L 213.313761 50.169531 
L 213.73705 45.918152 
L 214.160338 42.826482 
L 215.853491 37.702962 
L 216.27678 39.808432 
L 216.700068 40.172903 
L 217.123357 40.752769 
L 217.546645 43.024011 
L 218.81651 38.60732 
L 219.239798 43.547204 
L 219.663087 55.834591 
L 220.086375 56.288642 
L 220.509664 59.697273 
L 221.779529 59.534326 
L 222.202817 54.581744 
L 222.626105 53.760167 
L 223.049394 62.732752 
L 223.472682 60.688409 
L 225.165836 69.784903 
L 226.012412 78.082646 
L 226.435701 87.137989 
L 227.705566 85.110823 
L 228.128854 92.537573 
L 228.552142 92.471026 
L 228.975431 96.923217 
L 229.398719 87.099181 
L 230.668584 76.0637 
L 231.091873 73.568361 
L 231.515161 71.885918 
L 231.938449 84.55376 
L 232.361738 79.399675 
L 233.631603 81.335838 
L 234.054891 77.131947 
L 234.47818 70.1736 
L 234.901468 77.339121 
L 235.324756 86.615256 
L 236.594621 86.620675 
L 237.01791 78.417954 
L 237.441198 78.786421 
L 237.864486 88.36544 
L 238.287775 92.331111 
L 239.980928 96.247434 
L 240.404217 104.337039 
L 240.827505 94.082466 
L 241.250793 88.885096 
L 242.520658 87.549949 
L 242.943947 92.698177 
L 243.367235 87.53539 
L 244.213812 97.848266 
L 245.483677 109.193451 
L 245.906965 110.026096 
L 246.330254 99.209523 
L 246.753542 102.162679 
L 247.17683 108.891302 
L 248.446696 115.065915 
L 248.869984 106.426756 
L 249.293272 94.953436 
L 249.716561 90.762474 
L 250.139849 84.200586 
L 251.409714 85.502805 
L 251.833002 79.145473 
L 252.256291 83.524321 
L 252.679579 77.193328 
L 253.102868 77.723341 
L 254.372733 73.359075 
L 254.796021 67.133919 
L 255.642598 76.518945 
L 256.065886 75.555319 
L 257.335751 69.181775 
L 258.182328 84.318617 
L 258.605616 84.119228 
L 259.028905 88.499935 
L 260.29877 95.531649 
L 260.722058 96.481383 
L 261.145346 90.085037 
L 261.568635 96.963196 
L 263.261788 97.403377 
L 263.685077 90.647727 
L 264.108365 94.564968 
L 264.954942 108.997575 
L 266.224807 105.10456 
L 266.648095 117.193476 
L 267.071384 117.23605 
L 267.494672 108.239469 
L 267.91796 120.864071 
L 269.187825 116.128766 
L 269.611114 115.476474 
L 270.034402 106.044879 
L 270.45769 121.26262 
L 272.150844 137.591893 
L 272.574132 134.90139 
L 272.997421 143.682324 
L 273.420709 143.524314 
L 273.843997 133.318171 
L 275.113862 136.662137 
L 275.537151 129.096897 
L 275.960439 142.414665 
L 276.807016 143.908534 
L 278.076881 139.660691 
L 278.500169 146.028815 
L 278.923458 142.024566 
L 279.346746 134.831306 
L 279.770034 125.649458 
L 281.463188 126.819065 
L 281.886476 128.863154 
L 282.309765 121.281197 
L 282.733053 128.433536 
L 284.002918 127.28981 
L 284.426206 124.612464 
L 284.849495 126.704318 
L 285.696072 144.251856 
L 286.965937 156.732984 
L 286.965937 156.732984 
" clip-path="url(#pf2652a6296)" style="fill: none; stroke: #000000; stroke-linecap: square"/>
   </g>
   <g id="patch_3">
    <path d="M 49.48 168.671221 
L 49.48 26.88 
" style="fill: none; stroke: #000000; stroke-width: 0.8; stroke-linejoin: miter; stroke-linecap: square"/>
   </g>
   <g id="patch_4">
    <path d="M 347.940626 168.671221 
L 347.940626 26.88 
" style="fill: none; stroke: #000000; stroke-width: 0.8; stroke-linejoin: miter; stroke-linecap: square"/>
   </g>
   <g id="patch_5">
    <path d="M 49.48 168.671221 
L 347.940626 168.671221 
" style="fill: none; stroke: #000000; stroke-width: 0.8; stroke-linejoin: miter; stroke-linecap: square"/>
   </g>
   <g id="patch_6">
    <path d="M 49.48 26.88 
L 347.940626 26.88 
" style="fill: none; stroke: #000000; stroke-width: 0.8; stroke-linejoin: miter; stroke-linecap: square"/>
   </g>
   <g id="text_15">
    <!-- NASDAQ -->
    <g transform="translate(173.070625 20.88)scale(0.12 -0.12)">
     <defs>
      <path id="DejaVuSans-4e" d="M 628 4666 
L 1478 4666 
L 3547 763 
L 3547 4666 
L 4159 4666 
L 4159 0 
L 3309 0 
L 1241 3903 
L 1241 0 
L 628 0 
L 628 4666 
z
" transform="scale(0.015625)"/>
      <path id="DejaVuSans-41" d="M 2188 4044 
L 1331 1722 
L 3047 1722 
L 2188 4044 
z
M 1831 4666 
L 2547 4666 
L 4325 0 
L 3669 0 
L 3244 1197 
L 1141 1197 
L 716 0 
L 50 0 
L 1831 4666 
z
" transform="scale(0.015625)"/>
      <path id="DejaVuSans-53" d="M 3425 4513 
L 3425 3897 
Q 3066 4069 2747 4153 
Q 2428 4238 2131 4238 
Q 1616 4238 1336 4038 
Q 1056 3838 1056 3469 
Q 1056 3159 1242 3001 
Q 1428 2844 1947 2747 
L 2328 2669 
Q 3034 2534 3370 2195 
Q 3706 1856 3706 1288 
Q 3706 609 3251 259 
Q 2797 -91 1919 -91 
Q 1588 -91 1214 -16 
Q 841 59 441 206 
L 441 856 
Q 825 641 1194 531 
Q 1563 422 1919 422 
Q 2459 422 2753 634 
Q 3047 847 3047 1241 
Q 3047 1584 2836 1778 
Q 2625 1972 2144 2069 
L 1759 2144 
Q 1053 2284 737 2584 
Q 422 2884 422 3419 
Q 422 4038 858 4394 
Q 1294 4750 2059 4750 
Q 2388 4750 2728 4690 
Q 3069 4631 3425 4513 
z
" transform="scale(0.015625)"/>
      <path id="DejaVuSans-44" d="M 1259 4147 
L 1259 519 
L 2022 519 
Q 2988 519 3436 956 
Q 3884 1394 3884 2338 
Q 3884 3275 3436 3711 
Q 2988 4147 2022 4147 
L 1259 4147 
z
M 628 4666 
L 1925 4666 
Q 3281 4666 3915 4102 
Q 4550 3538 4550 2338 
Q 4550 1131 3912 565 
Q 3275 0 1925 0 
L 628 0 
L 628 4666 
z
" transform="scale(0.015625)"/>
      <path id="DejaVuSans-51" d="M 2522 4238 
Q 1834 4238 1429 3725 
Q 1025 3213 1025 2328 
Q 1025 1447 1429 934 
Q 1834 422 2522 422 
Q 3209 422 3611 934 
Q 4013 1447 4013 2328 
Q 4013 3213 3611 3725 
Q 3209 4238 2522 4238 
z
M 3406 84 
L 4238 -825 
L 3475 -825 
L 2784 -78 
Q 2681 -84 2626 -87 
Q 2572 -91 2522 -91 
Q 1538 -91 948 567 
Q 359 1225 359 2328 
Q 359 3434 948 4092 
Q 1538 4750 2522 4750 
Q 3503 4750 4090 4092 
Q 4678 3434 4678 2328 
Q 4678 1516 4351 937 
Q 4025 359 3406 84 
z
" transform="scale(0.015625)"/>
     </defs>
     <use xlink:href="#DejaVuSans-4e"/>
     <use xlink:href="#DejaVuSans-41" x="74.804688"/>
     <use xlink:href="#DejaVuSans-53" x="143.212891"/>
     <use xlink:href="#DejaVuSans-44" x="206.689453"/>
     <use xlink:href="#DejaVuSans-41" x="281.941406"/>
     <use xlink:href="#DejaVuSans-51" x="348.599609"/>
    </g>
   </g>
  </g>
 </g>
 <defs>
  <clipPath id="pf2652a6296">
   <rect x="49.48" y="26.88" width="298.460626" height="141.791221"/>
  </clipPath>
 </defs>
</svg>
