<?xml version="1.0" encoding="utf-8" standalone="no"?>
<!DOCTYPE svg PUBLIC "-//W3C//DTD SVG 1.1//EN"
  "http://www.w3.org/Graphics/SVG/1.1/DTD/svg11.dtd">
<svg xmlns:xlink="http://www.w3.org/1999/xlink" width="360pt" height="216pt" viewBox="0 0 360 216" xmlns="http://www.w3.org/2000/svg" version="1.1">
 <metadata>
  <rdf:RDF xmlns:dc="http://purl.org/dc/elements/1.1/" xmlns:cc="http://creativecommons.org/ns#" xmlns:rdf="http://www.w3.org/1999/02/22-rdf-syntax-ns#">
   <cc:Work>
    <dc:type rdf:resource="http://purl.org/dc/dcmitype/StillImage"/>
    <dc:date>2023-03-24T15:03:31.024200</dc:date>
    <dc:format>image/svg+xml</dc:format>
    <dc:creator>
     <cc:Agent>
      <dc:title>Matplotlib v3.6.3, https://matplotlib.org/</dc:title>
     </cc:Agent>
    </dc:creator>
   </cc:Work>
  </rdf:RDF>
 </metadata>
 <defs>
  <style type="text/css">*{stroke-linejoin: round; stroke-linecap: butt}</style>
 </defs>
 <g id="figure_1">
  <g id="patch_1">
   <path d="M 0 216 
L 360 216 
L 360 0 
L 0 0 
z
" style="fill: #ffffff"/>
  </g>
  <g id="axes_1">
   <g id="patch_2">
    <path d="M 49.48 168.671221 
L 344.355765 168.671221 
L 344.355765 26.88 
L 49.48 26.88 
z
" style="fill: #ffffff"/>
   </g>
   <g id="matplotlib.axis_1">
    <g id="xtick_1">
     <g id="line2d_1">
      <defs>
       <path id="mdb05041422" d="M 0 0 
L 0 3.5 
" style="stroke: #000000; stroke-width: 0.8"/>
      </defs>
      <g>
       <use xlink:href="#mdb05041422" x="61.888087" y="168.671221" style="stroke: #000000; stroke-width: 0.8"/>
      </g>
     </g>
     <g id="text_1">
      <!-- '21-01 -->
      <g transform="translate(52.594053 203.534543) rotate(-45) scale(0.1 -0.1)">
       <defs>
        <path id="DejaVuSans-27" d="M 1147 4666 
L 1147 2931 
L 616 2931 
L 616 4666 
L 1147 4666 
z
" transform="scale(0.015625)"/>
        <path id="DejaVuSans-32" d="M 1228 531 
L 3431 531 
L 3431 0 
L 469 0 
L 469 531 
Q 828 903 1448 1529 
Q 2069 2156 2228 2338 
Q 2531 2678 2651 2914 
Q 2772 3150 2772 3378 
Q 2772 3750 2511 3984 
Q 2250 4219 1831 4219 
Q 1534 4219 1204 4116 
Q 875 4013 500 3803 
L 500 4441 
Q 881 4594 1212 4672 
Q 1544 4750 1819 4750 
Q 2544 4750 2975 4387 
Q 3406 4025 3406 3419 
Q 3406 3131 3298 2873 
Q 3191 2616 2906 2266 
Q 2828 2175 2409 1742 
Q 1991 1309 1228 531 
z
" transform="scale(0.015625)"/>
        <path id="DejaVuSans-31" d="M 794 531 
L 1825 531 
L 1825 4091 
L 703 3866 
L 703 4441 
L 1819 4666 
L 2450 4666 
L 2450 531 
L 3481 531 
L 3481 0 
L 794 0 
L 794 531 
z
" transform="scale(0.015625)"/>
        <path id="DejaVuSans-2d" d="M 313 2009 
L 1997 2009 
L 1997 1497 
L 313 1497 
L 313 2009 
z
" transform="scale(0.015625)"/>
        <path id="DejaVuSans-30" d="M 2034 4250 
Q 1547 4250 1301 3770 
Q 1056 3291 1056 2328 
Q 1056 1369 1301 889 
Q 1547 409 2034 409 
Q 2525 409 2770 889 
Q 3016 1369 3016 2328 
Q 3016 3291 2770 3770 
Q 2525 4250 2034 4250 
z
M 2034 4750 
Q 2819 4750 3233 4129 
Q 3647 3509 3647 2328 
Q 3647 1150 3233 529 
Q 2819 -91 2034 -91 
Q 1250 -91 836 529 
Q 422 1150 422 2328 
Q 422 3509 836 4129 
Q 1250 4750 2034 4750 
z
" transform="scale(0.015625)"/>
       </defs>
       <use xlink:href="#DejaVuSans-27"/>
       <use xlink:href="#DejaVuSans-32" x="27.490234"/>
       <use xlink:href="#DejaVuSans-31" x="91.113281"/>
       <use xlink:href="#DejaVuSans-2d" x="154.736328"/>
       <use xlink:href="#DejaVuSans-30" x="190.820312"/>
       <use xlink:href="#DejaVuSans-31" x="254.443359"/>
      </g>
     </g>
    </g>
    <g id="xtick_2">
     <g id="line2d_2">
      <g>
       <use xlink:href="#mdb05041422" x="91.73496" y="168.671221" style="stroke: #000000; stroke-width: 0.8"/>
      </g>
     </g>
     <g id="text_2">
      <!-- '21-04 -->
      <g transform="translate(82.440925 203.534543) rotate(-45) scale(0.1 -0.1)">
       <defs>
        <path id="DejaVuSans-34" d="M 2419 4116 
L 825 1625 
L 2419 1625 
L 2419 4116 
z
M 2253 4666 
L 3047 4666 
L 3047 1625 
L 3713 1625 
L 3713 1100 
L 3047 1100 
L 3047 0 
L 2419 0 
L 2419 1100 
L 313 1100 
L 313 1709 
L 2253 4666 
z
" transform="scale(0.015625)"/>
       </defs>
       <use xlink:href="#DejaVuSans-27"/>
       <use xlink:href="#DejaVuSans-32" x="27.490234"/>
       <use xlink:href="#DejaVuSans-31" x="91.113281"/>
       <use xlink:href="#DejaVuSans-2d" x="154.736328"/>
       <use xlink:href="#DejaVuSans-30" x="190.820312"/>
       <use xlink:href="#DejaVuSans-34" x="254.443359"/>
      </g>
     </g>
    </g>
    <g id="xtick_3">
     <g id="line2d_3">
      <g>
       <use xlink:href="#mdb05041422" x="121.927442" y="168.671221" style="stroke: #000000; stroke-width: 0.8"/>
      </g>
     </g>
     <g id="text_3">
      <!-- '21-07 -->
      <g transform="translate(112.633408 203.534543) rotate(-45) scale(0.1 -0.1)">
       <defs>
        <path id="DejaVuSans-37" d="M 525 4666 
L 3525 4666 
L 3525 4397 
L 1831 0 
L 1172 0 
L 2766 4134 
L 525 4134 
L 525 4666 
z
" transform="scale(0.015625)"/>
       </defs>
       <use xlink:href="#DejaVuSans-27"/>
       <use xlink:href="#DejaVuSans-32" x="27.490234"/>
       <use xlink:href="#DejaVuSans-31" x="91.113281"/>
       <use xlink:href="#DejaVuSans-2d" x="154.736328"/>
       <use xlink:href="#DejaVuSans-30" x="190.820312"/>
       <use xlink:href="#DejaVuSans-37" x="254.443359"/>
      </g>
     </g>
    </g>
    <g id="xtick_4">
     <g id="line2d_4">
      <g>
       <use xlink:href="#mdb05041422" x="152.45171" y="168.671221" style="stroke: #000000; stroke-width: 0.8"/>
      </g>
     </g>
     <g id="text_4">
      <!-- '21-10 -->
      <g transform="translate(143.157676 203.534543) rotate(-45) scale(0.1 -0.1)">
       <use xlink:href="#DejaVuSans-27"/>
       <use xlink:href="#DejaVuSans-32" x="27.490234"/>
       <use xlink:href="#DejaVuSans-31" x="91.113281"/>
       <use xlink:href="#DejaVuSans-2d" x="154.736328"/>
       <use xlink:href="#DejaVuSans-31" x="190.820312"/>
       <use xlink:href="#DejaVuSans-30" x="254.443359"/>
      </g>
     </g>
    </g>
    <g id="xtick_5">
     <g id="line2d_5">
      <g>
       <use xlink:href="#mdb05041422" x="182.989803" y="168.671221" style="stroke: #000000; stroke-width: 0.8"/>
      </g>
     </g>
     <g id="text_5">
      <!-- '22-01 -->
      <g transform="translate(173.695768 203.534543) rotate(-45) scale(0.1 -0.1)">
       <use xlink:href="#DejaVuSans-27"/>
       <use xlink:href="#DejaVuSans-32" x="27.490234"/>
       <use xlink:href="#DejaVuSans-32" x="91.113281"/>
       <use xlink:href="#DejaVuSans-2d" x="154.736328"/>
       <use xlink:href="#DejaVuSans-30" x="190.820312"/>
       <use xlink:href="#DejaVuSans-31" x="254.443359"/>
      </g>
     </g>
    </g>
    <g id="xtick_6">
     <g id="line2d_6">
      <g>
       <use xlink:href="#mdb05041422" x="212.836675" y="168.671221" style="stroke: #000000; stroke-width: 0.8"/>
      </g>
     </g>
     <g id="text_6">
      <!-- '22-04 -->
      <g transform="translate(203.542641 203.534543) rotate(-45) scale(0.1 -0.1)">
       <use xlink:href="#DejaVuSans-27"/>
       <use xlink:href="#DejaVuSans-32" x="27.490234"/>
       <use xlink:href="#DejaVuSans-32" x="91.113281"/>
       <use xlink:href="#DejaVuSans-2d" x="154.736328"/>
       <use xlink:href="#DejaVuSans-30" x="190.820312"/>
       <use xlink:href="#DejaVuSans-34" x="254.443359"/>
      </g>
     </g>
    </g>
    <g id="xtick_7">
     <g id="line2d_7">
      <g>
       <use xlink:href="#mdb05041422" x="243.029158" y="168.671221" style="stroke: #000000; stroke-width: 0.8"/>
      </g>
     </g>
     <g id="text_7">
      <!-- '22-07 -->
      <g transform="translate(233.735123 203.534543) rotate(-45) scale(0.1 -0.1)">
       <use xlink:href="#DejaVuSans-27"/>
       <use xlink:href="#DejaVuSans-32" x="27.490234"/>
       <use xlink:href="#DejaVuSans-32" x="91.113281"/>
       <use xlink:href="#DejaVuSans-2d" x="154.736328"/>
       <use xlink:href="#DejaVuSans-30" x="190.820312"/>
       <use xlink:href="#DejaVuSans-37" x="254.443359"/>
      </g>
     </g>
    </g>
    <g id="xtick_8">
     <g id="line2d_8">
      <g>
       <use xlink:href="#mdb05041422" x="273.553426" y="168.671221" style="stroke: #000000; stroke-width: 0.8"/>
      </g>
     </g>
     <g id="text_8">
      <!-- '22-10 -->
      <g transform="translate(264.259391 203.534543) rotate(-45) scale(0.1 -0.1)">
       <use xlink:href="#DejaVuSans-27"/>
       <use xlink:href="#DejaVuSans-32" x="27.490234"/>
       <use xlink:href="#DejaVuSans-32" x="91.113281"/>
       <use xlink:href="#DejaVuSans-2d" x="154.736328"/>
       <use xlink:href="#DejaVuSans-31" x="190.820312"/>
       <use xlink:href="#DejaVuSans-30" x="254.443359"/>
      </g>
     </g>
    </g>
    <g id="xtick_9">
     <g id="line2d_9">
      <g>
       <use xlink:href="#mdb05041422" x="304.091518" y="168.671221" style="stroke: #000000; stroke-width: 0.8"/>
      </g>
     </g>
     <g id="text_9">
      <!-- '23-01 -->
      <g transform="translate(294.797483 203.534543) rotate(-45) scale(0.1 -0.1)">
       <defs>
        <path id="DejaVuSans-33" d="M 2597 2516 
Q 3050 2419 3304 2112 
Q 3559 1806 3559 1356 
Q 3559 666 3084 287 
Q 2609 -91 1734 -91 
Q 1441 -91 1130 -33 
Q 819 25 488 141 
L 488 750 
Q 750 597 1062 519 
Q 1375 441 1716 441 
Q 2309 441 2620 675 
Q 2931 909 2931 1356 
Q 2931 1769 2642 2001 
Q 2353 2234 1838 2234 
L 1294 2234 
L 1294 2753 
L 1863 2753 
Q 2328 2753 2575 2939 
Q 2822 3125 2822 3475 
Q 2822 3834 2567 4026 
Q 2313 4219 1838 4219 
Q 1578 4219 1281 4162 
Q 984 4106 628 3988 
L 628 4550 
Q 988 4650 1302 4700 
Q 1616 4750 1894 4750 
Q 2613 4750 3031 4423 
Q 3450 4097 3450 3541 
Q 3450 3153 3228 2886 
Q 3006 2619 2597 2516 
z
" transform="scale(0.015625)"/>
       </defs>
       <use xlink:href="#DejaVuSans-27"/>
       <use xlink:href="#DejaVuSans-32" x="27.490234"/>
       <use xlink:href="#DejaVuSans-33" x="91.113281"/>
       <use xlink:href="#DejaVuSans-2d" x="154.736328"/>
       <use xlink:href="#DejaVuSans-30" x="190.820312"/>
       <use xlink:href="#DejaVuSans-31" x="254.443359"/>
      </g>
     </g>
    </g>
    <g id="xtick_10">
     <g id="line2d_10">
      <g>
       <use xlink:href="#mdb05041422" x="333.938391" y="168.671221" style="stroke: #000000; stroke-width: 0.8"/>
      </g>
     </g>
     <g id="text_10">
      <!-- '23-04 -->
      <g transform="translate(324.644356 203.534543) rotate(-45) scale(0.1 -0.1)">
       <use xlink:href="#DejaVuSans-27"/>
       <use xlink:href="#DejaVuSans-32" x="27.490234"/>
       <use xlink:href="#DejaVuSans-33" x="91.113281"/>
       <use xlink:href="#DejaVuSans-2d" x="154.736328"/>
       <use xlink:href="#DejaVuSans-30" x="190.820312"/>
       <use xlink:href="#DejaVuSans-34" x="254.443359"/>
      </g>
     </g>
    </g>
   </g>
   <g id="matplotlib.axis_2">
    <g id="ytick_1">
     <g id="line2d_11">
      <defs>
       <path id="mc088515fb8" d="M 0 0 
L -3.5 0 
" style="stroke: #000000; stroke-width: 0.8"/>
      </defs>
      <g>
       <use xlink:href="#mc088515fb8" x="49.48" y="166.930583" style="stroke: #000000; stroke-width: 0.8"/>
      </g>
     </g>
     <g id="text_11">
      <!-- 10000 -->
      <g transform="translate(10.6675 170.729801) scale(0.1 -0.1)">
       <use xlink:href="#DejaVuSans-31"/>
       <use xlink:href="#DejaVuSans-30" x="63.623047"/>
       <use xlink:href="#DejaVuSans-30" x="127.246094"/>
       <use xlink:href="#DejaVuSans-30" x="190.869141"/>
       <use xlink:href="#DejaVuSans-30" x="254.492188"/>
      </g>
     </g>
    </g>
    <g id="ytick_2">
     <g id="line2d_12">
      <g>
       <use xlink:href="#mc088515fb8" x="49.48" y="144.87415" style="stroke: #000000; stroke-width: 0.8"/>
      </g>
     </g>
     <g id="text_12">
      <!-- 11000 -->
      <g transform="translate(10.6675 148.673369) scale(0.1 -0.1)">
       <use xlink:href="#DejaVuSans-31"/>
       <use xlink:href="#DejaVuSans-31" x="63.623047"/>
       <use xlink:href="#DejaVuSans-30" x="127.246094"/>
       <use xlink:href="#DejaVuSans-30" x="190.869141"/>
       <use xlink:href="#DejaVuSans-30" x="254.492188"/>
      </g>
     </g>
    </g>
    <g id="ytick_3">
     <g id="line2d_13">
      <g>
       <use xlink:href="#mc088515fb8" x="49.48" y="122.817717" style="stroke: #000000; stroke-width: 0.8"/>
      </g>
     </g>
     <g id="text_13">
      <!-- 12000 -->
      <g transform="translate(10.6675 126.616936) scale(0.1 -0.1)">
       <use xlink:href="#DejaVuSans-31"/>
       <use xlink:href="#DejaVuSans-32" x="63.623047"/>
       <use xlink:href="#DejaVuSans-30" x="127.246094"/>
       <use xlink:href="#DejaVuSans-30" x="190.869141"/>
       <use xlink:href="#DejaVuSans-30" x="254.492188"/>
      </g>
     </g>
    </g>
    <g id="ytick_4">
     <g id="line2d_14">
      <g>
       <use xlink:href="#mc088515fb8" x="49.48" y="100.761285" style="stroke: #000000; stroke-width: 0.8"/>
      </g>
     </g>
     <g id="text_14">
      <!-- 13000 -->
      <g transform="translate(10.6675 104.560503) scale(0.1 -0.1)">
       <use xlink:href="#DejaVuSans-31"/>
       <use xlink:href="#DejaVuSans-33" x="63.623047"/>
       <use xlink:href="#DejaVuSans-30" x="127.246094"/>
       <use xlink:href="#DejaVuSans-30" x="190.869141"/>
       <use xlink:href="#DejaVuSans-30" x="254.492188"/>
      </g>
     </g>
    </g>
    <g id="ytick_5">
     <g id="line2d_15">
      <g>
       <use xlink:href="#mc088515fb8" x="49.48" y="78.704852" style="stroke: #000000; stroke-width: 0.8"/>
      </g>
     </g>
     <g id="text_15">
      <!-- 14000 -->
      <g transform="translate(10.6675 82.504071) scale(0.1 -0.1)">
       <use xlink:href="#DejaVuSans-31"/>
       <use xlink:href="#DejaVuSans-34" x="63.623047"/>
       <use xlink:href="#DejaVuSans-30" x="127.246094"/>
       <use xlink:href="#DejaVuSans-30" x="190.869141"/>
       <use xlink:href="#DejaVuSans-30" x="254.492188"/>
      </g>
     </g>
    </g>
    <g id="ytick_6">
     <g id="line2d_16">
      <g>
       <use xlink:href="#mc088515fb8" x="49.48" y="56.648419" style="stroke: #000000; stroke-width: 0.8"/>
      </g>
     </g>
     <g id="text_16">
      <!-- 15000 -->
      <g transform="translate(10.6675 60.447638) scale(0.1 -0.1)">
       <defs>
        <path id="DejaVuSans-35" d="M 691 4666 
L 3169 4666 
L 3169 4134 
L 1269 4134 
L 1269 2991 
Q 1406 3038 1543 3061 
Q 1681 3084 1819 3084 
Q 2600 3084 3056 2656 
Q 3513 2228 3513 1497 
Q 3513 744 3044 326 
Q 2575 -91 1722 -91 
Q 1428 -91 1123 -41 
Q 819 9 494 109 
L 494 744 
Q 775 591 1075 516 
Q 1375 441 1709 441 
Q 2250 441 2565 725 
Q 2881 1009 2881 1497 
Q 2881 1984 2565 2268 
Q 2250 2553 1709 2553 
Q 1456 2553 1204 2497 
Q 953 2441 691 2322 
L 691 4666 
z
" transform="scale(0.015625)"/>
       </defs>
       <use xlink:href="#DejaVuSans-31"/>
       <use xlink:href="#DejaVuSans-35" x="63.623047"/>
       <use xlink:href="#DejaVuSans-30" x="127.246094"/>
       <use xlink:href="#DejaVuSans-30" x="190.869141"/>
       <use xlink:href="#DejaVuSans-30" x="254.492188"/>
      </g>
     </g>
    </g>
    <g id="ytick_7">
     <g id="line2d_17">
      <g>
       <use xlink:href="#mc088515fb8" x="49.48" y="34.591986" style="stroke: #000000; stroke-width: 0.8"/>
      </g>
     </g>
     <g id="text_17">
      <!-- 16000 -->
      <g transform="translate(10.6675 38.391205) scale(0.1 -0.1)">
       <defs>
        <path id="DejaVuSans-36" d="M 2113 2584 
Q 1688 2584 1439 2293 
Q 1191 2003 1191 1497 
Q 1191 994 1439 701 
Q 1688 409 2113 409 
Q 2538 409 2786 701 
Q 3034 994 3034 1497 
Q 3034 2003 2786 2293 
Q 2538 2584 2113 2584 
z
M 3366 4563 
L 3366 3988 
Q 3128 4100 2886 4159 
Q 2644 4219 2406 4219 
Q 1781 4219 1451 3797 
Q 1122 3375 1075 2522 
Q 1259 2794 1537 2939 
Q 1816 3084 2150 3084 
Q 2853 3084 3261 2657 
Q 3669 2231 3669 1497 
Q 3669 778 3244 343 
Q 2819 -91 2113 -91 
Q 1303 -91 875 529 
Q 447 1150 447 2328 
Q 447 3434 972 4092 
Q 1497 4750 2381 4750 
Q 2619 4750 2861 4703 
Q 3103 4656 3366 4563 
z
" transform="scale(0.015625)"/>
       </defs>
       <use xlink:href="#DejaVuSans-31"/>
       <use xlink:href="#DejaVuSans-36" x="63.623047"/>
       <use xlink:href="#DejaVuSans-30" x="127.246094"/>
       <use xlink:href="#DejaVuSans-30" x="190.869141"/>
       <use xlink:href="#DejaVuSans-30" x="254.492188"/>
      </g>
     </g>
    </g>
   </g>
   <g id="line2d_18">
    <path d="M 225.776311 128.603783 
L 226.108096 136.84031 
L 226.439882 136.692097 
L 226.771667 127.118722 
L 227.767024 130.255366 
L 228.098809 123.159161 
L 228.430595 135.651244 
L 229.094166 137.052495 
L 230.089522 133.068014 
L 230.421308 139.041322 
L 230.753094 135.285331 
L 231.416665 119.92546 
L 232.743807 121.022552 
L 233.075592 122.939911 
L 233.407378 115.828025 
L 233.739163 122.536929 
L 234.73452 121.464111 
L 235.066305 118.952758 
L 235.398091 120.914919 
L 236.061662 137.374532 
L 237.057018 149.081845 
L 237.388804 148.660145 
L 237.720589 142.687246 
L 238.052375 152.67993 
L 238.384161 149.321838 
L 239.711303 143.345644 
L 240.043088 143.703393 
L 240.374874 139.752857 
L 240.706659 131.472218 
L 241.702016 133.304453 
L 242.033801 140.870024 
L 242.365587 140.950539 
L 242.697372 144.240243 
L 243.029158 142.054244 
L 244.688085 136.893038 
L 245.019871 131.169394 
L 245.351656 130.861487 
L 246.678799 139.03514 
L 247.010584 139.413417 
L 247.34237 139.333785 
L 247.674155 134.89538 
L 248.669512 136.932736 
L 249.001297 129.144596 
L 249.664868 121.502926 
L 249.996654 126.476651 
L 250.99201 127.611244 
L 251.323796 132.465856 
L 251.655581 122.102649 
L 251.987367 119.231565 
L 252.319152 114.20048 
L 253.314509 114.679324 
L 253.646295 115.125321 
L 253.97808 108.080488 
L 254.309866 106.924291 
L 254.641651 108.314514 
L 255.637008 108.60323 
L 255.968793 111.92339 
L 256.300579 103.963883 
L 256.632364 105.615681 
L 256.96415 99.720432 
L 257.959506 97.936963 
L 258.291292 98.499402 
L 258.623077 102.126134 
L 258.954863 101.525764 
L 259.286648 107.263086 
L 260.282005 114.401637 
L 260.61379 114.407604 
L 260.945576 113.299699 
L 261.277362 108.717712 
L 261.609147 119.692101 
L 262.604504 122.427982 
L 262.936289 125.39524 
L 263.268075 126.871685 
L 263.59986 127.556986 
L 263.931646 130.959621 
L 265.258788 132.855376 
L 265.590573 127.407652 
L 265.922359 125.85864 
L 266.254144 120.340569 
L 267.249501 116.94166 
L 267.581286 130.899849 
L 267.913072 129.000583 
L 268.244857 132.691051 
L 268.576643 134.984037 
L 269.572 133.073528 
L 269.903785 135.499068 
L 270.899142 147.78715 
L 271.894498 149.221033 
L 272.226284 148.634772 
L 272.558069 143.735164 
L 272.889855 150.663748 
L 273.22164 154.234456 
L 274.216997 148.945113 
L 274.548782 140.983171 
L 274.880568 141.59569 
L 275.212353 143.257202 
L 275.544139 152.540957 
L 276.539496 154.973799 
L 276.871281 157.530342 
L 277.203067 157.730853 
L 277.534852 152.612641 
L 277.866638 159.841874 
L 279.19378 149.894185 
L 279.857351 153.369409 
L 280.189136 147.968232 
L 281.184493 145.919397 
L 281.516278 140.482271 
L 282.179849 149.447112 
L 282.511635 142.614464 
L 283.506992 145.13551 
L 283.838777 147.281618 
L 284.170563 155.355371 
L 284.502348 159.36654 
L 284.834134 156.448263 
L 285.843315 154.479296 
L 286.1751 153.339405 
L 286.506886 159.140914 
L 286.838671 142.3564 
L 287.170457 137.742642 
L 288.165813 140.546243 
L 288.497599 136.968901 
L 288.829384 140.823262 
L 289.16117 141.67685 
L 289.492955 141.652597 
L 290.488312 144.333552 
L 291.151883 138.581002 
L 291.815454 139.881448 
L 293.142596 145.231899 
L 293.474382 134.55174 
L 293.806167 134.23302 
L 294.137953 134.695106 
L 295.133309 139.58192 
L 295.465095 144.545737 
L 295.79688 145.788393 
L 296.128666 143.065523 
L 296.460451 144.772247 
L 297.455808 141.703753 
L 297.787593 139.209847 
L 298.119379 141.104934 
L 298.451164 149.053176 
L 298.78295 151.371751 
L 299.778306 154.887103 
L 300.110092 154.86328 
L 300.441878 151.284408 
L 300.773663 156.429071 
L 301.105449 155.949559 
L 302.432591 159.139579 
L 302.764376 162.226165 
L 303.096162 156.385626 
L 303.427947 156.641688 
L 304.755089 158.395174 
L 305.086875 156.811979 
L 305.41866 160.198072 
L 305.750446 154.374075 
L 306.745802 152.910403 
L 307.077588 150.550817 
L 307.409373 146.381268 
L 308.072945 143.128159 
L 309.400087 142.776355 
L 310.063658 148.132557 
L 310.395443 141.776772 
L 311.3908 136.836562 
L 312.054371 137.962539 
L 312.386156 133.57221 
L 312.717942 131.161446 
L 313.713298 136.188116 
L 314.376869 126.869036 
L 314.708655 118.388338 
L 315.04044 122.664421 
L 316.035797 125.300164 
L 316.367583 120.307915 
L 316.699368 124.791337 
L 317.031154 127.45883 
L 317.362939 129.034982 
L 318.690081 123.696658 
L 319.021867 121.260757 
L 319.353652 125.997591 
L 321.01258 134.015772 
L 321.344365 133.689988 
L 321.676151 131.852024 
L 322.007936 136.163173 
L 323.003293 134.574227 
L 323.335079 134.826562 
L 323.666864 136.504165 
L 323.99865 134.662452 
L 324.330435 129.677052 
L 325.325792 129.969731 
L 325.657577 133.17696 
L 325.989363 132.169645 
L 326.652934 141.81074 
L 327.634466 140.709017 
L 327.966251 135.43068 
L 328.298037 135.30056 
L 328.629822 129.053506 
L 328.961608 130.967354 
L 329.956965 129.974147 
L 330.28875 125.903184 
L 330.620536 130.097223 
L 330.952321 127.506906 
L 330.952321 127.506906 
" clip-path="url(#pe64a189637)" style="fill: none; stroke: #d3d3d3; stroke-linecap: square"/>
   </g>
   <g id="line2d_19">
    <path d="M 62.883444 107.412398 
L 63.215229 104.754382 
L 63.547015 106.478532 
L 63.8788 99.272906 
L 64.210586 96.306316 
L 65.205943 99.957776 
L 65.537728 99.163744 
L 65.869514 97.917103 
L 66.201299 98.276856 
L 66.533085 100.794369 
L 67.860227 96.412204 
L 68.192012 90.675981 
L 68.523798 89.0513 
L 68.855583 88.783328 
L 69.85094 86.733609 
L 70.182725 86.952644 
L 70.514511 94.792823 
L 70.846296 93.324734 
L 71.178082 99.202106 
L 72.173438 91.863948 
L 72.505224 87.245538 
L 72.83701 87.294949 
L 73.168795 83.607109 
L 73.500581 81.874366 
L 74.495937 78.977477 
L 74.827723 78.535013 
L 75.159508 79.310736 
L 75.823079 76.59913 
L 77.150221 77.657171 
L 77.813792 81.674522 
L 78.145578 81.473817 
L 79.140934 89.004107 
L 79.47272 90.500628 
L 79.804505 87.572206 
L 80.136291 98.127092 
L 80.468077 96.518738 
L 81.463433 87.773794 
L 81.795219 92.847656 
L 82.45879 106.860556 
L 82.790575 102.522482 
L 83.785932 109.381817 
L 84.117717 99.133072 
L 84.449503 99.243139 
L 84.781288 91.968048 
L 85.113074 93.706306 
L 86.094606 90.621723 
L 86.426392 90.360126 
L 86.758177 89.177242 
L 87.089963 98.198991 
L 87.421748 96.013853 
L 88.417105 92.434098 
L 88.74889 95.739031 
L 89.080676 101.601863 
L 89.412461 101.253591 
L 89.744247 97.701385 
L 90.739603 99.44561 
L 91.071389 99.760151 
L 91.73496 90.171763 
L 93.062102 85.19849 
L 93.725673 85.567935 
L 94.057459 82.469674 
L 94.389244 80.906295 
L 95.384601 82.013317 
L 95.716386 78.790881 
L 96.048172 81.840398 
L 96.379957 77.84995 
L 96.711743 77.550422 
L 97.707099 80.584732 
L 98.038885 83.418984 
L 98.37067 79.802827 
L 98.702456 82.710076 
L 99.034241 78.334093 
L 100.029598 75.643854 
L 100.693169 77.579306 
L 101.024954 76.884098 
L 101.35674 79.528005 
L 102.352097 81.018128 
L 102.683882 86.788534 
L 103.015668 87.915179 
L 103.347453 86.803095 
L 103.679239 84.169548 
L 104.674595 91.897679 
L 105.006381 92.171855 
L 105.338166 100.062544 
L 105.669952 98.004446 
L 106.001737 91.277449 
L 106.997094 92.400798 
L 107.328879 94.064077 
L 107.660665 94.150084 
L 107.99245 88.944766 
L 108.324236 90.37292 
L 109.319593 86.178235 
L 109.651378 86.26646 
L 109.983164 84.483637 
L 110.314949 84.521568 
L 110.646735 84.246746 
L 111.973877 84.517153 
L 112.305662 84.079341 
L 112.637448 87.207391 
L 112.969233 82.796536 
L 113.96459 81.313693 
L 114.296375 80.361066 
L 114.628161 80.651332 
L 114.959946 78.256443 
L 115.291732 77.173696 
L 116.287088 74.863952 
L 116.618874 77.097812 
L 116.95066 77.82966 
L 117.282445 75.146055 
L 117.614231 78.03478 
L 118.609587 75.584297 
L 118.941373 73.11863 
L 119.273158 72.711447 
L 119.604944 70.550369 
L 119.936729 70.755942 
L 120.932086 67.665392 
L 121.263871 67.051775 
L 121.595657 67.589508 
L 121.927442 67.183015 
L 122.259228 64.603511 
L 123.918155 64.03601 
L 124.249941 66.358096 
L 124.581727 63.223002 
L 125.577083 62.532188 
L 125.908869 63.758302 
L 126.240654 64.479551 
L 126.904225 69.281456 
L 127.899582 72.639764 
L 128.231367 67.701341 
L 128.563153 64.766285 
L 128.894938 63.605027 
L 129.226724 60.243833 
L 130.22208 60.161789 
L 130.553866 64.134812 
L 130.885651 61.885056 
L 131.217437 61.539218 
L 131.549222 63.867938 
L 132.544579 63.68287 
L 132.876365 61.913509 
L 133.20815 61.489138 
L 133.539936 58.961695 
L 133.871721 60.270973 
L 134.867078 59.732356 
L 135.198863 61.322401 
L 135.530649 61.828601 
L 135.862434 60.701073 
L 136.19422 60.554605 
L 137.189576 61.197343 
L 137.853147 67.10515 
L 138.184933 66.754896 
L 138.516718 62.941998 
L 139.843861 56.211706 
L 140.175646 55.725129 
L 140.507432 57.843667 
L 140.839217 53.792111 
L 141.834574 50.783842 
L 142.166359 50.930504 
L 142.498145 49.824603 
L 142.82993 49.343777 
L 143.161716 48.630475 
L 144.488858 48.392033 
L 144.820643 50.326171 
L 145.152429 51.17291 
L 145.484214 54.101117 
L 146.479571 54.319699 
L 146.811356 55.815573 
L 147.143142 53.085638 
L 147.474928 52.635915 
L 147.806713 55.678604 
L 148.80207 62.958756 
L 149.133855 62.241922 
L 149.797426 55.496186 
L 150.129212 55.596323 
L 151.124568 57.31078 
L 151.456354 66.647048 
L 151.788139 67.402244 
L 152.119925 68.810776 
L 152.45171 66.205467 
L 153.447067 73.069864 
L 153.778852 69.136108 
L 154.110638 67.634504 
L 154.442423 64.279514 
L 154.774209 65.922266 
L 156.101351 68.42832 
L 156.433137 66.09652 
L 156.764922 60.54293 
L 157.096708 58.912736 
L 158.092064 56.167378 
L 158.42385 53.801158 
L 158.755635 53.964599 
L 159.087421 51.890842 
L 159.419206 54.658925 
L 160.414563 51.648006 
L 160.746348 51.449498 
L 161.078134 51.446634 
L 161.409919 46.764488 
L 161.741705 45.655721 
L 162.737062 43.504552 
L 163.068847 42.320569 
L 163.732418 35.908544 
L 164.064204 35.218613 
L 165.073385 34.981054 
L 165.40517 37.094508 
L 165.736956 42.913659 
L 166.068741 41.114509 
L 166.400527 37.658714 
L 167.395883 37.815543 
L 167.727669 35.168534 
L 168.059454 36.321866 
L 168.723025 33.325055 
L 170.050167 39.551604 
L 170.381953 38.00565 
L 171.045524 45.80415 
L 172.040881 39.38198 
L 172.704452 51.044987 
L 173.036237 48.237853 
L 173.368023 54.763262 
L 174.363379 51.682405 
L 174.695165 41.497416 
L 175.02695 39.290222 
L 175.358736 45.23708 
L 175.690521 42.739641 
L 176.685878 47.532931 
L 177.017663 51.406936 
L 177.349449 44.17374 
L 177.681234 52.668784 
L 178.01302 52.905891 
L 179.008377 57.068805 
L 179.340162 49.125194 
L 180.003733 42.237405 
L 181.330875 37.431537 
L 181.662661 39.406471 
L 181.994446 39.748345 
L 182.326232 40.29226 
L 182.658017 42.422688 
L 183.653374 38.279826 
L 183.985159 42.913443 
L 184.316945 54.439028 
L 184.64873 54.864928 
L 184.980516 58.062228 
L 185.975872 57.909384 
L 186.307658 53.263855 
L 186.639444 52.493216 
L 186.971229 60.909511 
L 187.303015 58.991915 
L 188.630157 67.524438 
L 189.293728 75.30773 
L 189.625513 83.801654 
L 190.62087 81.90017 
L 190.952655 88.86647 
L 191.284441 88.804049 
L 191.616226 92.98021 
L 191.948012 83.765252 
L 193.275154 71.073326 
L 193.606939 69.495193 
L 193.938725 81.377644 
L 194.270511 76.543106 
L 195.265867 78.359229 
L 195.597653 74.415974 
L 195.929438 67.889036 
L 196.593009 83.311329 
L 197.588366 83.316413 
L 197.920151 75.62225 
L 198.251937 75.967873 
L 198.583722 84.953004 
L 198.915508 88.672809 
L 200.24265 92.346325 
L 200.574435 99.934384 
L 200.906221 90.315582 
L 201.238006 85.440443 
L 202.233363 84.188072 
L 202.565149 89.017117 
L 202.896934 84.174416 
L 203.560505 93.847907 
L 204.555862 104.489705 
L 204.887647 105.270727 
L 205.219433 95.124768 
L 205.551218 97.894831 
L 205.883004 104.206288 
L 206.864536 109.998084 
L 207.859893 87.201425 
L 208.191678 81.046366 
L 209.187035 82.267849 
L 209.51882 76.304664 
L 209.850606 80.412028 
L 210.182391 74.473549 
L 210.514177 74.970702 
L 211.509533 70.877015 
L 211.841319 65.037812 
L 212.50489 73.840978 
L 212.836675 72.937095 
L 213.832032 66.958703 
L 214.495603 81.157079 
L 214.827388 80.970052 
L 215.159174 85.079161 
L 216.154531 91.674917 
L 216.486316 92.565769 
L 216.818102 86.565989 
L 217.149887 93.01771 
L 218.477029 93.430601 
L 218.808815 87.093792 
L 219.1406 90.76817 
L 219.804171 104.305973 
L 220.799528 100.65432 
L 221.131313 111.993738 
L 221.463099 112.033673 
L 221.794884 103.594868 
L 222.12667 115.43676 
L 223.122027 110.995039 
L 223.453812 110.383188 
L 223.785598 101.53634 
L 224.117383 115.8106 
L 225.444525 131.127478 
L 225.776311 128.603783 
L 225.776311 128.603783 
" clip-path="url(#pe64a189637)" style="fill: none; stroke: #000000; stroke-linecap: square"/>
   </g>
   <g id="patch_3">
    <path d="M 49.48 168.671221 
L 49.48 26.88 
" style="fill: none; stroke: #000000; stroke-width: 0.8; stroke-linejoin: miter; stroke-linecap: square"/>
   </g>
   <g id="patch_4">
    <path d="M 344.355765 168.671221 
L 344.355765 26.88 
" style="fill: none; stroke: #000000; stroke-width: 0.8; stroke-linejoin: miter; stroke-linecap: square"/>
   </g>
   <g id="patch_5">
    <path d="M 49.48 168.671221 
L 344.355765 168.671221 
" style="fill: none; stroke: #000000; stroke-width: 0.8; stroke-linejoin: miter; stroke-linecap: square"/>
   </g>
   <g id="patch_6">
    <path d="M 49.48 26.88 
L 344.355765 26.88 
" style="fill: none; stroke: #000000; stroke-width: 0.8; stroke-linejoin: miter; stroke-linecap: square"/>
   </g>
   <g id="text_18">
    <!-- NASDAQ -->
    <g transform="translate(171.278195 20.88) scale(0.12 -0.12)">
     <defs>
      <path id="DejaVuSans-4e" d="M 628 4666 
L 1478 4666 
L 3547 763 
L 3547 4666 
L 4159 4666 
L 4159 0 
L 3309 0 
L 1241 3903 
L 1241 0 
L 628 0 
L 628 4666 
z
" transform="scale(0.015625)"/>
      <path id="DejaVuSans-41" d="M 2188 4044 
L 1331 1722 
L 3047 1722 
L 2188 4044 
z
M 1831 4666 
L 2547 4666 
L 4325 0 
L 3669 0 
L 3244 1197 
L 1141 1197 
L 716 0 
L 50 0 
L 1831 4666 
z
" transform="scale(0.015625)"/>
      <path id="DejaVuSans-53" d="M 3425 4513 
L 3425 3897 
Q 3066 4069 2747 4153 
Q 2428 4238 2131 4238 
Q 1616 4238 1336 4038 
Q 1056 3838 1056 3469 
Q 1056 3159 1242 3001 
Q 1428 2844 1947 2747 
L 2328 2669 
Q 3034 2534 3370 2195 
Q 3706 1856 3706 1288 
Q 3706 609 3251 259 
Q 2797 -91 1919 -91 
Q 1588 -91 1214 -16 
Q 841 59 441 206 
L 441 856 
Q 825 641 1194 531 
Q 1563 422 1919 422 
Q 2459 422 2753 634 
Q 3047 847 3047 1241 
Q 3047 1584 2836 1778 
Q 2625 1972 2144 2069 
L 1759 2144 
Q 1053 2284 737 2584 
Q 422 2884 422 3419 
Q 422 4038 858 4394 
Q 1294 4750 2059 4750 
Q 2388 4750 2728 4690 
Q 3069 4631 3425 4513 
z
" transform="scale(0.015625)"/>
      <path id="DejaVuSans-44" d="M 1259 4147 
L 1259 519 
L 2022 519 
Q 2988 519 3436 956 
Q 3884 1394 3884 2338 
Q 3884 3275 3436 3711 
Q 2988 4147 2022 4147 
L 1259 4147 
z
M 628 4666 
L 1925 4666 
Q 3281 4666 3915 4102 
Q 4550 3538 4550 2338 
Q 4550 1131 3912 565 
Q 3275 0 1925 0 
L 628 0 
L 628 4666 
z
" transform="scale(0.015625)"/>
      <path id="DejaVuSans-51" d="M 2522 4238 
Q 1834 4238 1429 3725 
Q 1025 3213 1025 2328 
Q 1025 1447 1429 934 
Q 1834 422 2522 422 
Q 3209 422 3611 934 
Q 4013 1447 4013 2328 
Q 4013 3213 3611 3725 
Q 3209 4238 2522 4238 
z
M 3406 84 
L 4238 -825 
L 3475 -825 
L 2784 -78 
Q 2681 -84 2626 -87 
Q 2572 -91 2522 -91 
Q 1538 -91 948 567 
Q 359 1225 359 2328 
Q 359 3434 948 4092 
Q 1538 4750 2522 4750 
Q 3503 4750 4090 4092 
Q 4678 3434 4678 2328 
Q 4678 1516 4351 937 
Q 4025 359 3406 84 
z
" transform="scale(0.015625)"/>
     </defs>
     <use xlink:href="#DejaVuSans-4e"/>
     <use xlink:href="#DejaVuSans-41" x="74.804688"/>
     <use xlink:href="#DejaVuSans-53" x="143.212891"/>
     <use xlink:href="#DejaVuSans-44" x="206.689453"/>
     <use xlink:href="#DejaVuSans-41" x="281.941406"/>
     <use xlink:href="#DejaVuSans-51" x="348.599609"/>
    </g>
   </g>
  </g>
 </g>
 <defs>
  <clipPath id="pe64a189637">
   <rect x="49.48" y="26.88" width="294.875765" height="141.791221"/>
  </clipPath>
 </defs>
</svg>
