<?xml version="1.0" encoding="utf-8" standalone="no"?>
<!DOCTYPE svg PUBLIC "-//W3C//DTD SVG 1.1//EN"
  "http://www.w3.org/Graphics/SVG/1.1/DTD/svg11.dtd">
<svg xmlns:xlink="http://www.w3.org/1999/xlink" width="360pt" height="216pt" viewBox="0 0 360 216" xmlns="http://www.w3.org/2000/svg" version="1.1">
 <metadata>
  <rdf:RDF xmlns:dc="http://purl.org/dc/elements/1.1/" xmlns:cc="http://creativecommons.org/ns#" xmlns:rdf="http://www.w3.org/1999/02/22-rdf-syntax-ns#">
   <cc:Work>
    <dc:type rdf:resource="http://purl.org/dc/dcmitype/StillImage"/>
    <dc:date>2022-08-16T13:35:12.412896</dc:date>
    <dc:format>image/svg+xml</dc:format>
    <dc:creator>
     <cc:Agent>
      <dc:title>Matplotlib v3.5.2, https://matplotlib.org/</dc:title>
     </cc:Agent>
    </dc:creator>
   </cc:Work>
  </rdf:RDF>
 </metadata>
 <defs>
  <style type="text/css">*{stroke-linejoin: round; stroke-linecap: butt}</style>
 </defs>
 <g id="figure_1">
  <g id="patch_1">
   <path d="M 0 216 
L 360 216 
L 360 0 
L 0 0 
z
" style="fill: #ffffff"/>
  </g>
  <g id="axes_1">
   <g id="patch_2">
    <path d="M 49.48 168.607581 
L 339.865772 168.607581 
L 339.865772 26.88 
L 49.48 26.88 
z
" style="fill: #ffffff"/>
   </g>
   <g id="matplotlib.axis_1">
    <g id="xtick_1">
     <g id="line2d_1">
      <defs>
       <path id="m48c8f202c1" d="M 0 0 
L 0 3.5 
" style="stroke: #000000; stroke-width: 0.8"/>
      </defs>
      <g>
       <use xlink:href="#m48c8f202c1" x="63.125277" y="168.607581" style="stroke: #000000; stroke-width: 0.8"/>
      </g>
     </g>
     <g id="text_1">
      <!-- '21-01 -->
      <g transform="translate(53.831243 203.470903)rotate(-45)scale(0.1 -0.1)">
       <defs>
        <path id="DejaVuSans-27" d="M 1147 4666 
L 1147 2931 
L 616 2931 
L 616 4666 
L 1147 4666 
z
" transform="scale(0.015625)"/>
        <path id="DejaVuSans-32" d="M 1228 531 
L 3431 531 
L 3431 0 
L 469 0 
L 469 531 
Q 828 903 1448 1529 
Q 2069 2156 2228 2338 
Q 2531 2678 2651 2914 
Q 2772 3150 2772 3378 
Q 2772 3750 2511 3984 
Q 2250 4219 1831 4219 
Q 1534 4219 1204 4116 
Q 875 4013 500 3803 
L 500 4441 
Q 881 4594 1212 4672 
Q 1544 4750 1819 4750 
Q 2544 4750 2975 4387 
Q 3406 4025 3406 3419 
Q 3406 3131 3298 2873 
Q 3191 2616 2906 2266 
Q 2828 2175 2409 1742 
Q 1991 1309 1228 531 
z
" transform="scale(0.015625)"/>
        <path id="DejaVuSans-31" d="M 794 531 
L 1825 531 
L 1825 4091 
L 703 3866 
L 703 4441 
L 1819 4666 
L 2450 4666 
L 2450 531 
L 3481 531 
L 3481 0 
L 794 0 
L 794 531 
z
" transform="scale(0.015625)"/>
        <path id="DejaVuSans-2d" d="M 313 2009 
L 1997 2009 
L 1997 1497 
L 313 1497 
L 313 2009 
z
" transform="scale(0.015625)"/>
        <path id="DejaVuSans-30" d="M 2034 4250 
Q 1547 4250 1301 3770 
Q 1056 3291 1056 2328 
Q 1056 1369 1301 889 
Q 1547 409 2034 409 
Q 2525 409 2770 889 
Q 3016 1369 3016 2328 
Q 3016 3291 2770 3770 
Q 2525 4250 2034 4250 
z
M 2034 4750 
Q 2819 4750 3233 4129 
Q 3647 3509 3647 2328 
Q 3647 1150 3233 529 
Q 2819 -91 2034 -91 
Q 1250 -91 836 529 
Q 422 1150 422 2328 
Q 422 3509 836 4129 
Q 1250 4750 2034 4750 
z
" transform="scale(0.015625)"/>
       </defs>
       <use xlink:href="#DejaVuSans-27"/>
       <use xlink:href="#DejaVuSans-32" x="27.490234"/>
       <use xlink:href="#DejaVuSans-31" x="91.113281"/>
       <use xlink:href="#DejaVuSans-2d" x="154.736328"/>
       <use xlink:href="#DejaVuSans-30" x="190.820312"/>
       <use xlink:href="#DejaVuSans-31" x="254.443359"/>
      </g>
     </g>
    </g>
    <g id="xtick_2">
     <g id="line2d_2">
      <g>
       <use xlink:href="#m48c8f202c1" x="89.434799" y="168.607581" style="stroke: #000000; stroke-width: 0.8"/>
      </g>
     </g>
     <g id="text_2">
      <!-- '21-03 -->
      <g transform="translate(80.140764 203.470903)rotate(-45)scale(0.1 -0.1)">
       <defs>
        <path id="DejaVuSans-33" d="M 2597 2516 
Q 3050 2419 3304 2112 
Q 3559 1806 3559 1356 
Q 3559 666 3084 287 
Q 2609 -91 1734 -91 
Q 1441 -91 1130 -33 
Q 819 25 488 141 
L 488 750 
Q 750 597 1062 519 
Q 1375 441 1716 441 
Q 2309 441 2620 675 
Q 2931 909 2931 1356 
Q 2931 1769 2642 2001 
Q 2353 2234 1838 2234 
L 1294 2234 
L 1294 2753 
L 1863 2753 
Q 2328 2753 2575 2939 
Q 2822 3125 2822 3475 
Q 2822 3834 2567 4026 
Q 2313 4219 1838 4219 
Q 1578 4219 1281 4162 
Q 984 4106 628 3988 
L 628 4550 
Q 988 4650 1302 4700 
Q 1616 4750 1894 4750 
Q 2613 4750 3031 4423 
Q 3450 4097 3450 3541 
Q 3450 3153 3228 2886 
Q 3006 2619 2597 2516 
z
" transform="scale(0.015625)"/>
       </defs>
       <use xlink:href="#DejaVuSans-27"/>
       <use xlink:href="#DejaVuSans-32" x="27.490234"/>
       <use xlink:href="#DejaVuSans-31" x="91.113281"/>
       <use xlink:href="#DejaVuSans-2d" x="154.736328"/>
       <use xlink:href="#DejaVuSans-30" x="190.820312"/>
       <use xlink:href="#DejaVuSans-33" x="254.443359"/>
      </g>
     </g>
    </g>
    <g id="xtick_3">
     <g id="line2d_3">
      <g>
       <use xlink:href="#m48c8f202c1" x="116.636169" y="168.607581" style="stroke: #000000; stroke-width: 0.8"/>
      </g>
     </g>
     <g id="text_3">
      <!-- '21-05 -->
      <g transform="translate(107.342134 203.470903)rotate(-45)scale(0.1 -0.1)">
       <defs>
        <path id="DejaVuSans-35" d="M 691 4666 
L 3169 4666 
L 3169 4134 
L 1269 4134 
L 1269 2991 
Q 1406 3038 1543 3061 
Q 1681 3084 1819 3084 
Q 2600 3084 3056 2656 
Q 3513 2228 3513 1497 
Q 3513 744 3044 326 
Q 2575 -91 1722 -91 
Q 1428 -91 1123 -41 
Q 819 9 494 109 
L 494 744 
Q 775 591 1075 516 
Q 1375 441 1709 441 
Q 2250 441 2565 725 
Q 2881 1009 2881 1497 
Q 2881 1984 2565 2268 
Q 2250 2553 1709 2553 
Q 1456 2553 1204 2497 
Q 953 2441 691 2322 
L 691 4666 
z
" transform="scale(0.015625)"/>
       </defs>
       <use xlink:href="#DejaVuSans-27"/>
       <use xlink:href="#DejaVuSans-32" x="27.490234"/>
       <use xlink:href="#DejaVuSans-31" x="91.113281"/>
       <use xlink:href="#DejaVuSans-2d" x="154.736328"/>
       <use xlink:href="#DejaVuSans-30" x="190.820312"/>
       <use xlink:href="#DejaVuSans-35" x="254.443359"/>
      </g>
     </g>
    </g>
    <g id="xtick_4">
     <g id="line2d_4">
      <g>
       <use xlink:href="#m48c8f202c1" x="143.837539" y="168.607581" style="stroke: #000000; stroke-width: 0.8"/>
      </g>
     </g>
     <g id="text_4">
      <!-- '21-07 -->
      <g transform="translate(134.543504 203.470903)rotate(-45)scale(0.1 -0.1)">
       <defs>
        <path id="DejaVuSans-37" d="M 525 4666 
L 3525 4666 
L 3525 4397 
L 1831 0 
L 1172 0 
L 2766 4134 
L 525 4134 
L 525 4666 
z
" transform="scale(0.015625)"/>
       </defs>
       <use xlink:href="#DejaVuSans-27"/>
       <use xlink:href="#DejaVuSans-32" x="27.490234"/>
       <use xlink:href="#DejaVuSans-31" x="91.113281"/>
       <use xlink:href="#DejaVuSans-2d" x="154.736328"/>
       <use xlink:href="#DejaVuSans-30" x="190.820312"/>
       <use xlink:href="#DejaVuSans-37" x="254.443359"/>
      </g>
     </g>
    </g>
    <g id="xtick_5">
     <g id="line2d_5">
      <g>
       <use xlink:href="#m48c8f202c1" x="171.484833" y="168.607581" style="stroke: #000000; stroke-width: 0.8"/>
      </g>
     </g>
     <g id="text_5">
      <!-- '21-09 -->
      <g transform="translate(162.190798 203.470903)rotate(-45)scale(0.1 -0.1)">
       <defs>
        <path id="DejaVuSans-39" d="M 703 97 
L 703 672 
Q 941 559 1184 500 
Q 1428 441 1663 441 
Q 2288 441 2617 861 
Q 2947 1281 2994 2138 
Q 2813 1869 2534 1725 
Q 2256 1581 1919 1581 
Q 1219 1581 811 2004 
Q 403 2428 403 3163 
Q 403 3881 828 4315 
Q 1253 4750 1959 4750 
Q 2769 4750 3195 4129 
Q 3622 3509 3622 2328 
Q 3622 1225 3098 567 
Q 2575 -91 1691 -91 
Q 1453 -91 1209 -44 
Q 966 3 703 97 
z
M 1959 2075 
Q 2384 2075 2632 2365 
Q 2881 2656 2881 3163 
Q 2881 3666 2632 3958 
Q 2384 4250 1959 4250 
Q 1534 4250 1286 3958 
Q 1038 3666 1038 3163 
Q 1038 2656 1286 2365 
Q 1534 2075 1959 2075 
z
" transform="scale(0.015625)"/>
       </defs>
       <use xlink:href="#DejaVuSans-27"/>
       <use xlink:href="#DejaVuSans-32" x="27.490234"/>
       <use xlink:href="#DejaVuSans-31" x="91.113281"/>
       <use xlink:href="#DejaVuSans-2d" x="154.736328"/>
       <use xlink:href="#DejaVuSans-30" x="190.820312"/>
       <use xlink:href="#DejaVuSans-39" x="254.443359"/>
      </g>
     </g>
    </g>
    <g id="xtick_6">
     <g id="line2d_6">
      <g>
       <use xlink:href="#m48c8f202c1" x="198.686203" y="168.607581" style="stroke: #000000; stroke-width: 0.8"/>
      </g>
     </g>
     <g id="text_6">
      <!-- '21-11 -->
      <g transform="translate(189.392168 203.470903)rotate(-45)scale(0.1 -0.1)">
       <use xlink:href="#DejaVuSans-27"/>
       <use xlink:href="#DejaVuSans-32" x="27.490234"/>
       <use xlink:href="#DejaVuSans-31" x="91.113281"/>
       <use xlink:href="#DejaVuSans-2d" x="154.736328"/>
       <use xlink:href="#DejaVuSans-31" x="190.820312"/>
       <use xlink:href="#DejaVuSans-31" x="254.443359"/>
      </g>
     </g>
    </g>
    <g id="xtick_7">
     <g id="line2d_7">
      <g>
       <use xlink:href="#m48c8f202c1" x="225.887573" y="168.607581" style="stroke: #000000; stroke-width: 0.8"/>
      </g>
     </g>
     <g id="text_7">
      <!-- '22-01 -->
      <g transform="translate(216.593538 203.470903)rotate(-45)scale(0.1 -0.1)">
       <use xlink:href="#DejaVuSans-27"/>
       <use xlink:href="#DejaVuSans-32" x="27.490234"/>
       <use xlink:href="#DejaVuSans-32" x="91.113281"/>
       <use xlink:href="#DejaVuSans-2d" x="154.736328"/>
       <use xlink:href="#DejaVuSans-30" x="190.820312"/>
       <use xlink:href="#DejaVuSans-31" x="254.443359"/>
      </g>
     </g>
    </g>
    <g id="xtick_8">
     <g id="line2d_8">
      <g>
       <use xlink:href="#m48c8f202c1" x="252.197094" y="168.607581" style="stroke: #000000; stroke-width: 0.8"/>
      </g>
     </g>
     <g id="text_8">
      <!-- '22-03 -->
      <g transform="translate(242.90306 203.470903)rotate(-45)scale(0.1 -0.1)">
       <use xlink:href="#DejaVuSans-27"/>
       <use xlink:href="#DejaVuSans-32" x="27.490234"/>
       <use xlink:href="#DejaVuSans-32" x="91.113281"/>
       <use xlink:href="#DejaVuSans-2d" x="154.736328"/>
       <use xlink:href="#DejaVuSans-30" x="190.820312"/>
       <use xlink:href="#DejaVuSans-33" x="254.443359"/>
      </g>
     </g>
    </g>
    <g id="xtick_9">
     <g id="line2d_9">
      <g>
       <use xlink:href="#m48c8f202c1" x="279.398464" y="168.607581" style="stroke: #000000; stroke-width: 0.8"/>
      </g>
     </g>
     <g id="text_9">
      <!-- '22-05 -->
      <g transform="translate(270.104429 203.470903)rotate(-45)scale(0.1 -0.1)">
       <use xlink:href="#DejaVuSans-27"/>
       <use xlink:href="#DejaVuSans-32" x="27.490234"/>
       <use xlink:href="#DejaVuSans-32" x="91.113281"/>
       <use xlink:href="#DejaVuSans-2d" x="154.736328"/>
       <use xlink:href="#DejaVuSans-30" x="190.820312"/>
       <use xlink:href="#DejaVuSans-35" x="254.443359"/>
      </g>
     </g>
    </g>
    <g id="xtick_10">
     <g id="line2d_10">
      <g>
       <use xlink:href="#m48c8f202c1" x="306.599834" y="168.607581" style="stroke: #000000; stroke-width: 0.8"/>
      </g>
     </g>
     <g id="text_10">
      <!-- '22-07 -->
      <g transform="translate(297.305799 203.470903)rotate(-45)scale(0.1 -0.1)">
       <use xlink:href="#DejaVuSans-27"/>
       <use xlink:href="#DejaVuSans-32" x="27.490234"/>
       <use xlink:href="#DejaVuSans-32" x="91.113281"/>
       <use xlink:href="#DejaVuSans-2d" x="154.736328"/>
       <use xlink:href="#DejaVuSans-30" x="190.820312"/>
       <use xlink:href="#DejaVuSans-37" x="254.443359"/>
      </g>
     </g>
    </g>
    <g id="xtick_11">
     <g id="line2d_11">
      <g>
       <use xlink:href="#m48c8f202c1" x="334.247128" y="168.607581" style="stroke: #000000; stroke-width: 0.8"/>
      </g>
     </g>
     <g id="text_11">
      <!-- '22-09 -->
      <g transform="translate(324.953093 203.470903)rotate(-45)scale(0.1 -0.1)">
       <use xlink:href="#DejaVuSans-27"/>
       <use xlink:href="#DejaVuSans-32" x="27.490234"/>
       <use xlink:href="#DejaVuSans-32" x="91.113281"/>
       <use xlink:href="#DejaVuSans-2d" x="154.736328"/>
       <use xlink:href="#DejaVuSans-30" x="190.820312"/>
       <use xlink:href="#DejaVuSans-39" x="254.443359"/>
      </g>
     </g>
    </g>
   </g>
   <g id="matplotlib.axis_2">
    <g id="ytick_1">
     <g id="line2d_12">
      <defs>
       <path id="m17e5dc27fa" d="M 0 0 
L -3.5 0 
" style="stroke: #000000; stroke-width: 0.8"/>
      </defs>
      <g>
       <use xlink:href="#m17e5dc27fa" x="49.48" y="153.7391" style="stroke: #000000; stroke-width: 0.8"/>
      </g>
     </g>
     <g id="text_12">
      <!-- 11000 -->
      <g transform="translate(10.6675 157.538319)scale(0.1 -0.1)">
       <use xlink:href="#DejaVuSans-31"/>
       <use xlink:href="#DejaVuSans-31" x="63.623047"/>
       <use xlink:href="#DejaVuSans-30" x="127.246094"/>
       <use xlink:href="#DejaVuSans-30" x="190.869141"/>
       <use xlink:href="#DejaVuSans-30" x="254.492188"/>
      </g>
     </g>
    </g>
    <g id="ytick_2">
     <g id="line2d_13">
      <g>
       <use xlink:href="#m17e5dc27fa" x="49.48" y="129.929243" style="stroke: #000000; stroke-width: 0.8"/>
      </g>
     </g>
     <g id="text_13">
      <!-- 12000 -->
      <g transform="translate(10.6675 133.728461)scale(0.1 -0.1)">
       <use xlink:href="#DejaVuSans-31"/>
       <use xlink:href="#DejaVuSans-32" x="63.623047"/>
       <use xlink:href="#DejaVuSans-30" x="127.246094"/>
       <use xlink:href="#DejaVuSans-30" x="190.869141"/>
       <use xlink:href="#DejaVuSans-30" x="254.492188"/>
      </g>
     </g>
    </g>
    <g id="ytick_3">
     <g id="line2d_14">
      <g>
       <use xlink:href="#m17e5dc27fa" x="49.48" y="106.119385" style="stroke: #000000; stroke-width: 0.8"/>
      </g>
     </g>
     <g id="text_14">
      <!-- 13000 -->
      <g transform="translate(10.6675 109.918604)scale(0.1 -0.1)">
       <use xlink:href="#DejaVuSans-31"/>
       <use xlink:href="#DejaVuSans-33" x="63.623047"/>
       <use xlink:href="#DejaVuSans-30" x="127.246094"/>
       <use xlink:href="#DejaVuSans-30" x="190.869141"/>
       <use xlink:href="#DejaVuSans-30" x="254.492188"/>
      </g>
     </g>
    </g>
    <g id="ytick_4">
     <g id="line2d_15">
      <g>
       <use xlink:href="#m17e5dc27fa" x="49.48" y="82.309527" style="stroke: #000000; stroke-width: 0.8"/>
      </g>
     </g>
     <g id="text_15">
      <!-- 14000 -->
      <g transform="translate(10.6675 86.108746)scale(0.1 -0.1)">
       <defs>
        <path id="DejaVuSans-34" d="M 2419 4116 
L 825 1625 
L 2419 1625 
L 2419 4116 
z
M 2253 4666 
L 3047 4666 
L 3047 1625 
L 3713 1625 
L 3713 1100 
L 3047 1100 
L 3047 0 
L 2419 0 
L 2419 1100 
L 313 1100 
L 313 1709 
L 2253 4666 
z
" transform="scale(0.015625)"/>
       </defs>
       <use xlink:href="#DejaVuSans-31"/>
       <use xlink:href="#DejaVuSans-34" x="63.623047"/>
       <use xlink:href="#DejaVuSans-30" x="127.246094"/>
       <use xlink:href="#DejaVuSans-30" x="190.869141"/>
       <use xlink:href="#DejaVuSans-30" x="254.492188"/>
      </g>
     </g>
    </g>
    <g id="ytick_5">
     <g id="line2d_16">
      <g>
       <use xlink:href="#m17e5dc27fa" x="49.48" y="58.499669" style="stroke: #000000; stroke-width: 0.8"/>
      </g>
     </g>
     <g id="text_16">
      <!-- 15000 -->
      <g transform="translate(10.6675 62.298888)scale(0.1 -0.1)">
       <use xlink:href="#DejaVuSans-31"/>
       <use xlink:href="#DejaVuSans-35" x="63.623047"/>
       <use xlink:href="#DejaVuSans-30" x="127.246094"/>
       <use xlink:href="#DejaVuSans-30" x="190.869141"/>
       <use xlink:href="#DejaVuSans-30" x="254.492188"/>
      </g>
     </g>
    </g>
    <g id="ytick_6">
     <g id="line2d_17">
      <g>
       <use xlink:href="#m17e5dc27fa" x="49.48" y="34.689811" style="stroke: #000000; stroke-width: 0.8"/>
      </g>
     </g>
     <g id="text_17">
      <!-- 16000 -->
      <g transform="translate(10.6675 38.48903)scale(0.1 -0.1)">
       <defs>
        <path id="DejaVuSans-36" d="M 2113 2584 
Q 1688 2584 1439 2293 
Q 1191 2003 1191 1497 
Q 1191 994 1439 701 
Q 1688 409 2113 409 
Q 2538 409 2786 701 
Q 3034 994 3034 1497 
Q 3034 2003 2786 2293 
Q 2538 2584 2113 2584 
z
M 3366 4563 
L 3366 3988 
Q 3128 4100 2886 4159 
Q 2644 4219 2406 4219 
Q 1781 4219 1451 3797 
Q 1122 3375 1075 2522 
Q 1259 2794 1537 2939 
Q 1816 3084 2150 3084 
Q 2853 3084 3261 2657 
Q 3669 2231 3669 1497 
Q 3669 778 3244 343 
Q 2819 -91 2113 -91 
Q 1303 -91 875 529 
Q 447 1150 447 2328 
Q 447 3434 972 4092 
Q 1497 4750 2381 4750 
Q 2619 4750 2861 4703 
Q 3103 4656 3366 4563 
z
" transform="scale(0.015625)"/>
       </defs>
       <use xlink:href="#DejaVuSans-31"/>
       <use xlink:href="#DejaVuSans-36" x="63.623047"/>
       <use xlink:href="#DejaVuSans-30" x="127.246094"/>
       <use xlink:href="#DejaVuSans-30" x="190.869141"/>
       <use xlink:href="#DejaVuSans-30" x="254.492188"/>
      </g>
     </g>
    </g>
   </g>
   <g id="line2d_18">
    <path d="M 298.5732 158.281296 
L 299.019124 157.826072 
L 299.465049 151.378344 
L 299.910973 162.165418 
L 300.356897 158.540368 
L 302.140593 152.089082 
L 302.586517 152.475271 
L 303.032441 148.210679 
L 303.478365 139.271752 
L 304.816138 141.249644 
L 305.262062 149.416658 
L 305.707986 149.503573 
L 306.15391 153.0548 
L 306.599834 150.695019 
L 308.383531 146.066606 
L 308.829455 145.123513 
L 309.275379 138.944855 
L 309.721303 138.61247 
L 311.059075 144.867557 
L 311.504999 147.435906 
L 311.950923 147.844254 
L 312.396847 147.758292 
L 312.842771 142.967046 
L 314.180544 145.166366 
L 314.626468 136.759091 
L 315.072392 132.366172 
L 315.518316 128.509929 
L 315.96424 133.879052 
L 317.302012 135.103841 
L 317.747937 140.344381 
L 318.193861 129.157329 
L 318.639785 126.058002 
L 319.085709 120.626959 
L 320.423481 121.14387 
L 320.869405 121.625322 
L 321.315329 114.020444 
L 321.761253 112.772333 
L 322.207178 114.273075 
L 323.54495 114.584743 
L 323.990874 118.168847 
L 324.436798 109.576581 
L 324.882722 111.359693 
L 325.328646 104.995787 
L 326.666418 103.070537 
" clip-path="url(#pcb504d6986)" style="fill: none; stroke: #d3d3d3; stroke-linecap: square"/>
   </g>
   <g id="line2d_19">
    <path d="M 62.679353 108.779416 
L 64.46305 113.299243 
L 64.908974 110.429922 
L 65.354898 112.291137 
L 65.800822 104.512684 
L 66.246746 101.310259 
L 67.584518 105.251999 
L 68.030442 104.394844 
L 68.476367 103.049099 
L 68.922291 103.437451 
L 69.368215 106.1551 
L 71.151911 101.424564 
L 71.597835 95.232327 
L 72.043759 93.478489 
L 72.489683 93.189214 
L 73.827456 90.976548 
L 74.27338 91.212995 
L 74.719304 99.676447 
L 75.165228 98.091649 
L 75.611152 104.436256 
L 76.948924 96.514735 
L 77.394848 91.529174 
L 77.840773 91.582513 
L 78.286697 87.6015 
L 78.732621 85.731008 
L 80.070393 82.603825 
L 80.516317 82.126186 
L 80.962241 82.963577 
L 81.408165 81.695958 
L 81.854089 80.036406 
L 83.637786 81.178559 
L 84.529634 85.515278 
L 84.975558 85.298617 
L 86.31333 93.427545 
L 86.759254 95.043034 
L 87.205179 91.881811 
L 87.651103 103.275781 
L 88.097027 101.539568 
L 89.434799 92.099424 
L 89.880723 97.576645 
L 90.772571 112.703531 
L 91.218495 108.020593 
L 92.556268 115.425226 
L 93.002192 104.361734 
L 93.448116 104.48055 
L 93.89404 96.627111 
L 94.339964 98.503555 
L 95.677736 95.173756 
L 96.123661 94.891363 
L 96.569585 93.614443 
L 97.015509 103.353395 
L 97.461433 100.994545 
L 98.799205 97.13021 
L 99.245129 100.697875 
L 99.691053 107.026787 
L 100.136977 106.650828 
L 100.582901 102.816232 
L 101.920674 104.699117 
L 102.366598 105.038664 
L 103.258446 94.688026 
L 105.042142 89.319391 
L 105.933991 89.718206 
L 106.379915 86.373642 
L 106.825839 84.685979 
L 108.163611 85.881006 
L 108.609535 82.402395 
L 109.055459 85.69434 
L 109.501383 81.386662 
L 109.947308 81.063323 
L 111.28508 84.338852 
L 111.731004 87.398419 
L 112.176928 83.494788 
L 112.622852 86.633155 
L 113.068776 81.909293 
L 114.406548 79.005188 
L 115.298397 81.094503 
L 115.744321 80.344028 
L 116.190245 83.198118 
L 117.528017 84.806702 
L 117.973941 91.03584 
L 118.419865 92.252049 
L 118.865789 91.051558 
L 119.311714 88.208652 
L 120.649486 96.551147 
L 121.09541 96.847119 
L 121.541334 105.365096 
L 121.987258 103.143385 
L 122.433182 95.881611 
L 123.770955 97.094263 
L 124.216879 98.889768 
L 124.662803 98.982612 
L 125.108727 93.363486 
L 125.554651 94.905174 
L 126.892423 90.377023 
L 127.338347 90.472262 
L 127.784271 88.54771 
L 128.230195 88.588656 
L 128.67612 88.291986 
L 130.459816 88.583889 
L 130.90574 88.111273 
L 131.351664 91.487995 
L 131.797588 86.726488 
L 133.135361 85.125763 
L 133.581285 84.097405 
L 134.027209 84.410747 
L 134.473133 81.825471 
L 134.919057 80.656648 
L 136.256829 78.163287 
L 136.702753 80.574732 
L 137.148677 81.364759 
L 137.594601 78.467816 
L 138.040526 81.586186 
L 139.378298 78.940897 
L 139.824222 76.279215 
L 140.270146 75.839663 
L 140.71607 73.506785 
L 141.161994 73.728701 
L 142.499767 70.392461 
L 142.945691 69.730063 
L 143.391615 70.310544 
L 143.837539 69.871736 
L 144.283463 67.087169 
L 146.513083 66.474553 
L 146.959008 68.981238 
L 147.404932 65.596913 
L 148.742704 64.851181 
L 149.188628 66.174767 
L 149.634552 66.953354 
L 150.5264 72.136998 
L 151.864173 75.762281 
L 152.310097 70.431268 
L 152.756021 67.262883 
L 153.201945 66.009308 
L 153.647869 62.380908 
L 154.985641 62.292342 
L 155.431565 66.581209 
L 155.877489 64.152604 
L 156.323414 63.779273 
L 156.769338 66.293119 
L 158.10711 66.09334 
L 158.553034 64.183319 
L 158.998958 63.725212 
L 159.444882 60.996844 
L 159.890806 62.410206 
L 161.228579 61.828771 
L 161.674503 63.54522 
L 162.120427 64.091661 
L 162.566351 62.874498 
L 163.012275 62.716386 
L 164.350047 63.41022 
L 165.241895 69.787681 
L 165.68782 69.409583 
L 166.133744 65.29357 
L 167.91744 58.028239 
L 168.363364 57.50298 
L 168.809288 59.789936 
L 169.255212 55.416292 
L 170.592985 52.168874 
L 171.038909 52.327196 
L 171.484833 51.133378 
L 171.930757 50.614328 
L 172.376681 49.844321 
L 174.160377 49.586923 
L 174.606302 51.67482 
L 175.052226 52.588872 
L 175.49815 55.749863 
L 176.835922 55.985822 
L 177.281846 57.600614 
L 177.72777 54.653656 
L 178.173694 54.168182 
L 178.619618 57.452756 
L 179.957391 65.31166 
L 180.403315 64.53784 
L 181.295163 57.255837 
L 181.741087 57.363934 
L 183.078859 59.214686 
L 183.524783 69.293161 
L 183.970708 70.108393 
L 184.416632 71.628899 
L 184.862556 68.816476 
L 186.200328 76.226573 
L 186.646252 71.980094 
L 187.092176 70.359117 
L 187.5381 66.737415 
L 187.984024 68.510761 
L 189.321797 70.733169 
L 189.767721 71.21604 
L 190.213645 68.698868 
L 190.659569 62.703783 
L 191.105493 60.943993 
L 192.443265 57.980386 
L 192.889189 55.426058 
L 193.335114 55.602493 
L 193.781038 53.363878 
L 194.226962 56.352015 
L 195.564734 53.101737 
L 196.010658 52.887448 
L 196.456582 52.884356 
L 196.902506 47.829993 
L 197.34843 46.633082 
L 198.686203 44.3109 
L 199.132127 43.032795 
L 200.023975 36.111032 
L 200.469899 35.366253 
L 201.807671 35.109809 
L 202.253596 37.391277 
L 202.69952 43.673033 
L 203.145444 41.730856 
L 203.591368 38.000335 
L 204.92914 38.169631 
L 205.375064 35.312193 
L 205.820988 36.557211 
L 206.712836 33.322163 
L 208.496533 40.043704 
L 208.942457 38.374852 
L 209.834305 46.793311 
L 211.172077 39.860596 
L 212.063926 52.450779 
L 212.50985 49.420487 
L 212.955774 56.464647 
L 214.293546 53.13887 
L 214.73947 42.144203 
L 215.185394 39.761543 
L 215.631318 46.18116 
L 216.077243 43.485182 
L 217.415015 48.659525 
L 217.860939 52.841503 
L 218.306863 45.033288 
L 218.752787 54.203664 
L 219.198711 54.45962 
L 220.536483 58.953475 
L 220.982408 50.378368 
L 221.428332 46.073551 
L 221.874256 42.943019 
L 223.657952 37.755098 
L 224.103876 39.887034 
L 224.5498 40.256086 
L 224.995724 40.843241 
L 225.441649 43.143032 
L 226.779421 38.670824 
L 227.225345 43.672801 
L 227.671269 56.114637 
L 228.117193 56.574396 
L 228.563117 60.025872 
L 229.90089 59.860877 
L 230.346814 54.846042 
L 230.792738 54.014138 
L 231.238662 63.099506 
L 231.684586 61.029466 
L 233.468282 70.240301 
L 234.36013 78.642344 
L 234.806055 87.811511 
L 236.143827 85.758864 
L 236.589751 93.278966 
L 237.035675 93.211582 
L 237.481599 97.719737 
L 237.927523 87.772215 
L 239.265296 76.598021 
L 239.71122 74.071316 
L 240.157144 72.367725 
L 240.603068 85.194798 
L 241.048992 79.975928 
L 242.386764 81.936428 
L 242.832688 77.679695 
L 243.278612 70.633884 
L 243.724536 77.889473 
L 244.170461 87.282206 
L 245.508233 87.287694 
L 245.954157 78.981867 
L 246.400081 79.354965 
L 246.846005 89.05439 
L 247.291929 93.069909 
L 249.075626 97.035459 
L 249.52155 105.226748 
L 249.967474 94.843278 
L 250.413398 89.580579 
L 251.75117 88.228648 
L 252.197094 93.441589 
L 252.643018 88.213907 
L 253.534867 98.656413 
L 254.872639 110.144204 
L 255.318563 110.987315 
L 255.764487 100.03478 
L 256.210411 103.025057 
L 256.656335 109.838257 
L 257.994108 116.090484 
L 258.440032 107.342732 
L 258.885956 95.725196 
L 259.33188 91.481554 
L 259.777804 84.837185 
L 261.115576 86.155772 
L 261.5615 79.718531 
L 262.007424 84.152419 
L 262.453349 77.741848 
L 262.899273 78.278523 
L 264.237045 73.859399 
L 264.682969 67.555995 
L 265.574817 77.058988 
L 266.020741 76.083249 
L 267.358514 69.629592 
L 268.250362 84.956699 
L 268.696286 84.754804 
L 269.14221 89.190576 
L 270.479982 96.310677 
L 270.925906 97.272348 
L 271.37183 90.795602 
L 271.817755 97.760218 
L 273.601451 98.205932 
L 274.047375 91.365365 
L 274.493299 95.331845 
L 275.385147 109.945866 
L 276.72292 106.003916 
L 277.168844 118.244787 
L 277.614768 118.287896 
L 278.060692 109.178231 
L 278.506616 121.96152 
L 279.844388 117.166694 
L 280.290312 116.506203 
L 280.736237 106.956055 
L 281.182161 122.365079 
L 282.965857 138.899607 
L 283.411781 136.175284 
L 283.857705 145.066592 
L 284.303629 144.906597 
L 284.749553 134.572165 
L 286.087326 137.958164 
L 286.53325 130.29783 
L 286.979174 143.782999 
L 287.871022 145.295646 
L 289.208794 140.994409 
L 289.654718 147.442579 
L 290.100643 143.387997 
L 290.546567 136.10432 
L 290.992491 126.807059 
L 292.776187 127.991367 
L 293.222111 130.06115 
L 293.668035 122.383889 
L 294.113959 129.626132 
L 295.451732 128.468029 
L 295.897656 125.75703 
L 296.34358 127.875177 
L 297.235428 145.643284 
L 298.5732 158.281296 
L 298.5732 158.281296 
" clip-path="url(#pcb504d6986)" style="fill: none; stroke: #000000; stroke-linecap: square"/>
   </g>
   <g id="patch_3">
    <path d="M 49.48 168.607581 
L 49.48 26.88 
" style="fill: none; stroke: #000000; stroke-width: 0.8; stroke-linejoin: miter; stroke-linecap: square"/>
   </g>
   <g id="patch_4">
    <path d="M 339.865772 168.607581 
L 339.865772 26.88 
" style="fill: none; stroke: #000000; stroke-width: 0.8; stroke-linejoin: miter; stroke-linecap: square"/>
   </g>
   <g id="patch_5">
    <path d="M 49.48 168.607581 
L 339.865772 168.607581 
" style="fill: none; stroke: #000000; stroke-width: 0.8; stroke-linejoin: miter; stroke-linecap: square"/>
   </g>
   <g id="patch_6">
    <path d="M 49.48 26.88 
L 339.865772 26.88 
" style="fill: none; stroke: #000000; stroke-width: 0.8; stroke-linejoin: miter; stroke-linecap: square"/>
   </g>
   <g id="text_18">
    <!-- NASDAQ -->
    <g transform="translate(169.033198 20.88)scale(0.12 -0.12)">
     <defs>
      <path id="DejaVuSans-4e" d="M 628 4666 
L 1478 4666 
L 3547 763 
L 3547 4666 
L 4159 4666 
L 4159 0 
L 3309 0 
L 1241 3903 
L 1241 0 
L 628 0 
L 628 4666 
z
" transform="scale(0.015625)"/>
      <path id="DejaVuSans-41" d="M 2188 4044 
L 1331 1722 
L 3047 1722 
L 2188 4044 
z
M 1831 4666 
L 2547 4666 
L 4325 0 
L 3669 0 
L 3244 1197 
L 1141 1197 
L 716 0 
L 50 0 
L 1831 4666 
z
" transform="scale(0.015625)"/>
      <path id="DejaVuSans-53" d="M 3425 4513 
L 3425 3897 
Q 3066 4069 2747 4153 
Q 2428 4238 2131 4238 
Q 1616 4238 1336 4038 
Q 1056 3838 1056 3469 
Q 1056 3159 1242 3001 
Q 1428 2844 1947 2747 
L 2328 2669 
Q 3034 2534 3370 2195 
Q 3706 1856 3706 1288 
Q 3706 609 3251 259 
Q 2797 -91 1919 -91 
Q 1588 -91 1214 -16 
Q 841 59 441 206 
L 441 856 
Q 825 641 1194 531 
Q 1563 422 1919 422 
Q 2459 422 2753 634 
Q 3047 847 3047 1241 
Q 3047 1584 2836 1778 
Q 2625 1972 2144 2069 
L 1759 2144 
Q 1053 2284 737 2584 
Q 422 2884 422 3419 
Q 422 4038 858 4394 
Q 1294 4750 2059 4750 
Q 2388 4750 2728 4690 
Q 3069 4631 3425 4513 
z
" transform="scale(0.015625)"/>
      <path id="DejaVuSans-44" d="M 1259 4147 
L 1259 519 
L 2022 519 
Q 2988 519 3436 956 
Q 3884 1394 3884 2338 
Q 3884 3275 3436 3711 
Q 2988 4147 2022 4147 
L 1259 4147 
z
M 628 4666 
L 1925 4666 
Q 3281 4666 3915 4102 
Q 4550 3538 4550 2338 
Q 4550 1131 3912 565 
Q 3275 0 1925 0 
L 628 0 
L 628 4666 
z
" transform="scale(0.015625)"/>
      <path id="DejaVuSans-51" d="M 2522 4238 
Q 1834 4238 1429 3725 
Q 1025 3213 1025 2328 
Q 1025 1447 1429 934 
Q 1834 422 2522 422 
Q 3209 422 3611 934 
Q 4013 1447 4013 2328 
Q 4013 3213 3611 3725 
Q 3209 4238 2522 4238 
z
M 3406 84 
L 4238 -825 
L 3475 -825 
L 2784 -78 
Q 2681 -84 2626 -87 
Q 2572 -91 2522 -91 
Q 1538 -91 948 567 
Q 359 1225 359 2328 
Q 359 3434 948 4092 
Q 1538 4750 2522 4750 
Q 3503 4750 4090 4092 
Q 4678 3434 4678 2328 
Q 4678 1516 4351 937 
Q 4025 359 3406 84 
z
" transform="scale(0.015625)"/>
     </defs>
     <use xlink:href="#DejaVuSans-4e"/>
     <use xlink:href="#DejaVuSans-41" x="74.804688"/>
     <use xlink:href="#DejaVuSans-53" x="143.212891"/>
     <use xlink:href="#DejaVuSans-44" x="206.689453"/>
     <use xlink:href="#DejaVuSans-41" x="281.941406"/>
     <use xlink:href="#DejaVuSans-51" x="348.599609"/>
    </g>
   </g>
  </g>
 </g>
 <defs>
  <clipPath id="pcb504d6986">
   <rect x="49.48" y="26.88" width="290.385772" height="141.727581"/>
  </clipPath>
 </defs>
</svg>
