<?xml version="1.0" encoding="utf-8" standalone="no"?>
<!DOCTYPE svg PUBLIC "-//W3C//DTD SVG 1.1//EN"
  "http://www.w3.org/Graphics/SVG/1.1/DTD/svg11.dtd">
<svg xmlns:xlink="http://www.w3.org/1999/xlink" width="360pt" height="216pt" viewBox="0 0 360 216" xmlns="http://www.w3.org/2000/svg" version="1.1">
 <metadata>
  <rdf:RDF xmlns:dc="http://purl.org/dc/elements/1.1/" xmlns:cc="http://creativecommons.org/ns#" xmlns:rdf="http://www.w3.org/1999/02/22-rdf-syntax-ns#">
   <cc:Work>
    <dc:type rdf:resource="http://purl.org/dc/dcmitype/StillImage"/>
    <dc:date>2023-01-10T15:58:08.630030</dc:date>
    <dc:format>image/svg+xml</dc:format>
    <dc:creator>
     <cc:Agent>
      <dc:title>Matplotlib v3.6.1, https://matplotlib.org/</dc:title>
     </cc:Agent>
    </dc:creator>
   </cc:Work>
  </rdf:RDF>
 </metadata>
 <defs>
  <style type="text/css">*{stroke-linejoin: round; stroke-linecap: butt}</style>
 </defs>
 <g id="figure_1">
  <g id="patch_1">
   <path d="M 0 216 
L 360 216 
L 360 0 
L 0 0 
z
" style="fill: #ffffff"/>
  </g>
  <g id="axes_1">
   <g id="patch_2">
    <path d="M 49.48 168.671221 
L 349.2 168.671221 
L 349.2 26.88 
L 49.48 26.88 
z
" style="fill: #ffffff"/>
   </g>
   <g id="matplotlib.axis_1">
    <g id="xtick_1">
     <g id="line2d_1">
      <defs>
       <path id="mf491591457" d="M 0 0 
L 0 3.5 
" style="stroke: #000000; stroke-width: 0.8"/>
      </defs>
      <g>
       <use xlink:href="#mf491591457" x="61.991503" y="168.671221" style="stroke: #000000; stroke-width: 0.8"/>
      </g>
     </g>
     <g id="text_1">
      <!-- '21-01 -->
      <g transform="translate(52.697468 203.534543) rotate(-45) scale(0.1 -0.1)">
       <defs>
        <path id="DejaVuSans-27" d="M 1147 4666 
L 1147 2931 
L 616 2931 
L 616 4666 
L 1147 4666 
z
" transform="scale(0.015625)"/>
        <path id="DejaVuSans-32" d="M 1228 531 
L 3431 531 
L 3431 0 
L 469 0 
L 469 531 
Q 828 903 1448 1529 
Q 2069 2156 2228 2338 
Q 2531 2678 2651 2914 
Q 2772 3150 2772 3378 
Q 2772 3750 2511 3984 
Q 2250 4219 1831 4219 
Q 1534 4219 1204 4116 
Q 875 4013 500 3803 
L 500 4441 
Q 881 4594 1212 4672 
Q 1544 4750 1819 4750 
Q 2544 4750 2975 4387 
Q 3406 4025 3406 3419 
Q 3406 3131 3298 2873 
Q 3191 2616 2906 2266 
Q 2828 2175 2409 1742 
Q 1991 1309 1228 531 
z
" transform="scale(0.015625)"/>
        <path id="DejaVuSans-31" d="M 794 531 
L 1825 531 
L 1825 4091 
L 703 3866 
L 703 4441 
L 1819 4666 
L 2450 4666 
L 2450 531 
L 3481 531 
L 3481 0 
L 794 0 
L 794 531 
z
" transform="scale(0.015625)"/>
        <path id="DejaVuSans-2d" d="M 313 2009 
L 1997 2009 
L 1997 1497 
L 313 1497 
L 313 2009 
z
" transform="scale(0.015625)"/>
        <path id="DejaVuSans-30" d="M 2034 4250 
Q 1547 4250 1301 3770 
Q 1056 3291 1056 2328 
Q 1056 1369 1301 889 
Q 1547 409 2034 409 
Q 2525 409 2770 889 
Q 3016 1369 3016 2328 
Q 3016 3291 2770 3770 
Q 2525 4250 2034 4250 
z
M 2034 4750 
Q 2819 4750 3233 4129 
Q 3647 3509 3647 2328 
Q 3647 1150 3233 529 
Q 2819 -91 2034 -91 
Q 1250 -91 836 529 
Q 422 1150 422 2328 
Q 422 3509 836 4129 
Q 1250 4750 2034 4750 
z
" transform="scale(0.015625)"/>
       </defs>
       <use xlink:href="#DejaVuSans-27"/>
       <use xlink:href="#DejaVuSans-32" x="27.490234"/>
       <use xlink:href="#DejaVuSans-31" x="91.113281"/>
       <use xlink:href="#DejaVuSans-2d" x="154.736328"/>
       <use xlink:href="#DejaVuSans-30" x="190.820312"/>
       <use xlink:href="#DejaVuSans-31" x="254.443359"/>
      </g>
     </g>
    </g>
    <g id="xtick_2">
     <g id="line2d_2">
      <g>
       <use xlink:href="#mf491591457" x="95.340064" y="168.671221" style="stroke: #000000; stroke-width: 0.8"/>
      </g>
     </g>
     <g id="text_2">
      <!-- '21-04 -->
      <g transform="translate(86.046029 203.534543) rotate(-45) scale(0.1 -0.1)">
       <defs>
        <path id="DejaVuSans-34" d="M 2419 4116 
L 825 1625 
L 2419 1625 
L 2419 4116 
z
M 2253 4666 
L 3047 4666 
L 3047 1625 
L 3713 1625 
L 3713 1100 
L 3047 1100 
L 3047 0 
L 2419 0 
L 2419 1100 
L 313 1100 
L 313 1709 
L 2253 4666 
z
" transform="scale(0.015625)"/>
       </defs>
       <use xlink:href="#DejaVuSans-27"/>
       <use xlink:href="#DejaVuSans-32" x="27.490234"/>
       <use xlink:href="#DejaVuSans-31" x="91.113281"/>
       <use xlink:href="#DejaVuSans-2d" x="154.736328"/>
       <use xlink:href="#DejaVuSans-30" x="190.820312"/>
       <use xlink:href="#DejaVuSans-34" x="254.443359"/>
      </g>
     </g>
    </g>
    <g id="xtick_3">
     <g id="line2d_3">
      <g>
       <use xlink:href="#mf491591457" x="129.074783" y="168.671221" style="stroke: #000000; stroke-width: 0.8"/>
      </g>
     </g>
     <g id="text_3">
      <!-- '21-07 -->
      <g transform="translate(119.780748 203.534543) rotate(-45) scale(0.1 -0.1)">
       <defs>
        <path id="DejaVuSans-37" d="M 525 4666 
L 3525 4666 
L 3525 4397 
L 1831 0 
L 1172 0 
L 2766 4134 
L 525 4134 
L 525 4666 
z
" transform="scale(0.015625)"/>
       </defs>
       <use xlink:href="#DejaVuSans-27"/>
       <use xlink:href="#DejaVuSans-32" x="27.490234"/>
       <use xlink:href="#DejaVuSans-31" x="91.113281"/>
       <use xlink:href="#DejaVuSans-2d" x="154.736328"/>
       <use xlink:href="#DejaVuSans-30" x="190.820312"/>
       <use xlink:href="#DejaVuSans-37" x="254.443359"/>
      </g>
     </g>
    </g>
    <g id="xtick_4">
     <g id="line2d_4">
      <g>
       <use xlink:href="#mf491591457" x="163.180212" y="168.671221" style="stroke: #000000; stroke-width: 0.8"/>
      </g>
     </g>
     <g id="text_4">
      <!-- '21-10 -->
      <g transform="translate(153.886178 203.534543) rotate(-45) scale(0.1 -0.1)">
       <use xlink:href="#DejaVuSans-27"/>
       <use xlink:href="#DejaVuSans-32" x="27.490234"/>
       <use xlink:href="#DejaVuSans-31" x="91.113281"/>
       <use xlink:href="#DejaVuSans-2d" x="154.736328"/>
       <use xlink:href="#DejaVuSans-31" x="190.820312"/>
       <use xlink:href="#DejaVuSans-30" x="254.443359"/>
      </g>
     </g>
    </g>
    <g id="xtick_5">
     <g id="line2d_5">
      <g>
       <use xlink:href="#mf491591457" x="197.301088" y="168.671221" style="stroke: #000000; stroke-width: 0.8"/>
      </g>
     </g>
     <g id="text_5">
      <!-- '22-01 -->
      <g transform="translate(188.007054 203.534543) rotate(-45) scale(0.1 -0.1)">
       <use xlink:href="#DejaVuSans-27"/>
       <use xlink:href="#DejaVuSans-32" x="27.490234"/>
       <use xlink:href="#DejaVuSans-32" x="91.113281"/>
       <use xlink:href="#DejaVuSans-2d" x="154.736328"/>
       <use xlink:href="#DejaVuSans-30" x="190.820312"/>
       <use xlink:href="#DejaVuSans-31" x="254.443359"/>
      </g>
     </g>
    </g>
    <g id="xtick_6">
     <g id="line2d_6">
      <g>
       <use xlink:href="#mf491591457" x="230.64965" y="168.671221" style="stroke: #000000; stroke-width: 0.8"/>
      </g>
     </g>
     <g id="text_6">
      <!-- '22-04 -->
      <g transform="translate(221.355615 203.534543) rotate(-45) scale(0.1 -0.1)">
       <use xlink:href="#DejaVuSans-27"/>
       <use xlink:href="#DejaVuSans-32" x="27.490234"/>
       <use xlink:href="#DejaVuSans-32" x="91.113281"/>
       <use xlink:href="#DejaVuSans-2d" x="154.736328"/>
       <use xlink:href="#DejaVuSans-30" x="190.820312"/>
       <use xlink:href="#DejaVuSans-34" x="254.443359"/>
      </g>
     </g>
    </g>
    <g id="xtick_7">
     <g id="line2d_7">
      <g>
       <use xlink:href="#mf491591457" x="264.384368" y="168.671221" style="stroke: #000000; stroke-width: 0.8"/>
      </g>
     </g>
     <g id="text_7">
      <!-- '22-07 -->
      <g transform="translate(255.090333 203.534543) rotate(-45) scale(0.1 -0.1)">
       <use xlink:href="#DejaVuSans-27"/>
       <use xlink:href="#DejaVuSans-32" x="27.490234"/>
       <use xlink:href="#DejaVuSans-32" x="91.113281"/>
       <use xlink:href="#DejaVuSans-2d" x="154.736328"/>
       <use xlink:href="#DejaVuSans-30" x="190.820312"/>
       <use xlink:href="#DejaVuSans-37" x="254.443359"/>
      </g>
     </g>
    </g>
    <g id="xtick_8">
     <g id="line2d_8">
      <g>
       <use xlink:href="#mf491591457" x="298.489798" y="168.671221" style="stroke: #000000; stroke-width: 0.8"/>
      </g>
     </g>
     <g id="text_8">
      <!-- '22-10 -->
      <g transform="translate(289.195763 203.534543) rotate(-45) scale(0.1 -0.1)">
       <use xlink:href="#DejaVuSans-27"/>
       <use xlink:href="#DejaVuSans-32" x="27.490234"/>
       <use xlink:href="#DejaVuSans-32" x="91.113281"/>
       <use xlink:href="#DejaVuSans-2d" x="154.736328"/>
       <use xlink:href="#DejaVuSans-31" x="190.820312"/>
       <use xlink:href="#DejaVuSans-30" x="254.443359"/>
      </g>
     </g>
    </g>
    <g id="xtick_9">
     <g id="line2d_9">
      <g>
       <use xlink:href="#mf491591457" x="332.610674" y="168.671221" style="stroke: #000000; stroke-width: 0.8"/>
      </g>
     </g>
     <g id="text_9">
      <!-- '23-01 -->
      <g transform="translate(323.316639 203.534543) rotate(-45) scale(0.1 -0.1)">
       <defs>
        <path id="DejaVuSans-33" d="M 2597 2516 
Q 3050 2419 3304 2112 
Q 3559 1806 3559 1356 
Q 3559 666 3084 287 
Q 2609 -91 1734 -91 
Q 1441 -91 1130 -33 
Q 819 25 488 141 
L 488 750 
Q 750 597 1062 519 
Q 1375 441 1716 441 
Q 2309 441 2620 675 
Q 2931 909 2931 1356 
Q 2931 1769 2642 2001 
Q 2353 2234 1838 2234 
L 1294 2234 
L 1294 2753 
L 1863 2753 
Q 2328 2753 2575 2939 
Q 2822 3125 2822 3475 
Q 2822 3834 2567 4026 
Q 2313 4219 1838 4219 
Q 1578 4219 1281 4162 
Q 984 4106 628 3988 
L 628 4550 
Q 988 4650 1302 4700 
Q 1616 4750 1894 4750 
Q 2613 4750 3031 4423 
Q 3450 4097 3450 3541 
Q 3450 3153 3228 2886 
Q 3006 2619 2597 2516 
z
" transform="scale(0.015625)"/>
       </defs>
       <use xlink:href="#DejaVuSans-27"/>
       <use xlink:href="#DejaVuSans-32" x="27.490234"/>
       <use xlink:href="#DejaVuSans-33" x="91.113281"/>
       <use xlink:href="#DejaVuSans-2d" x="154.736328"/>
       <use xlink:href="#DejaVuSans-30" x="190.820312"/>
       <use xlink:href="#DejaVuSans-31" x="254.443359"/>
      </g>
     </g>
    </g>
   </g>
   <g id="matplotlib.axis_2">
    <g id="ytick_1">
     <g id="line2d_10">
      <defs>
       <path id="mc23b32f614" d="M 0 0 
L -3.5 0 
" style="stroke: #000000; stroke-width: 0.8"/>
      </defs>
      <g>
       <use xlink:href="#mc23b32f614" x="49.48" y="166.930583" style="stroke: #000000; stroke-width: 0.8"/>
      </g>
     </g>
     <g id="text_10">
      <!-- 10000 -->
      <g transform="translate(10.6675 170.729801) scale(0.1 -0.1)">
       <use xlink:href="#DejaVuSans-31"/>
       <use xlink:href="#DejaVuSans-30" x="63.623047"/>
       <use xlink:href="#DejaVuSans-30" x="127.246094"/>
       <use xlink:href="#DejaVuSans-30" x="190.869141"/>
       <use xlink:href="#DejaVuSans-30" x="254.492188"/>
      </g>
     </g>
    </g>
    <g id="ytick_2">
     <g id="line2d_11">
      <g>
       <use xlink:href="#mc23b32f614" x="49.48" y="144.87415" style="stroke: #000000; stroke-width: 0.8"/>
      </g>
     </g>
     <g id="text_11">
      <!-- 11000 -->
      <g transform="translate(10.6675 148.673369) scale(0.1 -0.1)">
       <use xlink:href="#DejaVuSans-31"/>
       <use xlink:href="#DejaVuSans-31" x="63.623047"/>
       <use xlink:href="#DejaVuSans-30" x="127.246094"/>
       <use xlink:href="#DejaVuSans-30" x="190.869141"/>
       <use xlink:href="#DejaVuSans-30" x="254.492188"/>
      </g>
     </g>
    </g>
    <g id="ytick_3">
     <g id="line2d_12">
      <g>
       <use xlink:href="#mc23b32f614" x="49.48" y="122.817717" style="stroke: #000000; stroke-width: 0.8"/>
      </g>
     </g>
     <g id="text_12">
      <!-- 12000 -->
      <g transform="translate(10.6675 126.616936) scale(0.1 -0.1)">
       <use xlink:href="#DejaVuSans-31"/>
       <use xlink:href="#DejaVuSans-32" x="63.623047"/>
       <use xlink:href="#DejaVuSans-30" x="127.246094"/>
       <use xlink:href="#DejaVuSans-30" x="190.869141"/>
       <use xlink:href="#DejaVuSans-30" x="254.492188"/>
      </g>
     </g>
    </g>
    <g id="ytick_4">
     <g id="line2d_13">
      <g>
       <use xlink:href="#mc23b32f614" x="49.48" y="100.761285" style="stroke: #000000; stroke-width: 0.8"/>
      </g>
     </g>
     <g id="text_13">
      <!-- 13000 -->
      <g transform="translate(10.6675 104.560503) scale(0.1 -0.1)">
       <use xlink:href="#DejaVuSans-31"/>
       <use xlink:href="#DejaVuSans-33" x="63.623047"/>
       <use xlink:href="#DejaVuSans-30" x="127.246094"/>
       <use xlink:href="#DejaVuSans-30" x="190.869141"/>
       <use xlink:href="#DejaVuSans-30" x="254.492188"/>
      </g>
     </g>
    </g>
    <g id="ytick_5">
     <g id="line2d_14">
      <g>
       <use xlink:href="#mc23b32f614" x="49.48" y="78.704852" style="stroke: #000000; stroke-width: 0.8"/>
      </g>
     </g>
     <g id="text_14">
      <!-- 14000 -->
      <g transform="translate(10.6675 82.504071) scale(0.1 -0.1)">
       <use xlink:href="#DejaVuSans-31"/>
       <use xlink:href="#DejaVuSans-34" x="63.623047"/>
       <use xlink:href="#DejaVuSans-30" x="127.246094"/>
       <use xlink:href="#DejaVuSans-30" x="190.869141"/>
       <use xlink:href="#DejaVuSans-30" x="254.492188"/>
      </g>
     </g>
    </g>
    <g id="ytick_6">
     <g id="line2d_15">
      <g>
       <use xlink:href="#mc23b32f614" x="49.48" y="56.648419" style="stroke: #000000; stroke-width: 0.8"/>
      </g>
     </g>
     <g id="text_15">
      <!-- 15000 -->
      <g transform="translate(10.6675 60.447638) scale(0.1 -0.1)">
       <defs>
        <path id="DejaVuSans-35" d="M 691 4666 
L 3169 4666 
L 3169 4134 
L 1269 4134 
L 1269 2991 
Q 1406 3038 1543 3061 
Q 1681 3084 1819 3084 
Q 2600 3084 3056 2656 
Q 3513 2228 3513 1497 
Q 3513 744 3044 326 
Q 2575 -91 1722 -91 
Q 1428 -91 1123 -41 
Q 819 9 494 109 
L 494 744 
Q 775 591 1075 516 
Q 1375 441 1709 441 
Q 2250 441 2565 725 
Q 2881 1009 2881 1497 
Q 2881 1984 2565 2268 
Q 2250 2553 1709 2553 
Q 1456 2553 1204 2497 
Q 953 2441 691 2322 
L 691 4666 
z
" transform="scale(0.015625)"/>
       </defs>
       <use xlink:href="#DejaVuSans-31"/>
       <use xlink:href="#DejaVuSans-35" x="63.623047"/>
       <use xlink:href="#DejaVuSans-30" x="127.246094"/>
       <use xlink:href="#DejaVuSans-30" x="190.869141"/>
       <use xlink:href="#DejaVuSans-30" x="254.492188"/>
      </g>
     </g>
    </g>
    <g id="ytick_7">
     <g id="line2d_16">
      <g>
       <use xlink:href="#mc23b32f614" x="49.48" y="34.591986" style="stroke: #000000; stroke-width: 0.8"/>
      </g>
     </g>
     <g id="text_16">
      <!-- 16000 -->
      <g transform="translate(10.6675 38.391205) scale(0.1 -0.1)">
       <defs>
        <path id="DejaVuSans-36" d="M 2113 2584 
Q 1688 2584 1439 2293 
Q 1191 2003 1191 1497 
Q 1191 994 1439 701 
Q 1688 409 2113 409 
Q 2538 409 2786 701 
Q 3034 994 3034 1497 
Q 3034 2003 2786 2293 
Q 2538 2584 2113 2584 
z
M 3366 4563 
L 3366 3988 
Q 3128 4100 2886 4159 
Q 2644 4219 2406 4219 
Q 1781 4219 1451 3797 
Q 1122 3375 1075 2522 
Q 1259 2794 1537 2939 
Q 1816 3084 2150 3084 
Q 2853 3084 3261 2657 
Q 3669 2231 3669 1497 
Q 3669 778 3244 343 
Q 2819 -91 2113 -91 
Q 1303 -91 875 529 
Q 447 1150 447 2328 
Q 447 3434 972 4092 
Q 1497 4750 2381 4750 
Q 2619 4750 2861 4703 
Q 3103 4656 3366 4563 
z
" transform="scale(0.015625)"/>
       </defs>
       <use xlink:href="#DejaVuSans-31"/>
       <use xlink:href="#DejaVuSans-36" x="63.623047"/>
       <use xlink:href="#DejaVuSans-30" x="127.246094"/>
       <use xlink:href="#DejaVuSans-30" x="190.869141"/>
       <use xlink:href="#DejaVuSans-30" x="254.492188"/>
      </g>
     </g>
    </g>
   </g>
   <g id="line2d_17">
    <path d="M 245.107386 128.603783 
L 245.478097 136.84031 
L 245.848808 136.692097 
L 246.21952 127.118722 
L 247.331653 130.255366 
L 247.702364 123.159161 
L 248.073076 135.651244 
L 248.814498 137.052495 
L 249.926632 133.068014 
L 250.297343 139.041322 
L 250.668054 135.285331 
L 251.409476 119.92546 
L 252.892321 121.022552 
L 253.263032 122.939911 
L 253.633744 115.828025 
L 254.004455 122.536929 
L 255.116588 121.464111 
L 255.4873 118.952758 
L 255.858011 120.914919 
L 256.599433 137.374532 
L 257.711567 149.081845 
L 258.082278 148.660145 
L 258.452989 142.687246 
L 258.8237 152.67993 
L 259.194411 149.321838 
L 260.677256 143.345644 
L 261.047967 143.703393 
L 261.418679 139.752857 
L 261.78939 131.472218 
L 262.901523 133.304453 
L 263.272235 140.870024 
L 263.642946 140.950539 
L 264.013657 144.240243 
L 264.384368 142.054244 
L 266.237924 136.893038 
L 266.608635 131.169394 
L 266.979347 130.861487 
L 268.462191 139.03514 
L 268.832902 139.413417 
L 269.203614 139.333785 
L 269.574325 134.89538 
L 270.686458 136.932736 
L 271.05717 129.144596 
L 271.798592 121.502926 
L 272.169303 126.476651 
L 273.281437 127.611244 
L 273.652148 132.465856 
L 274.022859 122.102649 
L 274.39357 119.231565 
L 274.764282 114.20048 
L 275.876415 114.679324 
L 276.247126 115.125321 
L 276.617838 108.080488 
L 276.988549 106.924291 
L 277.35926 108.314514 
L 278.471394 108.60323 
L 278.842105 111.92339 
L 279.212816 103.963883 
L 279.583527 105.615681 
L 279.954238 99.720432 
L 281.066372 97.936963 
L 281.437083 98.499402 
L 281.807794 102.126134 
L 282.178505 101.525764 
L 282.549217 107.263086 
L 283.66135 114.401637 
L 284.032061 114.407604 
L 284.402773 113.299699 
L 284.773484 108.717712 
L 285.144195 119.692101 
L 286.256329 122.427982 
L 286.62704 125.39524 
L 286.997751 126.871685 
L 287.368462 127.556986 
L 287.739173 130.959621 
L 289.222018 132.855376 
L 289.592729 127.407652 
L 289.963441 125.85864 
L 290.334152 120.340569 
L 291.446285 116.94166 
L 291.816996 130.899849 
L 292.187708 129.000583 
L 292.558419 132.691051 
L 292.92913 134.984037 
L 294.041264 133.073528 
L 294.411975 135.499068 
L 295.524108 147.78715 
L 296.636242 149.221033 
L 297.006953 148.634772 
L 297.377664 143.735164 
L 297.748376 150.663748 
L 298.119087 154.234456 
L 299.23122 148.945113 
L 299.601932 140.983171 
L 299.972643 141.59569 
L 300.343354 143.257202 
L 300.714065 152.540957 
L 301.826199 154.973799 
L 302.19691 157.530342 
L 302.567621 157.730853 
L 302.938332 152.612641 
L 303.309043 159.841874 
L 304.791888 149.894185 
L 305.533311 153.369409 
L 305.904022 147.968232 
L 307.016155 145.919397 
L 307.386867 140.482271 
L 308.128289 149.447112 
L 308.499 142.614464 
L 309.611134 145.13551 
L 309.981845 147.281618 
L 310.352556 155.355371 
L 310.723267 159.36654 
L 311.093979 156.448263 
L 312.221558 154.479296 
L 312.59227 153.339405 
L 312.962981 159.140914 
L 313.333692 142.3564 
L 313.704403 137.742642 
L 314.816537 140.546243 
L 315.187248 136.968901 
L 315.557959 140.823262 
L 315.92867 141.67685 
L 316.299382 141.652597 
L 317.411515 144.333552 
L 318.152938 138.581002 
L 318.89436 139.881448 
L 320.377205 145.231899 
L 320.747916 134.55174 
L 321.118627 134.23302 
L 321.489338 134.695106 
L 322.601472 139.58192 
L 322.972183 144.545737 
L 323.342894 145.788393 
L 323.713605 143.065523 
L 324.084317 144.772247 
L 325.19645 141.703753 
L 325.567161 139.209847 
L 325.937873 141.104934 
L 326.308584 149.053176 
L 326.679295 151.371751 
L 327.791429 154.887103 
L 328.16214 154.86328 
L 328.532851 151.284408 
L 328.903562 156.429071 
L 329.274273 155.949559 
L 330.757118 159.139579 
L 331.127829 162.226165 
L 331.498541 156.385626 
L 331.869252 156.641688 
L 333.352096 158.395174 
L 333.722808 156.811979 
L 334.093519 160.198072 
L 334.46423 154.374075 
L 335.576364 152.910403 
L 335.576364 152.910403 
" clip-path="url(#pdc699f7a17)" style="fill: none; stroke: #d3d3d3; stroke-linecap: square"/>
   </g>
   <g id="line2d_18">
    <path d="M 63.103636 107.412398 
L 63.474348 104.754382 
L 63.845059 106.478532 
L 64.21577 99.272906 
L 64.586481 96.306316 
L 65.698615 99.957776 
L 66.069326 99.163744 
L 66.440037 97.917103 
L 66.810748 98.276856 
L 67.181459 100.794369 
L 68.664304 96.412204 
L 69.035015 90.675981 
L 69.405727 89.0513 
L 69.776438 88.783328 
L 70.888571 86.733609 
L 71.259283 86.952644 
L 71.629994 94.792823 
L 72.000705 93.324734 
L 72.371416 99.202106 
L 73.48355 91.863948 
L 73.854261 87.245538 
L 74.224972 87.294949 
L 74.595683 83.607109 
L 74.966395 81.874366 
L 76.078528 78.977477 
L 76.449239 78.535013 
L 76.819951 79.310736 
L 77.561373 76.59913 
L 79.044218 77.657171 
L 79.78564 81.674522 
L 80.156351 81.473817 
L 81.268485 89.004107 
L 81.639196 90.500628 
L 82.009907 87.572206 
L 82.380618 98.127092 
L 82.75133 96.518738 
L 83.863463 87.773794 
L 84.234174 92.847656 
L 84.975597 106.860556 
L 85.346308 102.522482 
L 86.458442 109.381817 
L 86.829153 99.133072 
L 87.199864 99.243139 
L 87.570575 91.968048 
L 87.941286 93.706306 
L 89.037974 90.621723 
L 89.408685 90.360126 
L 89.779396 89.177242 
L 90.150107 98.198991 
L 90.520818 96.013853 
L 91.632952 92.434098 
L 92.003663 95.739031 
L 92.374374 101.601863 
L 92.745086 101.253591 
L 93.115797 97.701385 
L 94.22793 99.44561 
L 94.598642 99.760151 
L 95.340064 90.171763 
L 96.822909 85.19849 
L 97.564331 85.567935 
L 97.935042 82.469674 
L 98.305753 80.906295 
L 99.417887 82.013317 
L 99.788598 78.790881 
L 100.159309 81.840398 
L 100.530021 77.84995 
L 100.900732 77.550422 
L 102.012865 80.584732 
L 102.383577 83.418984 
L 102.754288 79.802827 
L 103.124999 82.710076 
L 103.49571 78.334093 
L 104.607844 75.643854 
L 105.349266 77.579306 
L 105.719977 76.884098 
L 106.090689 79.528005 
L 107.202822 81.018128 
L 107.573533 86.788534 
L 107.944244 87.915179 
L 108.314956 86.803095 
L 108.685667 84.169548 
L 109.7978 91.897679 
L 110.168512 92.171855 
L 110.539223 100.062544 
L 110.909934 98.004446 
L 111.280645 91.277449 
L 112.392779 92.400798 
L 112.76349 94.064077 
L 113.134201 94.150084 
L 113.504912 88.944766 
L 113.875624 90.37292 
L 114.987757 86.178235 
L 115.358468 86.26646 
L 115.72918 84.483637 
L 116.099891 84.521568 
L 116.470602 84.246746 
L 117.953447 84.517153 
L 118.324158 84.079341 
L 118.694869 87.207391 
L 119.06558 82.796536 
L 120.177714 81.313693 
L 120.548425 80.361066 
L 120.919136 80.651332 
L 121.289847 78.256443 
L 121.660559 77.173696 
L 122.772692 74.863952 
L 123.143403 77.097812 
L 123.514115 77.82966 
L 123.884826 75.146055 
L 124.255537 78.03478 
L 125.367671 75.584297 
L 125.738382 73.11863 
L 126.109093 72.711447 
L 126.479804 70.550369 
L 126.850515 70.755942 
L 127.962649 67.665392 
L 128.33336 67.051775 
L 128.704071 67.589508 
L 129.074783 67.183015 
L 129.445494 64.603511 
L 131.29905 64.03601 
L 131.669761 66.358096 
L 132.040472 63.223002 
L 133.152606 62.532188 
L 133.523317 63.758302 
L 133.894028 64.479551 
L 134.63545 69.281456 
L 135.747584 72.639764 
L 136.118295 67.701341 
L 136.489006 64.766285 
L 136.859718 63.605027 
L 137.230429 60.243833 
L 138.342562 60.161789 
L 138.713274 64.134812 
L 139.083985 61.885056 
L 139.454696 61.539218 
L 139.825407 63.867938 
L 140.937541 63.68287 
L 141.308252 61.913509 
L 141.678963 61.489138 
L 142.049674 58.961695 
L 142.420385 60.270973 
L 143.532519 59.732356 
L 143.90323 61.322401 
L 144.273941 61.828601 
L 144.644653 60.701073 
L 145.015364 60.554605 
L 146.127497 61.197343 
L 146.86892 67.10515 
L 147.239631 66.754896 
L 147.610342 62.941998 
L 149.093187 56.211706 
L 149.463898 55.725129 
L 149.834609 57.843667 
L 150.205321 53.792111 
L 151.317454 50.783842 
L 151.688165 50.930504 
L 152.058877 49.824603 
L 152.429588 49.343777 
L 152.800299 48.630475 
L 154.283144 48.392033 
L 154.653855 50.326171 
L 155.024566 51.17291 
L 155.395277 54.101117 
L 156.507411 54.319699 
L 156.878122 55.815573 
L 157.248833 53.085638 
L 157.619544 52.635915 
L 157.990256 55.678604 
L 159.102389 62.958756 
L 159.4731 62.241922 
L 160.214523 55.496186 
L 160.585234 55.596323 
L 161.697368 57.31078 
L 162.068079 66.647048 
L 162.43879 67.402244 
L 162.809501 68.810776 
L 163.180212 66.205467 
L 164.292346 73.069864 
L 164.663057 69.136108 
L 165.033768 67.634504 
L 165.404479 64.279514 
L 165.775191 65.922266 
L 166.887324 67.98101 
L 167.258035 68.42832 
L 167.628747 66.09652 
L 167.999458 60.54293 
L 168.370169 58.912736 
L 169.482303 56.167378 
L 169.853014 53.801158 
L 170.223725 53.964599 
L 170.594436 51.890842 
L 170.965147 54.658925 
L 172.077281 51.648006 
L 172.447992 51.449498 
L 172.818703 51.446634 
L 173.189415 46.764488 
L 173.560126 45.655721 
L 174.672259 43.504552 
L 175.042971 42.320569 
L 175.784393 35.908544 
L 176.155104 35.218613 
L 177.282684 34.981054 
L 177.653395 37.094508 
L 178.024106 42.913659 
L 178.394818 41.114509 
L 178.765529 37.658714 
L 179.877662 37.815543 
L 180.248374 35.168534 
L 180.619085 36.321866 
L 181.360507 33.325055 
L 182.843352 39.551604 
L 183.214063 38.00565 
L 183.955485 45.80415 
L 185.067619 39.38198 
L 185.809041 51.044987 
L 186.179753 48.237853 
L 186.550464 54.763262 
L 187.662597 51.682405 
L 188.033309 41.497416 
L 188.40402 39.290222 
L 188.774731 45.23708 
L 189.145442 42.739641 
L 190.257576 47.532931 
L 190.628287 51.406936 
L 190.998998 44.17374 
L 191.369709 52.668784 
L 191.740421 52.905891 
L 192.852554 57.068805 
L 193.223265 49.125194 
L 193.964688 42.237405 
L 195.447532 37.431537 
L 195.818244 39.406471 
L 196.188955 39.748345 
L 196.559666 40.29226 
L 196.930377 42.422688 
L 198.042511 38.279826 
L 198.413222 42.913443 
L 198.783933 54.439028 
L 199.154644 54.864928 
L 199.525356 58.062228 
L 200.637489 57.909384 
L 201.0082 53.263855 
L 201.378912 52.493216 
L 201.749623 60.909511 
L 202.120334 58.991915 
L 203.603179 67.524438 
L 204.344601 75.30773 
L 204.715312 83.801654 
L 205.827446 81.90017 
L 206.198157 88.86647 
L 206.568868 88.804049 
L 206.939579 92.98021 
L 207.310291 83.765252 
L 208.422424 73.413957 
L 208.793135 71.073326 
L 209.163847 69.495193 
L 209.534558 81.377644 
L 209.905269 76.543106 
L 211.017403 78.359229 
L 211.388114 74.415974 
L 211.758825 67.889036 
L 212.500247 83.311329 
L 213.612381 83.316413 
L 213.983092 75.62225 
L 214.353803 75.967873 
L 214.724515 84.953004 
L 215.095226 88.672809 
L 216.578071 92.346325 
L 216.948782 99.934384 
L 217.319493 90.315582 
L 217.690204 85.440443 
L 218.802338 84.188072 
L 219.173049 89.017117 
L 219.54376 84.174416 
L 220.285182 93.847907 
L 221.397316 104.489705 
L 221.768027 105.270727 
L 222.138738 95.124768 
L 222.50945 97.894831 
L 222.880161 104.206288 
L 223.976848 109.998084 
L 224.347559 101.894542 
L 224.71827 91.132553 
L 225.088982 87.201425 
L 225.459693 81.046366 
L 226.571826 82.267849 
L 226.942538 76.304664 
L 227.313249 80.412028 
L 227.68396 74.473549 
L 228.054671 74.970702 
L 229.166805 70.877015 
L 229.537516 65.037812 
L 230.278938 73.840978 
L 230.64965 72.937095 
L 231.761783 66.958703 
L 232.503206 81.157079 
L 232.873917 80.970052 
L 233.244628 85.079161 
L 234.356761 91.674917 
L 234.727473 92.565769 
L 235.098184 86.565989 
L 235.468895 93.01771 
L 236.95174 93.430601 
L 237.322451 87.093792 
L 237.693162 90.76817 
L 238.434585 104.305973 
L 239.546718 100.65432 
L 239.917429 111.993738 
L 240.288141 112.033673 
L 240.658852 103.594868 
L 241.029563 115.43676 
L 242.141697 110.995039 
L 242.512408 110.383188 
L 242.883119 101.53634 
L 243.25383 115.8106 
L 244.736675 131.127478 
L 245.107386 128.603783 
L 245.107386 128.603783 
" clip-path="url(#pdc699f7a17)" style="fill: none; stroke: #000000; stroke-linecap: square"/>
   </g>
   <g id="patch_3">
    <path d="M 49.48 168.671221 
L 49.48 26.88 
" style="fill: none; stroke: #000000; stroke-width: 0.8; stroke-linejoin: miter; stroke-linecap: square"/>
   </g>
   <g id="patch_4">
    <path d="M 349.2 168.671221 
L 349.2 26.88 
" style="fill: none; stroke: #000000; stroke-width: 0.8; stroke-linejoin: miter; stroke-linecap: square"/>
   </g>
   <g id="patch_5">
    <path d="M 49.48 168.671221 
L 349.2 168.671221 
" style="fill: none; stroke: #000000; stroke-width: 0.8; stroke-linejoin: miter; stroke-linecap: square"/>
   </g>
   <g id="patch_6">
    <path d="M 49.48 26.88 
L 349.2 26.88 
" style="fill: none; stroke: #000000; stroke-width: 0.8; stroke-linejoin: miter; stroke-linecap: square"/>
   </g>
   <g id="text_17">
    <!-- NASDAQ -->
    <g transform="translate(173.700312 20.88) scale(0.12 -0.12)">
     <defs>
      <path id="DejaVuSans-4e" d="M 628 4666 
L 1478 4666 
L 3547 763 
L 3547 4666 
L 4159 4666 
L 4159 0 
L 3309 0 
L 1241 3903 
L 1241 0 
L 628 0 
L 628 4666 
z
" transform="scale(0.015625)"/>
      <path id="DejaVuSans-41" d="M 2188 4044 
L 1331 1722 
L 3047 1722 
L 2188 4044 
z
M 1831 4666 
L 2547 4666 
L 4325 0 
L 3669 0 
L 3244 1197 
L 1141 1197 
L 716 0 
L 50 0 
L 1831 4666 
z
" transform="scale(0.015625)"/>
      <path id="DejaVuSans-53" d="M 3425 4513 
L 3425 3897 
Q 3066 4069 2747 4153 
Q 2428 4238 2131 4238 
Q 1616 4238 1336 4038 
Q 1056 3838 1056 3469 
Q 1056 3159 1242 3001 
Q 1428 2844 1947 2747 
L 2328 2669 
Q 3034 2534 3370 2195 
Q 3706 1856 3706 1288 
Q 3706 609 3251 259 
Q 2797 -91 1919 -91 
Q 1588 -91 1214 -16 
Q 841 59 441 206 
L 441 856 
Q 825 641 1194 531 
Q 1563 422 1919 422 
Q 2459 422 2753 634 
Q 3047 847 3047 1241 
Q 3047 1584 2836 1778 
Q 2625 1972 2144 2069 
L 1759 2144 
Q 1053 2284 737 2584 
Q 422 2884 422 3419 
Q 422 4038 858 4394 
Q 1294 4750 2059 4750 
Q 2388 4750 2728 4690 
Q 3069 4631 3425 4513 
z
" transform="scale(0.015625)"/>
      <path id="DejaVuSans-44" d="M 1259 4147 
L 1259 519 
L 2022 519 
Q 2988 519 3436 956 
Q 3884 1394 3884 2338 
Q 3884 3275 3436 3711 
Q 2988 4147 2022 4147 
L 1259 4147 
z
M 628 4666 
L 1925 4666 
Q 3281 4666 3915 4102 
Q 4550 3538 4550 2338 
Q 4550 1131 3912 565 
Q 3275 0 1925 0 
L 628 0 
L 628 4666 
z
" transform="scale(0.015625)"/>
      <path id="DejaVuSans-51" d="M 2522 4238 
Q 1834 4238 1429 3725 
Q 1025 3213 1025 2328 
Q 1025 1447 1429 934 
Q 1834 422 2522 422 
Q 3209 422 3611 934 
Q 4013 1447 4013 2328 
Q 4013 3213 3611 3725 
Q 3209 4238 2522 4238 
z
M 3406 84 
L 4238 -825 
L 3475 -825 
L 2784 -78 
Q 2681 -84 2626 -87 
Q 2572 -91 2522 -91 
Q 1538 -91 948 567 
Q 359 1225 359 2328 
Q 359 3434 948 4092 
Q 1538 4750 2522 4750 
Q 3503 4750 4090 4092 
Q 4678 3434 4678 2328 
Q 4678 1516 4351 937 
Q 4025 359 3406 84 
z
" transform="scale(0.015625)"/>
     </defs>
     <use xlink:href="#DejaVuSans-4e"/>
     <use xlink:href="#DejaVuSans-41" x="74.804688"/>
     <use xlink:href="#DejaVuSans-53" x="143.212891"/>
     <use xlink:href="#DejaVuSans-44" x="206.689453"/>
     <use xlink:href="#DejaVuSans-41" x="281.941406"/>
     <use xlink:href="#DejaVuSans-51" x="348.599609"/>
    </g>
   </g>
  </g>
 </g>
 <defs>
  <clipPath id="pdc699f7a17">
   <rect x="49.48" y="26.88" width="299.72" height="141.791221"/>
  </clipPath>
 </defs>
</svg>
