<?xml version="1.0" encoding="utf-8" standalone="no"?>
<!DOCTYPE svg PUBLIC "-//W3C//DTD SVG 1.1//EN"
  "http://www.w3.org/Graphics/SVG/1.1/DTD/svg11.dtd">
<svg xmlns:xlink="http://www.w3.org/1999/xlink" width="360pt" height="216pt" viewBox="0 0 360 216" xmlns="http://www.w3.org/2000/svg" version="1.1">
 <metadata>
  <rdf:RDF xmlns:dc="http://purl.org/dc/elements/1.1/" xmlns:cc="http://creativecommons.org/ns#" xmlns:rdf="http://www.w3.org/1999/02/22-rdf-syntax-ns#">
   <cc:Work>
    <dc:type rdf:resource="http://purl.org/dc/dcmitype/StillImage"/>
    <dc:date>2022-08-16T13:00:43.475183</dc:date>
    <dc:format>image/svg+xml</dc:format>
    <dc:creator>
     <cc:Agent>
      <dc:title>Matplotlib v3.5.2, https://matplotlib.org/</dc:title>
     </cc:Agent>
    </dc:creator>
   </cc:Work>
  </rdf:RDF>
 </metadata>
 <defs>
  <style type="text/css">*{stroke-linejoin: round; stroke-linecap: butt}</style>
 </defs>
 <g id="figure_1">
  <g id="patch_1">
   <path d="M 0 216 
L 360 216 
L 360 0 
L 0 0 
L 0 216 
z
" style="fill: none"/>
  </g>
  <g id="axes_1">
   <g id="patch_2">
    <path d="M 49.3 168.501515 
L 339.793293 168.501515 
L 339.793293 26.8 
L 49.3 26.8 
z
" style="fill: #ffffff"/>
   </g>
   <g id="matplotlib.axis_1">
    <g id="xtick_1">
     <g id="line2d_1">
      <defs>
       <path id="m364884ff3c" d="M 0 0 
L 0 3.5 
" style="stroke: #000000; stroke-width: 0.8"/>
      </defs>
      <g>
       <use xlink:href="#m364884ff3c" x="62.95033" y="168.501515" style="stroke: #000000; stroke-width: 0.8"/>
      </g>
     </g>
     <g id="text_1">
      <!-- '21-01 -->
      <g transform="translate(53.656295 203.364837)rotate(-45)scale(0.1 -0.1)">
       <defs>
        <path id="DejaVuSans-27" d="M 1147 4666 
L 1147 2931 
L 616 2931 
L 616 4666 
L 1147 4666 
z
" transform="scale(0.015625)"/>
        <path id="DejaVuSans-32" d="M 1228 531 
L 3431 531 
L 3431 0 
L 469 0 
L 469 531 
Q 828 903 1448 1529 
Q 2069 2156 2228 2338 
Q 2531 2678 2651 2914 
Q 2772 3150 2772 3378 
Q 2772 3750 2511 3984 
Q 2250 4219 1831 4219 
Q 1534 4219 1204 4116 
Q 875 4013 500 3803 
L 500 4441 
Q 881 4594 1212 4672 
Q 1544 4750 1819 4750 
Q 2544 4750 2975 4387 
Q 3406 4025 3406 3419 
Q 3406 3131 3298 2873 
Q 3191 2616 2906 2266 
Q 2828 2175 2409 1742 
Q 1991 1309 1228 531 
z
" transform="scale(0.015625)"/>
        <path id="DejaVuSans-31" d="M 794 531 
L 1825 531 
L 1825 4091 
L 703 3866 
L 703 4441 
L 1819 4666 
L 2450 4666 
L 2450 531 
L 3481 531 
L 3481 0 
L 794 0 
L 794 531 
z
" transform="scale(0.015625)"/>
        <path id="DejaVuSans-2d" d="M 313 2009 
L 1997 2009 
L 1997 1497 
L 313 1497 
L 313 2009 
z
" transform="scale(0.015625)"/>
        <path id="DejaVuSans-30" d="M 2034 4250 
Q 1547 4250 1301 3770 
Q 1056 3291 1056 2328 
Q 1056 1369 1301 889 
Q 1547 409 2034 409 
Q 2525 409 2770 889 
Q 3016 1369 3016 2328 
Q 3016 3291 2770 3770 
Q 2525 4250 2034 4250 
z
M 2034 4750 
Q 2819 4750 3233 4129 
Q 3647 3509 3647 2328 
Q 3647 1150 3233 529 
Q 2819 -91 2034 -91 
Q 1250 -91 836 529 
Q 422 1150 422 2328 
Q 422 3509 836 4129 
Q 1250 4750 2034 4750 
z
" transform="scale(0.015625)"/>
       </defs>
       <use xlink:href="#DejaVuSans-27"/>
       <use xlink:href="#DejaVuSans-32" x="27.490234"/>
       <use xlink:href="#DejaVuSans-31" x="91.113281"/>
       <use xlink:href="#DejaVuSans-2d" x="154.736328"/>
       <use xlink:href="#DejaVuSans-30" x="190.820312"/>
       <use xlink:href="#DejaVuSans-31" x="254.443359"/>
      </g>
     </g>
    </g>
    <g id="xtick_2">
     <g id="line2d_2">
      <g>
       <use xlink:href="#m364884ff3c" x="89.269593" y="168.501515" style="stroke: #000000; stroke-width: 0.8"/>
      </g>
     </g>
     <g id="text_2">
      <!-- '21-03 -->
      <g transform="translate(79.975558 203.364837)rotate(-45)scale(0.1 -0.1)">
       <defs>
        <path id="DejaVuSans-33" d="M 2597 2516 
Q 3050 2419 3304 2112 
Q 3559 1806 3559 1356 
Q 3559 666 3084 287 
Q 2609 -91 1734 -91 
Q 1441 -91 1130 -33 
Q 819 25 488 141 
L 488 750 
Q 750 597 1062 519 
Q 1375 441 1716 441 
Q 2309 441 2620 675 
Q 2931 909 2931 1356 
Q 2931 1769 2642 2001 
Q 2353 2234 1838 2234 
L 1294 2234 
L 1294 2753 
L 1863 2753 
Q 2328 2753 2575 2939 
Q 2822 3125 2822 3475 
Q 2822 3834 2567 4026 
Q 2313 4219 1838 4219 
Q 1578 4219 1281 4162 
Q 984 4106 628 3988 
L 628 4550 
Q 988 4650 1302 4700 
Q 1616 4750 1894 4750 
Q 2613 4750 3031 4423 
Q 3450 4097 3450 3541 
Q 3450 3153 3228 2886 
Q 3006 2619 2597 2516 
z
" transform="scale(0.015625)"/>
       </defs>
       <use xlink:href="#DejaVuSans-27"/>
       <use xlink:href="#DejaVuSans-32" x="27.490234"/>
       <use xlink:href="#DejaVuSans-31" x="91.113281"/>
       <use xlink:href="#DejaVuSans-2d" x="154.736328"/>
       <use xlink:href="#DejaVuSans-30" x="190.820312"/>
       <use xlink:href="#DejaVuSans-33" x="254.443359"/>
      </g>
     </g>
    </g>
    <g id="xtick_3">
     <g id="line2d_3">
      <g>
       <use xlink:href="#m364884ff3c" x="116.481035" y="168.501515" style="stroke: #000000; stroke-width: 0.8"/>
      </g>
     </g>
     <g id="text_3">
      <!-- '21-05 -->
      <g transform="translate(107.187 203.364837)rotate(-45)scale(0.1 -0.1)">
       <defs>
        <path id="DejaVuSans-35" d="M 691 4666 
L 3169 4666 
L 3169 4134 
L 1269 4134 
L 1269 2991 
Q 1406 3038 1543 3061 
Q 1681 3084 1819 3084 
Q 2600 3084 3056 2656 
Q 3513 2228 3513 1497 
Q 3513 744 3044 326 
Q 2575 -91 1722 -91 
Q 1428 -91 1123 -41 
Q 819 9 494 109 
L 494 744 
Q 775 591 1075 516 
Q 1375 441 1709 441 
Q 2250 441 2565 725 
Q 2881 1009 2881 1497 
Q 2881 1984 2565 2268 
Q 2250 2553 1709 2553 
Q 1456 2553 1204 2497 
Q 953 2441 691 2322 
L 691 4666 
z
" transform="scale(0.015625)"/>
       </defs>
       <use xlink:href="#DejaVuSans-27"/>
       <use xlink:href="#DejaVuSans-32" x="27.490234"/>
       <use xlink:href="#DejaVuSans-31" x="91.113281"/>
       <use xlink:href="#DejaVuSans-2d" x="154.736328"/>
       <use xlink:href="#DejaVuSans-30" x="190.820312"/>
       <use xlink:href="#DejaVuSans-35" x="254.443359"/>
      </g>
     </g>
    </g>
    <g id="xtick_4">
     <g id="line2d_4">
      <g>
       <use xlink:href="#m364884ff3c" x="143.692477" y="168.501515" style="stroke: #000000; stroke-width: 0.8"/>
      </g>
     </g>
     <g id="text_4">
      <!-- '21-07 -->
      <g transform="translate(134.398442 203.364837)rotate(-45)scale(0.1 -0.1)">
       <defs>
        <path id="DejaVuSans-37" d="M 525 4666 
L 3525 4666 
L 3525 4397 
L 1831 0 
L 1172 0 
L 2766 4134 
L 525 4134 
L 525 4666 
z
" transform="scale(0.015625)"/>
       </defs>
       <use xlink:href="#DejaVuSans-27"/>
       <use xlink:href="#DejaVuSans-32" x="27.490234"/>
       <use xlink:href="#DejaVuSans-31" x="91.113281"/>
       <use xlink:href="#DejaVuSans-2d" x="154.736328"/>
       <use xlink:href="#DejaVuSans-30" x="190.820312"/>
       <use xlink:href="#DejaVuSans-37" x="254.443359"/>
      </g>
     </g>
    </g>
    <g id="xtick_5">
     <g id="line2d_5">
      <g>
       <use xlink:href="#m364884ff3c" x="171.350008" y="168.501515" style="stroke: #000000; stroke-width: 0.8"/>
      </g>
     </g>
     <g id="text_5">
      <!-- '21-09 -->
      <g transform="translate(162.055973 203.364837)rotate(-45)scale(0.1 -0.1)">
       <defs>
        <path id="DejaVuSans-39" d="M 703 97 
L 703 672 
Q 941 559 1184 500 
Q 1428 441 1663 441 
Q 2288 441 2617 861 
Q 2947 1281 2994 2138 
Q 2813 1869 2534 1725 
Q 2256 1581 1919 1581 
Q 1219 1581 811 2004 
Q 403 2428 403 3163 
Q 403 3881 828 4315 
Q 1253 4750 1959 4750 
Q 2769 4750 3195 4129 
Q 3622 3509 3622 2328 
Q 3622 1225 3098 567 
Q 2575 -91 1691 -91 
Q 1453 -91 1209 -44 
Q 966 3 703 97 
z
M 1959 2075 
Q 2384 2075 2632 2365 
Q 2881 2656 2881 3163 
Q 2881 3666 2632 3958 
Q 2384 4250 1959 4250 
Q 1534 4250 1286 3958 
Q 1038 3666 1038 3163 
Q 1038 2656 1286 2365 
Q 1534 2075 1959 2075 
z
" transform="scale(0.015625)"/>
       </defs>
       <use xlink:href="#DejaVuSans-27"/>
       <use xlink:href="#DejaVuSans-32" x="27.490234"/>
       <use xlink:href="#DejaVuSans-31" x="91.113281"/>
       <use xlink:href="#DejaVuSans-2d" x="154.736328"/>
       <use xlink:href="#DejaVuSans-30" x="190.820312"/>
       <use xlink:href="#DejaVuSans-39" x="254.443359"/>
      </g>
     </g>
    </g>
    <g id="xtick_6">
     <g id="line2d_6">
      <g>
       <use xlink:href="#m364884ff3c" x="198.56145" y="168.501515" style="stroke: #000000; stroke-width: 0.8"/>
      </g>
     </g>
     <g id="text_6">
      <!-- '21-11 -->
      <g transform="translate(189.267415 203.364837)rotate(-45)scale(0.1 -0.1)">
       <use xlink:href="#DejaVuSans-27"/>
       <use xlink:href="#DejaVuSans-32" x="27.490234"/>
       <use xlink:href="#DejaVuSans-31" x="91.113281"/>
       <use xlink:href="#DejaVuSans-2d" x="154.736328"/>
       <use xlink:href="#DejaVuSans-31" x="190.820312"/>
       <use xlink:href="#DejaVuSans-31" x="254.443359"/>
      </g>
     </g>
    </g>
    <g id="xtick_7">
     <g id="line2d_7">
      <g>
       <use xlink:href="#m364884ff3c" x="225.772891" y="168.501515" style="stroke: #000000; stroke-width: 0.8"/>
      </g>
     </g>
     <g id="text_7">
      <!-- '22-01 -->
      <g transform="translate(216.478857 203.364837)rotate(-45)scale(0.1 -0.1)">
       <use xlink:href="#DejaVuSans-27"/>
       <use xlink:href="#DejaVuSans-32" x="27.490234"/>
       <use xlink:href="#DejaVuSans-32" x="91.113281"/>
       <use xlink:href="#DejaVuSans-2d" x="154.736328"/>
       <use xlink:href="#DejaVuSans-30" x="190.820312"/>
       <use xlink:href="#DejaVuSans-31" x="254.443359"/>
      </g>
     </g>
    </g>
    <g id="xtick_8">
     <g id="line2d_8">
      <g>
       <use xlink:href="#m364884ff3c" x="252.092155" y="168.501515" style="stroke: #000000; stroke-width: 0.8"/>
      </g>
     </g>
     <g id="text_8">
      <!-- '22-03 -->
      <g transform="translate(242.79812 203.364837)rotate(-45)scale(0.1 -0.1)">
       <use xlink:href="#DejaVuSans-27"/>
       <use xlink:href="#DejaVuSans-32" x="27.490234"/>
       <use xlink:href="#DejaVuSans-32" x="91.113281"/>
       <use xlink:href="#DejaVuSans-2d" x="154.736328"/>
       <use xlink:href="#DejaVuSans-30" x="190.820312"/>
       <use xlink:href="#DejaVuSans-33" x="254.443359"/>
      </g>
     </g>
    </g>
    <g id="xtick_9">
     <g id="line2d_9">
      <g>
       <use xlink:href="#m364884ff3c" x="279.303596" y="168.501515" style="stroke: #000000; stroke-width: 0.8"/>
      </g>
     </g>
     <g id="text_9">
      <!-- '22-05 -->
      <g transform="translate(270.009562 203.364837)rotate(-45)scale(0.1 -0.1)">
       <use xlink:href="#DejaVuSans-27"/>
       <use xlink:href="#DejaVuSans-32" x="27.490234"/>
       <use xlink:href="#DejaVuSans-32" x="91.113281"/>
       <use xlink:href="#DejaVuSans-2d" x="154.736328"/>
       <use xlink:href="#DejaVuSans-30" x="190.820312"/>
       <use xlink:href="#DejaVuSans-35" x="254.443359"/>
      </g>
     </g>
    </g>
    <g id="xtick_10">
     <g id="line2d_10">
      <g>
       <use xlink:href="#m364884ff3c" x="306.515038" y="168.501515" style="stroke: #000000; stroke-width: 0.8"/>
      </g>
     </g>
     <g id="text_10">
      <!-- '22-07 -->
      <g transform="translate(297.221004 203.364837)rotate(-45)scale(0.1 -0.1)">
       <use xlink:href="#DejaVuSans-27"/>
       <use xlink:href="#DejaVuSans-32" x="27.490234"/>
       <use xlink:href="#DejaVuSans-32" x="91.113281"/>
       <use xlink:href="#DejaVuSans-2d" x="154.736328"/>
       <use xlink:href="#DejaVuSans-30" x="190.820312"/>
       <use xlink:href="#DejaVuSans-37" x="254.443359"/>
      </g>
     </g>
    </g>
    <g id="xtick_11">
     <g id="line2d_11">
      <g>
       <use xlink:href="#m364884ff3c" x="334.172569" y="168.501515" style="stroke: #000000; stroke-width: 0.8"/>
      </g>
     </g>
     <g id="text_11">
      <!-- '22-09 -->
      <g transform="translate(324.878534 203.364837)rotate(-45)scale(0.1 -0.1)">
       <use xlink:href="#DejaVuSans-27"/>
       <use xlink:href="#DejaVuSans-32" x="27.490234"/>
       <use xlink:href="#DejaVuSans-32" x="91.113281"/>
       <use xlink:href="#DejaVuSans-2d" x="154.736328"/>
       <use xlink:href="#DejaVuSans-30" x="190.820312"/>
       <use xlink:href="#DejaVuSans-39" x="254.443359"/>
      </g>
     </g>
    </g>
   </g>
   <g id="matplotlib.axis_2">
    <g id="ytick_1">
     <g id="line2d_12">
      <defs>
       <path id="m8456a0c621" d="M 0 0 
L -3.5 0 
" style="stroke: #000000; stroke-width: 0.8"/>
      </defs>
      <g>
       <use xlink:href="#m8456a0c621" x="49.3" y="153.635769" style="stroke: #000000; stroke-width: 0.8"/>
      </g>
     </g>
     <g id="text_12">
      <!-- 11000 -->
      <g transform="translate(10.4875 157.434988)scale(0.1 -0.1)">
       <use xlink:href="#DejaVuSans-31"/>
       <use xlink:href="#DejaVuSans-31" x="63.623047"/>
       <use xlink:href="#DejaVuSans-30" x="127.246094"/>
       <use xlink:href="#DejaVuSans-30" x="190.869141"/>
       <use xlink:href="#DejaVuSans-30" x="254.492188"/>
      </g>
     </g>
    </g>
    <g id="ytick_2">
     <g id="line2d_13">
      <g>
       <use xlink:href="#m8456a0c621" x="49.3" y="129.83029" style="stroke: #000000; stroke-width: 0.8"/>
      </g>
     </g>
     <g id="text_13">
      <!-- 12000 -->
      <g transform="translate(10.4875 133.629509)scale(0.1 -0.1)">
       <use xlink:href="#DejaVuSans-31"/>
       <use xlink:href="#DejaVuSans-32" x="63.623047"/>
       <use xlink:href="#DejaVuSans-30" x="127.246094"/>
       <use xlink:href="#DejaVuSans-30" x="190.869141"/>
       <use xlink:href="#DejaVuSans-30" x="254.492188"/>
      </g>
     </g>
    </g>
    <g id="ytick_3">
     <g id="line2d_14">
      <g>
       <use xlink:href="#m8456a0c621" x="49.3" y="106.024811" style="stroke: #000000; stroke-width: 0.8"/>
      </g>
     </g>
     <g id="text_14">
      <!-- 13000 -->
      <g transform="translate(10.4875 109.82403)scale(0.1 -0.1)">
       <use xlink:href="#DejaVuSans-31"/>
       <use xlink:href="#DejaVuSans-33" x="63.623047"/>
       <use xlink:href="#DejaVuSans-30" x="127.246094"/>
       <use xlink:href="#DejaVuSans-30" x="190.869141"/>
       <use xlink:href="#DejaVuSans-30" x="254.492188"/>
      </g>
     </g>
    </g>
    <g id="ytick_4">
     <g id="line2d_15">
      <g>
       <use xlink:href="#m8456a0c621" x="49.3" y="82.219333" style="stroke: #000000; stroke-width: 0.8"/>
      </g>
     </g>
     <g id="text_15">
      <!-- 14000 -->
      <g transform="translate(10.4875 86.018551)scale(0.1 -0.1)">
       <defs>
        <path id="DejaVuSans-34" d="M 2419 4116 
L 825 1625 
L 2419 1625 
L 2419 4116 
z
M 2253 4666 
L 3047 4666 
L 3047 1625 
L 3713 1625 
L 3713 1100 
L 3047 1100 
L 3047 0 
L 2419 0 
L 2419 1100 
L 313 1100 
L 313 1709 
L 2253 4666 
z
" transform="scale(0.015625)"/>
       </defs>
       <use xlink:href="#DejaVuSans-31"/>
       <use xlink:href="#DejaVuSans-34" x="63.623047"/>
       <use xlink:href="#DejaVuSans-30" x="127.246094"/>
       <use xlink:href="#DejaVuSans-30" x="190.869141"/>
       <use xlink:href="#DejaVuSans-30" x="254.492188"/>
      </g>
     </g>
    </g>
    <g id="ytick_5">
     <g id="line2d_16">
      <g>
       <use xlink:href="#m8456a0c621" x="49.3" y="58.413854" style="stroke: #000000; stroke-width: 0.8"/>
      </g>
     </g>
     <g id="text_16">
      <!-- 15000 -->
      <g transform="translate(10.4875 62.213072)scale(0.1 -0.1)">
       <use xlink:href="#DejaVuSans-31"/>
       <use xlink:href="#DejaVuSans-35" x="63.623047"/>
       <use xlink:href="#DejaVuSans-30" x="127.246094"/>
       <use xlink:href="#DejaVuSans-30" x="190.869141"/>
       <use xlink:href="#DejaVuSans-30" x="254.492188"/>
      </g>
     </g>
    </g>
    <g id="ytick_6">
     <g id="line2d_17">
      <g>
       <use xlink:href="#m8456a0c621" x="49.3" y="34.608375" style="stroke: #000000; stroke-width: 0.8"/>
      </g>
     </g>
     <g id="text_17">
      <!-- 16000 -->
      <g transform="translate(10.4875 38.407594)scale(0.1 -0.1)">
       <defs>
        <path id="DejaVuSans-36" d="M 2113 2584 
Q 1688 2584 1439 2293 
Q 1191 2003 1191 1497 
Q 1191 994 1439 701 
Q 1688 409 2113 409 
Q 2538 409 2786 701 
Q 3034 994 3034 1497 
Q 3034 2003 2786 2293 
Q 2538 2584 2113 2584 
z
M 3366 4563 
L 3366 3988 
Q 3128 4100 2886 4159 
Q 2644 4219 2406 4219 
Q 1781 4219 1451 3797 
Q 1122 3375 1075 2522 
Q 1259 2794 1537 2939 
Q 1816 3084 2150 3084 
Q 2853 3084 3261 2657 
Q 3669 2231 3669 1497 
Q 3669 778 3244 343 
Q 2819 -91 2113 -91 
Q 1303 -91 875 529 
Q 447 1150 447 2328 
Q 447 3434 972 4092 
Q 1497 4750 2381 4750 
Q 2619 4750 2861 4703 
Q 3103 4656 3366 4563 
z
" transform="scale(0.015625)"/>
       </defs>
       <use xlink:href="#DejaVuSans-31"/>
       <use xlink:href="#DejaVuSans-36" x="63.623047"/>
       <use xlink:href="#DejaVuSans-30" x="127.246094"/>
       <use xlink:href="#DejaVuSans-30" x="190.869141"/>
       <use xlink:href="#DejaVuSans-30" x="254.492188"/>
      </g>
     </g>
    </g>
   </g>
   <g id="line2d_18">
    <path d="M 283.318399 136.075183 
L 283.764489 144.964856 
L 284.210578 144.804889 
L 284.656667 134.472359 
L 285.994935 137.857735 
L 286.441024 130.19881 
L 286.887113 143.681499 
L 287.333202 144.38734 
L 287.779291 145.193867 
L 289.117559 140.893421 
L 289.563648 147.340405 
L 290.009738 143.28657 
L 290.455827 136.004232 
L 290.901916 126.708681 
L 292.686273 127.892771 
L 293.132362 129.962173 
L 293.578451 122.286325 
L 294.02454 129.527235 
L 295.362808 128.369345 
L 295.808897 125.658845 
L 296.254986 127.776603 
L 296.701076 135.680952 
L 297.147165 145.541441 
L 298.485432 158.177129 
L 298.931522 157.721989 
L 299.377611 151.275446 
L 299.8237 162.060537 
L 300.269789 158.436153 
L 302.054146 151.986054 
L 302.500235 152.372172 
L 302.946325 148.108365 
L 303.392414 139.171081 
L 304.730681 141.14861 
L 305.176771 149.314121 
L 305.62286 149.401021 
L 306.068949 152.951594 
L 306.515038 150.592248 
L 308.299395 145.964686 
L 308.745484 145.021766 
L 309.191574 138.844244 
L 309.637663 138.51192 
L 310.97593 144.765857 
L 311.42202 147.333733 
L 311.868109 147.742007 
L 312.314198 147.656061 
L 312.760287 142.865696 
L 314.098555 145.064611 
L 314.544644 136.658882 
L 314.990733 132.266772 
L 315.436822 128.411237 
L 315.882912 133.779373 
L 317.221179 135.003937 
L 317.667268 140.243513 
L 318.113358 129.058518 
L 318.559447 125.959761 
L 319.005536 120.529717 
L 320.343804 121.046533 
L 320.789893 121.527897 
L 321.235982 113.924418 
L 321.682071 112.676536 
L 322.128161 114.177002 
L 323.466428 114.488612 
L 323.912517 118.072057 
L 324.358607 109.481372 
L 324.804696 111.264155 
L 325.250785 104.901421 
L 326.589053 102.976524 
" clip-path="url(#pcc2e9d3039)" style="fill: none; stroke: #d3d3d3; stroke-linecap: square"/>
   </g>
   <g id="line2d_19">
    <path d="M 62.504241 108.684353 
L 64.288597 113.203349 
L 64.734687 110.334556 
L 65.180776 112.195429 
L 65.626865 104.418406 
L 66.072954 101.21657 
L 67.411222 105.157585 
L 67.857311 104.300588 
L 68.3034 102.95509 
L 68.74949 103.343371 
L 69.195579 106.06052 
L 70.979936 101.330854 
L 71.426025 95.139756 
L 71.872114 93.386241 
L 72.318203 93.097018 
L 73.656471 90.884759 
L 74.10256 91.121164 
L 74.548649 99.583058 
L 74.994738 97.998552 
L 75.440828 104.341992 
L 76.779095 96.421928 
L 77.225185 91.437284 
L 77.671274 91.490613 
L 78.117363 87.510333 
L 78.563452 85.640184 
L 79.90172 82.513577 
L 80.347809 82.036026 
L 80.793898 82.873263 
L 81.239987 81.605876 
L 81.686077 79.94663 
L 83.470433 81.088572 
L 84.362612 85.424494 
L 84.808701 85.207873 
L 86.146969 93.335306 
L 86.593058 94.950498 
L 87.039147 91.789856 
L 87.485236 103.18173 
L 87.931326 101.445837 
L 89.269593 92.007429 
L 89.715682 97.483643 
L 90.607861 112.607747 
L 91.05395 107.92567 
L 92.392218 115.328941 
L 92.838307 104.267483 
L 93.284396 104.386278 
L 93.730485 96.534283 
L 94.176574 98.410383 
L 95.514842 95.081196 
L 95.960931 94.798854 
L 96.407021 93.522169 
L 96.85311 103.259331 
L 97.299199 100.900915 
L 98.637467 97.03729 
L 99.083556 100.604299 
L 99.529645 106.932047 
L 99.975734 106.556157 
L 100.421823 102.722266 
L 101.760091 104.604805 
L 102.20618 104.944289 
L 103.098359 94.595555 
L 104.882716 89.227907 
L 105.774894 89.626649 
L 106.220983 86.2827 
L 106.667072 84.595347 
L 108.00534 85.790154 
L 108.451429 82.312183 
L 108.897518 85.603523 
L 109.343608 81.296638 
L 109.789697 80.973357 
L 111.127964 84.248285 
L 111.574054 87.307289 
L 112.020143 83.404376 
L 112.466232 86.542166 
L 112.912321 81.819173 
L 114.250589 78.915602 
L 115.142767 81.004532 
L 115.588857 80.254195 
L 116.034946 83.10776 
L 117.373213 84.716048 
L 117.819303 90.944041 
L 118.265392 92.160026 
L 118.711481 90.959756 
L 119.15757 88.117372 
L 120.495838 96.458333 
L 120.941927 96.754251 
L 121.388016 105.270661 
L 121.834105 103.049359 
L 122.280195 95.78892 
L 123.618462 97.001349 
L 124.064552 98.796524 
L 124.510641 98.889352 
L 124.95673 93.271259 
L 125.402819 94.812663 
L 126.741087 90.285345 
L 127.187176 90.380567 
L 127.633265 88.456368 
L 128.079354 88.497307 
L 128.525444 88.200692 
L 130.3098 88.492541 
L 130.75589 88.020012 
L 131.201979 91.396112 
L 131.648068 86.635481 
L 132.986336 85.035051 
L 133.432425 84.006882 
L 133.878514 84.320166 
L 134.324603 81.735365 
L 134.770693 80.566758 
L 136.10896 78.073855 
L 136.555049 80.484857 
L 137.001139 81.274739 
L 137.447228 78.378328 
L 137.893317 81.496125 
L 139.231585 78.851322 
L 139.677674 76.19013 
L 140.123763 75.750659 
L 140.569852 73.41821 
L 141.015941 73.640084 
L 142.354209 70.304458 
L 142.800298 69.642182 
L 143.246388 70.222557 
L 143.692477 69.783829 
L 144.138566 66.999774 
L 146.369012 66.387271 
L 146.815101 68.893495 
L 147.26119 65.509793 
L 148.599458 64.764198 
L 149.045547 66.087541 
L 149.491636 66.865984 
L 150.383815 72.048674 
L 151.722083 75.673291 
L 152.168172 70.343258 
L 152.614261 67.175456 
L 153.06035 65.922111 
L 153.506439 62.294379 
L 154.844707 62.205829 
L 155.290796 66.493907 
L 155.736885 64.065749 
L 156.182975 63.692486 
L 156.629064 66.20587 
L 157.967331 66.006128 
L 158.413421 64.096459 
L 158.85951 63.638436 
L 159.305599 60.91057 
L 159.751688 62.323671 
L 161.089956 61.742343 
L 161.536045 63.458476 
L 161.982134 64.004817 
L 162.428224 62.787878 
L 162.874313 62.629795 
L 164.21258 63.323501 
L 165.104759 69.699789 
L 165.550848 69.321761 
L 165.996937 65.206505 
L 167.781294 57.94251 
L 168.227383 57.417348 
L 168.673472 59.703883 
L 169.119562 55.331044 
L 170.457829 52.084223 
L 170.903919 52.242516 
L 171.350008 51.048917 
L 171.796097 50.529963 
L 172.242186 49.760097 
L 174.026543 49.502747 
L 174.472632 51.59026 
L 174.918721 52.504144 
L 175.364811 55.664553 
L 176.703078 55.900469 
L 177.149167 57.514964 
L 177.595257 54.568548 
L 178.041346 54.083163 
L 178.487435 57.367133 
L 179.825703 65.224592 
L 180.271792 64.450914 
L 181.16397 57.17025 
L 181.61006 57.278328 
L 182.948327 59.128739 
L 183.394416 69.205361 
L 183.840506 70.020443 
L 184.286595 71.540669 
L 184.732684 68.728763 
L 186.070952 76.137498 
L 186.517041 71.8918 
L 186.96313 70.271121 
L 187.409219 66.650084 
L 187.855309 68.423104 
L 189.193576 70.645104 
L 189.639665 71.127886 
L 190.085755 68.611177 
L 190.531844 62.617195 
L 190.977933 60.857728 
L 192.316201 57.894666 
L 192.76229 55.340808 
L 193.208379 55.51721 
L 193.654468 53.279007 
L 194.100557 56.266595 
L 195.438825 53.016915 
L 195.884914 52.802665 
L 196.331003 52.799573 
L 196.777093 47.74614 
L 197.223182 46.549449 
L 198.56145 44.227695 
L 199.007539 42.949824 
L 199.899717 36.029334 
L 200.345806 35.284692 
L 201.684074 35.028295 
L 202.130163 37.309344 
L 202.576252 43.589945 
L 203.022342 41.648125 
L 203.468431 37.91829 
L 204.806698 38.087555 
L 205.252788 35.230642 
L 205.698877 36.475431 
L 206.591055 33.240978 
L 208.375412 39.961283 
L 208.821501 38.292738 
L 209.71368 46.709648 
L 211.051947 39.778209 
L 211.944126 52.366076 
L 212.390215 49.336341 
L 212.836304 56.379206 
L 214.174572 53.054041 
L 214.620661 42.061396 
L 215.06675 39.679174 
L 215.512839 46.09761 
L 215.958929 43.402128 
L 217.297196 48.575519 
L 217.743286 52.756728 
L 218.189375 44.949949 
L 218.635464 54.118639 
L 219.081553 54.374548 
L 220.419821 58.867576 
L 220.86591 50.294047 
L 221.311999 45.990021 
L 221.758088 42.860065 
L 223.542445 37.673098 
L 223.988534 39.804641 
L 224.434624 40.173626 
L 224.880713 40.760673 
L 225.326802 43.060041 
L 226.66507 38.588656 
L 227.111159 43.589712 
L 227.557248 56.029261 
L 228.003337 56.488934 
L 228.449427 59.939776 
L 229.787694 59.774811 
L 230.233783 54.760898 
L 230.679873 53.929148 
L 231.125962 63.012844 
L 231.572051 60.943186 
L 233.356408 70.152326 
L 234.248586 78.552824 
L 234.694676 87.720304 
L 236.032943 85.668035 
L 236.479032 93.186754 
L 236.925122 93.119382 
L 237.371211 97.626708 
L 237.8173 87.681016 
L 239.155568 76.508877 
L 239.601657 73.982637 
L 240.047746 72.279359 
L 240.493835 85.104073 
L 240.939924 79.886163 
L 242.278192 81.846303 
L 242.724281 77.590353 
L 243.17037 70.545837 
L 243.61646 77.800092 
L 244.062549 87.191097 
L 245.400817 87.196584 
L 245.846906 78.892284 
L 246.292995 79.265314 
L 246.739084 88.962955 
L 247.185173 92.977735 
L 248.96953 96.942556 
L 249.415619 105.132338 
L 249.861709 94.750778 
L 250.307798 89.489047 
L 251.646065 88.137365 
L 252.092155 93.349347 
L 252.538244 88.122626 
L 253.430422 98.563212 
L 254.76869 110.04889 
L 255.214779 110.891846 
L 255.660868 99.941326 
L 256.106958 102.931052 
L 256.553047 109.742999 
L 257.891314 115.994076 
L 258.337404 107.247934 
L 258.783493 95.632534 
L 259.229582 91.389673 
L 259.675671 84.746526 
L 261.013939 86.064871 
L 261.460028 79.628813 
L 261.906117 84.061886 
L 262.352207 77.652493 
L 262.798296 78.18907 
L 264.136563 73.770759 
L 264.582653 67.468514 
L 265.474831 76.969759 
L 265.92092 75.9942 
L 267.259188 69.541729 
L 268.151366 84.866018 
L 268.597455 84.66416 
L 269.043545 89.099116 
L 270.381812 96.217907 
L 270.827901 97.179402 
L 271.273991 90.703847 
L 271.72008 97.667182 
L 273.504437 98.112814 
L 273.950526 91.273505 
L 274.396615 95.239256 
L 275.288794 109.850589 
L 276.627061 105.909364 
L 277.07315 118.147984 
L 277.51924 118.191085 
L 277.965329 109.083095 
L 278.411418 121.864033 
L 279.749686 117.070089 
L 280.195775 116.409719 
L 280.641864 106.861327 
L 281.087953 122.267517 
L 282.87231 138.799004 
L 283.318399 136.075183 
L 283.318399 136.075183 
" clip-path="url(#pcc2e9d3039)" style="fill: none; stroke: #000000; stroke-linecap: square"/>
   </g>
   <g id="patch_3">
    <path d="M 49.3 168.501515 
L 49.3 26.8 
" style="fill: none; stroke: #000000; stroke-width: 0.8; stroke-linejoin: miter; stroke-linecap: square"/>
   </g>
   <g id="patch_4">
    <path d="M 339.793293 168.501515 
L 339.793293 26.8 
" style="fill: none; stroke: #000000; stroke-width: 0.8; stroke-linejoin: miter; stroke-linecap: square"/>
   </g>
   <g id="patch_5">
    <path d="M 49.3 168.501515 
L 339.793293 168.501515 
" style="fill: none; stroke: #000000; stroke-width: 0.8; stroke-linejoin: miter; stroke-linecap: square"/>
   </g>
   <g id="patch_6">
    <path d="M 49.3 26.8 
L 339.793293 26.8 
" style="fill: none; stroke: #000000; stroke-width: 0.8; stroke-linejoin: miter; stroke-linecap: square"/>
   </g>
   <g id="text_18">
    <!-- NASDAQ -->
    <g transform="translate(168.906959 20.8)scale(0.12 -0.12)">
     <defs>
      <path id="DejaVuSans-4e" d="M 628 4666 
L 1478 4666 
L 3547 763 
L 3547 4666 
L 4159 4666 
L 4159 0 
L 3309 0 
L 1241 3903 
L 1241 0 
L 628 0 
L 628 4666 
z
" transform="scale(0.015625)"/>
      <path id="DejaVuSans-41" d="M 2188 4044 
L 1331 1722 
L 3047 1722 
L 2188 4044 
z
M 1831 4666 
L 2547 4666 
L 4325 0 
L 3669 0 
L 3244 1197 
L 1141 1197 
L 716 0 
L 50 0 
L 1831 4666 
z
" transform="scale(0.015625)"/>
      <path id="DejaVuSans-53" d="M 3425 4513 
L 3425 3897 
Q 3066 4069 2747 4153 
Q 2428 4238 2131 4238 
Q 1616 4238 1336 4038 
Q 1056 3838 1056 3469 
Q 1056 3159 1242 3001 
Q 1428 2844 1947 2747 
L 2328 2669 
Q 3034 2534 3370 2195 
Q 3706 1856 3706 1288 
Q 3706 609 3251 259 
Q 2797 -91 1919 -91 
Q 1588 -91 1214 -16 
Q 841 59 441 206 
L 441 856 
Q 825 641 1194 531 
Q 1563 422 1919 422 
Q 2459 422 2753 634 
Q 3047 847 3047 1241 
Q 3047 1584 2836 1778 
Q 2625 1972 2144 2069 
L 1759 2144 
Q 1053 2284 737 2584 
Q 422 2884 422 3419 
Q 422 4038 858 4394 
Q 1294 4750 2059 4750 
Q 2388 4750 2728 4690 
Q 3069 4631 3425 4513 
z
" transform="scale(0.015625)"/>
      <path id="DejaVuSans-44" d="M 1259 4147 
L 1259 519 
L 2022 519 
Q 2988 519 3436 956 
Q 3884 1394 3884 2338 
Q 3884 3275 3436 3711 
Q 2988 4147 2022 4147 
L 1259 4147 
z
M 628 4666 
L 1925 4666 
Q 3281 4666 3915 4102 
Q 4550 3538 4550 2338 
Q 4550 1131 3912 565 
Q 3275 0 1925 0 
L 628 0 
L 628 4666 
z
" transform="scale(0.015625)"/>
      <path id="DejaVuSans-51" d="M 2522 4238 
Q 1834 4238 1429 3725 
Q 1025 3213 1025 2328 
Q 1025 1447 1429 934 
Q 1834 422 2522 422 
Q 3209 422 3611 934 
Q 4013 1447 4013 2328 
Q 4013 3213 3611 3725 
Q 3209 4238 2522 4238 
z
M 3406 84 
L 4238 -825 
L 3475 -825 
L 2784 -78 
Q 2681 -84 2626 -87 
Q 2572 -91 2522 -91 
Q 1538 -91 948 567 
Q 359 1225 359 2328 
Q 359 3434 948 4092 
Q 1538 4750 2522 4750 
Q 3503 4750 4090 4092 
Q 4678 3434 4678 2328 
Q 4678 1516 4351 937 
Q 4025 359 3406 84 
z
" transform="scale(0.015625)"/>
     </defs>
     <use xlink:href="#DejaVuSans-4e"/>
     <use xlink:href="#DejaVuSans-41" x="74.804688"/>
     <use xlink:href="#DejaVuSans-53" x="143.212891"/>
     <use xlink:href="#DejaVuSans-44" x="206.689453"/>
     <use xlink:href="#DejaVuSans-41" x="281.941406"/>
     <use xlink:href="#DejaVuSans-51" x="348.599609"/>
    </g>
   </g>
  </g>
 </g>
 <defs>
  <clipPath id="pcc2e9d3039">
   <rect x="49.3" y="26.8" width="290.493293" height="141.701515"/>
  </clipPath>
 </defs>
</svg>
