<?xml version="1.0" encoding="utf-8" standalone="no"?>
<!DOCTYPE svg PUBLIC "-//W3C//DTD SVG 1.1//EN"
  "http://www.w3.org/Graphics/SVG/1.1/DTD/svg11.dtd">
<svg xmlns:xlink="http://www.w3.org/1999/xlink" width="360pt" height="216pt" viewBox="0 0 360 216" xmlns="http://www.w3.org/2000/svg" version="1.1">
 <metadata>
  <rdf:RDF xmlns:dc="http://purl.org/dc/elements/1.1/" xmlns:cc="http://creativecommons.org/ns#" xmlns:rdf="http://www.w3.org/1999/02/22-rdf-syntax-ns#">
   <cc:Work>
    <dc:type rdf:resource="http://purl.org/dc/dcmitype/StillImage"/>
    <dc:date>2022-11-15T16:29:28.559944</dc:date>
    <dc:format>image/svg+xml</dc:format>
    <dc:creator>
     <cc:Agent>
      <dc:title>Matplotlib v3.6.1, https://matplotlib.org/</dc:title>
     </cc:Agent>
    </dc:creator>
   </cc:Work>
  </rdf:RDF>
 </metadata>
 <defs>
  <style type="text/css">*{stroke-linejoin: round; stroke-linecap: butt}</style>
 </defs>
 <g id="figure_1">
  <g id="patch_1">
   <path d="M 0 216 
L 360 216 
L 360 0 
L 0 0 
z
" style="fill: #ffffff"/>
  </g>
  <g id="axes_1">
   <g id="patch_2">
    <path d="M 43.09 168.671221 
L 346.917193 168.671221 
L 346.917193 26.88 
L 43.09 26.88 
z
" style="fill: #ffffff"/>
   </g>
   <g id="matplotlib.axis_1">
    <g id="xtick_1">
     <g id="line2d_1">
      <defs>
       <path id="m0263718f1c" d="M 0 0 
L 0 3.5 
" style="stroke: #000000; stroke-width: 0.8"/>
      </defs>
      <g>
       <use xlink:href="#m0263718f1c" x="56.394917" y="168.671221" style="stroke: #000000; stroke-width: 0.8"/>
      </g>
     </g>
     <g id="text_1">
      <!-- '00-01 -->
      <g transform="translate(47.100882 203.534543) rotate(-45) scale(0.1 -0.1)">
       <defs>
        <path id="DejaVuSans-27" d="M 1147 4666 
L 1147 2931 
L 616 2931 
L 616 4666 
L 1147 4666 
z
" transform="scale(0.015625)"/>
        <path id="DejaVuSans-30" d="M 2034 4250 
Q 1547 4250 1301 3770 
Q 1056 3291 1056 2328 
Q 1056 1369 1301 889 
Q 1547 409 2034 409 
Q 2525 409 2770 889 
Q 3016 1369 3016 2328 
Q 3016 3291 2770 3770 
Q 2525 4250 2034 4250 
z
M 2034 4750 
Q 2819 4750 3233 4129 
Q 3647 3509 3647 2328 
Q 3647 1150 3233 529 
Q 2819 -91 2034 -91 
Q 1250 -91 836 529 
Q 422 1150 422 2328 
Q 422 3509 836 4129 
Q 1250 4750 2034 4750 
z
" transform="scale(0.015625)"/>
        <path id="DejaVuSans-2d" d="M 313 2009 
L 1997 2009 
L 1997 1497 
L 313 1497 
L 313 2009 
z
" transform="scale(0.015625)"/>
        <path id="DejaVuSans-31" d="M 794 531 
L 1825 531 
L 1825 4091 
L 703 3866 
L 703 4441 
L 1819 4666 
L 2450 4666 
L 2450 531 
L 3481 531 
L 3481 0 
L 794 0 
L 794 531 
z
" transform="scale(0.015625)"/>
       </defs>
       <use xlink:href="#DejaVuSans-27"/>
       <use xlink:href="#DejaVuSans-30" x="27.490234"/>
       <use xlink:href="#DejaVuSans-30" x="91.113281"/>
       <use xlink:href="#DejaVuSans-2d" x="154.736328"/>
       <use xlink:href="#DejaVuSans-30" x="190.820312"/>
       <use xlink:href="#DejaVuSans-31" x="254.443359"/>
      </g>
     </g>
    </g>
    <g id="xtick_2">
     <g id="line2d_2">
      <g>
       <use xlink:href="#m0263718f1c" x="86.96169" y="168.671221" style="stroke: #000000; stroke-width: 0.8"/>
      </g>
     </g>
     <g id="text_2">
      <!-- '00-05 -->
      <g transform="translate(77.667655 203.534543) rotate(-45) scale(0.1 -0.1)">
       <defs>
        <path id="DejaVuSans-35" d="M 691 4666 
L 3169 4666 
L 3169 4134 
L 1269 4134 
L 1269 2991 
Q 1406 3038 1543 3061 
Q 1681 3084 1819 3084 
Q 2600 3084 3056 2656 
Q 3513 2228 3513 1497 
Q 3513 744 3044 326 
Q 2575 -91 1722 -91 
Q 1428 -91 1123 -41 
Q 819 9 494 109 
L 494 744 
Q 775 591 1075 516 
Q 1375 441 1709 441 
Q 2250 441 2565 725 
Q 2881 1009 2881 1497 
Q 2881 1984 2565 2268 
Q 2250 2553 1709 2553 
Q 1456 2553 1204 2497 
Q 953 2441 691 2322 
L 691 4666 
z
" transform="scale(0.015625)"/>
       </defs>
       <use xlink:href="#DejaVuSans-27"/>
       <use xlink:href="#DejaVuSans-30" x="27.490234"/>
       <use xlink:href="#DejaVuSans-30" x="91.113281"/>
       <use xlink:href="#DejaVuSans-2d" x="154.736328"/>
       <use xlink:href="#DejaVuSans-30" x="190.820312"/>
       <use xlink:href="#DejaVuSans-35" x="254.443359"/>
      </g>
     </g>
    </g>
    <g id="xtick_3">
     <g id="line2d_3">
      <g>
       <use xlink:href="#m0263718f1c" x="118.044402" y="168.671221" style="stroke: #000000; stroke-width: 0.8"/>
      </g>
     </g>
     <g id="text_3">
      <!-- '00-09 -->
      <g transform="translate(108.750367 203.534543) rotate(-45) scale(0.1 -0.1)">
       <defs>
        <path id="DejaVuSans-39" d="M 703 97 
L 703 672 
Q 941 559 1184 500 
Q 1428 441 1663 441 
Q 2288 441 2617 861 
Q 2947 1281 2994 2138 
Q 2813 1869 2534 1725 
Q 2256 1581 1919 1581 
Q 1219 1581 811 2004 
Q 403 2428 403 3163 
Q 403 3881 828 4315 
Q 1253 4750 1959 4750 
Q 2769 4750 3195 4129 
Q 3622 3509 3622 2328 
Q 3622 1225 3098 567 
Q 2575 -91 1691 -91 
Q 1453 -91 1209 -44 
Q 966 3 703 97 
z
M 1959 2075 
Q 2384 2075 2632 2365 
Q 2881 2656 2881 3163 
Q 2881 3666 2632 3958 
Q 2384 4250 1959 4250 
Q 1534 4250 1286 3958 
Q 1038 3666 1038 3163 
Q 1038 2656 1286 2365 
Q 1534 2075 1959 2075 
z
" transform="scale(0.015625)"/>
       </defs>
       <use xlink:href="#DejaVuSans-27"/>
       <use xlink:href="#DejaVuSans-30" x="27.490234"/>
       <use xlink:href="#DejaVuSans-30" x="91.113281"/>
       <use xlink:href="#DejaVuSans-2d" x="154.736328"/>
       <use xlink:href="#DejaVuSans-30" x="190.820312"/>
       <use xlink:href="#DejaVuSans-39" x="254.443359"/>
      </g>
     </g>
    </g>
    <g id="xtick_4">
     <g id="line2d_4">
      <g>
       <use xlink:href="#m0263718f1c" x="148.884938" y="168.671221" style="stroke: #000000; stroke-width: 0.8"/>
      </g>
     </g>
     <g id="text_4">
      <!-- '01-01 -->
      <g transform="translate(139.590904 203.534543) rotate(-45) scale(0.1 -0.1)">
       <use xlink:href="#DejaVuSans-27"/>
       <use xlink:href="#DejaVuSans-30" x="27.490234"/>
       <use xlink:href="#DejaVuSans-31" x="91.113281"/>
       <use xlink:href="#DejaVuSans-2d" x="154.736328"/>
       <use xlink:href="#DejaVuSans-30" x="190.820312"/>
       <use xlink:href="#DejaVuSans-31" x="254.443359"/>
      </g>
     </g>
    </g>
    <g id="xtick_5">
     <g id="line2d_5">
      <g>
       <use xlink:href="#m0263718f1c" x="179.199006" y="168.671221" style="stroke: #000000; stroke-width: 0.8"/>
      </g>
     </g>
     <g id="text_5">
      <!-- '01-05 -->
      <g transform="translate(169.904971 203.534543) rotate(-45) scale(0.1 -0.1)">
       <use xlink:href="#DejaVuSans-27"/>
       <use xlink:href="#DejaVuSans-30" x="27.490234"/>
       <use xlink:href="#DejaVuSans-31" x="91.113281"/>
       <use xlink:href="#DejaVuSans-2d" x="154.736328"/>
       <use xlink:href="#DejaVuSans-30" x="190.820312"/>
       <use xlink:href="#DejaVuSans-35" x="254.443359"/>
      </g>
     </g>
    </g>
    <g id="xtick_6">
     <g id="line2d_6">
      <g>
       <use xlink:href="#m0263718f1c" x="210.281718" y="168.671221" style="stroke: #000000; stroke-width: 0.8"/>
      </g>
     </g>
     <g id="text_6">
      <!-- '01-09 -->
      <g transform="translate(200.987684 203.534543) rotate(-45) scale(0.1 -0.1)">
       <use xlink:href="#DejaVuSans-27"/>
       <use xlink:href="#DejaVuSans-30" x="27.490234"/>
       <use xlink:href="#DejaVuSans-31" x="91.113281"/>
       <use xlink:href="#DejaVuSans-2d" x="154.736328"/>
       <use xlink:href="#DejaVuSans-30" x="190.820312"/>
       <use xlink:href="#DejaVuSans-39" x="254.443359"/>
      </g>
     </g>
    </g>
    <g id="xtick_7">
     <g id="line2d_7">
      <g>
       <use xlink:href="#m0263718f1c" x="241.122255" y="168.671221" style="stroke: #000000; stroke-width: 0.8"/>
      </g>
     </g>
     <g id="text_7">
      <!-- '02-01 -->
      <g transform="translate(231.82822 203.534543) rotate(-45) scale(0.1 -0.1)">
       <defs>
        <path id="DejaVuSans-32" d="M 1228 531 
L 3431 531 
L 3431 0 
L 469 0 
L 469 531 
Q 828 903 1448 1529 
Q 2069 2156 2228 2338 
Q 2531 2678 2651 2914 
Q 2772 3150 2772 3378 
Q 2772 3750 2511 3984 
Q 2250 4219 1831 4219 
Q 1534 4219 1204 4116 
Q 875 4013 500 3803 
L 500 4441 
Q 881 4594 1212 4672 
Q 1544 4750 1819 4750 
Q 2544 4750 2975 4387 
Q 3406 4025 3406 3419 
Q 3406 3131 3298 2873 
Q 3191 2616 2906 2266 
Q 2828 2175 2409 1742 
Q 1991 1309 1228 531 
z
" transform="scale(0.015625)"/>
       </defs>
       <use xlink:href="#DejaVuSans-27"/>
       <use xlink:href="#DejaVuSans-30" x="27.490234"/>
       <use xlink:href="#DejaVuSans-32" x="91.113281"/>
       <use xlink:href="#DejaVuSans-2d" x="154.736328"/>
       <use xlink:href="#DejaVuSans-30" x="190.820312"/>
       <use xlink:href="#DejaVuSans-31" x="254.443359"/>
      </g>
     </g>
    </g>
    <g id="xtick_8">
     <g id="line2d_8">
      <g>
       <use xlink:href="#m0263718f1c" x="271.436323" y="168.671221" style="stroke: #000000; stroke-width: 0.8"/>
      </g>
     </g>
     <g id="text_8">
      <!-- '02-05 -->
      <g transform="translate(262.142288 203.534543) rotate(-45) scale(0.1 -0.1)">
       <use xlink:href="#DejaVuSans-27"/>
       <use xlink:href="#DejaVuSans-30" x="27.490234"/>
       <use xlink:href="#DejaVuSans-32" x="91.113281"/>
       <use xlink:href="#DejaVuSans-2d" x="154.736328"/>
       <use xlink:href="#DejaVuSans-30" x="190.820312"/>
       <use xlink:href="#DejaVuSans-35" x="254.443359"/>
      </g>
     </g>
    </g>
    <g id="xtick_9">
     <g id="line2d_9">
      <g>
       <use xlink:href="#m0263718f1c" x="302.519035" y="168.671221" style="stroke: #000000; stroke-width: 0.8"/>
      </g>
     </g>
     <g id="text_9">
      <!-- '02-09 -->
      <g transform="translate(293.225 203.534543) rotate(-45) scale(0.1 -0.1)">
       <use xlink:href="#DejaVuSans-27"/>
       <use xlink:href="#DejaVuSans-30" x="27.490234"/>
       <use xlink:href="#DejaVuSans-32" x="91.113281"/>
       <use xlink:href="#DejaVuSans-2d" x="154.736328"/>
       <use xlink:href="#DejaVuSans-30" x="190.820312"/>
       <use xlink:href="#DejaVuSans-39" x="254.443359"/>
      </g>
     </g>
    </g>
    <g id="xtick_10">
     <g id="line2d_10">
      <g>
       <use xlink:href="#m0263718f1c" x="333.359571" y="168.671221" style="stroke: #000000; stroke-width: 0.8"/>
      </g>
     </g>
     <g id="text_10">
      <!-- '03-01 -->
      <g transform="translate(324.065536 203.534543) rotate(-45) scale(0.1 -0.1)">
       <defs>
        <path id="DejaVuSans-33" d="M 2597 2516 
Q 3050 2419 3304 2112 
Q 3559 1806 3559 1356 
Q 3559 666 3084 287 
Q 2609 -91 1734 -91 
Q 1441 -91 1130 -33 
Q 819 25 488 141 
L 488 750 
Q 750 597 1062 519 
Q 1375 441 1716 441 
Q 2309 441 2620 675 
Q 2931 909 2931 1356 
Q 2931 1769 2642 2001 
Q 2353 2234 1838 2234 
L 1294 2234 
L 1294 2753 
L 1863 2753 
Q 2328 2753 2575 2939 
Q 2822 3125 2822 3475 
Q 2822 3834 2567 4026 
Q 2313 4219 1838 4219 
Q 1578 4219 1281 4162 
Q 984 4106 628 3988 
L 628 4550 
Q 988 4650 1302 4700 
Q 1616 4750 1894 4750 
Q 2613 4750 3031 4423 
Q 3450 4097 3450 3541 
Q 3450 3153 3228 2886 
Q 3006 2619 2597 2516 
z
" transform="scale(0.015625)"/>
       </defs>
       <use xlink:href="#DejaVuSans-27"/>
       <use xlink:href="#DejaVuSans-30" x="27.490234"/>
       <use xlink:href="#DejaVuSans-33" x="91.113281"/>
       <use xlink:href="#DejaVuSans-2d" x="154.736328"/>
       <use xlink:href="#DejaVuSans-30" x="190.820312"/>
       <use xlink:href="#DejaVuSans-31" x="254.443359"/>
      </g>
     </g>
    </g>
   </g>
   <g id="matplotlib.axis_2">
    <g id="ytick_1">
     <g id="line2d_11">
      <defs>
       <path id="mc17a606607" d="M 0 0 
L -3.5 0 
" style="stroke: #000000; stroke-width: 0.8"/>
      </defs>
      <g>
       <use xlink:href="#mc17a606607" x="43.09" y="165.964599" style="stroke: #000000; stroke-width: 0.8"/>
      </g>
     </g>
     <g id="text_11">
      <!-- 1000 -->
      <g transform="translate(10.64 169.763817) scale(0.1 -0.1)">
       <use xlink:href="#DejaVuSans-31"/>
       <use xlink:href="#DejaVuSans-30" x="63.623047"/>
       <use xlink:href="#DejaVuSans-30" x="127.246094"/>
       <use xlink:href="#DejaVuSans-30" x="190.869141"/>
      </g>
     </g>
    </g>
    <g id="ytick_2">
     <g id="line2d_12">
      <g>
       <use xlink:href="#mc17a606607" x="43.09" y="133.202932" style="stroke: #000000; stroke-width: 0.8"/>
      </g>
     </g>
     <g id="text_12">
      <!-- 2000 -->
      <g transform="translate(10.64 137.002151) scale(0.1 -0.1)">
       <use xlink:href="#DejaVuSans-32"/>
       <use xlink:href="#DejaVuSans-30" x="63.623047"/>
       <use xlink:href="#DejaVuSans-30" x="127.246094"/>
       <use xlink:href="#DejaVuSans-30" x="190.869141"/>
      </g>
     </g>
    </g>
    <g id="ytick_3">
     <g id="line2d_13">
      <g>
       <use xlink:href="#mc17a606607" x="43.09" y="100.441265" style="stroke: #000000; stroke-width: 0.8"/>
      </g>
     </g>
     <g id="text_13">
      <!-- 3000 -->
      <g transform="translate(10.64 104.240484) scale(0.1 -0.1)">
       <use xlink:href="#DejaVuSans-33"/>
       <use xlink:href="#DejaVuSans-30" x="63.623047"/>
       <use xlink:href="#DejaVuSans-30" x="127.246094"/>
       <use xlink:href="#DejaVuSans-30" x="190.869141"/>
      </g>
     </g>
    </g>
    <g id="ytick_4">
     <g id="line2d_14">
      <g>
       <use xlink:href="#mc17a606607" x="43.09" y="67.679598" style="stroke: #000000; stroke-width: 0.8"/>
      </g>
     </g>
     <g id="text_14">
      <!-- 4000 -->
      <g transform="translate(10.64 71.478817) scale(0.1 -0.1)">
       <defs>
        <path id="DejaVuSans-34" d="M 2419 4116 
L 825 1625 
L 2419 1625 
L 2419 4116 
z
M 2253 4666 
L 3047 4666 
L 3047 1625 
L 3713 1625 
L 3713 1100 
L 3047 1100 
L 3047 0 
L 2419 0 
L 2419 1100 
L 313 1100 
L 313 1709 
L 2253 4666 
z
" transform="scale(0.015625)"/>
       </defs>
       <use xlink:href="#DejaVuSans-34"/>
       <use xlink:href="#DejaVuSans-30" x="63.623047"/>
       <use xlink:href="#DejaVuSans-30" x="127.246094"/>
       <use xlink:href="#DejaVuSans-30" x="190.869141"/>
      </g>
     </g>
    </g>
    <g id="ytick_5">
     <g id="line2d_15">
      <g>
       <use xlink:href="#mc17a606607" x="43.09" y="34.917932" style="stroke: #000000; stroke-width: 0.8"/>
      </g>
     </g>
     <g id="text_15">
      <!-- 5000 -->
      <g transform="translate(10.64 38.71715) scale(0.1 -0.1)">
       <use xlink:href="#DejaVuSans-35"/>
       <use xlink:href="#DejaVuSans-30" x="63.623047"/>
       <use xlink:href="#DejaVuSans-30" x="127.246094"/>
       <use xlink:href="#DejaVuSans-30" x="190.869141"/>
      </g>
     </g>
    </g>
   </g>
   <g id="line2d_16">
    <path d="M 95.048249 73.793584 
L 95.806364 73.519038 
L 96.059069 75.661319 
L 96.311774 72.945708 
L 96.564479 73.394542 
L 96.817184 71.780046 
L 97.575299 75.283256 
L 97.828004 72.559119 
L 98.080709 74.316787 
L 98.333414 72.733413 
L 98.586119 72.247883 
L 99.344234 68.012782 
L 99.596939 67.241899 
L 99.849644 65.582524 
L 100.355054 72.746515 
L 101.113168 70.55869 
L 101.365873 72.300305 
L 101.618578 69.634156 
L 101.871283 71.701749 
L 102.123988 68.789888 
L 102.882103 67.943987 
L 103.387513 72.164667 
L 103.892923 66.919529 
L 104.651038 68.32533 
L 104.903743 69.107354 
L 105.156448 64.416869 
L 105.661858 59.614325 
L 106.419973 58.680954 
L 106.925383 65.857071 
L 107.178088 61.633103 
L 107.430793 64.585261 
L 108.188908 68.283394 
L 108.441613 66.710834 
L 108.694318 68.081913 
L 109.199728 78.72028 
L 109.957843 75.313395 
L 110.210548 77.982487 
L 110.463253 78.869019 
L 110.715958 75.546334 
L 111.726777 72.168275 
L 111.979482 72.641351 
L 112.232187 72.479183 
L 112.484892 75.542726 
L 112.737597 74.576913 
L 113.495712 72.604006 
L 113.748417 72.539467 
L 114.001122 72.226919 
L 114.253827 69.616792 
L 114.506532 69.961773 
L 115.517352 69.04871 
L 116.022762 65.934056 
L 116.275467 66.281333 
L 117.286287 64.987575 
L 117.538992 64.278608 
L 117.791697 60.919225 
L 118.044402 60.002554 
L 119.055222 62.988777 
L 119.307927 67.242555 
L 119.560632 64.457485 
L 119.813337 68.386926 
L 120.571452 71.075342 
L 120.824157 72.609901 
L 121.076862 71.155942 
L 121.329567 70.501685 
L 121.582272 73.077739 
L 122.340386 76.639258 
L 122.593091 72.081459 
L 122.845796 71.039637 
L 123.098501 73.286099 
L 123.351206 74.108748 
L 124.109321 76.157663 
L 124.614731 78.939782 
L 124.867436 74.942202 
L 125.120141 78.398558 
L 125.878256 81.803156 
L 126.130961 85.507512 
L 126.383666 83.303634 
L 126.636371 84.974479 
L 126.889076 88.613975 
L 127.647191 88.792525 
L 128.152601 94.921252 
L 128.405306 97.994626 
L 128.658011 90.063351 
L 129.416126 90.931208 
L 129.668831 93.43158 
L 129.921536 94.820672 
L 130.174241 86.727228 
L 130.426946 84.612797 
L 131.185061 85.086201 
L 131.437766 86.688244 
L 131.690471 92.920167 
L 131.943176 91.524197 
L 132.195881 91.321724 
L 132.964525 94.170685 
L 133.21723 88.331574 
L 133.469935 89.518857 
L 133.72264 86.385854 
L 133.975345 85.646749 
L 134.73346 86.805533 
L 134.986165 86.81929 
L 135.23887 92.850389 
L 135.491575 93.877462 
L 135.74428 99.491505 
L 136.502395 101.531574 
L 136.7551 95.911309 
L 137.007804 95.019537 
L 137.260509 99.396827 
L 137.513214 99.550477 
L 138.271329 104.51551 
L 138.524034 104.652779 
L 138.776739 108.456732 
L 139.282149 103.57394 
L 140.040264 104.356612 
L 140.292969 109.123763 
L 140.545674 110.042729 
L 140.798379 113.613751 
L 141.051084 112.062155 
L 141.809199 113.029936 
L 142.061904 104.051599 
L 142.314609 107.108264 
L 142.567314 108.544539 
L 142.820019 103.146398 
L 143.578134 99.946561 
L 144.588954 111.800717 
L 145.347069 112.742615 
L 145.599774 116.438461 
L 145.852479 122.300503 
L 146.105184 122.06003 
L 146.357889 116.264494 
L 147.368709 117.034393 
L 147.621414 115.532924 
L 147.874118 114.929784 
L 148.126823 117.787912 
L 149.137643 123.641108 
L 149.390348 112.999142 
L 149.643053 114.632634 
L 149.895758 119.847642 
L 150.653873 120.231935 
L 150.906578 118.745207 
L 151.411988 112.216789 
L 151.664693 112.677748 
L 152.675513 112.938201 
L 153.180923 108.025919 
L 153.433628 107.964003 
L 154.191743 108.37254 
L 154.444448 105.670358 
L 154.697153 105.055749 
L 154.949858 108.491461 
L 155.202563 107.60624 
L 155.960678 105.737513 
L 156.213383 105.737185 
L 156.466088 107.88701 
L 156.718793 107.557425 
L 156.971498 111.563851 
L 157.729613 112.130301 
L 157.982318 111.433132 
L 158.740432 117.773171 
L 159.498547 117.160857 
L 159.751252 119.190113 
L 160.256662 115.088682 
L 160.509367 119.266778 
L 161.520187 122.773252 
L 161.772892 124.392011 
L 162.025597 125.177635 
L 163.036417 123.095958 
L 163.289122 126.3944 
L 163.541827 128.228725 
L 163.794532 127.195421 
L 164.047237 129.349181 
L 164.805352 128.520637 
L 165.058057 126.505467 
L 165.310762 125.866942 
L 165.563467 127.675056 
L 165.816172 131.47377 
L 166.574287 135.713131 
L 166.826992 132.718713 
L 167.585107 136.776901 
L 168.343222 134.802355 
L 168.595927 137.873437 
L 168.848632 138.764881 
L 169.101336 136.554452 
L 169.354041 135.539492 
L 170.112156 135.873336 
L 170.364861 134.112724 
L 170.617566 137.981876 
L 170.870271 139.08136 
L 171.122976 138.43628 
L 171.870562 140.313197 
L 172.123267 143.915997 
L 172.375972 145.036444 
L 172.628677 140.24669 
L 172.881382 142.364405 
L 173.639497 141.533897 
L 173.892202 138.050675 
L 174.397612 134.466548 
L 175.408432 136.165571 
L 175.661137 135.718374 
L 176.166546 127.235725 
L 176.419251 127.849351 
L 177.430071 132.658761 
L 177.682776 131.243783 
L 177.935481 132.060205 
L 178.188186 130.723531 
L 178.946301 129.394716 
L 179.451711 125.975705 
L 179.704416 128.413178 
L 179.957121 126.928089 
L 180.715236 127.516487 
L 180.967941 126.690895 
L 181.473351 128.98126 
L 181.726056 129.683348 
L 182.484171 130.519099 
L 182.736876 130.399186 
L 182.989581 127.750082 
L 183.242286 126.857654 
L 183.494991 126.687295 
L 184.253106 123.191291 
L 184.505811 122.92068 
L 184.758516 125.226122 
L 185.011221 123.963486 
L 185.263926 124.97877 
L 186.274746 127.451948 
L 186.52745 130.434571 
L 186.780155 129.583096 
L 187.03286 128.30703 
L 187.790975 128.094407 
L 188.04368 125.547844 
L 188.296385 126.069735 
L 188.54909 124.553852 
L 188.801795 126.155894 
L 189.55991 127.607893 
L 189.812615 127.635088 
L 190.06532 129.21715 
L 190.318025 131.759127 
L 191.328845 133.575432 
L 191.58155 133.443401 
L 192.08696 131.277856 
L 192.339665 132.061517 
L 193.09778 131.536342 
L 193.60319 130.754325 
L 194.1086 127.943373 
L 194.866715 128.330618 
L 195.11942 128.590088 
L 195.62483 130.578391 
L 195.877535 133.066642 
L 196.63565 132.327869 
L 196.888355 134.421992 
L 197.14106 134.118947 
L 197.393764 130.721564 
L 197.646469 130.425069 
L 198.404584 132.248912 
L 198.657289 130.997414 
L 198.909994 132.673174 
L 199.162699 131.676567 
L 199.415404 132.240722 
L 200.173519 133.577723 
L 200.426224 134.538298 
L 200.678929 133.716637 
L 200.931634 132.450725 
L 201.184339 132.250552 
L 201.942454 132.618465 
L 202.195159 132.314108 
L 202.447864 130.962693 
L 202.700569 130.340221 
L 202.953274 131.029848 
L 203.964094 132.292484 
L 204.216799 134.305035 
L 204.469504 134.404632 
L 204.722209 134.629048 
L 205.480324 133.784451 
L 205.733029 134.364987 
L 205.985734 135.86023 
L 206.238439 135.485767 
L 206.491144 137.559906 
L 207.249259 137.090104 
L 207.501964 138.729823 
L 207.754669 137.789237 
L 208.007373 138.347497 
L 208.260078 135.928701 
L 209.018193 136.072525 
L 209.270898 137.626413 
L 209.523603 138.340943 
L 209.776308 140.027841 
L 210.029013 139.577368 
L 211.292538 141.098166 
L 211.545243 142.846656 
L 211.797948 143.434402 
L 212.556063 143.182791 
L 214.577703 147.779254 
L 214.830408 148.672989 
L 215.335818 152.100191 
L 216.093933 149.603421 
L 216.346638 149.530036 
L 216.599343 150.761874 
L 216.852048 150.870972 
L 217.104753 149.623078 
L 217.862868 150.22393 
L 218.115573 149.835049 
L 218.368278 146.936293 
L 218.620983 146.395726 
L 218.873687 146.13396 
L 219.631802 146.112668 
L 219.884507 147.284226 
L 220.389917 142.983273 
L 220.642622 142.920041 
L 221.400737 143.152321 
L 221.653442 142.308384 
L 221.906147 144.789424 
L 222.158852 144.580404 
L 222.411557 143.971362 
L 223.169672 142.766719 
L 223.422377 142.885972 
L 223.675082 141.998128 
L 223.927787 140.55891 
L 224.180492 140.772189 
L 225.201841 144.099134 
L 225.454546 143.352498 
L 225.707251 141.514565 
L 225.959956 141.533242 
L 226.718071 139.963301 
L 226.970776 138.605987 
L 227.223481 138.525719 
L 227.476186 138.845473 
L 227.728891 138.822214 
L 228.487006 138.440539 
L 228.739711 136.737589 
L 228.992416 136.374591 
L 229.497826 136.525622 
L 230.255941 135.351441 
L 230.508646 137.117623 
L 230.761351 137.296501 
L 232.024876 135.128336 
L 232.277581 135.300662 
L 232.530286 136.873222 
L 232.782991 135.389445 
L 233.035696 135.477248 
L 233.79381 136.318566 
L 234.551925 131.424956 
L 234.80463 132.506419 
L 235.562745 133.461094 
L 236.068155 132.830104 
L 236.32086 134.955353 
L 236.573565 134.737159 
L 237.584385 133.046986 
L 237.83709 133.763484 
L 238.089795 135.871696 
L 238.3425 134.977633 
L 239.100615 135.02186 
L 239.606025 134.490467 
L 240.111435 133.620315 
L 240.86955 134.82791 
L 241.37496 133.882736 
L 241.627665 131.752572 
L 241.88037 131.257548 
L 242.638485 131.987475 
L 242.89119 131.376797 
L 243.143895 131.73226 
L 243.3966 131.655271 
L 243.649305 132.467106 
L 244.407419 133.506305 
L 244.660124 133.173118 
L 244.912829 135.023172 
L 245.165534 133.667494 
L 245.418239 135.485111 
L 246.429059 137.051444 
L 246.681764 135.745892 
L 246.934469 135.084108 
L 247.187174 135.243985 
L 247.945289 135.040533 
L 248.197994 136.708758 
L 248.703404 135.364218 
L 248.956109 136.110858 
L 250.219634 139.338866 
L 250.472339 140.341372 
L 250.725044 139.136725 
L 251.483159 138.226605 
L 251.735864 138.63449 
L 251.988569 137.817084 
L 252.241274 138.334392 
L 252.493979 139.584906 
L 253.504799 141.373364 
L 253.757504 140.555635 
L 254.010209 142.499383 
L 254.262914 142.227459 
L 255.021028 140.742046 
L 255.273733 140.840987 
L 255.779143 141.999767 
L 256.031848 139.665499 
L 256.789963 137.811845 
L 257.042668 137.583493 
L 257.295373 136.79361 
L 257.548078 137.08093 
L 257.800783 135.507058 
L 258.558898 135.512957 
L 259.064308 137.723058 
L 259.317013 137.981548 
L 259.569718 137.517642 
L 260.580538 137.105829 
L 260.833243 138.678389 
L 261.085948 137.500281 
L 261.338653 138.071643 
L 262.096768 139.346072 
L 262.349473 138.963414 
L 262.602178 138.878891 
L 262.854883 138.269524 
L 263.865703 137.70373 
L 264.118408 139.611113 
L 264.371113 140.267986 
L 264.623818 140.091072 
L 264.876523 140.737131 
L 265.624108 140.218188 
L 265.876813 141.63677 
L 266.129518 140.834109 
L 266.382223 142.204528 
L 266.634928 141.190556 
L 267.393043 141.269509 
L 267.645748 139.205196 
L 268.403863 139.859121 
L 269.161978 141.108976 
L 269.667388 142.594392 
L 269.920093 142.582599 
L 270.172798 144.214455 
L 270.930913 144.442475 
L 271.183618 143.417037 
L 271.436323 143.767586 
L 271.941733 145.880713 
L 272.699847 147.01263 
L 272.952552 147.165301 
L 273.205257 143.152976 
L 273.710667 146.279752 
L 274.468782 144.586299 
L 274.721487 142.407321 
L 275.479602 141.675426 
L 276.237717 142.979342 
L 276.490422 144.204953 
L 276.743127 143.901256 
L 276.995832 143.109077 
L 277.248537 144.293084 
L 278.259357 144.598421 
L 278.512062 145.508541 
L 278.764767 145.261845 
L 279.775587 147.534193 
L 280.280997 146.462889 
L 280.533702 147.785805 
L 280.786407 148.421382 
L 281.544522 148.578312 
L 281.797227 149.676151 
L 282.049932 148.957362 
L 282.302637 149.685981 
L 282.555342 149.428475 
L 283.313456 147.837895 
L 283.566161 148.176325 
L 284.071571 150.738614 
L 284.324276 151.518015 
L 285.082391 150.883094 
L 285.335096 152.07398 
L 285.587801 151.899034 
L 285.840506 150.920443 
L 286.093211 150.789068 
L 286.851326 152.735436 
L 287.104031 154.241821 
L 287.356736 153.509594 
L 287.862146 151.275578 
L 288.620261 152.676139 
L 289.125671 154.628734 
L 289.378376 153.697646 
L 289.631081 153.728116 
L 290.389196 153.42933 
L 290.641901 153.670455 
L 290.894606 152.950027 
L 291.400016 155.508712 
L 292.158131 156.704513 
L 292.410836 158.460537 
L 292.663541 156.456181 
L 292.916246 158.099179 
L 294.17977 154.688362 
L 294.432475 155.210254 
L 294.937885 157.842325 
L 295.696 159.215367 
L 295.948705 157.461306 
L 296.20141 156.761846 
L 296.454115 155.594875 
L 296.70682 155.935597 
L 297.464935 155.91201 
L 297.71764 157.142536 
L 297.970345 155.012372 
L 298.475755 154.137309 
L 299.23387 153.038809 
L 299.486575 153.626884 
L 299.73928 152.556887 
L 299.991985 152.108053 
L 300.24469 153.494853 
L 301.002805 153.130544 
L 301.508215 155.664986 
L 301.76092 154.964213 
L 302.013625 155.649589 
L 303.024445 157.320762 
L 303.27715 156.388034 
L 303.529855 157.74142 
L 303.78256 156.290077 
L 304.540674 155.985396 
L 304.793379 155.477918 
L 305.046084 155.629932 
L 305.298789 156.801814 
L 305.551494 156.417848 
L 306.309609 156.92631 
L 306.562314 157.448533 
L 306.815019 157.704399 
L 307.067724 158.873337 
L 307.320429 158.721323 
L 308.078544 159.905982 
L 308.331249 159.996404 
L 308.583954 158.682006 
L 308.836659 158.704286 
L 309.089364 159.439784 
L 309.847479 160.327624 
L 310.100184 158.962776 
L 310.858299 161.381241 
L 311.616414 162.052855 
L 311.869119 161.731137 
L 312.121824 162.226165 
L 312.627234 159.069252 
L 313.385349 158.739667 
L 313.638054 156.711395 
L 313.890759 158.350131 
L 314.143464 157.043923 
L 314.396169 156.533826 
L 315.154284 155.819292 
L 315.406988 156.371981 
L 315.659693 155.473331 
L 315.912398 156.178362 
L 316.165103 155.116228 
L 316.933748 155.617483 
L 317.186453 156.118406 
L 317.439158 155.26038 
L 317.691863 155.161439 
L 317.944568 154.147467 
L 318.702683 152.973286 
L 318.955388 152.821599 
L 319.208093 152.237788 
L 319.460797 153.622952 
L 319.713502 154.193986 
L 320.471617 155.507404 
L 320.724322 154.512428 
L 320.977027 154.126827 
L 321.229732 152.482517 
L 321.482437 152.494966 
L 322.240552 153.06666 
L 322.493257 153.695026 
L 322.998667 150.64688 
L 323.251372 150.607895 
L 324.009487 150.176751 
L 324.262192 151.404329 
L 324.514897 149.978873 
L 325.020307 150.278967 
L 325.778422 150.082397 
L 326.031127 151.255922 
L 326.536537 152.507744 
L 326.789242 152.124762 
L 327.547357 153.93648 
L 327.800062 153.162649 
L 328.305472 152.874673 
L 328.558177 154.091114 
L 329.316292 152.849122 
L 329.568997 153.120386 
L 329.821702 154.120928 
L 330.074406 154.363693 
L 330.327111 154.070474 
L 331.085226 153.4598 
L 331.337931 153.761862 
L 331.843341 153.911909 
L 332.096046 154.553381 
L 333.106866 154.972732 
L 333.106866 154.972732 
" clip-path="url(#p354d788164)" style="fill: none; stroke: #d3d3d3; stroke-linecap: square"/>
   </g>
   <g id="line2d_17">
    <path d="M 56.900327 63.382909 
L 57.153032 70.9004 
L 57.405737 71.691591 
L 57.658442 76.619278 
L 57.911147 71.525159 
L 58.669262 66.052329 
L 58.921967 70.261547 
L 59.174672 72.593192 
L 59.427377 69.081471 
L 59.680082 65.574005 
L 60.690902 63.394043 
L 60.943607 62.723084 
L 61.196312 61.470943 
L 61.449017 59.967505 
L 62.207131 64.531855 
L 62.459836 62.194963 
L 62.712541 65.389233 
L 62.965246 66.383545 
L 63.217951 71.379371 
L 63.976066 69.633829 
L 64.228771 65.976648 
L 64.481476 65.256547 
L 64.734181 60.767543 
L 64.986886 59.681161 
L 65.745001 57.137876 
L 65.997706 53.673986 
L 66.250411 55.779243 
L 66.503116 51.769554 
L 66.755821 54.723991 
L 67.513936 53.967209 
L 67.766641 53.894471 
L 68.019346 53.669075 
L 68.272051 49.696067 
L 68.524756 54.190302 
L 69.535576 55.160706 
L 69.788281 49.649868 
L 70.040986 47.444358 
L 70.293691 48.333834 
L 71.051806 48.748266 
L 71.304511 44.854875 
L 71.557216 41.991828 
L 71.809921 42.960601 
L 72.062626 37.709552 
L 72.82074 38.035201 
L 73.073445 39.902952 
L 73.32615 38.283873 
L 73.578855 33.382724 
L 73.83156 33.325055 
L 74.589675 37.956896 
L 74.84238 44.529226 
L 75.095085 48.591992 
L 75.34779 44.176702 
L 75.600495 41.531533 
L 76.35861 47.694982 
L 76.611315 44.36377 
L 76.86402 39.348947 
L 77.116725 36.863651 
L 77.36943 36.129137 
L 78.127545 36.275573 
L 78.38025 40.359968 
L 78.632955 46.559137 
L 78.88566 52.678354 
L 79.138365 48.91273 
L 79.88595 60.351463 
L 80.138655 62.801709 
L 80.39136 62.135662 
L 80.644065 58.913885 
L 80.89677 53.053146 
L 81.654885 61.513846 
L 81.90759 65.848224 
L 82.160295 75.226907 
L 82.413 78.268823 
L 82.665705 89.915268 
L 83.42382 82.777488 
L 83.676525 74.442587 
L 83.92923 77.298099 
L 84.181935 79.346687 
L 85.192755 84.634417 
L 85.44546 77.140185 
L 85.698165 79.798464 
L 85.95087 75.082751 
L 86.203575 72.244612 
L 86.96169 69.052965 
L 87.214395 74.708616 
L 87.4671 77.268609 
L 87.719805 76.845003 
L 87.97251 73.680878 
L 88.730625 78.511264 
L 88.98333 81.275362 
L 89.236035 87.83687 
L 89.48874 84.074189 
L 89.741445 83.108376 
L 90.499559 80.533641 
L 90.752264 76.932474 
L 91.004969 79.311302 
L 91.257674 82.792229 
L 91.510379 87.651114 
L 92.268494 88.50914 
L 92.521199 95.050331 
L 92.773904 91.575627 
L 93.026609 93.713654 
L 93.279314 93.721516 
L 94.290134 85.387935 
L 94.542839 87.306788 
L 94.795544 81.357594 
L 95.048249 73.793584 
" clip-path="url(#p354d788164)" style="fill: none; stroke: #000000; stroke-linecap: square"/>
   </g>
   <g id="patch_3">
    <path d="M 43.09 168.671221 
L 43.09 26.88 
" style="fill: none; stroke: #000000; stroke-width: 0.8; stroke-linejoin: miter; stroke-linecap: square"/>
   </g>
   <g id="patch_4">
    <path d="M 346.917193 168.671221 
L 346.917193 26.88 
" style="fill: none; stroke: #000000; stroke-width: 0.8; stroke-linejoin: miter; stroke-linecap: square"/>
   </g>
   <g id="patch_5">
    <path d="M 43.09 168.671221 
L 346.917193 168.671221 
" style="fill: none; stroke: #000000; stroke-width: 0.8; stroke-linejoin: miter; stroke-linecap: square"/>
   </g>
   <g id="patch_6">
    <path d="M 43.09 26.88 
L 346.917193 26.88 
" style="fill: none; stroke: #000000; stroke-width: 0.8; stroke-linejoin: miter; stroke-linecap: square"/>
   </g>
   <g id="text_16">
    <!-- NASDAQ -->
    <g transform="translate(169.363909 20.88) scale(0.12 -0.12)">
     <defs>
      <path id="DejaVuSans-4e" d="M 628 4666 
L 1478 4666 
L 3547 763 
L 3547 4666 
L 4159 4666 
L 4159 0 
L 3309 0 
L 1241 3903 
L 1241 0 
L 628 0 
L 628 4666 
z
" transform="scale(0.015625)"/>
      <path id="DejaVuSans-41" d="M 2188 4044 
L 1331 1722 
L 3047 1722 
L 2188 4044 
z
M 1831 4666 
L 2547 4666 
L 4325 0 
L 3669 0 
L 3244 1197 
L 1141 1197 
L 716 0 
L 50 0 
L 1831 4666 
z
" transform="scale(0.015625)"/>
      <path id="DejaVuSans-53" d="M 3425 4513 
L 3425 3897 
Q 3066 4069 2747 4153 
Q 2428 4238 2131 4238 
Q 1616 4238 1336 4038 
Q 1056 3838 1056 3469 
Q 1056 3159 1242 3001 
Q 1428 2844 1947 2747 
L 2328 2669 
Q 3034 2534 3370 2195 
Q 3706 1856 3706 1288 
Q 3706 609 3251 259 
Q 2797 -91 1919 -91 
Q 1588 -91 1214 -16 
Q 841 59 441 206 
L 441 856 
Q 825 641 1194 531 
Q 1563 422 1919 422 
Q 2459 422 2753 634 
Q 3047 847 3047 1241 
Q 3047 1584 2836 1778 
Q 2625 1972 2144 2069 
L 1759 2144 
Q 1053 2284 737 2584 
Q 422 2884 422 3419 
Q 422 4038 858 4394 
Q 1294 4750 2059 4750 
Q 2388 4750 2728 4690 
Q 3069 4631 3425 4513 
z
" transform="scale(0.015625)"/>
      <path id="DejaVuSans-44" d="M 1259 4147 
L 1259 519 
L 2022 519 
Q 2988 519 3436 956 
Q 3884 1394 3884 2338 
Q 3884 3275 3436 3711 
Q 2988 4147 2022 4147 
L 1259 4147 
z
M 628 4666 
L 1925 4666 
Q 3281 4666 3915 4102 
Q 4550 3538 4550 2338 
Q 4550 1131 3912 565 
Q 3275 0 1925 0 
L 628 0 
L 628 4666 
z
" transform="scale(0.015625)"/>
      <path id="DejaVuSans-51" d="M 2522 4238 
Q 1834 4238 1429 3725 
Q 1025 3213 1025 2328 
Q 1025 1447 1429 934 
Q 1834 422 2522 422 
Q 3209 422 3611 934 
Q 4013 1447 4013 2328 
Q 4013 3213 3611 3725 
Q 3209 4238 2522 4238 
z
M 3406 84 
L 4238 -825 
L 3475 -825 
L 2784 -78 
Q 2681 -84 2626 -87 
Q 2572 -91 2522 -91 
Q 1538 -91 948 567 
Q 359 1225 359 2328 
Q 359 3434 948 4092 
Q 1538 4750 2522 4750 
Q 3503 4750 4090 4092 
Q 4678 3434 4678 2328 
Q 4678 1516 4351 937 
Q 4025 359 3406 84 
z
" transform="scale(0.015625)"/>
     </defs>
     <use xlink:href="#DejaVuSans-4e"/>
     <use xlink:href="#DejaVuSans-41" x="74.804688"/>
     <use xlink:href="#DejaVuSans-53" x="143.212891"/>
     <use xlink:href="#DejaVuSans-44" x="206.689453"/>
     <use xlink:href="#DejaVuSans-41" x="281.941406"/>
     <use xlink:href="#DejaVuSans-51" x="348.599609"/>
    </g>
   </g>
  </g>
 </g>
 <defs>
  <clipPath id="p354d788164">
   <rect x="43.09" y="26.88" width="303.827193" height="141.791221"/>
  </clipPath>
 </defs>
</svg>
