<?xml version="1.0" encoding="utf-8" standalone="no"?>
<!DOCTYPE svg PUBLIC "-//W3C//DTD SVG 1.1//EN"
  "http://www.w3.org/Graphics/SVG/1.1/DTD/svg11.dtd">
<svg xmlns:xlink="http://www.w3.org/1999/xlink" width="360pt" height="216pt" viewBox="0 0 360 216" xmlns="http://www.w3.org/2000/svg" version="1.1">
 <metadata>
  <rdf:RDF xmlns:dc="http://purl.org/dc/elements/1.1/" xmlns:cc="http://creativecommons.org/ns#" xmlns:rdf="http://www.w3.org/1999/02/22-rdf-syntax-ns#">
   <cc:Work>
    <dc:type rdf:resource="http://purl.org/dc/dcmitype/StillImage"/>
    <dc:date>2022-10-18T15:14:39.660678</dc:date>
    <dc:format>image/svg+xml</dc:format>
    <dc:creator>
     <cc:Agent>
      <dc:title>Matplotlib v3.6.1, https://matplotlib.org/</dc:title>
     </cc:Agent>
    </dc:creator>
   </cc:Work>
  </rdf:RDF>
 </metadata>
 <defs>
  <style type="text/css">*{stroke-linejoin: round; stroke-linecap: butt}</style>
 </defs>
 <g id="figure_1">
  <g id="patch_1">
   <path d="M 0 216 
L 360 216 
L 360 0 
L 0 0 
z
" style="fill: #ffffff"/>
  </g>
  <g id="axes_1">
   <g id="patch_2">
    <path d="M 49.48 168.671221 
L 349.2 168.671221 
L 349.2 26.88 
L 49.48 26.88 
z
" style="fill: #ffffff"/>
   </g>
   <g id="matplotlib.axis_1">
    <g id="xtick_1">
     <g id="line2d_1">
      <defs>
       <path id="m7cb9804d5e" d="M 0 0 
L 0 3.5 
" style="stroke: #000000; stroke-width: 0.8"/>
      </defs>
      <g>
       <use xlink:href="#m7cb9804d5e" x="61.847921" y="168.671221" style="stroke: #000000; stroke-width: 0.8"/>
      </g>
     </g>
     <g id="text_1">
      <!-- '21-01 -->
      <g transform="translate(52.553887 203.534543) rotate(-45) scale(0.1 -0.1)">
       <defs>
        <path id="DejaVuSans-27" d="M 1147 4666 
L 1147 2931 
L 616 2931 
L 616 4666 
L 1147 4666 
z
" transform="scale(0.015625)"/>
        <path id="DejaVuSans-32" d="M 1228 531 
L 3431 531 
L 3431 0 
L 469 0 
L 469 531 
Q 828 903 1448 1529 
Q 2069 2156 2228 2338 
Q 2531 2678 2651 2914 
Q 2772 3150 2772 3378 
Q 2772 3750 2511 3984 
Q 2250 4219 1831 4219 
Q 1534 4219 1204 4116 
Q 875 4013 500 3803 
L 500 4441 
Q 881 4594 1212 4672 
Q 1544 4750 1819 4750 
Q 2544 4750 2975 4387 
Q 3406 4025 3406 3419 
Q 3406 3131 3298 2873 
Q 3191 2616 2906 2266 
Q 2828 2175 2409 1742 
Q 1991 1309 1228 531 
z
" transform="scale(0.015625)"/>
        <path id="DejaVuSans-31" d="M 794 531 
L 1825 531 
L 1825 4091 
L 703 3866 
L 703 4441 
L 1819 4666 
L 2450 4666 
L 2450 531 
L 3481 531 
L 3481 0 
L 794 0 
L 794 531 
z
" transform="scale(0.015625)"/>
        <path id="DejaVuSans-2d" d="M 313 2009 
L 1997 2009 
L 1997 1497 
L 313 1497 
L 313 2009 
z
" transform="scale(0.015625)"/>
        <path id="DejaVuSans-30" d="M 2034 4250 
Q 1547 4250 1301 3770 
Q 1056 3291 1056 2328 
Q 1056 1369 1301 889 
Q 1547 409 2034 409 
Q 2525 409 2770 889 
Q 3016 1369 3016 2328 
Q 3016 3291 2770 3770 
Q 2525 4250 2034 4250 
z
M 2034 4750 
Q 2819 4750 3233 4129 
Q 3647 3509 3647 2328 
Q 3647 1150 3233 529 
Q 2819 -91 2034 -91 
Q 1250 -91 836 529 
Q 422 1150 422 2328 
Q 422 3509 836 4129 
Q 1250 4750 2034 4750 
z
" transform="scale(0.015625)"/>
       </defs>
       <use xlink:href="#DejaVuSans-27"/>
       <use xlink:href="#DejaVuSans-32" x="27.490234"/>
       <use xlink:href="#DejaVuSans-31" x="91.113281"/>
       <use xlink:href="#DejaVuSans-2d" x="154.736328"/>
       <use xlink:href="#DejaVuSans-30" x="190.820312"/>
       <use xlink:href="#DejaVuSans-31" x="254.443359"/>
      </g>
     </g>
    </g>
    <g id="xtick_2">
     <g id="line2d_2">
      <g>
       <use xlink:href="#m7cb9804d5e" x="99.501933" y="168.671221" style="stroke: #000000; stroke-width: 0.8"/>
      </g>
     </g>
     <g id="text_2">
      <!-- '21-04 -->
      <g transform="translate(90.207898 203.534543) rotate(-45) scale(0.1 -0.1)">
       <defs>
        <path id="DejaVuSans-34" d="M 2419 4116 
L 825 1625 
L 2419 1625 
L 2419 4116 
z
M 2253 4666 
L 3047 4666 
L 3047 1625 
L 3713 1625 
L 3713 1100 
L 3047 1100 
L 3047 0 
L 2419 0 
L 2419 1100 
L 313 1100 
L 313 1709 
L 2253 4666 
z
" transform="scale(0.015625)"/>
       </defs>
       <use xlink:href="#DejaVuSans-27"/>
       <use xlink:href="#DejaVuSans-32" x="27.490234"/>
       <use xlink:href="#DejaVuSans-31" x="91.113281"/>
       <use xlink:href="#DejaVuSans-2d" x="154.736328"/>
       <use xlink:href="#DejaVuSans-30" x="190.820312"/>
       <use xlink:href="#DejaVuSans-34" x="254.443359"/>
      </g>
     </g>
    </g>
    <g id="xtick_3">
     <g id="line2d_3">
      <g>
       <use xlink:href="#m7cb9804d5e" x="137.591956" y="168.671221" style="stroke: #000000; stroke-width: 0.8"/>
      </g>
     </g>
     <g id="text_3">
      <!-- '21-07 -->
      <g transform="translate(128.297921 203.534543) rotate(-45) scale(0.1 -0.1)">
       <defs>
        <path id="DejaVuSans-37" d="M 525 4666 
L 3525 4666 
L 3525 4397 
L 1831 0 
L 1172 0 
L 2766 4134 
L 525 4134 
L 525 4666 
z
" transform="scale(0.015625)"/>
       </defs>
       <use xlink:href="#DejaVuSans-27"/>
       <use xlink:href="#DejaVuSans-32" x="27.490234"/>
       <use xlink:href="#DejaVuSans-31" x="91.113281"/>
       <use xlink:href="#DejaVuSans-2d" x="154.736328"/>
       <use xlink:href="#DejaVuSans-30" x="190.820312"/>
       <use xlink:href="#DejaVuSans-37" x="254.443359"/>
      </g>
     </g>
    </g>
    <g id="xtick_4">
     <g id="line2d_4">
      <g>
       <use xlink:href="#m7cb9804d5e" x="176.100551" y="168.671221" style="stroke: #000000; stroke-width: 0.8"/>
      </g>
     </g>
     <g id="text_4">
      <!-- '21-10 -->
      <g transform="translate(166.806516 203.534543) rotate(-45) scale(0.1 -0.1)">
       <use xlink:href="#DejaVuSans-27"/>
       <use xlink:href="#DejaVuSans-32" x="27.490234"/>
       <use xlink:href="#DejaVuSans-31" x="91.113281"/>
       <use xlink:href="#DejaVuSans-2d" x="154.736328"/>
       <use xlink:href="#DejaVuSans-31" x="190.820312"/>
       <use xlink:href="#DejaVuSans-30" x="254.443359"/>
      </g>
     </g>
    </g>
    <g id="xtick_5">
     <g id="line2d_5">
      <g>
       <use xlink:href="#m7cb9804d5e" x="214.626587" y="168.671221" style="stroke: #000000; stroke-width: 0.8"/>
      </g>
     </g>
     <g id="text_5">
      <!-- '22-01 -->
      <g transform="translate(205.332552 203.534543) rotate(-45) scale(0.1 -0.1)">
       <use xlink:href="#DejaVuSans-27"/>
       <use xlink:href="#DejaVuSans-32" x="27.490234"/>
       <use xlink:href="#DejaVuSans-32" x="91.113281"/>
       <use xlink:href="#DejaVuSans-2d" x="154.736328"/>
       <use xlink:href="#DejaVuSans-30" x="190.820312"/>
       <use xlink:href="#DejaVuSans-31" x="254.443359"/>
      </g>
     </g>
    </g>
    <g id="xtick_6">
     <g id="line2d_6">
      <g>
       <use xlink:href="#m7cb9804d5e" x="252.280598" y="168.671221" style="stroke: #000000; stroke-width: 0.8"/>
      </g>
     </g>
     <g id="text_6">
      <!-- '22-04 -->
      <g transform="translate(242.986563 203.534543) rotate(-45) scale(0.1 -0.1)">
       <use xlink:href="#DejaVuSans-27"/>
       <use xlink:href="#DejaVuSans-32" x="27.490234"/>
       <use xlink:href="#DejaVuSans-32" x="91.113281"/>
       <use xlink:href="#DejaVuSans-2d" x="154.736328"/>
       <use xlink:href="#DejaVuSans-30" x="190.820312"/>
       <use xlink:href="#DejaVuSans-34" x="254.443359"/>
      </g>
     </g>
    </g>
    <g id="xtick_7">
     <g id="line2d_7">
      <g>
       <use xlink:href="#m7cb9804d5e" x="290.370622" y="168.671221" style="stroke: #000000; stroke-width: 0.8"/>
      </g>
     </g>
     <g id="text_7">
      <!-- '22-07 -->
      <g transform="translate(281.076587 203.534543) rotate(-45) scale(0.1 -0.1)">
       <use xlink:href="#DejaVuSans-27"/>
       <use xlink:href="#DejaVuSans-32" x="27.490234"/>
       <use xlink:href="#DejaVuSans-32" x="91.113281"/>
       <use xlink:href="#DejaVuSans-2d" x="154.736328"/>
       <use xlink:href="#DejaVuSans-30" x="190.820312"/>
       <use xlink:href="#DejaVuSans-37" x="254.443359"/>
      </g>
     </g>
    </g>
    <g id="xtick_8">
     <g id="line2d_8">
      <g>
       <use xlink:href="#m7cb9804d5e" x="328.879217" y="168.671221" style="stroke: #000000; stroke-width: 0.8"/>
      </g>
     </g>
     <g id="text_8">
      <!-- '22-10 -->
      <g transform="translate(319.585182 203.534543) rotate(-45) scale(0.1 -0.1)">
       <use xlink:href="#DejaVuSans-27"/>
       <use xlink:href="#DejaVuSans-32" x="27.490234"/>
       <use xlink:href="#DejaVuSans-32" x="91.113281"/>
       <use xlink:href="#DejaVuSans-2d" x="154.736328"/>
       <use xlink:href="#DejaVuSans-31" x="190.820312"/>
       <use xlink:href="#DejaVuSans-30" x="254.443359"/>
      </g>
     </g>
    </g>
   </g>
   <g id="matplotlib.axis_2">
    <g id="ytick_1">
     <g id="line2d_9">
      <defs>
       <path id="m02fd311e1a" d="M 0 0 
L -3.5 0 
" style="stroke: #000000; stroke-width: 0.8"/>
      </defs>
      <g>
       <use xlink:href="#m02fd311e1a" x="49.48" y="146.976365" style="stroke: #000000; stroke-width: 0.8"/>
      </g>
     </g>
     <g id="text_9">
      <!-- 11000 -->
      <g transform="translate(10.6675 150.775584) scale(0.1 -0.1)">
       <use xlink:href="#DejaVuSans-31"/>
       <use xlink:href="#DejaVuSans-31" x="63.623047"/>
       <use xlink:href="#DejaVuSans-30" x="127.246094"/>
       <use xlink:href="#DejaVuSans-30" x="190.869141"/>
       <use xlink:href="#DejaVuSans-30" x="254.492188"/>
      </g>
     </g>
    </g>
    <g id="ytick_2">
     <g id="line2d_10">
      <g>
       <use xlink:href="#m02fd311e1a" x="49.48" y="124.504265" style="stroke: #000000; stroke-width: 0.8"/>
      </g>
     </g>
     <g id="text_10">
      <!-- 12000 -->
      <g transform="translate(10.6675 128.303483) scale(0.1 -0.1)">
       <use xlink:href="#DejaVuSans-31"/>
       <use xlink:href="#DejaVuSans-32" x="63.623047"/>
       <use xlink:href="#DejaVuSans-30" x="127.246094"/>
       <use xlink:href="#DejaVuSans-30" x="190.869141"/>
       <use xlink:href="#DejaVuSans-30" x="254.492188"/>
      </g>
     </g>
    </g>
    <g id="ytick_3">
     <g id="line2d_11">
      <g>
       <use xlink:href="#m02fd311e1a" x="49.48" y="102.032164" style="stroke: #000000; stroke-width: 0.8"/>
      </g>
     </g>
     <g id="text_11">
      <!-- 13000 -->
      <g transform="translate(10.6675 105.831383) scale(0.1 -0.1)">
       <defs>
        <path id="DejaVuSans-33" d="M 2597 2516 
Q 3050 2419 3304 2112 
Q 3559 1806 3559 1356 
Q 3559 666 3084 287 
Q 2609 -91 1734 -91 
Q 1441 -91 1130 -33 
Q 819 25 488 141 
L 488 750 
Q 750 597 1062 519 
Q 1375 441 1716 441 
Q 2309 441 2620 675 
Q 2931 909 2931 1356 
Q 2931 1769 2642 2001 
Q 2353 2234 1838 2234 
L 1294 2234 
L 1294 2753 
L 1863 2753 
Q 2328 2753 2575 2939 
Q 2822 3125 2822 3475 
Q 2822 3834 2567 4026 
Q 2313 4219 1838 4219 
Q 1578 4219 1281 4162 
Q 984 4106 628 3988 
L 628 4550 
Q 988 4650 1302 4700 
Q 1616 4750 1894 4750 
Q 2613 4750 3031 4423 
Q 3450 4097 3450 3541 
Q 3450 3153 3228 2886 
Q 3006 2619 2597 2516 
z
" transform="scale(0.015625)"/>
       </defs>
       <use xlink:href="#DejaVuSans-31"/>
       <use xlink:href="#DejaVuSans-33" x="63.623047"/>
       <use xlink:href="#DejaVuSans-30" x="127.246094"/>
       <use xlink:href="#DejaVuSans-30" x="190.869141"/>
       <use xlink:href="#DejaVuSans-30" x="254.492188"/>
      </g>
     </g>
    </g>
    <g id="ytick_4">
     <g id="line2d_12">
      <g>
       <use xlink:href="#m02fd311e1a" x="49.48" y="79.560064" style="stroke: #000000; stroke-width: 0.8"/>
      </g>
     </g>
     <g id="text_12">
      <!-- 14000 -->
      <g transform="translate(10.6675 83.359282) scale(0.1 -0.1)">
       <use xlink:href="#DejaVuSans-31"/>
       <use xlink:href="#DejaVuSans-34" x="63.623047"/>
       <use xlink:href="#DejaVuSans-30" x="127.246094"/>
       <use xlink:href="#DejaVuSans-30" x="190.869141"/>
       <use xlink:href="#DejaVuSans-30" x="254.492188"/>
      </g>
     </g>
    </g>
    <g id="ytick_5">
     <g id="line2d_13">
      <g>
       <use xlink:href="#m02fd311e1a" x="49.48" y="57.087963" style="stroke: #000000; stroke-width: 0.8"/>
      </g>
     </g>
     <g id="text_13">
      <!-- 15000 -->
      <g transform="translate(10.6675 60.887182) scale(0.1 -0.1)">
       <defs>
        <path id="DejaVuSans-35" d="M 691 4666 
L 3169 4666 
L 3169 4134 
L 1269 4134 
L 1269 2991 
Q 1406 3038 1543 3061 
Q 1681 3084 1819 3084 
Q 2600 3084 3056 2656 
Q 3513 2228 3513 1497 
Q 3513 744 3044 326 
Q 2575 -91 1722 -91 
Q 1428 -91 1123 -41 
Q 819 9 494 109 
L 494 744 
Q 775 591 1075 516 
Q 1375 441 1709 441 
Q 2250 441 2565 725 
Q 2881 1009 2881 1497 
Q 2881 1984 2565 2268 
Q 2250 2553 1709 2553 
Q 1456 2553 1204 2497 
Q 953 2441 691 2322 
L 691 4666 
z
" transform="scale(0.015625)"/>
       </defs>
       <use xlink:href="#DejaVuSans-31"/>
       <use xlink:href="#DejaVuSans-35" x="63.623047"/>
       <use xlink:href="#DejaVuSans-30" x="127.246094"/>
       <use xlink:href="#DejaVuSans-30" x="190.869141"/>
       <use xlink:href="#DejaVuSans-30" x="254.492188"/>
      </g>
     </g>
    </g>
    <g id="ytick_6">
     <g id="line2d_14">
      <g>
       <use xlink:href="#m02fd311e1a" x="49.48" y="34.615863" style="stroke: #000000; stroke-width: 0.8"/>
      </g>
     </g>
     <g id="text_14">
      <!-- 16000 -->
      <g transform="translate(10.6675 38.415081) scale(0.1 -0.1)">
       <defs>
        <path id="DejaVuSans-36" d="M 2113 2584 
Q 1688 2584 1439 2293 
Q 1191 2003 1191 1497 
Q 1191 994 1439 701 
Q 1688 409 2113 409 
Q 2538 409 2786 701 
Q 3034 994 3034 1497 
Q 3034 2003 2786 2293 
Q 2538 2584 2113 2584 
z
M 3366 4563 
L 3366 3988 
Q 3128 4100 2886 4159 
Q 2644 4219 2406 4219 
Q 1781 4219 1451 3797 
Q 1122 3375 1075 2522 
Q 1259 2794 1537 2939 
Q 1816 3084 2150 3084 
Q 2853 3084 3261 2657 
Q 3669 2231 3669 1497 
Q 3669 778 3244 343 
Q 2819 -91 2113 -91 
Q 1303 -91 875 529 
Q 447 1150 447 2328 
Q 447 3434 972 4092 
Q 1497 4750 2381 4750 
Q 2619 4750 2861 4703 
Q 3103 4656 3366 4563 
z
" transform="scale(0.015625)"/>
       </defs>
       <use xlink:href="#DejaVuSans-31"/>
       <use xlink:href="#DejaVuSans-36" x="63.623047"/>
       <use xlink:href="#DejaVuSans-30" x="127.246094"/>
       <use xlink:href="#DejaVuSans-30" x="190.869141"/>
       <use xlink:href="#DejaVuSans-30" x="254.492188"/>
      </g>
     </g>
    </g>
   </g>
   <g id="line2d_15">
    <path d="M 282.836331 151.263357 
L 283.254903 150.83371 
L 283.673475 144.748248 
L 284.092046 154.92925 
L 284.510618 151.507873 
L 286.184905 145.419053 
L 286.603476 145.783544 
L 287.022048 141.758559 
L 287.44062 133.321865 
L 288.696335 135.188629 
L 289.114906 142.896779 
L 289.533478 142.978811 
L 289.95205 146.330512 
L 290.370622 144.103316 
L 292.044908 139.73495 
L 292.46348 138.844844 
L 292.882052 133.013334 
L 293.300623 132.699625 
L 294.556338 138.603269 
L 294.97491 141.027316 
L 295.393482 141.412721 
L 295.812053 141.331589 
L 296.230625 136.809539 
L 297.48634 138.88529 
L 297.904912 130.950378 
L 298.323484 126.804275 
L 298.742055 123.164695 
L 299.160627 128.232154 
L 300.416342 129.388128 
L 300.834914 134.334229 
L 301.253485 123.775721 
L 301.672057 120.850529 
L 302.090629 115.72463 
L 303.346344 116.212499 
L 303.764915 116.6669 
L 304.183487 109.489303 
L 304.602059 108.311317 
L 305.020631 109.727739 
L 306.276346 110.021896 
L 306.694917 113.404627 
L 307.113489 105.295118 
L 307.532061 106.978045 
L 307.950632 100.971696 
L 309.206347 99.154616 
L 309.624919 99.727655 
L 310.043491 103.422735 
L 310.462062 102.811051 
L 310.880634 108.656496 
L 312.136349 115.929578 
L 312.554921 115.935657 
L 312.973493 114.806873 
L 313.392064 110.138536 
L 313.810636 121.319744 
L 315.066351 124.107184 
L 315.484923 127.130362 
L 315.903494 128.634632 
L 316.322066 129.332848 
L 316.740638 132.799608 
L 318.414924 134.731089 
L 318.833496 129.1807 
L 319.252068 127.602496 
L 319.67064 121.980433 
L 320.926355 118.517469 
L 321.344926 132.73871 
L 321.763498 130.803651 
L 322.18207 134.563668 
L 322.600641 136.899867 
L 323.856356 134.953353 
L 324.274928 137.424603 
L 324.6935 142.028224 
L 325.112071 145.475014 
L 325.530643 149.944263 
L 326.786358 151.405169 
L 327.20493 150.807858 
L 327.623502 145.815914 
L 328.042073 152.875072 
L 328.460645 156.513073 
L 329.71636 151.124048 
L 330.134932 143.012059 
L 330.553503 143.63612 
L 330.972075 145.328945 
L 331.390647 154.787659 
L 332.646362 157.266349 
L 333.064934 159.871072 
L 333.483505 160.075361 
L 333.902077 154.860693 
L 334.320649 162.226165 
L 335.576364 154.261825 
" clip-path="url(#p2aefd67fac)" style="fill: none; stroke: #d3d3d3; stroke-linecap: square"/>
   </g>
   <g id="line2d_16">
    <path d="M 63.103636 108.808622 
L 63.522208 106.100514 
L 63.94078 107.857157 
L 64.359351 100.515736 
L 64.777923 97.493239 
L 66.033638 101.213513 
L 66.45221 100.404517 
L 66.870782 99.134382 
L 67.289353 99.500915 
L 67.707925 102.065872 
L 69.382212 97.601122 
L 69.800783 91.756796 
L 70.219355 90.101498 
L 70.637927 89.828475 
L 71.893642 87.740128 
L 72.312213 87.963291 
L 72.730785 95.951223 
L 73.149357 94.455467 
L 73.567929 100.443602 
L 74.823644 92.967151 
L 75.242215 88.261704 
L 75.660787 88.312047 
L 76.079359 84.554707 
L 76.49793 82.789309 
L 77.753645 79.837827 
L 78.172217 79.387024 
L 78.590789 80.177366 
L 79.00936 78.980968 
L 79.427932 77.414658 
L 81.102219 78.492639 
L 81.939362 82.585699 
L 82.357934 82.381212 
L 83.613649 90.053415 
L 84.032221 91.578139 
L 84.450792 88.594528 
L 84.869364 99.348328 
L 85.287936 97.709664 
L 86.543651 88.799915 
L 86.962222 93.969398 
L 87.799366 108.24638 
L 88.217938 103.826553 
L 89.473653 110.815156 
L 89.892224 100.373267 
L 90.310796 100.485408 
L 90.729368 93.073214 
L 91.147939 94.84423 
L 92.386214 91.701516 
L 92.804786 91.434989 
L 93.223357 90.229813 
L 93.641929 99.421582 
L 94.060501 97.195264 
L 95.316216 93.548046 
L 95.734787 96.915263 
L 96.153359 102.888584 
L 96.571931 102.533749 
L 96.990502 98.914599 
L 98.246218 100.691695 
L 98.664789 101.012163 
L 99.501933 91.243076 
L 101.176219 86.176078 
L 102.013363 86.552486 
L 102.431934 83.395836 
L 102.850506 81.802994 
L 104.106221 82.930879 
L 104.524793 79.647714 
L 104.943365 82.754701 
L 105.361936 78.68905 
L 105.780508 78.383877 
L 107.036223 81.475371 
L 107.454795 84.363036 
L 107.873366 80.678731 
L 108.291938 83.640769 
L 108.71051 79.182317 
L 109.966225 76.441379 
L 110.803368 78.413306 
L 111.22194 77.704996 
L 111.640511 80.398729 
L 112.896227 81.916935 
L 113.314798 87.796089 
L 113.73337 88.943965 
L 114.151942 87.810924 
L 114.570513 85.127746 
L 115.826228 93.001518 
L 116.2448 93.280861 
L 116.663372 101.320255 
L 117.081943 99.223371 
L 117.500515 92.3696 
L 118.75623 93.514119 
L 119.174802 95.208744 
L 119.593374 95.296372 
L 120.011945 89.992956 
L 120.430517 91.448024 
L 121.686232 87.174287 
L 122.104804 87.264176 
L 122.523375 85.447754 
L 122.941947 85.4864 
L 123.360519 85.206398 
L 125.034805 85.481901 
L 125.453377 85.035839 
L 125.871949 88.222839 
L 126.290521 83.728858 
L 127.546236 82.21807 
L 127.964807 81.24749 
L 128.383379 81.543227 
L 128.801951 79.103204 
L 129.220522 78.000052 
L 130.476237 75.64678 
L 130.894809 77.922739 
L 131.313381 78.668378 
L 131.731952 75.934199 
L 132.150524 78.877364 
L 133.406239 76.3807 
L 133.824811 73.868565 
L 134.243383 73.453709 
L 134.661954 71.251904 
L 135.080526 71.461351 
L 136.336241 68.312558 
L 136.754813 67.687377 
L 137.173384 68.235244 
L 137.591956 67.82109 
L 138.010528 65.192974 
L 140.103386 64.614778 
L 140.521958 66.980625 
L 140.94053 63.786449 
L 142.196245 63.082615 
L 142.614816 64.331836 
L 143.033388 65.066678 
L 143.870531 69.959078 
L 145.126246 73.380675 
L 145.544818 68.349185 
L 145.96339 65.358815 
L 146.381961 64.175672 
L 146.800533 60.751135 
L 148.056248 60.667545 
L 148.47482 64.715442 
L 148.893392 62.423287 
L 149.311963 62.070932 
L 149.730535 64.443538 
L 150.98625 64.254983 
L 151.404822 62.452277 
L 151.823393 62.019909 
L 152.241965 59.444834 
L 152.660537 60.778786 
L 153.916252 60.230019 
L 154.334823 61.850029 
L 154.753395 62.365769 
L 155.171967 61.216992 
L 155.590539 61.067763 
L 156.846254 61.722614 
L 157.683397 67.741758 
L 158.101969 67.384903 
L 158.52054 63.500149 
L 160.194827 56.64302 
L 160.613399 56.147273 
L 161.03197 58.305736 
L 161.450542 54.177826 
L 162.706257 51.112864 
L 163.124829 51.262291 
L 163.543401 50.135547 
L 163.961972 49.64566 
L 164.380544 48.918916 
L 166.054831 48.67598 
L 166.473402 50.646568 
L 166.891974 51.509264 
L 167.310546 54.492655 
L 168.566261 54.715357 
L 168.984833 56.239422 
L 169.403404 53.458039 
L 169.821976 52.99984 
L 170.240548 56.099871 
L 171.496263 63.517222 
L 171.914834 62.786879 
L 172.751978 55.914015 
L 173.170549 56.01604 
L 174.426264 57.762806 
L 174.844836 67.275023 
L 175.263408 68.044451 
L 175.681979 69.479527 
L 176.100551 66.82512 
L 177.356266 73.818881 
L 177.774838 69.810991 
L 178.19341 68.281088 
L 178.611981 64.862871 
L 179.030553 66.536582 
L 180.286268 68.634124 
L 180.70484 69.089864 
L 181.123411 66.71412 
L 181.541983 61.055869 
L 181.960555 59.394952 
L 183.21627 56.597856 
L 183.634842 54.187043 
L 184.053413 54.353565 
L 184.471985 52.240727 
L 184.890557 55.060975 
L 186.146272 51.993314 
L 186.564843 51.791065 
L 186.983415 51.788146 
L 187.401987 47.017763 
L 187.820558 45.888101 
L 189.076273 43.696391 
L 189.494845 42.490095 
L 190.331989 35.957232 
L 190.75056 35.254298 
L 192.023716 35.012263 
L 192.442287 37.165546 
L 192.860859 43.094362 
L 193.279431 41.261306 
L 193.698002 37.740384 
L 194.953718 37.900169 
L 195.372289 35.203275 
L 195.790861 36.378342 
L 196.628004 33.325055 
L 198.302291 39.668947 
L 198.720863 38.093859 
L 199.558006 46.039327 
L 200.813721 39.496127 
L 201.650865 51.37893 
L 202.069436 48.518895 
L 202.488008 55.167279 
L 203.743723 52.028361 
L 204.162295 41.65143 
L 204.580866 39.402639 
L 204.999438 45.46157 
L 205.41801 42.917065 
L 206.673725 47.800687 
L 207.092296 51.747701 
L 207.510868 44.378191 
L 207.92944 53.033329 
L 208.348011 53.274904 
L 209.603727 57.516272 
L 210.022298 49.422958 
L 210.44087 45.360006 
L 210.859442 42.405364 
L 212.533728 37.508926 
L 212.9523 39.521079 
L 213.370872 39.869396 
L 213.789443 40.423562 
L 214.208015 42.594139 
L 215.46373 38.373202 
L 215.882302 43.094143 
L 216.300874 54.836935 
L 216.719445 55.270861 
L 217.138017 58.528416 
L 218.393732 58.372691 
L 218.812304 53.639615 
L 219.230875 52.854452 
L 219.649447 61.429358 
L 220.068019 59.475624 
L 221.742305 68.168947 
L 222.579449 76.098921 
L 222.998021 84.752918 
L 224.253736 82.8156 
L 224.672307 89.913184 
L 225.090879 89.849586 
L 225.509451 94.10445 
L 225.928022 84.715831 
L 227.183737 74.169459 
L 227.602309 71.784717 
L 228.020881 70.176842 
L 228.439452 82.283226 
L 228.858024 77.357578 
L 230.113739 79.207928 
L 230.532311 75.190359 
L 230.950883 68.540417 
L 231.369454 75.388351 
L 231.788026 84.253353 
L 233.043741 84.258532 
L 233.462313 76.419368 
L 233.880884 76.771504 
L 234.299456 85.925966 
L 234.718028 89.715873 
L 236.392314 93.458619 
L 236.810886 101.18968 
L 237.229458 91.389606 
L 237.64803 86.422591 
L 238.903745 85.146619 
L 239.322316 90.06667 
L 239.740888 85.132706 
L 240.578031 94.988499 
L 241.833746 105.830849 
L 242.252318 106.62659 
L 242.67089 96.289423 
L 243.089461 99.111691 
L 243.508033 105.542091 
L 244.746308 111.443037 
L 245.164879 103.186778 
L 245.583451 92.221973 
L 246.002023 88.21676 
L 246.420594 81.945705 
L 247.67631 83.190208 
L 248.094881 77.114643 
L 248.513453 81.299413 
L 248.932025 75.249019 
L 249.350596 75.755541 
L 250.606311 71.584706 
L 251.024883 65.635459 
L 251.862026 74.604527 
L 252.280598 73.683609 
L 253.536313 67.592551 
L 254.373457 82.058505 
L 254.792028 81.867953 
L 255.2106 86.054501 
L 256.466315 92.774559 
L 256.884887 93.682199 
L 257.303458 87.569349 
L 257.72203 94.142657 
L 259.396317 94.563329 
L 259.814888 88.107099 
L 260.23346 91.850723 
L 261.070603 105.643655 
L 262.326319 101.923183 
L 262.74489 113.476301 
L 263.163462 113.516988 
L 263.582034 104.919149 
L 264.000605 116.984209 
L 265.25632 112.45878 
L 265.674892 111.835399 
L 266.093464 102.821826 
L 266.512035 117.365093 
L 268.186322 132.970629 
L 268.604894 130.399373 
L 269.023466 138.791122 
L 269.442037 138.640116 
L 269.860609 128.886324 
L 271.116324 132.082081 
L 271.534896 124.852143 
L 271.953467 137.579648 
L 272.790611 139.007306 
L 274.046326 134.947735 
L 274.464897 141.033614 
L 274.883469 137.206839 
L 275.302041 130.332395 
L 275.720613 121.557501 
L 277.394899 122.675268 
L 277.813471 124.628761 
L 278.232043 117.382847 
L 278.650614 124.218184 
L 279.906329 123.125149 
L 280.324901 120.566468 
L 280.743473 122.565607 
L 281.580616 139.335412 
L 282.836331 151.263357 
L 282.836331 151.263357 
" clip-path="url(#p2aefd67fac)" style="fill: none; stroke: #000000; stroke-linecap: square"/>
   </g>
   <g id="patch_3">
    <path d="M 49.48 168.671221 
L 49.48 26.88 
" style="fill: none; stroke: #000000; stroke-width: 0.8; stroke-linejoin: miter; stroke-linecap: square"/>
   </g>
   <g id="patch_4">
    <path d="M 349.2 168.671221 
L 349.2 26.88 
" style="fill: none; stroke: #000000; stroke-width: 0.8; stroke-linejoin: miter; stroke-linecap: square"/>
   </g>
   <g id="patch_5">
    <path d="M 49.48 168.671221 
L 349.2 168.671221 
" style="fill: none; stroke: #000000; stroke-width: 0.8; stroke-linejoin: miter; stroke-linecap: square"/>
   </g>
   <g id="patch_6">
    <path d="M 49.48 26.88 
L 349.2 26.88 
" style="fill: none; stroke: #000000; stroke-width: 0.8; stroke-linejoin: miter; stroke-linecap: square"/>
   </g>
   <g id="text_15">
    <!-- NASDAQ -->
    <g transform="translate(173.700312 20.88) scale(0.12 -0.12)">
     <defs>
      <path id="DejaVuSans-4e" d="M 628 4666 
L 1478 4666 
L 3547 763 
L 3547 4666 
L 4159 4666 
L 4159 0 
L 3309 0 
L 1241 3903 
L 1241 0 
L 628 0 
L 628 4666 
z
" transform="scale(0.015625)"/>
      <path id="DejaVuSans-41" d="M 2188 4044 
L 1331 1722 
L 3047 1722 
L 2188 4044 
z
M 1831 4666 
L 2547 4666 
L 4325 0 
L 3669 0 
L 3244 1197 
L 1141 1197 
L 716 0 
L 50 0 
L 1831 4666 
z
" transform="scale(0.015625)"/>
      <path id="DejaVuSans-53" d="M 3425 4513 
L 3425 3897 
Q 3066 4069 2747 4153 
Q 2428 4238 2131 4238 
Q 1616 4238 1336 4038 
Q 1056 3838 1056 3469 
Q 1056 3159 1242 3001 
Q 1428 2844 1947 2747 
L 2328 2669 
Q 3034 2534 3370 2195 
Q 3706 1856 3706 1288 
Q 3706 609 3251 259 
Q 2797 -91 1919 -91 
Q 1588 -91 1214 -16 
Q 841 59 441 206 
L 441 856 
Q 825 641 1194 531 
Q 1563 422 1919 422 
Q 2459 422 2753 634 
Q 3047 847 3047 1241 
Q 3047 1584 2836 1778 
Q 2625 1972 2144 2069 
L 1759 2144 
Q 1053 2284 737 2584 
Q 422 2884 422 3419 
Q 422 4038 858 4394 
Q 1294 4750 2059 4750 
Q 2388 4750 2728 4690 
Q 3069 4631 3425 4513 
z
" transform="scale(0.015625)"/>
      <path id="DejaVuSans-44" d="M 1259 4147 
L 1259 519 
L 2022 519 
Q 2988 519 3436 956 
Q 3884 1394 3884 2338 
Q 3884 3275 3436 3711 
Q 2988 4147 2022 4147 
L 1259 4147 
z
M 628 4666 
L 1925 4666 
Q 3281 4666 3915 4102 
Q 4550 3538 4550 2338 
Q 4550 1131 3912 565 
Q 3275 0 1925 0 
L 628 0 
L 628 4666 
z
" transform="scale(0.015625)"/>
      <path id="DejaVuSans-51" d="M 2522 4238 
Q 1834 4238 1429 3725 
Q 1025 3213 1025 2328 
Q 1025 1447 1429 934 
Q 1834 422 2522 422 
Q 3209 422 3611 934 
Q 4013 1447 4013 2328 
Q 4013 3213 3611 3725 
Q 3209 4238 2522 4238 
z
M 3406 84 
L 4238 -825 
L 3475 -825 
L 2784 -78 
Q 2681 -84 2626 -87 
Q 2572 -91 2522 -91 
Q 1538 -91 948 567 
Q 359 1225 359 2328 
Q 359 3434 948 4092 
Q 1538 4750 2522 4750 
Q 3503 4750 4090 4092 
Q 4678 3434 4678 2328 
Q 4678 1516 4351 937 
Q 4025 359 3406 84 
z
" transform="scale(0.015625)"/>
     </defs>
     <use xlink:href="#DejaVuSans-4e"/>
     <use xlink:href="#DejaVuSans-41" x="74.804688"/>
     <use xlink:href="#DejaVuSans-53" x="143.212891"/>
     <use xlink:href="#DejaVuSans-44" x="206.689453"/>
     <use xlink:href="#DejaVuSans-41" x="281.941406"/>
     <use xlink:href="#DejaVuSans-51" x="348.599609"/>
    </g>
   </g>
  </g>
 </g>
 <defs>
  <clipPath id="p2aefd67fac">
   <rect x="49.48" y="26.88" width="299.72" height="141.791221"/>
  </clipPath>
 </defs>
</svg>
