<?xml version="1.0" encoding="utf-8" standalone="no"?>
<!DOCTYPE svg PUBLIC "-//W3C//DTD SVG 1.1//EN"
  "http://www.w3.org/Graphics/SVG/1.1/DTD/svg11.dtd">
<svg xmlns:xlink="http://www.w3.org/1999/xlink" width="360pt" height="216pt" viewBox="0 0 360 216" xmlns="http://www.w3.org/2000/svg" version="1.1">
 <metadata>
  <rdf:RDF xmlns:dc="http://purl.org/dc/elements/1.1/" xmlns:cc="http://creativecommons.org/ns#" xmlns:rdf="http://www.w3.org/1999/02/22-rdf-syntax-ns#">
   <cc:Work>
    <dc:type rdf:resource="http://purl.org/dc/dcmitype/StillImage"/>
    <dc:date>2022-11-15T16:29:33.511075</dc:date>
    <dc:format>image/svg+xml</dc:format>
    <dc:creator>
     <cc:Agent>
      <dc:title>Matplotlib v3.6.1, https://matplotlib.org/</dc:title>
     </cc:Agent>
    </dc:creator>
   </cc:Work>
  </rdf:RDF>
 </metadata>
 <defs>
  <style type="text/css">*{stroke-linejoin: round; stroke-linecap: butt}</style>
 </defs>
 <g id="figure_1">
  <g id="patch_1">
   <path d="M 0 216 
L 360 216 
L 360 0 
L 0 0 
z
" style="fill: #ffffff"/>
  </g>
  <g id="axes_1">
   <g id="patch_2">
    <path d="M 49.48 168.671221 
L 349.2 168.671221 
L 349.2 26.88 
L 49.48 26.88 
z
" style="fill: #ffffff"/>
   </g>
   <g id="matplotlib.axis_1">
    <g id="xtick_1">
     <g id="line2d_1">
      <defs>
       <path id="m874036d674" d="M 0 0 
L 0 3.5 
" style="stroke: #000000; stroke-width: 0.8"/>
      </defs>
      <g>
       <use xlink:href="#m874036d674" x="61.89978" y="168.671221" style="stroke: #000000; stroke-width: 0.8"/>
      </g>
     </g>
     <g id="text_1">
      <!-- '21-01 -->
      <g transform="translate(52.605746 203.534543) rotate(-45) scale(0.1 -0.1)">
       <defs>
        <path id="DejaVuSans-27" d="M 1147 4666 
L 1147 2931 
L 616 2931 
L 616 4666 
L 1147 4666 
z
" transform="scale(0.015625)"/>
        <path id="DejaVuSans-32" d="M 1228 531 
L 3431 531 
L 3431 0 
L 469 0 
L 469 531 
Q 828 903 1448 1529 
Q 2069 2156 2228 2338 
Q 2531 2678 2651 2914 
Q 2772 3150 2772 3378 
Q 2772 3750 2511 3984 
Q 2250 4219 1831 4219 
Q 1534 4219 1204 4116 
Q 875 4013 500 3803 
L 500 4441 
Q 881 4594 1212 4672 
Q 1544 4750 1819 4750 
Q 2544 4750 2975 4387 
Q 3406 4025 3406 3419 
Q 3406 3131 3298 2873 
Q 3191 2616 2906 2266 
Q 2828 2175 2409 1742 
Q 1991 1309 1228 531 
z
" transform="scale(0.015625)"/>
        <path id="DejaVuSans-31" d="M 794 531 
L 1825 531 
L 1825 4091 
L 703 3866 
L 703 4441 
L 1819 4666 
L 2450 4666 
L 2450 531 
L 3481 531 
L 3481 0 
L 794 0 
L 794 531 
z
" transform="scale(0.015625)"/>
        <path id="DejaVuSans-2d" d="M 313 2009 
L 1997 2009 
L 1997 1497 
L 313 1497 
L 313 2009 
z
" transform="scale(0.015625)"/>
        <path id="DejaVuSans-30" d="M 2034 4250 
Q 1547 4250 1301 3770 
Q 1056 3291 1056 2328 
Q 1056 1369 1301 889 
Q 1547 409 2034 409 
Q 2525 409 2770 889 
Q 3016 1369 3016 2328 
Q 3016 3291 2770 3770 
Q 2525 4250 2034 4250 
z
M 2034 4750 
Q 2819 4750 3233 4129 
Q 3647 3509 3647 2328 
Q 3647 1150 3233 529 
Q 2819 -91 2034 -91 
Q 1250 -91 836 529 
Q 422 1150 422 2328 
Q 422 3509 836 4129 
Q 1250 4750 2034 4750 
z
" transform="scale(0.015625)"/>
       </defs>
       <use xlink:href="#DejaVuSans-27"/>
       <use xlink:href="#DejaVuSans-32" x="27.490234"/>
       <use xlink:href="#DejaVuSans-31" x="91.113281"/>
       <use xlink:href="#DejaVuSans-2d" x="154.736328"/>
       <use xlink:href="#DejaVuSans-30" x="190.820312"/>
       <use xlink:href="#DejaVuSans-31" x="254.443359"/>
      </g>
     </g>
    </g>
    <g id="xtick_2">
     <g id="line2d_2">
      <g>
       <use xlink:href="#m874036d674" x="97.998738" y="168.671221" style="stroke: #000000; stroke-width: 0.8"/>
      </g>
     </g>
     <g id="text_2">
      <!-- '21-04 -->
      <g transform="translate(88.704704 203.534543) rotate(-45) scale(0.1 -0.1)">
       <defs>
        <path id="DejaVuSans-34" d="M 2419 4116 
L 825 1625 
L 2419 1625 
L 2419 4116 
z
M 2253 4666 
L 3047 4666 
L 3047 1625 
L 3713 1625 
L 3713 1100 
L 3047 1100 
L 3047 0 
L 2419 0 
L 2419 1100 
L 313 1100 
L 313 1709 
L 2253 4666 
z
" transform="scale(0.015625)"/>
       </defs>
       <use xlink:href="#DejaVuSans-27"/>
       <use xlink:href="#DejaVuSans-32" x="27.490234"/>
       <use xlink:href="#DejaVuSans-31" x="91.113281"/>
       <use xlink:href="#DejaVuSans-2d" x="154.736328"/>
       <use xlink:href="#DejaVuSans-30" x="190.820312"/>
       <use xlink:href="#DejaVuSans-34" x="254.443359"/>
      </g>
     </g>
    </g>
    <g id="xtick_3">
     <g id="line2d_3">
      <g>
       <use xlink:href="#m874036d674" x="134.515702" y="168.671221" style="stroke: #000000; stroke-width: 0.8"/>
      </g>
     </g>
     <g id="text_3">
      <!-- '21-07 -->
      <g transform="translate(125.221667 203.534543) rotate(-45) scale(0.1 -0.1)">
       <defs>
        <path id="DejaVuSans-37" d="M 525 4666 
L 3525 4666 
L 3525 4397 
L 1831 0 
L 1172 0 
L 2766 4134 
L 525 4134 
L 525 4666 
z
" transform="scale(0.015625)"/>
       </defs>
       <use xlink:href="#DejaVuSans-27"/>
       <use xlink:href="#DejaVuSans-32" x="27.490234"/>
       <use xlink:href="#DejaVuSans-31" x="91.113281"/>
       <use xlink:href="#DejaVuSans-2d" x="154.736328"/>
       <use xlink:href="#DejaVuSans-30" x="190.820312"/>
       <use xlink:href="#DejaVuSans-37" x="254.443359"/>
      </g>
     </g>
    </g>
    <g id="xtick_4">
     <g id="line2d_4">
      <g>
       <use xlink:href="#m874036d674" x="171.433951" y="168.671221" style="stroke: #000000; stroke-width: 0.8"/>
      </g>
     </g>
     <g id="text_4">
      <!-- '21-10 -->
      <g transform="translate(162.139916 203.534543) rotate(-45) scale(0.1 -0.1)">
       <use xlink:href="#DejaVuSans-27"/>
       <use xlink:href="#DejaVuSans-32" x="27.490234"/>
       <use xlink:href="#DejaVuSans-31" x="91.113281"/>
       <use xlink:href="#DejaVuSans-2d" x="154.736328"/>
       <use xlink:href="#DejaVuSans-31" x="190.820312"/>
       <use xlink:href="#DejaVuSans-30" x="254.443359"/>
      </g>
     </g>
    </g>
    <g id="xtick_5">
     <g id="line2d_5">
      <g>
       <use xlink:href="#m874036d674" x="208.36892" y="168.671221" style="stroke: #000000; stroke-width: 0.8"/>
      </g>
     </g>
     <g id="text_5">
      <!-- '22-01 -->
      <g transform="translate(199.074885 203.534543) rotate(-45) scale(0.1 -0.1)">
       <use xlink:href="#DejaVuSans-27"/>
       <use xlink:href="#DejaVuSans-32" x="27.490234"/>
       <use xlink:href="#DejaVuSans-32" x="91.113281"/>
       <use xlink:href="#DejaVuSans-2d" x="154.736328"/>
       <use xlink:href="#DejaVuSans-30" x="190.820312"/>
       <use xlink:href="#DejaVuSans-31" x="254.443359"/>
      </g>
     </g>
    </g>
    <g id="xtick_6">
     <g id="line2d_6">
      <g>
       <use xlink:href="#m874036d674" x="244.467877" y="168.671221" style="stroke: #000000; stroke-width: 0.8"/>
      </g>
     </g>
     <g id="text_6">
      <!-- '22-04 -->
      <g transform="translate(235.173843 203.534543) rotate(-45) scale(0.1 -0.1)">
       <use xlink:href="#DejaVuSans-27"/>
       <use xlink:href="#DejaVuSans-32" x="27.490234"/>
       <use xlink:href="#DejaVuSans-32" x="91.113281"/>
       <use xlink:href="#DejaVuSans-2d" x="154.736328"/>
       <use xlink:href="#DejaVuSans-30" x="190.820312"/>
       <use xlink:href="#DejaVuSans-34" x="254.443359"/>
      </g>
     </g>
    </g>
    <g id="xtick_7">
     <g id="line2d_7">
      <g>
       <use xlink:href="#m874036d674" x="280.984841" y="168.671221" style="stroke: #000000; stroke-width: 0.8"/>
      </g>
     </g>
     <g id="text_7">
      <!-- '22-07 -->
      <g transform="translate(271.690806 203.534543) rotate(-45) scale(0.1 -0.1)">
       <use xlink:href="#DejaVuSans-27"/>
       <use xlink:href="#DejaVuSans-32" x="27.490234"/>
       <use xlink:href="#DejaVuSans-32" x="91.113281"/>
       <use xlink:href="#DejaVuSans-2d" x="154.736328"/>
       <use xlink:href="#DejaVuSans-30" x="190.820312"/>
       <use xlink:href="#DejaVuSans-37" x="254.443359"/>
      </g>
     </g>
    </g>
    <g id="xtick_8">
     <g id="line2d_8">
      <g>
       <use xlink:href="#m874036d674" x="317.90309" y="168.671221" style="stroke: #000000; stroke-width: 0.8"/>
      </g>
     </g>
     <g id="text_8">
      <!-- '22-10 -->
      <g transform="translate(308.609055 203.534543) rotate(-45) scale(0.1 -0.1)">
       <use xlink:href="#DejaVuSans-27"/>
       <use xlink:href="#DejaVuSans-32" x="27.490234"/>
       <use xlink:href="#DejaVuSans-32" x="91.113281"/>
       <use xlink:href="#DejaVuSans-2d" x="154.736328"/>
       <use xlink:href="#DejaVuSans-31" x="190.820312"/>
       <use xlink:href="#DejaVuSans-30" x="254.443359"/>
      </g>
     </g>
    </g>
   </g>
   <g id="matplotlib.axis_2">
    <g id="ytick_1">
     <g id="line2d_9">
      <defs>
       <path id="me1640da2cb" d="M 0 0 
L -3.5 0 
" style="stroke: #000000; stroke-width: 0.8"/>
      </defs>
      <g>
       <use xlink:href="#me1640da2cb" x="49.48" y="146.976365" style="stroke: #000000; stroke-width: 0.8"/>
      </g>
     </g>
     <g id="text_9">
      <!-- 11000 -->
      <g transform="translate(10.6675 150.775584) scale(0.1 -0.1)">
       <use xlink:href="#DejaVuSans-31"/>
       <use xlink:href="#DejaVuSans-31" x="63.623047"/>
       <use xlink:href="#DejaVuSans-30" x="127.246094"/>
       <use xlink:href="#DejaVuSans-30" x="190.869141"/>
       <use xlink:href="#DejaVuSans-30" x="254.492188"/>
      </g>
     </g>
    </g>
    <g id="ytick_2">
     <g id="line2d_10">
      <g>
       <use xlink:href="#me1640da2cb" x="49.48" y="124.504265" style="stroke: #000000; stroke-width: 0.8"/>
      </g>
     </g>
     <g id="text_10">
      <!-- 12000 -->
      <g transform="translate(10.6675 128.303483) scale(0.1 -0.1)">
       <use xlink:href="#DejaVuSans-31"/>
       <use xlink:href="#DejaVuSans-32" x="63.623047"/>
       <use xlink:href="#DejaVuSans-30" x="127.246094"/>
       <use xlink:href="#DejaVuSans-30" x="190.869141"/>
       <use xlink:href="#DejaVuSans-30" x="254.492188"/>
      </g>
     </g>
    </g>
    <g id="ytick_3">
     <g id="line2d_11">
      <g>
       <use xlink:href="#me1640da2cb" x="49.48" y="102.032164" style="stroke: #000000; stroke-width: 0.8"/>
      </g>
     </g>
     <g id="text_11">
      <!-- 13000 -->
      <g transform="translate(10.6675 105.831383) scale(0.1 -0.1)">
       <defs>
        <path id="DejaVuSans-33" d="M 2597 2516 
Q 3050 2419 3304 2112 
Q 3559 1806 3559 1356 
Q 3559 666 3084 287 
Q 2609 -91 1734 -91 
Q 1441 -91 1130 -33 
Q 819 25 488 141 
L 488 750 
Q 750 597 1062 519 
Q 1375 441 1716 441 
Q 2309 441 2620 675 
Q 2931 909 2931 1356 
Q 2931 1769 2642 2001 
Q 2353 2234 1838 2234 
L 1294 2234 
L 1294 2753 
L 1863 2753 
Q 2328 2753 2575 2939 
Q 2822 3125 2822 3475 
Q 2822 3834 2567 4026 
Q 2313 4219 1838 4219 
Q 1578 4219 1281 4162 
Q 984 4106 628 3988 
L 628 4550 
Q 988 4650 1302 4700 
Q 1616 4750 1894 4750 
Q 2613 4750 3031 4423 
Q 3450 4097 3450 3541 
Q 3450 3153 3228 2886 
Q 3006 2619 2597 2516 
z
" transform="scale(0.015625)"/>
       </defs>
       <use xlink:href="#DejaVuSans-31"/>
       <use xlink:href="#DejaVuSans-33" x="63.623047"/>
       <use xlink:href="#DejaVuSans-30" x="127.246094"/>
       <use xlink:href="#DejaVuSans-30" x="190.869141"/>
       <use xlink:href="#DejaVuSans-30" x="254.492188"/>
      </g>
     </g>
    </g>
    <g id="ytick_4">
     <g id="line2d_12">
      <g>
       <use xlink:href="#me1640da2cb" x="49.48" y="79.560064" style="stroke: #000000; stroke-width: 0.8"/>
      </g>
     </g>
     <g id="text_12">
      <!-- 14000 -->
      <g transform="translate(10.6675 83.359282) scale(0.1 -0.1)">
       <use xlink:href="#DejaVuSans-31"/>
       <use xlink:href="#DejaVuSans-34" x="63.623047"/>
       <use xlink:href="#DejaVuSans-30" x="127.246094"/>
       <use xlink:href="#DejaVuSans-30" x="190.869141"/>
       <use xlink:href="#DejaVuSans-30" x="254.492188"/>
      </g>
     </g>
    </g>
    <g id="ytick_5">
     <g id="line2d_13">
      <g>
       <use xlink:href="#me1640da2cb" x="49.48" y="57.087963" style="stroke: #000000; stroke-width: 0.8"/>
      </g>
     </g>
     <g id="text_13">
      <!-- 15000 -->
      <g transform="translate(10.6675 60.887182) scale(0.1 -0.1)">
       <defs>
        <path id="DejaVuSans-35" d="M 691 4666 
L 3169 4666 
L 3169 4134 
L 1269 4134 
L 1269 2991 
Q 1406 3038 1543 3061 
Q 1681 3084 1819 3084 
Q 2600 3084 3056 2656 
Q 3513 2228 3513 1497 
Q 3513 744 3044 326 
Q 2575 -91 1722 -91 
Q 1428 -91 1123 -41 
Q 819 9 494 109 
L 494 744 
Q 775 591 1075 516 
Q 1375 441 1709 441 
Q 2250 441 2565 725 
Q 2881 1009 2881 1497 
Q 2881 1984 2565 2268 
Q 2250 2553 1709 2553 
Q 1456 2553 1204 2497 
Q 953 2441 691 2322 
L 691 4666 
z
" transform="scale(0.015625)"/>
       </defs>
       <use xlink:href="#DejaVuSans-31"/>
       <use xlink:href="#DejaVuSans-35" x="63.623047"/>
       <use xlink:href="#DejaVuSans-30" x="127.246094"/>
       <use xlink:href="#DejaVuSans-30" x="190.869141"/>
       <use xlink:href="#DejaVuSans-30" x="254.492188"/>
      </g>
     </g>
    </g>
    <g id="ytick_6">
     <g id="line2d_14">
      <g>
       <use xlink:href="#me1640da2cb" x="49.48" y="34.615863" style="stroke: #000000; stroke-width: 0.8"/>
      </g>
     </g>
     <g id="text_14">
      <!-- 16000 -->
      <g transform="translate(10.6675 38.415081) scale(0.1 -0.1)">
       <defs>
        <path id="DejaVuSans-36" d="M 2113 2584 
Q 1688 2584 1439 2293 
Q 1191 2003 1191 1497 
Q 1191 994 1439 701 
Q 1688 409 2113 409 
Q 2538 409 2786 701 
Q 3034 994 3034 1497 
Q 3034 2003 2786 2293 
Q 2538 2584 2113 2584 
z
M 3366 4563 
L 3366 3988 
Q 3128 4100 2886 4159 
Q 2644 4219 2406 4219 
Q 1781 4219 1451 3797 
Q 1122 3375 1075 2522 
Q 1259 2794 1537 2939 
Q 1816 3084 2150 3084 
Q 2853 3084 3261 2657 
Q 3669 2231 3669 1497 
Q 3669 778 3244 343 
Q 2819 -91 2113 -91 
Q 1303 -91 875 529 
Q 447 1150 447 2328 
Q 447 3434 972 4092 
Q 1497 4750 2381 4750 
Q 2619 4750 2861 4703 
Q 3103 4656 3366 4563 
z
" transform="scale(0.015625)"/>
       </defs>
       <use xlink:href="#DejaVuSans-31"/>
       <use xlink:href="#DejaVuSans-36" x="63.623047"/>
       <use xlink:href="#DejaVuSans-30" x="127.246094"/>
       <use xlink:href="#DejaVuSans-30" x="190.869141"/>
       <use xlink:href="#DejaVuSans-30" x="254.492188"/>
      </g>
     </g>
    </g>
   </g>
   <g id="line2d_15">
    <path d="M 272.557849 139.335412 
L 273.761705 151.263357 
L 274.162991 150.83371 
L 274.564276 144.748248 
L 274.965561 154.92925 
L 275.366847 151.507873 
L 276.971988 145.419053 
L 277.373273 145.783544 
L 277.774558 141.758559 
L 278.175844 133.321865 
L 279.3797 135.188629 
L 279.780985 142.896779 
L 280.18227 142.978811 
L 280.583556 146.330512 
L 280.984841 144.103316 
L 282.589982 139.73495 
L 282.991267 138.844844 
L 283.392553 133.013334 
L 283.793838 132.699625 
L 284.997694 138.603269 
L 285.398979 141.027316 
L 285.800265 141.412721 
L 286.20155 141.331589 
L 286.602835 136.809539 
L 287.806691 138.88529 
L 288.207977 130.950378 
L 288.609262 126.804275 
L 289.010547 123.164695 
L 289.411832 128.232154 
L 290.615688 129.388128 
L 291.016974 134.334229 
L 291.418259 123.775721 
L 291.819544 120.850529 
L 292.22083 115.72463 
L 293.424686 116.212499 
L 293.825971 116.6669 
L 294.227256 109.489303 
L 294.628542 108.311317 
L 295.029827 109.727739 
L 296.233683 110.021896 
L 296.634968 113.404627 
L 297.036253 105.295118 
L 297.437539 106.978045 
L 297.838824 100.971696 
L 299.04268 99.154616 
L 299.443965 99.727655 
L 299.845251 103.422735 
L 300.246536 102.811051 
L 300.647821 108.656496 
L 301.851677 115.929578 
L 302.252962 115.935657 
L 302.654248 114.806873 
L 303.055533 110.138536 
L 303.456818 121.319744 
L 304.660674 124.107184 
L 305.06196 127.130362 
L 305.463245 128.634632 
L 305.86453 129.332848 
L 306.265816 132.799608 
L 307.870957 134.731089 
L 308.272242 129.1807 
L 308.673527 127.602496 
L 309.074813 121.980433 
L 310.278669 118.517469 
L 310.679954 132.73871 
L 311.081239 130.803651 
L 311.482525 134.563668 
L 311.88381 136.899867 
L 313.087666 134.953353 
L 313.488951 137.424603 
L 313.890237 142.028224 
L 314.291522 145.475014 
L 314.692807 149.944263 
L 315.896663 151.405169 
L 316.297948 150.807858 
L 316.699234 145.815914 
L 317.100519 152.875072 
L 317.501804 156.513073 
L 318.70566 151.124048 
L 319.106946 143.012059 
L 319.508231 143.63612 
L 319.909516 145.328945 
L 320.310802 154.787659 
L 321.514657 157.266349 
L 321.915943 159.871072 
L 322.317228 160.075361 
L 322.718513 154.860693 
L 323.119799 162.226165 
L 324.323655 154.261825 
L 324.72494 152.091007 
L 325.126225 154.155982 
L 325.527511 155.631723 
L 325.928796 150.128758 
L 327.132652 148.04131 
L 327.533937 142.501718 
L 327.935222 147.628276 
L 328.336508 151.635508 
L 328.737793 144.674094 
L 329.941649 147.242651 
L 330.342934 149.429204 
L 330.74422 157.655112 
L 331.145505 161.741874 
L 331.54679 158.7686 
L 332.767366 156.762526 
L 333.168652 155.601153 
L 333.569937 161.511996 
L 333.971222 144.411166 
L 334.372508 139.710459 
L 335.576364 142.566896 
" clip-path="url(#pbde8baa7e0)" style="fill: none; stroke: #d3d3d3; stroke-linecap: square"/>
   </g>
   <g id="line2d_16">
    <path d="M 63.103636 108.808622 
L 63.504922 106.100514 
L 63.906207 107.857157 
L 64.307492 100.515736 
L 64.708778 97.493239 
L 65.912634 101.213513 
L 66.313919 100.404517 
L 66.715204 99.134382 
L 67.116489 99.500915 
L 67.517775 102.065872 
L 69.122916 97.601122 
L 69.524201 91.756796 
L 69.925487 90.101498 
L 70.326772 89.828475 
L 71.530628 87.740128 
L 71.931913 87.963291 
L 72.333199 95.951223 
L 72.734484 94.455467 
L 73.135769 100.443602 
L 74.339625 92.967151 
L 74.74091 88.261704 
L 75.142196 88.312047 
L 75.543481 84.554707 
L 75.944766 82.789309 
L 77.148622 79.837827 
L 77.549908 79.387024 
L 77.951193 80.177366 
L 78.352478 78.980968 
L 78.753764 77.414658 
L 80.358905 78.492639 
L 81.161475 82.585699 
L 81.562761 82.381212 
L 82.766617 90.053415 
L 83.167902 91.578139 
L 83.569187 88.594528 
L 83.970473 99.348328 
L 84.371758 97.709664 
L 85.575614 88.799915 
L 85.976899 93.969398 
L 86.77947 108.24638 
L 87.180755 103.826553 
L 88.384611 110.815156 
L 88.785896 100.373267 
L 89.187182 100.485408 
L 89.588467 93.073214 
L 89.989752 94.84423 
L 91.176888 91.701516 
L 91.578173 91.434989 
L 91.979459 90.229813 
L 92.380744 99.421582 
L 92.782029 97.195264 
L 93.985885 93.548046 
L 94.387171 96.915263 
L 94.788456 102.888584 
L 95.189741 102.533749 
L 95.591026 98.914599 
L 96.794882 100.691695 
L 97.196168 101.012163 
L 97.998738 91.243076 
L 99.60388 86.176078 
L 100.40645 86.552486 
L 100.807736 83.395836 
L 101.209021 81.802994 
L 102.412877 82.930879 
L 102.814162 79.647714 
L 103.215447 82.754701 
L 103.616733 78.68905 
L 104.018018 78.383877 
L 105.221874 81.475371 
L 105.623159 84.363036 
L 106.024445 80.678731 
L 106.42573 83.640769 
L 106.827015 79.182317 
L 108.030871 76.441379 
L 108.833442 78.413306 
L 109.234727 77.704996 
L 109.636012 80.398729 
L 110.839868 81.916935 
L 111.241154 87.796089 
L 111.642439 88.943965 
L 112.043724 87.810924 
L 112.44501 85.127746 
L 113.648866 93.001518 
L 114.050151 93.280861 
L 114.451436 101.320255 
L 114.852721 99.223371 
L 115.254007 92.3696 
L 116.457863 93.514119 
L 116.859148 95.208744 
L 117.260433 95.296372 
L 117.661719 89.992956 
L 118.063004 91.448024 
L 119.26686 87.174287 
L 119.668145 87.264176 
L 120.069431 85.447754 
L 120.470716 85.4864 
L 120.872001 85.206398 
L 122.477142 85.481901 
L 122.878428 85.035839 
L 123.279713 88.222839 
L 123.680998 83.728858 
L 124.884854 82.21807 
L 125.28614 81.24749 
L 125.687425 81.543227 
L 126.08871 79.103204 
L 126.489996 78.000052 
L 127.693851 75.64678 
L 128.095137 77.922739 
L 128.496422 78.668378 
L 128.897707 75.934199 
L 129.298993 78.877364 
L 130.502849 76.3807 
L 130.904134 73.868565 
L 131.305419 73.453709 
L 131.706705 71.251904 
L 132.10799 71.461351 
L 133.311846 68.312558 
L 133.713131 67.687377 
L 134.114416 68.235244 
L 134.515702 67.82109 
L 134.916987 65.192974 
L 136.923414 64.614778 
L 137.324699 66.980625 
L 137.725984 63.786449 
L 138.92984 63.082615 
L 139.331126 64.331836 
L 139.732411 65.066678 
L 140.534981 69.959078 
L 141.738837 73.380675 
L 142.140123 68.349185 
L 142.541408 65.358815 
L 142.942693 64.175672 
L 143.343979 60.751135 
L 144.547835 60.667545 
L 144.94912 64.715442 
L 145.350405 62.423287 
L 145.751691 62.070932 
L 146.152976 64.443538 
L 147.356832 64.254983 
L 147.758117 62.452277 
L 148.159402 62.019909 
L 148.560688 59.444834 
L 148.961973 60.778786 
L 150.165829 60.230019 
L 150.567114 61.850029 
L 150.9684 62.365769 
L 151.369685 61.216992 
L 151.77097 61.067763 
L 152.974826 61.722614 
L 153.777397 67.741758 
L 154.178682 67.384903 
L 154.579967 63.500149 
L 156.185109 56.64302 
L 156.586394 56.147273 
L 156.987679 58.305736 
L 157.388965 54.177826 
L 158.592821 51.112864 
L 158.994106 51.262291 
L 159.395391 50.135547 
L 159.796676 49.64566 
L 160.197962 48.918916 
L 161.803103 48.67598 
L 162.204388 50.646568 
L 162.605674 51.509264 
L 163.006959 54.492655 
L 164.210815 54.715357 
L 164.6121 56.239422 
L 165.013386 53.458039 
L 165.414671 52.99984 
L 165.815956 56.099871 
L 167.019812 63.517222 
L 167.421097 62.786879 
L 168.223668 55.914015 
L 168.624953 56.01604 
L 169.828809 57.762806 
L 170.230095 67.275023 
L 170.63138 68.044451 
L 171.032665 69.479527 
L 171.433951 66.82512 
L 172.637806 73.818881 
L 173.039092 69.810991 
L 173.440377 68.281088 
L 173.841662 64.862871 
L 174.242948 66.536582 
L 175.446804 68.634124 
L 175.848089 69.089864 
L 176.249374 66.71412 
L 176.65066 61.055869 
L 177.051945 59.394952 
L 178.255801 56.597856 
L 178.657086 54.187043 
L 179.058371 54.353565 
L 179.459657 52.240727 
L 179.860942 55.060975 
L 181.064798 51.993314 
L 181.466083 51.791065 
L 181.867369 51.788146 
L 182.268654 47.017763 
L 182.669939 45.888101 
L 183.873795 43.696391 
L 184.275081 42.490095 
L 185.077651 35.957232 
L 185.478936 35.254298 
L 186.699513 35.012263 
L 187.100798 37.165546 
L 187.502083 43.094362 
L 187.903369 41.261306 
L 188.304654 37.740384 
L 189.50851 37.900169 
L 189.909795 35.203275 
L 190.31108 36.378342 
L 191.113651 33.325055 
L 192.718792 39.668947 
L 193.120078 38.093859 
L 193.922648 46.039327 
L 195.126504 39.496127 
L 195.929075 51.37893 
L 196.33036 48.518895 
L 196.731645 55.167279 
L 197.935501 52.028361 
L 198.336787 41.65143 
L 198.738072 39.402639 
L 199.139357 45.46157 
L 199.540643 42.917065 
L 200.744499 47.800687 
L 201.145784 51.747701 
L 201.547069 44.378191 
L 201.948355 53.033329 
L 202.34964 53.274904 
L 203.553496 57.516272 
L 203.954781 49.422958 
L 204.757352 42.405364 
L 206.362493 37.508926 
L 206.763778 39.521079 
L 207.165064 39.869396 
L 207.566349 40.423562 
L 207.967634 42.594139 
L 209.17149 38.373202 
L 209.572775 43.094143 
L 209.974061 54.836935 
L 210.375346 55.270861 
L 210.776631 58.528416 
L 211.980487 58.372691 
L 212.381773 53.639615 
L 212.783058 52.854452 
L 213.184343 61.429358 
L 213.585629 59.475624 
L 215.19077 68.168947 
L 215.99334 76.098921 
L 216.394626 84.752918 
L 217.598482 82.8156 
L 217.999767 89.913184 
L 218.401052 89.849586 
L 218.802338 94.10445 
L 219.203623 84.715831 
L 220.407479 74.169459 
L 220.808764 71.784717 
L 221.21005 70.176842 
L 221.611335 82.283226 
L 222.01262 77.357578 
L 223.216476 79.207928 
L 223.617761 75.190359 
L 224.019047 68.540417 
L 224.420332 75.388351 
L 224.821617 84.253353 
L 226.025473 84.258532 
L 226.426759 76.419368 
L 226.828044 76.771504 
L 227.229329 85.925966 
L 227.630615 89.715873 
L 229.235756 93.458619 
L 229.637041 101.18968 
L 230.038326 91.389606 
L 230.439612 86.422591 
L 231.643468 85.146619 
L 232.044753 90.06667 
L 232.446038 85.132706 
L 233.248609 94.988499 
L 234.452465 105.830849 
L 234.85375 106.62659 
L 235.255035 96.289423 
L 235.656321 99.111691 
L 236.057606 105.542091 
L 237.244742 111.443037 
L 237.646027 103.186778 
L 238.047312 92.221973 
L 238.448598 88.21676 
L 238.849883 81.945705 
L 240.053739 83.190208 
L 240.455024 77.114643 
L 240.85631 81.299413 
L 241.257595 75.249019 
L 241.65888 75.755541 
L 242.862736 71.584706 
L 243.264022 65.635459 
L 244.066592 74.604527 
L 244.467877 73.683609 
L 245.671733 67.592551 
L 246.474304 82.058505 
L 246.875589 81.867953 
L 247.276875 86.054501 
L 248.480731 92.774559 
L 248.882016 93.682199 
L 249.283301 87.569349 
L 249.684587 94.142657 
L 251.289728 94.563329 
L 251.691013 88.107099 
L 252.092298 91.850723 
L 252.894869 105.643655 
L 254.098725 101.923183 
L 254.50001 113.476301 
L 254.901296 113.516988 
L 255.302581 104.919149 
L 255.703866 116.984209 
L 256.907722 112.45878 
L 257.309007 111.835399 
L 257.710293 102.821826 
L 258.111578 117.365093 
L 259.716719 132.970629 
L 260.118005 130.399373 
L 260.51929 138.791122 
L 260.920575 138.640116 
L 261.321861 128.886324 
L 262.525717 132.082081 
L 262.927002 124.852143 
L 263.328287 137.579648 
L 264.130858 139.007306 
L 265.334714 134.947735 
L 265.735999 141.033614 
L 266.137284 137.206839 
L 266.939855 121.557501 
L 268.544996 122.675268 
L 268.946282 124.628761 
L 269.347567 117.382847 
L 269.748852 124.218184 
L 270.952708 123.125149 
L 271.353993 120.566468 
L 271.755279 122.565607 
L 272.557849 139.335412 
L 272.557849 139.335412 
" clip-path="url(#pbde8baa7e0)" style="fill: none; stroke: #000000; stroke-linecap: square"/>
   </g>
   <g id="patch_3">
    <path d="M 49.48 168.671221 
L 49.48 26.88 
" style="fill: none; stroke: #000000; stroke-width: 0.8; stroke-linejoin: miter; stroke-linecap: square"/>
   </g>
   <g id="patch_4">
    <path d="M 349.2 168.671221 
L 349.2 26.88 
" style="fill: none; stroke: #000000; stroke-width: 0.8; stroke-linejoin: miter; stroke-linecap: square"/>
   </g>
   <g id="patch_5">
    <path d="M 49.48 168.671221 
L 349.2 168.671221 
" style="fill: none; stroke: #000000; stroke-width: 0.8; stroke-linejoin: miter; stroke-linecap: square"/>
   </g>
   <g id="patch_6">
    <path d="M 49.48 26.88 
L 349.2 26.88 
" style="fill: none; stroke: #000000; stroke-width: 0.8; stroke-linejoin: miter; stroke-linecap: square"/>
   </g>
   <g id="text_15">
    <!-- NASDAQ -->
    <g transform="translate(173.700312 20.88) scale(0.12 -0.12)">
     <defs>
      <path id="DejaVuSans-4e" d="M 628 4666 
L 1478 4666 
L 3547 763 
L 3547 4666 
L 4159 4666 
L 4159 0 
L 3309 0 
L 1241 3903 
L 1241 0 
L 628 0 
L 628 4666 
z
" transform="scale(0.015625)"/>
      <path id="DejaVuSans-41" d="M 2188 4044 
L 1331 1722 
L 3047 1722 
L 2188 4044 
z
M 1831 4666 
L 2547 4666 
L 4325 0 
L 3669 0 
L 3244 1197 
L 1141 1197 
L 716 0 
L 50 0 
L 1831 4666 
z
" transform="scale(0.015625)"/>
      <path id="DejaVuSans-53" d="M 3425 4513 
L 3425 3897 
Q 3066 4069 2747 4153 
Q 2428 4238 2131 4238 
Q 1616 4238 1336 4038 
Q 1056 3838 1056 3469 
Q 1056 3159 1242 3001 
Q 1428 2844 1947 2747 
L 2328 2669 
Q 3034 2534 3370 2195 
Q 3706 1856 3706 1288 
Q 3706 609 3251 259 
Q 2797 -91 1919 -91 
Q 1588 -91 1214 -16 
Q 841 59 441 206 
L 441 856 
Q 825 641 1194 531 
Q 1563 422 1919 422 
Q 2459 422 2753 634 
Q 3047 847 3047 1241 
Q 3047 1584 2836 1778 
Q 2625 1972 2144 2069 
L 1759 2144 
Q 1053 2284 737 2584 
Q 422 2884 422 3419 
Q 422 4038 858 4394 
Q 1294 4750 2059 4750 
Q 2388 4750 2728 4690 
Q 3069 4631 3425 4513 
z
" transform="scale(0.015625)"/>
      <path id="DejaVuSans-44" d="M 1259 4147 
L 1259 519 
L 2022 519 
Q 2988 519 3436 956 
Q 3884 1394 3884 2338 
Q 3884 3275 3436 3711 
Q 2988 4147 2022 4147 
L 1259 4147 
z
M 628 4666 
L 1925 4666 
Q 3281 4666 3915 4102 
Q 4550 3538 4550 2338 
Q 4550 1131 3912 565 
Q 3275 0 1925 0 
L 628 0 
L 628 4666 
z
" transform="scale(0.015625)"/>
      <path id="DejaVuSans-51" d="M 2522 4238 
Q 1834 4238 1429 3725 
Q 1025 3213 1025 2328 
Q 1025 1447 1429 934 
Q 1834 422 2522 422 
Q 3209 422 3611 934 
Q 4013 1447 4013 2328 
Q 4013 3213 3611 3725 
Q 3209 4238 2522 4238 
z
M 3406 84 
L 4238 -825 
L 3475 -825 
L 2784 -78 
Q 2681 -84 2626 -87 
Q 2572 -91 2522 -91 
Q 1538 -91 948 567 
Q 359 1225 359 2328 
Q 359 3434 948 4092 
Q 1538 4750 2522 4750 
Q 3503 4750 4090 4092 
Q 4678 3434 4678 2328 
Q 4678 1516 4351 937 
Q 4025 359 3406 84 
z
" transform="scale(0.015625)"/>
     </defs>
     <use xlink:href="#DejaVuSans-4e"/>
     <use xlink:href="#DejaVuSans-41" x="74.804688"/>
     <use xlink:href="#DejaVuSans-53" x="143.212891"/>
     <use xlink:href="#DejaVuSans-44" x="206.689453"/>
     <use xlink:href="#DejaVuSans-41" x="281.941406"/>
     <use xlink:href="#DejaVuSans-51" x="348.599609"/>
    </g>
   </g>
  </g>
 </g>
 <defs>
  <clipPath id="pbde8baa7e0">
   <rect x="49.48" y="26.88" width="299.72" height="141.791221"/>
  </clipPath>
 </defs>
</svg>
