<?xml version="1.0" encoding="utf-8" standalone="no"?>
<!DOCTYPE svg PUBLIC "-//W3C//DTD SVG 1.1//EN"
  "http://www.w3.org/Graphics/SVG/1.1/DTD/svg11.dtd">
<svg xmlns:xlink="http://www.w3.org/1999/xlink" width="360pt" height="216pt" viewBox="0 0 360 216" xmlns="http://www.w3.org/2000/svg" version="1.1">
 <metadata>
  <rdf:RDF xmlns:dc="http://purl.org/dc/elements/1.1/" xmlns:cc="http://creativecommons.org/ns#" xmlns:rdf="http://www.w3.org/1999/02/22-rdf-syntax-ns#">
   <cc:Work>
    <dc:type rdf:resource="http://purl.org/dc/dcmitype/StillImage"/>
    <dc:date>2022-08-15T13:30:55.394144</dc:date>
    <dc:format>image/svg+xml</dc:format>
    <dc:creator>
     <cc:Agent>
      <dc:title>Matplotlib v3.5.2, https://matplotlib.org/</dc:title>
     </cc:Agent>
    </dc:creator>
   </cc:Work>
  </rdf:RDF>
 </metadata>
 <defs>
  <style type="text/css">*{stroke-linejoin: round; stroke-linecap: butt}</style>
 </defs>
 <g id="figure_1">
  <g id="patch_1">
   <path d="M 0 216 
L 360 216 
L 360 0 
L 0 0 
z
" style="fill: #ffffff"/>
  </g>
  <g id="axes_1">
   <g id="patch_2">
    <path d="M 43.09 168.671221 
L 346.917828 168.671221 
L 346.917828 26.88 
L 43.09 26.88 
z
" style="fill: #ffffff"/>
   </g>
   <g id="matplotlib.axis_1">
    <g id="xtick_1">
     <g id="line2d_1">
      <defs>
       <path id="mb70b3ecb2b" d="M 0 0 
L 0 3.5 
" style="stroke: #000000; stroke-width: 0.8"/>
      </defs>
      <g>
       <use xlink:href="#mb70b3ecb2b" x="57.15237" y="168.671221" style="stroke: #000000; stroke-width: 0.8"/>
      </g>
     </g>
     <g id="text_1">
      <!-- '00-01 -->
      <g transform="translate(47.858335 203.534543)rotate(-45)scale(0.1 -0.1)">
       <defs>
        <path id="DejaVuSans-27" d="M 1147 4666 
L 1147 2931 
L 616 2931 
L 616 4666 
L 1147 4666 
z
" transform="scale(0.015625)"/>
        <path id="DejaVuSans-30" d="M 2034 4250 
Q 1547 4250 1301 3770 
Q 1056 3291 1056 2328 
Q 1056 1369 1301 889 
Q 1547 409 2034 409 
Q 2525 409 2770 889 
Q 3016 1369 3016 2328 
Q 3016 3291 2770 3770 
Q 2525 4250 2034 4250 
z
M 2034 4750 
Q 2819 4750 3233 4129 
Q 3647 3509 3647 2328 
Q 3647 1150 3233 529 
Q 2819 -91 2034 -91 
Q 1250 -91 836 529 
Q 422 1150 422 2328 
Q 422 3509 836 4129 
Q 1250 4750 2034 4750 
z
" transform="scale(0.015625)"/>
        <path id="DejaVuSans-2d" d="M 313 2009 
L 1997 2009 
L 1997 1497 
L 313 1497 
L 313 2009 
z
" transform="scale(0.015625)"/>
        <path id="DejaVuSans-31" d="M 794 531 
L 1825 531 
L 1825 4091 
L 703 3866 
L 703 4441 
L 1819 4666 
L 2450 4666 
L 2450 531 
L 3481 531 
L 3481 0 
L 794 0 
L 794 531 
z
" transform="scale(0.015625)"/>
       </defs>
       <use xlink:href="#DejaVuSans-27"/>
       <use xlink:href="#DejaVuSans-30" x="27.490234"/>
       <use xlink:href="#DejaVuSans-30" x="91.113281"/>
       <use xlink:href="#DejaVuSans-2d" x="154.736328"/>
       <use xlink:href="#DejaVuSans-30" x="190.820312"/>
       <use xlink:href="#DejaVuSans-31" x="254.443359"/>
      </g>
     </g>
    </g>
    <g id="xtick_2">
     <g id="line2d_2">
      <g>
       <use xlink:href="#mb70b3ecb2b" x="87.646039" y="168.671221" style="stroke: #000000; stroke-width: 0.8"/>
      </g>
     </g>
     <g id="text_2">
      <!-- '00-05 -->
      <g transform="translate(78.352004 203.534543)rotate(-45)scale(0.1 -0.1)">
       <defs>
        <path id="DejaVuSans-35" d="M 691 4666 
L 3169 4666 
L 3169 4134 
L 1269 4134 
L 1269 2991 
Q 1406 3038 1543 3061 
Q 1681 3084 1819 3084 
Q 2600 3084 3056 2656 
Q 3513 2228 3513 1497 
Q 3513 744 3044 326 
Q 2575 -91 1722 -91 
Q 1428 -91 1123 -41 
Q 819 9 494 109 
L 494 744 
Q 775 591 1075 516 
Q 1375 441 1709 441 
Q 2250 441 2565 725 
Q 2881 1009 2881 1497 
Q 2881 1984 2565 2268 
Q 2250 2553 1709 2553 
Q 1456 2553 1204 2497 
Q 953 2441 691 2322 
L 691 4666 
z
" transform="scale(0.015625)"/>
       </defs>
       <use xlink:href="#DejaVuSans-27"/>
       <use xlink:href="#DejaVuSans-30" x="27.490234"/>
       <use xlink:href="#DejaVuSans-30" x="91.113281"/>
       <use xlink:href="#DejaVuSans-2d" x="154.736328"/>
       <use xlink:href="#DejaVuSans-30" x="190.820312"/>
       <use xlink:href="#DejaVuSans-35" x="254.443359"/>
      </g>
     </g>
    </g>
    <g id="xtick_3">
     <g id="line2d_3">
      <g>
       <use xlink:href="#mb70b3ecb2b" x="118.643735" y="168.671221" style="stroke: #000000; stroke-width: 0.8"/>
      </g>
     </g>
     <g id="text_3">
      <!-- '00-09 -->
      <g transform="translate(109.3497 203.534543)rotate(-45)scale(0.1 -0.1)">
       <defs>
        <path id="DejaVuSans-39" d="M 703 97 
L 703 672 
Q 941 559 1184 500 
Q 1428 441 1663 441 
Q 2288 441 2617 861 
Q 2947 1281 2994 2138 
Q 2813 1869 2534 1725 
Q 2256 1581 1919 1581 
Q 1219 1581 811 2004 
Q 403 2428 403 3163 
Q 403 3881 828 4315 
Q 1253 4750 1959 4750 
Q 2769 4750 3195 4129 
Q 3622 3509 3622 2328 
Q 3622 1225 3098 567 
Q 2575 -91 1691 -91 
Q 1453 -91 1209 -44 
Q 966 3 703 97 
z
M 1959 2075 
Q 2384 2075 2632 2365 
Q 2881 2656 2881 3163 
Q 2881 3666 2632 3958 
Q 2384 4250 1959 4250 
Q 1534 4250 1286 3958 
Q 1038 3666 1038 3163 
Q 1038 2656 1286 2365 
Q 1534 2075 1959 2075 
z
" transform="scale(0.015625)"/>
       </defs>
       <use xlink:href="#DejaVuSans-27"/>
       <use xlink:href="#DejaVuSans-30" x="27.490234"/>
       <use xlink:href="#DejaVuSans-30" x="91.113281"/>
       <use xlink:href="#DejaVuSans-2d" x="154.736328"/>
       <use xlink:href="#DejaVuSans-30" x="190.820312"/>
       <use xlink:href="#DejaVuSans-39" x="254.443359"/>
      </g>
     </g>
    </g>
    <g id="xtick_4">
     <g id="line2d_4">
      <g>
       <use xlink:href="#mb70b3ecb2b" x="149.389418" y="168.671221" style="stroke: #000000; stroke-width: 0.8"/>
      </g>
     </g>
     <g id="text_4">
      <!-- '01-01 -->
      <g transform="translate(140.095383 203.534543)rotate(-45)scale(0.1 -0.1)">
       <use xlink:href="#DejaVuSans-27"/>
       <use xlink:href="#DejaVuSans-30" x="27.490234"/>
       <use xlink:href="#DejaVuSans-31" x="91.113281"/>
       <use xlink:href="#DejaVuSans-2d" x="154.736328"/>
       <use xlink:href="#DejaVuSans-30" x="190.820312"/>
       <use xlink:href="#DejaVuSans-31" x="254.443359"/>
      </g>
     </g>
    </g>
    <g id="xtick_5">
     <g id="line2d_5">
      <g>
       <use xlink:href="#mb70b3ecb2b" x="179.631073" y="168.671221" style="stroke: #000000; stroke-width: 0.8"/>
      </g>
     </g>
     <g id="text_5">
      <!-- '01-05 -->
      <g transform="translate(170.337038 203.534543)rotate(-45)scale(0.1 -0.1)">
       <use xlink:href="#DejaVuSans-27"/>
       <use xlink:href="#DejaVuSans-30" x="27.490234"/>
       <use xlink:href="#DejaVuSans-31" x="91.113281"/>
       <use xlink:href="#DejaVuSans-2d" x="154.736328"/>
       <use xlink:href="#DejaVuSans-30" x="190.820312"/>
       <use xlink:href="#DejaVuSans-35" x="254.443359"/>
      </g>
     </g>
    </g>
    <g id="xtick_6">
     <g id="line2d_6">
      <g>
       <use xlink:href="#mb70b3ecb2b" x="210.628769" y="168.671221" style="stroke: #000000; stroke-width: 0.8"/>
      </g>
     </g>
     <g id="text_6">
      <!-- '01-09 -->
      <g transform="translate(201.334735 203.534543)rotate(-45)scale(0.1 -0.1)">
       <use xlink:href="#DejaVuSans-27"/>
       <use xlink:href="#DejaVuSans-30" x="27.490234"/>
       <use xlink:href="#DejaVuSans-31" x="91.113281"/>
       <use xlink:href="#DejaVuSans-2d" x="154.736328"/>
       <use xlink:href="#DejaVuSans-30" x="190.820312"/>
       <use xlink:href="#DejaVuSans-39" x="254.443359"/>
      </g>
     </g>
    </g>
    <g id="xtick_7">
     <g id="line2d_7">
      <g>
       <use xlink:href="#mb70b3ecb2b" x="241.374452" y="168.671221" style="stroke: #000000; stroke-width: 0.8"/>
      </g>
     </g>
     <g id="text_7">
      <!-- '02-01 -->
      <g transform="translate(232.080417 203.534543)rotate(-45)scale(0.1 -0.1)">
       <defs>
        <path id="DejaVuSans-32" d="M 1228 531 
L 3431 531 
L 3431 0 
L 469 0 
L 469 531 
Q 828 903 1448 1529 
Q 2069 2156 2228 2338 
Q 2531 2678 2651 2914 
Q 2772 3150 2772 3378 
Q 2772 3750 2511 3984 
Q 2250 4219 1831 4219 
Q 1534 4219 1204 4116 
Q 875 4013 500 3803 
L 500 4441 
Q 881 4594 1212 4672 
Q 1544 4750 1819 4750 
Q 2544 4750 2975 4387 
Q 3406 4025 3406 3419 
Q 3406 3131 3298 2873 
Q 3191 2616 2906 2266 
Q 2828 2175 2409 1742 
Q 1991 1309 1228 531 
z
" transform="scale(0.015625)"/>
       </defs>
       <use xlink:href="#DejaVuSans-27"/>
       <use xlink:href="#DejaVuSans-30" x="27.490234"/>
       <use xlink:href="#DejaVuSans-32" x="91.113281"/>
       <use xlink:href="#DejaVuSans-2d" x="154.736328"/>
       <use xlink:href="#DejaVuSans-30" x="190.820312"/>
       <use xlink:href="#DejaVuSans-31" x="254.443359"/>
      </g>
     </g>
    </g>
    <g id="xtick_8">
     <g id="line2d_8">
      <g>
       <use xlink:href="#mb70b3ecb2b" x="271.616107" y="168.671221" style="stroke: #000000; stroke-width: 0.8"/>
      </g>
     </g>
     <g id="text_8">
      <!-- '02-05 -->
      <g transform="translate(262.322072 203.534543)rotate(-45)scale(0.1 -0.1)">
       <use xlink:href="#DejaVuSans-27"/>
       <use xlink:href="#DejaVuSans-30" x="27.490234"/>
       <use xlink:href="#DejaVuSans-32" x="91.113281"/>
       <use xlink:href="#DejaVuSans-2d" x="154.736328"/>
       <use xlink:href="#DejaVuSans-30" x="190.820312"/>
       <use xlink:href="#DejaVuSans-35" x="254.443359"/>
      </g>
     </g>
    </g>
    <g id="xtick_9">
     <g id="line2d_9">
      <g>
       <use xlink:href="#mb70b3ecb2b" x="302.613804" y="168.671221" style="stroke: #000000; stroke-width: 0.8"/>
      </g>
     </g>
     <g id="text_9">
      <!-- '02-09 -->
      <g transform="translate(293.319769 203.534543)rotate(-45)scale(0.1 -0.1)">
       <use xlink:href="#DejaVuSans-27"/>
       <use xlink:href="#DejaVuSans-30" x="27.490234"/>
       <use xlink:href="#DejaVuSans-32" x="91.113281"/>
       <use xlink:href="#DejaVuSans-2d" x="154.736328"/>
       <use xlink:href="#DejaVuSans-30" x="190.820312"/>
       <use xlink:href="#DejaVuSans-39" x="254.443359"/>
      </g>
     </g>
    </g>
    <g id="xtick_10">
     <g id="line2d_10">
      <g>
       <use xlink:href="#mb70b3ecb2b" x="333.359486" y="168.671221" style="stroke: #000000; stroke-width: 0.8"/>
      </g>
     </g>
     <g id="text_10">
      <!-- '03-01 -->
      <g transform="translate(324.065452 203.534543)rotate(-45)scale(0.1 -0.1)">
       <defs>
        <path id="DejaVuSans-33" d="M 2597 2516 
Q 3050 2419 3304 2112 
Q 3559 1806 3559 1356 
Q 3559 666 3084 287 
Q 2609 -91 1734 -91 
Q 1441 -91 1130 -33 
Q 819 25 488 141 
L 488 750 
Q 750 597 1062 519 
Q 1375 441 1716 441 
Q 2309 441 2620 675 
Q 2931 909 2931 1356 
Q 2931 1769 2642 2001 
Q 2353 2234 1838 2234 
L 1294 2234 
L 1294 2753 
L 1863 2753 
Q 2328 2753 2575 2939 
Q 2822 3125 2822 3475 
Q 2822 3834 2567 4026 
Q 2313 4219 1838 4219 
Q 1578 4219 1281 4162 
Q 984 4106 628 3988 
L 628 4550 
Q 988 4650 1302 4700 
Q 1616 4750 1894 4750 
Q 2613 4750 3031 4423 
Q 3450 4097 3450 3541 
Q 3450 3153 3228 2886 
Q 3006 2619 2597 2516 
z
" transform="scale(0.015625)"/>
       </defs>
       <use xlink:href="#DejaVuSans-27"/>
       <use xlink:href="#DejaVuSans-30" x="27.490234"/>
       <use xlink:href="#DejaVuSans-33" x="91.113281"/>
       <use xlink:href="#DejaVuSans-2d" x="154.736328"/>
       <use xlink:href="#DejaVuSans-30" x="190.820312"/>
       <use xlink:href="#DejaVuSans-31" x="254.443359"/>
      </g>
     </g>
    </g>
   </g>
   <g id="matplotlib.axis_2">
    <g id="ytick_1">
     <g id="line2d_11">
      <defs>
       <path id="md4b0fdda05" d="M 0 0 
L -3.5 0 
" style="stroke: #000000; stroke-width: 0.8"/>
      </defs>
      <g>
       <use xlink:href="#md4b0fdda05" x="43.09" y="165.964599" style="stroke: #000000; stroke-width: 0.8"/>
      </g>
     </g>
     <g id="text_11">
      <!-- 1000 -->
      <g transform="translate(10.64 169.763817)scale(0.1 -0.1)">
       <use xlink:href="#DejaVuSans-31"/>
       <use xlink:href="#DejaVuSans-30" x="63.623047"/>
       <use xlink:href="#DejaVuSans-30" x="127.246094"/>
       <use xlink:href="#DejaVuSans-30" x="190.869141"/>
      </g>
     </g>
    </g>
    <g id="ytick_2">
     <g id="line2d_12">
      <g>
       <use xlink:href="#md4b0fdda05" x="43.09" y="133.202932" style="stroke: #000000; stroke-width: 0.8"/>
      </g>
     </g>
     <g id="text_12">
      <!-- 2000 -->
      <g transform="translate(10.64 137.002151)scale(0.1 -0.1)">
       <use xlink:href="#DejaVuSans-32"/>
       <use xlink:href="#DejaVuSans-30" x="63.623047"/>
       <use xlink:href="#DejaVuSans-30" x="127.246094"/>
       <use xlink:href="#DejaVuSans-30" x="190.869141"/>
      </g>
     </g>
    </g>
    <g id="ytick_3">
     <g id="line2d_13">
      <g>
       <use xlink:href="#md4b0fdda05" x="43.09" y="100.441265" style="stroke: #000000; stroke-width: 0.8"/>
      </g>
     </g>
     <g id="text_13">
      <!-- 3000 -->
      <g transform="translate(10.64 104.240484)scale(0.1 -0.1)">
       <use xlink:href="#DejaVuSans-33"/>
       <use xlink:href="#DejaVuSans-30" x="63.623047"/>
       <use xlink:href="#DejaVuSans-30" x="127.246094"/>
       <use xlink:href="#DejaVuSans-30" x="190.869141"/>
      </g>
     </g>
    </g>
    <g id="ytick_4">
     <g id="line2d_14">
      <g>
       <use xlink:href="#md4b0fdda05" x="43.09" y="67.679598" style="stroke: #000000; stroke-width: 0.8"/>
      </g>
     </g>
     <g id="text_14">
      <!-- 4000 -->
      <g transform="translate(10.64 71.478817)scale(0.1 -0.1)">
       <defs>
        <path id="DejaVuSans-34" d="M 2419 4116 
L 825 1625 
L 2419 1625 
L 2419 4116 
z
M 2253 4666 
L 3047 4666 
L 3047 1625 
L 3713 1625 
L 3713 1100 
L 3047 1100 
L 3047 0 
L 2419 0 
L 2419 1100 
L 313 1100 
L 313 1709 
L 2253 4666 
z
" transform="scale(0.015625)"/>
       </defs>
       <use xlink:href="#DejaVuSans-34"/>
       <use xlink:href="#DejaVuSans-30" x="63.623047"/>
       <use xlink:href="#DejaVuSans-30" x="127.246094"/>
       <use xlink:href="#DejaVuSans-30" x="190.869141"/>
      </g>
     </g>
    </g>
    <g id="ytick_5">
     <g id="line2d_15">
      <g>
       <use xlink:href="#md4b0fdda05" x="43.09" y="34.917932" style="stroke: #000000; stroke-width: 0.8"/>
      </g>
     </g>
     <g id="text_15">
      <!-- 5000 -->
      <g transform="translate(10.64 38.71715)scale(0.1 -0.1)">
       <use xlink:href="#DejaVuSans-35"/>
       <use xlink:href="#DejaVuSans-30" x="63.623047"/>
       <use xlink:href="#DejaVuSans-30" x="127.246094"/>
       <use xlink:href="#DejaVuSans-30" x="190.869141"/>
      </g>
     </g>
    </g>
   </g>
   <g id="line2d_16">
    <path d="M 56.900356 65.408885 
L 57.656397 63.382909 
L 57.908411 70.9004 
L 58.160425 71.691591 
L 58.412439 76.619278 
L 58.664452 71.525159 
L 59.420494 66.052329 
L 59.672508 70.261547 
L 59.924521 72.593192 
L 60.428549 65.574005 
L 61.688618 62.723084 
L 62.192645 59.967505 
L 62.948687 64.531855 
L 63.200701 62.194963 
L 63.452714 65.389233 
L 63.704728 66.383545 
L 63.956742 71.379371 
L 64.712783 69.633829 
L 64.964797 65.976648 
L 65.216811 65.256547 
L 65.468825 60.767543 
L 65.720839 59.681161 
L 66.47688 57.137876 
L 66.728894 53.673986 
L 66.980908 55.779243 
L 67.232921 51.769554 
L 67.484935 54.723991 
L 68.240977 53.967209 
L 68.49299 53.894471 
L 68.745004 53.669075 
L 68.997018 49.696067 
L 69.249032 54.190302 
L 70.257087 55.160706 
L 70.509101 49.649868 
L 70.761114 47.444358 
L 71.013128 48.333834 
L 71.76917 48.748266 
L 72.273197 41.991828 
L 72.525211 42.960601 
L 72.777225 37.709552 
L 73.533266 38.035201 
L 73.78528 39.902952 
L 74.037294 38.283873 
L 74.289308 33.382724 
L 74.541321 33.325055 
L 75.297363 37.956896 
L 75.80139 48.591992 
L 76.305418 41.531533 
L 77.061459 47.694982 
L 77.313473 44.36377 
L 77.565487 39.348947 
L 77.817501 36.863651 
L 78.069514 36.129137 
L 78.825556 36.275573 
L 79.07757 40.359968 
L 79.581597 52.678354 
L 79.833611 48.91273 
L 80.841666 62.801709 
L 81.09368 62.135662 
L 81.345694 58.913885 
L 81.597708 53.053146 
L 82.353749 61.513846 
L 82.605763 65.848224 
L 82.857776 75.226907 
L 83.10979 78.268823 
L 83.361804 89.915268 
L 84.117845 82.777488 
L 84.369859 74.442587 
L 84.873887 79.346687 
L 85.881942 84.634417 
L 86.133956 77.140185 
L 86.38597 79.798464 
L 86.889997 72.244612 
L 87.646039 69.052965 
L 87.898052 74.708616 
L 88.150066 77.268609 
L 88.40208 76.845003 
L 88.654094 73.680878 
L 89.410135 78.511264 
L 89.662149 81.275362 
L 89.914163 87.83687 
L 90.166176 84.074189 
L 91.174232 80.533641 
L 91.426245 76.932474 
L 91.678259 79.311302 
L 92.182287 87.651114 
L 92.938328 88.50914 
L 93.190342 95.050331 
L 93.442356 91.575627 
L 93.69437 93.713654 
L 93.946383 93.721516 
L 94.954439 85.387935 
L 95.206452 87.306788 
L 95.71048 73.793584 
L 96.466521 73.519038 
L 96.718535 75.661319 
L 96.970549 72.945708 
L 97.222563 73.394542 
L 97.474576 71.780046 
L 98.230618 75.283256 
L 98.482632 72.559119 
L 98.734645 74.316787 
L 98.986659 72.733413 
L 99.238673 72.247883 
L 99.994714 68.012782 
L 100.246728 67.241899 
L 100.498742 65.582524 
L 101.00277 72.746515 
L 101.758811 70.55869 
L 102.010825 72.300305 
L 102.262839 69.634156 
L 102.514852 71.701749 
L 102.766866 68.789888 
L 103.522907 67.943987 
L 104.026935 72.164667 
L 104.530963 66.919529 
L 105.287004 68.32533 
L 105.539018 69.107354 
L 105.791032 64.416869 
L 106.295059 59.614325 
L 107.051101 58.680954 
L 107.555128 65.857071 
L 107.807142 61.633103 
L 108.059156 64.585261 
L 108.815197 68.283394 
L 109.067211 66.710834 
L 109.319225 68.081913 
L 109.823252 78.72028 
L 110.579294 75.313395 
L 110.831307 77.982487 
L 111.083321 78.869019 
L 111.335335 75.546334 
L 112.34339 72.168275 
L 112.595404 72.641351 
L 112.847418 72.479183 
L 113.099432 75.542726 
L 113.351445 74.576913 
L 114.107487 72.604006 
L 114.359501 72.539467 
L 114.611514 72.226919 
L 114.863528 69.616792 
L 115.115542 69.961773 
L 116.123597 69.04871 
L 116.627625 65.934056 
L 116.879638 66.281333 
L 117.887694 64.987575 
L 118.139707 64.278608 
L 118.391721 60.919225 
L 118.643735 60.002554 
L 119.65179 62.988777 
L 119.65179 62.988777 
" clip-path="url(#p8d0da88a76)" style="fill: none; stroke: #000000; stroke-linecap: square"/>
   </g>
   <g id="line2d_17">
    <path d="M 119.65179 62.988777 
L 119.903804 67.242555 
L 120.155818 64.457485 
L 120.407832 68.386926 
L 121.163873 71.075342 
L 121.415887 72.609901 
L 121.667901 71.155942 
L 121.919914 70.501685 
L 122.171928 73.077739 
L 122.927969 76.639258 
L 123.179983 72.081459 
L 123.431997 71.039637 
L 123.684011 73.286099 
L 123.936025 74.108748 
L 124.692066 76.157663 
L 125.196094 78.939782 
L 125.448107 74.942202 
L 125.700121 78.398558 
L 126.456163 81.803156 
L 126.708176 85.507512 
L 126.96019 83.303634 
L 127.212204 84.974479 
L 127.464218 88.613975 
L 128.220259 88.792525 
L 128.724287 94.921252 
L 128.976301 97.994626 
L 129.228314 90.063351 
L 129.984356 90.931208 
L 130.236369 93.43158 
L 130.488383 94.820672 
L 130.740397 86.727228 
L 130.992411 84.612797 
L 131.748452 85.086201 
L 132.000466 86.688244 
L 132.25248 92.920167 
L 132.504494 91.524197 
L 132.756507 91.321724 
L 133.512549 94.170685 
L 133.764563 88.331574 
L 134.016576 89.518857 
L 134.26859 86.385854 
L 134.520604 85.646749 
L 135.276645 86.805533 
L 135.528659 86.81929 
L 135.780673 92.850389 
L 136.032687 93.877462 
L 136.284701 99.491505 
L 137.040742 101.531574 
L 137.292756 95.911309 
L 137.544769 95.019537 
L 137.796783 99.396827 
L 138.048797 99.550477 
L 138.804838 104.51551 
L 139.056852 104.652779 
L 139.308866 108.456732 
L 139.812894 103.57394 
L 140.568935 104.356612 
L 140.820949 109.123763 
L 141.072963 110.042729 
L 141.324976 113.613751 
L 141.57699 112.062155 
L 142.333032 113.029936 
L 142.585045 104.051599 
L 142.837059 107.108264 
L 143.089073 108.544539 
L 143.341087 103.146398 
L 144.097128 99.946561 
L 145.105183 111.800717 
L 145.861225 112.742615 
L 146.113238 116.438461 
L 146.365252 122.300503 
L 146.617266 122.06003 
L 146.86928 116.264494 
L 147.877335 117.034393 
L 148.129349 115.532924 
L 148.381363 114.929784 
L 148.633376 117.787912 
L 149.641432 123.641108 
L 149.893445 112.999142 
L 150.145459 114.632634 
L 150.397473 119.847642 
L 151.153514 120.231935 
L 151.405528 118.745207 
L 151.909556 112.216789 
L 152.161569 112.677748 
L 153.169625 112.938201 
L 153.673652 108.025919 
L 153.925666 107.964003 
L 154.681707 108.37254 
L 154.933721 105.670358 
L 155.185735 105.055749 
L 155.437749 108.491461 
L 155.689763 107.60624 
L 156.445804 105.737513 
L 156.697818 105.737185 
L 156.949831 107.88701 
L 157.201845 107.557425 
L 157.453859 111.563851 
L 158.2099 112.130301 
L 158.461914 111.433132 
L 159.217956 117.773171 
L 159.973997 117.160857 
L 160.226011 119.190113 
L 160.730038 115.088682 
L 160.982052 119.266778 
L 161.990107 122.773252 
L 162.242121 124.392011 
L 162.494135 125.177635 
L 163.50219 123.095958 
L 163.754204 126.3944 
L 164.006218 128.228725 
L 164.258231 127.195421 
L 164.510245 129.349181 
L 165.266287 128.520637 
L 165.5183 126.505467 
L 165.770314 125.866942 
L 166.022328 127.675056 
L 166.274342 131.47377 
L 167.030383 135.713131 
L 167.282397 132.718713 
L 168.038438 136.776901 
L 168.79448 134.802355 
L 169.046494 137.873437 
L 169.298507 138.764881 
L 169.550521 136.554452 
L 169.802535 135.539492 
L 170.558576 135.873336 
L 170.81059 134.112724 
L 171.062604 137.981876 
L 171.314618 139.08136 
L 171.566631 138.43628 
L 172.322673 140.313197 
L 172.574687 143.915997 
L 172.8267 145.036444 
L 173.078714 140.24669 
L 173.330728 142.364405 
L 174.086769 141.533897 
L 174.338783 138.050675 
L 174.842811 134.466548 
L 175.850866 136.165571 
L 176.10288 135.718374 
L 176.606907 127.235725 
L 176.858921 127.849351 
L 177.866976 132.658761 
L 178.11899 131.243783 
L 178.371004 132.060205 
L 178.623018 130.723531 
L 179.379059 129.394716 
L 179.883087 125.975705 
L 180.1351 128.413178 
L 180.387114 126.928089 
L 181.143156 127.516487 
L 181.395169 126.690895 
L 181.899197 128.98126 
L 182.151211 129.683348 
L 182.907252 130.519099 
L 183.159266 130.399186 
L 183.41128 127.750082 
L 183.663294 126.857654 
L 183.915307 126.687295 
L 184.671349 123.191291 
L 184.923362 122.92068 
L 185.175376 125.226122 
L 185.42739 123.963486 
L 185.679404 124.97877 
L 186.687459 127.451948 
L 186.939473 130.434571 
L 187.191487 129.583096 
L 187.4435 128.30703 
L 188.199542 128.094407 
L 188.451556 125.547844 
L 188.703569 126.069735 
L 188.955583 124.553852 
L 189.207597 126.155894 
L 189.963638 127.607893 
L 190.215652 127.635088 
L 190.467666 129.21715 
L 190.71968 131.759127 
L 191.727735 133.575432 
L 191.979749 133.443401 
L 192.483776 131.277856 
L 192.73579 132.061517 
L 193.491831 131.536342 
L 193.995859 130.754325 
L 194.499887 127.943373 
L 195.255928 128.330618 
L 195.507942 128.590088 
L 196.011969 130.578391 
L 196.263983 133.066642 
L 197.020025 132.327869 
L 197.272038 134.421992 
L 197.524052 134.118947 
L 197.776066 130.721564 
L 198.02808 130.425069 
L 198.784121 132.248912 
L 199.036135 130.997414 
L 199.288149 132.673174 
L 199.540162 131.676567 
L 199.792176 132.240722 
L 200.548218 133.577723 
L 200.800231 134.538298 
L 201.052245 133.716637 
L 201.304259 132.450725 
L 201.556273 132.250552 
L 202.312314 132.618465 
L 202.564328 132.314108 
L 202.816342 130.962693 
L 203.068356 130.340221 
L 203.320369 131.029848 
L 204.328425 132.292484 
L 204.580438 134.305035 
L 204.832452 134.404632 
L 205.084466 134.629048 
L 205.840507 133.784451 
L 206.092521 134.364987 
L 206.344535 135.86023 
L 206.596549 135.485767 
L 206.848562 137.559906 
L 207.604604 137.090104 
L 207.856618 138.729823 
L 208.108631 137.789237 
L 208.360645 138.347497 
L 208.612659 135.928701 
L 209.3687 136.072525 
L 209.620714 137.626413 
L 209.872728 138.340943 
L 210.124742 140.027841 
L 210.376756 139.577368 
L 211.636824 141.098166 
L 211.888838 142.846656 
L 212.140852 143.434402 
L 212.896893 143.182791 
L 214.913004 147.779254 
L 215.165018 148.672989 
L 215.669045 152.100191 
L 216.425087 149.603421 
L 216.6771 149.530036 
L 216.929114 150.761874 
L 217.181128 150.870972 
L 217.433142 149.623078 
L 218.189183 150.22393 
L 218.441197 149.835049 
L 218.693211 146.936293 
L 218.945224 146.395726 
L 219.197238 146.13396 
L 219.95328 146.112668 
L 220.205293 147.284226 
L 220.709321 142.983273 
L 220.961335 142.920041 
L 221.717376 143.152321 
L 221.96939 142.308384 
L 222.221404 144.789424 
L 222.473418 144.580404 
L 222.725431 143.971362 
L 223.481473 142.766719 
L 223.733487 142.885972 
L 223.9855 141.998128 
L 224.237514 140.55891 
L 224.489528 140.772189 
L 225.497583 144.099134 
L 225.749597 143.352498 
L 226.001611 141.514565 
L 226.253624 141.533242 
L 227.009666 139.963301 
L 227.26168 138.605987 
L 227.513693 138.525719 
L 227.765707 138.845473 
L 228.017721 138.822214 
L 228.773762 138.440539 
L 229.025776 136.737589 
L 229.27779 136.374591 
L 229.781818 136.525622 
L 230.537859 135.351441 
L 230.789873 137.117623 
L 231.041887 137.296501 
L 232.301955 135.128336 
L 232.553969 135.300662 
L 232.805983 136.873222 
L 233.057997 135.389445 
L 233.310011 135.477248 
L 234.066052 136.318566 
L 234.822093 131.424956 
L 235.074107 132.506419 
L 235.830149 133.461094 
L 236.334176 132.830104 
L 236.58619 134.955353 
L 236.838204 134.737159 
L 237.846259 133.046986 
L 238.098273 133.763484 
L 238.350287 135.871696 
L 238.6023 134.977633 
L 239.358342 135.02186 
L 239.862369 134.490467 
L 240.366397 133.620315 
L 241.122438 134.82791 
L 241.626466 133.882736 
L 241.87848 131.752572 
L 242.130493 131.257548 
L 242.886535 131.987475 
L 243.138549 131.376797 
L 243.390562 131.73226 
L 243.642576 131.655271 
L 243.89459 132.467106 
L 244.650631 133.506305 
L 244.902645 133.173118 
L 245.154659 135.023172 
L 245.406673 133.667494 
L 245.658686 135.485111 
L 246.666742 137.051444 
L 246.918755 135.745892 
L 247.170769 135.084108 
L 247.422783 135.243985 
L 248.178824 135.040533 
L 248.430838 136.708758 
L 248.934866 135.364218 
L 249.18688 136.110858 
L 250.446949 139.338866 
L 250.698962 140.341372 
L 250.950976 139.136725 
L 251.707018 138.226605 
L 251.959031 138.63449 
L 252.211045 137.817084 
L 252.463059 138.334392 
L 252.715073 139.584906 
L 253.723128 141.373364 
L 253.975142 140.555635 
L 254.227155 142.499383 
L 254.479169 142.227459 
L 255.235211 140.742046 
L 255.487224 140.840987 
L 255.991252 141.999767 
L 256.243266 139.665499 
L 256.999307 137.811845 
L 257.251321 137.583493 
L 257.503335 136.79361 
L 257.755349 137.08093 
L 258.007362 135.507058 
L 258.763404 135.512957 
L 259.267431 137.723058 
L 259.519445 137.981548 
L 259.771459 137.517642 
L 260.779514 137.105829 
L 261.031528 138.678389 
L 261.283542 137.500281 
L 261.535555 138.071643 
L 262.291597 139.346072 
L 262.543611 138.963414 
L 262.795624 138.878891 
L 263.047638 138.269524 
L 264.055693 137.70373 
L 264.307707 139.611113 
L 264.559721 140.267986 
L 264.811735 140.091072 
L 265.063749 140.737131 
L 265.81979 140.218188 
L 266.071804 141.63677 
L 266.323817 140.834109 
L 266.575831 142.204528 
L 266.827845 141.190556 
L 267.583886 141.269509 
L 267.8359 139.205196 
L 268.591942 139.859121 
L 269.347983 141.108976 
L 269.852011 142.594392 
L 270.104024 142.582599 
L 270.356038 144.214455 
L 271.11208 144.442475 
L 271.364093 143.417037 
L 271.616107 143.767586 
L 272.120135 145.880713 
L 272.876176 147.01263 
L 273.12819 147.165301 
L 273.380204 143.152976 
L 273.884231 146.279752 
L 274.640273 144.586299 
L 274.892286 142.407321 
L 275.648328 141.675426 
L 276.404369 142.979342 
L 276.656383 144.204953 
L 276.908397 143.901256 
L 277.160411 143.109077 
L 277.412424 144.293084 
L 278.42048 144.598421 
L 278.672493 145.508541 
L 278.924507 145.261845 
L 279.932562 147.534193 
L 280.43659 146.462889 
L 280.688604 147.785805 
L 280.940617 148.421382 
L 281.696659 148.578312 
L 281.948673 149.676151 
L 282.200686 148.957362 
L 282.4527 149.685981 
L 282.704714 149.428475 
L 283.460755 147.837895 
L 283.712769 148.176325 
L 284.216797 150.738614 
L 284.468811 151.518015 
L 285.224852 150.883094 
L 285.476866 152.07398 
L 285.72888 151.899034 
L 285.980893 150.920443 
L 286.232907 150.789068 
L 286.988948 152.735436 
L 287.240962 154.241821 
L 287.492976 153.509594 
L 287.997004 151.275578 
L 288.753045 152.676139 
L 289.257073 154.628734 
L 289.509086 153.697646 
L 289.7611 153.728116 
L 290.517142 153.42933 
L 290.769155 153.670455 
L 291.021169 152.950027 
L 291.525197 155.508712 
L 292.281238 156.704513 
L 292.533252 158.460537 
L 292.785266 156.456181 
L 293.037279 158.099179 
L 294.297348 154.688362 
L 294.549362 155.210254 
L 295.05339 157.842325 
L 295.809431 159.215367 
L 296.061445 157.461306 
L 296.313459 156.761846 
L 296.565473 155.594875 
L 296.817486 155.935597 
L 297.573528 155.91201 
L 297.825542 157.142536 
L 298.077555 155.012372 
L 298.581583 154.137309 
L 299.337624 153.038809 
L 299.589638 153.626884 
L 299.841652 152.556887 
L 300.093666 152.108053 
L 300.345679 153.494853 
L 301.101721 153.130544 
L 301.605748 155.664986 
L 301.857762 154.964213 
L 302.109776 155.649589 
L 303.117831 157.320762 
L 303.369845 156.388034 
L 303.621859 157.74142 
L 303.873873 156.290077 
L 304.629914 155.985396 
L 304.881928 155.477918 
L 305.133942 155.629932 
L 305.385955 156.801814 
L 305.637969 156.417848 
L 306.394011 156.92631 
L 306.646024 157.448533 
L 306.898038 157.704399 
L 307.150052 158.873337 
L 307.402066 158.721323 
L 308.158107 159.905982 
L 308.410121 159.996404 
L 308.662135 158.682006 
L 308.914148 158.704286 
L 309.166162 159.439784 
L 309.922204 160.327624 
L 310.174217 158.962776 
L 310.930259 161.381241 
L 311.6863 162.052855 
L 311.938314 161.731137 
L 312.190328 162.226165 
L 312.694355 159.069252 
L 313.450397 158.739667 
L 313.70241 156.711395 
L 313.954424 158.350131 
L 314.206438 157.043923 
L 314.458452 156.533826 
L 315.214493 155.819292 
L 315.466507 156.371981 
L 315.718521 155.473331 
L 315.970535 156.178362 
L 316.222548 155.116228 
L 316.97859 155.617483 
L 317.230604 156.118406 
L 317.482617 155.26038 
L 317.734631 155.161439 
L 317.986645 154.147467 
L 318.742686 152.973286 
L 318.9947 152.821599 
L 319.246714 152.237788 
L 319.498728 153.622952 
L 319.750742 154.193986 
L 320.506783 155.507404 
L 320.758797 154.512428 
L 321.01081 154.126827 
L 321.262824 152.482517 
L 321.514838 152.494966 
L 322.270879 153.06666 
L 322.522893 153.695026 
L 323.026921 150.64688 
L 323.278935 150.607895 
L 324.034976 150.176751 
L 324.28699 151.404329 
L 324.539004 149.978873 
L 325.043031 150.278967 
L 325.799073 150.082397 
L 326.051086 151.255922 
L 326.555114 152.507744 
L 326.807128 152.124762 
L 327.563169 153.93648 
L 327.815183 153.162649 
L 328.31921 152.874673 
L 328.571224 154.091114 
L 329.327266 152.849122 
L 329.579279 153.120386 
L 329.831293 154.120928 
L 330.083307 154.363693 
L 330.335321 154.070474 
L 331.091362 153.4598 
L 331.343376 153.761862 
L 331.847404 153.911909 
L 332.099417 154.553381 
L 333.107473 154.972732 
L 333.107473 154.972732 
" clip-path="url(#p8d0da88a76)" style="fill: none; stroke: #d3d3d3; stroke-linecap: square"/>
   </g>
   <g id="patch_3">
    <path d="M 43.09 168.671221 
L 43.09 26.88 
" style="fill: none; stroke: #000000; stroke-width: 0.8; stroke-linejoin: miter; stroke-linecap: square"/>
   </g>
   <g id="patch_4">
    <path d="M 346.917828 168.671221 
L 346.917828 26.88 
" style="fill: none; stroke: #000000; stroke-width: 0.8; stroke-linejoin: miter; stroke-linecap: square"/>
   </g>
   <g id="patch_5">
    <path d="M 43.09 168.671221 
L 346.917828 168.671221 
" style="fill: none; stroke: #000000; stroke-width: 0.8; stroke-linejoin: miter; stroke-linecap: square"/>
   </g>
   <g id="patch_6">
    <path d="M 43.09 26.88 
L 346.917828 26.88 
" style="fill: none; stroke: #000000; stroke-width: 0.8; stroke-linejoin: miter; stroke-linecap: square"/>
   </g>
   <g id="text_16">
    <!-- NASDAQ -->
    <g transform="translate(169.364227 20.88)scale(0.12 -0.12)">
     <defs>
      <path id="DejaVuSans-4e" d="M 628 4666 
L 1478 4666 
L 3547 763 
L 3547 4666 
L 4159 4666 
L 4159 0 
L 3309 0 
L 1241 3903 
L 1241 0 
L 628 0 
L 628 4666 
z
" transform="scale(0.015625)"/>
      <path id="DejaVuSans-41" d="M 2188 4044 
L 1331 1722 
L 3047 1722 
L 2188 4044 
z
M 1831 4666 
L 2547 4666 
L 4325 0 
L 3669 0 
L 3244 1197 
L 1141 1197 
L 716 0 
L 50 0 
L 1831 4666 
z
" transform="scale(0.015625)"/>
      <path id="DejaVuSans-53" d="M 3425 4513 
L 3425 3897 
Q 3066 4069 2747 4153 
Q 2428 4238 2131 4238 
Q 1616 4238 1336 4038 
Q 1056 3838 1056 3469 
Q 1056 3159 1242 3001 
Q 1428 2844 1947 2747 
L 2328 2669 
Q 3034 2534 3370 2195 
Q 3706 1856 3706 1288 
Q 3706 609 3251 259 
Q 2797 -91 1919 -91 
Q 1588 -91 1214 -16 
Q 841 59 441 206 
L 441 856 
Q 825 641 1194 531 
Q 1563 422 1919 422 
Q 2459 422 2753 634 
Q 3047 847 3047 1241 
Q 3047 1584 2836 1778 
Q 2625 1972 2144 2069 
L 1759 2144 
Q 1053 2284 737 2584 
Q 422 2884 422 3419 
Q 422 4038 858 4394 
Q 1294 4750 2059 4750 
Q 2388 4750 2728 4690 
Q 3069 4631 3425 4513 
z
" transform="scale(0.015625)"/>
      <path id="DejaVuSans-44" d="M 1259 4147 
L 1259 519 
L 2022 519 
Q 2988 519 3436 956 
Q 3884 1394 3884 2338 
Q 3884 3275 3436 3711 
Q 2988 4147 2022 4147 
L 1259 4147 
z
M 628 4666 
L 1925 4666 
Q 3281 4666 3915 4102 
Q 4550 3538 4550 2338 
Q 4550 1131 3912 565 
Q 3275 0 1925 0 
L 628 0 
L 628 4666 
z
" transform="scale(0.015625)"/>
      <path id="DejaVuSans-51" d="M 2522 4238 
Q 1834 4238 1429 3725 
Q 1025 3213 1025 2328 
Q 1025 1447 1429 934 
Q 1834 422 2522 422 
Q 3209 422 3611 934 
Q 4013 1447 4013 2328 
Q 4013 3213 3611 3725 
Q 3209 4238 2522 4238 
z
M 3406 84 
L 4238 -825 
L 3475 -825 
L 2784 -78 
Q 2681 -84 2626 -87 
Q 2572 -91 2522 -91 
Q 1538 -91 948 567 
Q 359 1225 359 2328 
Q 359 3434 948 4092 
Q 1538 4750 2522 4750 
Q 3503 4750 4090 4092 
Q 4678 3434 4678 2328 
Q 4678 1516 4351 937 
Q 4025 359 3406 84 
z
" transform="scale(0.015625)"/>
     </defs>
     <use xlink:href="#DejaVuSans-4e"/>
     <use xlink:href="#DejaVuSans-41" x="74.804688"/>
     <use xlink:href="#DejaVuSans-53" x="143.212891"/>
     <use xlink:href="#DejaVuSans-44" x="206.689453"/>
     <use xlink:href="#DejaVuSans-41" x="281.941406"/>
     <use xlink:href="#DejaVuSans-51" x="348.599609"/>
    </g>
   </g>
  </g>
 </g>
 <defs>
  <clipPath id="p8d0da88a76">
   <rect x="43.09" y="26.88" width="303.827828" height="141.791221"/>
  </clipPath>
 </defs>
</svg>
