<?xml version="1.0" encoding="utf-8" standalone="no"?>
<!DOCTYPE svg PUBLIC "-//W3C//DTD SVG 1.1//EN"
  "http://www.w3.org/Graphics/SVG/1.1/DTD/svg11.dtd">
<svg xmlns:xlink="http://www.w3.org/1999/xlink" width="360pt" height="216pt" viewBox="0 0 360 216" xmlns="http://www.w3.org/2000/svg" version="1.1">
 <metadata>
  <rdf:RDF xmlns:dc="http://purl.org/dc/elements/1.1/" xmlns:cc="http://creativecommons.org/ns#" xmlns:rdf="http://www.w3.org/1999/02/22-rdf-syntax-ns#">
   <cc:Work>
    <dc:type rdf:resource="http://purl.org/dc/dcmitype/StillImage"/>
    <dc:date>2022-08-15T20:37:35.751359</dc:date>
    <dc:format>image/svg+xml</dc:format>
    <dc:creator>
     <cc:Agent>
      <dc:title>Matplotlib v3.5.2, https://matplotlib.org/</dc:title>
     </cc:Agent>
    </dc:creator>
   </cc:Work>
  </rdf:RDF>
 </metadata>
 <defs>
  <style type="text/css">*{stroke-linejoin: round; stroke-linecap: butt}</style>
 </defs>
 <g id="figure_1">
  <g id="patch_1">
   <path d="M 0 216 
L 360 216 
L 360 0 
L 0 0 
L 0 216 
z
" style="fill: none"/>
  </g>
  <g id="axes_1">
   <g id="patch_2">
    <path d="M 30.55 168.589904 
L 347.026103 168.589904 
L 347.026103 26.8 
L 30.55 26.8 
z
" style="fill: #ffffff"/>
   </g>
   <g id="matplotlib.axis_1">
    <g id="xtick_1">
     <g id="line2d_1">
      <defs>
       <path id="m7104e420a6" d="M 0 0 
L 0 3.5 
" style="stroke: #000000; stroke-width: 0.8"/>
      </defs>
      <g>
       <use xlink:href="#m7104e420a6" x="44.777544" y="168.589904" style="stroke: #000000; stroke-width: 0.8"/>
      </g>
     </g>
     <g id="text_1">
      <!-- '98-01 -->
      <g transform="translate(35.483509 203.453225)rotate(-45)scale(0.1 -0.1)">
       <defs>
        <path id="DejaVuSans-27" d="M 1147 4666 
L 1147 2931 
L 616 2931 
L 616 4666 
L 1147 4666 
z
" transform="scale(0.015625)"/>
        <path id="DejaVuSans-39" d="M 703 97 
L 703 672 
Q 941 559 1184 500 
Q 1428 441 1663 441 
Q 2288 441 2617 861 
Q 2947 1281 2994 2138 
Q 2813 1869 2534 1725 
Q 2256 1581 1919 1581 
Q 1219 1581 811 2004 
Q 403 2428 403 3163 
Q 403 3881 828 4315 
Q 1253 4750 1959 4750 
Q 2769 4750 3195 4129 
Q 3622 3509 3622 2328 
Q 3622 1225 3098 567 
Q 2575 -91 1691 -91 
Q 1453 -91 1209 -44 
Q 966 3 703 97 
z
M 1959 2075 
Q 2384 2075 2632 2365 
Q 2881 2656 2881 3163 
Q 2881 3666 2632 3958 
Q 2384 4250 1959 4250 
Q 1534 4250 1286 3958 
Q 1038 3666 1038 3163 
Q 1038 2656 1286 2365 
Q 1534 2075 1959 2075 
z
" transform="scale(0.015625)"/>
        <path id="DejaVuSans-38" d="M 2034 2216 
Q 1584 2216 1326 1975 
Q 1069 1734 1069 1313 
Q 1069 891 1326 650 
Q 1584 409 2034 409 
Q 2484 409 2743 651 
Q 3003 894 3003 1313 
Q 3003 1734 2745 1975 
Q 2488 2216 2034 2216 
z
M 1403 2484 
Q 997 2584 770 2862 
Q 544 3141 544 3541 
Q 544 4100 942 4425 
Q 1341 4750 2034 4750 
Q 2731 4750 3128 4425 
Q 3525 4100 3525 3541 
Q 3525 3141 3298 2862 
Q 3072 2584 2669 2484 
Q 3125 2378 3379 2068 
Q 3634 1759 3634 1313 
Q 3634 634 3220 271 
Q 2806 -91 2034 -91 
Q 1263 -91 848 271 
Q 434 634 434 1313 
Q 434 1759 690 2068 
Q 947 2378 1403 2484 
z
M 1172 3481 
Q 1172 3119 1398 2916 
Q 1625 2713 2034 2713 
Q 2441 2713 2670 2916 
Q 2900 3119 2900 3481 
Q 2900 3844 2670 4047 
Q 2441 4250 2034 4250 
Q 1625 4250 1398 4047 
Q 1172 3844 1172 3481 
z
" transform="scale(0.015625)"/>
        <path id="DejaVuSans-2d" d="M 313 2009 
L 1997 2009 
L 1997 1497 
L 313 1497 
L 313 2009 
z
" transform="scale(0.015625)"/>
        <path id="DejaVuSans-30" d="M 2034 4250 
Q 1547 4250 1301 3770 
Q 1056 3291 1056 2328 
Q 1056 1369 1301 889 
Q 1547 409 2034 409 
Q 2525 409 2770 889 
Q 3016 1369 3016 2328 
Q 3016 3291 2770 3770 
Q 2525 4250 2034 4250 
z
M 2034 4750 
Q 2819 4750 3233 4129 
Q 3647 3509 3647 2328 
Q 3647 1150 3233 529 
Q 2819 -91 2034 -91 
Q 1250 -91 836 529 
Q 422 1150 422 2328 
Q 422 3509 836 4129 
Q 1250 4750 2034 4750 
z
" transform="scale(0.015625)"/>
        <path id="DejaVuSans-31" d="M 794 531 
L 1825 531 
L 1825 4091 
L 703 3866 
L 703 4441 
L 1819 4666 
L 2450 4666 
L 2450 531 
L 3481 531 
L 3481 0 
L 794 0 
L 794 531 
z
" transform="scale(0.015625)"/>
       </defs>
       <use xlink:href="#DejaVuSans-27"/>
       <use xlink:href="#DejaVuSans-39" x="27.490234"/>
       <use xlink:href="#DejaVuSans-38" x="91.113281"/>
       <use xlink:href="#DejaVuSans-2d" x="154.736328"/>
       <use xlink:href="#DejaVuSans-30" x="190.820312"/>
       <use xlink:href="#DejaVuSans-31" x="254.443359"/>
      </g>
     </g>
    </g>
    <g id="xtick_2">
     <g id="line2d_2">
      <g>
       <use xlink:href="#m7104e420a6" x="102.3502" y="168.589904" style="stroke: #000000; stroke-width: 0.8"/>
      </g>
     </g>
     <g id="text_2">
      <!-- '99-01 -->
      <g transform="translate(93.056166 203.453225)rotate(-45)scale(0.1 -0.1)">
       <use xlink:href="#DejaVuSans-27"/>
       <use xlink:href="#DejaVuSans-39" x="27.490234"/>
       <use xlink:href="#DejaVuSans-39" x="91.113281"/>
       <use xlink:href="#DejaVuSans-2d" x="154.736328"/>
       <use xlink:href="#DejaVuSans-30" x="190.820312"/>
       <use xlink:href="#DejaVuSans-31" x="254.443359"/>
      </g>
     </g>
    </g>
    <g id="xtick_3">
     <g id="line2d_3">
      <g>
       <use xlink:href="#m7104e420a6" x="159.922857" y="168.589904" style="stroke: #000000; stroke-width: 0.8"/>
      </g>
     </g>
     <g id="text_3">
      <!-- '00-01 -->
      <g transform="translate(150.628822 203.453225)rotate(-45)scale(0.1 -0.1)">
       <use xlink:href="#DejaVuSans-27"/>
       <use xlink:href="#DejaVuSans-30" x="27.490234"/>
       <use xlink:href="#DejaVuSans-30" x="91.113281"/>
       <use xlink:href="#DejaVuSans-2d" x="154.736328"/>
       <use xlink:href="#DejaVuSans-30" x="190.820312"/>
       <use xlink:href="#DejaVuSans-31" x="254.443359"/>
      </g>
     </g>
    </g>
    <g id="xtick_4">
     <g id="line2d_4">
      <g>
       <use xlink:href="#m7104e420a6" x="217.653246" y="168.589904" style="stroke: #000000; stroke-width: 0.8"/>
      </g>
     </g>
     <g id="text_4">
      <!-- '01-01 -->
      <g transform="translate(208.359212 203.453225)rotate(-45)scale(0.1 -0.1)">
       <use xlink:href="#DejaVuSans-27"/>
       <use xlink:href="#DejaVuSans-30" x="27.490234"/>
       <use xlink:href="#DejaVuSans-31" x="91.113281"/>
       <use xlink:href="#DejaVuSans-2d" x="154.736328"/>
       <use xlink:href="#DejaVuSans-30" x="190.820312"/>
       <use xlink:href="#DejaVuSans-31" x="254.443359"/>
      </g>
     </g>
    </g>
    <g id="xtick_5">
     <g id="line2d_5">
      <g>
       <use xlink:href="#m7104e420a6" x="275.225903" y="168.589904" style="stroke: #000000; stroke-width: 0.8"/>
      </g>
     </g>
     <g id="text_5">
      <!-- '02-01 -->
      <g transform="translate(265.931868 203.453225)rotate(-45)scale(0.1 -0.1)">
       <defs>
        <path id="DejaVuSans-32" d="M 1228 531 
L 3431 531 
L 3431 0 
L 469 0 
L 469 531 
Q 828 903 1448 1529 
Q 2069 2156 2228 2338 
Q 2531 2678 2651 2914 
Q 2772 3150 2772 3378 
Q 2772 3750 2511 3984 
Q 2250 4219 1831 4219 
Q 1534 4219 1204 4116 
Q 875 4013 500 3803 
L 500 4441 
Q 881 4594 1212 4672 
Q 1544 4750 1819 4750 
Q 2544 4750 2975 4387 
Q 3406 4025 3406 3419 
Q 3406 3131 3298 2873 
Q 3191 2616 2906 2266 
Q 2828 2175 2409 1742 
Q 1991 1309 1228 531 
z
" transform="scale(0.015625)"/>
       </defs>
       <use xlink:href="#DejaVuSans-27"/>
       <use xlink:href="#DejaVuSans-30" x="27.490234"/>
       <use xlink:href="#DejaVuSans-32" x="91.113281"/>
       <use xlink:href="#DejaVuSans-2d" x="154.736328"/>
       <use xlink:href="#DejaVuSans-30" x="190.820312"/>
       <use xlink:href="#DejaVuSans-31" x="254.443359"/>
      </g>
     </g>
    </g>
    <g id="xtick_6">
     <g id="line2d_6">
      <g>
       <use xlink:href="#m7104e420a6" x="332.798559" y="168.589904" style="stroke: #000000; stroke-width: 0.8"/>
      </g>
     </g>
     <g id="text_6">
      <!-- '03-01 -->
      <g transform="translate(323.504524 203.453225)rotate(-45)scale(0.1 -0.1)">
       <defs>
        <path id="DejaVuSans-33" d="M 2597 2516 
Q 3050 2419 3304 2112 
Q 3559 1806 3559 1356 
Q 3559 666 3084 287 
Q 2609 -91 1734 -91 
Q 1441 -91 1130 -33 
Q 819 25 488 141 
L 488 750 
Q 750 597 1062 519 
Q 1375 441 1716 441 
Q 2309 441 2620 675 
Q 2931 909 2931 1356 
Q 2931 1769 2642 2001 
Q 2353 2234 1838 2234 
L 1294 2234 
L 1294 2753 
L 1863 2753 
Q 2328 2753 2575 2939 
Q 2822 3125 2822 3475 
Q 2822 3834 2567 4026 
Q 2313 4219 1838 4219 
Q 1578 4219 1281 4162 
Q 984 4106 628 3988 
L 628 4550 
Q 988 4650 1302 4700 
Q 1616 4750 1894 4750 
Q 2613 4750 3031 4423 
Q 3450 4097 3450 3541 
Q 3450 3153 3228 2886 
Q 3006 2619 2597 2516 
z
" transform="scale(0.015625)"/>
       </defs>
       <use xlink:href="#DejaVuSans-27"/>
       <use xlink:href="#DejaVuSans-30" x="27.490234"/>
       <use xlink:href="#DejaVuSans-33" x="91.113281"/>
       <use xlink:href="#DejaVuSans-2d" x="154.736328"/>
       <use xlink:href="#DejaVuSans-30" x="190.820312"/>
       <use xlink:href="#DejaVuSans-31" x="254.443359"/>
      </g>
     </g>
    </g>
   </g>
   <g id="matplotlib.axis_2">
    <g id="ytick_1">
     <g id="line2d_7">
      <defs>
       <path id="m190be7eb0e" d="M 0 0 
L -3.5 0 
" style="stroke: #000000; stroke-width: 0.8"/>
      </defs>
      <g>
       <use xlink:href="#m190be7eb0e" x="30.55" y="166.148617" style="stroke: #000000; stroke-width: 0.8"/>
      </g>
     </g>
     <g id="text_7">
      <!-- 10 -->
      <g transform="translate(10.825 169.947836)scale(0.1 -0.1)">
       <use xlink:href="#DejaVuSans-31"/>
       <use xlink:href="#DejaVuSans-30" x="63.623047"/>
      </g>
     </g>
    </g>
    <g id="ytick_2">
     <g id="line2d_8">
      <g>
       <use xlink:href="#m190be7eb0e" x="30.55" y="141.735755" style="stroke: #000000; stroke-width: 0.8"/>
      </g>
     </g>
     <g id="text_8">
      <!-- 15 -->
      <g transform="translate(10.825 145.534974)scale(0.1 -0.1)">
       <defs>
        <path id="DejaVuSans-35" d="M 691 4666 
L 3169 4666 
L 3169 4134 
L 1269 4134 
L 1269 2991 
Q 1406 3038 1543 3061 
Q 1681 3084 1819 3084 
Q 2600 3084 3056 2656 
Q 3513 2228 3513 1497 
Q 3513 744 3044 326 
Q 2575 -91 1722 -91 
Q 1428 -91 1123 -41 
Q 819 9 494 109 
L 494 744 
Q 775 591 1075 516 
Q 1375 441 1709 441 
Q 2250 441 2565 725 
Q 2881 1009 2881 1497 
Q 2881 1984 2565 2268 
Q 2250 2553 1709 2553 
Q 1456 2553 1204 2497 
Q 953 2441 691 2322 
L 691 4666 
z
" transform="scale(0.015625)"/>
       </defs>
       <use xlink:href="#DejaVuSans-31"/>
       <use xlink:href="#DejaVuSans-35" x="63.623047"/>
      </g>
     </g>
    </g>
    <g id="ytick_3">
     <g id="line2d_9">
      <g>
       <use xlink:href="#m190be7eb0e" x="30.55" y="117.322893" style="stroke: #000000; stroke-width: 0.8"/>
      </g>
     </g>
     <g id="text_9">
      <!-- 20 -->
      <g transform="translate(10.825 121.122112)scale(0.1 -0.1)">
       <use xlink:href="#DejaVuSans-32"/>
       <use xlink:href="#DejaVuSans-30" x="63.623047"/>
      </g>
     </g>
    </g>
    <g id="ytick_4">
     <g id="line2d_10">
      <g>
       <use xlink:href="#m190be7eb0e" x="30.55" y="92.910031" style="stroke: #000000; stroke-width: 0.8"/>
      </g>
     </g>
     <g id="text_10">
      <!-- 25 -->
      <g transform="translate(10.825 96.70925)scale(0.1 -0.1)">
       <use xlink:href="#DejaVuSans-32"/>
       <use xlink:href="#DejaVuSans-35" x="63.623047"/>
      </g>
     </g>
    </g>
    <g id="ytick_5">
     <g id="line2d_11">
      <g>
       <use xlink:href="#m190be7eb0e" x="30.55" y="68.497169" style="stroke: #000000; stroke-width: 0.8"/>
      </g>
     </g>
     <g id="text_11">
      <!-- 30 -->
      <g transform="translate(10.825 72.296387)scale(0.1 -0.1)">
       <use xlink:href="#DejaVuSans-33"/>
       <use xlink:href="#DejaVuSans-30" x="63.623047"/>
      </g>
     </g>
    </g>
    <g id="ytick_6">
     <g id="line2d_12">
      <g>
       <use xlink:href="#m190be7eb0e" x="30.55" y="44.084306" style="stroke: #000000; stroke-width: 0.8"/>
      </g>
     </g>
     <g id="text_12">
      <!-- 35 -->
      <g transform="translate(10.825 47.883525)scale(0.1 -0.1)">
       <use xlink:href="#DejaVuSans-33"/>
       <use xlink:href="#DejaVuSans-35" x="63.623047"/>
      </g>
     </g>
    </g>
   </g>
   <g id="line2d_13">
    <path d="M 44.935277 129.968756 
L 45.408477 132.214739 
L 45.566211 133.728336 
L 45.881677 131.921785 
L 46.039411 133.679511 
L 46.51261 134.265419 
L 46.670344 134.704851 
L 46.828077 134.216594 
L 46.98581 135.144282 
L 47.143544 134.509548 
L 47.774477 134.753677 
L 48.089944 137.194963 
L 48.247677 138.562083 
L 48.720877 132.165913 
L 48.87861 131.677656 
L 49.036343 130.26171 
L 49.194077 127.429818 
L 49.35181 130.94527 
L 49.82501 131.62883 
L 49.982743 134.753677 
L 50.140476 134.802502 
L 50.455943 133.337731 
L 50.929143 133.972465 
L 51.086876 134.509548 
L 51.402343 136.99966 
L 51.560076 136.706706 
L 52.191009 138.610909 
L 52.348743 135.681365 
L 52.506476 136.267274 
L 52.664209 136.218448 
L 53.295143 141.052195 
L 53.610609 139.7339 
L 53.768343 139.587423 
L 54.399276 140.368635 
L 54.714742 140.075681 
L 54.872476 142.224012 
L 55.661142 145.153556 
L 55.818875 144.665299 
L 55.976609 145.690639 
L 56.449809 149.499045 
L 56.607542 148.229576 
L 56.765275 144.860601 
L 56.923009 144.518821 
L 57.080742 145.10473 
L 57.553942 136.169623 
L 57.711675 139.196817 
L 57.869408 133.484208 
L 58.027142 132.361216 
L 58.184875 132.751822 
L 58.658075 135.29076 
L 58.815808 138.073826 
L 58.973542 138.36678 
L 59.131275 136.65788 
L 59.289008 136.462577 
L 59.919941 139.831552 
L 60.077675 138.269129 
L 60.235408 138.757386 
L 60.866341 140.026855 
L 61.024075 140.856892 
L 61.339541 136.99966 
L 61.497274 139.343295 
L 61.970474 139.196817 
L 62.128208 138.952689 
L 62.285941 141.393975 
L 62.443674 151.061468 
L 62.601408 150.377908 
L 63.232341 137.34144 
L 63.390074 139.636249 
L 63.547807 139.001515 
L 63.705541 135.63254 
L 64.178741 136.950834 
L 64.336474 139.39212 
L 64.494207 139.538598 
L 64.651941 140.466286 
L 64.809674 140.710415 
L 65.282874 140.466286 
L 65.440607 140.710415 
L 65.59834 141.686929 
L 65.756074 141.003369 
L 65.913807 144.128216 
L 66.387007 145.885942 
L 66.54474 151.452074 
L 66.702474 149.743174 
L 67.01794 142.663444 
L 67.648873 142.224012 
L 67.806607 141.833407 
L 67.96434 142.321664 
L 68.122073 140.710415 
L 68.595273 141.784581 
L 68.753006 142.663444 
L 68.91074 142.028709 
L 69.068473 140.563938 
L 69.226206 141.101021 
L 69.699406 144.225867 
L 70.172606 153.112149 
L 70.33034 153.160975 
L 70.803539 157.89707 
L 70.961273 154.528095 
L 71.119006 153.698058 
L 71.276739 157.359987 
L 71.434473 157.359987 
L 71.907673 148.864311 
L 72.065406 143.444655 
L 72.223139 143.981738 
L 72.380873 147.106585 
L 72.538606 145.592987 
L 73.169539 145.153556 
L 73.485006 143.786436 
L 74.115939 147.253062 
L 74.273672 147.448365 
L 74.431405 146.569502 
L 74.589139 146.569502 
L 74.746872 146.81363 
L 75.220072 146.325373 
L 75.377805 142.37049 
L 75.535539 142.224012 
L 75.851005 146.520676 
L 76.324205 149.352568 
L 76.639672 145.202382 
L 76.797405 146.764805 
L 76.955138 146.960108 
L 77.428338 144.811776 
L 77.743805 145.983593 
L 77.901538 145.397684 
L 78.059271 145.300033 
L 78.532471 146.960108 
L 78.690205 148.131925 
L 79.005671 147.253062 
L 79.163405 147.350713 
L 79.952071 152.672717 
L 80.109804 149.352568 
L 80.740738 150.231431 
L 80.898471 150.866166 
L 81.056204 150.47556 
L 81.213938 148.473705 
L 81.371671 149.352568 
L 82.002604 147.106585 
L 82.318071 149.792 
L 82.475804 148.864311 
L 82.949004 150.084954 
L 83.264471 147.985448 
L 83.422204 143.200527 
L 83.579937 143.73761 
L 84.21087 144.958253 
L 84.368604 144.811776 
L 84.526337 143.151701 
L 84.68407 144.714124 
L 85.15727 144.372344 
L 85.315004 143.102875 
L 85.472737 143.688784 
L 85.788203 139.147992 
L 86.261403 138.903863 
L 86.734603 136.902008 
L 86.892337 137.829697 
L 87.365536 138.122652 
L 87.681003 135.925494 
L 87.838736 139.196817 
L 87.99647 138.269129 
L 88.46967 140.563938 
L 88.627403 138.806212 
L 88.94287 143.835261 
L 89.100603 143.493481 
L 89.573803 144.323519 
L 89.889269 146.178896 
L 90.047003 146.227722 
L 90.204736 145.837116 
L 90.677936 149.596697 
L 90.835669 149.303742 
L 90.993402 145.934767 
L 91.151136 146.618328 
L 91.308869 146.325373 
L 91.782069 144.714124 
L 91.939802 145.690639 
L 92.097536 144.909427 
L 92.255269 145.10473 
L 92.413002 144.274693 
L 92.886202 144.42117 
L 93.359402 146.960108 
L 93.517135 146.960108 
L 93.990335 149.596697 
L 94.305802 148.424879 
L 94.463535 146.423025 
L 94.621269 148.717834 
L 95.567668 155.358132 
L 95.725402 155.406958 
L 96.198602 153.893361 
L 96.514068 161.949605 
L 97.302735 159.459493 
L 97.460468 159.94775 
L 97.618201 159.752447 
L 97.933668 160.28953 
L 98.406868 158.287676 
L 98.880068 162.144908 
L 99.037801 161.949605 
L 99.511001 159.801273 
L 99.668734 158.141199 
L 99.826468 153.698058 
L 99.984201 161.021916 
L 100.141934 161.510174 
L 100.615134 161.949605 
L 100.930601 160.680136 
L 101.088334 161.119568 
L 101.877001 157.262335 
L 102.034734 157.604116 
L 102.192467 155.699912 
L 102.8234 154.332792 
L 102.981134 156.18817 
L 103.138867 152.282112 
L 103.454334 151.207946 
L 103.927534 149.401394 
L 104.400733 155.260481 
L 105.1894 155.748738 
L 105.347133 157.262335 
L 105.504867 154.186315 
L 105.6626 153.356278 
L 106.1358 154.381618 
L 106.293533 155.602261 
L 106.766733 152.428589 
L 107.397666 155.358132 
L 107.5554 154.332792 
L 107.713133 156.676427 
L 107.870866 157.115858 
L 108.344066 158.092373 
L 108.501799 158.043547 
L 108.659533 156.969381 
L 108.817266 156.676427 
L 108.974999 156.87173 
L 109.605932 159.410667 
L 109.763666 158.873584 
L 109.921399 156.52995 
L 110.079132 157.408813 
L 110.552332 156.52995 
L 110.710066 154.235141 
L 110.867799 153.991012 
L 111.025532 153.405103 
L 111.183266 154.869875 
L 111.656465 155.016352 
L 112.129665 149.938477 
L 112.287399 149.889651 
L 112.918332 147.692494 
L 113.076065 143.005224 
L 113.233799 145.153556 
L 113.391532 144.128216 
L 113.864732 144.274693 
L 114.022465 143.688784 
L 114.180198 141.198672 
L 114.337932 141.198672 
L 114.495665 140.466286 
L 114.968865 139.831552 
L 115.126598 139.978029 
L 115.284331 140.856892 
L 115.599798 136.071971 
L 116.072998 134.607199 
L 116.230731 133.630685 
L 116.546198 133.679511 
L 117.177131 132.263565 
L 117.334864 132.99595 
L 117.492598 136.755531 
L 117.650331 137.243788 
L 117.808064 133.972465 
L 118.281264 134.704851 
L 118.438998 133.288905 
L 118.596731 134.363071 
L 118.912197 130.310536 
L 119.385397 127.966901 
L 119.543131 128.113378 
L 119.700864 126.843909 
L 120.016331 127.283341 
L 120.489531 128.699287 
L 120.647264 127.966901 
L 120.804997 124.988532 
L 121.120464 123.719063 
L 121.593664 123.035503 
L 121.751397 122.49842 
L 121.90913 122.742548 
L 122.066864 125.965046 
L 122.224597 125.965046 
L 122.697797 124.304972 
L 123.013263 129.822278 
L 123.170997 126.550955 
L 123.32873 126.892735 
L 123.80193 128.259855 
L 124.117397 133.093602 
L 124.432863 130.896444 
L 124.906063 133.093602 
L 125.063796 130.749967 
L 125.22153 130.408187 
L 125.379263 131.091747 
L 125.536996 132.702996 
L 126.16793 135.339585 
L 127.114329 127.527469 
L 127.272063 128.748112 
L 127.429796 127.185689 
L 127.587529 127.966901 
L 127.745263 124.89088 
L 128.218462 125.91622 
L 128.376196 124.109669 
L 128.533929 127.478644 
L 128.691662 125.867395 
L 128.849396 127.039212 
L 129.322596 128.113378 
L 129.480329 128.943415 
L 129.638062 125.037357 
L 129.953529 126.258001 
L 130.426729 126.013872 
L 130.584462 124.353797 
L 130.742195 120.594216 
L 130.899929 120.301262 
L 131.057662 118.787665 
L 131.688595 118.397059 
L 131.846329 117.420544 
L 132.004062 118.49471 
L 132.161795 117.615847 
L 132.634995 117.713499 
L 132.792728 115.711644 
L 132.950462 117.859976 
L 133.265928 114.100395 
L 133.739128 115.955773 
L 133.896861 120.350088 
L 134.054595 119.568876 
L 134.212328 118.104105 
L 134.370061 115.321038 
L 134.843261 114.930432 
L 135.000995 115.369864 
L 135.158728 114.344524 
L 135.316461 112.000889 
L 135.474195 114.783955 
L 135.947394 115.07691 
L 136.105128 116.297553 
L 136.578328 112.977403 
L 137.366994 109.803731 
L 137.524727 110.38964 
L 137.682461 109.168997 
L 138.155661 110.780246 
L 138.313394 109.02252 
L 138.471127 109.803731 
L 138.628861 108.241308 
L 138.786594 109.217823 
L 139.259794 109.461951 
L 139.417527 110.682594 
L 139.57526 114.100395 
L 139.890727 110.926723 
L 140.52166 106.825362 
L 140.837127 109.803731 
L 140.99486 107.557748 
L 141.783527 104.432902 
L 142.098993 99.989761 
L 142.572193 96.91374 
L 142.729927 98.476163 
L 142.88766 97.304346 
L 143.203126 94.277151 
L 143.676326 96.23018 
L 143.83406 95.448968 
L 143.991793 96.523134 
L 144.149526 94.081848 
L 144.30726 93.83772 
L 144.78046 94.716583 
L 144.938193 95.253666 
L 145.095926 94.423628 
L 145.253659 95.156014 
L 145.411393 95.302491 
L 146.200059 101.503358 
L 146.357793 105.311765 
L 146.515526 113.368009 
L 146.988726 109.608429 
L 147.146459 103.016956 
L 147.304192 103.016956 
L 147.461926 105.311765 
L 147.619659 103.602864 
L 148.408326 106.532408 
L 148.723792 100.331541 
L 149.354725 101.845138 
L 149.512459 104.091122 
L 149.670192 109.559603 
L 150.458859 105.165288 
L 150.616592 104.67703 
L 150.774325 101.845138 
L 150.932058 103.016956 
L 151.405258 101.308055 
L 151.562992 96.767263 
L 151.720725 95.986051 
L 151.878458 96.181354 
L 152.036192 93.349462 
L 152.509391 91.396433 
L 152.824858 85.244392 
L 152.982591 89.443404 
L 153.140325 85.049089 
L 153.613525 78.115836 
L 153.771258 83.584317 
L 153.928991 82.07072 
L 154.244458 82.07072 
L 154.717658 88.80867 
L 154.875391 93.544765 
L 155.033124 92.861205 
L 155.190858 88.613367 
L 155.348591 89.443404 
L 155.821791 84.756135 
L 155.979524 86.269732 
L 156.137257 84.658483 
L 156.452724 91.884691 
L 156.925924 91.103479 
L 157.399124 84.414355 
L 157.556857 84.316703 
L 158.030057 85.342044 
L 158.18779 86.367384 
L 158.345524 90.419919 
L 158.503257 88.711018 
L 159.13419 86.269732 
L 159.291924 84.072575 
L 159.60739 89.199276 
L 160.396057 90.17579 
L 160.55379 94.618931 
L 160.711523 93.935371 
L 160.869257 93.935371 
L 161.342457 94.325977 
L 161.657923 86.562687 
L 161.815656 84.951438 
L 161.97339 78.213488 
L 162.762056 72.842658 
L 162.91979 70.108418 
L 163.077523 69.913115 
L 163.550723 72.159098 
L 163.708456 67.130048 
L 163.866189 79.922388 
L 164.023923 82.07072 
L 164.181656 81.826591 
L 164.654856 79.971214 
L 164.812589 76.895193 
L 164.970323 80.605948 
L 165.285789 74.99099 
L 165.758989 76.309284 
L 165.916722 78.018185 
L 166.232189 70.987281 
L 166.389922 70.889629 
L 166.863122 67.032397 
L 167.178589 68.448343 
L 167.336322 71.573189 
L 167.494055 70.889629 
L 168.124989 70.30372 
L 168.282722 67.56948 
L 168.440455 67.374177 
L 168.598189 66.837094 
L 169.071389 67.960086 
L 169.229122 65.714102 
L 169.386855 60.14797 
L 169.544588 61.124484 
L 169.702322 61.368613 
L 170.175522 57.804335 
L 170.333255 49.455136 
L 170.490988 62.54043 
L 170.806455 59.903841 
L 171.279655 58.194941 
L 171.437388 59.073804 
L 171.595121 66.20236 
L 171.752855 63.126339 
L 171.910588 64.298156 
L 172.383788 71.768492 
L 172.699255 81.777766 
L 172.856988 80.850077 
L 173.014721 78.945874 
L 173.487921 80.264168 
L 173.803388 86.269732 
L 174.118854 83.828446 
L 174.592054 86.660338 
L 174.749787 90.664047 
L 174.907521 89.199276 
L 175.065254 90.419919 
L 175.222987 93.056508 
L 175.696187 98.232035 
L 175.853921 96.962566 
L 176.011654 90.51757 
L 176.169387 91.494085 
L 176.80032 87.734504 
L 176.958054 88.418064 
L 177.115787 81.289508 
L 177.27352 81.72894 
L 177.904454 81.143031 
L 178.062187 86.025604 
L 178.21992 94.423628 
L 178.377654 90.322267 
L 178.535387 89.443404 
L 179.008587 88.80867 
L 179.16632 83.828446 
L 179.324053 85.097915 
L 179.63952 81.338334 
L 180.11272 78.018185 
L 180.270453 76.01633 
L 180.428186 77.774056 
L 180.743653 70.254895 
L 181.216853 68.741297 
L 181.374586 69.668986 
L 181.53232 71.524364 
L 181.690053 67.130048 
L 181.847786 68.399517 
L 182.320986 75.235119 
L 182.478719 75.283944 
L 182.794186 66.397662 
L 182.951919 69.668986 
L 183.582853 66.739443 
L 183.740586 73.233264 
L 183.898319 67.56948 
L 184.056052 66.837094 
L 184.686986 69.571335 
L 184.844719 71.963795 
L 185.633386 59.903841 
L 185.791119 55.167746 
L 186.106585 55.314223 
L 186.264319 57.023123 
L 186.737519 60.83153 
L 187.052985 50.724605 
L 187.210719 45.451427 
L 187.368452 45.256124 
L 187.841652 60.880356 
L 187.999385 58.683198 
L 188.157118 59.415584 
L 188.314852 55.167746 
L 188.472585 56.583692 
L 189.418985 67.56948 
L 189.576718 67.2277 
L 190.049918 70.889629 
L 190.207651 70.401372 
L 190.523118 61.612741 
L 190.680851 62.100999 
" clip-path="url(#p21df5f6fc5)" style="fill: none; stroke: #000000; stroke-width: 1.5; stroke-linecap: square"/>
   </g>
   <g id="line2d_14">
    <path d="M 191.154051 65.030542 
L 191.311785 59.024978 
L 191.469518 63.126339 
L 191.627251 63.907551 
L 191.784984 75.528073 
L 192.415918 78.799396 
L 192.573651 79.190002 
L 192.731384 77.236973 
L 192.889118 77.188148 
L 193.362317 80.7036 
L 193.677784 76.944019 
L 193.993251 68.790123 
L 194.466451 73.721521 
L 194.624184 72.110272 
L 194.939651 63.175165 
L 195.097384 63.516945 
L 195.570584 59.12263 
L 195.728317 61.51509 
L 195.88605 59.171455 
L 196.043784 59.317932 
L 196.201517 58.878501 
L 196.674717 56.681343 
L 196.83245 62.442779 
L 196.990184 62.491605 
L 197.147917 51.847597 
L 197.30565 48.918053 
L 197.936583 55.167746 
L 198.094317 52.628808 
L 198.25205 53.41002 
L 198.409783 51.798771 
L 199.040716 49.357485 
L 199.19845 44.230784 
L 199.356183 43.205443 
L 199.513916 50.822256 
L 199.987116 43.400746 
L 200.302583 49.601613 
L 200.460316 47.160327 
L 200.61805 39.836468 
L 201.406716 33.244996 
L 201.722183 55.509526 
L 202.195383 61.17331 
L 202.353116 59.80619 
L 202.510849 62.491605 
L 202.668582 67.2277 
L 202.826316 64.249331 
L 203.299516 58.487895 
L 203.457249 59.415584 
L 203.614982 64.054028 
L 203.772716 65.274671 
L 203.930449 64.298156 
L 204.403649 58.829675 
L 204.561382 52.433505 
L 204.719115 52.872937 
L 204.876849 38.90878 
L 205.034582 44.279609 
L 205.507782 52.970588 
L 205.823249 51.359339 
L 205.980982 53.556497 
L 206.138715 47.453281 
L 206.611915 44.572564 
L 206.769648 46.379115 
L 206.927382 50.822256 
L 207.085115 50.187522 
L 207.242848 54.923617 
L 207.716048 54.533011 
L 207.873782 55.314223 
L 208.031515 53.165891 
L 208.189248 55.851306 
L 208.346981 55.704829 
L 208.820181 53.7518 
L 208.977915 51.701119 
L 209.135648 54.240057 
L 209.293381 49.601613 
L 209.451115 48.72275 
L 209.924315 47.502107 
L 210.082048 45.451427 
L 210.239781 41.447717 
L 210.397514 44.865518 
L 210.555248 41.057112 
L 211.028448 39.299385 
L 211.186181 41.447717 
L 211.343914 38.90878 
L 211.659381 38.90878 
L 212.132581 38.029917 
L 212.290314 48.869227 
L 212.448047 46.134987 
L 212.763514 58.439069 
L 213.236714 62.247476 
L 213.394447 72.159098 
L 213.552181 67.325351 
L 213.867647 76.748716 
L 214.340847 69.717812 
L 214.49858 69.424857 
L 214.814047 77.969359 
L 214.97178 74.063301 
L 215.44498 70.840803 
L 215.602713 71.719666 
L 215.760447 88.857496 
L 216.075913 87.246247 
L 216.706847 83.144886 
L 217.022313 88.906321 
L 217.180047 84.512006 
L 217.81098 81.72894 
L 217.968713 78.604094 
L 218.126446 78.506442 
L 218.28418 78.164662 
L 218.75738 80.996554 
L 218.915113 79.629434 
L 219.072846 71.329061 
L 219.23058 71.329061 
L 219.388313 68.155389 
L 220.019246 67.56948 
L 220.176979 69.62016 
L 220.334713 66.446488 
L 220.492446 58.146115 
L 220.965646 57.706684 
L 221.281112 61.368613 
L 221.438846 60.636227 
L 221.596579 69.522509 
L 222.069779 73.037961 
L 222.227512 72.793832 
L 222.385246 75.235119 
L 222.700712 62.296302 
L 223.331645 67.178874 
L 223.647112 60.83153 
L 223.804845 63.956376 
L 224.278045 65.958231 
L 224.593512 70.694326 
L 224.751245 73.575044 
L 224.908978 72.305575 
L 225.539912 75.33277 
L 225.697645 75.137467 
L 225.855378 75.723376 
L 226.013112 74.209778 
L 226.486312 76.944019 
L 226.644045 76.992845 
L 226.801778 81.435986 
L 226.959511 79.336479 
L 227.117245 78.799396 
L 227.590445 75.283944 
L 227.748178 76.309284 
L 227.905911 73.62387 
L 228.221378 78.408791 
L 228.694578 78.701745 
L 228.852311 80.947728 
L 229.010044 85.634998 
L 229.325511 84.707309 
L 229.956444 88.076284 
L 230.114178 85.927952 
L 230.271911 87.09977 
L 230.429644 81.631288 
L 230.902844 81.191857 
L 231.060577 80.117691 
L 231.218311 85.927952 
L 231.376044 85.732649 
L 231.533777 86.220907 
L 232.006977 89.49223 
L 232.322444 82.363674 
L 232.480177 81.973069 
L 232.63791 82.803106 
L 233.11111 80.947728 
L 233.268844 75.967504 
L 233.426577 76.211633 
L 233.58431 74.600384 
L 234.215243 74.30743 
L 234.372977 78.799396 
L 234.53071 79.092351 
L 234.688443 78.652919 
L 234.846177 83.144886 
L 235.319377 83.291363 
L 235.47711 91.738213 
L 235.634843 88.369238 
L 235.792577 75.967504 
L 235.95031 76.553413 
L 236.42351 75.918679 
L 236.581243 76.455762 
L 236.738976 78.799396 
L 236.89671 75.039816 
L 237.685376 81.435986 
L 237.84311 76.35811 
L 238.158576 75.381596 
L 238.789509 73.867998 
L 238.947243 74.502733 
L 239.104976 73.28209 
L 239.262709 68.985426 
L 239.735909 68.692471 
L 239.893642 69.717812 
L 240.209109 78.408791 
L 240.366842 77.871708 
L 240.997776 74.551558 
L 241.155509 74.795687 
L 241.470976 78.848222 
L 241.944175 77.578753 
L 242.259642 80.410645 
L 242.575109 76.162807 
L 243.206042 72.745007 
L 243.363775 74.30743 
L 243.521508 72.793832 
L 243.679242 75.723376 
L 244.152442 80.459471 
L 244.310175 80.752425 
L 244.467908 85.488521 
L 244.783375 83.047234 
L 245.256575 82.607803 
L 245.414308 83.291363 
L 245.572041 89.638707 
L 245.729775 89.248101 
L 245.887508 86.220907 
L 246.360708 87.929807 
L 246.518441 86.660338 
L 246.833908 82.803106 
L 246.991641 77.774056 
L 247.464841 80.068865 
L 247.780308 82.803106 
L 248.568974 87.929807 
L 248.884441 94.618931 
L 249.042174 94.618931 
L 249.199907 89.638707 
L 249.673107 88.613367 
L 249.830841 87.148595 
L 249.988574 84.560832 
L 250.146307 84.414355 
L 250.304041 83.242537 
L 250.777241 85.097915 
L 251.092707 83.974923 
L 251.25044 78.945874 
L 251.408174 80.654774 
L 251.881374 79.727085 
L 252.039107 77.432276 
L 252.19684 80.117691 
L 252.354574 79.629434 
L 252.512307 77.676405 
L 252.985507 78.994699 
L 253.14324 77.774056 
L 253.300973 80.654774 
L 253.458707 80.850077 
L 253.61644 84.853786 
L 254.08964 82.168371 
L 254.247373 78.604094 
L 254.405107 82.314849 
L 254.56284 89.83401 
L 254.720573 76.602239 
L 255.193773 84.658483 
L 255.351506 82.363674 
L 255.50924 82.803106 
L 255.666973 84.853786 
L 255.824706 84.853786 
L 256.613373 82.998409 
L 256.928839 78.311139 
L 257.402039 79.922388 
L 257.717506 80.02004 
L 258.032973 70.499023 
L 258.506172 74.160953 
L 258.821639 84.46318 
L 258.979372 85.097915 
L 259.610306 110.194337 
L 259.768039 109.3643 
L 260.241239 100.526844 
L 260.714439 102.089267 
L 261.029905 106.727711 
L 261.187639 104.139947 
L 261.345372 105.995325 
L 261.818572 106.337105 
L 261.976305 104.872333 
L 262.134038 105.067636 
L 262.291772 100.282715 
L 262.449505 105.165288 
L 262.922705 105.751196 
L 263.395905 110.829072 
L 263.553638 107.606574 
L 264.026838 108.631914 
L 264.184571 111.0732 
L 264.342305 107.557748 
L 264.500038 108.778391 
L 264.657771 107.215968 
L 265.130971 107.069491 
L 265.288705 108.387785 
L 265.761905 116.151076 
L 266.392838 117.664673 
L 266.550571 116.78581 
L 266.866038 106.434756 
L 267.339238 111.170852 
L 267.496971 109.70608 
L 267.812437 129.529324 
L 267.970171 126.648606 
L 268.443371 128.357507 
L 268.601104 123.621411 
L 268.758837 125.23266 
L 269.547504 123.719063 
L 269.705237 119.422399 
L 269.86297 120.398914 
L 270.020704 124.402623 
L 270.178437 119.959482 
L 270.651637 116.004598 
L 270.80937 118.738839 
L 270.967104 119.17827 
L 271.124837 123.719063 
L 271.28257 121.81486 
L 271.913503 126.892735 
L 272.071237 125.23266 
L 272.22897 126.111523 
L 272.386703 120.691868 
L 272.859903 120.838345 
L 273.017637 120.350088 
L 273.17537 120.398914 
L 273.333103 123.816714 
L 273.490836 120.740694 
L 274.279503 110.877897 
L 274.437236 112.09854 
L 274.59497 115.272213 
L 275.06817 117.518196 
L 275.383636 111.805586 
L 275.541369 114.149221 
L 275.699103 110.145511 
L 276.172303 110.38964 
L 276.487769 115.76047 
L 276.645503 114.979258 
L 276.803236 118.934142 
L 277.276436 122.791374 
L 277.434169 122.254291 
L 277.591902 122.400768 
L 277.749636 126.111523 
L 277.907369 126.990386 
L 278.538302 125.330312 
L 278.853769 119.422399 
L 279.011502 118.299407 
L 279.484702 117.078764 
L 279.642435 120.740694 
L 279.800169 121.668382 
L 280.115635 115.369864 
L 280.588835 117.225242 
L 280.746568 117.029939 
L 280.904302 118.445885 
L 281.062035 118.543536 
L 281.219768 116.10225 
L 281.692968 111.024375 
L 281.850702 113.612138 
L 282.008435 111.512632 
L 282.166168 111.512632 
L 282.323902 110.145511 
L 282.954835 113.563312 
L 283.112568 115.809296 
L 283.270301 113.368009 
L 283.428035 112.830926 
L 283.901235 116.151076 
L 284.058968 110.633769 
L 284.216701 110.487292 
L 284.532168 105.751196 
L 285.005368 104.872333 
L 285.163101 101.796313 
L 285.320834 101.112752 
L 285.636301 98.427338 
L 286.267234 95.107188 
L 286.424967 97.109043 
L 286.582701 95.448968 
L 286.740434 95.497794 
L 287.213634 92.763554 
L 287.371367 92.812379 
L 287.529101 93.300637 
L 287.686834 89.296927 
L 287.844567 90.17579 
L 288.633234 89.052799 
L 288.790967 87.002118 
L 289.4219 84.023749 
L 289.579634 79.482957 
L 289.737367 80.459471 
L 290.052833 87.002118 
L 290.526033 87.246247 
L 290.683767 90.712873 
L 290.8415 87.295072 
L 291.156967 100.185064 
L 291.7879 93.300637 
L 291.945633 88.320413 
L 292.103366 88.711018 
L 292.2611 85.927952 
L 292.7343 86.660338 
L 293.049766 86.660338 
L 293.2075 86.269732 
L 293.365233 82.558977 
L 293.838433 80.947728 
L 293.996166 81.582463 
L 294.311633 86.513861 
L 294.469366 84.365529 
L 294.942566 87.490375 
L 295.415766 79.336479 
L 295.573499 78.652919 
L 296.046699 75.235119 
L 296.204432 72.549704 
L 296.362166 77.432276 
L 296.519899 78.262313 
L 296.677632 77.334625 
L 297.150832 77.090496 
L 297.466299 83.09606 
L 297.624032 85.097915 
L 297.781765 84.658483 
L 298.412699 92.519425 
L 298.570432 89.785184 
L 298.728165 93.984197 
L 298.885899 91.103479 
L 299.359098 92.421774 
L 299.516832 91.347608 
L 299.832298 93.447114 
L 300.463232 96.620786 
L 300.620965 96.767263 
L 301.094165 88.515716 
L 301.567365 88.12511 
L 301.725098 91.152305 
L 301.882831 90.126964 
L 302.040565 89.882836 
L 302.198298 90.419919 
L 302.671498 86.513861 
L 302.829231 87.734504 
L 302.986965 84.756135 
L 303.144698 84.267878 
L 303.302431 84.170226 
L 303.775631 84.170226 
L 303.933364 83.974923 
L 304.091098 84.023749 
L 304.879764 87.343898 
L 305.037497 87.246247 
L 305.510697 80.801251 
L 305.983897 82.021894 
L 306.299364 78.848222 
L 306.457097 80.7036 
L 306.614831 79.092351 
L 307.08803 85.049089 
L 307.245764 85.049089 
L 307.403497 84.219052 
L 307.718964 85.342044 
L 308.192164 85.390869 
L 308.349897 81.04538 
L 308.665363 85.537346 
L 308.823097 83.77962 
L 309.296297 85.342044 
L 309.45403 82.266023 
L 309.611763 85.195566 
L 309.769497 84.756135 
L 309.92723 83.77962 
L 310.558163 76.553413 
L 310.715896 77.334625 
L 311.031363 72.207924 
L 311.82003 66.690617 
L 312.766429 74.160953 
L 312.924163 76.748716 
L 313.081896 74.209778 
L 313.239629 73.526218 
L 313.870563 79.434131 
L 314.343762 70.889629 
L 314.816962 69.473683 
L 314.974696 70.352546 
L 315.132429 69.62016 
L 315.290162 73.62387 
L 315.447896 69.327206 
L 315.921096 72.696181 
L 316.078829 72.989135 
L 316.236562 70.596675 
L 316.394295 70.987281 
L 316.552029 70.206069 
L 317.025229 64.346982 
L 317.340695 65.128194 
L 317.498429 66.983571 
L 317.656162 65.909405 
L 318.129362 65.616451 
L 318.287095 65.030542 
L 318.444828 65.616451 
L 318.602562 69.815463 
L 318.760295 70.206069 
L 319.233495 70.206069 
L 319.391228 70.6455 
L 319.706695 73.575044 
L 319.864428 71.622015 
L 320.337628 68.204214 
L 320.653095 72.012621 
L 320.810828 70.401372 
L 320.968561 70.6455 
L 321.599494 78.604094 
L 321.757228 77.334625 
L 321.914961 78.897048 
L 322.072694 82.705454 
L 322.545894 81.924243 
L 322.703628 84.072575 
L 322.861361 83.877272 
L 323.019094 82.266023 
L 323.176828 82.949583 
L 323.650027 83.681969 
L 323.965494 89.394579 
L 324.123227 91.152305 
L 324.280961 88.857496 
L 324.754161 87.929807 
L 324.911894 87.09977 
L 325.069627 91.54291 
L 325.385094 90.468745 
L 325.858294 84.560832 
L 326.016027 86.025604 
L 326.17376 83.144886 
L 326.331494 82.803106 
L 326.489227 79.580608 
L 327.12016 85.097915 
L 327.277893 83.77962 
L 328.224293 81.484811 
L 328.382027 84.1214 
L 328.53976 81.826591 
L 328.697493 82.998409 
L 329.170693 81.72894 
L 329.328426 79.580608 
L 329.48616 80.752425 
L 329.643893 77.285799 
L 329.801626 76.35811 
L 330.274826 67.764783 
L 330.43256 68.301866 
L 330.748026 65.714102 
L 330.905759 65.714102 
L 331.378959 58.292592 
L 331.536693 58.097289 
L 332.009893 55.411874 
L 332.640826 62.589256 
L 332.640826 62.589256 
" clip-path="url(#p21df5f6fc5)" style="fill: none; stroke: #d3d3d3; stroke-width: 1.5; stroke-linecap: square"/>
   </g>
   <g id="patch_3">
    <path d="M 30.55 168.589904 
L 30.55 26.8 
" style="fill: none; stroke: #000000; stroke-width: 0.8; stroke-linejoin: miter; stroke-linecap: square"/>
   </g>
   <g id="patch_4">
    <path d="M 347.026103 168.589904 
L 347.026103 26.8 
" style="fill: none; stroke: #000000; stroke-width: 0.8; stroke-linejoin: miter; stroke-linecap: square"/>
   </g>
   <g id="patch_5">
    <path d="M 30.55 168.589904 
L 347.026103 168.589904 
" style="fill: none; stroke: #000000; stroke-width: 0.8; stroke-linejoin: miter; stroke-linecap: square"/>
   </g>
   <g id="patch_6">
    <path d="M 30.55 26.8 
L 347.026103 26.8 
" style="fill: none; stroke: #000000; stroke-width: 0.8; stroke-linejoin: miter; stroke-linecap: square"/>
   </g>
   <g id="text_13">
    <!-- Crude Oil Prices -->
    <g transform="translate(141.194927 20.8)scale(0.12 -0.12)">
     <defs>
      <path id="DejaVuSans-43" d="M 4122 4306 
L 4122 3641 
Q 3803 3938 3442 4084 
Q 3081 4231 2675 4231 
Q 1875 4231 1450 3742 
Q 1025 3253 1025 2328 
Q 1025 1406 1450 917 
Q 1875 428 2675 428 
Q 3081 428 3442 575 
Q 3803 722 4122 1019 
L 4122 359 
Q 3791 134 3420 21 
Q 3050 -91 2638 -91 
Q 1578 -91 968 557 
Q 359 1206 359 2328 
Q 359 3453 968 4101 
Q 1578 4750 2638 4750 
Q 3056 4750 3426 4639 
Q 3797 4528 4122 4306 
z
" transform="scale(0.015625)"/>
      <path id="DejaVuSans-72" d="M 2631 2963 
Q 2534 3019 2420 3045 
Q 2306 3072 2169 3072 
Q 1681 3072 1420 2755 
Q 1159 2438 1159 1844 
L 1159 0 
L 581 0 
L 581 3500 
L 1159 3500 
L 1159 2956 
Q 1341 3275 1631 3429 
Q 1922 3584 2338 3584 
Q 2397 3584 2469 3576 
Q 2541 3569 2628 3553 
L 2631 2963 
z
" transform="scale(0.015625)"/>
      <path id="DejaVuSans-75" d="M 544 1381 
L 544 3500 
L 1119 3500 
L 1119 1403 
Q 1119 906 1312 657 
Q 1506 409 1894 409 
Q 2359 409 2629 706 
Q 2900 1003 2900 1516 
L 2900 3500 
L 3475 3500 
L 3475 0 
L 2900 0 
L 2900 538 
Q 2691 219 2414 64 
Q 2138 -91 1772 -91 
Q 1169 -91 856 284 
Q 544 659 544 1381 
z
M 1991 3584 
L 1991 3584 
z
" transform="scale(0.015625)"/>
      <path id="DejaVuSans-64" d="M 2906 2969 
L 2906 4863 
L 3481 4863 
L 3481 0 
L 2906 0 
L 2906 525 
Q 2725 213 2448 61 
Q 2172 -91 1784 -91 
Q 1150 -91 751 415 
Q 353 922 353 1747 
Q 353 2572 751 3078 
Q 1150 3584 1784 3584 
Q 2172 3584 2448 3432 
Q 2725 3281 2906 2969 
z
M 947 1747 
Q 947 1113 1208 752 
Q 1469 391 1925 391 
Q 2381 391 2643 752 
Q 2906 1113 2906 1747 
Q 2906 2381 2643 2742 
Q 2381 3103 1925 3103 
Q 1469 3103 1208 2742 
Q 947 2381 947 1747 
z
" transform="scale(0.015625)"/>
      <path id="DejaVuSans-65" d="M 3597 1894 
L 3597 1613 
L 953 1613 
Q 991 1019 1311 708 
Q 1631 397 2203 397 
Q 2534 397 2845 478 
Q 3156 559 3463 722 
L 3463 178 
Q 3153 47 2828 -22 
Q 2503 -91 2169 -91 
Q 1331 -91 842 396 
Q 353 884 353 1716 
Q 353 2575 817 3079 
Q 1281 3584 2069 3584 
Q 2775 3584 3186 3129 
Q 3597 2675 3597 1894 
z
M 3022 2063 
Q 3016 2534 2758 2815 
Q 2500 3097 2075 3097 
Q 1594 3097 1305 2825 
Q 1016 2553 972 2059 
L 3022 2063 
z
" transform="scale(0.015625)"/>
      <path id="DejaVuSans-20" transform="scale(0.015625)"/>
      <path id="DejaVuSans-4f" d="M 2522 4238 
Q 1834 4238 1429 3725 
Q 1025 3213 1025 2328 
Q 1025 1447 1429 934 
Q 1834 422 2522 422 
Q 3209 422 3611 934 
Q 4013 1447 4013 2328 
Q 4013 3213 3611 3725 
Q 3209 4238 2522 4238 
z
M 2522 4750 
Q 3503 4750 4090 4092 
Q 4678 3434 4678 2328 
Q 4678 1225 4090 567 
Q 3503 -91 2522 -91 
Q 1538 -91 948 565 
Q 359 1222 359 2328 
Q 359 3434 948 4092 
Q 1538 4750 2522 4750 
z
" transform="scale(0.015625)"/>
      <path id="DejaVuSans-69" d="M 603 3500 
L 1178 3500 
L 1178 0 
L 603 0 
L 603 3500 
z
M 603 4863 
L 1178 4863 
L 1178 4134 
L 603 4134 
L 603 4863 
z
" transform="scale(0.015625)"/>
      <path id="DejaVuSans-6c" d="M 603 4863 
L 1178 4863 
L 1178 0 
L 603 0 
L 603 4863 
z
" transform="scale(0.015625)"/>
      <path id="DejaVuSans-50" d="M 1259 4147 
L 1259 2394 
L 2053 2394 
Q 2494 2394 2734 2622 
Q 2975 2850 2975 3272 
Q 2975 3691 2734 3919 
Q 2494 4147 2053 4147 
L 1259 4147 
z
M 628 4666 
L 2053 4666 
Q 2838 4666 3239 4311 
Q 3641 3956 3641 3272 
Q 3641 2581 3239 2228 
Q 2838 1875 2053 1875 
L 1259 1875 
L 1259 0 
L 628 0 
L 628 4666 
z
" transform="scale(0.015625)"/>
      <path id="DejaVuSans-63" d="M 3122 3366 
L 3122 2828 
Q 2878 2963 2633 3030 
Q 2388 3097 2138 3097 
Q 1578 3097 1268 2742 
Q 959 2388 959 1747 
Q 959 1106 1268 751 
Q 1578 397 2138 397 
Q 2388 397 2633 464 
Q 2878 531 3122 666 
L 3122 134 
Q 2881 22 2623 -34 
Q 2366 -91 2075 -91 
Q 1284 -91 818 406 
Q 353 903 353 1747 
Q 353 2603 823 3093 
Q 1294 3584 2113 3584 
Q 2378 3584 2631 3529 
Q 2884 3475 3122 3366 
z
" transform="scale(0.015625)"/>
      <path id="DejaVuSans-73" d="M 2834 3397 
L 2834 2853 
Q 2591 2978 2328 3040 
Q 2066 3103 1784 3103 
Q 1356 3103 1142 2972 
Q 928 2841 928 2578 
Q 928 2378 1081 2264 
Q 1234 2150 1697 2047 
L 1894 2003 
Q 2506 1872 2764 1633 
Q 3022 1394 3022 966 
Q 3022 478 2636 193 
Q 2250 -91 1575 -91 
Q 1294 -91 989 -36 
Q 684 19 347 128 
L 347 722 
Q 666 556 975 473 
Q 1284 391 1588 391 
Q 1994 391 2212 530 
Q 2431 669 2431 922 
Q 2431 1156 2273 1281 
Q 2116 1406 1581 1522 
L 1381 1569 
Q 847 1681 609 1914 
Q 372 2147 372 2553 
Q 372 3047 722 3315 
Q 1072 3584 1716 3584 
Q 2034 3584 2315 3537 
Q 2597 3491 2834 3397 
z
" transform="scale(0.015625)"/>
     </defs>
     <use xlink:href="#DejaVuSans-43"/>
     <use xlink:href="#DejaVuSans-72" x="69.824219"/>
     <use xlink:href="#DejaVuSans-75" x="110.9375"/>
     <use xlink:href="#DejaVuSans-64" x="174.316406"/>
     <use xlink:href="#DejaVuSans-65" x="237.792969"/>
     <use xlink:href="#DejaVuSans-20" x="299.316406"/>
     <use xlink:href="#DejaVuSans-4f" x="331.103516"/>
     <use xlink:href="#DejaVuSans-69" x="409.814453"/>
     <use xlink:href="#DejaVuSans-6c" x="437.597656"/>
     <use xlink:href="#DejaVuSans-20" x="465.380859"/>
     <use xlink:href="#DejaVuSans-50" x="497.167969"/>
     <use xlink:href="#DejaVuSans-72" x="555.720703"/>
     <use xlink:href="#DejaVuSans-69" x="596.833984"/>
     <use xlink:href="#DejaVuSans-63" x="624.617188"/>
     <use xlink:href="#DejaVuSans-65" x="679.597656"/>
     <use xlink:href="#DejaVuSans-73" x="741.121094"/>
    </g>
   </g>
  </g>
 </g>
 <defs>
  <clipPath id="p21df5f6fc5">
   <rect x="30.55" y="26.8" width="316.476103" height="141.789904"/>
  </clipPath>
 </defs>
</svg>
