<?xml version="1.0" encoding="utf-8" standalone="no"?>
<!DOCTYPE svg PUBLIC "-//W3C//DTD SVG 1.1//EN"
  "http://www.w3.org/Graphics/SVG/1.1/DTD/svg11.dtd">
<svg xmlns:xlink="http://www.w3.org/1999/xlink" width="360pt" height="216pt" viewBox="0 0 360 216" xmlns="http://www.w3.org/2000/svg" version="1.1">
 <metadata>
  <rdf:RDF xmlns:dc="http://purl.org/dc/elements/1.1/" xmlns:cc="http://creativecommons.org/ns#" xmlns:rdf="http://www.w3.org/1999/02/22-rdf-syntax-ns#">
   <cc:Work>
    <dc:type rdf:resource="http://purl.org/dc/dcmitype/StillImage"/>
    <dc:date>2022-08-15T13:46:42.030633</dc:date>
    <dc:format>image/svg+xml</dc:format>
    <dc:creator>
     <cc:Agent>
      <dc:title>Matplotlib v3.5.2, https://matplotlib.org/</dc:title>
     </cc:Agent>
    </dc:creator>
   </cc:Work>
  </rdf:RDF>
 </metadata>
 <defs>
  <style type="text/css">*{stroke-linejoin: round; stroke-linecap: butt}</style>
 </defs>
 <g id="figure_1">
  <g id="patch_1">
   <path d="M 0 216 
L 360 216 
L 360 0 
L 0 0 
z
" style="fill: #ffffff"/>
  </g>
  <g id="axes_1">
   <g id="patch_2">
    <path d="M 30.49 168.607581 
L 347.010193 168.607581 
L 347.010193 26.88 
L 30.49 26.88 
z
" style="fill: #ffffff"/>
   </g>
   <g id="matplotlib.axis_1">
    <g id="xtick_1">
     <g id="line2d_1">
      <defs>
       <path id="m03ea7a806c" d="M 0 0 
L 0 3.5 
" style="stroke: #000000; stroke-width: 0.8"/>
      </defs>
      <g>
       <use xlink:href="#m03ea7a806c" x="44.719526" y="168.607581" style="stroke: #000000; stroke-width: 0.8"/>
      </g>
     </g>
     <g id="text_1">
      <!-- '98-01 -->
      <g transform="translate(35.425491 203.470903)rotate(-45)scale(0.1 -0.1)">
       <defs>
        <path id="DejaVuSans-27" d="M 1147 4666 
L 1147 2931 
L 616 2931 
L 616 4666 
L 1147 4666 
z
" transform="scale(0.015625)"/>
        <path id="DejaVuSans-39" d="M 703 97 
L 703 672 
Q 941 559 1184 500 
Q 1428 441 1663 441 
Q 2288 441 2617 861 
Q 2947 1281 2994 2138 
Q 2813 1869 2534 1725 
Q 2256 1581 1919 1581 
Q 1219 1581 811 2004 
Q 403 2428 403 3163 
Q 403 3881 828 4315 
Q 1253 4750 1959 4750 
Q 2769 4750 3195 4129 
Q 3622 3509 3622 2328 
Q 3622 1225 3098 567 
Q 2575 -91 1691 -91 
Q 1453 -91 1209 -44 
Q 966 3 703 97 
z
M 1959 2075 
Q 2384 2075 2632 2365 
Q 2881 2656 2881 3163 
Q 2881 3666 2632 3958 
Q 2384 4250 1959 4250 
Q 1534 4250 1286 3958 
Q 1038 3666 1038 3163 
Q 1038 2656 1286 2365 
Q 1534 2075 1959 2075 
z
" transform="scale(0.015625)"/>
        <path id="DejaVuSans-38" d="M 2034 2216 
Q 1584 2216 1326 1975 
Q 1069 1734 1069 1313 
Q 1069 891 1326 650 
Q 1584 409 2034 409 
Q 2484 409 2743 651 
Q 3003 894 3003 1313 
Q 3003 1734 2745 1975 
Q 2488 2216 2034 2216 
z
M 1403 2484 
Q 997 2584 770 2862 
Q 544 3141 544 3541 
Q 544 4100 942 4425 
Q 1341 4750 2034 4750 
Q 2731 4750 3128 4425 
Q 3525 4100 3525 3541 
Q 3525 3141 3298 2862 
Q 3072 2584 2669 2484 
Q 3125 2378 3379 2068 
Q 3634 1759 3634 1313 
Q 3634 634 3220 271 
Q 2806 -91 2034 -91 
Q 1263 -91 848 271 
Q 434 634 434 1313 
Q 434 1759 690 2068 
Q 947 2378 1403 2484 
z
M 1172 3481 
Q 1172 3119 1398 2916 
Q 1625 2713 2034 2713 
Q 2441 2713 2670 2916 
Q 2900 3119 2900 3481 
Q 2900 3844 2670 4047 
Q 2441 4250 2034 4250 
Q 1625 4250 1398 4047 
Q 1172 3844 1172 3481 
z
" transform="scale(0.015625)"/>
        <path id="DejaVuSans-2d" d="M 313 2009 
L 1997 2009 
L 1997 1497 
L 313 1497 
L 313 2009 
z
" transform="scale(0.015625)"/>
        <path id="DejaVuSans-30" d="M 2034 4250 
Q 1547 4250 1301 3770 
Q 1056 3291 1056 2328 
Q 1056 1369 1301 889 
Q 1547 409 2034 409 
Q 2525 409 2770 889 
Q 3016 1369 3016 2328 
Q 3016 3291 2770 3770 
Q 2525 4250 2034 4250 
z
M 2034 4750 
Q 2819 4750 3233 4129 
Q 3647 3509 3647 2328 
Q 3647 1150 3233 529 
Q 2819 -91 2034 -91 
Q 1250 -91 836 529 
Q 422 1150 422 2328 
Q 422 3509 836 4129 
Q 1250 4750 2034 4750 
z
" transform="scale(0.015625)"/>
        <path id="DejaVuSans-31" d="M 794 531 
L 1825 531 
L 1825 4091 
L 703 3866 
L 703 4441 
L 1819 4666 
L 2450 4666 
L 2450 531 
L 3481 531 
L 3481 0 
L 794 0 
L 794 531 
z
" transform="scale(0.015625)"/>
       </defs>
       <use xlink:href="#DejaVuSans-27"/>
       <use xlink:href="#DejaVuSans-39" x="27.490234"/>
       <use xlink:href="#DejaVuSans-38" x="91.113281"/>
       <use xlink:href="#DejaVuSans-2d" x="154.736328"/>
       <use xlink:href="#DejaVuSans-30" x="190.820312"/>
       <use xlink:href="#DejaVuSans-31" x="254.443359"/>
      </g>
     </g>
    </g>
    <g id="xtick_2">
     <g id="line2d_2">
      <g>
       <use xlink:href="#m03ea7a806c" x="102.300203" y="168.607581" style="stroke: #000000; stroke-width: 0.8"/>
      </g>
     </g>
     <g id="text_2">
      <!-- '99-01 -->
      <g transform="translate(93.006169 203.470903)rotate(-45)scale(0.1 -0.1)">
       <use xlink:href="#DejaVuSans-27"/>
       <use xlink:href="#DejaVuSans-39" x="27.490234"/>
       <use xlink:href="#DejaVuSans-39" x="91.113281"/>
       <use xlink:href="#DejaVuSans-2d" x="154.736328"/>
       <use xlink:href="#DejaVuSans-30" x="190.820312"/>
       <use xlink:href="#DejaVuSans-31" x="254.443359"/>
      </g>
     </g>
    </g>
    <g id="xtick_3">
     <g id="line2d_3">
      <g>
       <use xlink:href="#m03ea7a806c" x="159.88088" y="168.607581" style="stroke: #000000; stroke-width: 0.8"/>
      </g>
     </g>
     <g id="text_3">
      <!-- '00-01 -->
      <g transform="translate(150.586846 203.470903)rotate(-45)scale(0.1 -0.1)">
       <use xlink:href="#DejaVuSans-27"/>
       <use xlink:href="#DejaVuSans-30" x="27.490234"/>
       <use xlink:href="#DejaVuSans-30" x="91.113281"/>
       <use xlink:href="#DejaVuSans-2d" x="154.736328"/>
       <use xlink:href="#DejaVuSans-30" x="190.820312"/>
       <use xlink:href="#DejaVuSans-31" x="254.443359"/>
      </g>
     </g>
    </g>
    <g id="xtick_4">
     <g id="line2d_4">
      <g>
       <use xlink:href="#m03ea7a806c" x="217.619313" y="168.607581" style="stroke: #000000; stroke-width: 0.8"/>
      </g>
     </g>
     <g id="text_4">
      <!-- '01-01 -->
      <g transform="translate(208.325278 203.470903)rotate(-45)scale(0.1 -0.1)">
       <use xlink:href="#DejaVuSans-27"/>
       <use xlink:href="#DejaVuSans-30" x="27.490234"/>
       <use xlink:href="#DejaVuSans-31" x="91.113281"/>
       <use xlink:href="#DejaVuSans-2d" x="154.736328"/>
       <use xlink:href="#DejaVuSans-30" x="190.820312"/>
       <use xlink:href="#DejaVuSans-31" x="254.443359"/>
      </g>
     </g>
    </g>
    <g id="xtick_5">
     <g id="line2d_5">
      <g>
       <use xlink:href="#m03ea7a806c" x="275.19999" y="168.607581" style="stroke: #000000; stroke-width: 0.8"/>
      </g>
     </g>
     <g id="text_5">
      <!-- '02-01 -->
      <g transform="translate(265.905955 203.470903)rotate(-45)scale(0.1 -0.1)">
       <defs>
        <path id="DejaVuSans-32" d="M 1228 531 
L 3431 531 
L 3431 0 
L 469 0 
L 469 531 
Q 828 903 1448 1529 
Q 2069 2156 2228 2338 
Q 2531 2678 2651 2914 
Q 2772 3150 2772 3378 
Q 2772 3750 2511 3984 
Q 2250 4219 1831 4219 
Q 1534 4219 1204 4116 
Q 875 4013 500 3803 
L 500 4441 
Q 881 4594 1212 4672 
Q 1544 4750 1819 4750 
Q 2544 4750 2975 4387 
Q 3406 4025 3406 3419 
Q 3406 3131 3298 2873 
Q 3191 2616 2906 2266 
Q 2828 2175 2409 1742 
Q 1991 1309 1228 531 
z
" transform="scale(0.015625)"/>
       </defs>
       <use xlink:href="#DejaVuSans-27"/>
       <use xlink:href="#DejaVuSans-30" x="27.490234"/>
       <use xlink:href="#DejaVuSans-32" x="91.113281"/>
       <use xlink:href="#DejaVuSans-2d" x="154.736328"/>
       <use xlink:href="#DejaVuSans-30" x="190.820312"/>
       <use xlink:href="#DejaVuSans-31" x="254.443359"/>
      </g>
     </g>
    </g>
    <g id="xtick_6">
     <g id="line2d_6">
      <g>
       <use xlink:href="#m03ea7a806c" x="332.780667" y="168.607581" style="stroke: #000000; stroke-width: 0.8"/>
      </g>
     </g>
     <g id="text_6">
      <!-- '03-01 -->
      <g transform="translate(323.486632 203.470903)rotate(-45)scale(0.1 -0.1)">
       <defs>
        <path id="DejaVuSans-33" d="M 2597 2516 
Q 3050 2419 3304 2112 
Q 3559 1806 3559 1356 
Q 3559 666 3084 287 
Q 2609 -91 1734 -91 
Q 1441 -91 1130 -33 
Q 819 25 488 141 
L 488 750 
Q 750 597 1062 519 
Q 1375 441 1716 441 
Q 2309 441 2620 675 
Q 2931 909 2931 1356 
Q 2931 1769 2642 2001 
Q 2353 2234 1838 2234 
L 1294 2234 
L 1294 2753 
L 1863 2753 
Q 2328 2753 2575 2939 
Q 2822 3125 2822 3475 
Q 2822 3834 2567 4026 
Q 2313 4219 1838 4219 
Q 1578 4219 1281 4162 
Q 984 4106 628 3988 
L 628 4550 
Q 988 4650 1302 4700 
Q 1616 4750 1894 4750 
Q 2613 4750 3031 4423 
Q 3450 4097 3450 3541 
Q 3450 3153 3228 2886 
Q 3006 2619 2597 2516 
z
" transform="scale(0.015625)"/>
       </defs>
       <use xlink:href="#DejaVuSans-27"/>
       <use xlink:href="#DejaVuSans-30" x="27.490234"/>
       <use xlink:href="#DejaVuSans-33" x="91.113281"/>
       <use xlink:href="#DejaVuSans-2d" x="154.736328"/>
       <use xlink:href="#DejaVuSans-30" x="190.820312"/>
       <use xlink:href="#DejaVuSans-31" x="254.443359"/>
      </g>
     </g>
    </g>
   </g>
   <g id="matplotlib.axis_2">
    <g id="ytick_1">
     <g id="line2d_7">
      <defs>
       <path id="m4b146fa84c" d="M 0 0 
L -3.5 0 
" style="stroke: #000000; stroke-width: 0.8"/>
      </defs>
      <g>
       <use xlink:href="#m4b146fa84c" x="30.49" y="166.167368" style="stroke: #000000; stroke-width: 0.8"/>
      </g>
     </g>
     <g id="text_7">
      <!-- 10 -->
      <g transform="translate(10.765 169.966587)scale(0.1 -0.1)">
       <use xlink:href="#DejaVuSans-31"/>
       <use xlink:href="#DejaVuSans-30" x="63.623047"/>
      </g>
     </g>
    </g>
    <g id="ytick_2">
     <g id="line2d_8">
      <g>
       <use xlink:href="#m4b146fa84c" x="30.49" y="141.765236" style="stroke: #000000; stroke-width: 0.8"/>
      </g>
     </g>
     <g id="text_8">
      <!-- 15 -->
      <g transform="translate(10.765 145.564455)scale(0.1 -0.1)">
       <defs>
        <path id="DejaVuSans-35" d="M 691 4666 
L 3169 4666 
L 3169 4134 
L 1269 4134 
L 1269 2991 
Q 1406 3038 1543 3061 
Q 1681 3084 1819 3084 
Q 2600 3084 3056 2656 
Q 3513 2228 3513 1497 
Q 3513 744 3044 326 
Q 2575 -91 1722 -91 
Q 1428 -91 1123 -41 
Q 819 9 494 109 
L 494 744 
Q 775 591 1075 516 
Q 1375 441 1709 441 
Q 2250 441 2565 725 
Q 2881 1009 2881 1497 
Q 2881 1984 2565 2268 
Q 2250 2553 1709 2553 
Q 1456 2553 1204 2497 
Q 953 2441 691 2322 
L 691 4666 
z
" transform="scale(0.015625)"/>
       </defs>
       <use xlink:href="#DejaVuSans-31"/>
       <use xlink:href="#DejaVuSans-35" x="63.623047"/>
      </g>
     </g>
    </g>
    <g id="ytick_3">
     <g id="line2d_9">
      <g>
       <use xlink:href="#m4b146fa84c" x="30.49" y="117.363105" style="stroke: #000000; stroke-width: 0.8"/>
      </g>
     </g>
     <g id="text_9">
      <!-- 20 -->
      <g transform="translate(10.765 121.162323)scale(0.1 -0.1)">
       <use xlink:href="#DejaVuSans-32"/>
       <use xlink:href="#DejaVuSans-30" x="63.623047"/>
      </g>
     </g>
    </g>
    <g id="ytick_4">
     <g id="line2d_10">
      <g>
       <use xlink:href="#m4b146fa84c" x="30.49" y="92.960973" style="stroke: #000000; stroke-width: 0.8"/>
      </g>
     </g>
     <g id="text_10">
      <!-- 25 -->
      <g transform="translate(10.765 96.760192)scale(0.1 -0.1)">
       <use xlink:href="#DejaVuSans-32"/>
       <use xlink:href="#DejaVuSans-35" x="63.623047"/>
      </g>
     </g>
    </g>
    <g id="ytick_5">
     <g id="line2d_11">
      <g>
       <use xlink:href="#m4b146fa84c" x="30.49" y="68.558841" style="stroke: #000000; stroke-width: 0.8"/>
      </g>
     </g>
     <g id="text_11">
      <!-- 30 -->
      <g transform="translate(10.765 72.35806)scale(0.1 -0.1)">
       <use xlink:href="#DejaVuSans-33"/>
       <use xlink:href="#DejaVuSans-30" x="63.623047"/>
      </g>
     </g>
    </g>
    <g id="ytick_6">
     <g id="line2d_12">
      <g>
       <use xlink:href="#m4b146fa84c" x="30.49" y="44.156709" style="stroke: #000000; stroke-width: 0.8"/>
      </g>
     </g>
     <g id="text_12">
      <!-- 35 -->
      <g transform="translate(10.765 47.955928)scale(0.1 -0.1)">
       <use xlink:href="#DejaVuSans-33"/>
       <use xlink:href="#DejaVuSans-35" x="63.623047"/>
      </g>
     </g>
    </g>
   </g>
   <g id="line2d_13">
    <path d="M 44.877282 130.003409 
L 45.350547 132.248405 
L 45.508303 133.761337 
L 45.823813 131.955579 
L 45.981568 133.712533 
L 46.454834 134.298184 
L 46.61259 134.737422 
L 46.770345 134.24938 
L 46.9281 135.176661 
L 47.085855 134.542205 
L 47.716877 134.786227 
L 48.032387 137.22644 
L 48.190142 138.592959 
L 48.663408 132.199601 
L 48.821164 131.711558 
L 48.978919 130.296234 
L 49.136674 127.465587 
L 49.294429 130.979494 
L 49.767695 131.662754 
L 49.92545 134.786227 
L 50.083206 134.835031 
L 50.398716 133.370903 
L 50.871982 134.005358 
L 51.029737 134.542205 
L 51.345248 137.031223 
L 51.503003 136.738397 
L 52.134024 138.641763 
L 52.29178 135.713508 
L 52.449535 136.299159 
L 52.60729 136.250355 
L 53.238311 141.081977 
L 53.553822 139.764261 
L 53.711577 139.617849 
L 54.342598 140.398717 
L 54.658109 140.105891 
L 54.815864 142.253279 
L 55.604641 145.181535 
L 55.762396 144.693492 
L 55.920151 145.718382 
L 56.393417 149.525114 
L 56.551172 148.256203 
L 56.708928 144.888709 
L 56.866683 144.547079 
L 57.024438 145.13273 
L 57.497704 136.20155 
L 57.655459 139.227415 
L 57.813214 133.517316 
L 57.97097 132.394818 
L 58.128725 132.785252 
L 58.601991 135.323073 
L 58.759746 138.104917 
L 58.917501 138.397742 
L 59.075257 136.689593 
L 59.233012 136.494376 
L 59.864033 139.86187 
L 60.021788 138.300134 
L 60.179544 138.788176 
L 60.810565 140.057087 
L 60.96832 140.88676 
L 61.283831 137.031223 
L 61.441586 139.373827 
L 61.914852 139.227415 
L 62.072607 138.983393 
L 62.230362 141.423606 
L 62.388118 151.086851 
L 62.545873 150.403591 
L 63.176894 137.372853 
L 63.334649 139.666653 
L 63.492405 139.032198 
L 63.65016 135.664703 
L 64.123426 136.982418 
L 64.281181 139.422632 
L 64.438936 139.569044 
L 64.596691 140.496325 
L 64.754447 140.740347 
L 65.227713 140.496325 
L 65.385468 140.740347 
L 65.543223 141.716432 
L 65.700978 141.033172 
L 65.858734 144.156645 
L 66.332 145.913599 
L 66.489755 151.477285 
L 66.64751 149.769135 
L 66.963021 142.692517 
L 67.594042 142.253279 
L 67.751797 141.862845 
L 67.909552 142.350887 
L 68.067308 140.740347 
L 68.540573 141.814041 
L 68.698329 142.692517 
L 68.856084 142.058062 
L 69.013839 140.593934 
L 69.171595 141.130781 
L 69.64486 144.254254 
L 70.118126 153.13663 
L 70.275882 153.185434 
L 70.749147 157.919448 
L 70.906903 154.551953 
L 71.064658 153.722281 
L 71.222413 157.382601 
L 71.380169 157.382601 
L 71.853434 148.890659 
L 72.01119 143.473386 
L 72.168945 144.010232 
L 72.3267 147.133705 
L 72.484455 145.620773 
L 73.115477 145.181535 
L 73.430987 143.815015 
L 74.062008 147.280118 
L 74.219764 147.475335 
L 74.377519 146.596858 
L 74.535274 146.596858 
L 74.693029 146.84088 
L 75.166295 146.352837 
L 75.324051 142.399692 
L 75.481806 142.253279 
L 75.797316 146.548054 
L 76.270582 149.378701 
L 76.586093 145.230339 
L 76.743848 146.792075 
L 76.901603 146.987292 
L 77.374869 144.839905 
L 77.69038 146.011207 
L 77.848135 145.425556 
L 78.00589 145.327948 
L 78.479156 146.987292 
L 78.636911 148.158595 
L 78.952422 147.280118 
L 79.110177 147.377727 
L 79.898954 152.697391 
L 80.056709 149.378701 
L 80.68773 150.257178 
L 80.845485 150.891634 
L 81.003241 150.501199 
L 81.160996 148.500225 
L 81.318751 149.378701 
L 81.949772 147.133705 
L 82.265283 149.81794 
L 82.423038 148.890659 
L 82.896304 150.110765 
L 83.211815 148.012182 
L 83.36957 143.229364 
L 83.527325 143.766211 
L 84.158346 144.986318 
L 84.316101 144.839905 
L 84.473857 143.18056 
L 84.631612 144.742296 
L 85.104878 144.400667 
L 85.262633 143.131756 
L 85.420388 143.717407 
L 85.735899 139.17861 
L 86.209165 138.934589 
L 86.682431 136.933614 
L 86.840186 137.860895 
L 87.313452 138.153721 
L 87.628962 135.957529 
L 87.786718 139.227415 
L 87.944473 138.300134 
L 88.417739 140.593934 
L 88.575494 138.83698 
L 88.891005 143.86382 
L 89.04876 143.52219 
L 89.522026 144.351862 
L 89.837536 146.206424 
L 89.995292 146.255229 
L 90.153047 145.864794 
L 90.626313 149.622723 
L 90.784068 149.329897 
L 90.941823 145.962403 
L 91.099578 146.645663 
L 91.257334 146.352837 
L 91.7306 144.742296 
L 91.888355 145.718382 
L 92.04611 144.937513 
L 92.203865 145.13273 
L 92.361621 144.303058 
L 92.834887 144.449471 
L 93.308152 146.987292 
L 93.465908 146.987292 
L 93.939174 149.622723 
L 94.254684 148.45142 
L 94.412439 146.450446 
L 94.570195 148.744246 
L 95.516726 155.381626 
L 95.674482 155.43043 
L 96.147747 153.917498 
L 96.463258 161.970201 
L 97.252034 159.481184 
L 97.40979 159.969227 
L 97.567545 159.77401 
L 97.883056 160.310856 
L 98.356321 158.309882 
L 98.829587 162.165418 
L 98.987342 161.970201 
L 99.460608 159.822814 
L 99.618364 158.163469 
L 99.776119 153.722281 
L 99.933874 161.04292 
L 100.091629 161.530963 
L 100.564895 161.970201 
L 100.880406 160.701291 
L 101.038161 161.140529 
L 101.826938 157.284992 
L 101.984693 157.626622 
L 102.142448 155.723256 
L 102.773469 154.356736 
L 102.931224 156.211298 
L 103.08898 152.306957 
L 103.40449 151.233263 
L 103.877756 149.427506 
L 104.351022 155.284017 
L 105.139798 155.77206 
L 105.297554 157.284992 
L 105.455309 154.210323 
L 105.613064 153.380651 
L 106.08633 154.405541 
L 106.244085 155.625647 
L 106.717351 152.45337 
L 107.348372 155.381626 
L 107.506128 154.356736 
L 107.663883 156.699341 
L 107.821638 157.138579 
L 108.294904 158.114665 
L 108.452659 158.06586 
L 108.610415 156.992166 
L 108.76817 156.699341 
L 108.925925 156.894558 
L 109.556946 159.43238 
L 109.714702 158.895533 
L 109.872457 156.552928 
L 110.030212 157.431405 
L 110.503478 156.552928 
L 110.661233 154.259128 
L 110.818988 154.015106 
L 110.976744 153.429455 
L 111.134499 154.893583 
L 111.607765 155.039996 
L 112.081031 149.964353 
L 112.238786 149.915548 
L 112.869807 147.719356 
L 113.027562 143.034147 
L 113.185318 145.181535 
L 113.343073 144.156645 
L 113.816339 144.303058 
L 113.974094 143.717407 
L 114.131849 141.228389 
L 114.289605 141.228389 
L 114.44736 140.496325 
L 114.920626 139.86187 
L 115.078381 140.008283 
L 115.236136 140.88676 
L 115.551647 136.103942 
L 116.024913 134.639814 
L 116.182668 133.663729 
L 116.498179 133.712533 
L 117.1292 132.297209 
L 117.286955 133.029273 
L 117.44471 136.787201 
L 117.602466 137.275244 
L 117.760221 134.005358 
L 118.233487 134.737422 
L 118.391242 133.322099 
L 118.548997 134.395792 
L 118.864508 130.345039 
L 119.337774 128.002434 
L 119.495529 128.148847 
L 119.653284 126.879936 
L 119.968795 127.319174 
L 120.442061 128.734498 
L 120.599816 128.002434 
L 120.757571 125.025374 
L 121.073082 123.756463 
L 121.546347 123.073203 
L 121.704103 122.536356 
L 121.861858 122.780378 
L 122.019613 126.001459 
L 122.177369 126.001459 
L 122.650634 124.342114 
L 122.966145 129.856996 
L 123.1239 126.58711 
L 123.281656 126.92874 
L 123.754921 128.29526 
L 124.070432 133.126882 
L 124.385943 130.93069 
L 124.859208 133.126882 
L 125.016964 130.784277 
L 125.174719 130.442647 
L 125.332474 131.125907 
L 125.490229 132.736448 
L 126.121251 135.371878 
L 127.067782 127.563196 
L 127.225538 128.783302 
L 127.383293 127.221566 
L 127.541048 128.002434 
L 127.698803 124.927765 
L 128.172069 125.952655 
L 128.329825 124.146897 
L 128.48758 127.514391 
L 128.645335 125.903851 
L 128.80309 127.075153 
L 129.276356 128.148847 
L 129.434111 128.978519 
L 129.591867 125.074178 
L 129.907377 126.294285 
L 130.380643 126.050263 
L 130.538398 124.390918 
L 130.696154 120.63299 
L 130.853909 120.340165 
L 131.011664 118.827232 
L 131.642685 118.436798 
L 131.800441 117.460713 
L 131.958196 118.534407 
L 132.115951 117.65593 
L 132.589217 117.753539 
L 132.746972 115.752564 
L 132.904728 117.899951 
L 133.220238 114.142023 
L 133.693504 115.996585 
L 133.851259 120.388969 
L 134.009015 119.608101 
L 134.16677 118.143973 
L 134.324525 115.36213 
L 134.797791 114.971696 
L 134.955546 115.410934 
L 135.113302 114.386044 
L 135.271057 112.04344 
L 135.428812 114.825283 
L 135.902078 115.118108 
L 136.059833 116.338215 
L 136.533099 113.019525 
L 137.321875 109.847248 
L 137.479631 110.432899 
L 137.637386 109.212793 
L 138.110652 110.823333 
L 138.268407 109.06638 
L 138.426162 109.847248 
L 138.583918 108.285512 
L 138.741673 109.261597 
L 139.214939 109.505618 
L 139.372694 110.725725 
L 139.530449 114.142023 
L 139.84596 110.969746 
L 140.476981 106.870188 
L 140.792492 109.847248 
L 140.950247 107.602252 
L 141.739023 104.478779 
L 142.054534 100.037591 
L 142.5278 96.962922 
L 142.685555 98.524659 
L 142.84331 97.353356 
L 143.158821 94.327492 
L 143.632087 96.279663 
L 143.789842 95.498794 
L 143.947597 96.572488 
L 144.105353 94.132275 
L 144.263108 93.888254 
L 144.736374 94.766731 
L 144.894129 95.303577 
L 145.051884 94.473905 
L 145.209639 95.205969 
L 145.367395 95.352382 
L 146.156171 101.550523 
L 146.313926 105.357256 
L 146.471682 113.409959 
L 146.944948 109.652031 
L 147.102703 103.063455 
L 147.260458 103.063455 
L 147.418213 105.357256 
L 147.575969 103.649106 
L 148.364745 106.577362 
L 148.680256 100.379221 
L 149.311277 101.892153 
L 149.469032 104.137149 
L 149.626787 109.603227 
L 150.415564 105.210843 
L 150.573319 104.7228 
L 150.731074 101.892153 
L 150.88883 103.063455 
L 151.362095 101.355306 
L 151.519851 96.81651 
L 151.677606 96.035641 
L 151.835361 96.230858 
L 151.993116 93.400211 
L 152.466382 91.448041 
L 152.781893 85.298703 
L 152.939648 89.49587 
L 153.097403 85.103486 
L 153.570669 78.173281 
L 153.728425 83.639358 
L 153.88618 82.126426 
L 154.20169 82.126426 
L 154.674956 88.861415 
L 154.832712 93.595428 
L 154.990467 92.912169 
L 155.148222 88.666198 
L 155.305977 89.49587 
L 155.779243 84.810661 
L 155.936998 86.323593 
L 156.094754 84.713052 
L 156.410264 91.936083 
L 156.88353 91.155215 
L 157.356796 84.469031 
L 157.514551 84.371422 
L 157.987817 85.396312 
L 158.145572 86.421201 
L 158.303328 90.471955 
L 158.461083 88.763806 
L 159.092104 86.323593 
L 159.249859 84.127401 
L 159.56537 89.251849 
L 160.354146 90.227934 
L 160.511902 94.669122 
L 160.669657 93.985862 
L 160.827412 93.985862 
L 161.300678 94.376296 
L 161.616189 86.616419 
L 161.773944 85.005878 
L 161.931699 78.270889 
L 162.720476 72.90242 
L 162.878231 70.169382 
L 163.035986 69.974165 
L 163.509252 72.219161 
L 163.667007 67.192322 
L 163.824762 79.979039 
L 163.982518 82.126426 
L 164.140273 81.882405 
L 164.613539 80.027843 
L 164.771294 76.953174 
L 164.929049 80.662298 
L 165.24456 75.049808 
L 165.717826 76.367523 
L 165.875581 78.075672 
L 166.191092 71.047858 
L 166.348847 70.95025 
L 166.822113 67.094713 
L 167.137623 68.510037 
L 167.295379 71.63351 
L 167.453134 70.95025 
L 168.084155 70.364599 
L 168.24191 67.63156 
L 168.399666 67.436343 
L 168.557421 66.899496 
L 169.030687 68.021994 
L 169.188442 65.776998 
L 169.346197 60.213312 
L 169.503953 61.189397 
L 169.661708 61.433419 
L 170.134974 57.870707 
L 170.292729 49.525178 
L 170.450484 62.604721 
L 170.765995 59.969291 
L 171.239261 58.261141 
L 171.397016 59.139618 
L 171.554771 66.265041 
L 171.712526 63.190372 
L 171.870282 64.361674 
L 172.343548 71.828727 
L 172.659058 81.833601 
L 172.816813 80.90632 
L 172.974569 79.002953 
L 173.447835 80.320669 
L 173.763345 86.323593 
L 174.078856 83.88338 
L 174.552122 86.714027 
L 174.709877 90.715977 
L 174.867632 89.251849 
L 175.025387 90.471955 
L 175.183143 93.107386 
L 175.656408 98.280638 
L 175.814164 97.011727 
L 175.971919 90.569564 
L 176.129674 91.545649 
L 176.760695 87.787721 
L 176.918451 88.470981 
L 177.076206 81.345558 
L 177.233961 81.784796 
L 177.864982 81.199145 
L 178.022738 86.079572 
L 178.180493 94.473905 
L 178.338248 90.374347 
L 178.496003 89.49587 
L 178.969269 88.861415 
L 179.127025 83.88338 
L 179.28478 85.152291 
L 179.60029 81.394362 
L 180.073556 78.075672 
L 180.231312 76.074698 
L 180.389067 77.831651 
L 180.704577 70.315795 
L 181.177843 68.802862 
L 181.335599 69.730143 
L 181.493354 71.584705 
L 181.651109 67.192322 
L 181.808864 68.461233 
L 182.28213 75.293829 
L 182.439885 75.342634 
L 182.755396 66.460258 
L 182.913151 69.730143 
L 183.544172 66.801888 
L 183.701928 73.292855 
L 183.859683 67.63156 
L 184.017438 66.899496 
L 184.648459 69.632535 
L 184.806215 72.023944 
L 185.594991 59.969291 
L 185.752746 55.235277 
L 186.068257 55.38169 
L 186.226012 57.089839 
L 186.699278 60.896572 
L 187.014789 50.794089 
L 187.172544 45.523229 
L 187.330299 45.328012 
L 187.803565 60.945376 
L 187.96132 58.749184 
L 188.119076 59.481248 
L 188.276831 55.235277 
L 188.434586 56.650601 
L 189.381118 67.63156 
L 189.538873 67.28993 
L 190.012139 70.95025 
L 190.169894 70.462207 
L 190.485405 61.67744 
L 190.64316 62.165483 
" clip-path="url(#p97d3d0001c)" style="fill: none; stroke: #000000; stroke-width: 1.5; stroke-linecap: square"/>
   </g>
   <g id="line2d_14">
    <path d="M 191.116426 65.093738 
L 191.274181 59.090814 
L 191.431936 63.190372 
L 191.589692 63.97124 
L 191.747447 75.586655 
L 192.378468 78.856541 
L 192.536223 79.246975 
L 192.693979 77.294804 
L 192.851734 77.246 
L 193.325 80.759907 
L 193.64051 77.001979 
L 193.956021 68.851667 
L 194.429287 73.780897 
L 194.587042 72.170357 
L 194.902553 63.239176 
L 195.060308 63.580806 
L 195.533574 59.188422 
L 195.691329 61.579831 
L 195.849084 59.237227 
L 196.00684 59.383639 
L 196.164595 58.944401 
L 196.637861 56.748209 
L 196.795616 62.507112 
L 196.953371 62.555917 
L 197.111127 51.916587 
L 197.268882 48.988331 
L 197.899903 55.235277 
L 198.057658 52.697455 
L 198.215413 53.478324 
L 198.373169 51.867783 
L 199.00419 49.42757 
L 199.161945 44.303122 
L 199.3197 43.278233 
L 199.477456 50.891698 
L 199.950722 43.47345 
L 200.266232 49.671591 
L 200.423987 47.231378 
L 200.581743 39.910738 
L 201.370519 33.322163 
L 201.68603 55.576907 
L 202.159295 61.238202 
L 202.317051 59.871682 
L 202.474806 62.555917 
L 202.632561 67.28993 
L 202.790317 64.31287 
L 203.263582 58.553967 
L 203.421338 59.481248 
L 203.579093 64.117653 
L 203.736848 65.33776 
L 203.894604 64.361674 
L 204.367869 58.895597 
L 204.525625 52.502238 
L 204.68338 52.941477 
L 204.841135 38.983457 
L 204.998891 44.351926 
L 205.472156 53.039085 
L 205.787667 51.428545 
L 205.945422 53.624736 
L 206.103177 47.524203 
L 206.576443 44.644752 
L 206.734199 46.45051 
L 206.891954 50.891698 
L 207.049709 50.257242 
L 207.207464 54.991256 
L 207.68073 54.600822 
L 207.838486 55.38169 
L 207.996241 53.234302 
L 208.153996 55.918537 
L 208.311751 55.772124 
L 208.785017 53.819953 
L 208.942772 51.770174 
L 209.100528 54.307996 
L 209.258283 49.671591 
L 209.416038 48.793114 
L 209.889304 47.573008 
L 210.047059 45.523229 
L 210.204815 41.521279 
L 210.36257 44.937577 
L 210.520325 41.130845 
L 210.993591 39.373891 
L 211.151346 41.521279 
L 211.309102 38.983457 
L 211.624612 38.983457 
L 212.097878 38.104981 
L 212.255633 48.939527 
L 212.413389 46.206488 
L 212.728899 58.505163 
L 213.202165 62.311895 
L 213.35992 72.219161 
L 213.517676 67.387539 
L 213.833186 76.806762 
L 214.306452 69.778948 
L 214.464207 69.486122 
L 214.779718 78.026868 
L 214.937473 74.122527 
L 215.410739 70.901446 
L 215.568494 71.779922 
L 215.72625 88.910219 
L 216.04176 87.299678 
L 216.672781 83.20012 
L 216.988292 88.959023 
L 217.146047 84.566639 
L 217.777068 81.784796 
L 217.934823 78.661324 
L 218.092579 78.563715 
L 218.250334 78.222085 
L 218.7236 81.052732 
L 218.881355 79.686213 
L 219.03911 71.389488 
L 219.196866 71.389488 
L 219.354621 68.217211 
L 219.985642 67.63156 
L 220.143397 69.681339 
L 220.301153 66.509062 
L 220.458908 58.212337 
L 220.932174 57.773099 
L 221.247684 61.433419 
L 221.40544 60.701355 
L 221.563195 69.583731 
L 222.036461 73.097638 
L 222.194216 72.853616 
L 222.351971 75.293829 
L 222.667482 62.3607 
L 223.298503 67.241126 
L 223.614014 60.896572 
L 223.771769 64.020045 
L 224.245035 66.021019 
L 224.560545 70.755033 
L 224.7183 73.634484 
L 224.876056 72.365574 
L 225.507077 75.391438 
L 225.664832 75.196221 
L 225.822587 75.781872 
L 225.980343 74.26894 
L 226.453609 77.001979 
L 226.611364 77.050783 
L 226.769119 81.491971 
L 226.926874 79.393388 
L 227.08463 78.856541 
L 227.557896 75.342634 
L 227.715651 76.367523 
L 227.873406 73.683289 
L 228.188917 78.466107 
L 228.662182 78.758932 
L 228.819938 81.003928 
L 228.977693 85.689138 
L 229.293204 84.761857 
L 229.924225 88.129351 
L 230.08198 85.981963 
L 230.239735 87.153265 
L 230.397491 81.687188 
L 230.870756 81.24795 
L 231.028512 80.174256 
L 231.186267 85.981963 
L 231.344022 85.786746 
L 231.501778 86.274789 
L 231.975043 89.544674 
L 232.290554 82.419252 
L 232.448309 82.028818 
L 232.606064 82.85849 
L 233.07933 81.003928 
L 233.237086 76.025893 
L 233.394841 76.269915 
L 233.552596 74.659374 
L 234.183617 74.366548 
L 234.341373 78.856541 
L 234.499128 79.149366 
L 234.656883 78.710128 
L 234.814638 83.20012 
L 235.287904 83.346533 
L 235.44566 91.78967 
L 235.603415 88.422176 
L 235.76117 76.025893 
L 235.918925 76.611545 
L 236.392191 75.977089 
L 236.549946 76.513936 
L 236.707702 78.856541 
L 236.865457 75.098612 
L 237.654233 81.491971 
L 237.811989 76.416327 
L 238.127499 75.440242 
L 238.75852 73.92731 
L 238.916276 74.561765 
L 239.074031 73.341659 
L 239.231786 69.046884 
L 239.705052 68.754058 
L 239.862807 69.778948 
L 240.178318 78.466107 
L 240.336073 77.92926 
L 240.967094 74.61057 
L 241.12485 74.854591 
L 241.44036 78.905345 
L 241.913626 77.636434 
L 242.229137 80.467081 
L 242.544647 76.22111 
L 243.175668 72.804812 
L 243.333423 74.366548 
L 243.491179 72.853616 
L 243.648934 75.781872 
L 244.1222 80.515886 
L 244.279955 80.808711 
L 244.43771 85.542725 
L 244.753221 83.102512 
L 245.226487 82.663273 
L 245.384242 83.346533 
L 245.541997 89.691087 
L 245.699753 89.300653 
L 245.857508 86.274789 
L 246.330774 87.982938 
L 246.488529 86.714027 
L 246.80404 82.85849 
L 246.961795 77.831651 
L 247.435061 80.125451 
L 247.750571 82.85849 
L 248.539348 87.982938 
L 248.854858 94.669122 
L 249.012614 94.669122 
L 249.170369 89.691087 
L 249.643635 88.666198 
L 249.80139 87.20207 
L 249.959145 84.615444 
L 250.116901 84.469031 
L 250.274656 83.297729 
L 250.747922 85.152291 
L 251.063432 84.029793 
L 251.221187 79.002953 
L 251.378943 80.711103 
L 251.852209 79.783822 
L 252.009964 77.490021 
L 252.167719 80.174256 
L 252.325474 79.686213 
L 252.48323 77.734043 
L 252.956496 79.051758 
L 253.114251 77.831651 
L 253.272006 80.711103 
L 253.429761 80.90632 
L 253.587517 84.908269 
L 254.060783 82.224035 
L 254.218538 78.661324 
L 254.376293 82.370448 
L 254.534048 89.886304 
L 254.691804 76.660349 
L 255.165069 84.713052 
L 255.322825 82.419252 
L 255.48058 82.85849 
L 255.638335 84.908269 
L 255.796091 84.908269 
L 256.584867 83.053707 
L 256.900378 78.368498 
L 257.373643 79.979039 
L 257.689154 80.076647 
L 258.004665 70.559816 
L 258.47793 74.220136 
L 258.793441 84.517835 
L 258.951196 85.152291 
L 259.582217 110.237682 
L 259.739973 109.40801 
L 260.213238 100.574438 
L 260.686504 102.136174 
L 261.002015 106.772579 
L 261.15977 104.185953 
L 261.317525 106.040515 
L 261.790791 106.382145 
L 261.948547 104.918017 
L 262.106302 105.113234 
L 262.264057 100.330417 
L 262.421812 105.210843 
L 262.895078 105.796494 
L 263.368344 110.872137 
L 263.526099 107.651056 
L 263.999365 108.675946 
L 264.15712 111.116159 
L 264.314876 107.602252 
L 264.472631 108.822358 
L 264.630386 107.260622 
L 265.103652 107.114209 
L 265.261407 108.431924 
L 265.734673 116.191802 
L 266.365694 117.704734 
L 266.52345 116.826258 
L 266.83896 106.479754 
L 267.312226 111.213767 
L 267.469981 109.749639 
L 267.785492 129.56417 
L 267.943247 126.684719 
L 268.416513 128.392868 
L 268.574268 123.658855 
L 268.732024 125.269395 
L 269.5208 123.756463 
L 269.678555 119.461688 
L 269.83631 120.437773 
L 269.994066 124.439723 
L 270.151821 119.998535 
L 270.625087 116.045389 
L 270.782842 118.778428 
L 270.940597 119.217667 
L 271.098353 123.756463 
L 271.256108 121.853097 
L 271.887129 126.92874 
L 272.044884 125.269395 
L 272.20264 126.147872 
L 272.360395 120.730599 
L 272.833661 120.877012 
L 272.991416 120.388969 
L 273.149171 120.437773 
L 273.306927 123.854072 
L 273.464682 120.779403 
L 274.253458 110.920942 
L 274.411214 112.141048 
L 274.568969 115.313325 
L 275.042235 117.558322 
L 275.357745 111.848223 
L 275.515501 114.190827 
L 275.673256 110.188878 
L 276.146522 110.432899 
L 276.462032 115.801368 
L 276.619788 115.0205 
L 276.777543 118.973645 
L 277.250809 122.829182 
L 277.408564 122.292335 
L 277.566319 122.438748 
L 277.724074 126.147872 
L 277.88183 127.026349 
L 278.512851 125.367004 
L 278.828361 119.461688 
L 278.986117 118.33919 
L 279.459383 117.119083 
L 279.617138 120.779403 
L 279.774893 121.706684 
L 280.090404 115.410934 
L 280.56367 117.265496 
L 280.721425 117.070279 
L 280.87918 118.485603 
L 281.036935 118.583211 
L 281.194691 116.142998 
L 281.667956 111.067355 
L 281.825712 113.653981 
L 281.983467 111.555397 
L 282.141222 111.555397 
L 282.298978 110.188878 
L 282.929999 113.605176 
L 283.087754 115.850172 
L 283.245509 113.409959 
L 283.403265 112.873112 
L 283.87653 116.191802 
L 284.034286 110.67692 
L 284.192041 110.530508 
L 284.507552 105.796494 
L 284.980817 104.918017 
L 285.138573 101.843349 
L 285.296328 101.160089 
L 285.611838 98.475855 
L 286.24286 95.157165 
L 286.400615 97.158139 
L 286.55837 95.498794 
L 286.716125 95.547599 
L 287.189391 92.81456 
L 287.347147 92.863364 
L 287.504902 93.351407 
L 287.662657 89.349457 
L 287.820412 90.227934 
L 288.609189 89.105436 
L 288.766944 87.055657 
L 289.397965 84.078597 
L 289.55572 79.5398 
L 289.713476 80.515886 
L 290.028986 87.055657 
L 290.502252 87.299678 
L 290.660007 90.764781 
L 290.817763 87.348482 
L 291.133273 100.232808 
L 291.764294 93.351407 
L 291.92205 88.373372 
L 292.079805 88.763806 
L 292.23756 85.981963 
L 292.710826 86.714027 
L 293.026337 86.714027 
L 293.184092 86.323593 
L 293.341847 82.614469 
L 293.815113 81.003928 
L 293.972868 81.638384 
L 294.288379 86.567614 
L 294.446134 84.420227 
L 294.9194 87.5437 
L 295.392666 79.393388 
L 295.550421 78.710128 
L 296.023687 75.293829 
L 296.181442 72.609595 
L 296.339198 77.490021 
L 296.496953 78.319694 
L 296.654708 77.392413 
L 297.127974 77.148391 
L 297.443484 83.151316 
L 297.60124 85.152291 
L 297.758995 84.713052 
L 298.390016 92.570539 
L 298.547771 89.8375 
L 298.705527 94.034667 
L 298.863282 91.155215 
L 299.336548 92.47293 
L 299.494303 91.399236 
L 299.809814 93.49782 
L 300.440835 96.670097 
L 300.59859 96.81651 
L 301.071856 88.568589 
L 301.545122 88.178155 
L 301.702877 91.204019 
L 301.860632 90.17913 
L 302.018388 89.935108 
L 302.176143 90.471955 
L 302.649409 86.567614 
L 302.807164 87.787721 
L 302.964919 84.810661 
L 303.122675 84.322618 
L 303.28043 84.22501 
L 303.753696 84.22501 
L 303.911451 84.029793 
L 304.069206 84.078597 
L 304.857983 87.397287 
L 305.015738 87.299678 
L 305.489004 80.857515 
L 305.96227 82.077622 
L 306.27778 78.905345 
L 306.435535 80.759907 
L 306.593291 79.149366 
L 307.066557 85.103486 
L 307.224312 85.103486 
L 307.382067 84.273814 
L 307.697578 85.396312 
L 308.170843 85.445116 
L 308.328599 81.101537 
L 308.644109 85.591529 
L 308.801865 83.834576 
L 309.27513 85.396312 
L 309.432886 82.321643 
L 309.590641 85.249899 
L 309.748396 84.810661 
L 309.906152 83.834576 
L 310.537173 76.611545 
L 310.694928 77.392413 
L 311.010439 72.267965 
L 311.799215 66.753083 
L 312.745747 74.220136 
L 312.903502 76.806762 
L 313.061257 74.26894 
L 313.219012 73.58568 
L 313.850034 79.490996 
L 314.323299 70.95025 
L 314.796565 69.534926 
L 314.954321 70.413403 
L 315.112076 69.681339 
L 315.269831 73.683289 
L 315.427586 69.388514 
L 315.900852 72.756008 
L 316.058607 73.048833 
L 316.216363 70.657424 
L 316.374118 71.047858 
L 316.531873 70.26699 
L 317.005139 64.410479 
L 317.32065 65.191347 
L 317.478405 67.045909 
L 317.63616 65.972215 
L 318.109426 65.679389 
L 318.267181 65.093738 
L 318.424937 65.679389 
L 318.582692 69.876556 
L 318.740447 70.26699 
L 319.213713 70.26699 
L 319.371468 70.706229 
L 319.686979 73.634484 
L 319.844734 71.682314 
L 320.318 68.266015 
L 320.633511 72.072748 
L 320.791266 70.462207 
L 320.949021 70.706229 
L 321.580042 78.661324 
L 321.737798 77.392413 
L 321.895553 78.954149 
L 322.053308 82.760882 
L 322.526574 81.980013 
L 322.684329 84.127401 
L 322.842085 83.932184 
L 322.99984 82.321643 
L 323.157595 83.004903 
L 323.630861 83.736967 
L 323.946371 89.447066 
L 324.104127 91.204019 
L 324.261882 88.910219 
L 324.735148 87.982938 
L 324.892903 87.153265 
L 325.050658 91.594453 
L 325.366169 90.52076 
L 325.839435 84.615444 
L 325.99719 86.079572 
L 326.154945 83.20012 
L 326.312701 82.85849 
L 326.470456 79.637409 
L 327.101477 85.152291 
L 327.259232 83.834576 
L 328.205764 81.540775 
L 328.363519 84.176205 
L 328.521275 81.882405 
L 328.67903 83.053707 
L 329.152296 81.784796 
L 329.310051 79.637409 
L 329.467806 80.808711 
L 329.625562 77.343608 
L 329.783317 76.416327 
L 330.256583 67.826777 
L 330.414338 68.363624 
L 330.729848 65.776998 
L 330.887604 65.776998 
L 331.36087 58.35875 
L 331.518625 58.163533 
L 331.991891 55.479298 
L 332.622912 62.653525 
L 332.622912 62.653525 
" clip-path="url(#p97d3d0001c)" style="fill: none; stroke: #d3d3d3; stroke-width: 1.5; stroke-linecap: square"/>
   </g>
   <g id="patch_3">
    <path d="M 30.49 168.607581 
L 30.49 26.88 
" style="fill: none; stroke: #000000; stroke-width: 0.8; stroke-linejoin: miter; stroke-linecap: square"/>
   </g>
   <g id="patch_4">
    <path d="M 347.010193 168.607581 
L 347.010193 26.88 
" style="fill: none; stroke: #000000; stroke-width: 0.8; stroke-linejoin: miter; stroke-linecap: square"/>
   </g>
   <g id="patch_5">
    <path d="M 30.49 168.607581 
L 347.010193 168.607581 
" style="fill: none; stroke: #000000; stroke-width: 0.8; stroke-linejoin: miter; stroke-linecap: square"/>
   </g>
   <g id="patch_6">
    <path d="M 30.49 26.88 
L 347.010193 26.88 
" style="fill: none; stroke: #000000; stroke-width: 0.8; stroke-linejoin: miter; stroke-linecap: square"/>
   </g>
   <g id="text_13">
    <!-- Crude Oil Prices -->
    <g transform="translate(141.156972 20.88)scale(0.12 -0.12)">
     <defs>
      <path id="DejaVuSans-43" d="M 4122 4306 
L 4122 3641 
Q 3803 3938 3442 4084 
Q 3081 4231 2675 4231 
Q 1875 4231 1450 3742 
Q 1025 3253 1025 2328 
Q 1025 1406 1450 917 
Q 1875 428 2675 428 
Q 3081 428 3442 575 
Q 3803 722 4122 1019 
L 4122 359 
Q 3791 134 3420 21 
Q 3050 -91 2638 -91 
Q 1578 -91 968 557 
Q 359 1206 359 2328 
Q 359 3453 968 4101 
Q 1578 4750 2638 4750 
Q 3056 4750 3426 4639 
Q 3797 4528 4122 4306 
z
" transform="scale(0.015625)"/>
      <path id="DejaVuSans-72" d="M 2631 2963 
Q 2534 3019 2420 3045 
Q 2306 3072 2169 3072 
Q 1681 3072 1420 2755 
Q 1159 2438 1159 1844 
L 1159 0 
L 581 0 
L 581 3500 
L 1159 3500 
L 1159 2956 
Q 1341 3275 1631 3429 
Q 1922 3584 2338 3584 
Q 2397 3584 2469 3576 
Q 2541 3569 2628 3553 
L 2631 2963 
z
" transform="scale(0.015625)"/>
      <path id="DejaVuSans-75" d="M 544 1381 
L 544 3500 
L 1119 3500 
L 1119 1403 
Q 1119 906 1312 657 
Q 1506 409 1894 409 
Q 2359 409 2629 706 
Q 2900 1003 2900 1516 
L 2900 3500 
L 3475 3500 
L 3475 0 
L 2900 0 
L 2900 538 
Q 2691 219 2414 64 
Q 2138 -91 1772 -91 
Q 1169 -91 856 284 
Q 544 659 544 1381 
z
M 1991 3584 
L 1991 3584 
z
" transform="scale(0.015625)"/>
      <path id="DejaVuSans-64" d="M 2906 2969 
L 2906 4863 
L 3481 4863 
L 3481 0 
L 2906 0 
L 2906 525 
Q 2725 213 2448 61 
Q 2172 -91 1784 -91 
Q 1150 -91 751 415 
Q 353 922 353 1747 
Q 353 2572 751 3078 
Q 1150 3584 1784 3584 
Q 2172 3584 2448 3432 
Q 2725 3281 2906 2969 
z
M 947 1747 
Q 947 1113 1208 752 
Q 1469 391 1925 391 
Q 2381 391 2643 752 
Q 2906 1113 2906 1747 
Q 2906 2381 2643 2742 
Q 2381 3103 1925 3103 
Q 1469 3103 1208 2742 
Q 947 2381 947 1747 
z
" transform="scale(0.015625)"/>
      <path id="DejaVuSans-65" d="M 3597 1894 
L 3597 1613 
L 953 1613 
Q 991 1019 1311 708 
Q 1631 397 2203 397 
Q 2534 397 2845 478 
Q 3156 559 3463 722 
L 3463 178 
Q 3153 47 2828 -22 
Q 2503 -91 2169 -91 
Q 1331 -91 842 396 
Q 353 884 353 1716 
Q 353 2575 817 3079 
Q 1281 3584 2069 3584 
Q 2775 3584 3186 3129 
Q 3597 2675 3597 1894 
z
M 3022 2063 
Q 3016 2534 2758 2815 
Q 2500 3097 2075 3097 
Q 1594 3097 1305 2825 
Q 1016 2553 972 2059 
L 3022 2063 
z
" transform="scale(0.015625)"/>
      <path id="DejaVuSans-20" transform="scale(0.015625)"/>
      <path id="DejaVuSans-4f" d="M 2522 4238 
Q 1834 4238 1429 3725 
Q 1025 3213 1025 2328 
Q 1025 1447 1429 934 
Q 1834 422 2522 422 
Q 3209 422 3611 934 
Q 4013 1447 4013 2328 
Q 4013 3213 3611 3725 
Q 3209 4238 2522 4238 
z
M 2522 4750 
Q 3503 4750 4090 4092 
Q 4678 3434 4678 2328 
Q 4678 1225 4090 567 
Q 3503 -91 2522 -91 
Q 1538 -91 948 565 
Q 359 1222 359 2328 
Q 359 3434 948 4092 
Q 1538 4750 2522 4750 
z
" transform="scale(0.015625)"/>
      <path id="DejaVuSans-69" d="M 603 3500 
L 1178 3500 
L 1178 0 
L 603 0 
L 603 3500 
z
M 603 4863 
L 1178 4863 
L 1178 4134 
L 603 4134 
L 603 4863 
z
" transform="scale(0.015625)"/>
      <path id="DejaVuSans-6c" d="M 603 4863 
L 1178 4863 
L 1178 0 
L 603 0 
L 603 4863 
z
" transform="scale(0.015625)"/>
      <path id="DejaVuSans-50" d="M 1259 4147 
L 1259 2394 
L 2053 2394 
Q 2494 2394 2734 2622 
Q 2975 2850 2975 3272 
Q 2975 3691 2734 3919 
Q 2494 4147 2053 4147 
L 1259 4147 
z
M 628 4666 
L 2053 4666 
Q 2838 4666 3239 4311 
Q 3641 3956 3641 3272 
Q 3641 2581 3239 2228 
Q 2838 1875 2053 1875 
L 1259 1875 
L 1259 0 
L 628 0 
L 628 4666 
z
" transform="scale(0.015625)"/>
      <path id="DejaVuSans-63" d="M 3122 3366 
L 3122 2828 
Q 2878 2963 2633 3030 
Q 2388 3097 2138 3097 
Q 1578 3097 1268 2742 
Q 959 2388 959 1747 
Q 959 1106 1268 751 
Q 1578 397 2138 397 
Q 2388 397 2633 464 
Q 2878 531 3122 666 
L 3122 134 
Q 2881 22 2623 -34 
Q 2366 -91 2075 -91 
Q 1284 -91 818 406 
Q 353 903 353 1747 
Q 353 2603 823 3093 
Q 1294 3584 2113 3584 
Q 2378 3584 2631 3529 
Q 2884 3475 3122 3366 
z
" transform="scale(0.015625)"/>
      <path id="DejaVuSans-73" d="M 2834 3397 
L 2834 2853 
Q 2591 2978 2328 3040 
Q 2066 3103 1784 3103 
Q 1356 3103 1142 2972 
Q 928 2841 928 2578 
Q 928 2378 1081 2264 
Q 1234 2150 1697 2047 
L 1894 2003 
Q 2506 1872 2764 1633 
Q 3022 1394 3022 966 
Q 3022 478 2636 193 
Q 2250 -91 1575 -91 
Q 1294 -91 989 -36 
Q 684 19 347 128 
L 347 722 
Q 666 556 975 473 
Q 1284 391 1588 391 
Q 1994 391 2212 530 
Q 2431 669 2431 922 
Q 2431 1156 2273 1281 
Q 2116 1406 1581 1522 
L 1381 1569 
Q 847 1681 609 1914 
Q 372 2147 372 2553 
Q 372 3047 722 3315 
Q 1072 3584 1716 3584 
Q 2034 3584 2315 3537 
Q 2597 3491 2834 3397 
z
" transform="scale(0.015625)"/>
     </defs>
     <use xlink:href="#DejaVuSans-43"/>
     <use xlink:href="#DejaVuSans-72" x="69.824219"/>
     <use xlink:href="#DejaVuSans-75" x="110.9375"/>
     <use xlink:href="#DejaVuSans-64" x="174.316406"/>
     <use xlink:href="#DejaVuSans-65" x="237.792969"/>
     <use xlink:href="#DejaVuSans-20" x="299.316406"/>
     <use xlink:href="#DejaVuSans-4f" x="331.103516"/>
     <use xlink:href="#DejaVuSans-69" x="409.814453"/>
     <use xlink:href="#DejaVuSans-6c" x="437.597656"/>
     <use xlink:href="#DejaVuSans-20" x="465.380859"/>
     <use xlink:href="#DejaVuSans-50" x="497.167969"/>
     <use xlink:href="#DejaVuSans-72" x="555.720703"/>
     <use xlink:href="#DejaVuSans-69" x="596.833984"/>
     <use xlink:href="#DejaVuSans-63" x="624.617188"/>
     <use xlink:href="#DejaVuSans-65" x="679.597656"/>
     <use xlink:href="#DejaVuSans-73" x="741.121094"/>
    </g>
   </g>
  </g>
 </g>
 <defs>
  <clipPath id="p97d3d0001c">
   <rect x="30.49" y="26.88" width="316.520193" height="141.727581"/>
  </clipPath>
 </defs>
</svg>
