<?xml version="1.0" encoding="utf-8" standalone="no"?>
<!DOCTYPE svg PUBLIC "-//W3C//DTD SVG 1.1//EN"
  "http://www.w3.org/Graphics/SVG/1.1/DTD/svg11.dtd">
<svg xmlns:xlink="http://www.w3.org/1999/xlink" width="360pt" height="216pt" viewBox="0 0 360 216" xmlns="http://www.w3.org/2000/svg" version="1.1">
 <metadata>
  <rdf:RDF xmlns:dc="http://purl.org/dc/elements/1.1/" xmlns:cc="http://creativecommons.org/ns#" xmlns:rdf="http://www.w3.org/1999/02/22-rdf-syntax-ns#">
   <cc:Work>
    <dc:type rdf:resource="http://purl.org/dc/dcmitype/StillImage"/>
    <dc:date>2022-08-15T20:37:35.815368</dc:date>
    <dc:format>image/svg+xml</dc:format>
    <dc:creator>
     <cc:Agent>
      <dc:title>Matplotlib v3.5.2, https://matplotlib.org/</dc:title>
     </cc:Agent>
    </dc:creator>
   </cc:Work>
  </rdf:RDF>
 </metadata>
 <defs>
  <style type="text/css">*{stroke-linejoin: round; stroke-linecap: butt}</style>
 </defs>
 <g id="figure_1">
  <g id="patch_1">
   <path d="M 0 216 
L 360 216 
L 360 0 
L 0 0 
L 0 216 
z
" style="fill: none"/>
  </g>
  <g id="axes_1">
   <g id="patch_2">
    <path d="M 36.8 168.501515 
L 336.599536 168.501515 
L 336.599536 26.8 
L 36.8 26.8 
z
" style="fill: #ffffff"/>
   </g>
   <g id="matplotlib.axis_1">
    <g id="xtick_1">
     <g id="line2d_1">
      <defs>
       <path id="m04da4c820b" d="M 0 0 
L 0 3.5 
" style="stroke: #000000; stroke-width: 0.8"/>
      </defs>
      <g>
       <use xlink:href="#m04da4c820b" x="49.019962" y="168.501515" style="stroke: #000000; stroke-width: 0.8"/>
      </g>
     </g>
     <g id="text_1">
      <!-- '21-01 -->
      <g transform="translate(39.725928 203.364837)rotate(-45)scale(0.1 -0.1)">
       <defs>
        <path id="DejaVuSans-27" d="M 1147 4666 
L 1147 2931 
L 616 2931 
L 616 4666 
L 1147 4666 
z
" transform="scale(0.015625)"/>
        <path id="DejaVuSans-32" d="M 1228 531 
L 3431 531 
L 3431 0 
L 469 0 
L 469 531 
Q 828 903 1448 1529 
Q 2069 2156 2228 2338 
Q 2531 2678 2651 2914 
Q 2772 3150 2772 3378 
Q 2772 3750 2511 3984 
Q 2250 4219 1831 4219 
Q 1534 4219 1204 4116 
Q 875 4013 500 3803 
L 500 4441 
Q 881 4594 1212 4672 
Q 1544 4750 1819 4750 
Q 2544 4750 2975 4387 
Q 3406 4025 3406 3419 
Q 3406 3131 3298 2873 
Q 3191 2616 2906 2266 
Q 2828 2175 2409 1742 
Q 1991 1309 1228 531 
z
" transform="scale(0.015625)"/>
        <path id="DejaVuSans-31" d="M 794 531 
L 1825 531 
L 1825 4091 
L 703 3866 
L 703 4441 
L 1819 4666 
L 2450 4666 
L 2450 531 
L 3481 531 
L 3481 0 
L 794 0 
L 794 531 
z
" transform="scale(0.015625)"/>
        <path id="DejaVuSans-2d" d="M 313 2009 
L 1997 2009 
L 1997 1497 
L 313 1497 
L 313 2009 
z
" transform="scale(0.015625)"/>
        <path id="DejaVuSans-30" d="M 2034 4250 
Q 1547 4250 1301 3770 
Q 1056 3291 1056 2328 
Q 1056 1369 1301 889 
Q 1547 409 2034 409 
Q 2525 409 2770 889 
Q 3016 1369 3016 2328 
Q 3016 3291 2770 3770 
Q 2525 4250 2034 4250 
z
M 2034 4750 
Q 2819 4750 3233 4129 
Q 3647 3509 3647 2328 
Q 3647 1150 3233 529 
Q 2819 -91 2034 -91 
Q 1250 -91 836 529 
Q 422 1150 422 2328 
Q 422 3509 836 4129 
Q 1250 4750 2034 4750 
z
" transform="scale(0.015625)"/>
       </defs>
       <use xlink:href="#DejaVuSans-27"/>
       <use xlink:href="#DejaVuSans-32" x="27.490234"/>
       <use xlink:href="#DejaVuSans-31" x="91.113281"/>
       <use xlink:href="#DejaVuSans-2d" x="154.736328"/>
       <use xlink:href="#DejaVuSans-30" x="190.820312"/>
       <use xlink:href="#DejaVuSans-31" x="254.443359"/>
      </g>
     </g>
    </g>
    <g id="xtick_2">
     <g id="line2d_2">
      <g>
       <use xlink:href="#m04da4c820b" x="76.696652" y="168.501515" style="stroke: #000000; stroke-width: 0.8"/>
      </g>
     </g>
     <g id="text_2">
      <!-- '21-03 -->
      <g transform="translate(67.402618 203.364837)rotate(-45)scale(0.1 -0.1)">
       <defs>
        <path id="DejaVuSans-33" d="M 2597 2516 
Q 3050 2419 3304 2112 
Q 3559 1806 3559 1356 
Q 3559 666 3084 287 
Q 2609 -91 1734 -91 
Q 1441 -91 1130 -33 
Q 819 25 488 141 
L 488 750 
Q 750 597 1062 519 
Q 1375 441 1716 441 
Q 2309 441 2620 675 
Q 2931 909 2931 1356 
Q 2931 1769 2642 2001 
Q 2353 2234 1838 2234 
L 1294 2234 
L 1294 2753 
L 1863 2753 
Q 2328 2753 2575 2939 
Q 2822 3125 2822 3475 
Q 2822 3834 2567 4026 
Q 2313 4219 1838 4219 
Q 1578 4219 1281 4162 
Q 984 4106 628 3988 
L 628 4550 
Q 988 4650 1302 4700 
Q 1616 4750 1894 4750 
Q 2613 4750 3031 4423 
Q 3450 4097 3450 3541 
Q 3450 3153 3228 2886 
Q 3006 2619 2597 2516 
z
" transform="scale(0.015625)"/>
       </defs>
       <use xlink:href="#DejaVuSans-27"/>
       <use xlink:href="#DejaVuSans-32" x="27.490234"/>
       <use xlink:href="#DejaVuSans-31" x="91.113281"/>
       <use xlink:href="#DejaVuSans-2d" x="154.736328"/>
       <use xlink:href="#DejaVuSans-30" x="190.820312"/>
       <use xlink:href="#DejaVuSans-33" x="254.443359"/>
      </g>
     </g>
    </g>
    <g id="xtick_3">
     <g id="line2d_3">
      <g>
       <use xlink:href="#m04da4c820b" x="105.311535" y="168.501515" style="stroke: #000000; stroke-width: 0.8"/>
      </g>
     </g>
     <g id="text_3">
      <!-- '21-05 -->
      <g transform="translate(96.017501 203.364837)rotate(-45)scale(0.1 -0.1)">
       <defs>
        <path id="DejaVuSans-35" d="M 691 4666 
L 3169 4666 
L 3169 4134 
L 1269 4134 
L 1269 2991 
Q 1406 3038 1543 3061 
Q 1681 3084 1819 3084 
Q 2600 3084 3056 2656 
Q 3513 2228 3513 1497 
Q 3513 744 3044 326 
Q 2575 -91 1722 -91 
Q 1428 -91 1123 -41 
Q 819 9 494 109 
L 494 744 
Q 775 591 1075 516 
Q 1375 441 1709 441 
Q 2250 441 2565 725 
Q 2881 1009 2881 1497 
Q 2881 1984 2565 2268 
Q 2250 2553 1709 2553 
Q 1456 2553 1204 2497 
Q 953 2441 691 2322 
L 691 4666 
z
" transform="scale(0.015625)"/>
       </defs>
       <use xlink:href="#DejaVuSans-27"/>
       <use xlink:href="#DejaVuSans-32" x="27.490234"/>
       <use xlink:href="#DejaVuSans-31" x="91.113281"/>
       <use xlink:href="#DejaVuSans-2d" x="154.736328"/>
       <use xlink:href="#DejaVuSans-30" x="190.820312"/>
       <use xlink:href="#DejaVuSans-35" x="254.443359"/>
      </g>
     </g>
    </g>
    <g id="xtick_4">
     <g id="line2d_4">
      <g>
       <use xlink:href="#m04da4c820b" x="133.926418" y="168.501515" style="stroke: #000000; stroke-width: 0.8"/>
      </g>
     </g>
     <g id="text_4">
      <!-- '21-07 -->
      <g transform="translate(124.632384 203.364837)rotate(-45)scale(0.1 -0.1)">
       <defs>
        <path id="DejaVuSans-37" d="M 525 4666 
L 3525 4666 
L 3525 4397 
L 1831 0 
L 1172 0 
L 2766 4134 
L 525 4134 
L 525 4666 
z
" transform="scale(0.015625)"/>
       </defs>
       <use xlink:href="#DejaVuSans-27"/>
       <use xlink:href="#DejaVuSans-32" x="27.490234"/>
       <use xlink:href="#DejaVuSans-31" x="91.113281"/>
       <use xlink:href="#DejaVuSans-2d" x="154.736328"/>
       <use xlink:href="#DejaVuSans-30" x="190.820312"/>
       <use xlink:href="#DejaVuSans-37" x="254.443359"/>
      </g>
     </g>
    </g>
    <g id="xtick_5">
     <g id="line2d_5">
      <g>
       <use xlink:href="#m04da4c820b" x="163.010398" y="168.501515" style="stroke: #000000; stroke-width: 0.8"/>
      </g>
     </g>
     <g id="text_5">
      <!-- '21-09 -->
      <g transform="translate(153.716363 203.364837)rotate(-45)scale(0.1 -0.1)">
       <defs>
        <path id="DejaVuSans-39" d="M 703 97 
L 703 672 
Q 941 559 1184 500 
Q 1428 441 1663 441 
Q 2288 441 2617 861 
Q 2947 1281 2994 2138 
Q 2813 1869 2534 1725 
Q 2256 1581 1919 1581 
Q 1219 1581 811 2004 
Q 403 2428 403 3163 
Q 403 3881 828 4315 
Q 1253 4750 1959 4750 
Q 2769 4750 3195 4129 
Q 3622 3509 3622 2328 
Q 3622 1225 3098 567 
Q 2575 -91 1691 -91 
Q 1453 -91 1209 -44 
Q 966 3 703 97 
z
M 1959 2075 
Q 2384 2075 2632 2365 
Q 2881 2656 2881 3163 
Q 2881 3666 2632 3958 
Q 2384 4250 1959 4250 
Q 1534 4250 1286 3958 
Q 1038 3666 1038 3163 
Q 1038 2656 1286 2365 
Q 1534 2075 1959 2075 
z
" transform="scale(0.015625)"/>
       </defs>
       <use xlink:href="#DejaVuSans-27"/>
       <use xlink:href="#DejaVuSans-32" x="27.490234"/>
       <use xlink:href="#DejaVuSans-31" x="91.113281"/>
       <use xlink:href="#DejaVuSans-2d" x="154.736328"/>
       <use xlink:href="#DejaVuSans-30" x="190.820312"/>
       <use xlink:href="#DejaVuSans-39" x="254.443359"/>
      </g>
     </g>
    </g>
    <g id="xtick_6">
     <g id="line2d_6">
      <g>
       <use xlink:href="#m04da4c820b" x="191.625281" y="168.501515" style="stroke: #000000; stroke-width: 0.8"/>
      </g>
     </g>
     <g id="text_6">
      <!-- '21-11 -->
      <g transform="translate(182.331246 203.364837)rotate(-45)scale(0.1 -0.1)">
       <use xlink:href="#DejaVuSans-27"/>
       <use xlink:href="#DejaVuSans-32" x="27.490234"/>
       <use xlink:href="#DejaVuSans-31" x="91.113281"/>
       <use xlink:href="#DejaVuSans-2d" x="154.736328"/>
       <use xlink:href="#DejaVuSans-31" x="190.820312"/>
       <use xlink:href="#DejaVuSans-31" x="254.443359"/>
      </g>
     </g>
    </g>
    <g id="xtick_7">
     <g id="line2d_7">
      <g>
       <use xlink:href="#m04da4c820b" x="220.240164" y="168.501515" style="stroke: #000000; stroke-width: 0.8"/>
      </g>
     </g>
     <g id="text_7">
      <!-- '22-01 -->
      <g transform="translate(210.946129 203.364837)rotate(-45)scale(0.1 -0.1)">
       <use xlink:href="#DejaVuSans-27"/>
       <use xlink:href="#DejaVuSans-32" x="27.490234"/>
       <use xlink:href="#DejaVuSans-32" x="91.113281"/>
       <use xlink:href="#DejaVuSans-2d" x="154.736328"/>
       <use xlink:href="#DejaVuSans-30" x="190.820312"/>
       <use xlink:href="#DejaVuSans-31" x="254.443359"/>
      </g>
     </g>
    </g>
    <g id="xtick_8">
     <g id="line2d_8">
      <g>
       <use xlink:href="#m04da4c820b" x="247.916854" y="168.501515" style="stroke: #000000; stroke-width: 0.8"/>
      </g>
     </g>
     <g id="text_8">
      <!-- '22-03 -->
      <g transform="translate(238.622819 203.364837)rotate(-45)scale(0.1 -0.1)">
       <use xlink:href="#DejaVuSans-27"/>
       <use xlink:href="#DejaVuSans-32" x="27.490234"/>
       <use xlink:href="#DejaVuSans-32" x="91.113281"/>
       <use xlink:href="#DejaVuSans-2d" x="154.736328"/>
       <use xlink:href="#DejaVuSans-30" x="190.820312"/>
       <use xlink:href="#DejaVuSans-33" x="254.443359"/>
      </g>
     </g>
    </g>
    <g id="xtick_9">
     <g id="line2d_9">
      <g>
       <use xlink:href="#m04da4c820b" x="276.531737" y="168.501515" style="stroke: #000000; stroke-width: 0.8"/>
      </g>
     </g>
     <g id="text_9">
      <!-- '22-05 -->
      <g transform="translate(267.237702 203.364837)rotate(-45)scale(0.1 -0.1)">
       <use xlink:href="#DejaVuSans-27"/>
       <use xlink:href="#DejaVuSans-32" x="27.490234"/>
       <use xlink:href="#DejaVuSans-32" x="91.113281"/>
       <use xlink:href="#DejaVuSans-2d" x="154.736328"/>
       <use xlink:href="#DejaVuSans-30" x="190.820312"/>
       <use xlink:href="#DejaVuSans-35" x="254.443359"/>
      </g>
     </g>
    </g>
    <g id="xtick_10">
     <g id="line2d_10">
      <g>
       <use xlink:href="#m04da4c820b" x="305.14662" y="168.501515" style="stroke: #000000; stroke-width: 0.8"/>
      </g>
     </g>
     <g id="text_10">
      <!-- '22-07 -->
      <g transform="translate(295.852585 203.364837)rotate(-45)scale(0.1 -0.1)">
       <use xlink:href="#DejaVuSans-27"/>
       <use xlink:href="#DejaVuSans-32" x="27.490234"/>
       <use xlink:href="#DejaVuSans-32" x="91.113281"/>
       <use xlink:href="#DejaVuSans-2d" x="154.736328"/>
       <use xlink:href="#DejaVuSans-30" x="190.820312"/>
       <use xlink:href="#DejaVuSans-37" x="254.443359"/>
      </g>
     </g>
    </g>
    <g id="xtick_11">
     <g id="line2d_11">
      <g>
       <use xlink:href="#m04da4c820b" x="334.230599" y="168.501515" style="stroke: #000000; stroke-width: 0.8"/>
      </g>
     </g>
     <g id="text_11">
      <!-- '22-09 -->
      <g transform="translate(324.936565 203.364837)rotate(-45)scale(0.1 -0.1)">
       <use xlink:href="#DejaVuSans-27"/>
       <use xlink:href="#DejaVuSans-32" x="27.490234"/>
       <use xlink:href="#DejaVuSans-32" x="91.113281"/>
       <use xlink:href="#DejaVuSans-2d" x="154.736328"/>
       <use xlink:href="#DejaVuSans-30" x="190.820312"/>
       <use xlink:href="#DejaVuSans-39" x="254.443359"/>
      </g>
     </g>
    </g>
   </g>
   <g id="matplotlib.axis_2">
    <g id="ytick_1">
     <g id="line2d_12">
      <defs>
       <path id="m45e428c94a" d="M 0 0 
L -3.5 0 
" style="stroke: #000000; stroke-width: 0.8"/>
      </defs>
      <g>
       <use xlink:href="#m45e428c94a" x="36.8" y="140.869661" style="stroke: #000000; stroke-width: 0.8"/>
      </g>
     </g>
     <g id="text_12">
      <!-- 60 -->
      <g transform="translate(17.075 144.668879)scale(0.1 -0.1)">
       <defs>
        <path id="DejaVuSans-36" d="M 2113 2584 
Q 1688 2584 1439 2293 
Q 1191 2003 1191 1497 
Q 1191 994 1439 701 
Q 1688 409 2113 409 
Q 2538 409 2786 701 
Q 3034 994 3034 1497 
Q 3034 2003 2786 2293 
Q 2538 2584 2113 2584 
z
M 3366 4563 
L 3366 3988 
Q 3128 4100 2886 4159 
Q 2644 4219 2406 4219 
Q 1781 4219 1451 3797 
Q 1122 3375 1075 2522 
Q 1259 2794 1537 2939 
Q 1816 3084 2150 3084 
Q 2853 3084 3261 2657 
Q 3669 2231 3669 1497 
Q 3669 778 3244 343 
Q 2819 -91 2113 -91 
Q 1303 -91 875 529 
Q 447 1150 447 2328 
Q 447 3434 972 4092 
Q 1497 4750 2381 4750 
Q 2619 4750 2861 4703 
Q 3103 4656 3366 4563 
z
" transform="scale(0.015625)"/>
       </defs>
       <use xlink:href="#DejaVuSans-36"/>
       <use xlink:href="#DejaVuSans-30" x="63.623047"/>
      </g>
     </g>
    </g>
    <g id="ytick_2">
     <g id="line2d_13">
      <g>
       <use xlink:href="#m45e428c94a" x="36.8" y="107.045436" style="stroke: #000000; stroke-width: 0.8"/>
      </g>
     </g>
     <g id="text_13">
      <!-- 80 -->
      <g transform="translate(17.075 110.844655)scale(0.1 -0.1)">
       <defs>
        <path id="DejaVuSans-38" d="M 2034 2216 
Q 1584 2216 1326 1975 
Q 1069 1734 1069 1313 
Q 1069 891 1326 650 
Q 1584 409 2034 409 
Q 2484 409 2743 651 
Q 3003 894 3003 1313 
Q 3003 1734 2745 1975 
Q 2488 2216 2034 2216 
z
M 1403 2484 
Q 997 2584 770 2862 
Q 544 3141 544 3541 
Q 544 4100 942 4425 
Q 1341 4750 2034 4750 
Q 2731 4750 3128 4425 
Q 3525 4100 3525 3541 
Q 3525 3141 3298 2862 
Q 3072 2584 2669 2484 
Q 3125 2378 3379 2068 
Q 3634 1759 3634 1313 
Q 3634 634 3220 271 
Q 2806 -91 2034 -91 
Q 1263 -91 848 271 
Q 434 634 434 1313 
Q 434 1759 690 2068 
Q 947 2378 1403 2484 
z
M 1172 3481 
Q 1172 3119 1398 2916 
Q 1625 2713 2034 2713 
Q 2441 2713 2670 2916 
Q 2900 3119 2900 3481 
Q 2900 3844 2670 4047 
Q 2441 4250 2034 4250 
Q 1625 4250 1398 4047 
Q 1172 3844 1172 3481 
z
" transform="scale(0.015625)"/>
       </defs>
       <use xlink:href="#DejaVuSans-38"/>
       <use xlink:href="#DejaVuSans-30" x="63.623047"/>
      </g>
     </g>
    </g>
    <g id="ytick_3">
     <g id="line2d_14">
      <g>
       <use xlink:href="#m45e428c94a" x="36.8" y="73.221211" style="stroke: #000000; stroke-width: 0.8"/>
      </g>
     </g>
     <g id="text_14">
      <!-- 100 -->
      <g transform="translate(10.7125 77.02043)scale(0.1 -0.1)">
       <use xlink:href="#DejaVuSans-31"/>
       <use xlink:href="#DejaVuSans-30" x="63.623047"/>
       <use xlink:href="#DejaVuSans-30" x="127.246094"/>
      </g>
     </g>
    </g>
    <g id="ytick_4">
     <g id="line2d_15">
      <g>
       <use xlink:href="#m45e428c94a" x="36.8" y="39.396987" style="stroke: #000000; stroke-width: 0.8"/>
      </g>
     </g>
     <g id="text_15">
      <!-- 120 -->
      <g transform="translate(10.7125 43.196206)scale(0.1 -0.1)">
       <use xlink:href="#DejaVuSans-31"/>
       <use xlink:href="#DejaVuSans-32" x="63.623047"/>
       <use xlink:href="#DejaVuSans-30" x="127.246094"/>
      </g>
     </g>
    </g>
   </g>
   <g id="line2d_16">
    <path d="M 50.427252 162.060537 
L 50.896348 158.153839 
L 51.365445 157.020728 
L 51.834541 156.71631 
L 52.303637 154.162581 
L 53.710927 154.145669 
L 54.180023 152.572842 
L 54.64912 153.029469 
L 55.118216 151.91327 
L 55.587313 153.976548 
L 57.463698 152.927997 
L 57.932795 152.437545 
L 58.401891 152.708139 
L 58.870988 153.925811 
L 60.278277 153.080206 
L 60.747373 153.367712 
L 61.21647 153.029469 
L 61.685566 153.959635 
L 62.154663 154.128757 
L 63.561952 151.777973 
L 64.031048 149.714695 
L 64.500145 148.192605 
L 65.438338 146.281536 
L 67.78382 143.085147 
L 68.252916 143.880017 
L 68.722013 141.715266 
L 70.598399 140.751276 
L 71.067495 139.02624 
L 71.536592 140.193176 
L 72.005688 142.357926 
L 73.412977 138.045338 
L 73.882074 138.06225 
L 74.35117 135.440872 
L 74.820267 135.068806 
L 75.289363 138.248283 
L 76.696652 139.956406 
L 77.165749 141.377024 
L 77.634845 138.62035 
L 78.573038 130.587096 
L 79.980328 132.362868 
L 80.449424 134.070991 
L 80.91852 133.343771 
L 81.387617 130.688569 
L 81.856713 131.41579 
L 83.264003 131.804768 
L 83.733099 132.718022 
L 84.202196 133.174649 
L 84.671292 140.954221 
L 85.140388 138.451228 
L 86.547678 138.366668 
L 87.016774 144.674886 
L 87.485871 138.975504 
L 87.954967 143.457214 
L 88.424063 139.296834 
L 89.831353 138.349756 
L 90.300449 139.939494 
L 90.769546 142.239542 
L 91.238642 138.485053 
L 93.115028 143.017499 
L 93.584124 141.98586 
L 94.053221 141.258639 
L 94.522317 141.529233 
L 94.991414 142.070421 
L 96.398703 141.377024 
L 96.867799 140.531418 
L 97.336896 135.542345 
L 97.805992 135.085718 
L 98.275089 135.525433 
L 99.682378 135.237927 
L 100.151475 136.455599 
L 100.620571 138.603437 
L 101.089667 138.417404 
L 101.558764 137.18282 
L 102.966053 137.453414 
L 104.373343 132.413604 
L 104.842439 134.950421 
L 106.249728 133.326858 
L 106.718825 131.195932 
L 107.187921 131.348141 
L 107.657018 132.870231 
L 108.126114 132.481253 
L 109.533403 132.548901 
L 110.0025 131.889329 
L 110.471596 130.790042 
L 110.940693 134.409234 
L 111.409789 131.872417 
L 112.817078 130.316502 
L 113.286175 131.584911 
L 113.755271 135.322488 
L 114.224368 137.571799 
L 114.693464 134.764388 
L 116.100754 130.502536 
L 117.038946 130.028997 
L 117.508043 129.251039 
L 117.977139 130.198118 
L 119.853525 127.678213 
L 120.322622 126.003914 
L 120.791718 125.97009 
L 121.260814 124.684769 
L 122.668104 125.293605 
L 123.1372 123.771515 
L 123.606297 124.126669 
L 124.075393 123.382536 
L 124.54449 122.266337 
L 125.951779 122.36781 
L 126.420875 120.473653 
L 126.889972 120.524389 
L 127.359068 122.164864 
L 127.828165 121.183962 
L 129.235454 117.801539 
L 129.70455 118.630233 
L 130.173647 118.697881 
L 130.642743 118.359639 
L 131.11184 116.837549 
L 132.519129 118.917739 
L 132.988226 118.647145 
L 133.457322 118.004485 
L 133.926418 114.943392 
L 134.395515 114.875744 
L 136.271901 117.835364 
L 136.740997 120.203059 
L 137.210093 118.917739 
L 137.67919 116.245625 
L 139.086479 116.837549 
L 139.555576 115.095601 
L 140.024672 118.782442 
L 140.493769 121.133226 
L 140.962865 120.981016 
L 142.370154 129.961348 
L 142.839251 128.489994 
L 143.308347 123.517833 
L 143.777444 120.321444 
L 144.24654 120.169235 
L 145.653829 120.321444 
L 146.122926 121.116313 
L 146.592022 119.949378 
L 147.061119 117.835364 
L 147.530215 117.311088 
L 149.406601 122.875173 
L 149.875697 127.018641 
L 150.344794 125.479638 
L 150.81389 126.900256 
L 152.22118 129.775315 
L 152.690276 126.781871 
L 153.159373 125.141396 
L 153.628469 125.445814 
L 154.097565 126.731135 
L 155.504855 128.287049 
L 156.443048 131.804768 
L 157.381241 137.064435 
L 158.78853 131.314317 
L 159.257626 128.185576 
L 159.726723 126.426717 
L 160.195819 128.320873 
L 160.664916 125.919353 
L 162.072205 125.17522 
L 162.541301 126.61275 
L 163.010398 126.274508 
L 163.479494 123.839163 
L 163.948591 125.073748 
L 165.824976 126.511277 
L 166.294073 125.039923 
L 166.763169 126.900256 
L 167.232266 124.261966 
L 168.639555 123.044294 
L 169.108652 123.061206 
L 169.577748 119.577311 
L 170.046844 119.40819 
L 171.92323 123.264152 
L 172.392327 123.095031 
L 172.861423 119.949378 
L 173.33052 118.156694 
L 173.799616 116.888285 
L 175.206905 114.588238 
L 175.676002 114.757359 
L 176.145098 115.400019 
L 176.614195 115.129426 
L 177.083291 113.793369 
L 178.49058 110.969046 
L 178.959677 108.449141 
L 179.428773 111.00287 
L 179.89787 109.649901 
L 180.366966 107.806481 
L 181.774256 105.963061 
L 182.243352 105.777028 
L 182.712448 105.912324 
L 183.181545 104.627004 
L 183.650641 103.003441 
L 185.057931 102.614463 
L 185.527027 101.650472 
L 185.996124 99.604107 
L 186.46522 102.580638 
L 186.934316 99.384249 
L 188.341606 99.198216 
L 188.810702 97.507005 
L 189.279799 102.546814 
L 189.748895 102.343869 
L 190.217991 101.126197 
L 191.625281 100.145294 
L 192.094377 100.4328 
L 192.563474 105.658643 
L 193.03257 108.939593 
L 193.501667 104.931422 
L 194.908956 103.730662 
L 195.378052 100.077646 
L 195.847149 104.965246 
L 196.316245 104.559355 
L 196.785342 105.574082 
L 198.192631 105.607906 
L 198.661727 105.760115 
L 199.130824 109.886671 
L 199.59992 108.871944 
L 200.069017 113.624248 
L 201.476306 112.558785 
L 201.945403 109.886671 
L 202.414499 109.886671 
L 204.759981 124.160494 
L 205.229078 130.485624 
L 205.698174 131.669471 
L 206.167271 129.707666 
L 206.636367 130.062821 
L 208.043656 124.600209 
L 208.512753 120.676598 
L 208.981849 119.847905 
L 209.450946 122.486194 
L 209.920042 121.065577 
L 211.327331 121.945007 
L 211.796428 122.993558 
L 212.265524 122.45237 
L 212.734621 120.000114 
L 213.203717 122.384722 
L 214.611006 126.173035 
L 215.080103 122.097216 
L 215.549199 119.188333 
L 216.018296 117.378737 
L 217.894682 114.672799 
L 218.832874 112.829378 
L 219.301971 112.406576 
L 219.771067 114.943392 
L 221.178357 113.827193 
L 222.11655 110.715364 
L 222.585646 107.941778 
L 223.054742 108.736647 
L 224.462032 110.241825 
L 224.931128 105.066719 
L 225.400225 102.800496 
L 225.869321 103.71375 
L 226.338418 100.585009 
L 228.214803 97.879071 
L 228.6839 95.477551 
L 229.152996 96.407717 
L 229.622093 98.318786 
L 231.029382 99.46881 
L 231.967575 92.957646 
L 232.436671 94.175319 
L 232.905768 94.073846 
L 234.313057 91.553941 
L 234.782154 93.14368 
L 235.25125 93.245152 
L 236.189443 86.294274 
L 237.596732 88.01931 
L 238.065829 91.283347 
L 239.004021 90.42083 
L 239.473118 84.890569 
L 240.880407 80.797838 
L 241.349504 86.632516 
L 241.8186 83.655985 
L 242.287697 87.122968 
L 242.756793 88.002398 
L 244.633179 86.564868 
L 245.102275 86.514132 
L 245.571372 85.448669 
L 246.040468 87.292089 
L 247.447757 79.766199 
L 248.38595 55.057603 
L 248.855047 60.215797 
L 249.324143 46.55081 
L 250.731433 40.648483 
L 251.200529 33.240978 
L 251.669625 58.32164 
L 252.138722 63.192329 
L 252.607818 57.476035 
L 254.015108 67.775511 
L 254.484204 79.275748 
L 254.953301 81.930949 
L 255.422397 68.198314 
L 255.891493 65.289431 
L 257.298783 52.689907 
L 257.767879 54.567152 
L 258.236976 48.039076 
L 258.706072 49.206012 
L 259.175169 45.82359 
L 261.051554 66.033564 
L 261.520651 60.012852 
L 261.989747 72.324869 
L 262.458844 74.371235 
L 263.866133 67.657126 
L 264.335229 69.872613 
L 264.804326 79.326484 
L 265.273422 79.901496 
L 265.742519 76.01171 
L 267.149808 82.996412 
L 267.618904 72.341782 
L 268.088001 66.016652 
L 268.557097 61.653327 
L 270.433483 59.285631 
L 270.90258 68.925535 
L 271.371676 68.891711 
L 271.840772 66.6424 
L 273.717158 73.897696 
L 274.186255 68.790238 
L 274.655351 69.906437 
L 275.124448 63.970286 
L 275.593544 65.458552 
L 277.000833 64.460737 
L 277.46993 68.942447 
L 277.939026 59.962115 
L 278.408123 59.404016 
L 278.877219 56.782638 
L 280.284508 68.012281 
L 280.753605 73.660926 
L 281.222701 63.91955 
L 281.691798 62.820262 
L 282.160894 55.429669 
L 283.568184 49.425869 
L 284.03728 52.402401 
L 284.506376 56.867199 
L 284.975473 52.571522 
L 285.444569 51.861214 
L 286.851859 55.767912 
L 287.320955 51.99651 
L 287.790052 51.438411 
L 288.259148 45.840502 
L 288.728244 47.920691 
L 290.60463 48.901594 
L 291.073727 47.413328 
L 291.073727 47.413328 
" clip-path="url(#p3d693283b5)" style="fill: none; stroke: #000000; stroke-width: 1.5; stroke-linecap: square"/>
   </g>
   <g id="line2d_17">
    <path d="M 291.542823 44.673566 
L 292.011919 41.138934 
L 293.419209 42.086013 
L 293.888305 40.158032 
L 294.357402 36.116037 
L 294.826498 36.826346 
L 295.295595 38.162403 
L 296.702884 37.841073 
L 297.17198 41.223495 
L 297.641077 47.311855 
L 298.110173 43.523542 
L 298.57927 57.053232 
L 300.455655 55.480406 
L 300.924752 62.701878 
L 301.393848 63.496747 
L 301.862945 57.881926 
L 303.270234 53.873755 
L 303.739331 50.119266 
L 304.208427 53.518601 
L 304.677523 60.097412 
L 305.14662 55.801736 
L 307.023006 70.599834 
L 307.492102 72.696936 
L 307.961199 65.407816 
L 308.430295 61.754799 
L 309.837584 62.921735 
L 310.306681 77.127909 
L 310.775777 75.859501 
L 311.244874 76.958788 
L 311.71397 73.914608 
L 313.121259 65.644585 
L 313.590356 62.870999 
L 314.059452 65.695321 
L 314.528549 75.859501 
L 314.997645 77.094085 
L 316.404934 73.508717 
L 316.874031 77.043349 
L 317.343127 73.170475 
L 317.812224 74.726389 
L 318.28132 71.005725 
L 319.68861 78.988242 
L 320.157706 78.058076 
L 320.626802 84.636887 
L 321.095899 87.951661 
L 321.564995 87.13988 
L 322.972285 84.18026 
" clip-path="url(#p3d693283b5)" style="fill: none; stroke: #d3d3d3; stroke-width: 1.5; stroke-linecap: square"/>
   </g>
   <g id="patch_3">
    <path d="M 36.8 168.501515 
L 36.8 26.8 
" style="fill: none; stroke: #000000; stroke-width: 0.8; stroke-linejoin: miter; stroke-linecap: square"/>
   </g>
   <g id="patch_4">
    <path d="M 336.599536 168.501515 
L 336.599536 26.8 
" style="fill: none; stroke: #000000; stroke-width: 0.8; stroke-linejoin: miter; stroke-linecap: square"/>
   </g>
   <g id="patch_5">
    <path d="M 36.8 168.501515 
L 336.599536 168.501515 
" style="fill: none; stroke: #000000; stroke-width: 0.8; stroke-linejoin: miter; stroke-linecap: square"/>
   </g>
   <g id="patch_6">
    <path d="M 36.8 26.8 
L 336.599536 26.8 
" style="fill: none; stroke: #000000; stroke-width: 0.8; stroke-linejoin: miter; stroke-linecap: square"/>
   </g>
   <g id="text_16">
    <!-- Crude Oil Prices -->
    <g transform="translate(139.106643 20.8)scale(0.12 -0.12)">
     <defs>
      <path id="DejaVuSans-43" d="M 4122 4306 
L 4122 3641 
Q 3803 3938 3442 4084 
Q 3081 4231 2675 4231 
Q 1875 4231 1450 3742 
Q 1025 3253 1025 2328 
Q 1025 1406 1450 917 
Q 1875 428 2675 428 
Q 3081 428 3442 575 
Q 3803 722 4122 1019 
L 4122 359 
Q 3791 134 3420 21 
Q 3050 -91 2638 -91 
Q 1578 -91 968 557 
Q 359 1206 359 2328 
Q 359 3453 968 4101 
Q 1578 4750 2638 4750 
Q 3056 4750 3426 4639 
Q 3797 4528 4122 4306 
z
" transform="scale(0.015625)"/>
      <path id="DejaVuSans-72" d="M 2631 2963 
Q 2534 3019 2420 3045 
Q 2306 3072 2169 3072 
Q 1681 3072 1420 2755 
Q 1159 2438 1159 1844 
L 1159 0 
L 581 0 
L 581 3500 
L 1159 3500 
L 1159 2956 
Q 1341 3275 1631 3429 
Q 1922 3584 2338 3584 
Q 2397 3584 2469 3576 
Q 2541 3569 2628 3553 
L 2631 2963 
z
" transform="scale(0.015625)"/>
      <path id="DejaVuSans-75" d="M 544 1381 
L 544 3500 
L 1119 3500 
L 1119 1403 
Q 1119 906 1312 657 
Q 1506 409 1894 409 
Q 2359 409 2629 706 
Q 2900 1003 2900 1516 
L 2900 3500 
L 3475 3500 
L 3475 0 
L 2900 0 
L 2900 538 
Q 2691 219 2414 64 
Q 2138 -91 1772 -91 
Q 1169 -91 856 284 
Q 544 659 544 1381 
z
M 1991 3584 
L 1991 3584 
z
" transform="scale(0.015625)"/>
      <path id="DejaVuSans-64" d="M 2906 2969 
L 2906 4863 
L 3481 4863 
L 3481 0 
L 2906 0 
L 2906 525 
Q 2725 213 2448 61 
Q 2172 -91 1784 -91 
Q 1150 -91 751 415 
Q 353 922 353 1747 
Q 353 2572 751 3078 
Q 1150 3584 1784 3584 
Q 2172 3584 2448 3432 
Q 2725 3281 2906 2969 
z
M 947 1747 
Q 947 1113 1208 752 
Q 1469 391 1925 391 
Q 2381 391 2643 752 
Q 2906 1113 2906 1747 
Q 2906 2381 2643 2742 
Q 2381 3103 1925 3103 
Q 1469 3103 1208 2742 
Q 947 2381 947 1747 
z
" transform="scale(0.015625)"/>
      <path id="DejaVuSans-65" d="M 3597 1894 
L 3597 1613 
L 953 1613 
Q 991 1019 1311 708 
Q 1631 397 2203 397 
Q 2534 397 2845 478 
Q 3156 559 3463 722 
L 3463 178 
Q 3153 47 2828 -22 
Q 2503 -91 2169 -91 
Q 1331 -91 842 396 
Q 353 884 353 1716 
Q 353 2575 817 3079 
Q 1281 3584 2069 3584 
Q 2775 3584 3186 3129 
Q 3597 2675 3597 1894 
z
M 3022 2063 
Q 3016 2534 2758 2815 
Q 2500 3097 2075 3097 
Q 1594 3097 1305 2825 
Q 1016 2553 972 2059 
L 3022 2063 
z
" transform="scale(0.015625)"/>
      <path id="DejaVuSans-20" transform="scale(0.015625)"/>
      <path id="DejaVuSans-4f" d="M 2522 4238 
Q 1834 4238 1429 3725 
Q 1025 3213 1025 2328 
Q 1025 1447 1429 934 
Q 1834 422 2522 422 
Q 3209 422 3611 934 
Q 4013 1447 4013 2328 
Q 4013 3213 3611 3725 
Q 3209 4238 2522 4238 
z
M 2522 4750 
Q 3503 4750 4090 4092 
Q 4678 3434 4678 2328 
Q 4678 1225 4090 567 
Q 3503 -91 2522 -91 
Q 1538 -91 948 565 
Q 359 1222 359 2328 
Q 359 3434 948 4092 
Q 1538 4750 2522 4750 
z
" transform="scale(0.015625)"/>
      <path id="DejaVuSans-69" d="M 603 3500 
L 1178 3500 
L 1178 0 
L 603 0 
L 603 3500 
z
M 603 4863 
L 1178 4863 
L 1178 4134 
L 603 4134 
L 603 4863 
z
" transform="scale(0.015625)"/>
      <path id="DejaVuSans-6c" d="M 603 4863 
L 1178 4863 
L 1178 0 
L 603 0 
L 603 4863 
z
" transform="scale(0.015625)"/>
      <path id="DejaVuSans-50" d="M 1259 4147 
L 1259 2394 
L 2053 2394 
Q 2494 2394 2734 2622 
Q 2975 2850 2975 3272 
Q 2975 3691 2734 3919 
Q 2494 4147 2053 4147 
L 1259 4147 
z
M 628 4666 
L 2053 4666 
Q 2838 4666 3239 4311 
Q 3641 3956 3641 3272 
Q 3641 2581 3239 2228 
Q 2838 1875 2053 1875 
L 1259 1875 
L 1259 0 
L 628 0 
L 628 4666 
z
" transform="scale(0.015625)"/>
      <path id="DejaVuSans-63" d="M 3122 3366 
L 3122 2828 
Q 2878 2963 2633 3030 
Q 2388 3097 2138 3097 
Q 1578 3097 1268 2742 
Q 959 2388 959 1747 
Q 959 1106 1268 751 
Q 1578 397 2138 397 
Q 2388 397 2633 464 
Q 2878 531 3122 666 
L 3122 134 
Q 2881 22 2623 -34 
Q 2366 -91 2075 -91 
Q 1284 -91 818 406 
Q 353 903 353 1747 
Q 353 2603 823 3093 
Q 1294 3584 2113 3584 
Q 2378 3584 2631 3529 
Q 2884 3475 3122 3366 
z
" transform="scale(0.015625)"/>
      <path id="DejaVuSans-73" d="M 2834 3397 
L 2834 2853 
Q 2591 2978 2328 3040 
Q 2066 3103 1784 3103 
Q 1356 3103 1142 2972 
Q 928 2841 928 2578 
Q 928 2378 1081 2264 
Q 1234 2150 1697 2047 
L 1894 2003 
Q 2506 1872 2764 1633 
Q 3022 1394 3022 966 
Q 3022 478 2636 193 
Q 2250 -91 1575 -91 
Q 1294 -91 989 -36 
Q 684 19 347 128 
L 347 722 
Q 666 556 975 473 
Q 1284 391 1588 391 
Q 1994 391 2212 530 
Q 2431 669 2431 922 
Q 2431 1156 2273 1281 
Q 2116 1406 1581 1522 
L 1381 1569 
Q 847 1681 609 1914 
Q 372 2147 372 2553 
Q 372 3047 722 3315 
Q 1072 3584 1716 3584 
Q 2034 3584 2315 3537 
Q 2597 3491 2834 3397 
z
" transform="scale(0.015625)"/>
     </defs>
     <use xlink:href="#DejaVuSans-43"/>
     <use xlink:href="#DejaVuSans-72" x="69.824219"/>
     <use xlink:href="#DejaVuSans-75" x="110.9375"/>
     <use xlink:href="#DejaVuSans-64" x="174.316406"/>
     <use xlink:href="#DejaVuSans-65" x="237.792969"/>
     <use xlink:href="#DejaVuSans-20" x="299.316406"/>
     <use xlink:href="#DejaVuSans-4f" x="331.103516"/>
     <use xlink:href="#DejaVuSans-69" x="409.814453"/>
     <use xlink:href="#DejaVuSans-6c" x="437.597656"/>
     <use xlink:href="#DejaVuSans-20" x="465.380859"/>
     <use xlink:href="#DejaVuSans-50" x="497.167969"/>
     <use xlink:href="#DejaVuSans-72" x="555.720703"/>
     <use xlink:href="#DejaVuSans-69" x="596.833984"/>
     <use xlink:href="#DejaVuSans-63" x="624.617188"/>
     <use xlink:href="#DejaVuSans-65" x="679.597656"/>
     <use xlink:href="#DejaVuSans-73" x="741.121094"/>
    </g>
   </g>
  </g>
 </g>
 <defs>
  <clipPath id="p3d693283b5">
   <rect x="36.8" y="26.8" width="299.799536" height="141.701515"/>
  </clipPath>
 </defs>
</svg>
