<?xml version="1.0" encoding="utf-8" standalone="no"?>
<!DOCTYPE svg PUBLIC "-//W3C//DTD SVG 1.1//EN"
  "http://www.w3.org/Graphics/SVG/1.1/DTD/svg11.dtd">
<svg xmlns:xlink="http://www.w3.org/1999/xlink" width="360pt" height="216pt" viewBox="0 0 360 216" xmlns="http://www.w3.org/2000/svg" version="1.1">
 <metadata>
  <rdf:RDF xmlns:dc="http://purl.org/dc/elements/1.1/" xmlns:cc="http://creativecommons.org/ns#" xmlns:rdf="http://www.w3.org/1999/02/22-rdf-syntax-ns#">
   <cc:Work>
    <dc:type rdf:resource="http://purl.org/dc/dcmitype/StillImage"/>
    <dc:date>2023-03-24T15:59:48.081322</dc:date>
    <dc:format>image/svg+xml</dc:format>
    <dc:creator>
     <cc:Agent>
      <dc:title>Matplotlib v3.6.3, https://matplotlib.org/</dc:title>
     </cc:Agent>
    </dc:creator>
   </cc:Work>
  </rdf:RDF>
 </metadata>
 <defs>
  <style type="text/css">*{stroke-linejoin: round; stroke-linecap: butt}</style>
 </defs>
 <g id="figure_1">
  <g id="patch_1">
   <path d="M 0 216 
L 360 216 
L 360 0 
L 0 0 
z
" style="fill: #ffffff"/>
  </g>
  <g id="axes_1">
   <g id="patch_2">
    <path d="M 43.18 168.671221 
L 346.885373 168.671221 
L 346.885373 26.88 
L 43.18 26.88 
z
" style="fill: #ffffff"/>
   </g>
   <g id="matplotlib.axis_1">
    <g id="xtick_1">
     <g id="line2d_1">
      <defs>
       <path id="mfa96041ade" d="M 0 0 
L 0 3.5 
" style="stroke: #000000; stroke-width: 0.8"/>
      </defs>
      <g>
       <use xlink:href="#mfa96041ade" x="56.479582" y="168.671221" style="stroke: #000000; stroke-width: 0.8"/>
      </g>
     </g>
     <g id="text_1">
      <!-- '07-01 -->
      <g transform="translate(47.185548 203.534543) rotate(-45) scale(0.1 -0.1)">
       <defs>
        <path id="DejaVuSans-27" d="M 1147 4666 
L 1147 2931 
L 616 2931 
L 616 4666 
L 1147 4666 
z
" transform="scale(0.015625)"/>
        <path id="DejaVuSans-30" d="M 2034 4250 
Q 1547 4250 1301 3770 
Q 1056 3291 1056 2328 
Q 1056 1369 1301 889 
Q 1547 409 2034 409 
Q 2525 409 2770 889 
Q 3016 1369 3016 2328 
Q 3016 3291 2770 3770 
Q 2525 4250 2034 4250 
z
M 2034 4750 
Q 2819 4750 3233 4129 
Q 3647 3509 3647 2328 
Q 3647 1150 3233 529 
Q 2819 -91 2034 -91 
Q 1250 -91 836 529 
Q 422 1150 422 2328 
Q 422 3509 836 4129 
Q 1250 4750 2034 4750 
z
" transform="scale(0.015625)"/>
        <path id="DejaVuSans-37" d="M 525 4666 
L 3525 4666 
L 3525 4397 
L 1831 0 
L 1172 0 
L 2766 4134 
L 525 4134 
L 525 4666 
z
" transform="scale(0.015625)"/>
        <path id="DejaVuSans-2d" d="M 313 2009 
L 1997 2009 
L 1997 1497 
L 313 1497 
L 313 2009 
z
" transform="scale(0.015625)"/>
        <path id="DejaVuSans-31" d="M 794 531 
L 1825 531 
L 1825 4091 
L 703 3866 
L 703 4441 
L 1819 4666 
L 2450 4666 
L 2450 531 
L 3481 531 
L 3481 0 
L 794 0 
L 794 531 
z
" transform="scale(0.015625)"/>
       </defs>
       <use xlink:href="#DejaVuSans-27"/>
       <use xlink:href="#DejaVuSans-30" x="27.490234"/>
       <use xlink:href="#DejaVuSans-37" x="91.113281"/>
       <use xlink:href="#DejaVuSans-2d" x="154.736328"/>
       <use xlink:href="#DejaVuSans-30" x="190.820312"/>
       <use xlink:href="#DejaVuSans-31" x="254.443359"/>
      </g>
     </g>
    </g>
    <g id="xtick_2">
     <g id="line2d_2">
      <g>
       <use xlink:href="#mfa96041ade" x="86.781496" y="168.671221" style="stroke: #000000; stroke-width: 0.8"/>
      </g>
     </g>
     <g id="text_2">
      <!-- '07-05 -->
      <g transform="translate(77.487461 203.534543) rotate(-45) scale(0.1 -0.1)">
       <defs>
        <path id="DejaVuSans-35" d="M 691 4666 
L 3169 4666 
L 3169 4134 
L 1269 4134 
L 1269 2991 
Q 1406 3038 1543 3061 
Q 1681 3084 1819 3084 
Q 2600 3084 3056 2656 
Q 3513 2228 3513 1497 
Q 3513 744 3044 326 
Q 2575 -91 1722 -91 
Q 1428 -91 1123 -41 
Q 819 9 494 109 
L 494 744 
Q 775 591 1075 516 
Q 1375 441 1709 441 
Q 2250 441 2565 725 
Q 2881 1009 2881 1497 
Q 2881 1984 2565 2268 
Q 2250 2553 1709 2553 
Q 1456 2553 1204 2497 
Q 953 2441 691 2322 
L 691 4666 
z
" transform="scale(0.015625)"/>
       </defs>
       <use xlink:href="#DejaVuSans-27"/>
       <use xlink:href="#DejaVuSans-30" x="27.490234"/>
       <use xlink:href="#DejaVuSans-37" x="91.113281"/>
       <use xlink:href="#DejaVuSans-2d" x="154.736328"/>
       <use xlink:href="#DejaVuSans-30" x="190.820312"/>
       <use xlink:href="#DejaVuSans-35" x="254.443359"/>
      </g>
     </g>
    </g>
    <g id="xtick_3">
     <g id="line2d_3">
      <g>
       <use xlink:href="#mfa96041ade" x="117.851745" y="168.671221" style="stroke: #000000; stroke-width: 0.8"/>
      </g>
     </g>
     <g id="text_3">
      <!-- '07-09 -->
      <g transform="translate(108.55771 203.534543) rotate(-45) scale(0.1 -0.1)">
       <defs>
        <path id="DejaVuSans-39" d="M 703 97 
L 703 672 
Q 941 559 1184 500 
Q 1428 441 1663 441 
Q 2288 441 2617 861 
Q 2947 1281 2994 2138 
Q 2813 1869 2534 1725 
Q 2256 1581 1919 1581 
Q 1219 1581 811 2004 
Q 403 2428 403 3163 
Q 403 3881 828 4315 
Q 1253 4750 1959 4750 
Q 2769 4750 3195 4129 
Q 3622 3509 3622 2328 
Q 3622 1225 3098 567 
Q 2575 -91 1691 -91 
Q 1453 -91 1209 -44 
Q 966 3 703 97 
z
M 1959 2075 
Q 2384 2075 2632 2365 
Q 2881 2656 2881 3163 
Q 2881 3666 2632 3958 
Q 2384 4250 1959 4250 
Q 1534 4250 1286 3958 
Q 1038 3666 1038 3163 
Q 1038 2656 1286 2365 
Q 1534 2075 1959 2075 
z
" transform="scale(0.015625)"/>
       </defs>
       <use xlink:href="#DejaVuSans-27"/>
       <use xlink:href="#DejaVuSans-30" x="27.490234"/>
       <use xlink:href="#DejaVuSans-37" x="91.113281"/>
       <use xlink:href="#DejaVuSans-2d" x="154.736328"/>
       <use xlink:href="#DejaVuSans-30" x="190.820312"/>
       <use xlink:href="#DejaVuSans-39" x="254.443359"/>
      </g>
     </g>
    </g>
    <g id="xtick_4">
     <g id="line2d_4">
      <g>
       <use xlink:href="#mfa96041ade" x="148.679916" y="168.671221" style="stroke: #000000; stroke-width: 0.8"/>
      </g>
     </g>
     <g id="text_4">
      <!-- '08-01 -->
      <g transform="translate(139.385881 203.534543) rotate(-45) scale(0.1 -0.1)">
       <defs>
        <path id="DejaVuSans-38" d="M 2034 2216 
Q 1584 2216 1326 1975 
Q 1069 1734 1069 1313 
Q 1069 891 1326 650 
Q 1584 409 2034 409 
Q 2484 409 2743 651 
Q 3003 894 3003 1313 
Q 3003 1734 2745 1975 
Q 2488 2216 2034 2216 
z
M 1403 2484 
Q 997 2584 770 2862 
Q 544 3141 544 3541 
Q 544 4100 942 4425 
Q 1341 4750 2034 4750 
Q 2731 4750 3128 4425 
Q 3525 4100 3525 3541 
Q 3525 3141 3298 2862 
Q 3072 2584 2669 2484 
Q 3125 2378 3379 2068 
Q 3634 1759 3634 1313 
Q 3634 634 3220 271 
Q 2806 -91 2034 -91 
Q 1263 -91 848 271 
Q 434 634 434 1313 
Q 434 1759 690 2068 
Q 947 2378 1403 2484 
z
M 1172 3481 
Q 1172 3119 1398 2916 
Q 1625 2713 2034 2713 
Q 2441 2713 2670 2916 
Q 2900 3119 2900 3481 
Q 2900 3844 2670 4047 
Q 2441 4250 2034 4250 
Q 1625 4250 1398 4047 
Q 1172 3844 1172 3481 
z
" transform="scale(0.015625)"/>
       </defs>
       <use xlink:href="#DejaVuSans-27"/>
       <use xlink:href="#DejaVuSans-30" x="27.490234"/>
       <use xlink:href="#DejaVuSans-38" x="91.113281"/>
       <use xlink:href="#DejaVuSans-2d" x="154.736328"/>
       <use xlink:href="#DejaVuSans-30" x="190.820312"/>
       <use xlink:href="#DejaVuSans-31" x="254.443359"/>
      </g>
     </g>
    </g>
    <g id="xtick_5">
     <g id="line2d_5">
      <g>
       <use xlink:href="#mfa96041ade" x="179.234433" y="168.671221" style="stroke: #000000; stroke-width: 0.8"/>
      </g>
     </g>
     <g id="text_5">
      <!-- '08-05 -->
      <g transform="translate(169.940398 203.534543) rotate(-45) scale(0.1 -0.1)">
       <use xlink:href="#DejaVuSans-27"/>
       <use xlink:href="#DejaVuSans-30" x="27.490234"/>
       <use xlink:href="#DejaVuSans-38" x="91.113281"/>
       <use xlink:href="#DejaVuSans-2d" x="154.736328"/>
       <use xlink:href="#DejaVuSans-30" x="190.820312"/>
       <use xlink:href="#DejaVuSans-35" x="254.443359"/>
      </g>
     </g>
    </g>
    <g id="xtick_6">
     <g id="line2d_6">
      <g>
       <use xlink:href="#mfa96041ade" x="210.304683" y="168.671221" style="stroke: #000000; stroke-width: 0.8"/>
      </g>
     </g>
     <g id="text_6">
      <!-- '08-09 -->
      <g transform="translate(201.010648 203.534543) rotate(-45) scale(0.1 -0.1)">
       <use xlink:href="#DejaVuSans-27"/>
       <use xlink:href="#DejaVuSans-30" x="27.490234"/>
       <use xlink:href="#DejaVuSans-38" x="91.113281"/>
       <use xlink:href="#DejaVuSans-2d" x="154.736328"/>
       <use xlink:href="#DejaVuSans-30" x="190.820312"/>
       <use xlink:href="#DejaVuSans-39" x="254.443359"/>
      </g>
     </g>
    </g>
    <g id="xtick_7">
     <g id="line2d_7">
      <g>
       <use xlink:href="#mfa96041ade" x="241.132854" y="168.671221" style="stroke: #000000; stroke-width: 0.8"/>
      </g>
     </g>
     <g id="text_7">
      <!-- '09-01 -->
      <g transform="translate(231.838819 203.534543) rotate(-45) scale(0.1 -0.1)">
       <use xlink:href="#DejaVuSans-27"/>
       <use xlink:href="#DejaVuSans-30" x="27.490234"/>
       <use xlink:href="#DejaVuSans-39" x="91.113281"/>
       <use xlink:href="#DejaVuSans-2d" x="154.736328"/>
       <use xlink:href="#DejaVuSans-30" x="190.820312"/>
       <use xlink:href="#DejaVuSans-31" x="254.443359"/>
      </g>
     </g>
    </g>
    <g id="xtick_8">
     <g id="line2d_8">
      <g>
       <use xlink:href="#mfa96041ade" x="271.434767" y="168.671221" style="stroke: #000000; stroke-width: 0.8"/>
      </g>
     </g>
     <g id="text_8">
      <!-- '09-05 -->
      <g transform="translate(262.140732 203.534543) rotate(-45) scale(0.1 -0.1)">
       <use xlink:href="#DejaVuSans-27"/>
       <use xlink:href="#DejaVuSans-30" x="27.490234"/>
       <use xlink:href="#DejaVuSans-39" x="91.113281"/>
       <use xlink:href="#DejaVuSans-2d" x="154.736328"/>
       <use xlink:href="#DejaVuSans-30" x="190.820312"/>
       <use xlink:href="#DejaVuSans-35" x="254.443359"/>
      </g>
     </g>
    </g>
    <g id="xtick_9">
     <g id="line2d_9">
      <g>
       <use xlink:href="#mfa96041ade" x="302.505016" y="168.671221" style="stroke: #000000; stroke-width: 0.8"/>
      </g>
     </g>
     <g id="text_9">
      <!-- '09-09 -->
      <g transform="translate(293.210982 203.534543) rotate(-45) scale(0.1 -0.1)">
       <use xlink:href="#DejaVuSans-27"/>
       <use xlink:href="#DejaVuSans-30" x="27.490234"/>
       <use xlink:href="#DejaVuSans-39" x="91.113281"/>
       <use xlink:href="#DejaVuSans-2d" x="154.736328"/>
       <use xlink:href="#DejaVuSans-30" x="190.820312"/>
       <use xlink:href="#DejaVuSans-39" x="254.443359"/>
      </g>
     </g>
    </g>
    <g id="xtick_10">
     <g id="line2d_10">
      <g>
       <use xlink:href="#mfa96041ade" x="333.333187" y="168.671221" style="stroke: #000000; stroke-width: 0.8"/>
      </g>
     </g>
     <g id="text_10">
      <!-- '10-01 -->
      <g transform="translate(324.039153 203.534543) rotate(-45) scale(0.1 -0.1)">
       <use xlink:href="#DejaVuSans-27"/>
       <use xlink:href="#DejaVuSans-31" x="27.490234"/>
       <use xlink:href="#DejaVuSans-30" x="91.113281"/>
       <use xlink:href="#DejaVuSans-2d" x="154.736328"/>
       <use xlink:href="#DejaVuSans-30" x="190.820312"/>
       <use xlink:href="#DejaVuSans-31" x="254.443359"/>
      </g>
     </g>
    </g>
   </g>
   <g id="matplotlib.axis_2">
    <g id="ytick_1">
     <g id="line2d_11">
      <defs>
       <path id="mda160fba2d" d="M 0 0 
L -3.5 0 
" style="stroke: #000000; stroke-width: 0.8"/>
      </defs>
      <g>
       <use xlink:href="#mda160fba2d" x="43.18" y="144.315904" style="stroke: #000000; stroke-width: 0.8"/>
      </g>
     </g>
     <g id="text_11">
      <!-- 800 -->
      <g transform="translate(17.0925 148.115123) scale(0.1 -0.1)">
       <use xlink:href="#DejaVuSans-38"/>
       <use xlink:href="#DejaVuSans-30" x="63.623047"/>
       <use xlink:href="#DejaVuSans-30" x="127.246094"/>
      </g>
     </g>
    </g>
    <g id="ytick_2">
     <g id="line2d_12">
      <g>
       <use xlink:href="#mda160fba2d" x="43.18" y="115.304378" style="stroke: #000000; stroke-width: 0.8"/>
      </g>
     </g>
     <g id="text_12">
      <!-- 1000 -->
      <g transform="translate(10.73 119.103597) scale(0.1 -0.1)">
       <use xlink:href="#DejaVuSans-31"/>
       <use xlink:href="#DejaVuSans-30" x="63.623047"/>
       <use xlink:href="#DejaVuSans-30" x="127.246094"/>
       <use xlink:href="#DejaVuSans-30" x="190.869141"/>
      </g>
     </g>
    </g>
    <g id="ytick_3">
     <g id="line2d_13">
      <g>
       <use xlink:href="#mda160fba2d" x="43.18" y="86.292852" style="stroke: #000000; stroke-width: 0.8"/>
      </g>
     </g>
     <g id="text_13">
      <!-- 1200 -->
      <g transform="translate(10.73 90.092071) scale(0.1 -0.1)">
       <defs>
        <path id="DejaVuSans-32" d="M 1228 531 
L 3431 531 
L 3431 0 
L 469 0 
L 469 531 
Q 828 903 1448 1529 
Q 2069 2156 2228 2338 
Q 2531 2678 2651 2914 
Q 2772 3150 2772 3378 
Q 2772 3750 2511 3984 
Q 2250 4219 1831 4219 
Q 1534 4219 1204 4116 
Q 875 4013 500 3803 
L 500 4441 
Q 881 4594 1212 4672 
Q 1544 4750 1819 4750 
Q 2544 4750 2975 4387 
Q 3406 4025 3406 3419 
Q 3406 3131 3298 2873 
Q 3191 2616 2906 2266 
Q 2828 2175 2409 1742 
Q 1991 1309 1228 531 
z
" transform="scale(0.015625)"/>
       </defs>
       <use xlink:href="#DejaVuSans-31"/>
       <use xlink:href="#DejaVuSans-32" x="63.623047"/>
       <use xlink:href="#DejaVuSans-30" x="127.246094"/>
       <use xlink:href="#DejaVuSans-30" x="190.869141"/>
      </g>
     </g>
    </g>
    <g id="ytick_4">
     <g id="line2d_14">
      <g>
       <use xlink:href="#mda160fba2d" x="43.18" y="57.281327" style="stroke: #000000; stroke-width: 0.8"/>
      </g>
     </g>
     <g id="text_14">
      <!-- 1400 -->
      <g transform="translate(10.73 61.080545) scale(0.1 -0.1)">
       <defs>
        <path id="DejaVuSans-34" d="M 2419 4116 
L 825 1625 
L 2419 1625 
L 2419 4116 
z
M 2253 4666 
L 3047 4666 
L 3047 1625 
L 3713 1625 
L 3713 1100 
L 3047 1100 
L 3047 0 
L 2419 0 
L 2419 1100 
L 313 1100 
L 313 1709 
L 2253 4666 
z
" transform="scale(0.015625)"/>
       </defs>
       <use xlink:href="#DejaVuSans-31"/>
       <use xlink:href="#DejaVuSans-34" x="63.623047"/>
       <use xlink:href="#DejaVuSans-30" x="127.246094"/>
       <use xlink:href="#DejaVuSans-30" x="190.869141"/>
      </g>
     </g>
    </g>
    <g id="ytick_5">
     <g id="line2d_15">
      <g>
       <use xlink:href="#mda160fba2d" x="43.18" y="28.269801" style="stroke: #000000; stroke-width: 0.8"/>
      </g>
     </g>
     <g id="text_15">
      <!-- 1600 -->
      <g transform="translate(10.73 32.069019) scale(0.1 -0.1)">
       <defs>
        <path id="DejaVuSans-36" d="M 2113 2584 
Q 1688 2584 1439 2293 
Q 1191 2003 1191 1497 
Q 1191 994 1439 701 
Q 1688 409 2113 409 
Q 2538 409 2786 701 
Q 3034 994 3034 1497 
Q 3034 2003 2786 2293 
Q 2538 2584 2113 2584 
z
M 3366 4563 
L 3366 3988 
Q 3128 4100 2886 4159 
Q 2644 4219 2406 4219 
Q 1781 4219 1451 3797 
Q 1122 3375 1075 2522 
Q 1259 2794 1537 2939 
Q 1816 3084 2150 3084 
Q 2853 3084 3261 2657 
Q 3669 2231 3669 1497 
Q 3669 778 3244 343 
Q 2819 -91 2113 -91 
Q 1303 -91 875 529 
Q 447 1150 447 2328 
Q 447 3434 972 4092 
Q 1497 4750 2381 4750 
Q 2619 4750 2861 4703 
Q 3103 4656 3366 4563 
z
" transform="scale(0.015625)"/>
       </defs>
       <use xlink:href="#DejaVuSans-31"/>
       <use xlink:href="#DejaVuSans-36" x="63.623047"/>
       <use xlink:href="#DejaVuSans-30" x="127.246094"/>
       <use xlink:href="#DejaVuSans-30" x="190.869141"/>
      </g>
     </g>
    </g>
   </g>
   <g id="line2d_16">
    <path d="M 219.903621 128.371172 
L 220.156225 129.92329 
L 220.914036 114.818439 
L 221.16664 115.593041 
L 221.419243 128.672885 
L 221.671847 123.075116 
L 221.924451 123.928056 
L 222.682262 117.422216 
L 222.934865 121.82472 
L 223.187469 130.277222 
L 223.440073 128.633726 
L 223.692676 133.179827 
L 224.450487 137.219687 
L 224.703091 123.933855 
L 224.955695 125.445353 
L 225.460902 119.837429 
L 226.229238 120.192822 
L 226.481842 114.470297 
L 226.987049 129.102259 
L 227.239653 125.314807 
L 227.997464 127.023581 
L 228.250067 129.96245 
L 228.502671 136.729392 
L 228.755275 128.172444 
L 229.007878 133.684634 
L 229.765689 136.954229 
L 230.018293 135.740098 
L 230.5235 151.214845 
L 230.776104 144.311548 
L 231.533915 136.800469 
L 231.786518 135.991045 
L 232.039122 131.597252 
L 232.544329 130.355559 
L 233.30214 141.964517 
L 233.807348 134.054529 
L 234.059951 137.756402 
L 234.312555 133.281369 
L 235.070366 128.40308 
L 235.32297 131.453647 
L 235.575573 129.920386 
L 235.828177 133.641109 
L 236.08078 132.750462 
L 236.838591 134.369301 
L 237.091195 127.898283 
L 237.343799 129.168989 
L 237.596402 131.945385 
L 237.849006 131.568239 
L 238.606817 133.925425 
L 238.859421 135.154068 
L 239.112024 134.430223 
L 239.617232 133.75571 
L 240.375043 134.246006 
L 240.88025 129.338704 
L 241.385457 125.19731 
L 242.143268 125.828307 
L 242.395872 124.77664 
L 242.648475 128.845504 
L 242.901079 128.398733 
L 243.153683 131.209951 
L 243.911494 134.124154 
L 244.164097 133.90222 
L 244.416701 138.133549 
L 244.669305 137.971085 
L 244.921908 137.045616 
L 245.932323 143.558708 
L 246.184927 138.478787 
L 246.43753 140.326819 
L 246.690134 139.681311 
L 247.447945 139.011146 
L 247.700549 137.685317 
L 247.953152 133.56858 
L 248.45836 140.561812 
L 249.21617 140.625638 
L 249.468774 138.729733 
L 249.721378 139.6407 
L 249.973981 137.665015 
L 250.226585 134.364954 
L 250.984396 134.177824 
L 251.237 140.376143 
L 251.489603 139.421661 
L 251.742207 139.211326 
L 251.994811 140.422553 
L 253.005225 145.886881 
L 253.257829 145.995674 
L 254.520847 152.536317 
L 254.773451 148.21215 
L 255.026055 149.407423 
L 255.278658 151.15827 
L 255.531262 153.731591 
L 256.289073 158.702719 
L 256.541676 159.354026 
L 256.79428 156.954776 
L 257.046884 161.352924 
L 257.299487 161.232524 
L 258.046773 162.226165 
L 258.299377 155.978541 
L 258.551981 155.723238 
L 258.804584 151.461444 
L 259.057188 150.61866 
L 259.814999 151.004509 
L 260.320206 145.135483 
L 260.57281 146.631027 
L 260.825413 148.87942 
L 261.583224 140.991186 
L 261.835828 143.428152 
L 262.088432 142.302503 
L 262.341035 139.549313 
L 262.593639 142.003685 
L 263.35145 146.124768 
L 263.856657 142.708663 
L 264.109261 139.328822 
L 264.361865 138.150955 
L 265.119676 139.169262 
L 265.372279 142.06026 
L 265.624883 140.666258 
L 265.877487 136.111445 
L 266.887901 135.796672 
L 267.140505 138.296012 
L 267.898316 134.219897 
L 268.656127 139.617485 
L 268.90873 137.051416 
L 269.161334 137.998646 
L 269.413938 136.784514 
L 269.666541 134.70874 
L 270.676956 136.314529 
L 270.92956 133.633858 
L 271.182163 133.754258 
L 271.434767 133.071034 
L 272.192578 128.759925 
L 272.445182 129.258924 
L 272.697785 126.977161 
L 272.950389 128.738163 
L 273.202992 125.570109 
L 273.960803 128.46981 
L 274.213407 128.598913 
L 274.466011 132.14267 
L 274.718614 130.815389 
L 274.971218 132.293527 
L 275.729029 128.401628 
L 275.981633 128.630822 
L 276.234236 129.306795 
L 276.48684 131.502961 
L 276.739444 131.69589 
L 277.749858 128.311693 
L 278.002462 130.816841 
L 278.507669 127.033736 
L 279.26548 123.591521 
L 279.518084 123.320264 
L 279.770687 125.203109 
L 280.023291 123.650991 
L 280.275895 123.994777 
L 281.033706 124.132583 
L 281.286309 123.655347 
L 281.538913 124.131131 
L 281.791517 123.298502 
L 282.04412 123.107025 
L 282.801931 126.369378 
L 283.054535 128.073806 
L 283.307139 128.256571 
L 283.559742 127.145433 
L 283.812346 126.730571 
L 284.570157 130.819745 
L 284.822761 130.520927 
L 285.075364 129.673787 
L 285.327968 126.871272 
L 285.580572 127.068548 
L 286.338382 125.860225 
L 286.590986 127.007627 
L 286.84359 126.425944 
L 287.096193 130.32945 
L 288.106608 129.995819 
L 288.359212 132.56188 
L 288.611815 132.775119 
L 288.864419 132.32254 
L 289.117023 132.837493 
L 290.127437 128.963001 
L 290.380041 125.069659 
L 290.632645 123.900495 
L 290.885248 123.952713 
L 291.895663 121.892893 
L 292.148267 121.966874 
L 292.40087 118.743698 
L 292.653474 118.312872 
L 293.411285 117.889306 
L 293.663888 118.260653 
L 293.916492 118.909057 
L 294.169096 117.226392 
L 294.421699 117.120503 
L 295.432114 114.484799 
L 295.684718 114.909826 
L 295.937321 115.727944 
L 296.189925 113.784177 
L 296.947736 114.274473 
L 297.20034 116.123957 
L 297.705547 113.457797 
L 298.715962 118.244699 
L 299.473773 114.235304 
L 299.726376 111.514022 
L 300.484187 111.595262 
L 300.736791 111.242765 
L 300.989394 111.225358 
L 301.241998 110.810496 
L 301.494602 111.107853 
L 302.252413 112.313291 
L 302.505016 115.588694 
L 302.75762 116.065931 
L 303.010224 114.834393 
L 303.262827 112.92543 
L 304.273242 111.621363 
L 304.778449 108.901532 
L 305.031053 109.106069 
L 306.041468 107.669994 
L 306.294071 105.330214 
L 306.546675 105.804556 
L 306.799278 105.396935 
L 307.557089 105.924947 
L 307.809693 104.909544 
L 308.3149 107.938348 
L 308.567504 108.86672 
L 309.325315 106.168652 
L 309.830522 107.024495 
L 310.083126 110.974412 
L 310.33573 111.647481 
L 311.093541 109.435352 
L 311.346144 107.366829 
L 311.598748 106.951966 
L 312.103955 104.93421 
L 312.861766 104.252446 
L 313.11437 104.687619 
L 313.366973 101.956172 
L 313.619577 101.297605 
L 313.872181 102.585718 
L 314.629992 101.101781 
L 315.135199 103.496684 
L 315.387803 101.827069 
L 315.640406 103.757794 
L 316.650821 106.106269 
L 316.903425 109.120571 
L 317.156028 105.71462 
L 317.408632 110.054751 
L 318.682175 108.559198 
L 318.934779 105.639188 
L 319.187383 105.251877 
L 319.945194 101.80242 
L 320.197797 101.812567 
L 320.450401 101.01475 
L 320.703005 102.649552 
L 320.955608 101.744394 
L 321.713419 99.449572 
L 321.966023 99.301628 
L 322.218627 99.377043 
L 322.47123 101.538406 
L 322.723834 102.049011 
L 323.481645 99.893457 
L 323.734248 99.979036 
L 323.986852 99.256652 
L 324.492059 102.033057 
L 325.24987 101.432516 
L 325.502474 99.513407 
L 325.755078 99.458284 
L 326.007681 100.810214 
L 326.260285 99.931174 
L 327.018096 100.327178 
L 327.2707 101.967788 
L 327.523303 101.386106 
L 328.028511 99.868791 
L 328.786322 98.751854 
L 329.038925 99.648301 
L 329.291529 99.466978 
L 329.544133 101.367248 
L 329.796736 100.440327 
L 331.312358 96.957492 
L 332.322773 96.76891 
L 332.575376 96.998112 
L 332.82798 96.966186 
L 333.080584 98.608249 
L 333.080584 98.608249 
" clip-path="url(#p12557e97c9)" style="fill: none; stroke: #d3d3d3; stroke-linecap: square"/>
   </g>
   <g id="line2d_17">
    <path d="M 56.98479 54.873373 
L 57.237393 54.620975 
L 57.489997 55.872823 
L 58.247808 55.418792 
L 58.500412 55.524681 
L 58.753015 55.127224 
L 59.258223 52.823708 
L 60.268637 52.653985 
L 60.521241 52.839663 
L 60.773845 53.456158 
L 61.026448 52.857069 
L 61.784259 53.952261 
L 62.036863 53.221165 
L 62.289466 51.460163 
L 62.54207 53.814446 
L 62.794674 54.063941 
L 63.552485 54.290239 
L 64.310296 50.617388 
L 64.562899 50.261986 
L 65.32071 50.46507 
L 65.573314 50.31856 
L 65.825918 50.025541 
L 66.078521 50.273584 
L 66.331125 51.760425 
L 67.088936 52.440754 
L 67.594143 49.259633 
L 67.846747 49.040594 
L 68.09935 49.22482 
L 69.109765 48.624279 
L 69.614972 49.102977 
L 69.867576 49.855835 
L 70.625387 50.119832 
L 70.877991 57.420576 
L 71.130594 56.292041 
L 71.383198 56.821487 
L 71.635802 59.14241 
L 72.393613 61.035419 
L 72.646216 57.947136 
L 72.89882 58.446144 
L 73.151424 57.007165 
L 73.404027 56.869368 
L 74.151313 56.32395 
L 74.403917 60.479854 
L 74.909124 58.401167 
L 75.161728 59.174336 
L 75.919539 56.982499 
L 76.172142 55.694405 
L 76.424746 52.198502 
L 76.67735 52.27103 
L 76.929953 52.043298 
L 77.687764 51.841665 
L 78.192971 54.781986 
L 78.445575 54.013174 
L 78.698179 54.255426 
L 79.45599 53.720155 
L 79.708593 51.802497 
L 79.961197 51.570408 
L 80.213801 50.933603 
L 81.224215 50.810308 
L 81.476819 50.261986 
L 81.729423 51.642937 
L 82.23463 49.615034 
L 83.245045 46.91261 
L 83.497648 46.764648 
L 83.750252 47.021403 
L 84.002856 45.045719 
L 85.01327 45.617238 
L 85.265874 43.439921 
L 85.518477 43.609645 
L 85.771081 43.635763 
L 86.528892 45.33293 
L 86.781496 44.762846 
L 87.286703 42.428874 
L 87.539307 41.96034 
L 88.297118 41.40042 
L 88.549721 41.655723 
L 88.802325 40.950745 
L 89.054929 44.012909 
L 89.307532 41.92698 
L 90.065343 42.318629 
L 90.317947 42.602954 
L 90.570551 40.724447 
L 90.823154 40.926079 
L 91.075758 39.475503 
L 91.833569 39.134621 
L 92.338776 39.543675 
L 92.59138 41.686179 
L 92.843983 40.49381 
L 93.854398 40.148572 
L 94.107002 38.390474 
L 94.359605 38.3339 
L 94.612209 37.504174 
L 95.37002 37.092198 
L 95.622624 38.286037 
L 95.875227 40.254461 
L 96.127831 44.121703 
L 96.380435 41.662965 
L 97.138246 41.452639 
L 97.390849 43.790967 
L 97.643453 40.502504 
L 98.14866 38.001712 
L 98.906471 38.271517 
L 99.159075 37.887129 
L 99.411678 40.913029 
L 99.664282 39.556743 
L 99.916886 42.404208 
L 100.674697 43.103395 
L 100.9273 43.806921 
L 101.179904 41.855903 
L 101.432508 41.94729 
L 101.685111 42.289624 
L 102.695526 39.167981 
L 103.200733 39.091096 
L 103.453337 38.360018 
L 104.211148 38.155482 
L 104.463752 41.307581 
L 104.716355 40.054281 
L 104.968959 35.856322 
L 105.221562 35.160038 
L 106.231977 35.614069 
L 106.484581 36.078246 
L 106.737184 35.075911 
L 106.989788 37.829102 
L 107.747599 36.745526 
L 108.000203 41.174122 
L 108.252806 40.151476 
L 108.758014 48.730186 
L 109.515825 46.560112 
L 109.768428 49.263989 
L 110.273636 46.808173 
L 110.526239 52.485713 
L 111.536654 46.153961 
L 111.789257 43.13966 
L 112.041861 49.580222 
L 112.294465 49.500433 
L 113.052276 49.60487 
L 113.557483 56.309447 
L 113.810087 55.646524 
L 114.06269 50.617388 
L 114.820501 50.673944 
L 115.073105 50.446212 
L 115.325709 47.987492 
L 115.578312 48.215225 
L 115.830916 45.768103 
L 116.588727 47.592922 
L 116.841331 52.587264 
L 117.093934 48.032451 
L 117.346538 48.920203 
L 117.599142 46.548514 
L 118.609556 44.310267 
L 118.86216 46.795105 
L 119.114763 45.887043 
L 119.367367 49.513483 
L 120.125178 49.781854 
L 120.377782 46.911158 
L 120.630385 46.900994 
L 120.882989 45.103746 
L 121.135593 45.060221 
L 121.893404 46.162656 
L 122.146007 39.906319 
L 122.398611 38.564536 
L 122.651215 40.055733 
L 122.903818 39.04033 
L 123.661629 40.203695 
L 123.914233 40.279127 
L 124.41944 38.223654 
L 124.672044 38.895272 
L 125.429855 35.952047 
L 125.682458 36.011526 
L 125.935062 37.032737 
L 126.187666 36.5613 
L 126.440269 34.4217 
L 127.19808 35.14844 
L 127.450684 33.325055 
L 127.703288 33.713818 
L 127.955891 34.882973 
L 128.208495 33.810995 
L 128.966306 35.709812 
L 129.21891 37.186489 
L 129.471513 36.793388 
L 129.724117 36.96166 
L 129.976721 42.684177 
L 130.734532 41.857355 
L 130.987135 39.93389 
L 131.239739 40.472048 
L 131.492343 40.68673 
L 131.744946 37.657926 
L 132.502757 36.831105 
L 132.755361 38.275873 
L 133.007964 35.612617 
L 133.260568 41.551286 
L 133.513172 41.375754 
L 134.281508 42.460782 
L 134.534112 39.835243 
L 134.786715 46.312069 
L 135.039319 46.435365 
L 135.291922 49.491739 
L 136.049733 51.597961 
L 136.302337 45.524399 
L 136.554941 47.043165 
L 136.807544 49.861625 
L 137.060148 48.760643 
L 137.817959 52.455256 
L 138.070563 51.522546 
L 138.323166 54.848707 
L 138.828374 51.377488 
L 139.586185 56.234015 
L 139.838788 53.186352 
L 140.091392 47.269446 
L 140.343996 47.167913 
L 140.596599 45.511348 
L 141.35441 46.776247 
L 141.607014 48.173152 
L 142.112221 41.710846 
L 142.364825 42.09959 
L 143.122636 40.460449 
L 143.375239 46.017598 
L 143.627843 44.720791 
L 143.880447 44.456777 
L 144.13305 47.424668 
L 144.890861 50.623178 
L 145.143465 49.306061 
L 145.396069 49.593272 
L 145.648672 48.560463 
L 145.901276 45.029765 
L 146.659087 43.290525 
L 147.164294 43.114993 
L 147.416898 46.217778 
L 147.669502 45.895755 
L 148.427312 47.365189 
L 148.93252 50.440404 
L 149.185123 50.440404 
L 149.437727 55.594306 
L 150.195538 54.934286 
L 150.448142 58.70435 
L 150.953349 54.332311 
L 151.205953 57.133365 
L 151.963764 54.92414 
L 152.216367 60.044681 
L 152.468971 61.168878 
L 152.721575 66.963923 
L 152.974178 68.133096 
L 153.984593 70.263984 
L 154.237197 66.187868 
L 154.4898 64.233946 
L 154.742404 67.346878 
L 155.752818 62.749992 
L 156.005422 63.691415 
L 156.510629 57.945684 
L 157.26844 60.06354 
L 157.521044 66.472176 
L 157.773648 67.950322 
L 158.026251 66.433007 
L 158.278855 67.248231 
L 159.036666 66.110984 
L 159.28927 64.699576 
L 159.541873 62.037772 
L 159.794477 64.699576 
L 160.047081 64.53566 
L 161.057495 64.711174 
L 161.310099 63.079276 
L 161.562703 65.617784 
L 161.815306 64.083081 
L 162.573117 61.371945 
L 162.825721 59.995349 
L 163.078324 60.179575 
L 163.330928 61.969581 
L 163.583532 67.343974 
L 164.341343 67.240988 
L 164.593946 67.906798 
L 164.84655 66.898654 
L 165.099154 71.157544 
L 165.351757 72.748822 
L 166.099043 75.649975 
L 166.351647 68.791646 
L 166.60425 70.514931 
L 166.856854 69.5416 
L 167.109458 73.507471 
L 167.867269 75.181442 
L 168.119872 67.328019 
L 168.372476 72.016274 
L 168.62508 67.506437 
L 169.888098 64.100487 
L 170.645909 69.579317 
L 171.40372 68.494288 
L 171.656324 61.606937 
L 171.908927 61.991343 
L 172.414134 61.575029 
L 173.171945 61.264603 
L 173.424549 62.280007 
L 173.677153 63.882901 
L 173.929756 63.003843 
L 174.18236 67.024854 
L 174.940171 67.679065 
L 175.192775 66.792747 
L 175.445378 62.400416 
L 175.697982 62.277103 
L 175.950586 58.68404 
L 176.708397 58.997352 
L 176.961 60.771422 
L 177.213604 60.192625 
L 177.718811 57.594656 
L 178.476622 57.807886 
L 178.981829 59.371612 
L 179.234433 55.926493 
L 179.487037 55.265022 
L 180.244848 56.194846 
L 180.497451 54.632573 
L 180.750055 58.359112 
L 181.002659 57.617852 
L 181.255262 58.981398 
L 182.013073 56.762027 
L 182.265677 56.840346 
L 182.518281 56.025122 
L 182.770884 53.862326 
L 183.023488 53.604119 
L 183.781299 53.418441 
L 184.033903 55.337551 
L 184.286506 58.628918 
L 184.53911 58.100906 
L 184.791714 60.772856 
L 185.802128 59.406424 
L 186.559939 57.226204 
L 187.31775 59.359996 
L 187.570354 60.523361 
L 187.822957 60.588648 
L 188.075561 56.693836 
L 188.328165 62.984985 
L 189.085976 62.828329 
L 189.338579 63.30993 
L 189.591183 66.638996 
L 189.843787 66.003642 
L 190.09639 63.079276 
L 190.854201 63.063321 
L 191.359409 66.302452 
L 191.612012 65.574278 
L 191.864616 69.186198 
L 192.622427 69.176052 
L 192.87503 69.71421 
L 193.127634 68.600178 
L 193.380238 74.231307 
L 193.632841 74.923235 
L 194.390652 74.688242 
L 194.643256 73.976004 
L 194.89586 77.368904 
L 195.148463 77.168724 
L 196.158878 78.704879 
L 196.411482 75.602112 
L 196.664085 79.810235 
L 196.916689 78.548223 
L 197.169293 80.564528 
L 197.927104 82.187714 
L 198.179707 84.130038 
L 198.432311 79.71304 
L 198.684915 77.542984 
L 198.937518 77.490748 
L 199.695329 77.589395 
L 199.947933 75.123415 
L 200.200536 74.370574 
L 200.45314 78.671519 
L 200.705744 77.914322 
L 201.463555 81.307222 
L 201.968762 74.070295 
L 202.221366 76.518869 
L 202.473969 77.544418 
L 203.23178 79.183577 
L 203.484384 73.98036 
L 203.736988 73.355171 
L 203.989591 76.708903 
L 204.242195 72.320909 
L 205.000006 71.015391 
L 205.25261 73.297144 
L 205.505213 73.842562 
L 206.01042 72.0482 
L 206.768231 74.891326 
L 207.020835 76.618968 
L 207.273439 75.480251 
L 207.526042 75.018978 
L 207.778646 72.918546 
L 208.536457 76.597205 
L 208.789061 75.91978 
L 209.041664 74.447441 
L 209.294268 71.688442 
L 209.546872 74.277735 
L 210.557286 75.039288 
L 210.80989 75.416434 
L 211.062494 80.950386 
L 211.315097 80.155456 
L 212.072908 76.45939 
L 212.325512 82.737488 
L 212.578115 81.6452 
L 212.830719 79.177769 
L 213.083323 78.79338 
L 213.841134 87.35178 
L 214.093737 84.320072 
L 214.346341 92.618813 
L 214.851548 78.303085 
L 215.861963 88.001635 
L 216.114567 88.342517 
L 216.36717 84.961216 
L 216.619774 84.367935 
L 217.377585 99.867339 
L 217.630189 91.172593 
L 217.882792 91.941388 
L 218.135396 98.727188 
L 219.14581 107.052048 
L 219.398414 115.851248 
L 219.651018 117.488946 
L 219.903621 128.371172 
L 219.903621 128.371172 
" clip-path="url(#p12557e97c9)" style="fill: none; stroke: #000000; stroke-linecap: square"/>
   </g>
   <g id="patch_3">
    <path d="M 43.18 168.671221 
L 43.18 26.88 
" style="fill: none; stroke: #000000; stroke-width: 0.8; stroke-linejoin: miter; stroke-linecap: square"/>
   </g>
   <g id="patch_4">
    <path d="M 346.885373 168.671221 
L 346.885373 26.88 
" style="fill: none; stroke: #000000; stroke-width: 0.8; stroke-linejoin: miter; stroke-linecap: square"/>
   </g>
   <g id="patch_5">
    <path d="M 43.18 168.671221 
L 346.885373 168.671221 
" style="fill: none; stroke: #000000; stroke-width: 0.8; stroke-linejoin: miter; stroke-linecap: square"/>
   </g>
   <g id="patch_6">
    <path d="M 43.18 26.88 
L 346.885373 26.88 
" style="fill: none; stroke: #000000; stroke-width: 0.8; stroke-linejoin: miter; stroke-linecap: square"/>
   </g>
   <g id="text_16">
    <!-- S&amp;P 500 -->
    <g transform="translate(169.567374 20.88) scale(0.12 -0.12)">
     <defs>
      <path id="DejaVuSans-53" d="M 3425 4513 
L 3425 3897 
Q 3066 4069 2747 4153 
Q 2428 4238 2131 4238 
Q 1616 4238 1336 4038 
Q 1056 3838 1056 3469 
Q 1056 3159 1242 3001 
Q 1428 2844 1947 2747 
L 2328 2669 
Q 3034 2534 3370 2195 
Q 3706 1856 3706 1288 
Q 3706 609 3251 259 
Q 2797 -91 1919 -91 
Q 1588 -91 1214 -16 
Q 841 59 441 206 
L 441 856 
Q 825 641 1194 531 
Q 1563 422 1919 422 
Q 2459 422 2753 634 
Q 3047 847 3047 1241 
Q 3047 1584 2836 1778 
Q 2625 1972 2144 2069 
L 1759 2144 
Q 1053 2284 737 2584 
Q 422 2884 422 3419 
Q 422 4038 858 4394 
Q 1294 4750 2059 4750 
Q 2388 4750 2728 4690 
Q 3069 4631 3425 4513 
z
" transform="scale(0.015625)"/>
      <path id="DejaVuSans-26" d="M 1556 2509 
Q 1272 2256 1139 2004 
Q 1006 1753 1006 1478 
Q 1006 1022 1337 719 
Q 1669 416 2169 416 
Q 2466 416 2725 514 
Q 2984 613 3213 813 
L 1556 2509 
z
M 1997 2859 
L 3584 1234 
Q 3769 1513 3872 1830 
Q 3975 2147 3994 2503 
L 4575 2503 
Q 4538 2091 4375 1687 
Q 4213 1284 3922 891 
L 4794 0 
L 4006 0 
L 3559 459 
Q 3234 181 2878 45 
Q 2522 -91 2113 -91 
Q 1359 -91 881 339 
Q 403 769 403 1441 
Q 403 1841 612 2192 
Q 822 2544 1241 2853 
Q 1091 3050 1012 3245 
Q 934 3441 934 3628 
Q 934 4134 1281 4442 
Q 1628 4750 2203 4750 
Q 2463 4750 2720 4694 
Q 2978 4638 3244 4525 
L 3244 3956 
Q 2972 4103 2725 4179 
Q 2478 4256 2266 4256 
Q 1938 4256 1733 4082 
Q 1528 3909 1528 3634 
Q 1528 3475 1620 3314 
Q 1713 3153 1997 2859 
z
" transform="scale(0.015625)"/>
      <path id="DejaVuSans-50" d="M 1259 4147 
L 1259 2394 
L 2053 2394 
Q 2494 2394 2734 2622 
Q 2975 2850 2975 3272 
Q 2975 3691 2734 3919 
Q 2494 4147 2053 4147 
L 1259 4147 
z
M 628 4666 
L 2053 4666 
Q 2838 4666 3239 4311 
Q 3641 3956 3641 3272 
Q 3641 2581 3239 2228 
Q 2838 1875 2053 1875 
L 1259 1875 
L 1259 0 
L 628 0 
L 628 4666 
z
" transform="scale(0.015625)"/>
      <path id="DejaVuSans-20" transform="scale(0.015625)"/>
     </defs>
     <use xlink:href="#DejaVuSans-53"/>
     <use xlink:href="#DejaVuSans-26" x="63.476562"/>
     <use xlink:href="#DejaVuSans-50" x="141.455078"/>
     <use xlink:href="#DejaVuSans-20" x="201.757812"/>
     <use xlink:href="#DejaVuSans-35" x="233.544922"/>
     <use xlink:href="#DejaVuSans-30" x="297.167969"/>
     <use xlink:href="#DejaVuSans-30" x="360.791016"/>
    </g>
   </g>
  </g>
 </g>
 <defs>
  <clipPath id="p12557e97c9">
   <rect x="43.18" y="26.88" width="303.705373" height="141.791221"/>
  </clipPath>
 </defs>
</svg>
