<?xml version="1.0" encoding="utf-8" standalone="no"?>
<!DOCTYPE svg PUBLIC "-//W3C//DTD SVG 1.1//EN"
  "http://www.w3.org/Graphics/SVG/1.1/DTD/svg11.dtd">
<svg xmlns:xlink="http://www.w3.org/1999/xlink" width="360pt" height="216pt" viewBox="0 0 360 216" xmlns="http://www.w3.org/2000/svg" version="1.1">
 <metadata>
  <rdf:RDF xmlns:dc="http://purl.org/dc/elements/1.1/" xmlns:cc="http://creativecommons.org/ns#" xmlns:rdf="http://www.w3.org/1999/02/22-rdf-syntax-ns#">
   <cc:Work>
    <dc:type rdf:resource="http://purl.org/dc/dcmitype/StillImage"/>
    <dc:date>2023-01-10T15:58:11.025413</dc:date>
    <dc:format>image/svg+xml</dc:format>
    <dc:creator>
     <cc:Agent>
      <dc:title>Matplotlib v3.6.1, https://matplotlib.org/</dc:title>
     </cc:Agent>
    </dc:creator>
   </cc:Work>
  </rdf:RDF>
 </metadata>
 <defs>
  <style type="text/css">*{stroke-linejoin: round; stroke-linecap: butt}</style>
 </defs>
 <g id="figure_1">
  <g id="patch_1">
   <path d="M 0 216 
L 360 216 
L 360 0 
L 0 0 
z
" style="fill: #ffffff"/>
  </g>
  <g id="axes_1">
   <g id="patch_2">
    <path d="M 33.55 168.671221 
L 346.885373 168.671221 
L 346.885373 26.88 
L 33.55 26.88 
z
" style="fill: #ffffff"/>
   </g>
   <g id="matplotlib.axis_1">
    <g id="xtick_1">
     <g id="line2d_1">
      <defs>
       <path id="m36ab56778c" d="M 0 0 
L 0 3.5 
" style="stroke: #000000; stroke-width: 0.8"/>
      </defs>
      <g>
       <use xlink:href="#m36ab56778c" x="47.27129" y="168.671221" style="stroke: #000000; stroke-width: 0.8"/>
      </g>
     </g>
     <g id="text_1">
      <!-- '07-01 -->
      <g transform="translate(37.977256 203.534543) rotate(-45) scale(0.1 -0.1)">
       <defs>
        <path id="DejaVuSans-27" d="M 1147 4666 
L 1147 2931 
L 616 2931 
L 616 4666 
L 1147 4666 
z
" transform="scale(0.015625)"/>
        <path id="DejaVuSans-30" d="M 2034 4250 
Q 1547 4250 1301 3770 
Q 1056 3291 1056 2328 
Q 1056 1369 1301 889 
Q 1547 409 2034 409 
Q 2525 409 2770 889 
Q 3016 1369 3016 2328 
Q 3016 3291 2770 3770 
Q 2525 4250 2034 4250 
z
M 2034 4750 
Q 2819 4750 3233 4129 
Q 3647 3509 3647 2328 
Q 3647 1150 3233 529 
Q 2819 -91 2034 -91 
Q 1250 -91 836 529 
Q 422 1150 422 2328 
Q 422 3509 836 4129 
Q 1250 4750 2034 4750 
z
" transform="scale(0.015625)"/>
        <path id="DejaVuSans-37" d="M 525 4666 
L 3525 4666 
L 3525 4397 
L 1831 0 
L 1172 0 
L 2766 4134 
L 525 4134 
L 525 4666 
z
" transform="scale(0.015625)"/>
        <path id="DejaVuSans-2d" d="M 313 2009 
L 1997 2009 
L 1997 1497 
L 313 1497 
L 313 2009 
z
" transform="scale(0.015625)"/>
        <path id="DejaVuSans-31" d="M 794 531 
L 1825 531 
L 1825 4091 
L 703 3866 
L 703 4441 
L 1819 4666 
L 2450 4666 
L 2450 531 
L 3481 531 
L 3481 0 
L 794 0 
L 794 531 
z
" transform="scale(0.015625)"/>
       </defs>
       <use xlink:href="#DejaVuSans-27"/>
       <use xlink:href="#DejaVuSans-30" x="27.490234"/>
       <use xlink:href="#DejaVuSans-37" x="91.113281"/>
       <use xlink:href="#DejaVuSans-2d" x="154.736328"/>
       <use xlink:href="#DejaVuSans-30" x="190.820312"/>
       <use xlink:href="#DejaVuSans-31" x="254.443359"/>
      </g>
     </g>
    </g>
    <g id="xtick_2">
     <g id="line2d_2">
      <g>
       <use xlink:href="#m36ab56778c" x="78.544887" y="168.671221" style="stroke: #000000; stroke-width: 0.8"/>
      </g>
     </g>
     <g id="text_2">
      <!-- '07-05 -->
      <g transform="translate(69.250852 203.534543) rotate(-45) scale(0.1 -0.1)">
       <defs>
        <path id="DejaVuSans-35" d="M 691 4666 
L 3169 4666 
L 3169 4134 
L 1269 4134 
L 1269 2991 
Q 1406 3038 1543 3061 
Q 1681 3084 1819 3084 
Q 2600 3084 3056 2656 
Q 3513 2228 3513 1497 
Q 3513 744 3044 326 
Q 2575 -91 1722 -91 
Q 1428 -91 1123 -41 
Q 819 9 494 109 
L 494 744 
Q 775 591 1075 516 
Q 1375 441 1709 441 
Q 2250 441 2565 725 
Q 2881 1009 2881 1497 
Q 2881 1984 2565 2268 
Q 2250 2553 1709 2553 
Q 1456 2553 1204 2497 
Q 953 2441 691 2322 
L 691 4666 
z
" transform="scale(0.015625)"/>
       </defs>
       <use xlink:href="#DejaVuSans-27"/>
       <use xlink:href="#DejaVuSans-30" x="27.490234"/>
       <use xlink:href="#DejaVuSans-37" x="91.113281"/>
       <use xlink:href="#DejaVuSans-2d" x="154.736328"/>
       <use xlink:href="#DejaVuSans-30" x="190.820312"/>
       <use xlink:href="#DejaVuSans-35" x="254.443359"/>
      </g>
     </g>
    </g>
    <g id="xtick_3">
     <g id="line2d_3">
      <g>
       <use xlink:href="#m36ab56778c" x="110.600323" y="168.671221" style="stroke: #000000; stroke-width: 0.8"/>
      </g>
     </g>
     <g id="text_3">
      <!-- '07-09 -->
      <g transform="translate(101.306288 203.534543) rotate(-45) scale(0.1 -0.1)">
       <defs>
        <path id="DejaVuSans-39" d="M 703 97 
L 703 672 
Q 941 559 1184 500 
Q 1428 441 1663 441 
Q 2288 441 2617 861 
Q 2947 1281 2994 2138 
Q 2813 1869 2534 1725 
Q 2256 1581 1919 1581 
Q 1219 1581 811 2004 
Q 403 2428 403 3163 
Q 403 3881 828 4315 
Q 1253 4750 1959 4750 
Q 2769 4750 3195 4129 
Q 3622 3509 3622 2328 
Q 3622 1225 3098 567 
Q 2575 -91 1691 -91 
Q 1453 -91 1209 -44 
Q 966 3 703 97 
z
M 1959 2075 
Q 2384 2075 2632 2365 
Q 2881 2656 2881 3163 
Q 2881 3666 2632 3958 
Q 2384 4250 1959 4250 
Q 1534 4250 1286 3958 
Q 1038 3666 1038 3163 
Q 1038 2656 1286 2365 
Q 1534 2075 1959 2075 
z
" transform="scale(0.015625)"/>
       </defs>
       <use xlink:href="#DejaVuSans-27"/>
       <use xlink:href="#DejaVuSans-30" x="27.490234"/>
       <use xlink:href="#DejaVuSans-37" x="91.113281"/>
       <use xlink:href="#DejaVuSans-2d" x="154.736328"/>
       <use xlink:href="#DejaVuSans-30" x="190.820312"/>
       <use xlink:href="#DejaVuSans-39" x="254.443359"/>
      </g>
     </g>
    </g>
    <g id="xtick_4">
     <g id="line2d_4">
      <g>
       <use xlink:href="#m36ab56778c" x="142.395146" y="168.671221" style="stroke: #000000; stroke-width: 0.8"/>
      </g>
     </g>
     <g id="text_4">
      <!-- '08-01 -->
      <g transform="translate(133.101111 203.534543) rotate(-45) scale(0.1 -0.1)">
       <defs>
        <path id="DejaVuSans-38" d="M 2034 2216 
Q 1584 2216 1326 1975 
Q 1069 1734 1069 1313 
Q 1069 891 1326 650 
Q 1584 409 2034 409 
Q 2484 409 2743 651 
Q 3003 894 3003 1313 
Q 3003 1734 2745 1975 
Q 2488 2216 2034 2216 
z
M 1403 2484 
Q 997 2584 770 2862 
Q 544 3141 544 3541 
Q 544 4100 942 4425 
Q 1341 4750 2034 4750 
Q 2731 4750 3128 4425 
Q 3525 4100 3525 3541 
Q 3525 3141 3298 2862 
Q 3072 2584 2669 2484 
Q 3125 2378 3379 2068 
Q 3634 1759 3634 1313 
Q 3634 634 3220 271 
Q 2806 -91 2034 -91 
Q 1263 -91 848 271 
Q 434 634 434 1313 
Q 434 1759 690 2068 
Q 947 2378 1403 2484 
z
M 1172 3481 
Q 1172 3119 1398 2916 
Q 1625 2713 2034 2713 
Q 2441 2713 2670 2916 
Q 2900 3119 2900 3481 
Q 2900 3844 2670 4047 
Q 2441 4250 2034 4250 
Q 1625 4250 1398 4047 
Q 1172 3844 1172 3481 
z
" transform="scale(0.015625)"/>
       </defs>
       <use xlink:href="#DejaVuSans-27"/>
       <use xlink:href="#DejaVuSans-30" x="27.490234"/>
       <use xlink:href="#DejaVuSans-38" x="91.113281"/>
       <use xlink:href="#DejaVuSans-2d" x="154.736328"/>
       <use xlink:href="#DejaVuSans-30" x="190.820312"/>
       <use xlink:href="#DejaVuSans-31" x="254.443359"/>
      </g>
     </g>
    </g>
    <g id="xtick_5">
     <g id="line2d_5">
      <g>
       <use xlink:href="#m36ab56778c" x="173.929355" y="168.671221" style="stroke: #000000; stroke-width: 0.8"/>
      </g>
     </g>
     <g id="text_5">
      <!-- '08-05 -->
      <g transform="translate(164.635321 203.534543) rotate(-45) scale(0.1 -0.1)">
       <use xlink:href="#DejaVuSans-27"/>
       <use xlink:href="#DejaVuSans-30" x="27.490234"/>
       <use xlink:href="#DejaVuSans-38" x="91.113281"/>
       <use xlink:href="#DejaVuSans-2d" x="154.736328"/>
       <use xlink:href="#DejaVuSans-30" x="190.820312"/>
       <use xlink:href="#DejaVuSans-35" x="254.443359"/>
      </g>
     </g>
    </g>
    <g id="xtick_6">
     <g id="line2d_6">
      <g>
       <use xlink:href="#m36ab56778c" x="205.984791" y="168.671221" style="stroke: #000000; stroke-width: 0.8"/>
      </g>
     </g>
     <g id="text_6">
      <!-- '08-09 -->
      <g transform="translate(196.690757 203.534543) rotate(-45) scale(0.1 -0.1)">
       <use xlink:href="#DejaVuSans-27"/>
       <use xlink:href="#DejaVuSans-30" x="27.490234"/>
       <use xlink:href="#DejaVuSans-38" x="91.113281"/>
       <use xlink:href="#DejaVuSans-2d" x="154.736328"/>
       <use xlink:href="#DejaVuSans-30" x="190.820312"/>
       <use xlink:href="#DejaVuSans-39" x="254.443359"/>
      </g>
     </g>
    </g>
    <g id="xtick_7">
     <g id="line2d_7">
      <g>
       <use xlink:href="#m36ab56778c" x="237.779614" y="168.671221" style="stroke: #000000; stroke-width: 0.8"/>
      </g>
     </g>
     <g id="text_7">
      <!-- '09-01 -->
      <g transform="translate(228.48558 203.534543) rotate(-45) scale(0.1 -0.1)">
       <use xlink:href="#DejaVuSans-27"/>
       <use xlink:href="#DejaVuSans-30" x="27.490234"/>
       <use xlink:href="#DejaVuSans-39" x="91.113281"/>
       <use xlink:href="#DejaVuSans-2d" x="154.736328"/>
       <use xlink:href="#DejaVuSans-30" x="190.820312"/>
       <use xlink:href="#DejaVuSans-31" x="254.443359"/>
      </g>
     </g>
    </g>
    <g id="xtick_8">
     <g id="line2d_8">
      <g>
       <use xlink:href="#m36ab56778c" x="269.053211" y="168.671221" style="stroke: #000000; stroke-width: 0.8"/>
      </g>
     </g>
     <g id="text_8">
      <!-- '09-05 -->
      <g transform="translate(259.759176 203.534543) rotate(-45) scale(0.1 -0.1)">
       <use xlink:href="#DejaVuSans-27"/>
       <use xlink:href="#DejaVuSans-30" x="27.490234"/>
       <use xlink:href="#DejaVuSans-39" x="91.113281"/>
       <use xlink:href="#DejaVuSans-2d" x="154.736328"/>
       <use xlink:href="#DejaVuSans-30" x="190.820312"/>
       <use xlink:href="#DejaVuSans-35" x="254.443359"/>
      </g>
     </g>
    </g>
    <g id="xtick_9">
     <g id="line2d_9">
      <g>
       <use xlink:href="#m36ab56778c" x="301.108647" y="168.671221" style="stroke: #000000; stroke-width: 0.8"/>
      </g>
     </g>
     <g id="text_9">
      <!-- '09-09 -->
      <g transform="translate(291.814612 203.534543) rotate(-45) scale(0.1 -0.1)">
       <use xlink:href="#DejaVuSans-27"/>
       <use xlink:href="#DejaVuSans-30" x="27.490234"/>
       <use xlink:href="#DejaVuSans-39" x="91.113281"/>
       <use xlink:href="#DejaVuSans-2d" x="154.736328"/>
       <use xlink:href="#DejaVuSans-30" x="190.820312"/>
       <use xlink:href="#DejaVuSans-39" x="254.443359"/>
      </g>
     </g>
    </g>
    <g id="xtick_10">
     <g id="line2d_10">
      <g>
       <use xlink:href="#m36ab56778c" x="332.90347" y="168.671221" style="stroke: #000000; stroke-width: 0.8"/>
      </g>
     </g>
     <g id="text_10">
      <!-- '10-01 -->
      <g transform="translate(323.609435 203.534543) rotate(-45) scale(0.1 -0.1)">
       <use xlink:href="#DejaVuSans-27"/>
       <use xlink:href="#DejaVuSans-31" x="27.490234"/>
       <use xlink:href="#DejaVuSans-30" x="91.113281"/>
       <use xlink:href="#DejaVuSans-2d" x="154.736328"/>
       <use xlink:href="#DejaVuSans-30" x="190.820312"/>
       <use xlink:href="#DejaVuSans-31" x="254.443359"/>
      </g>
     </g>
    </g>
   </g>
   <g id="matplotlib.axis_2">
    <g id="ytick_1">
     <g id="line2d_11">
      <defs>
       <path id="ma3ef283642" d="M 0 0 
L -3.5 0 
" style="stroke: #000000; stroke-width: 0.8"/>
      </defs>
      <g>
       <use xlink:href="#ma3ef283642" x="33.55" y="165.231421" style="stroke: #000000; stroke-width: 0.8"/>
      </g>
     </g>
     <g id="text_11">
      <!-- 2.0 -->
      <g transform="translate(10.646875 169.03064) scale(0.1 -0.1)">
       <defs>
        <path id="DejaVuSans-32" d="M 1228 531 
L 3431 531 
L 3431 0 
L 469 0 
L 469 531 
Q 828 903 1448 1529 
Q 2069 2156 2228 2338 
Q 2531 2678 2651 2914 
Q 2772 3150 2772 3378 
Q 2772 3750 2511 3984 
Q 2250 4219 1831 4219 
Q 1534 4219 1204 4116 
Q 875 4013 500 3803 
L 500 4441 
Q 881 4594 1212 4672 
Q 1544 4750 1819 4750 
Q 2544 4750 2975 4387 
Q 3406 4025 3406 3419 
Q 3406 3131 3298 2873 
Q 3191 2616 2906 2266 
Q 2828 2175 2409 1742 
Q 1991 1309 1228 531 
z
" transform="scale(0.015625)"/>
        <path id="DejaVuSans-2e" d="M 684 794 
L 1344 794 
L 1344 0 
L 684 0 
L 684 794 
z
" transform="scale(0.015625)"/>
       </defs>
       <use xlink:href="#DejaVuSans-32"/>
       <use xlink:href="#DejaVuSans-2e" x="63.623047"/>
       <use xlink:href="#DejaVuSans-30" x="95.410156"/>
      </g>
     </g>
    </g>
    <g id="ytick_2">
     <g id="line2d_12">
      <g>
       <use xlink:href="#ma3ef283642" x="33.55" y="144.925638" style="stroke: #000000; stroke-width: 0.8"/>
      </g>
     </g>
     <g id="text_12">
      <!-- 2.5 -->
      <g transform="translate(10.646875 148.724857) scale(0.1 -0.1)">
       <use xlink:href="#DejaVuSans-32"/>
       <use xlink:href="#DejaVuSans-2e" x="63.623047"/>
       <use xlink:href="#DejaVuSans-35" x="95.410156"/>
      </g>
     </g>
    </g>
    <g id="ytick_3">
     <g id="line2d_13">
      <g>
       <use xlink:href="#ma3ef283642" x="33.55" y="124.619855" style="stroke: #000000; stroke-width: 0.8"/>
      </g>
     </g>
     <g id="text_13">
      <!-- 3.0 -->
      <g transform="translate(10.646875 128.419074) scale(0.1 -0.1)">
       <defs>
        <path id="DejaVuSans-33" d="M 2597 2516 
Q 3050 2419 3304 2112 
Q 3559 1806 3559 1356 
Q 3559 666 3084 287 
Q 2609 -91 1734 -91 
Q 1441 -91 1130 -33 
Q 819 25 488 141 
L 488 750 
Q 750 597 1062 519 
Q 1375 441 1716 441 
Q 2309 441 2620 675 
Q 2931 909 2931 1356 
Q 2931 1769 2642 2001 
Q 2353 2234 1838 2234 
L 1294 2234 
L 1294 2753 
L 1863 2753 
Q 2328 2753 2575 2939 
Q 2822 3125 2822 3475 
Q 2822 3834 2567 4026 
Q 2313 4219 1838 4219 
Q 1578 4219 1281 4162 
Q 984 4106 628 3988 
L 628 4550 
Q 988 4650 1302 4700 
Q 1616 4750 1894 4750 
Q 2613 4750 3031 4423 
Q 3450 4097 3450 3541 
Q 3450 3153 3228 2886 
Q 3006 2619 2597 2516 
z
" transform="scale(0.015625)"/>
       </defs>
       <use xlink:href="#DejaVuSans-33"/>
       <use xlink:href="#DejaVuSans-2e" x="63.623047"/>
       <use xlink:href="#DejaVuSans-30" x="95.410156"/>
      </g>
     </g>
    </g>
    <g id="ytick_4">
     <g id="line2d_14">
      <g>
       <use xlink:href="#ma3ef283642" x="33.55" y="104.314073" style="stroke: #000000; stroke-width: 0.8"/>
      </g>
     </g>
     <g id="text_14">
      <!-- 3.5 -->
      <g transform="translate(10.646875 108.113291) scale(0.1 -0.1)">
       <use xlink:href="#DejaVuSans-33"/>
       <use xlink:href="#DejaVuSans-2e" x="63.623047"/>
       <use xlink:href="#DejaVuSans-35" x="95.410156"/>
      </g>
     </g>
    </g>
    <g id="ytick_5">
     <g id="line2d_15">
      <g>
       <use xlink:href="#ma3ef283642" x="33.55" y="84.00829" style="stroke: #000000; stroke-width: 0.8"/>
      </g>
     </g>
     <g id="text_15">
      <!-- 4.0 -->
      <g transform="translate(10.646875 87.807508) scale(0.1 -0.1)">
       <defs>
        <path id="DejaVuSans-34" d="M 2419 4116 
L 825 1625 
L 2419 1625 
L 2419 4116 
z
M 2253 4666 
L 3047 4666 
L 3047 1625 
L 3713 1625 
L 3713 1100 
L 3047 1100 
L 3047 0 
L 2419 0 
L 2419 1100 
L 313 1100 
L 313 1709 
L 2253 4666 
z
" transform="scale(0.015625)"/>
       </defs>
       <use xlink:href="#DejaVuSans-34"/>
       <use xlink:href="#DejaVuSans-2e" x="63.623047"/>
       <use xlink:href="#DejaVuSans-30" x="95.410156"/>
      </g>
     </g>
    </g>
    <g id="ytick_6">
     <g id="line2d_16">
      <g>
       <use xlink:href="#ma3ef283642" x="33.55" y="63.702507" style="stroke: #000000; stroke-width: 0.8"/>
      </g>
     </g>
     <g id="text_16">
      <!-- 4.5 -->
      <g transform="translate(10.646875 67.501725) scale(0.1 -0.1)">
       <use xlink:href="#DejaVuSans-34"/>
       <use xlink:href="#DejaVuSans-2e" x="63.623047"/>
       <use xlink:href="#DejaVuSans-35" x="95.410156"/>
      </g>
     </g>
    </g>
    <g id="ytick_7">
     <g id="line2d_17">
      <g>
       <use xlink:href="#ma3ef283642" x="33.55" y="43.396724" style="stroke: #000000; stroke-width: 0.8"/>
      </g>
     </g>
     <g id="text_17">
      <!-- 5.0 -->
      <g transform="translate(10.646875 47.195943) scale(0.1 -0.1)">
       <use xlink:href="#DejaVuSans-35"/>
       <use xlink:href="#DejaVuSans-2e" x="63.623047"/>
       <use xlink:href="#DejaVuSans-30" x="95.410156"/>
      </g>
     </g>
    </g>
   </g>
   <g id="line2d_18">
    <path d="M 213.281964 98.953346 
L 213.542577 91.03409 
L 213.803191 93.430173 
L 214.063804 98.384784 
L 214.324417 98.466007 
M 215.106257 107.319328 
L 215.36687 104.070403 
L 215.627484 95.582586 
L 215.888097 90.74981 
L 216.14871 89.653297 
M 216.93055 89.653297 
L 217.191163 83.074224 
L 217.451777 83.561562 
L 217.71239 86.60743 
L 217.973003 86.526207 
M 218.754843 88.638008 
L 219.015457 96.069925 
L 219.536683 102.933279 
L 219.797296 96.313594 
M 220.579136 95.014024 
L 221.100363 89.125347 
L 221.360976 86.485595 
L 221.62159 85.226637 
M 222.40343 87.907 
L 222.664043 93.552008 
L 222.924656 96.435429 
L 223.185269 95.907478 
L 223.445883 92.942834 
M 224.227723 93.755065 
L 224.488336 93.958123 
L 224.748949 97.613164 
L 225.009563 91.399595 
L 225.270176 94.161181 
M 226.052016 96.841544 
L 226.573242 108.740733 
L 226.833856 118.77179 
L 227.094469 117.837724 
M 227.876309 110.811923 
L 228.136922 120.883591 
L 228.397535 124.579244 
L 228.918762 126.366153 
M 229.700602 136.031705 
L 230.221829 137.778003 
L 230.482442 142.082829 
L 230.743055 138.549622 
M 231.524895 135.422532 
L 231.785508 138.062284 
L 232.046122 137.45311 
L 232.306735 138.915127 
L 232.567348 141.311209 
M 233.349188 143.585457 
L 234.131028 162.226165 
L 234.391641 159.911306 
M 235.173481 159.50519 
L 235.694708 157.961951 
L 236.215935 159.667637 
M 236.997774 161.332711 
L 237.258388 161.698215 
L 237.519001 155.322199 
L 238.040228 148.33701 
M 238.822068 145.412977 
L 239.082681 144.72258 
L 239.343294 145.169308 
L 239.864521 148.702514 
M 240.646361 152.682447 
L 240.906974 153.169786 
L 241.167587 156.581158 
L 241.428201 157.068496 
L 241.688814 152.885505 
M 242.731267 151.220431 
L 242.99188 143.869738 
L 243.252494 141.108151 
L 243.513107 139.971027 
M 244.294947 139.118184 
L 244.55556 144.154019 
L 245.076787 132.132995 
L 245.3374 130.95526 
M 246.11924 136.031705 
L 246.640467 128.11245 
L 246.90108 128.681012 
L 247.161693 125.472698 
M 247.943533 123.523343 
L 248.204146 130.833425 
L 248.46476 134.285408 
L 248.725373 135.706813 
L 248.985986 129.41202 
M 250.02844 138.346565 
L 250.289053 135.666201 
L 250.549666 130.427309 
L 250.810279 133.879292 
M 251.592119 133.676235 
L 251.852733 132.78278 
L 252.113346 126.853492 
L 252.373959 125.51331 
L 252.634573 122.954781 
M 253.416412 127.909392 
L 253.677026 127.137772 
L 253.937639 124.173128 
L 254.198252 131.970549 
L 254.458866 131.605045 
M 255.240706 129.249574 
L 255.501319 125.350864 
L 255.761932 128.031227 
L 256.022546 129.005905 
L 256.283159 129.290185 
M 257.064999 126.609822 
L 257.325612 124.498021 
L 257.586225 143.585457 
L 257.846839 140.986316 
L 258.107452 139.849193 
M 258.889292 138.427788 
L 259.149905 138.671457 
L 259.410518 133.879292 
L 259.671132 135.463143 
L 259.931745 134.32602 
M 260.713585 136.234763 
L 261.234812 138.509011 
L 261.495425 134.691524 
L 261.756038 128.396731 
M 262.537878 127.097161 
L 262.798491 128.315508 
L 263.059105 130.833425 
L 263.319718 127.625111 
M 264.362171 130.914648 
L 264.622784 133.31073 
L 264.883398 134.407243 
L 265.404624 127.462665 
M 266.186464 130.995871 
L 266.707691 126.081872 
L 266.968304 127.5845 
L 267.228918 124.782302 
M 268.010757 127.828169 
L 268.531984 120.721145 
L 268.792597 119.584021 
L 269.053211 117.553443 
M 269.835051 118.24384 
L 270.095664 118.24384 
L 270.356277 118.446897 
L 270.61689 112.639443 
L 270.877504 112.720667 
M 271.659344 117.309774 
L 271.919957 117.512831 
L 272.18057 120.355641 
L 272.441184 120.274418 
L 272.701797 119.624633 
M 273.483637 116.050815 
L 273.74425 114.751245 
L 274.004863 116.416319 
L 274.52609 106.425874 
M 275.568543 104.598353 
L 275.829156 96.394817 
L 276.08977 97.328883 
L 276.350383 105.735477 
M 277.132223 95.582586 
L 277.65345 102.242883 
L 278.174676 89.612686 
M 278.956516 88.516173 
L 279.217129 89.775132 
L 279.477743 86.60743 
L 279.998969 92.617942 
M 280.780809 95.663809 
L 281.302036 98.344172 
L 281.562649 90.74981 
L 281.823262 92.57733 
M 282.605102 96.47604 
L 282.865716 98.628453 
L 283.126329 96.800933 
L 283.386942 102.44594 
L 283.647556 104.070403 
M 284.429395 104.638965 
L 284.950622 102.527164 
L 285.211235 104.51713 
M 286.253689 104.070403 
L 286.514302 105.938535 
L 286.774915 112.883113 
L 287.035528 107.847279 
L 287.296142 112.639443 
M 288.077982 110.568254 
L 288.338595 106.466485 
L 288.599208 100.415362 
L 288.859822 101.999213 
L 289.120435 98.181726 
M 289.902275 100.862089 
L 290.162888 105.248139 
L 290.423501 102.121048 
L 290.684115 95.826255 
L 290.944728 97.410106 
M 291.726568 95.663809 
L 292.508408 98.587842 
L 292.769021 104.273461 
M 293.550861 98.669065 
L 293.811474 97.044602 
L 294.072088 93.592619 
L 294.332701 94.323627 
L 294.593314 89.937578 
M 295.375154 93.308338 
L 295.635767 96.47604 
L 295.896381 96.151148 
L 296.156994 100.61842 
L 296.417607 101.958602 
M 297.199447 104.679577 
L 297.460061 103.258172 
L 297.720674 105.8167 
L 297.981287 106.953824 
L 298.2419 102.039825 
M 299.02374 104.557742 
L 299.284354 106.344651 
L 299.544967 106.83199 
L 299.80558 105.857312 
L 300.066194 106.304039 
M 300.848034 108.334618 
L 301.108647 109.390518 
L 301.36926 112.639443 
L 301.629873 111.299262 
L 301.890487 106.669543 
M 302.93294 105.573031 
L 303.193553 105.166915 
L 303.454167 110.7307 
L 303.71478 110.690088 
M 304.49662 108.13156 
L 304.757233 106.263428 
L 305.017846 105.491808 
L 305.27846 108.456452 
L 305.539073 105.369973 
M 306.320913 104.842023 
L 307.102753 109.146849 
L 307.363366 111.25865 
M 308.145206 112.355163 
L 308.405819 112.761278 
L 308.666433 112.152105 
L 308.927046 116.741212 
L 309.187659 115.644699 
M 309.969499 115.522865 
L 310.230112 114.548187 
L 310.490726 117.512831 
L 310.751339 114.263906 
L 311.011952 109.025014 
M 311.793792 109.18746 
L 312.054406 111.949047 
L 312.315019 107.441163 
L 312.575632 105.532419 
L 312.836245 107.684832 
M 313.618085 108.578287 
L 313.878699 110.933758 
L 314.139312 107.928502 
L 314.399925 107.522386 
L 314.660539 105.329362 
M 315.442378 102.121048 
L 315.702992 105.857312 
L 315.963605 107.928502 
L 316.224218 104.273461 
L 316.484832 108.700122 
M 317.266672 107.481775 
L 317.527285 105.410585 
L 317.787898 102.44594 
L 318.048511 102.973891 
L 318.309125 104.192238 
M 319.090965 104.882634 
L 319.351578 105.045081 
L 319.612191 105.369973 
L 320.133418 107.197494 
M 320.915258 111.177427 
L 321.175871 111.664766 
L 321.436484 109.756022 
L 321.697098 110.446419 
L 321.957711 110.162138 
M 322.739551 109.837245 
L 323.260778 113.289229 
L 323.782004 115.238584 
M 324.563844 116.456931 
L 325.085071 111.50232 
L 325.345684 109.18746 
L 325.606297 105.004469 
M 326.388137 106.425874 
L 326.64875 108.700122 
L 326.909364 107.441163 
L 327.43059 102.68961 
M 328.21243 102.44594 
L 328.473044 100.131081 
L 328.733657 100.415362 
L 328.99427 104.842023 
L 329.254883 102.44594 
M 330.036723 96.922768 
L 330.297337 94.40485 
L 330.55795 94.242404 
L 330.818563 91.846322 
M 331.861016 90.424917 
L 332.382243 92.780388 
L 332.642856 90.384305 
L 332.642856 90.384305 
" clip-path="url(#pf82ad75505)" style="fill: none; stroke: #d3d3d3; stroke-linecap: square"/>
   </g>
   <g id="line2d_19">
    <path d="M 47.792517 57.04221 
L 48.05313 58.910342 
L 48.313744 57.773218 
M 49.095583 57.204656 
L 49.356197 57.367102 
L 49.61681 56.311202 
L 50.138037 52.696772 
M 51.18049 53.509004 
L 51.441103 52.046987 
L 51.701717 53.509004 
L 51.96233 52.615549 
M 52.74417 53.184111 
L 53.004783 51.356591 
L 53.265396 51.112921 
L 53.52601 48.798062 
L 53.786623 48.310723 
M 54.568463 47.782773 
L 54.829076 48.47317 
L 55.089689 50.463136 
L 55.350303 50.016409 
L 55.610916 50.422525 
M 56.392756 51.194144 
L 56.653369 52.940442 
L 57.174596 54.361847 
L 57.435209 52.168822 
M 58.217049 51.356591 
L 58.477662 50.950475 
L 58.738276 54.361847 
L 59.259502 55.986309 
M 60.301955 56.392425 
L 60.562569 55.905086 
L 60.823182 54.361847 
L 61.083795 56.473648 
M 61.865635 58.382392 
L 62.126249 63.174556 
L 62.386862 61.671928 
L 62.647475 61.428259 
L 62.908089 63.093333 
M 63.689928 62.971499 
L 63.950542 62.565383 
L 64.211155 63.824341 
L 64.471768 63.337003 
L 64.732382 60.088077 
M 65.514222 61.550094 
L 65.774835 63.905565 
L 66.035448 62.809052 
L 66.556675 61.874986 
M 67.338515 60.819086 
L 67.859741 62.971499 
L 68.120355 60.088077 
L 68.380968 59.1134 
M 69.162808 60.1693 
L 69.423421 59.154011 
L 69.944648 58.34178 
L 70.205261 57.691995 
M 70.987101 57.935664 
L 71.247714 57.04221 
L 71.508327 57.529549 
L 71.768941 56.636094 
M 72.811394 53.752673 
L 73.072007 54.605516 
L 73.332621 53.996342 
L 73.593234 54.077566 
L 73.853847 53.102888 
M 74.635687 54.158789 
L 75.156914 57.448326 
L 75.417527 56.798541 
L 75.67814 56.717317 
M 76.45998 57.610772 
L 76.720594 58.747896 
L 76.981207 57.773218 
L 77.24182 56.229979 
L 77.502433 55.661417 
M 78.284273 58.423003 
L 78.544887 57.935664 
L 78.8055 57.773218 
L 79.066113 56.636094 
L 79.326727 58.016887 
M 80.108566 58.179334 
L 80.36918 58.260557 
L 80.629793 56.879764 
L 80.890406 57.691995 
L 81.15102 56.798541 
M 81.93286 55.986309 
L 82.193473 55.092855 
L 82.454086 55.255301 
L 82.975313 51.356591 
M 83.757153 52.006376 
L 84.278379 49.122955 
L 84.538993 49.204178 
L 84.799606 49.041731 
M 85.842059 48.188889 
L 86.102672 48.351335 
L 86.363286 47.863996 
L 86.623899 45.183633 
M 87.405739 46.280145 
L 87.666352 44.371401 
L 87.926966 44.615071 
L 88.187579 39.376179 
L 88.448192 38.604559 
M 89.230032 37.832939 
L 89.490645 33.325055 
L 89.751259 35.274411 
L 90.011872 34.584014 
L 90.272485 36.452146 
M 91.054325 37.629881 
L 91.314938 39.904129 
L 91.836165 36.777039 
L 92.096778 37.792328 
M 92.878618 40.229022 
L 93.139232 39.294956 
L 93.399845 40.553914 
L 93.660458 38.604559 
L 93.921071 42.056542 
M 94.702911 43.477947 
L 95.745365 35.477468 
M 96.527205 36.939485 
L 96.787818 41.853484 
L 97.309044 38.685782 
L 97.569658 39.051286 
M 98.351498 41.73165 
L 98.612111 40.229022 
L 98.872724 42.990608 
L 99.133338 42.2596 
L 99.393951 45.183633 
M 100.175791 44.85874 
L 100.436404 45.670971 
L 100.697017 47.295434 
L 100.957631 52.453103 
L 101.218244 52.006376 
M 102.000084 51.356591 
L 102.260697 52.696772 
L 102.52131 53.184111 
L 102.781924 53.427781 
L 103.042537 55.580194 
M 103.824377 54.321235 
L 104.08499 53.833896 
L 104.345604 49.082343 
L 104.606217 51.925153 
L 104.86683 52.493715 
M 105.64867 52.412491 
L 105.909283 54.280623 
L 106.169897 55.336524 
L 106.43051 59.64135 
L 106.691123 56.676706 
M 107.472963 58.260557 
L 107.733577 60.047466 
L 107.99419 58.829119 
L 108.254803 58.910342 
L 108.515416 58.301168 
M 109.297256 59.803796 
L 109.55787 62.48416 
L 109.818483 61.550094 
L 110.079096 63.621284 
L 110.33971 62.199879 
M 111.382163 61.347036 
L 111.642776 64.799019 
L 111.903389 63.702507 
L 112.164003 69.063233 
M 112.945843 70.850142 
L 113.467069 67.438771 
L 113.727682 64.433515 
L 113.988296 65.245746 
M 114.770136 64.920854 
L 115.030749 64.514738 
L 115.291362 62.727829 
L 115.551976 56.717317 
L 115.812589 58.34178 
M 116.594429 58.666673 
L 116.855042 59.072788 
L 117.115655 58.829119 
L 117.376269 60.737862 
L 117.636882 60.494193 
M 118.418722 61.387647 
L 118.679335 62.524771 
L 118.939949 61.956209 
L 119.200562 62.768441 
L 119.461175 58.016887 
M 120.243015 58.098111 
L 120.503628 57.57016 
L 120.764242 57.732607 
L 121.024855 57.245268 
L 121.285468 56.108144 
M 122.067308 56.676706 
L 122.327921 57.407714 
L 122.588535 61.834375 
L 122.849148 63.580672 
L 123.109761 67.723052 
M 123.891601 68.047944 
L 124.152215 67.560605 
L 124.412828 70.565861 
L 124.673441 69.713018 
L 124.934054 68.210391 
M 125.715894 68.45406 
L 125.976508 68.45406 
L 126.237121 64.717796 
L 126.758348 72.190324 
M 127.540187 71.093812 
L 127.800801 69.509961 
L 128.061414 70.444027 
L 128.582641 74.870687 
M 129.364481 75.439249 
L 129.625094 73.611729 
L 129.885707 73.083778 
L 130.14632 77.551051 
L 130.406934 77.916555 
M 131.188774 80.799976 
L 131.71 83.033612 
L 132.231227 83.520951 
M 133.013067 90.221859 
L 133.534293 82.993 
L 133.794907 86.444984 
L 134.05552 85.145413 
M 134.83736 88.272504 
L 135.097973 88.516173 
L 135.358587 87.622719 
L 135.879813 79.134902 
M 136.661653 77.957166 
L 136.922266 84.414405 
L 137.704106 74.586406 
M 138.485946 76.170257 
L 139.007173 81.16548 
L 139.267786 82.952389 
L 139.528399 77.185547 
M 140.310239 75.398638 
L 140.831466 72.59644 
L 141.352692 80.109579 
M 142.134532 82.586885 
L 142.655759 88.028835 
L 142.916372 88.028835 
L 143.176986 89.937578 
M 143.958826 90.546752 
L 144.219439 90.50614 
L 144.480052 92.496107 
L 144.740665 88.597397 
L 145.001279 91.724487 
M 145.783119 92.414884 
L 146.043732 96.151148 
L 146.304345 95.704421 
L 146.564959 98.628453 
L 146.825572 98.303561 
M 147.868025 104.963858 
L 148.128638 107.319328 
L 148.389252 98.628453 
L 148.649865 100.902701 
M 149.431705 100.821478 
L 149.952931 94.851578 
L 150.213545 98.669065 
L 150.474158 100.252916 
M 151.255998 98.506619 
L 151.516611 100.780866 
L 151.777225 99.684354 
L 152.037838 94.729743 
L 152.298451 98.059891 
M 153.080291 99.521908 
L 153.340904 97.044602 
L 153.601518 96.435429 
L 153.862131 91.399595 
L 154.122744 92.942834 
M 155.165198 89.084735 
L 155.425811 87.37905 
L 155.686424 92.780388 
L 155.947037 92.536718 
M 156.728877 87.988223 
L 156.989491 89.693909 
L 157.250104 90.100024 
L 157.771331 102.933279 
M 158.55317 102.933279 
L 158.813784 101.105759 
L 159.074397 96.47604 
L 159.595624 102.648998 
M 160.377464 106.83199 
L 160.638077 100.415362 
L 160.89869 105.004469 
L 161.159303 102.933279 
L 161.419917 107.522386 
M 162.201757 111.867824 
L 162.46237 106.304039 
L 162.722983 109.918469 
L 162.983597 111.299262 
M 164.02605 103.420618 
L 164.286663 104.638965 
L 164.547276 104.557742 
L 164.80789 102.933279 
L 165.068503 105.694866 
M 165.850343 107.075659 
L 166.110956 102.486552 
L 166.37157 100.943313 
L 166.632183 100.61842 
L 166.892796 105.085692 
M 167.674636 102.039825 
L 167.935249 101.958602 
L 168.195863 105.694866 
L 168.456476 103.014502 
L 168.717089 105.491808 
M 169.498929 104.192238 
L 169.759542 101.471263 
L 170.020156 96.354206 
L 170.280769 95.014024 
L 170.541382 94.445462 
M 171.323222 95.704421 
L 171.844449 94.973412 
L 172.105062 91.03409 
L 172.365675 89.450239 
M 173.147515 90.709198 
L 173.408129 91.115314 
L 173.668742 93.795677 
L 173.929355 94.201793 
L 174.189969 90.303082 
M 174.971808 90.303082 
L 175.232422 88.353727 
L 175.493035 89.409628 
L 176.014262 93.470784 
M 176.796102 93.145892 
L 177.056715 87.703942 
L 177.317328 86.526207 
L 177.577942 90.384305 
L 177.838555 90.100024 
M 178.620395 90.546752 
L 178.881008 93.10528 
L 179.141621 91.237148 
L 179.402235 87.216603 
L 179.662848 90.871644 
M 180.705301 87.216603 
L 181.226528 80.799976 
L 181.487141 82.140158 
M 182.268981 85.186025 
L 182.529594 88.150669 
L 182.790208 86.444984 
L 183.050821 82.993 
L 183.311434 86.526207 
M 184.093274 84.333182 
L 184.353887 79.987745 
L 184.614501 81.043645 
L 184.875114 75.682919 
L 185.135727 73.408671 
M 185.917567 74.058456 
L 186.17818 74.870687 
L 186.438794 77.754108 
L 186.699407 75.926588 
L 186.96002 78.444505 
M 187.74186 77.185547 
L 188.002474 79.744075 
L 188.263087 79.33796 
L 188.5237 82.668108 
L 188.784314 84.414405 
M 189.566153 84.861132 
L 189.826767 84.333182 
L 190.08738 85.673364 
L 190.347993 85.104802 
M 191.390447 86.851099 
L 191.911673 90.74981 
L 192.172286 91.683876 
L 192.4329 86.444984 
M 193.21474 88.881677 
L 193.475353 90.343694 
L 194.257193 80.718753 
M 195.039033 81.287315 
L 195.299646 80.068968 
L 195.560259 77.997778 
L 195.820873 83.358505 
L 196.081486 79.500406 
M 196.863326 83.277281 
L 197.123939 82.221381 
L 197.384552 82.058934 
L 197.645166 84.861132 
L 197.905779 86.120091 
M 198.687619 85.145413 
L 199.208846 82.058934 
L 199.469459 86.648041 
L 199.730072 86.038868 
M 200.511912 83.927066 
L 200.772525 87.338438 
L 201.033139 86.160703 
L 201.554365 90.018801 
M 202.336205 91.480818 
L 202.596819 90.424917 
L 202.857432 92.171214 
L 203.378658 89.409628 
M 204.160498 92.496107 
L 204.421112 92.780388 
L 204.681725 93.267727 
L 205.202952 91.602652 
M 206.245405 94.323627 
L 206.766631 98.506619 
L 207.027245 97.816222 
M 207.809085 97.613164 
L 208.069698 100.415362 
L 208.330311 98.587842 
L 208.590924 99.359461 
L 208.851538 94.973412 
M 209.633378 105.004469 
L 209.893991 104.679577 
L 210.154604 107.969113 
L 210.415218 106.872601 
L 210.675831 93.389561 
M 211.457671 91.074702 
L 211.718284 90.465529 
L 211.978897 93.308338 
L 212.239511 89.612686 
L 212.500124 91.03409 
M 213.281964 98.953346 
" clip-path="url(#pf82ad75505)" style="fill: none; stroke: #000000; stroke-linecap: square"/>
   </g>
   <g id="patch_3">
    <path d="M 33.55 168.671221 
L 33.55 26.88 
" style="fill: none; stroke: #000000; stroke-width: 0.8; stroke-linejoin: miter; stroke-linecap: square"/>
   </g>
   <g id="patch_4">
    <path d="M 346.885373 168.671221 
L 346.885373 26.88 
" style="fill: none; stroke: #000000; stroke-width: 0.8; stroke-linejoin: miter; stroke-linecap: square"/>
   </g>
   <g id="patch_5">
    <path d="M 33.55 168.671221 
L 346.885373 168.671221 
" style="fill: none; stroke: #000000; stroke-width: 0.8; stroke-linejoin: miter; stroke-linecap: square"/>
   </g>
   <g id="patch_6">
    <path d="M 33.55 26.88 
L 346.885373 26.88 
" style="fill: none; stroke: #000000; stroke-width: 0.8; stroke-linejoin: miter; stroke-linecap: square"/>
   </g>
   <g id="text_18">
    <!-- 10Y Treasury Yield -->
    <g transform="translate(135.396437 20.88) scale(0.12 -0.12)">
     <defs>
      <path id="DejaVuSans-59" d="M -13 4666 
L 666 4666 
L 1959 2747 
L 3244 4666 
L 3922 4666 
L 2272 2222 
L 2272 0 
L 1638 0 
L 1638 2222 
L -13 4666 
z
" transform="scale(0.015625)"/>
      <path id="DejaVuSans-20" transform="scale(0.015625)"/>
      <path id="DejaVuSans-54" d="M -19 4666 
L 3928 4666 
L 3928 4134 
L 2272 4134 
L 2272 0 
L 1638 0 
L 1638 4134 
L -19 4134 
L -19 4666 
z
" transform="scale(0.015625)"/>
      <path id="DejaVuSans-72" d="M 2631 2963 
Q 2534 3019 2420 3045 
Q 2306 3072 2169 3072 
Q 1681 3072 1420 2755 
Q 1159 2438 1159 1844 
L 1159 0 
L 581 0 
L 581 3500 
L 1159 3500 
L 1159 2956 
Q 1341 3275 1631 3429 
Q 1922 3584 2338 3584 
Q 2397 3584 2469 3576 
Q 2541 3569 2628 3553 
L 2631 2963 
z
" transform="scale(0.015625)"/>
      <path id="DejaVuSans-65" d="M 3597 1894 
L 3597 1613 
L 953 1613 
Q 991 1019 1311 708 
Q 1631 397 2203 397 
Q 2534 397 2845 478 
Q 3156 559 3463 722 
L 3463 178 
Q 3153 47 2828 -22 
Q 2503 -91 2169 -91 
Q 1331 -91 842 396 
Q 353 884 353 1716 
Q 353 2575 817 3079 
Q 1281 3584 2069 3584 
Q 2775 3584 3186 3129 
Q 3597 2675 3597 1894 
z
M 3022 2063 
Q 3016 2534 2758 2815 
Q 2500 3097 2075 3097 
Q 1594 3097 1305 2825 
Q 1016 2553 972 2059 
L 3022 2063 
z
" transform="scale(0.015625)"/>
      <path id="DejaVuSans-61" d="M 2194 1759 
Q 1497 1759 1228 1600 
Q 959 1441 959 1056 
Q 959 750 1161 570 
Q 1363 391 1709 391 
Q 2188 391 2477 730 
Q 2766 1069 2766 1631 
L 2766 1759 
L 2194 1759 
z
M 3341 1997 
L 3341 0 
L 2766 0 
L 2766 531 
Q 2569 213 2275 61 
Q 1981 -91 1556 -91 
Q 1019 -91 701 211 
Q 384 513 384 1019 
Q 384 1609 779 1909 
Q 1175 2209 1959 2209 
L 2766 2209 
L 2766 2266 
Q 2766 2663 2505 2880 
Q 2244 3097 1772 3097 
Q 1472 3097 1187 3025 
Q 903 2953 641 2809 
L 641 3341 
Q 956 3463 1253 3523 
Q 1550 3584 1831 3584 
Q 2591 3584 2966 3190 
Q 3341 2797 3341 1997 
z
" transform="scale(0.015625)"/>
      <path id="DejaVuSans-73" d="M 2834 3397 
L 2834 2853 
Q 2591 2978 2328 3040 
Q 2066 3103 1784 3103 
Q 1356 3103 1142 2972 
Q 928 2841 928 2578 
Q 928 2378 1081 2264 
Q 1234 2150 1697 2047 
L 1894 2003 
Q 2506 1872 2764 1633 
Q 3022 1394 3022 966 
Q 3022 478 2636 193 
Q 2250 -91 1575 -91 
Q 1294 -91 989 -36 
Q 684 19 347 128 
L 347 722 
Q 666 556 975 473 
Q 1284 391 1588 391 
Q 1994 391 2212 530 
Q 2431 669 2431 922 
Q 2431 1156 2273 1281 
Q 2116 1406 1581 1522 
L 1381 1569 
Q 847 1681 609 1914 
Q 372 2147 372 2553 
Q 372 3047 722 3315 
Q 1072 3584 1716 3584 
Q 2034 3584 2315 3537 
Q 2597 3491 2834 3397 
z
" transform="scale(0.015625)"/>
      <path id="DejaVuSans-75" d="M 544 1381 
L 544 3500 
L 1119 3500 
L 1119 1403 
Q 1119 906 1312 657 
Q 1506 409 1894 409 
Q 2359 409 2629 706 
Q 2900 1003 2900 1516 
L 2900 3500 
L 3475 3500 
L 3475 0 
L 2900 0 
L 2900 538 
Q 2691 219 2414 64 
Q 2138 -91 1772 -91 
Q 1169 -91 856 284 
Q 544 659 544 1381 
z
M 1991 3584 
L 1991 3584 
z
" transform="scale(0.015625)"/>
      <path id="DejaVuSans-79" d="M 2059 -325 
Q 1816 -950 1584 -1140 
Q 1353 -1331 966 -1331 
L 506 -1331 
L 506 -850 
L 844 -850 
Q 1081 -850 1212 -737 
Q 1344 -625 1503 -206 
L 1606 56 
L 191 3500 
L 800 3500 
L 1894 763 
L 2988 3500 
L 3597 3500 
L 2059 -325 
z
" transform="scale(0.015625)"/>
      <path id="DejaVuSans-69" d="M 603 3500 
L 1178 3500 
L 1178 0 
L 603 0 
L 603 3500 
z
M 603 4863 
L 1178 4863 
L 1178 4134 
L 603 4134 
L 603 4863 
z
" transform="scale(0.015625)"/>
      <path id="DejaVuSans-6c" d="M 603 4863 
L 1178 4863 
L 1178 0 
L 603 0 
L 603 4863 
z
" transform="scale(0.015625)"/>
      <path id="DejaVuSans-64" d="M 2906 2969 
L 2906 4863 
L 3481 4863 
L 3481 0 
L 2906 0 
L 2906 525 
Q 2725 213 2448 61 
Q 2172 -91 1784 -91 
Q 1150 -91 751 415 
Q 353 922 353 1747 
Q 353 2572 751 3078 
Q 1150 3584 1784 3584 
Q 2172 3584 2448 3432 
Q 2725 3281 2906 2969 
z
M 947 1747 
Q 947 1113 1208 752 
Q 1469 391 1925 391 
Q 2381 391 2643 752 
Q 2906 1113 2906 1747 
Q 2906 2381 2643 2742 
Q 2381 3103 1925 3103 
Q 1469 3103 1208 2742 
Q 947 2381 947 1747 
z
" transform="scale(0.015625)"/>
     </defs>
     <use xlink:href="#DejaVuSans-31"/>
     <use xlink:href="#DejaVuSans-30" x="63.623047"/>
     <use xlink:href="#DejaVuSans-59" x="127.246094"/>
     <use xlink:href="#DejaVuSans-20" x="188.330078"/>
     <use xlink:href="#DejaVuSans-54" x="220.117188"/>
     <use xlink:href="#DejaVuSans-72" x="266.451172"/>
     <use xlink:href="#DejaVuSans-65" x="305.314453"/>
     <use xlink:href="#DejaVuSans-61" x="366.837891"/>
     <use xlink:href="#DejaVuSans-73" x="428.117188"/>
     <use xlink:href="#DejaVuSans-75" x="480.216797"/>
     <use xlink:href="#DejaVuSans-72" x="543.595703"/>
     <use xlink:href="#DejaVuSans-79" x="584.708984"/>
     <use xlink:href="#DejaVuSans-20" x="643.888672"/>
     <use xlink:href="#DejaVuSans-59" x="675.675781"/>
     <use xlink:href="#DejaVuSans-69" x="733.134766"/>
     <use xlink:href="#DejaVuSans-65" x="760.917969"/>
     <use xlink:href="#DejaVuSans-6c" x="822.441406"/>
     <use xlink:href="#DejaVuSans-64" x="850.224609"/>
    </g>
   </g>
  </g>
 </g>
 <defs>
  <clipPath id="pf82ad75505">
   <rect x="33.55" y="26.88" width="313.335373" height="141.791221"/>
  </clipPath>
 </defs>
</svg>
